<svg height="600" width="1200" viewBox="0 0 938.64 496.5" xmlns="http://www.w3.org/2000/svg" xmlns:xlink="http://www.w3.org/1999/xlink"><marker id="a" orient="auto" refX="0" refY="0" style="overflow:visible"><path d="m5.77 0-8.65 5v-10z" style="fill:#696969;fill-rule:evenodd;stroke:#696969;stroke-width:1pt" transform="scale(-.4)"/></marker><marker id="b" orient="auto" refX="0" refY="0" style="overflow:visible"><path d="m5.77 0-8.65 5v-10z" style="fill:#696969;fill-rule:evenodd;stroke:#696969;stroke-width:1pt" transform="scale(-.4)"/></marker><marker id="c" orient="auto" refX="0" refY="0" style="overflow:visible"><path d="m5.77 0-8.65 5v-10z" style="fill:#696969;fill-rule:evenodd;stroke:#696969;stroke-width:1pt" transform="scale(-.4)"/></marker><marker id="d" orient="auto" refX="0" refY="0" style="overflow:visible"><path d="m5.77 0-8.65 5v-10z" style="fill:#696969;fill-rule:evenodd;stroke:#696969;stroke-width:1pt" transform="scale(-.4)"/></marker><marker id="e" orient="auto" refX="0" refY="0" style="overflow:visible"><path d="m5.77 0-8.65 5v-10z" style="fill:#696969;fill-rule:evenodd;stroke:#696969;stroke-width:1pt" transform="scale(-.4)"/></marker><marker id="f" orient="auto" refX="0" refY="0" style="overflow:visible"><path d="m5.77 0-8.65 5v-10z" style="fill:#696969;fill-rule:evenodd;stroke:#696969;stroke-width:1pt" transform="scale(-.4)"/></marker><marker id="g" orient="auto" refX="0" refY="0" style="overflow:visible"><path d="m5.77 0-8.65 5v-10z" style="fill:#696969;fill-rule:evenodd;stroke:#696969;stroke-width:1pt" transform="scale(-.4)"/></marker><marker id="h" orient="auto" refX="0" refY="0" style="overflow:visible"><path d="m5.77 0-8.65 5v-10z" style="fill:#696969;fill-rule:evenodd;stroke:#696969;stroke-width:1pt" transform="scale(-.4)"/></marker><marker id="i" orient="auto" refX="0" refY="0" style="overflow:visible"><path d="m5.77 0-8.65 5v-10z" style="fill:#696969;fill-rule:evenodd;stroke:#696969;stroke-width:1pt" transform="scale(-.4)"/></marker><marker id="j" orient="auto" refX="0" refY="0" style="overflow:visible"><path d="m5.77 0-8.65 5v-10z" style="fill:#696969;fill-rule:evenodd;stroke:#696969;stroke-width:1pt" transform="scale(-.4)"/></marker><marker id="k" orient="auto" refX="0" refY="0" style="overflow:visible"><path d="m5.77 0-8.65 5v-10z" style="fill:#696969;fill-rule:evenodd;stroke:#696969;stroke-width:1pt" transform="scale(-.4)"/></marker><marker id="l" orient="auto" refX="0" refY="0" style="overflow:visible"><path d="m5.77 0-8.65 5v-10z" style="fill:#696969;fill-rule:evenodd;stroke:#696969;stroke-width:1pt" transform="scale(-.4)"/></marker><marker id="m" orient="auto" refX="0" refY="0" style="overflow:visible"><path d="m5.77 0-8.65 5v-10z" style="fill:#696969;fill-rule:evenodd;stroke:#696969;stroke-width:1pt" transform="scale(-.4)"/></marker><marker id="n" orient="auto" refX="0" refY="0" style="overflow:visible"><path d="m5.77 0-8.65 5v-10z" style="fill:#696969;fill-rule:evenodd;stroke:#696969;stroke-width:1pt" transform="scale(-.4)"/></marker><marker id="o" orient="auto" refX="0" refY="0" style="overflow:visible"><path d="m5.77 0-8.65 5v-10z" style="fill:#696969;fill-rule:evenodd;stroke:#696969;stroke-width:1pt" transform="scale(-.4)"/></marker><marker id="p" orient="auto" refX="0" refY="0" style="overflow:visible"><path d="m5.77 0-8.65 5v-10z" style="fill:#696969;fill-rule:evenodd;stroke:#696969;stroke-width:1pt" transform="scale(-.4)"/></marker><marker id="q" orient="auto" refX="0" refY="0" style="overflow:visible"><path d="m5.77 0-8.65 5v-10z" style="fill:#696969;fill-rule:evenodd;stroke:#696969;stroke-width:1pt" transform="scale(-.4)"/></marker><marker id="r" orient="auto" refX="0" refY="0" style="overflow:visible"><path d="m5.77 0-8.65 5v-10z" style="fill:#696969;fill-rule:evenodd;stroke:#696969;stroke-width:1pt" transform="scale(-.4)"/></marker><marker id="s" orient="auto" refX="0" refY="0" style="overflow:visible"><path d="m5.77 0-8.65 5v-10z" style="fill:#696969;fill-rule:evenodd;stroke:#696969;stroke-width:1pt" transform="scale(-.4)"/></marker><marker id="t" orient="auto" refX="0" refY="0" style="overflow:visible"><path d="m5.77 0-8.65 5v-10z" style="fill:#696969;fill-rule:evenodd;stroke:#696969;stroke-width:1pt" transform="scale(-.4)"/></marker><marker id="u" orient="auto" refX="0" refY="0" style="overflow:visible"><path d="m5.77 0-8.65 5v-10z" style="fill:#696969;fill-rule:evenodd;stroke:#696969;stroke-width:1pt" transform="scale(-.4)"/></marker><marker id="v" orient="auto" refX="0" refY="0" style="overflow:visible"><path d="m5.77 0-8.65 5v-10z" style="fill:#696969;fill-rule:evenodd;stroke:#696969;stroke-width:1pt" transform="scale(-.4)"/></marker><marker id="w" orient="auto" refX="0" refY="0" style="overflow:visible"><path d="m5.77 0-8.65 5v-10z" style="fill:#696969;fill-rule:evenodd;stroke:#696969;stroke-width:1pt" transform="scale(-.4)"/></marker><marker id="x" orient="auto" refX="0" refY="0" style="overflow:visible"><path d="m5.77 0-8.65 5v-10z" style="fill:#696969;fill-rule:evenodd;stroke:#696969;stroke-width:1pt" transform="scale(-.4)"/></marker><marker id="y" orient="auto" refX="0" refY="0" style="overflow:visible"><path d="m5.77 0-8.65 5v-10z" style="fill:#696969;fill-rule:evenodd;stroke:#696969;stroke-width:1pt" transform="scale(-.4)"/></marker><marker id="z" orient="auto" refX="0" refY="0" style="overflow:visible"><path d="m5.77 0-8.65 5v-10z" style="fill:#696969;fill-rule:evenodd;stroke:#696969;stroke-width:1pt" transform="scale(-.4)"/></marker><marker id="A" orient="auto" refX="0" refY="0" style="overflow:visible"><path d="m5.77 0-8.65 5v-10z" style="fill:#696969;fill-rule:evenodd;stroke:#696969;stroke-width:1pt" transform="scale(-.4)"/></marker><marker id="B" orient="auto" refX="0" refY="0" style="overflow:visible"><path d="m5.77 0-8.65 5v-10z" style="fill:#696969;fill-rule:evenodd;stroke:#696969;stroke-width:1pt" transform="scale(-.4)"/></marker><marker id="C" orient="auto" refX="0" refY="0" style="overflow:visible"><path d="m5.77 0-8.65 5v-10z" style="fill:#696969;fill-rule:evenodd;stroke:#696969;stroke-width:1pt" transform="scale(-.4)"/></marker><marker id="D" orient="auto" refX="0" refY="0" style="overflow:visible"><path d="m5.77 0-8.65 5v-10z" style="fill:#696969;fill-rule:evenodd;stroke:#696969;stroke-width:1pt" transform="scale(-.4)"/></marker><marker id="E" orient="auto" refX="0" refY="0" style="overflow:visible"><path d="m5.77 0-8.65 5v-10z" style="fill:#696969;fill-rule:evenodd;stroke:#696969;stroke-width:1pt" transform="scale(-.4)"/></marker><marker id="F" orient="auto" refX="0" refY="0" style="overflow:visible"><path d="m5.77 0-8.65 5v-10z" style="fill:#696969;fill-rule:evenodd;stroke:#696969;stroke-width:1pt" transform="scale(-.4)"/></marker><text style="stroke-width:.94" x="567.34" y="165.57"><tspan style="stroke-width:.94" x="567.34" y="174.43"/></text><g transform="translate(167.82 -48.56)"><path d="m311.97 175.48h103.27v28.04h-103.27z" style="fill:none;stroke:#000;stroke-width:1.1"/><text style="font-size:10;font-family:Droid Sans;letter-spacing:0;word-spacing:0;stroke-width:.94" x="317.29" y="192.09"><tspan style="stroke-width:.94" x="317.29" y="192.09">Active Directory (AD)</tspan><tspan style="stroke-width:.94" x="317.29" y="192.09"/></text></g><g transform="translate(169.37 -35.12)"><path d="m317.43 219.93h87.25v28.04h-87.25z" style="fill:none;stroke:#f00;stroke-width:1.1"/><text style="font-size:10;font-family:Droid Sans;letter-spacing:0;word-spacing:0;stroke-width:.94" x="327.63" y="236.54"><tspan style="stroke-width:.94" x="327.63" y="236.54">Data Modelling</tspan></text></g><path d="m353.18 233.9h156.52v31.14h-156.52z" style="fill:none;stroke:#f00;stroke-width:1.1"/><g style="font-size:10;font-family:Droid Sans;letter-spacing:0;word-spacing:0;stroke-width:.94" transform="translate(-101.74 22.25)"><text x="506.99" y="223.1"><tspan x="506.99" y="223.1">Hierarchy</tspan></text><text x="460.29" y="235.51"><tspan style="fill:#f00" x="460.29" y="235.51">(but not a tree, multiple parents)</tspan></text></g><g transform="translate(235.28 12.92)"><path d="m317.43 219.93h102.76v35.28h-102.76z" style="fill:none;stroke:#f00;stroke-width:1.1"/><text style="font-size:10;font-family:Droid Sans;letter-spacing:0;word-spacing:0;stroke-width:.94" x="322.98" y="234.99"><tspan x="322.98" y="234.99">Other model views :</tspan><tspan x="322.98" y="247.49">ex: domain users</tspan></text></g><g transform="translate(57.47 119.43)"><path d="m268.84 174.96h95v35.79h-95z" style="fill:none;stroke:#f00;stroke-width:1.1"/><text style="font-size:10;font-family:Droid Sans;letter-spacing:0;word-spacing:0;stroke-width:.94" x="277.49" y="189.5"><tspan x="277.49" y="189.5">Top level objects :</tspan><tspan x="277.49" y="202">forest, domain</tspan></text></g><g transform="translate(149.47 128.73)"><path d="m162.36 221.48h119.3v32.17h-119.3z" style="fill:none;stroke:#f00;stroke-width:1.1"/><text style="font-size:10;font-family:Droid Sans;letter-spacing:0;word-spacing:0;stroke-width:.94" x="167.39" y="233.96"><tspan x="167.39" y="233.96">Organisational unit</tspan><tspan x="167.39" y="246.46">- can contain other OUs</tspan></text></g><g transform="translate(-129.13 115.3)"><path d="m257.47 174.96h142.56v83.35h-142.56z" style="fill:none;stroke:#f60;stroke-width:1.1"/><text style="font-size:10;font-family:Droid Sans;letter-spacing:0;word-spacing:0;stroke-width:.94" x="264.05" xml:space="preserve" y="188.99"><tspan x="264.05" y="188.99">Policies (GPO)</tspan><tspan x="264.05" y="201.49">Machine/user configuration</tspan><tspan x="264.05" y="213.99">- ex: windows registry values</tspan><tspan x="264.05" y="226.49">- ex: login scripts</tspan><tspan x="264.05" y="238.99">- ex: software to install</tspan><tspan x="264.05" y="251.49">... </tspan></text></g><g transform="translate(8.36 184.04)"><path d="m317.43 219.93h87.25v28.04h-87.25z" style="fill:none;stroke:#f00;stroke-width:1.1"/><text style="font-size:10;font-family:Droid Sans;letter-spacing:0;word-spacing:0;stroke-width:.94" x="327.63" y="236.54"><tspan style="stroke-width:.94" x="327.63" y="236.54">Security group</tspan></text></g><g transform="translate(-261.72 81.7)"><path d="m336.81 310.38h196.32v34.24h-196.32z" style="fill:none;stroke:#f60;stroke-width:1.1"/><text style="font-size:10;font-family:Droid Sans;letter-spacing:0;word-spacing:0;stroke-width:.94" x="344.95" y="323.9"><tspan x="344.95" y="323.9">Role based access control (RBAC)</tspan><tspan x="344.95" y="336.4">which users can access group resources</tspan></text></g><g transform="translate(-75.38 237.8)"><path d="m317.43 219.93h103.28v31.14h-103.28z" style="fill:none;stroke:#f00;stroke-width:1.1"/><text style="font-size:10;font-family:Droid Sans;letter-spacing:0;word-spacing:0;stroke-width:.94" x="325.05" y="231.89"><tspan x="325.05" y="231.89">Resources</tspan><tspan x="325.05" y="244.39">ex: printer, folder ...</tspan></text></g><g transform="translate(61.09 237.8)"><path d="m317.43 219.93h114.13v31.14h-114.13z" style="fill:none;stroke:#f00;stroke-width:1.1"/><text style="font-size:10;font-family:Droid Sans;letter-spacing:0;word-spacing:0;stroke-width:.94" x="324.01" y="232.41"><tspan x="324.01" y="232.41">Security principal :</tspan><tspan x="324.01" y="244.91">users/system accounts</tspan></text></g><g transform="translate(197.29 79.11)"><ellipse cx="334.77" cy="-28.76" rx="79.93" ry="42.71" style="fill:none;stroke:#666;stroke-width:1.1;stroke-dasharray:6.6 2.2"/><text style="font-size:10;font-family:Droid Sans;letter-spacing:0;word-spacing:0;stroke-width:.94" x="280.59" y="-44.65"><tspan x="280.59" y="-44.65">Other functionality :</tspan><tspan x="280.59" y="-32.15">- federation</tspan><tspan x="280.59" y="-19.65">- public key infrastructure</tspan><tspan x="280.59" y="-7.15">....</tspan></text></g><g transform="translate(439.97 -64.07)"><path d="m317.43 219.93h72.78v32.69h-72.78z" style="fill:none;stroke:#00f;stroke-width:1.1"/><text style="font-size:10;font-family:Droid Sans;letter-spacing:0;word-spacing:0;stroke-width:.94" x="328.15" y="233.44"><tspan x="328.15" y="233.44">Admin tools</tspan><tspan x="328.15" y="245.94">(ADAC)</tspan></text></g><g transform="translate(155.16 74.98)"><path d="m317.43 219.93h81.05v33.72h-81.05z" style="fill:none;stroke:#f00;stroke-width:1.1"/><text style="font-size:10;font-family:Droid Sans;letter-spacing:0;word-spacing:0;stroke-width:.94" x="324.53" y="233.96"><tspan x="324.53" y="233.96">Object naming</tspan><tspan x="324.53" y="246.46">and attributes</tspan></text></g><g transform="translate(182.56 132.35)"><path d="m317.43 219.93h107.41v34.24h-107.41z" style="fill:none;stroke:#f00;stroke-width:1.1"/><text style="font-size:10;font-family:Droid Sans;letter-spacing:0;word-spacing:0;stroke-width:.94" x="326.6" y="232.92"><tspan x="326.6" y="232.92">Relative/absolute</tspan><tspan x="326.6" y="245.42">distinguished name</tspan></text></g><g transform="translate(212.02 187.41)"><path d="m319.49 221.99h154.97v43.03h-154.97z" style="fill:none;stroke:#f00;stroke-width:1.1"/><text style="font-size:10;font-family:Droid Sans;letter-spacing:0;word-spacing:0;stroke-width:.94" x="324.53" y="233.96"><tspan x="324.53" y="233.96">cn: common name</tspan><tspan x="324.53" y="246.46">dc: domain component</tspan><tspan x="324.53" y="258.96">=&gt; dn: cn=noir, dc=choco, dc=lat</tspan></text></g><path d="m630.76 155.34h87.25v28.04h-87.25z" style="fill:none;stroke:#00f;stroke-width:1.1"/><text style="font-size:10;font-family:Droid Sans;letter-spacing:0;word-spacing:0;stroke-width:.94" transform="translate(58.24 -27.37)" x="580.39" y="199.33"><tspan style="stroke-width:.94" x="580.39" y="199.33">Implementation</tspan></text><path d="m757.43 207.62h173.57v56.99h-173.57z" style="fill:none;stroke:#00f;stroke-width:1.1"/><text style="font-size:10;font-family:Droid Sans;letter-spacing:0;word-spacing:0;stroke-width:.94" transform="translate(182.33 21.29)" x="580.39" y="199.33"><tspan x="580.39" y="199.33">Domain controller (DC)</tspan><tspan x="580.39" y="211.83">- Maintains replica of directory</tspan><tspan x="580.39" y="224.33">- Handles authentication/permission</tspan><tspan x="580.39" y="236.83">- Service discovery ...</tspan></text><path d="m375.93 127.94h66.05v28.04h-66.05z" style="fill:none;stroke:#008000;stroke-width:1.1"/><text style="font-size:10;font-family:Droid Sans;letter-spacing:0;word-spacing:0;stroke-width:.94" transform="translate(-195.56 -54.77)" x="580.39" y="199.33"><tspan style="stroke-width:.94" x="580.39" y="199.33">Operation</tspan></text><path d="m631.28 87.63h63.47v34.76h-63.47z" style="fill:none;stroke:#00f;stroke-width:1.1"/><text style="font-size:10;font-family:Droid Sans;letter-spacing:0;word-spacing:0;stroke-width:.94" transform="translate(57.73 -97.66)" x="580.39" y="199.33"><tspan x="580.39" y="199.33">"Standard"</tspan><tspan x="580.39" y="211.83">protocols</tspan></text><path d="m733.62 101.58h168.4v34.76h-168.4z" style="fill:none;stroke:#00f;stroke-width:1.1"/><text style="font-size:10;font-family:Droid Sans;letter-spacing:0;word-spacing:0;stroke-width:.94" transform="translate(158 -84.23)" x="580.39" y="199.33"><tspan x="580.39" y="199.33">LDAP (with ms extensions)</tspan><tspan x="580.39" y="211.83">x5** standards (bloated like SOAP)</tspan></text><path d="m733.62 17.33h182.36v69.39h-182.36z" style="fill:none;stroke:#00f;stroke-width:1.1"/><text style="font-size:10;font-family:Droid Sans;letter-spacing:0;word-spacing:0;stroke-width:.94" transform="translate(159.04 -169)" x="580.39" y="199.33"><tspan x="580.39" y="199.33">LDAP interchange format (LDIF)</tspan><tspan x="580.39" y="211.83">dn: cn=sbrown20,dc=example,dc=com</tspan><tspan x="580.39" y="224.33">objectClass: inetOrgPerson</tspan><tspan x="580.39" y="236.83">description: cocoloco</tspan><tspan x="580.39" y="249.33">uid: sbrown20</tspan></text><path d="m268.66 167.22h84.67v32.69h-84.67z" style="fill:none;stroke:#008000;stroke-width:1.1"/><text style="font-size:10;font-family:Droid Sans;letter-spacing:0;word-spacing:0;stroke-width:.94" transform="translate(-306.96 -18.59)" x="580.39" y="199.33"><tspan x="580.39" y="199.33">Search, Add,</tspan><tspan x="580.39" y="211.83">Modify, Delete ...</tspan></text><path d="m307.96 113.47h43.83v28.04h-43.83z" style="fill:none;stroke:#008000;stroke-width:1.1"/><text style="font-size:10;font-family:Droid Sans;letter-spacing:0;word-spacing:0;stroke-width:.94" transform="translate(-263.53 -69.24)" x="580.39" y="199.33"><tspan x="580.39" y="199.33">Bind</tspan></text><path d="m208.2 114.5h74.85v28.04h-74.85z" style="fill:none;stroke:#008000;stroke-width:1.1"/><text style="font-size:10;font-family:Droid Sans;letter-spacing:0;word-spacing:0;stroke-width:.94" transform="translate(-367.42 -67.69)" x="580.39" y="199.33"><tspan style="stroke-width:.94" x="580.39" y="199.33">Authentication</tspan></text><path d="m207.94 72.12h74.85v28.04h-74.85z" style="fill:none;stroke:#008000;stroke-width:1.1"/><text style="font-size:10;font-family:Droid Sans;letter-spacing:0;word-spacing:0;stroke-width:.94" transform="translate(-367.68 -110.07)" x="580.39" y="199.33"><tspan style="stroke-width:.94" x="580.39" y="199.33">Permissions</tspan></text><path d="m77.93 182.74h161.17v34.24h-161.17z" style="fill:none;stroke:#008000;stroke-width:1.1"/><text style="font-size:10;font-family:Droid Sans;letter-spacing:0;word-spacing:0;stroke-width:.94" transform="translate(-496.65 -3.59)" x="580.39" y="199.33"><tspan x="580.39" y="199.33">Security account manager (SAM)</tspan><tspan x="580.39" y="211.83">database that stores the directory</tspan></text><path d="m139.71 141.38h43.83v28.04h-43.83z" style="fill:none;stroke:#008000;stroke-width:1.1"/><text style="font-size:10;font-family:Droid Sans;letter-spacing:0;word-spacing:0;stroke-width:.94" transform="translate(-431.78 -41.33)" x="580.39" y="199.33"><tspan x="580.39" y="199.33">SASL</tspan></text><path d="m7.64 70.56h162.72v45.1h-162.72z" style="fill:none;stroke:#008000;stroke-width:1.1"/><text style="font-size:10;font-family:Droid Sans;letter-spacing:0;word-spacing:0;stroke-width:.94" transform="translate(-567.46 -115.25)" x="580.39" y="199.33"><tspan x="580.39" y="199.33">Kerberos</tspan><tspan x="580.39" y="211.83">- Only authentication</tspan><tspan x="580.39" y="224.33">- Ms extensions for permissioning</tspan></text><g style="fill:none;stroke:#696969"><path d="m529.73 95.97.1 31.01" style="marker-start:url(#a)"/><path d="m529.82 182.24-.45-27.47" style="marker-start:url(#b)"/><path d="m444.86 140.3 34.82.12" style="marker-start:url(#c)"/><path d="m628.78 111.16-45.77 29.91" style="marker-start:url(#d)"/><path d="m628.04 162.57-45.03-21.5" style="marker-start:url(#e)"/><path d="m731.36 60.84-36.82 43.38" style="marker-start:url(#f)"/><path d="m730.98 118.9-36.44-14.68" style="marker-start:url(#g)"/><path d="m754.42 169.94-36.44-.06" style="marker-start:url(#h)"/><path d="m755.32 212.96-37.34-43.08" style="marker-start:url(#i)"/><path d="m354.29 128.34 21.66 13.28" style="marker-start:url(#j)"/><path d="m350.66 164.63 25.29-23.01" style="marker-start:url(#k)"/><path d="m284.69 91.71 23.12 36.13" style="marker-start:url(#l)"/><path d="m285.42 127.71 22.39.12" style="marker-start:url(#m)"/><path d="m173.18 87.22 34.45.12" style="marker-start:url(#n)"/><path d="m172.63 98.37 35.18 29.73" style="marker-start:url(#o)"/><path d="m185.66 145.09 22.16-16.99" style="marker-start:url(#p)"/><path d="m241.75 195.02 26.73-11.51" style="marker-start:url(#q)"/><path d="m482.07 232.48 44.45-19.37" style="marker-start:url(#r)"/><path d="m564.35 231.71-37.83-18.6" style="marker-start:url(#s)"/><path d="m392.6 292.05 33.26-27.37" style="marker-start:url(#t)"/><path d="m471.73 293.18-45.87-28.5" style="marker-start:url(#u)"/><path d="m368.93 347.11.18-16.99" style="marker-start:url(#v)"/><path d="m272.99 346.56 39.11 21.57" style="marker-start:url(#w)"/><path d="m273.81 325.5 52.26-12.24" style="marker-start:url(#x)"/><path d="m368.07 401.23.01-19.4" style="marker-start:url(#y)"/><path d="m273.94 409.58 51.51 7.81" style="marker-start:url(#z)"/><path d="m338.88 455.4 23.09-23.02" style="marker-start:url(#A)"/><path d="m382.08 455.74-20.11-23.36" style="marker-start:url(#B)"/><path d="m264.13 428.77 21.58 28.66" style="marker-start:url(#C)"/><path d="m524.76 350.05-13.91-21.63" style="marker-start:url(#D)"/><path d="m561.28 406.75-13.22-20.43" style="marker-start:url(#E)"/><path d="m33.53 118.68 47.5 272.49" style="marker-start:url(#F)"/></g></svg>
