<svg height="109.09mm" viewBox="0 0 750.13 386.53" width="211.7mm" xmlns="http://www.w3.org/2000/svg"><g transform="translate(20.32 -160.75)"><path d="m215.93 161.3h225.79v80.47h-225.79z" style="fill:none;stroke:#9acd32;stroke-width:1.1;stroke-dasharray:6.6 2.2"/><text style="font-size:10;font-family:Droid Sans;letter-spacing:-.5;word-spacing:0" x="218.76" y="172.52"><tspan x="218.76" y="172.52">Business oriented teams</tspan></text><g transform="translate(-71.26 -167.93)"><path d="m118.21 448.73h79.82v26.96h-79.82z" style="fill:none;stroke:#00f;stroke-width:1.1"/><text style="font-size:10;font-family:Droid Sans;letter-spacing:-.5;word-spacing:0" x="122.33" y="460.94"><tspan x="122.33" y="460.94">Service discovery</tspan><tspan x="122.33" y="470.94">and routing</tspan></text></g><g transform="translate(-17.16 -68.54)"><text style="font-size:10;font-family:Droid Sans;letter-spacing:-.5;word-spacing:0" x="375.84" y="279.2"><tspan x="375.84" y="279.2">Full stack teams</tspan></text><path d="m373.5 267.75h72.23v16.84h-72.23z" style="fill:none;stroke:#008000;stroke-width:1.1"/></g><g transform="translate(18.56 -170.42)"><text style="font-size:10;font-family:Droid Sans;letter-spacing:-.5;word-spacing:0" x="220.2" y="365.6"><tspan x="220.2" y="365.6">DevOps</tspan><tspan x="220.2" y="375.6">Responsible for</tspan><tspan x="220.2" y="385.6">development and</tspan><tspan x="220.2" y="395.6">production operations</tspan></text><path d="m215.73 353.81h98.38v46.37h-98.38z" style="fill:none;stroke:#008000;stroke-width:1.1"/></g><path d="m15.66 260.74h263.97v138.86h-263.97z" style="fill:none;stroke:#1e90ff;stroke-width:1.1;stroke-dasharray:6.6 2.2"/><text style="font-size:10;font-family:Droid Sans;letter-spacing:-.5;word-spacing:0" x="18.56" y="271.95"><tspan x="18.56" y="271.95">Distributing the application</tspan></text><g transform="translate(31.04 -200.92)"><text style="font-size:10;font-family:Droid Sans;letter-spacing:-.5;word-spacing:0" x="159.46" y="520.84"><tspan x="159.46" y="520.84">Design for failure</tspan><tspan x="159.46" y="530.84">Redundancy and</tspan><tspan x="159.46" y="540.84">Service isolation</tspan></text><path d="m154.98 508.2h82.35v39.62h-82.35z" style="fill:none;stroke:#00f;stroke-width:1.1"/></g><g transform="translate(143.37 -246.2)"><text style="font-size:10;font-family:Droid Sans;letter-spacing:-.5;word-spacing:0" x="77.62" y="535.18"><tspan x="77.62" y="535.18">Scalability</tspan></text><path d="m73.99 521.7h49.45v20.21h-49.45z" style="fill:none;stroke:#00f;stroke-width:1.1"/></g><g transform="translate(-22.6 -195.43)"><text style="font-size:10;font-family:Droid Sans;letter-spacing:-.5;word-spacing:0" x="63.28" y="568.09"><tspan x="63.28" y="568.09">Centralized monitoring</tspan><tspan x="63.28" y="578.09">and logging</tspan></text><path d="m59.65 556.29h105.13v26.96h-105.13z" style="fill:none;stroke:#00f;stroke-width:1.1"/></g><g transform="translate(-170.71 -279.37)"><text style="font-size:10;font-family:Droid Sans;letter-spacing:-.5;word-spacing:0" x="203.33" y="611.96"><tspan x="203.33" y="611.96">Centralized</tspan><tspan x="203.33" y="621.96">Configuration management</tspan></text><path d="m199.7 597.63h122.85v32.03h-122.85z" style="fill:none;stroke:#00f;stroke-width:1.1"/></g><path d="m255.27 416.82h263.97v129.91h-263.97z" style="fill:none;stroke:#f0e68c;stroke-width:1.1;stroke-dasharray:6.6 2.2"/><text style="font-size:10;font-family:Droid Sans;letter-spacing:-.5;word-spacing:0" x="310.9" y="328.55"><tspan x="310.9" y="328.55">Services as Components</tspan></text><path d="m307.69 334.99h105.13v-19.77h-105.13z" style="fill:none;stroke:#f00;stroke-width:1.1"/><g transform="translate(-48.93 -107.99)"><text style="font-size:10;font-family:Droid Sans;letter-spacing:-.5;word-spacing:0" x="492.71" y="425.5"><tspan x="492.71" y="425.5">Decentralised</tspan><tspan x="492.71" y="435.5">Governance and</tspan><tspan x="492.71" y="445.5">Data management</tspan></text><path d="m487.4 450.57h88.26v-36.64h-88.26z" style="fill:none;stroke:#f00;stroke-width:1.1"/></g><g transform="translate(56.53 -58.21)"><text style="font-size:10;font-family:Droid Sans;letter-spacing:-.5;word-spacing:0" x="334.94" xml:space="preserve" y="568.93"><tspan x="334.94" y="568.93">Company wide</tspan><tspan x="334.94" y="578.93">Deployment tools and </tspan><tspan x="334.94" y="588.93">pre-packged technologies</tspan></text><path d="m331.31 558.82h111.03v36.24h-111.03z" style="fill:none;stroke:#ff4500;stroke-width:1.1"/></g><g transform="translate(-110.52 -126.55)"><text style="font-size:10;font-family:Droid Sans;letter-spacing:-.5;word-spacing:0" x="550.93" y="503.12"><tspan x="550.93" y="503.12">Uncorrelated service</tspan><tspan x="550.93" y="513.12">releases</tspan></text><path d="m547.3 492.17h92.47v25.28h-92.47z" style="fill:none;stroke:#f00;stroke-width:1.1"/></g><text style="font-size:10;font-family:Droid Sans;letter-spacing:-.5;word-spacing:0" x="259.01" y="428.88"><tspan x="259.01" y="428.88">Full Automation</tspan></text><g transform="translate(-31.22 -58.21)"><text style="font-size:10;font-family:Droid Sans;letter-spacing:-.5;word-spacing:0" x="304.57" y="510.71"><tspan x="304.57" y="510.71">Automation</tspan><tspan x="304.57" y="520.71">at every level of</tspan><tspan x="304.57" y="530.71">the release pipeline</tspan></text><path d="m300.94 498.92h87.41v37.93h-87.41z" style="fill:none;stroke:#ff4500;stroke-width:1.1"/></g><g transform="translate(-5.06 -64.12)"><text style="font-size:10;font-family:Droid Sans;letter-spacing:-.5;word-spacing:0" x="399.06" y="514.93"><tspan x="399.06" y="514.93">Continuous</tspan><tspan x="399.06" y="524.93">Integration, Delivery</tspan><tspan x="399.06" y="534.93">and Deployment</tspan></text><path d="m395.43 503.98h89.94v35.4h-89.94z" style="fill:none;stroke:#ff4500;stroke-width:1.1"/></g><g transform="translate(-98.71 -193.2)"><path d="m364.22 699.72h110.19v25.28h-110.19z" style="fill:none;stroke:#ff4500;stroke-width:1.1"/><text style="font-size:10;font-family:Droid Sans;letter-spacing:-.5;word-spacing:0" x="367" xml:space="preserve" y="710.67"><tspan x="367" y="710.67">Container and </tspan><tspan x="367" y="720.67">virtualisation technologies</tspan></text></g><g style="fill:none"><g style="stroke:#696969;stroke-width:.9"><path d="m250.44 229.46 43.78 24.08 1.86 186.52"/><path d="m464.88 390.76-25.35 49.52"/><path d="m335.42 477.56 52.2 27.44"/><path d="m336.02 478.45-12.82 27.44"/><path d="m406.12 474.88-61.74 31.62"/><path d="m404.93 475.77 25.35 24.46"/><path d="m479.8 341.84 6.27 23.86"/><path d="m332.14 208.8 24.16-2.98"/><path d="m412.68 324.24h25.95"/><path d="m353.92 241.61-.3 73.38"/><path d="m360.48 334.08-.3 83.52"/><path d="m279.64 324.84h28.34"/><path d="m250.41 275.02.3-45.94"/><path d="m211.04 307.54.25-51 38.83-26.55"/><path d="m126.92 293.22 90.38-5.97"/><path d="m126.62 293.52 59.36 34"/><path d="m151.38 324.54 65.92-37.58"/><path d="m141.84 374.95 44.44-47.73"/><path d="m142.13 373.76 22.12-38.31 3-33.39 49.75-15.4"/></g><path d="m468.03 201.07h225.79v94.61h-225.79z" style="stroke:#ff69b4;stroke-width:1.1;stroke-dasharray:6.6 2.2"/></g><text style="font-size:10;font-family:Droid Sans;letter-spacing:-.5;word-spacing:0" x="470.43" y="212.17"><tspan x="470.43" y="212.17">Service interoperability</tspan></text><g transform="translate(496.66 -238.32)"><path d="m85.86 485.31h101.79v24.73h-101.79z" style="fill:none;stroke:#8a2be2;stroke-width:1.1"/><text style="font-size:10;font-family:Droid Sans;letter-spacing:-.5;word-spacing:0" x="88.82" y="496.01"><tspan x="88.82" y="496.01">Postel law</tspan><tspan x="88.82" y="506.01">Tolerant reader pattern</tspan></text></g><g transform="translate(317.49 -261.63)"><text style="font-size:10;font-family:Droid Sans;letter-spacing:-.5;word-spacing:0" x="161.27" y="533.35"><tspan x="161.27" y="533.35">Service isolation or</tspan><tspan x="161.27" y="543.35">Graceful degradation</tspan></text><path d="m157.77 523.28h94.01v24.73h-94.01z" style="fill:none;stroke:#8a2be2;stroke-width:1.1"/></g><g transform="translate(458.91 -306.88)"><text style="font-size:10;font-family:Droid Sans;letter-spacing:-.5;word-spacing:0" x="21.94" y="537.25"><tspan x="21.94" y="537.25">Network failures :</tspan><tspan x="21.94" y="547.25">Asynchronous calls</tspan><tspan x="21.94" y="557.25">Circuit breakers</tspan></text><path d="m18.08 525.01h88.35v36.75h-88.35z" style="fill:none;stroke:#8a2be2;stroke-width:1.1"/></g><g style="fill:none;stroke:#696969;stroke-width:.9"><path d="m265.96 283.68 209.89-41.32"/><path d="m268.08 313.73 207.06-39.9"/><path d="m529.36 376.31 98.16-104.96"/><path d="m354 314.09 113.72-25.77"/></g></g></svg>