<svg height="400" viewBox="0 0 673.08 367.13" width="900" xml:space="preserve" xmlns="http://www.w3.org/2000/svg" xmlns:xlink="http://www.w3.org/1999/xlink">
<clipPath id="a">
<path d="m111.41 749.02h75.65v8.23h-75.65z" style="clip-rule:evenodd"/>
</clipPath>
<clipPath id="b">
<path d="m111.41 749.04h75.65v8.21h-75.65z" style="clip-rule:evenodd"/>
</clipPath>
<clipPath id="c">
<path d="m111.41 749.04h75.65v8.21h-75.65z" style="clip-rule:evenodd"/>
</clipPath>
<clipPath id="d">
<path d="m111.41 749.04h75.65v8.21h-75.65z" style="clip-rule:evenodd"/>
</clipPath>
<clipPath id="e">
<path d="m109.22 644.4h63.58v8.21h-63.58z" style="clip-rule:evenodd"/>
</clipPath>
<clipPath id="f">
<path d="m109.22 644.4h63.58v8.21h-63.58z" style="clip-rule:evenodd"/>
</clipPath>
<clipPath id="g">
<path d="m184.44 687.98h64.97v8.21h-64.97z" style="clip-rule:evenodd"/>
</clipPath>
<clipPath id="h">
<path d="m184.44 687.98h64.97v8.21h-64.97z" style="clip-rule:evenodd"/>
</clipPath>
<clipPath id="i">
<path d="m184.44 679.87h60.74v8.21h-60.74z" style="clip-rule:evenodd"/>
</clipPath>
<clipPath id="j">
<path d="m184.44 679.87h60.74v8.21h-60.74z" style="clip-rule:evenodd"/>
</clipPath>
<clipPath id="k">
<path d="m178.25 729.05h70.13v8.21h-70.13z" style="clip-rule:evenodd"/>
</clipPath>
<clipPath id="l">
<path d="m178.25 729.05h70.13v8.21h-70.13z" style="clip-rule:evenodd"/>
</clipPath>
<clipPath id="m">
<path d="m178.25 720.91h79.37v8.21h-79.37z" style="clip-rule:evenodd"/>
</clipPath>
<clipPath id="n">
<path d="m178.25 720.91h79.37v8.21h-79.37z" style="clip-rule:evenodd"/>
</clipPath>
<clipPath id="o">
<path d="m178.25 712.78h53.35v8.21h-53.35z" style="clip-rule:evenodd"/>
</clipPath>
<clipPath id="p">
<path d="m178.25 712.78h53.35v8.21h-53.35z" style="clip-rule:evenodd"/>
</clipPath>
<clipPath id="q">
<path d="m120.74 613.32h64.97v8.21h-64.97z" style="clip-rule:evenodd"/>
</clipPath>
<clipPath id="r">
<path d="m120.77 613.32h64.94v8.21h-64.94z" style="clip-rule:evenodd"/>
</clipPath>
<clipPath id="s">
<path d="m120.74 605.18h60.77v8.23h-60.77z" style="clip-rule:evenodd"/>
</clipPath>
<clipPath id="t">
<path d="m120.77 605.18h60.74v8.23h-60.74z" style="clip-rule:evenodd"/>
</clipPath>
<clipPath id="u">
<path d="m313.42 754.49h88.08v8.21h-88.08z" style="clip-rule:evenodd"/>
</clipPath>
<clipPath id="v">
<path d="m313.42 754.49h88.08v8.21h-88.08z" style="clip-rule:evenodd"/>
</clipPath>
<clipPath id="w">
<path d="m313.42 746.35h103.78v8.21h-103.78z" style="clip-rule:evenodd"/>
</clipPath>
<clipPath id="x">
<path d="m313.42 746.35h103.78v8.21h-103.78z" style="clip-rule:evenodd"/>
</clipPath>
<clipPath id="y">
<path d="m313.42 738.22h104.06v8.21h-104.06z" style="clip-rule:evenodd"/>
</clipPath>
<clipPath id="z">
<path d="m313.42 738.22h104.06v8.21h-104.06z" style="clip-rule:evenodd"/>
</clipPath>
<clipPath id="A">
<path d="m313.42 730.08h97.82v8.21h-97.82z" style="clip-rule:evenodd"/>
</clipPath>
<clipPath id="B">
<path d="m313.42 730.08h97.82v8.21h-97.82z" style="clip-rule:evenodd"/>
</clipPath>
<clipPath id="C">
<path d="m180.79 619.7h85.54v8.21h-85.54z" style="clip-rule:evenodd"/>
</clipPath>
<clipPath id="D">
<path d="m180.79 619.7h85.54v8.21h-85.54z" style="clip-rule:evenodd"/>
</clipPath>
<clipPath id="E">
<path d="m180.79 611.57h72.53v8.21h-72.53z" style="clip-rule:evenodd"/>
</clipPath>
<clipPath id="F">
<path d="m180.79 611.57h72.53v8.21h-72.53z" style="clip-rule:evenodd"/>
</clipPath>
<clipPath id="G">
<path d="m180.79 611.57h72.53v8.21h-72.53z" style="clip-rule:evenodd"/>
</clipPath>
<clipPath id="H">
<path d="m180.79 603.43h77.04v8.21h-77.04z" style="clip-rule:evenodd"/>
</clipPath>
<clipPath id="I">
<path d="m180.79 603.43h77.04v8.21h-77.04z" style="clip-rule:evenodd"/>
</clipPath>
<clipPath id="J">
<path d="m180.79 603.43h77.04v8.21h-77.04z" style="clip-rule:evenodd"/>
</clipPath>
<clipPath id="K">
<path d="m281.81 626.59h52.46v8.21h-52.46z" style="clip-rule:evenodd"/>
</clipPath>
<clipPath id="L">
<path d="m281.81 626.59h52.46v8.21h-52.46z" style="clip-rule:evenodd"/>
</clipPath>
<clipPath id="M">
<path d="m281.81 618.46h103.63v8.21h-103.63z" style="clip-rule:evenodd"/>
</clipPath>
<clipPath id="N">
<path d="m281.81 618.46h103.63v8.21h-103.63z" style="clip-rule:evenodd"/>
</clipPath>
<clipPath id="O">
<path d="m281.81 610.34h97.66v8.21h-97.66z" style="clip-rule:evenodd"/>
</clipPath>
<clipPath id="P">
<path d="m281.81 610.34h97.66v8.21h-97.66z" style="clip-rule:evenodd"/>
</clipPath>
<clipPath id="Q">
<path d="m394.08 637.85h61.2v8.23h-61.2z" style="clip-rule:evenodd"/>
</clipPath>
<clipPath id="R">
<path d="m394.08 637.85h61.2v8.23h-61.2z" style="clip-rule:evenodd"/>
</clipPath>
<clipPath id="S">
<path d="m394.08 629.74h118.82v8.21h-118.82z" style="clip-rule:evenodd"/>
</clipPath>
<clipPath id="T">
<path d="m394.08 629.74h118.82v8.21h-118.82z" style="clip-rule:evenodd"/>
</clipPath>
<clipPath id="U">
<path d="m394.08 629.74h118.82v8.21h-118.82z" style="clip-rule:evenodd"/>
</clipPath>
<clipPath id="V">
<path d="m394.08 621.6h118.82v8.21h-118.82z" style="clip-rule:evenodd"/>
</clipPath>
<clipPath id="W">
<path d="m394.08 621.6h118.82v8.21h-118.82z" style="clip-rule:evenodd"/>
</clipPath>
<clipPath id="X">
<path d="m394.08 621.6h118.82v8.21h-118.82z" style="clip-rule:evenodd"/>
</clipPath>
<clipPath id="Y">
<path d="m394.08 613.46h118.37v8.21h-118.37z" style="clip-rule:evenodd"/>
</clipPath>
<clipPath id="Z">
<path d="m394.08 613.46h118.37v8.21h-118.37z" style="clip-rule:evenodd"/>
</clipPath>
<clipPath id="aa">
<path d="m394.08 613.46h118.37v8.21h-118.37z" style="clip-rule:evenodd"/>
</clipPath>
<clipPath id="ab">
<path d="m394.08 605.33h52.46v8.21h-52.46z" style="clip-rule:evenodd"/>
</clipPath>
<clipPath id="ac">
<path d="m394.08 605.33h52.46v8.21h-52.46z" style="clip-rule:evenodd"/>
</clipPath>
<clipPath id="ad">
<path d="m468.94 713.42h84.65v8.21h-84.65z" style="clip-rule:evenodd"/>
</clipPath>
<clipPath id="ae">
<path d="m468.94 713.42h84.65v8.21h-84.65z" style="clip-rule:evenodd"/>
</clipPath>
<clipPath id="af">
<path d="m468.94 705.29h126.65v8.21h-126.65z" style="clip-rule:evenodd"/>
</clipPath>
<clipPath id="ag">
<path d="m468.94 705.29h126.65v8.21h-126.65z" style="clip-rule:evenodd"/>
</clipPath>
<clipPath id="ah">
<path d="m468.94 697.15h126.65v8.23h-126.65z" style="clip-rule:evenodd"/>
</clipPath>
<clipPath id="ai">
<path d="m468.94 697.18h126.65v8.21h-126.65z" style="clip-rule:evenodd"/>
</clipPath>
<clipPath id="aj">
<path d="m53.26 751.2h42.38v8.21h-42.38z" style="clip-rule:evenodd"/>
</clipPath>
<clipPath id="ak">
<path d="m53.26 751.2h42.38v8.21h-42.38z" style="clip-rule:evenodd"/>
</clipPath>
<clipPath id="al">
<path d="m527.78 638.23h60.77v8.21h-60.77z" style="clip-rule:evenodd"/>
</clipPath>
<clipPath id="am">
<path d="m527.78 638.23h60.77v8.21h-60.77z" style="clip-rule:evenodd"/>
</clipPath>
<clipPath id="an">
<path d="m527.78 630.1h56.98v8.21h-56.98z" style="clip-rule:evenodd"/>
</clipPath>
<clipPath id="ao">
<path d="m527.78 630.1h56.98v8.21h-56.98z" style="clip-rule:evenodd"/>
</clipPath>
<clipPath id="ap">
<path d="m122.66 714.89h50.35v8.21h-50.35z" style="clip-rule:evenodd"/>
</clipPath>
<clipPath id="aq">
<path d="m122.66 714.89h50.35v8.21h-50.35z" style="clip-rule:evenodd"/>
</clipPath>
<clipPath id="ar">
<path d="m122.66 706.75h50.64v8.21h-50.64z" style="clip-rule:evenodd"/>
</clipPath>
<clipPath id="as">
<path d="m122.66 706.75h50.64v8.21h-50.64z" style="clip-rule:evenodd"/>
</clipPath>
<clipPath id="at">
<path d="m142.66 564.48h109.87v8.21h-109.87z" style="clip-rule:evenodd"/>
</clipPath>
<clipPath id="au">
<path d="m142.66 564.48h109.87v8.21h-109.87z" style="clip-rule:evenodd"/>
</clipPath>
<clipPath id="av">
<path d="m142.66 556.34h127.68v8.21h-127.68z" style="clip-rule:evenodd"/>
</clipPath>
<clipPath id="aw">
<path d="m142.66 556.34h127.68v8.21h-127.68z" style="clip-rule:evenodd"/>
</clipPath>
<clipPath id="ax">
<path d="m142.66 548.21h55.08v8.21h-55.08z" style="clip-rule:evenodd"/>
</clipPath>
<clipPath id="ay">
<path d="m142.66 548.21h55.08v8.21h-55.08z" style="clip-rule:evenodd"/>
</clipPath>
<clipPath id="az">
<path d="m295.61 698.88h119.04v8.23h-119.04z" style="clip-rule:evenodd"/>
</clipPath>
<clipPath id="aA">
<path d="m295.61 698.9h119.04v8.21h-119.04z" style="clip-rule:evenodd"/>
</clipPath>
<clipPath id="aB">
<path d="m295.61 690.77h104.81v8.21h-104.81z" style="clip-rule:evenodd"/>
</clipPath>
<clipPath id="aC">
<path d="m295.61 690.77h104.81v8.21h-104.81z" style="clip-rule:evenodd"/>
</clipPath>
<clipPath id="aD">
<path d="m437.33 586.27h158.26v8.21h-158.26z" style="clip-rule:evenodd"/>
</clipPath>
<clipPath id="aE">
<path d="m437.33 586.27h158.26v8.21h-158.26z" style="clip-rule:evenodd"/>
</clipPath>
<clipPath id="aF">
<path d="m437.33 578.14h157.9v8.21h-157.9z" style="clip-rule:evenodd"/>
</clipPath>
<clipPath id="aG">
<path d="m437.33 578.14h157.9v8.21h-157.9z" style="clip-rule:evenodd"/>
</clipPath>
<clipPath id="aH">
<path d="m491.09 761.38h83.06v8.21h-83.06z" style="clip-rule:evenodd"/>
</clipPath>
<clipPath id="aI">
<path d="m491.09 761.38h83.06v8.21h-83.06z" style="clip-rule:evenodd"/>
</clipPath>
<clipPath id="aJ">
<path d="m491.09 753.24h97.01v8.21h-97.01z" style="clip-rule:evenodd"/>
</clipPath>
<clipPath id="aK">
<path d="m491.09 753.24h97.01v8.21h-97.01z" style="clip-rule:evenodd"/>
</clipPath>
<clipPath id="aL">
<path d="m491.09 745.13h70.92v8.21h-70.92z" style="clip-rule:evenodd"/>
</clipPath>
<clipPath id="aM">
<path d="m491.09 745.13h70.92v8.21h-70.92z" style="clip-rule:evenodd"/>
</clipPath>
<clipPath id="aN">
<path d="m71.81 513.98h105.14v8.21h-105.14z" style="clip-rule:evenodd"/>
</clipPath>
<clipPath id="aO">
<path d="m71.81 513.98h105.14v8.21h-105.14z" style="clip-rule:evenodd"/>
</clipPath>
<clipPath id="aP">
<path d="m109.58 493.27h48.02v8.21h-48.02z" style="clip-rule:evenodd"/>
</clipPath>
<clipPath id="aQ">
<path d="m109.58 493.27h48.02v8.21h-48.02z" style="clip-rule:evenodd"/>
</clipPath>
<clipPath id="aR">
<path d="m109.58 485.14h74.93v8.21h-74.93z" style="clip-rule:evenodd"/>
</clipPath>
<clipPath id="aS">
<path d="m109.58 485.14h74.93v8.21h-74.93z" style="clip-rule:evenodd"/>
</clipPath>
<clipPath id="aT">
<path d="m65.98 493.63h58.51v8.21h-58.51z" style="clip-rule:evenodd"/>
</clipPath>
<clipPath id="aU">
<path d="m65.98 493.63h58.51v8.21h-58.51z" style="clip-rule:evenodd"/>
</clipPath>
<clipPath id="aV">
<path d="m202.97 492.53h95.62v8.23h-95.62z" style="clip-rule:evenodd"/>
</clipPath>
<clipPath id="aW">
<path d="m202.97 492.53h95.62v8.23h-95.62z" style="clip-rule:evenodd"/>
</clipPath>
<clipPath id="aX">
<path d="m202.97 484.42h82.46v8.21h-82.46z" style="clip-rule:evenodd"/>
</clipPath>
<clipPath id="aY">
<path d="m202.97 484.42h82.46v8.21h-82.46z" style="clip-rule:evenodd"/>
</clipPath>
<clipPath id="aZ">
<path d="m311.23 493.27h75.72v8.21h-75.72z" style="clip-rule:evenodd"/>
</clipPath>
<clipPath id="a0">
<path d="m311.23 493.27h75.72v8.21h-75.72z" style="clip-rule:evenodd"/>
</clipPath>
<clipPath id="a1">
<path d="m311.23 485.14h61.85v8.21h-61.85z" style="clip-rule:evenodd"/>
</clipPath>
<clipPath id="a2">
<path d="m311.23 485.14h61.85v8.21h-61.85z" style="clip-rule:evenodd"/>
</clipPath>
<clipPath id="a3">
<path d="m371.93 495.82h114.74v8.21h-114.74z" style="clip-rule:evenodd"/>
</clipPath>
<clipPath id="a4">
<path d="m371.93 495.82h114.74v8.21h-114.74z" style="clip-rule:evenodd"/>
</clipPath>
<g transform="matrix(1.25 0 0 -1.25 -67.58 966.16)">
<g style="clip-path:url(#a)">
<g style="clip-path:url(#b)">
<text style="font-size:6.7;font-family:Droid Sans" transform="matrix(1 0 0 -1 115.9 750.91)">
<tspan x="0 3.88 7.37 10.37 13.72 16.11 18.35 19.89 22.51 25.87 28.26 29.58" y="0">Advertiser e</tspan>
</text>
</g>
<g style="clip-path:url(#c)">
<text style="font-size:6.7;font-family:Droid Sans" transform="matrix(1 0 0 -1 148.75 750.91)">
<tspan x="0" y="0">-</tspan>
</text>
</g>
<g style="clip-path:url(#d)">
<text style="font-size:6.7;font-family:Droid Sans" transform="matrix(1 0 0 -1 150.79 750.91)">
<tspan x="0 2.39 5.75 7.99 11.28 12.82" y="0">retail</tspan>
</text>
</g>
<path d="m115.9 749.76h49.2v.43h-49.2z" style="fill-rule:evenodd"/>
</g>
<g style="clip-path:url(#e)">
<g style="clip-path:url(#f)">
<text style="font-size:6.7;font-family:Droid Sans" transform="matrix(1 0 0 -1 113.74 646.3)">
<tspan x="0 3.46 6.98 10.44 11.95 13.47 16.08 19.56 22.89 25.29 26.66 29.77 31.28 33.53" y="0">Publisher Site</tspan>
</text>
</g>
<path d="m113.74 645.12h36.98v.43h-36.98z" style="fill-rule:evenodd"/>
</g>
<g style="clip-path:url(#g)">
<g style="clip-path:url(#h)">
<text style="font-size:6.67;font-family:Droid Sans" transform="matrix(1 0 0 -1 188.93 689.88)">
<tspan x="0 3.64 6.04 7.57 9.82 13.18 16.75 17.99 20.92 24.56 28.13 31.13 32.67 36.02" y="0">Criteo cookies</tspan>
</text>
</g>
</g>
<g style="clip-path:url(#i)">
<g style="clip-path:url(#j)">
<text style="font-size:6.7;font-family:Droid Sans" transform="matrix(1 0 0 -1 188.93 681.74)">
<tspan x="0 1.69 5.2 8.54 12.05 14.3 15.84 17.88 20.88 22.4 25.92 28.54 31.87" y="0">Identify user</tspan>
</text>
</g>
</g>
<g style="clip-path:url(#k)">
<g style="clip-path:url(#l)">
<text style="font-size:6.67;font-family:Droid Sans" transform="matrix(1 0 0 -1 182.76 730.94)">
<tspan x="0 3.62 6.01 7.55 9.79 13.12 16.67 17.92 21.4 22.94 25.83 29.17 30.7 32.17 34.42 37.68 40.8" y="0">Criteo pixel tags</tspan>
</text>
</g>
</g>
<g style="clip-path:url(#m)">
<g style="clip-path:url(#n)">
<text style="font-size:6.67;font-family:Droid Sans" transform="matrix(1 0 0 -1 182.76 722.81)">
<tspan x="0 2.02 3.56 6.18 7.65 9.89 13.38 14.91 17.52 19.06 22.54 26.16 30.95 32.35 35.24 38.78 42.33 45.3 46.84 50.16" y="0">(is this how cookies</tspan>
</text>
</g>
</g>
<g style="clip-path:url(#o)">
<g style="clip-path:url(#p)">
<text style="font-size:6.67;font-family:Droid Sans" transform="matrix(1 0 0 -1 184.3 714.67)">
<tspan x="0 3.26 5.65 8.97 10.31 12.92 16.25 18.5 19.96 23.08" y="0">are set ?)</tspan>
</text>
</g>
</g>
<g style="clip-path:url(#q)">
<g style="clip-path:url(#r)">
<text style="font-size:6.67;font-family:Droid Sans" transform="matrix(1 0 0 -1 125.26 615.22)">
<tspan x="0 3.64 6.04 7.57 9.82 13.14 16.73 17.97 20.87 24.51 28.08 31.06 32.59 35.92" y="0">Criteo cookies</tspan>
</text>
</g>
</g>
<g style="clip-path:url(#s)">
<g style="clip-path:url(#t)">
<text style="font-size:6.7;font-family:Droid Sans" transform="matrix(1 0 0 -1 125.26 607.08)">
<tspan x="0 1.69 5.2 8.54 12.03 14.27 15.81 17.85 20.83 22.36 25.87 28.49 31.83" y="0">Identify user</tspan>
</text>
</g>
</g>
<g style="clip-path:url(#u)">
<g style="clip-path:url(#v)">
<text style="font-size:6.7;font-family:Droid Sans" transform="matrix(1 0 0 -1 317.93 756.36)">
<tspan x="0 3.62 6.01 7.52 9.76 13.1 16.66 17.89 21.14 24.62 27.88 29.39 32.36 34.6 36.15 39.02 41.64 42.93 46.27 49.75 52.87 54.38 57.87" y="0">Criteo analytics engine</tspan>
</text>
</g>
<path d="m317.93 755.21h61.39v.43h-61.39z" style="fill-rule:evenodd"/>
</g>
<g style="clip-path:url(#w)">
<g style="clip-path:url(#x)">
<text style="font-size:6.7;font-family:Droid Sans" transform="matrix(1 0 0 -1 317.93 748.22)">
<tspan x="0 3.26 5.66 8.91 11.74 14.72 17.34 18.7 22.18 24.8 28.14 30.53 31.89 35.37 37.77 41.38 46.17 48.79 50.33 53.79 56.91 58.21 61.69 63.2 65.82 68.06 71.69 74.08" y="0">Tracks user browsing history</tspan>
</text>
</g>
</g>
<g style="clip-path:url(#y)">
<g style="clip-path:url(#z)">
<text style="font-size:6.67;font-family:Droid Sans" transform="matrix(1 0 0 -1 317.93 740.11)">
<tspan x="0 3.48 5.87 9.19 12.7 14.2 17.09 19.34 21.88 23.18 26.66 29.27 32.61 35 36.37 39.85 43.33 46.31 47.88 51.37 53.76 57.38 60.86 64.06 67.53 69.05 70.56 72.08 74.33" y="0">Predicts user buy probability</tspan>
</text>
</g>
</g>
<g style="clip-path:url(#A)">
<g style="clip-path:url(#B)">
<text style="font-size:6.67;font-family:Droid Sans" transform="matrix(1 0 0 -1 317.93 731.98)">
<tspan x="0 3.62 6.95 9.85 13.4 18.77 24.07 27.4 30.9 34.37 35.66 39.14 40.66 43.27 46.77 48.27 51.52 54.5 55.94 57.45 59.7 63.02 68.41" y="0">Recommend display items</tspan>
</text>
</g>
</g>
<g style="clip-path:url(#C)">
<g style="clip-path:url(#D)">
<text style="font-size:6.7;font-family:Droid Sans" transform="matrix(1 0 0 -1 185.3 621.58)">
<tspan x="0 3.88 7.35 8.87 11.49 14.82 17.22 20.19 21.73 24.62 27.96 29.27 32.17 33.71 35.25 38.59 42.06 44.31 45.71 48.61 52.23 55.71" y="0">Ad service client code</tspan>
</text>
</g>
</g>
<g style="clip-path:url(#E)">
<g style="clip-path:url(#F)">
<text style="font-size:6.7;font-family:Droid Sans" transform="matrix(1 0 0 -1 186.84 613.46)">
<tspan x="0" y="0">-</tspan>
</text>
</g>
<g style="clip-path:url(#G)">
<text style="font-size:6.7;font-family:Droid Sans" transform="matrix(1 0 0 -1 190.39 613.46)">
<tspan x="0 3.11 6.45 9.93 13.41 16.03 17.42 20.4 21.94 24.55 26.09 28.34 31.96 34.35 35.67 37.21" y="0">Sends visitor id</tspan>
</text>
</g>
</g>
<g style="clip-path:url(#H)">
<g style="clip-path:url(#I)">
<text style="font-size:6.67;font-family:Droid Sans" transform="matrix(1 0 0 -1 186.84 605.33)">
<tspan x="0" y="0">-</tspan>
</text>
</g>
<g style="clip-path:url(#J)">
<text style="font-size:6.67;font-family:Droid Sans" transform="matrix(1 0 0 -1 190.39 605.33)">
<tspan x="0 4.08 5.62 8.23 11.73 13.26 16.51 19.48 20.94 23.84 26.23 29.56 32.75 35.01 36.55 39.52 42.85" y="0">Display creatives</tspan>
</text>
</g>
</g>
<g style="clip-path:url(#K)">
<g style="clip-path:url(#L)">
<text style="font-size:6.67;font-family:Droid Sans" transform="matrix(1 0 0 -1 286.32 628.49)">
<tspan x="0 3.84 7.33 8.83 11.44 14.79 17.18 20.16 23.48" y="0">Ad server</tspan>
</text>
</g>
<path d="m286.32 627.31h25.94v.46h-25.94z" style="fill-rule:evenodd"/>
</g>
<g style="clip-path:url(#M)">
<g style="clip-path:url(#N)">
<text style="font-size:6.67;font-family:Droid Sans" transform="matrix(1 0 0 -1 286.32 620.35)">
<tspan x="0 4.06 5.57 8.18 10.44 12.83 14.34 17.83 21.31 23.56 26.88 29.5 30.87 34.13 37.61 40.22 41.67 43.92 47.53 48.9 52.38 55.86 59.35 60.86 62.38 64.99 68.49 71.81 74.2" y="0">Distributes ads to publishers</tspan>
</text>
</g>
</g>
<g style="clip-path:url(#O)">
<g style="clip-path:url(#P)">
<text style="font-size:6.7;font-family:Droid Sans" transform="matrix(1 0 0 -1 286.32 612.22)">
<tspan x="0 3.11 5.5 9.05 14.42 15.64 19.12 20.64 22.68 24.72 28.06 30.45 33.78 37.26 39.51 40.89 44.14 47.62 50.59 53.93 56.33 58.57 60.11 62.73 66.06 68.37" y="0">From different advertisers</tspan>
</text>
</g>
</g>
<g style="clip-path:url(#Q)">
<g style="clip-path:url(#R)">
<text style="font-size:6.7;font-family:Droid Sans" transform="matrix(1 0 0 -1 398.59 639.74)">
<tspan x="0 3.84 7.32 8.83 12.17 15.07 17.97 21.45 24.7 28.18 31.3" y="0">Ad exchange</tspan>
</text>
</g>
<path d="m398.59 638.59h34.73v.43h-34.73z" style="fill-rule:evenodd"/>
</g>
<g style="clip-path:url(#S)">
<g style="clip-path:url(#T)">
<text style="font-size:6.7;font-family:Droid Sans" transform="matrix(1 0 0 -1 400.1 631.61)">
<tspan x="0" y="0">-</tspan>
</text>
</g>
<g style="clip-path:url(#U)">
<text style="font-size:6.7;font-family:Droid Sans" transform="matrix(1 0 0 -1 403.68 631.61)">
<tspan x="0 3.84 7.32 10.22 12.46 14 17.6 21.09 23.7 24.92 28.18 31.66 33.1 35.72 39.19 42.45 45.35 48.68 49.98 52.22 55.85 57.22 60.7 62.21 65.33 68.81 72.15 74.77 77.01 78.46 81.95 83.46 86.94 90.42 93.76" y="0">Auctions ad space to highest bidder</tspan>
</text>
</g>
</g>
<g style="clip-path:url(#V)">
<g style="clip-path:url(#W)">
<text style="font-size:6.7;font-family:Droid Sans" transform="matrix(1 0 0 -1 400.1 623.5)">
<tspan x="0" y="0">-</tspan>
</text>
</g>
<g style="clip-path:url(#X)">
<text style="font-size:6.7;font-family:Droid Sans" transform="matrix(1 0 0 -1 403.68 623.5)">
<tspan x="0 4.43 7.92 10.16 11.7 17.05 18.59 21.19 24.53 27.15 28.51 30.9 34.24 37.22 40.55 44.03 47.51 50.85 52.22 54.26 57.88 60.27 61.57 65.05 68.53 72.02 73.53 75.04 77.66 81.14 84.47" y="0">Optimizes revenue for publisher</tspan>
</text>
</g>
</g>
<g style="clip-path:url(#Y)">
<g style="clip-path:url(#Z)">
<text style="font-size:6.67;font-family:Droid Sans" transform="matrix(1 0 0 -1 400.1 615.36)">
<tspan x="0" y="0">-</tspan>
</text>
</g>
<g style="clip-path:url(#aa)">
<text style="font-size:6.67;font-family:Droid Sans" transform="matrix(1 0 0 -1 403.68 615.36)">
<tspan x="0 3.84 7.33 10.3 13.62 16.03 18.28 19.8 22.4 25.74 28.14 29.43 34.8 38.28 40.89 43.15 44.52 47.12 50.63 53.95 57.43 60.91 62.42 67.21 68.73 71.34 74.67 76.19 79.16 80.6 82.85" y="0">Advertiser must spend wisely to</tspan>
</text>
</g>
</g>
<g style="clip-path:url(#ab)">
<g style="clip-path:url(#ac)">
<text style="font-size:6.67;font-family:Droid Sans" transform="matrix(1 0 0 -1 398.59 607.22)">
<tspan x="0 5.73 9.05 12.4 14.65 16.01 19.64 24.07" y="0">Meet ROI</tspan>
</text>
</g>
</g>
<g style="clip-path:url(#ad)">
<g style="clip-path:url(#ae)">
<text style="font-size:6.67;font-family:Droid Sans" transform="matrix(1 0 0 -1 473.45 715.32)">
<tspan x="0 3.62 5.98 7.5 9.73 13.06 16.61 17.83 21.32 22.83 26.31 29.8 31.31 34.79 37.92 39.49 42.81 46.32 49.43 50.94 54.42" y="0">Criteo bidding engine</tspan>
</text>
</g>
<path d="m473.45 714.14h57.98v.43h-57.98z" style="fill-rule:evenodd"/>
</g>
<g style="clip-path:url(#af)">
<g style="clip-path:url(#ag)">
<text style="font-size:6.67;font-family:Droid Sans" transform="matrix(1 0 0 -1 473.45 707.18)">
<tspan x="0 4.06 7.38 10.29 11.8 15.29 18.61 21.23 22.6 27.37 30.87 34.19 37.67 39.11 41.35 44.96 46.33 49.81 53.3 56.27 57.85 61.1 64.58 65.95 68.56 72.06 75.31 78.2 81.53 82.83 85.07 88.68 90.05 95.42 98.68 101.57 102.95 106.57 110.99" y="0">Decides when to buy ad space to max ROI</tspan>
</text>
</g>
</g>
<g style="clip-path:url(#ah)">
<g style="clip-path:url(#ai)">
<text style="font-size:6.7;font-family:Droid Sans" transform="matrix(1 0 0 -1 473.45 699.05)">
<tspan x="0 3.62 7.1 9.72 11.96 15.56 20.86 22.38 25 28.33 30.95 32.24 35.14 37.51 40.85 44.05 46.2 47.71 50.68 54.02 56.63 57.93 62.71 64.21 66.46 69.93 71.37 73.98 77.46 80.79 83.69 85.21 87.22 88.74 91.63 92.93 94.45 96.69 100.02 105.37" y="0">Customizes creatives with specific items</tspan>
</text>
</g>
</g>
<g style="clip-path:url(#aj)">
<g style="clip-path:url(#ak)">
<text style="font-size:6.67;font-family:Droid Sans" transform="matrix(1 0 0 -1 57.77 753.1)">
<tspan x="0 3.64 5.18 6.71 10.03 13.54" y="0">Client</tspan>
</text>
</g>
<path d="m57.77 751.94h15.77v.43h-15.77z" style="fill-rule:evenodd"/>
</g>
<g style="clip-path:url(#al)">
<g style="clip-path:url(#am)">
<text style="font-size:6.7;font-family:Droid Sans" transform="matrix(1 0 0 -1 532.3 640.1)">
<tspan x="0 4.43 6.69 10.17 13.51 15.9 17.3 20.78 22.32 25.79 29.13 31.52" y="0">Other biders</tspan>
</text>
</g>
</g>
<g style="clip-path:url(#an)">
<g style="clip-path:url(#ao)">
<text style="font-size:6.7;font-family:Droid Sans" transform="matrix(1 0 0 -1 532.3 631.99)">
<tspan x="0 3.27 6.17 7.99 9.45 13.33 16.8 19.19 22.81 24.35 25.89 27.2" y="0">Ex: Adroll ?</tspan>
</text>
</g>
</g>
<g style="clip-path:url(#ap)">
<g style="clip-path:url(#aq)">
<text style="font-size:6.7;font-family:Droid Sans" transform="matrix(1 0 0 -1 127.18 716.76)">
<tspan x="0 3.64 6.02 9.64 14.42 17.04 20.32" y="0">Browsed</tspan>
</text>
</g>
</g>
<g style="clip-path:url(#ar)">
<g style="clip-path:url(#as)">
<text style="font-size:6.7;font-family:Droid Sans" transform="matrix(1 0 0 -1 127.18 708.65)">
<tspan x="0 3.46 5.87 9.49 12.97 16.45 19.28 21.47" y="0">Products</tspan>
</text>
</g>
</g>
<g style="clip-path:url(#at)">
<g style="clip-path:url(#au)">
<text style="font-size:6.7;font-family:Droid Sans" transform="matrix(1 0 0 -1 147.14 566.35)">
<tspan x="0 4.22 7.86 12.65 13.98 17.5 21.13 24.48 27.1 28.42 31.7 35.21 36.67 39.59 41.13 42.67 46 49.52 51.76 53.17 56.09 59.74 63.25 66.59 67.92 70.54 73.88 77.4 80.89" y="0">How does ad client code sends</tspan>
</text>
</g>
</g>
<g style="clip-path:url(#av)">
<g style="clip-path:url(#aw)">
<text style="font-size:6.7;font-family:Droid Sans" transform="matrix(1 0 0 -1 147.14 558.24)">
<tspan x="0 3.64 6.03 7.57 9.82 13.18 16.75 17.99 21.51 24.13 27.46 29.86 31.33 32.87 36.39 39.51 40.97 44.62 47.9 51.41 54.91 58.48 60.72 62.05 65.33 68.25 71.1 74.46 77.08 79.7 80.94 83.86 87.5 91.07 94.07 95.61 98.96" y="0">Criteo user id? Cannot access cookies</tspan>
</text>
</g>
</g>
<g style="clip-path:url(#ax)">
<g style="clip-path:url(#ay)">
<text style="font-size:6.67;font-family:Droid Sans" transform="matrix(1 0 0 -1 147.14 550.1)">
<tspan x="0 3.64 6.04 9.61 12.22 14.83 16.16 18.77 20.3 22.56 25.91" y="0">Cross sites</tspan>
</text>
</g>
</g>
<g style="clip-path:url(#az)">
<g style="clip-path:url(#aA)">
<text style="font-size:6.7;font-family:Droid Sans" transform="matrix(1 0 0 -1 300.12 700.78)">
<tspan x="0 4.22 7.83 12.62 13.95 17.44 21.05 24.39 27 28.32 31.22 33.61 35.15 37.4 40.73 44.29 45.53 47.07 50.55 53.17 54.69 58.17 60.79 64.13 66.52 69.14 70.53 72.77 76.27 78.66 82.27 85.76 88.88" y="0">How does criteo ids users through</tspan>
</text>
</g>
</g>
<g style="clip-path:url(#aB)">
<g style="clip-path:url(#aC)">
<text style="font-size:6.7;font-family:Droid Sans" transform="matrix(1 0 0 -1 300.12 692.64)">
<tspan x="0 4.08 5.62 7.66 9.7 13.04 15.42 18.76 22.24 24.48 25.89 29.37 31.76 35.37 40.16 42.78 46.12 48.45 51 53.61 57.09 60.42 63.4 64.94 67.78 71.04 73.66 74.98" y="0">Different browsers/devices ?</tspan>
</text>
</g>
</g>
<g style="clip-path:url(#aD)">
<g style="clip-path:url(#aE)">
<text style="font-size:6.67;font-family:Droid Sans" transform="matrix(1 0 0 -1 441.82 588.17)">
<tspan x="0 3.28 6.79 10.14 12.54 15.89 17.29 20.57 22.97 26.32 27.64 33.01 36.3 39.8 42.8 44.2 47.48 50.37 52.62 56.19 58.52 61.13 62.46 64.49 68.14 70.54 71.86 75.14 78.64 80.04 83.39 86.28 89.2 92.7 95.98 99.49 102.63 105.98 107.31 110.59 114.09 117.59 119.06 122.56 124.1 127.6 129.14 132.64" y="0">There are many actors for ad exchange and biding</tspan>
</text>
</g>
</g>
<g style="clip-path:url(#aF)">
<g style="clip-path:url(#aG)">
<text style="font-size:6.67;font-family:Droid Sans" transform="matrix(1 0 0 -1 441.82 580.03)">
<tspan x="0 1.68 4.29 5.82 8.07 11.58 14.93 17.33 20.68 22 25.29 28.79 31.79 33.32 35.93 38.18 41.47 44.97 48.47 51.75 54.08 57.59 59.12 61.73 64.95 67.19 68.65 72.22 75.73 77.05 78.58 82.09 83.62 87.12 88.66 91.94 94.84 98.19 99.51 102.12 103.65 107.29 110.8 112.19 115.33 118.98 120.51 124.01 127.15 128.55" y="0">Is there any standardisation in place / on going ?</tspan>
</text>
</g>
</g>
<g style="clip-path:url(#aH)">
<g style="clip-path:url(#aI)">
<text style="font-size:6.67;font-family:Droid Sans" transform="matrix(1 0 0 -1 495.6 763.27)">
<tspan x="0 3.62 6.01 7.55 9.79 13.12 16.67 17.89 20.79 24.05 29.42 32.9 36.1 37.63 40.75 44.23 45.55 50.92 54.04" y="0">Criteo campaign mgt</tspan>
</text>
</g>
<path d="m495.6 762.1h56.4v.46h-56.4z" style="fill-rule:evenodd"/>
</g>
<g style="clip-path:url(#aJ)">
<g style="clip-path:url(#aK)">
<text style="font-size:6.67;font-family:Droid Sans" transform="matrix(1 0 0 -1 495.6 755.14)">
<tspan x="0 3.84 7.33 10.3 13.62 16.03 18.28 19.82 22.42 25.76 28.16 30.76 32.09 34.99 38.6 42.09 44.34 46.66 50.15 51.68 53 56.26 59.74 63.22 64.69 70.06 73.67 77.16 78.69 80.94 84.48" y="0">Advertisers control and monitor</tspan>
</text>
</g>
</g>
<g style="clip-path:url(#aL)">
<g style="clip-path:url(#aM)">
<text style="font-size:6.7;font-family:Droid Sans" transform="matrix(1 0 0 -1 495.6 747)">
<tspan x="0 3.26 6.74 10.08 11.62 14.01 15.4 18.3 21.55 26.92 30.41 33.61 35.15 38.25 41.74" y="0">Their campaigns</tspan>
</text>
</g>
</g>
<g style="fill:none;stroke-width:.86;stroke-linecap:round;stroke-linejoin:round;stroke-miterlimit:10">
<path d="m54.5 761.95h23.98v-130.77h-23.98z" style="stroke:#7f7f7f"/>
<path d="m111.91 760.13h139.71v-93.1h-139.71z" style="stroke:#3165bb"/>
<path d="m110.54 656.9h142.42v-73.39h-142.42z" style="stroke:#3165bb"/>
<g style="stroke:#398e00">
<path d="m281.62 641.35h86.08v-41.06h-86.08z"/>
<path d="m393.58 650.35h110.83v-51.77h-110.83z"/>
<path d="m182.04 630.43h65.02v-31.34h-65.02z"/>
</g>
<g style="stroke:#ed1c24">
<path d="m313.94 766.32h89.36v-39.24h-89.36z"/>
<path d="m179.18 741.19h61.06v-33.07h-61.06z"/>
<path d="m183.55 701.95h50.88v-26.16h-50.88z"/>
<path d="m119.88 627.29h50.86v-26.19h-50.86z"/>
<path d="m470.04 726.79h122.06v-36.31h-122.06z"/>
</g>
<g style="stroke:#a3a3a3">
<path d="m78.48 741.98 33.43-19.27"/>
<path d="m108.31 728.18 3.6-5.47-6.55.39"/>
<path d="m76.3 729.26 35.61-19.99"/>
<path d="m108.24 714.7 3.67-5.43-6.55.31"/>
<path d="m76.3 652.97 33.81-27.99"/>
<path d="m107.45 630.98 2.66-6-6.38 1.49"/>
</g>
<g style="stroke:#398e00">
<path d="m246.7 613.37 34.53 10.53"/>
<path d="m274.78 624.98 6.45-1.08-4.75-4.51"/>
<path d="m253.18 612.26-6.48 1.11 4.77 4.51"/>
<path d="m367.37 623.9 26.13.72"/>
<path d="m387.58 627.41 5.92-2.79-5.78-3.07"/>
<path d="m470.9 650.42 31.64 40.32"/>
<path d="m496.58 687.96 5.96 2.78-1.32-6.43"/>
</g>
<g style="stroke:#ff8000">
<path d="m523.25 652.97h54.48v-32.71h-54.48z"/>
<path d="m579.53 649.99h1.53v-32.69h-54.5v1.52"/>
<path d="m582.19 647.09h1.54v-32.71h-54.48v1.53"/>
</g>
<path d="m503.98 624.62 19.27 17.43" style="stroke:#398e00"/>
<path d="m516.94 640.3 6.31 1.75-2.38-6.1" style="stroke:#398e00"/>
<g style="stroke:#ed1c24">
<path d="m403.32 751.06 66.86-33.41"/>
<path d="m466.25 722.88 3.93-5.23h-6.57"/>
<path d="m407.26 745.82-3.94 5.24h6.55"/>
<path d="m239.81 729.26 73.77 26.86"/>
<path d="m307.06 756.89 6.52-.77-4.51-4.73"/>
<path d="m234 688.2 79.94 56.69"/>
<path d="m307.46 743.88 6.48 1.01-3.09-5.81"/>
</g>
<g style="stroke:#68349c">
<path d="m527.23 595.18-14.9 35.97"/>
<path d="m511.87 624.62.46 6.53 4.94-4.29"/>
<path d="m321.94 707.09 6.16 19.63"/>
<path d="m323.54 722.02 4.56 4.7 1.04-6.48"/>
</g>
<path d="m170.76 613.73 11.28 1.08" style="stroke:#ed1c24"/>
<path d="m184.58 571.94-7.63 43.25" style="stroke:#68349c"/>
<path d="m175.06 608.9 1.89 6.29 3.89-5.28" style="stroke:#68349c"/>
<g style="stroke:#3165bb">
<path d="m121.54 729.19h45.24v-29.66h-45.24z"/>
<path d="m170.4 723.89h1.22v-29.69h-45.24v2.02"/>
<path d="m168.12 726.43h1.22v-29.69h-45.24v2.02"/>
<path d="m166.42 714.36 12.72 11.26"/>
</g>
<g style="stroke:#ed1c24">
<path d="m491.3 772.49h97.01v-30.53h-97.01z"/>
<path d="m525.41 742.34-9.79-16.39"/>
<path d="m521.11 729.5-5.49-3.55.48 6.55"/>
</g>
</g>
<g style="clip-path:url(#aN)">
<g style="clip-path:url(#aO)">
<text style="font-weight:bold;font-size:6.7;font-family:Droid Sans" transform="matrix(1 0 0 -1 76.3 515.86)">
<tspan x="0 3.64 7 8.67 11.43 15.07 16.68 20.03 22.29 23.96 27.56 30.73 31.98 35.62 38.98 42.62 46.26 49.63 52.01 53.27 56.63 60.27 63.91 65.31 68.59 70.26 73.63 75.3" y="0">Calculating banner and yield</tspan>
</text>
</g>
</g>
<path d="m108.86 505.85h60.56v-26.19h-60.56z" style="fill:none;stroke:#3165bb;stroke-width:.86;stroke-linecap:round;stroke-linejoin:round;stroke-miterlimit:10"/>
<g style="clip-path:url(#aP)">
<g style="clip-path:url(#aQ)">
<text style="font-size:6.7;font-family:Droid Sans" transform="matrix(1 0 0 -1 114.1 495.14)">
<tspan x="0 3.46 5.87 9.49 12.97 16.45 19.28" y="0">Product</tspan>
</text>
</g>
</g>
<g style="clip-path:url(#aR)">
<g style="clip-path:url(#aS)">
<text style="font-size:6.67;font-family:Droid Sans" transform="matrix(1 0 0 -1 114.1 487.03)">
<tspan x="0 3.62 6.95 9.85 13.4 18.77 24.07 27.4 30.9 34.37 37.56 39.75 41.26 44.8" y="0">Recommendation</tspan>
</text>
</g>
</g>
<g style="clip-path:url(#aT)">
<g style="clip-path:url(#aU)">
<text style="font-size:6.7;font-family:Droid Sans" transform="matrix(1 0 0 -1 70.49 495.53)">
<tspan x="0 4.3 6.92 10.25 12.64 14.03 17.52 19.91 23.52 25.57 27.11 28.65" y="0">User profile</tspan>
</text>
</g>
</g>
<path d="m203.88 506.3h76.54v-26.16h-76.54z" style="fill:none;stroke:#3165bb;stroke-width:.86;stroke-linecap:round;stroke-linejoin:round;stroke-miterlimit:10"/>
<g style="clip-path:url(#aV)">
<g style="clip-path:url(#aW)">
<text style="font-size:6.7;font-family:Droid Sans" transform="matrix(1 0 0 -1 207.48 494.42)">
<tspan x="0 3.62 6.87 8.38 11.28 14.76 16.28 19.49 21.63 24.96 26.26 29.16 30.67 32.19 35.09 38.06 39.43 42.91 45.28 48.89 52.38 55.58 59.05 60.56 62.07 63.59 65.83" y="0">Calculate click probability</tspan>
</text>
</g>
</g>
<g style="clip-path:url(#aX)">
<g style="clip-path:url(#aY)">
<text style="font-size:6.7;font-family:Droid Sans" transform="matrix(1 0 0 -1 207.48 486.29)">
<tspan x="0 4.06 7.39 10.87 14.36 17.26 20.59 21.96 25.44 28.7 32.18 35.66 39 41.37 42.73 45.71 47.22 50.55 52.07" y="0">Deduce banner yield</tspan>
</text>
</g>
</g>
<path d="m309.62 506.66h60.56v-26.16h-60.56z" style="fill:none;stroke:#3165bb;stroke-width:.86;stroke-linecap:round;stroke-linejoin:round;stroke-miterlimit:10"/>
<g style="clip-path:url(#aZ)">
<g style="clip-path:url(#a0)">
<text style="font-size:6.7;font-family:Droid Sans" transform="matrix(1 0 0 -1 315.74 495.14)">
<tspan x="0 3.62 7.1 9.72 11.96 15.59 20.89 22.43 25.04 28.38 29.7 33.18 36.43 39.91 43.4 46.73" y="0">Customize banner</tspan>
</text>
</g>
</g>
<g style="clip-path:url(#a1)">
<g style="clip-path:url(#a2)">
<text style="font-size:6.67;font-family:Droid Sans" transform="matrix(1 0 0 -1 315.74 487.03)">
<tspan x="0 3.86 7.35 10.83 14.15 17.42 19.82 23.07 26.55 29.38 32.65" y="0">Appearance </tspan>
</text>
</g>
</g>
<g style="clip-path:url(#a3)">
<g style="clip-path:url(#a4)">
<text style="font-size:6.7;font-family:Droid Sans" transform="matrix(1 0 0 -1 376.42 497.69)">
<tspan x="0 3.14 6.5 10.01 13.51 14.97 17.22 20.87 22.26 25.78 29.27 32.79 34.33 35.87 38.47 41.98 45.32 47.73 49.12 51.16 54.8 57.19 58.51 60.05 65.41 68.93 71.31 74.67 77.29 79.9 81.44 85.01" y="0">Send to publisher for impression</tspan>
</text>
</g>
</g>
<g style="fill:none;stroke-width:.86;stroke-linecap:round;stroke-linejoin:round;stroke-miterlimit:10;stroke:#3165bb">
<path d="m65.42 489.48h43.59"/>
<path d="m103.15 492.38 5.86-2.9-5.86-2.93"/>
<path d="m169.75 490.13 34.47-.29"/>
<path d="m198.36 492.79 5.86-2.95-5.91-2.88"/>
<path d="m280.2 494.11 29.74.07"/>
<path d="m304.06 497.11 5.88-2.9-5.84-2.95"/>
<path d="m370.97 493.82h43.61"/>
<path d="m408.72 496.75 5.86-2.93-5.86-2.92"/>
</g>
</g>
</svg>