<svg height="512.06" viewBox="0 0 1285 512.06" width="1285" xml:space="preserve" xmlns="http://www.w3.org/2000/svg" xmlns:xlink="http://www.w3.org/1999/xlink"><clipPath id="a"><path d="m39.74 757.1h53.83v7.78h-53.83z" style="clip-rule:evenodd"/></clipPath><clipPath id="b"><path d="m39.74 757.18h53.83v7.7h-53.83z" style="clip-rule:evenodd"/></clipPath><clipPath id="c"><path d="m232.97 787.46h78.72v7.78h-78.72z" style="clip-rule:evenodd"/></clipPath><clipPath id="d"><path d="m232.97 787.54h78.72v7.7h-78.72z" style="clip-rule:evenodd"/></clipPath><clipPath id="e"><path d="m232.97 779.78h206.06v7.78h-206.06z" style="clip-rule:evenodd"/></clipPath><clipPath id="f"><path d="m232.97 779.86h206.06v7.7h-206.06z" style="clip-rule:evenodd"/></clipPath><clipPath id="g"><path d="m36.98 768.22h97.99v7.78h-97.99z" style="clip-rule:evenodd"/></clipPath><clipPath id="h"><path d="m36.98 768.29h97.99v7.7h-97.99z" style="clip-rule:evenodd"/></clipPath><clipPath id="i"><path d="m95.45 732.14h43.99v7.75h-43.99z" style="clip-rule:evenodd"/></clipPath><clipPath id="j"><path d="m95.45 732.19h43.99v7.7h-43.99z" style="clip-rule:evenodd"/></clipPath><clipPath id="k"><path d="m95.45 724.44h47.86v7.78h-47.86z" style="clip-rule:evenodd"/></clipPath><clipPath id="l"><path d="m95.45 724.51h47.86v7.7h-47.86z" style="clip-rule:evenodd"/></clipPath><clipPath id="m"><path d="m95.45 716.76h72.05v7.75h-72.05z" style="clip-rule:evenodd"/></clipPath><clipPath id="n"><path d="m95.45 716.81h72.05v7.7h-72.05z" style="clip-rule:evenodd"/></clipPath><clipPath id="o"><path d="m95.45 709.06h43.73v7.78h-43.73z" style="clip-rule:evenodd"/></clipPath><clipPath id="p"><path d="m95.45 709.13h43.73v7.7h-43.73z" style="clip-rule:evenodd"/></clipPath><clipPath id="q"><path d="m48.34 684.7h49.51v7.78h-49.51z" style="clip-rule:evenodd"/></clipPath><clipPath id="r"><path d="m48.34 684.77h49.51v7.7h-49.51z" style="clip-rule:evenodd"/></clipPath><clipPath id="s"><path d="m48.34 676.99h42.5v7.78h-42.5z" style="clip-rule:evenodd"/></clipPath><clipPath id="t"><path d="m48.34 677.06h42.5v7.7h-42.5z" style="clip-rule:evenodd"/></clipPath><clipPath id="u"><path d="m48.34 669.31h69.86v7.78h-69.86z" style="clip-rule:evenodd"/></clipPath><clipPath id="v"><path d="m48.34 669.38h69.86v7.7h-69.86z" style="clip-rule:evenodd"/></clipPath><clipPath id="w"><path d="m117.79 687.46h40.3v7.75h-40.3z" style="clip-rule:evenodd"/></clipPath><clipPath id="x"><path d="m117.79 687.5h40.3v7.7h-40.3z" style="clip-rule:evenodd"/></clipPath><clipPath id="y"><path d="m117.79 679.75h47.86v7.78h-47.86z" style="clip-rule:evenodd"/></clipPath><clipPath id="z"><path d="m117.79 679.82h47.86v7.7h-47.86z" style="clip-rule:evenodd"/></clipPath><clipPath id="A"><path d="m136.7 621.79h58.22v7.75h-58.22z" style="clip-rule:evenodd"/></clipPath><clipPath id="B"><path d="m136.7 621.86h58.22v7.68h-58.22z" style="clip-rule:evenodd"/></clipPath><clipPath id="C"><path d="m44.9 744.5h49.51v7.78h-49.51z" style="clip-rule:evenodd"/></clipPath><clipPath id="D"><path d="m44.9 744.58h49.51v7.7h-49.51z" style="clip-rule:evenodd"/></clipPath><clipPath id="E"><path d="m44.9 736.82h69.65v7.75h-69.65z" style="clip-rule:evenodd"/></clipPath><clipPath id="F"><path d="m44.9 736.9h69.65v7.68h-69.65z" style="clip-rule:evenodd"/></clipPath><clipPath id="G"><path d="m44.9 729.12h59.62v7.78h-59.62z" style="clip-rule:evenodd"/></clipPath><clipPath id="H"><path d="m44.9 729.19h59.62v7.7h-59.62z" style="clip-rule:evenodd"/></clipPath><clipPath id="I"><path d="m201.67 739.7h52.87v7.75h-52.87z" style="clip-rule:evenodd"/></clipPath><clipPath id="J"><path d="m201.67 739.78h52.87v7.68h-52.87z" style="clip-rule:evenodd"/></clipPath><clipPath id="K"><path d="m201.67 732h65.18v7.78h-65.18z" style="clip-rule:evenodd"/></clipPath><clipPath id="L"><path d="m201.67 732.07h65.18v7.7h-65.18z" style="clip-rule:evenodd"/></clipPath><clipPath id="M"><path d="m201.67 724.32h68.35v7.75h-68.35z" style="clip-rule:evenodd"/></clipPath><clipPath id="N"><path d="m201.67 724.39h68.35v7.68h-68.35z" style="clip-rule:evenodd"/></clipPath><clipPath id="O"><path d="m201.67 716.62h62.78v7.78h-62.78z" style="clip-rule:evenodd"/></clipPath><clipPath id="P"><path d="m201.67 716.69h62.78v7.7h-62.78z" style="clip-rule:evenodd"/></clipPath><clipPath id="Q"><path d="m201.67 708.94h71.93v7.75h-71.93z" style="clip-rule:evenodd"/></clipPath><clipPath id="R"><path d="m201.67 708.98h71.93v7.7h-71.93z" style="clip-rule:evenodd"/></clipPath><clipPath id="S"><path d="m203.74 616.3h92.42v7.75h-92.42z" style="clip-rule:evenodd"/></clipPath><clipPath id="T"><path d="m203.74 616.34h92.42v7.7h-92.42z" style="clip-rule:evenodd"/></clipPath><clipPath id="U"><path d="m203.74 616.34h92.42v7.7h-92.42z" style="clip-rule:evenodd"/></clipPath><clipPath id="V"><path d="m203.74 616.34h92.42v7.7h-92.42z" style="clip-rule:evenodd"/></clipPath><clipPath id="W"><path d="m269.4 663.38h58.92v7.78h-58.92z" style="clip-rule:evenodd"/></clipPath><clipPath id="X"><path d="m269.4 663.46h58.92v7.7h-58.92z" style="clip-rule:evenodd"/></clipPath><clipPath id="Y"><path d="m269.4 655.68h70.56v7.78h-70.56z" style="clip-rule:evenodd"/></clipPath><clipPath id="Z"><path d="m269.4 655.75h70.56v7.7h-70.56z" style="clip-rule:evenodd"/></clipPath><clipPath id="aa"><path d="m269.4 648h75.1v7.78h-75.1z" style="clip-rule:evenodd"/></clipPath><clipPath id="ab"><path d="m269.4 648.07h75.1v7.7h-75.1z" style="clip-rule:evenodd"/></clipPath><clipPath id="ac"><path d="m270.1 735.24h53.83v7.75h-53.83z" style="clip-rule:evenodd"/></clipPath><clipPath id="ad"><path d="m270.1 735.29h53.83v7.7h-53.83z" style="clip-rule:evenodd"/></clipPath><clipPath id="ae"><path d="m270.1 727.54h72.74v7.78h-72.74z" style="clip-rule:evenodd"/></clipPath><clipPath id="af"><path d="m270.1 727.61h72.74v7.7h-72.74z" style="clip-rule:evenodd"/></clipPath><clipPath id="ag"><path d="m270.1 719.83h66.89v7.78h-66.89z" style="clip-rule:evenodd"/></clipPath><clipPath id="ah"><path d="m270.1 719.9h66.89v7.7h-66.89z" style="clip-rule:evenodd"/></clipPath><clipPath id="ai"><path d="m346.42 704.98h62.23v7.78h-62.23z" style="clip-rule:evenodd"/></clipPath><clipPath id="aj"><path d="m346.42 705.05h62.23v7.7h-62.23z" style="clip-rule:evenodd"/></clipPath><clipPath id="ak"><path d="m346.42 697.27h71.04v7.78h-71.04z" style="clip-rule:evenodd"/></clipPath><clipPath id="al"><path d="m346.42 697.34h71.04v7.7h-71.04z" style="clip-rule:evenodd"/></clipPath><clipPath id="am"><path d="m346.42 689.59h76.68v7.75h-76.68z" style="clip-rule:evenodd"/></clipPath><clipPath id="an"><path d="m346.42 689.66h76.68v7.68h-76.68z" style="clip-rule:evenodd"/></clipPath><clipPath id="ao"><path d="m202.7 594.62h65.95v7.78h-65.95z" style="clip-rule:evenodd"/></clipPath><clipPath id="ap"><path d="m202.7 594.7h65.95v7.7h-65.95z" style="clip-rule:evenodd"/></clipPath><clipPath id="aq"><path d="m202.7 594.7h65.95v7.7h-65.95z" style="clip-rule:evenodd"/></clipPath><clipPath id="ar"><path d="m202.7 594.7h65.95v7.7h-65.95z" style="clip-rule:evenodd"/></clipPath><clipPath id="as"><path d="m288.65 593.95h56.26v7.75h-56.26z" style="clip-rule:evenodd"/></clipPath><clipPath id="at"><path d="m288.65 594h56.26v7.7h-56.26z" style="clip-rule:evenodd"/></clipPath><clipPath id="au"><path d="m288.65 594h56.26v7.7h-56.26z" style="clip-rule:evenodd"/></clipPath><clipPath id="av"><path d="m288.65 594h56.26v7.7h-56.26z" style="clip-rule:evenodd"/></clipPath><clipPath id="aw"><path d="m554.16 711.5h37.94v7.78h-37.94z" style="clip-rule:evenodd"/></clipPath><clipPath id="ax"><path d="m554.16 711.58h37.94v7.7h-37.94z" style="clip-rule:evenodd"/></clipPath><clipPath id="ay"><path d="m495.36 770.64h45.12v7.78h-45.12z" style="clip-rule:evenodd"/></clipPath><clipPath id="az"><path d="m495.36 770.71h45.12v7.7h-45.12z" style="clip-rule:evenodd"/></clipPath><clipPath id="aA"><path d="m450.34 763.42h33.48v7.78h-33.48z" style="clip-rule:evenodd"/></clipPath><clipPath id="aB"><path d="m450.34 763.49h33.48v7.7h-33.48z" style="clip-rule:evenodd"/></clipPath><clipPath id="aC"><path d="m522.53 763.42h38.64v7.78h-38.64z" style="clip-rule:evenodd"/></clipPath><clipPath id="aD"><path d="m522.53 763.49h38.64v7.7h-38.64z" style="clip-rule:evenodd"/></clipPath><clipPath id="aE"><path d="m470.28 722.86h34.85v7.78h-34.85z" style="clip-rule:evenodd"/></clipPath><clipPath id="aF"><path d="m470.28 722.93h34.85v7.7h-34.85z" style="clip-rule:evenodd"/></clipPath><clipPath id="aG"><path d="m502.94 722.86h34.85v7.78h-34.85z" style="clip-rule:evenodd"/></clipPath><clipPath id="aH"><path d="m502.94 722.93h34.85v7.7h-34.85z" style="clip-rule:evenodd"/></clipPath><clipPath id="aI"><path d="m446.54 730.78h31.63v7.75h-31.63z" style="clip-rule:evenodd"/></clipPath><clipPath id="aJ"><path d="m446.54 730.82h31.63v7.7h-31.63z" style="clip-rule:evenodd"/></clipPath><clipPath id="aK"><path d="m526.99 730.78h34.87v7.75h-34.87z" style="clip-rule:evenodd"/></clipPath><clipPath id="aL"><path d="m526.99 730.82h34.87v7.7h-34.87z" style="clip-rule:evenodd"/></clipPath><clipPath id="aM"><path d="m439.25 694.66h121.56v7.78h-121.56z" style="clip-rule:evenodd"/></clipPath><clipPath id="aN"><path d="m439.25 694.73h121.56v7.7h-121.56z" style="clip-rule:evenodd"/></clipPath><clipPath id="aO"><path d="m442.92 666.17h56.26v7.78h-56.26z" style="clip-rule:evenodd"/></clipPath><clipPath id="aP"><path d="m442.92 666.24h56.23v7.7h-56.23z" style="clip-rule:evenodd"/></clipPath><clipPath id="aQ"><path d="m442.92 658.49h53.83v7.78h-53.83z" style="clip-rule:evenodd"/></clipPath><clipPath id="aR"><path d="m442.92 658.56h53.83v7.7h-53.83z" style="clip-rule:evenodd"/></clipPath><clipPath id="aS"><path d="m442.92 658.56h53.83v7.7h-53.83z" style="clip-rule:evenodd"/></clipPath><clipPath id="aT"><path d="m446.35 644.52h46.82v7.78h-46.82z" style="clip-rule:evenodd"/></clipPath><clipPath id="aU"><path d="m446.35 644.59h46.82v7.7h-46.82z" style="clip-rule:evenodd"/></clipPath><clipPath id="aV"><path d="m446.35 636.82h52.87v7.78h-52.87z" style="clip-rule:evenodd"/></clipPath><clipPath id="aW"><path d="m446.35 636.89h52.87v7.7h-52.87z" style="clip-rule:evenodd"/></clipPath><clipPath id="aX"><path d="m446.69 618.6h46.61v7.78h-46.61z" style="clip-rule:evenodd"/></clipPath><clipPath id="aY"><path d="m446.69 618.67h46.61v7.7h-46.61z" style="clip-rule:evenodd"/></clipPath><clipPath id="aZ"><path d="m446.69 610.9h52.87v7.78h-52.87z" style="clip-rule:evenodd"/></clipPath><clipPath id="a0"><path d="m446.69 610.97h52.87v7.7h-52.87z" style="clip-rule:evenodd"/></clipPath><clipPath id="a1"><path d="m499.56 665.3h56.23v7.78h-56.23z" style="clip-rule:evenodd"/></clipPath><clipPath id="a2"><path d="m499.56 665.38h56.23v7.7h-56.23z" style="clip-rule:evenodd"/></clipPath><clipPath id="a3"><path d="m499.56 657.62h53.83v7.78h-53.83z" style="clip-rule:evenodd"/></clipPath><clipPath id="a4"><path d="m499.56 657.7h53.83v7.7h-53.83z" style="clip-rule:evenodd"/></clipPath><clipPath id="a5"><path d="m499.56 657.7h53.83v7.7h-53.83z" style="clip-rule:evenodd"/></clipPath><clipPath id="a6"><path d="m502.99 643.66h46.82v7.78h-46.82z" style="clip-rule:evenodd"/></clipPath><clipPath id="a7"><path d="m502.99 643.73h46.82v7.7h-46.82z" style="clip-rule:evenodd"/></clipPath><clipPath id="a8"><path d="m502.99 635.95h52.87v7.78h-52.87z" style="clip-rule:evenodd"/></clipPath><clipPath id="a9"><path d="m502.99 636.02h52.87v7.7h-52.87z" style="clip-rule:evenodd"/></clipPath><clipPath id="ba"><path d="m503.33 617.74h46.54v7.78h-46.54z" style="clip-rule:evenodd"/></clipPath><clipPath id="bb"><path d="m503.33 617.81h46.54v7.7h-46.54z" style="clip-rule:evenodd"/></clipPath><clipPath id="bc"><path d="m503.33 610.06h49.63v7.75h-49.63z" style="clip-rule:evenodd"/></clipPath><clipPath id="bd"><path d="m503.33 610.1h49.63v7.7h-49.63z" style="clip-rule:evenodd"/></clipPath><clipPath id="be"><path d="m546.17 650.66h49.44v7.75h-49.44z" style="clip-rule:evenodd"/></clipPath><clipPath id="bf"><path d="m546.17 650.74h49.44v7.68h-49.44z" style="clip-rule:evenodd"/></clipPath><clipPath id="bg"><path d="m435.82 587.76h96.38v7.75h-96.38z" style="clip-rule:evenodd"/></clipPath><clipPath id="bh"><path d="m435.82 587.81h96.38v7.7h-96.38z" style="clip-rule:evenodd"/></clipPath><clipPath id="bi"><path d="m435.82 580.06h75.43v7.78h-75.43z" style="clip-rule:evenodd"/></clipPath><clipPath id="bj"><path d="m435.82 580.13h75.43v7.7h-75.43z" style="clip-rule:evenodd"/></clipPath><g transform="matrix(2.32 0 0 -2.32 -91.48 1843.34)"><path d="m39.82 767.45h383.01v-174.63h-383.01z" style="fill:none;stroke:#7f7f7f;stroke-width:.82;stroke-linecap:round;stroke-linejoin:round;stroke-miterlimit:10"/><g style="clip-path:url(#a)"><g style="clip-path:url(#b)"><text style="font-size:6.31;font-family:Droid Sans" transform="matrix(1 0 0 -1 44.02 758.83)"><tspan x="0 3.91 6.93 9.05 12.07 14.74 17.88 21.16 23.28 26.42" y="0">Datacenter</tspan></text></g><path d="m44.02 757.8h28.73v.41h-28.73z" style="fill-rule:evenodd"/></g><g style="clip-path:url(#c)"><g style="clip-path:url(#d)"><text style="font-weight:bold;font-size:6.31;font-family:Droid Sans;fill:#f00" transform="matrix(1 0 0 -1 237.22 789.19)"><tspan x="0 3.38 6.77 8.34 9.92 13.31 15.98 19.07 21.27 22.86 26.26 29.65 30.95 32.53 35.06 36.46 39.14 41.41 44.8 47.48 49.06 52.15" y="0">Collocation is crucial</tspan></text></g></g><g style="clip-path:url(#e)"><g style="clip-path:url(#f)"><text style="font-size:6.34;font-family:Droid Sans" transform="matrix(1 0 0 -1 237.22 781.51)"><tspan x="0 3.16 6.33 7.72 11.05 12.51 14.98 17.13 20.16 23.46 26.14 29.31 30.7 32.64 34.85 38.23 43.31 44.63 47.79 50.55 53.24 56.56 59.6 62.89 65.88 69.03 70.42 71.88 75.21 78.52 81.84 84.52 87.68 90.17 91.57 96.65 100.03 102.24 105.39 106.72 108.18 111.22 113.34 116.51 119.83 122.51 125.4 126.8 128.92 132.25 135.28 138.58 139.97 143.3 145.51 148.87 151.55 154.72 157.2 159.71 161.16 164.49 167.47 168.85 170.31 172.44 174.92 178.1 179.56" y="0">=&gt; distance from exchange induces more latency than processing itself</tspan></text></g></g><g style="clip-path:url(#g)"><g style="clip-path:url(#h)"><text style="font-weight:bold;font-size:6.31;font-family:Droid Sans" transform="matrix(1 0 0 -1 41.26 769.94)"><tspan x="0 3.98 5.56 8.58 11.94 13.31 15.3 17.57 20.75 24.1 27.46 30.63 33.98 36.67 39.68 41.05 43.24 45.53 48.63 51.99 53.56 56.92 59.94 61.23 64.33 66.6 69.28" y="0">High frequency trading arch</tspan></text></g></g><g style="fill:none;stroke-width:.82;stroke-linecap:round;stroke-linejoin:round;stroke-miterlimit:10"><path d="m45.67 753.36h114.84v-100.37h-114.84z" style="stroke:#177d36"/><path d="m199.68 753.72h217.63v-144.38h-217.63z" style="stroke:#00f"/><path d="m203.47 748.9h50.21v-116.88h-50.21z" style="stroke:#548dd4"/><path d="m96.55 743.06h58.42v-39.55h-58.42z" style="stroke:#0f0"/><path d="m48.98 695.54h49.68v-31.96h-49.68z" style="stroke:#f00"/><path d="m117.58 698.3h37.48v-39.88h-37.48z" style="stroke:#0f0"/><path d="m270.17 747.17h57.74v-42.96h-57.74z" style="stroke:#3cc"/><path d="m347.21 715.56h60.14v-41.26h-60.14z" style="stroke:#936"/><path d="m270.86 672.58h57.41v-30.94h-57.41z" style="stroke:#f60"/></g><g style="clip-path:url(#i)"><g style="clip-path:url(#j)"><text style="font-size:6.31;font-family:Droid Sans" transform="matrix(1 0 0 -1 99.7 733.85)"><tspan x="0 5.44 8.46 10.67 13.57 16.73" y="0">Market</tspan></text></g><path d="m99.7 732.82h18.84v.41h-18.84z" style="fill-rule:evenodd"/></g><g style="clip-path:url(#k)"><g style="clip-path:url(#l)"><text style="font-size:6.34;font-family:Droid Sans" transform="matrix(1 0 0 -1 99.7 726.17)"><tspan x="0 4 7.01 9.13 12.3 16.83 19.87" y="0">Gateway</tspan></text></g><path d="m99.7 725.14h22.78v.41h-22.78z" style="fill-rule:evenodd"/></g><g style="clip-path:url(#m)"><g style="clip-path:url(#n)"><text style="font-size:6.31;font-family:Droid Sans" transform="matrix(1 0 0 -1 99.7 718.46)"><tspan x="0 1.91 4.38 7.69 11.01 16.1 17.55 19.66 22.13 23.46 25.39 28.54 31.71 35.02 37.49 38.86 40.98 44.36" y="0">(submits feeds to </tspan></text></g></g><g style="clip-path:url(#o)"><g style="clip-path:url(#p)"><text style="font-size:6.34;font-family:Droid Sans" transform="matrix(1 0 0 -1 99.7 710.78)"><tspan x="0 2.68 4.14 5.57 8.72 12.05 14.17 16.65" y="0">clients)</tspan></text></g></g><g style="clip-path:url(#q)"><g style="clip-path:url(#r)"><text style="font-size:6.34;font-family:Droid Sans" transform="matrix(1 0 0 -1 52.61 686.42)"><tspan x="0 5.42 8.45 10.57 13.22 16.51 17.97 21.24" y="0">Matching</tspan></text></g><path d="m52.61 685.39h24.26v.41h-24.26z" style="fill-rule:evenodd"/></g><g style="clip-path:url(#s)"><g style="clip-path:url(#t)"><text style="font-size:6.31;font-family:Droid Sans" transform="matrix(1 0 0 -1 52.61 678.72)"><tspan x="0 3.08 6.39 9.34 10.79 14.06" y="0">Engine</tspan></text></g><path d="m52.61 677.69h17.26v.41h-17.26z" style="fill-rule:evenodd"/></g><g style="clip-path:url(#u)"><g style="clip-path:url(#v)"><text style="font-size:6.34;font-family:Droid Sans" transform="matrix(1 0 0 -1 52.61 671.04)"><tspan x="0 1.92 5.08 7.82 10.94 13.62 16.89 19.01 22.15 24.63 25.92 29.27 31.46 34.75 37.9 40.08 42.55" y="0">(executes orders)</tspan></text></g></g><g style="clip-path:url(#w)"><g style="clip-path:url(#x)"><text style="font-size:6.31;font-family:Droid Sans" transform="matrix(1 0 0 -1 122.04 689.16)"><tspan x="0 4.19 6.39 9.71 12.87" y="0">Order</tspan></text></g><path d="m122.04 688.13h15.07v.41h-15.07z" style="fill-rule:evenodd"/></g><g style="clip-path:url(#y)"><g style="clip-path:url(#z)"><text style="font-size:6.34;font-family:Droid Sans" transform="matrix(1 0 0 -1 122.04 681.48)"><tspan x="0 4 7.01 9.13 12.3 16.83 19.87" y="0">Gateway</tspan></text></g><path d="m122.04 680.45h22.78v.41h-22.78z" style="fill-rule:evenodd"/></g><path d="m134.42 638.5h50.21v-30.03h-50.21z" style="fill:none;stroke:#00f;stroke-width:.82;stroke-linecap:round;stroke-linejoin:round;stroke-miterlimit:10"/><g style="clip-path:url(#A)"><g style="clip-path:url(#B)"><text style="font-size:6.31;font-family:Droid Sans" transform="matrix(1 0 0 -1 140.95 623.5)"><tspan x="0 4.19 6.32 9.63 12.79 15 16.37 19.04 20.5 21.95 25.1 28.42 30.54" y="0">Other clients</tspan></text></g></g><g style="clip-path:url(#C)"><g style="clip-path:url(#D)"><text style="font-size:6.34;font-family:Droid Sans" transform="matrix(1 0 0 -1 49.15 746.23)"><tspan x="0 3.09 5.85 8.53 11.85 14.89 18.18 21.17" y="0">Exchange</tspan></text></g><path d="m49.15 745.2h24.29v.41h-24.29z" style="fill-rule:evenodd"/></g><g style="clip-path:url(#E)"><g style="clip-path:url(#F)"><text style="font-size:6.31;font-family:Droid Sans" transform="matrix(1 0 0 -1 49.15 738.53)"><tspan x="0 1.94 5.1 7.85 11.01 13.68 17 19.14 22.31 24.79 26.11 28.24 30.44 33.47 36.78 38.23 41.55" y="0">(executes trading</tspan></text></g></g><g style="clip-path:url(#G)"><g style="clip-path:url(#H)"><text style="font-size:6.34;font-family:Droid Sans" transform="matrix(1 0 0 -1 49.15 730.85)"><tspan x="0 3.09 5.3 8.33 11.66 14.14 17.17 19.85 21.97 23.43 26.83 30.15 32.63" y="0">Transactions)</tspan></text></g></g><g style="fill:none;stroke-width:.82;stroke-linecap:round;stroke-linejoin:round;stroke-miterlimit:10;stroke:#ed1c24"><path d="m117.6 678.36-20.02-.29"/><path d="m103.18 675.38-5.6 2.72 5.52 2.83"/><path d="m77.62 695.54v16.56h18.94"/><path d="m91.01 714.89 5.54-2.79-5.54-2.76"/></g><g style="clip-path:url(#I)"><g style="clip-path:url(#J)"><text style="font-size:6.31;font-family:Droid Sans" transform="matrix(1 0 0 -1 205.94 741.41)"><tspan x="0 1.59 4.87 7 9.2 12.23 13.65 16.94 19.96 22.09" y="0">Intra data</tspan></text></g><path d="m205.94 740.38h25.15v.43h-25.15z" style="fill-rule:evenodd"/></g><g style="clip-path:url(#K)"><g style="clip-path:url(#L)"><text style="font-size:6.34;font-family:Droid Sans" transform="matrix(1 0 0 -1 205.94 733.73)"><tspan x="0 3.38 6.51 9.8 11.92 15.07 17.26 18.63 22 25.34 28.64 31.93 35.08 37.74" y="0">Center Connect</tspan></text></g></g><g style="clip-path:url(#M)"><g style="clip-path:url(#N)"><text style="font-size:6.31;font-family:Droid Sans" transform="matrix(1 0 0 -1 205.94 726.02)"><tspan x="0 1.91 5.23 8.25 11.52 14.81 16.26 19.4 20.83 24.89 28.03 30.17 34.7 38.05 40.25" y="0">(handle Network</tspan></text></g></g><g style="clip-path:url(#O)"><g style="clip-path:url(#P)"><text style="font-size:6.34;font-family:Droid Sans" transform="matrix(1 0 0 -1 205.94 718.34)"><tspan x="0 3.45 6.72 8.91 11.39 13.51 15.99 17.35 21.88 23.34 25.46 28.75 32.1 35.39" y="0">Bursts without</tspan></text></g></g><g style="clip-path:url(#Q)"><g style="clip-path:url(#R)"><text style="font-size:6.31;font-family:Droid Sans" transform="matrix(1 0 0 -1 205.94 710.64)"><tspan x="0 3.91 6.11 9.44 12.75 16.03 17.48 20.75 23.71 25.08 28.37 31.39 34.06 36.93 40.07 42.21 44.68" y="0">Dropping packets)</tspan></text></g></g><path d="m204.58 625.82h124.05v-12.74h-124.05z" style="fill:none;stroke:#548dd4;stroke-width:.82;stroke-linecap:round;stroke-linejoin:round;stroke-miterlimit:10"/><g style="clip-path:url(#S)"><g style="clip-path:url(#T)"><text style="font-size:6.31;font-family:Droid Sans" transform="matrix(1 0 0 -1 208.01 618)"><tspan x="0 3.36 5.54 8.89 11.36 13.83 15.21 18.49 21.52 23.63" y="0">Cross data</tspan></text></g><g style="clip-path:url(#U)"><text style="font-size:6.31;font-family:Droid Sans" transform="matrix(1 0 0 -1 234.74 618)"><tspan x="0" y="0">-</tspan></text></g><g style="clip-path:url(#V)"><text style="font-size:6.31;font-family:Droid Sans" transform="matrix(1 0 0 -1 236.66 618)"><tspan x="0 2.67 5.81 9.1 11.21 14.35 16.54 17.83 20.5 23.85 27.14 30.42 33.57 36.24" y="0">center connect</tspan></text></g><path d="m208.01 616.97h67.25v.41h-67.25z" style="fill-rule:evenodd"/></g><g style="clip-path:url(#W)"><g style="clip-path:url(#X)"><text style="font-size:6.34;font-family:Droid Sans" transform="matrix(1 0 0 -1 273.67 665.11)"><tspan x="0 2.88 6.04 9.21 12.5 13.87 17.16 20.19 23.47 26.76 28.21 31.37" y="0">Feed handler</tspan></text></g><path d="m273.67 664.08h33.62v.41h-33.62z" style="fill-rule:evenodd"/></g><g style="clip-path:url(#Y)"><g style="clip-path:url(#Z)"><text style="font-size:6.31;font-family:Droid Sans" transform="matrix(1 0 0 -1 273.67 657.41)"><tspan x="0 1.91 4.94 7.91 10.85 13.05 16.2 19.17 22.19 24.31 27.48 29.94 31.24 33.17 36.33 39.49 42.78" y="0">(aggregates feeds</tspan></text></g></g><g style="clip-path:url(#aa)"><g style="clip-path:url(#ab)"><text style="font-size:6.34;font-family:Droid Sans" transform="matrix(1 0 0 -1 273.67 649.7)"><tspan x="0 1.6 4.87 6.99 10.36 11.73 14.76 18.04 19.47 22.83 25.02 28.31 31.46 33.68 35.03 38.32 41.67 45.02 47.91" y="0">Into an order book)</tspan></text></g></g><g style="clip-path:url(#ac)"><g style="clip-path:url(#ad)"><text style="font-size:6.31;font-family:Droid Sans" transform="matrix(1 0 0 -1 274.34 736.94)"><tspan x="0 3.09 4.54 7.23 10.13 13.29 15.5 18.81 20.26 23.28 26.6" y="0">Tickerplant</tspan></text></g><path d="m274.34 735.91h28.68v.41h-28.68z" style="fill-rule:evenodd"/></g><g style="clip-path:url(#ae)"><g style="clip-path:url(#af)"><text style="font-size:6.34;font-family:Droid Sans" transform="matrix(1 0 0 -1 274.34 729.26)"><tspan x="0 1.94 5.38 8.78 12.1 14.22 17.38 19.88 21.2 24.24 27.54 30.86 32.29 35.62 38.95 40.4 41.86 45.19" y="0">(Routes and builds</tspan></text></g></g><g style="clip-path:url(#ag)"><g style="clip-path:url(#ah)"><text style="font-size:6.31;font-family:Droid Sans" transform="matrix(1 0 0 -1 274.34 721.56)"><tspan x="0 3.65 6.63 9.6 11.8 14.97 17.95 20.97 23.1 26.26 27.66 30.15 32.27 35.3 37.42 39.91" y="0">Aggregate stats)</tspan></text></g></g><g style="clip-path:url(#ai)"><g style="clip-path:url(#aj)"><text style="font-size:6.34;font-family:Droid Sans" transform="matrix(1 0 0 -1 350.69 706.68)"><tspan x="0 3.65 6.94 10.23 11.68 13.11 15.79 18.8 20.92 22.38 25.72 29.03 30.39 33.84" y="0">Application BE</tspan></text></g><path d="m350.69 705.65h36.98v.43h-36.98z" style="fill-rule:evenodd"/></g><g style="clip-path:url(#ak)"><g style="clip-path:url(#al)"><text style="font-size:6.34;font-family:Droid Sans" transform="matrix(1 0 0 -1 350.69 699)"><tspan x="0 1.92 5.57 8.86 11.89 13.32 16.19 18.68 21.83 23.19 26.48 29.51 31.64 34.67 36.03 39.07 42.34" y="0">(Analyze data and</tspan></text></g></g><g style="clip-path:url(#am)"><g style="clip-path:url(#an)"><text style="font-size:6.31;font-family:Droid Sans" transform="matrix(1 0 0 -1 350.69 691.3)"><tspan x="0 3.08 8.18 9.63 11.75 13.05 15.18 17.38 20.41 23.68 25.13 28.4 31.36 32.78 36.15 38.35 41.62 44.76 46.97 49.44" y="0">Emit trading orders)</tspan></text></g></g><g style="fill:none;stroke-width:.82;stroke-linecap:round;stroke-linejoin:round;stroke-miterlimit:10;stroke:#548dd4"><path d="m218.95 613.1v-38.85"/><path d="m221.71 579.82-2.76-5.55-2.78 5.55"/><path d="m216.19 607.58 2.76 5.52 2.79-5.52"/><path d="m304.34 612.7v-38.86"/><path d="m307.1 579.41-2.76-5.55-2.76 5.55"/><path d="m301.58 607.18 2.76 5.52 2.79-5.52"/></g><g style="clip-path:url(#ao)"><g style="clip-path:url(#ap)"><text style="font-size:6.34;font-family:Droid Sans" transform="matrix(1 0 0 -1 206.98 596.35)"><tspan x="0 3.91 5.37 8.3" y="0">High</tspan></text></g><g style="clip-path:url(#aq)"><text style="font-size:6.34;font-family:Droid Sans" transform="matrix(1 0 0 -1 218.59 596.35)"><tspan x="0" y="0">-</tspan></text></g><g style="clip-path:url(#ar)"><text style="font-size:6.34;font-family:Droid Sans" transform="matrix(1 0 0 -1 220.51 596.35)"><tspan x="0 2.12 5.4 8.75 12.04 14.99 18.28 21.57 24.86" y="0">thoughput</tspan></text></g></g><g style="clip-path:url(#as)"><g style="clip-path:url(#at)"><text style="font-size:6.31;font-family:Droid Sans" transform="matrix(1 0 0 -1 292.92 595.66)"><tspan x="0 2.69 6.05" y="0">Low</tspan></text></g><g style="clip-path:url(#au)"><text style="font-size:6.31;font-family:Droid Sans" transform="matrix(1 0 0 -1 303.5 595.66)"><tspan x="0" y="0">-</tspan></text></g><g style="clip-path:url(#av)"><text style="font-size:6.31;font-family:Droid Sans" transform="matrix(1 0 0 -1 305.42 595.66)"><tspan x="0 1.45 4.48 6.59 9.76 13.05 15.72" y="0">latency</tspan></text></g></g><g style="fill:none;stroke-width:.82;stroke-linecap:round;stroke-linejoin:round;stroke-miterlimit:10"><g style="stroke:#177d36"><path d="m154.97 723.29 48.86-.53"/><path d="m198.31 725.59 5.5-2.83-5.57-2.71"/><path d="m154.99 678.1 48.84-.36"/><path d="m198.29 680.54 5.52-2.78-5.57-2.76"/><path d="m154.66 723.12h14.85v-84.65"/><path d="m172.27 644.04-2.76-5.57-2.76 5.57"/><path d="m179.4 677.74v-39.87"/><path d="m182.18 643.39-2.78-5.52-2.76 5.52"/></g><path d="m190.06 632.28h1.2v-30.02h-50.24v.88" style="stroke:#00f"/><path d="m186.96 635.38h1.2v-30h-50.23v.88" style="stroke:#00f"/><path d="m235.44 782.26-11.66-15.48" style="stroke:#ed1c24"/><path d="m229.3 769.54-5.52-2.76 1.1 6.09" style="stroke:#ed1c24"/><path d="m409.03 712.73h1.15v-41.26h-60.14v1.47" style="stroke:#936"/><path d="m411.77 709.63h1.15v-41.25h-60.12v1.48" style="stroke:#936"/><g style="stroke:#3cc"><path d="m253.68 725.16h16.49"/><path d="m264.62 727.92 5.55-2.76-5.55-2.76"/><path d="m259.22 722.4-5.54 2.76 5.54 2.78"/><path d="m253.66 696.98h93.19"/><path d="m341.3 699.74 5.55-2.76-5.55-2.76"/><path d="m259.22 694.22-5.56 2.76 5.56 2.76"/></g><g style="stroke:#936"><path d="m253.66 685.99 93.52-.36"/><path d="m341.66 688.44 5.55-2.78-5.57-2.74"/><path d="m259.22 683.23-5.54 2.76 5.54 2.76"/></g><g style="stroke:#f60"><path d="m253.66 652.99h17.2"/><path d="m265.32 655.75 5.57-2.76-5.57-2.78"/><path d="m259.22 650.21-5.54 2.78 5.54 2.76"/><path d="m254.02 717.6 16.84-.34"/><path d="m265.37 720.17 5.49-2.88-5.61-2.69"/><path d="m259.51 714.72-5.49 2.9 5.61 2.67"/></g><g style="stroke:#000"><path d="m435.98 710.04 128.26-.34"/><path d="m558.67 712.49 5.57-2.79-5.57-2.76"/><path d="m495.82 699.05-.7 76.65"/><path d="m492.38 770.14 2.72 5.56 2.85-5.52"/></g></g><g style="clip-path:url(#aw)"><g style="clip-path:url(#ax)"><text style="font-size:6.31;font-family:Droid Sans" transform="matrix(1 0 0 -1 558.43 713.23)"><tspan x="0 3.28 5.49 6.91 9.58" y="0">Price</tspan></text></g></g><g style="clip-path:url(#ay)"><g style="clip-path:url(#az)"><text style="font-size:6.34;font-family:Droid Sans" transform="matrix(1 0 0 -1 499.63 772.37)"><tspan x="0 3.59 6.93 8.39 11.69 16.77" y="0">Volume</tspan></text></g></g><g style="clip-path:url(#aA)"><g style="clip-path:url(#aB)"><text style="font-size:6.31;font-family:Droid Sans" transform="matrix(1 0 0 -1 454.58 765.14)"><tspan x="0 3.45 4.9" y="0">Bid</tspan></text></g><path d="m454.58 764.11h8.18v.41h-8.18z" style="fill-rule:evenodd"/></g><g style="clip-path:url(#aC)"><g style="clip-path:url(#aD)"><text style="font-size:6.31;font-family:Droid Sans" transform="matrix(1 0 0 -1 526.8 765.14)"><tspan x="0 4.18 6.1 8.02 11.16" y="0">Offer</tspan></text></g><path d="m526.8 764.11h13.39v.41h-13.39z" style="fill-rule:evenodd"/></g><g style="fill:none;stroke-width:.82;stroke-linecap:round;stroke-linejoin:round;stroke-miterlimit:10"><path d="m445.94 755.42h17.55v-45.38h-17.55z" style="stroke:#008080"/><path d="m469.8 743.69h17.54v-33.7h-17.54z" style="stroke:#008080"/><g style="stroke:#c0504d"><path d="m525.96 754.1h17.57v-44.35h-17.57z"/><path d="m502.39 748.58h17.52v-38.85h-17.52z"/></g></g><g style="clip-path:url(#aE)"><g style="clip-path:url(#aF)"><text style="font-size:6.34;font-family:Droid Sans" transform="matrix(1 0 0 -1 474.53 724.58)"><tspan x="0 3.24 6.48" y="0">10$</tspan></text></g></g><g style="clip-path:url(#aG)"><g style="clip-path:url(#aH)"><text style="font-size:6.34;font-family:Droid Sans" transform="matrix(1 0 0 -1 507.19 724.58)"><tspan x="0 3.24 6.48" y="0">11$</tspan></text></g></g><g style="clip-path:url(#aI)"><g style="clip-path:url(#aJ)"><text style="font-size:6.31;font-family:Droid Sans" transform="matrix(1 0 0 -1 450.82 732.48)"><tspan x="0 3.22" y="0">9$</tspan></text></g></g><g style="clip-path:url(#aK)"><g style="clip-path:url(#aL)"><text style="font-size:6.31;font-family:Droid Sans" transform="matrix(1 0 0 -1 531.26 732.48)"><tspan x="0 3.24 6.48" y="0">12$</tspan></text></g></g><g style="clip-path:url(#aM)"><g style="clip-path:url(#aN)"><text style="font-size:6.34;font-family:Droid Sans" transform="matrix(1 0 0 -1 443.52 696.38)"><tspan x="0 4.19 6.36 9.65 12.81 14.98 17.46 18.82 21.85 24.03 27.18 28.54 31.83 33.28 36.29 38.97 42.1 45.39 46.76 48.22 51.49 52.92 56.21 57.67 60.94 63.4 66.76 68.69 70.6 73.75 75.92 77.29 80.58 83.87 87.02 90.3 93.46" y="0">Orders are placed in bid/offer queues</tspan></text></g></g><path d="m444.72 675.72h45.72v-76.99h-45.72z" style="fill:none;stroke:#c0504d;stroke-width:.82;stroke-linecap:round;stroke-linejoin:round;stroke-miterlimit:10"/><path d="m328.27 657.1h107.98v52.94" style="fill:none;stroke:#f90;stroke-width:.82;stroke-linecap:round;stroke-linejoin:round;stroke-miterlimit:10"/><g style="clip-path:url(#aO)"><g style="clip-path:url(#aP)"><text style="font-size:6.31;font-family:Droid Sans" transform="matrix(1 0 0 -1 447.19 667.9)"><tspan x="0 4.18 6.1 8.03 11.17 13.34 14.71 18 21.29 24.43 27.72" y="0">Offer queue</tspan></text></g></g><g style="clip-path:url(#aQ)"><g style="clip-path:url(#aR)"><text style="font-size:6.34;font-family:Droid Sans" transform="matrix(1 0 0 -1 448.63 660.19)"><tspan x="0" y="0">-</tspan></text></g><g style="clip-path:url(#aS)"><text style="font-size:6.34;font-family:Droid Sans" transform="matrix(1 0 0 -1 451.99 660.19)"><tspan x="0 3.29 5.47 6.93 9.58 12.74 14.09 17.3 20.52" y="0">price 12$</tspan></text></g></g><path d="m447.12 655.44h38.88v-20.95h-38.88z" style="fill:none;stroke:#c0504d;stroke-width:.82;stroke-linecap:round;stroke-linejoin:round;stroke-miterlimit:10"/><g style="clip-path:url(#aT)"><g style="clip-path:url(#aU)"><text style="font-size:6.34;font-family:Droid Sans" transform="matrix(1 0 0 -1 450.62 646.25)"><tspan x="0 3.38 4.8 6.26 9.42 12.7 14.82 16.2 19.85" y="0">Client A:</tspan></text></g></g><g style="clip-path:url(#aV)"><g style="clip-path:url(#aW)"><text style="font-size:6.31;font-family:Droid Sans" transform="matrix(1 0 0 -1 450.62 638.54)"><tspan x="0 3.2 6.43 9.63 10.94 13.41 16.7 19.73 21.93 25.07" y="0">200 shares</tspan></text></g></g><path d="m447.46 629.52h38.18v-20.95h-38.18z" style="fill:none;stroke:#c0504d;stroke-width:.82;stroke-linecap:round;stroke-linejoin:round;stroke-miterlimit:10"/><g style="clip-path:url(#aX)"><g style="clip-path:url(#aY)"><text style="font-size:6.34;font-family:Droid Sans" transform="matrix(1 0 0 -1 450.96 620.33)"><tspan x="0 3.38 4.8 6.26 9.38 12.67 14.79 16.15 19.6" y="0">Client B:</tspan></text></g></g><g style="clip-path:url(#aZ)"><g style="clip-path:url(#a0)"><text style="font-size:6.31;font-family:Droid Sans" transform="matrix(1 0 0 -1 450.96 612.62)"><tspan x="0 3.2 6.43 9.63 10.94 13.41 16.7 19.73 21.93 25.07" y="0">100 shares</tspan></text></g></g><path d="m501.36 674.83h45.7v-76.97h-45.7z" style="fill:none;stroke:#c0504d;stroke-width:.82;stroke-linecap:round;stroke-linejoin:round;stroke-miterlimit:10"/><g style="clip-path:url(#a1)"><g style="clip-path:url(#a2)"><text style="font-size:6.31;font-family:Droid Sans" transform="matrix(1 0 0 -1 503.81 667.03)"><tspan x="0 4.19 6.12 8.04 11.18 13.4 14.8 18.11 21.42 24.58 27.89" y="0">Offer queue</tspan></text></g></g><g style="clip-path:url(#a3)"><g style="clip-path:url(#a4)"><text style="font-size:6.34;font-family:Droid Sans" transform="matrix(1 0 0 -1 505.25 659.33)"><tspan x="0" y="0">-</tspan></text></g><g style="clip-path:url(#a5)"><text style="font-size:6.34;font-family:Droid Sans" transform="matrix(1 0 0 -1 508.63 659.33)"><tspan x="0 3.33 5.54 6.96 9.64 12.81 14.2 17.43 20.66" y="0">price 11$</tspan></text></g></g><path d="m503.76 654.55h38.86v-20.93h-38.86z" style="fill:none;stroke:#c0504d;stroke-width:.82;stroke-linecap:round;stroke-linejoin:round;stroke-miterlimit:10"/><g style="clip-path:url(#a6)"><g style="clip-path:url(#a7)"><text style="font-size:6.34;font-family:Droid Sans" transform="matrix(1 0 0 -1 507.26 645.38)"><tspan x="0 3.38 4.8 6.26 9.38 12.67 14.79 16.15 19.77" y="0">Client A:</tspan></text></g></g><g style="clip-path:url(#a8)"><g style="clip-path:url(#a9)"><text style="font-size:6.31;font-family:Droid Sans" transform="matrix(1 0 0 -1 507.26 637.68)"><tspan x="0 3.2 6.43 9.63 10.94 13.41 16.7 19.73 21.93 25.07" y="0">100 shares</tspan></text></g></g><path d="m504.1 628.63h38.16v-20.93h-38.16z" style="fill:none;stroke:#c0504d;stroke-width:.82;stroke-linecap:round;stroke-linejoin:round;stroke-miterlimit:10"/><g style="clip-path:url(#ba)"><g style="clip-path:url(#bb)"><text style="font-size:6.34;font-family:Droid Sans" transform="matrix(1 0 0 -1 507.58 619.46)"><tspan x="0 3.38 4.83 6.27 9.42 12.75 14.87 16.28 19.65" y="0">Client C:</tspan></text></g></g><g style="clip-path:url(#bc)"><g style="clip-path:url(#bd)"><text style="font-size:6.31;font-family:Droid Sans" transform="matrix(1 0 0 -1 507.58 611.76)"><tspan x="0 3.23 6.46 7.86 10.33 13.64 16.66 18.87 22.04" y="0">50 shares</tspan></text></g></g><path d="m577.56 650.9h-41.26v-30.93" style="fill:none;stroke:#008080;stroke-width:.82;stroke-linecap:round;stroke-linejoin:round;stroke-miterlimit:10"/><path d="m539.06 625.51-2.76-5.54-2.8 5.54" style="fill:none;stroke:#008080;stroke-width:.82;stroke-linecap:round;stroke-linejoin:round;stroke-miterlimit:10"/><g style="clip-path:url(#be)"><g style="clip-path:url(#bf)"><text style="font-size:6.31;font-family:Droid Sans" transform="matrix(1 0 0 -1 550.44 652.37)"><tspan x="0 3.43 4.89 8.16 9.59 11.3 12.67 15.87 19.09 22.29 23.61 26.07 29.37 32.39 34.6 37.74" y="0">Bid : 150 shares</tspan></text></g></g><path d="m436.58 586.3-364.44.33v76.66" style="fill:none;stroke:#ed1c24;stroke-width:.82;stroke-linecap:round;stroke-linejoin:round;stroke-miterlimit:10"/><g style="clip-path:url(#bg)"><g style="clip-path:url(#bh)"><text style="font-size:6.31;font-family:Droid Sans" transform="matrix(1 0 0 -1 440.06 589.46)"><tspan x="0 5.44 8.46 10.59 13.26 16.58 18 21.44 22.89 26.2 27.58 29.71 33.09 34.48 37.86 39.78 41.71 44.85 47.07 49.54 50.93 54.25 57.14 58.54 61.85 64.05 65.51 68.18" y="0">Match Bid to offers by price</tspan></text></g></g><g style="clip-path:url(#bi)"><g style="clip-path:url(#bj)"><text style="font-size:6.34;font-family:Droid Sans" transform="matrix(1 0 0 -1 440.06 581.78)"><tspan x="0 3.65 6.98 10.27 11.7 15.09 17.3 20.62 23.78 25.99 27.37 30.75 32.68 34.06 37.1 39.31 41.52 42.95 45.84 48.88" y="0">And order of arrival</tspan></text></g></g></g></svg>