<svg height="206.9" viewBox="0 0 392.74 206.9" width="392.74" xml:space="preserve" xmlns="http://www.w3.org/2000/svg" xmlns:xlink="http://www.w3.org/1999/xlink"><marker id="a" orient="auto" refX="0" refY="0" style="overflow:visible"><path d="m5.77 0-8.65 5v-10z" style="fill:#ed1c24;fill-rule:evenodd;stroke:#f00;stroke-width:1pt" transform="scale(-.4)"/></marker><clipPath id="b"><path d="m332.59 104.64h42.86v7.87h-42.86z" style="clip-rule:evenodd"/></clipPath><clipPath id="c"><path d="m332.59 104.71h42.86v7.8h-42.86z" style="clip-rule:evenodd"/></clipPath><clipPath id="d"><path d="m332.59 96.86h48.14v7.85h-48.14z" style="clip-rule:evenodd"/></clipPath><clipPath id="e"><path d="m332.59 96.94h48.14v7.78h-48.14z" style="clip-rule:evenodd"/></clipPath><clipPath id="f"><path d="m366 99.77h47.74v7.87h-47.74z" style="clip-rule:evenodd"/></clipPath><clipPath id="g"><path d="m366 99.84h47.74v7.8h-47.74z" style="clip-rule:evenodd"/></clipPath><clipPath id="h"><path d="m338.86 70.56h38.83v7.85h-38.83z" style="clip-rule:evenodd"/></clipPath><clipPath id="i"><path d="m338.86 70.61h38.83v7.8h-38.83z" style="clip-rule:evenodd"/></clipPath><clipPath id="j"><path d="m338.86 62.76h36.31v7.87h-36.31z" style="clip-rule:evenodd"/></clipPath><clipPath id="k"><path d="m338.86 62.83h36.31v7.8h-36.31z" style="clip-rule:evenodd"/></clipPath><clipPath id="l"><path d="m372.6 79.58h42.24v7.87h-42.24z" style="clip-rule:evenodd"/></clipPath><clipPath id="m"><path d="m372.6 79.66h42.24v7.8h-42.24z" style="clip-rule:evenodd"/></clipPath><clipPath id="n"><path d="m416.09 75.41h34.39v7.87h-34.39z" style="clip-rule:evenodd"/></clipPath><clipPath id="o"><path d="m416.09 75.48h34.39v7.8h-34.39z" style="clip-rule:evenodd"/></clipPath><clipPath id="p"><path d="m406.34 95.95h54.5v7.85h-54.5z" style="clip-rule:evenodd"/></clipPath><clipPath id="q"><path d="m406.34 96.02h54.5v7.78h-54.5z" style="clip-rule:evenodd"/></clipPath><clipPath id="r"><path d="m536.4 99.79h34.37v7.87h-34.37z" style="clip-rule:evenodd"/></clipPath><clipPath id="s"><path d="m536.4 99.86h34.37v7.8h-34.37z" style="clip-rule:evenodd"/></clipPath><clipPath id="t"><path d="m536.04 118.58h41.9v7.87h-41.9z" style="clip-rule:evenodd"/></clipPath><clipPath id="u"><path d="m536.04 118.66h41.9v7.8h-41.9z" style="clip-rule:evenodd"/></clipPath><clipPath id="v"><path d="m400.7 146.76h54.48v7.87h-54.48z" style="clip-rule:evenodd"/></clipPath><clipPath id="w"><path d="m400.7 146.83h54.48v7.8h-54.48z" style="clip-rule:evenodd"/></clipPath><clipPath id="x"><path d="m400.7 138.98h50.23v7.87h-50.23z" style="clip-rule:evenodd"/></clipPath><clipPath id="y"><path d="m400.7 139.06h50.23v7.8h-50.23z" style="clip-rule:evenodd"/></clipPath><clipPath id="z"><path d="m447.67 198.96h49.06v7.85h-49.06z" style="clip-rule:evenodd"/></clipPath><clipPath id="A"><path d="m447.67 199.03h49.06v7.78h-49.06z" style="clip-rule:evenodd"/></clipPath><clipPath id="B"><path d="m326.59 171.12h69.43v7.87h-69.43z" style="clip-rule:evenodd"/></clipPath><clipPath id="C"><path d="m326.59 171.19h69.43v7.8h-69.43z" style="clip-rule:evenodd"/></clipPath><clipPath id="D"><path d="m326.59 163.34h68.47v7.85h-68.47z" style="clip-rule:evenodd"/></clipPath><clipPath id="E"><path d="m326.59 163.42h68.47v7.78h-68.47z" style="clip-rule:evenodd"/></clipPath><g transform="matrix(1.25 0 0 -1.25 -377.93 258.41)"><g style="fill:none;stroke-width:.82;stroke-linecap:round;stroke-linejoin:round;stroke-miterlimit:10"><path d="m326.76 182.83h153.79v-141.21h-153.79z" style="stroke:#3165bb"/><path d="m332.66 115.01h135.36v-61.25h-135.36z" style="stroke:#3165bb"/><path d="m592.13 118.58-.29-3.89-.96-3.81-1.61-3.7-2.18-3.5-2.67-3.26-3.26-3.02-3.7-2.64-4.15-2.28-4.46-1.92-4.73-1.42-4.9-.96-5.04-.53h-5.11l-5.06.53-4.9.96-4.73 1.42-4.48 1.92-4.13 2.28-3.7 2.64-3.26 3.02-2.69 3.26-2.16 3.5-1.61 3.7-.93 3.81-.34 3.89.34 3.91.93 3.82 1.61 3.72 2.16 3.5 2.69 3.27 3.26 3.02 3.7 2.62 4.13 2.3 4.48 1.9 4.73 1.41 4.9.99 5.06.48h5.11l5.04-.48 4.9-.99 4.73-1.41 4.46-1.9 4.15-2.3 3.7-2.62 3.26-3.02 2.67-3.27 2.18-3.5 1.61-3.72.96-3.82z" style="stroke:#008000"/><path d="m534.74 127.49h29.93v-9.72h-29.93z" style="stroke:#ed1c24"/><g style="stroke:#f90"><path d="m533.71 109.3h31.3v-10.44h-31.3z"/><path d="m568.49 105.91h.43v-10.44h-31.34v.1"/><path d="m566.42 107.64h.46v-10.44h-31.34v.1"/></g><path d="m367.13 111.17h94.63v-52.87h-94.63z" style="stroke:#9436b8"/><path d="m362.95 71.16-.09-1.32-.34-1.3-.5-1.25-.7-1.18-.89-1.1-1.05-1.03-1.23-.86-1.32-.77-1.46-.65-1.54-.48-1.63-.31-1.63-.19h-1.66l-1.65.19-1.59.31-1.56.48-1.44.65-1.39.77-1.2.86-1.06 1.03-.86 1.1-.72 1.18-.5 1.25-.34 1.3-.1 1.32.1 1.3.34 1.3.5 1.25.72 1.18.86 1.1 1.06 1.03 1.2.86 1.39.77 1.44.67 1.56.46 1.59.31 1.65.19h1.66l1.63-.19 1.63-.31 1.54-.46 1.46-.67 1.32-.77 1.23-.86 1.05-1.03.89-1.1.7-1.18.5-1.25.34-1.3z" style="stroke:#a5a5a5"/><path d="m406.15 106.54h51.17v-44.19h-51.17z" style="stroke:#9436b8"/><path d="m371.33 88.49h29.9v-9.74h-29.9z" style="stroke:#ed1c24"/></g><g style="clip-path:url(#b)"><g style="clip-path:url(#c)"><text style="font-size:6.41;font-family:Droid Sans" transform="matrix(1 0 0 -1 336.91 106.46)"><tspan x="0 3.6 5.04 7.25 9.4 12.73 15.78" y="0">Virtual</tspan></text></g></g><g style="clip-path:url(#d)"><g style="clip-path:url(#e)"><text style="font-size:6.38;font-family:Droid Sans" transform="matrix(1 0 0 -1 336.91 98.66)"><tspan x="0 5.49 8.55 11.25 14.6 16.02 19.38" y="0">Machine</tspan></text></g></g><g style="clip-path:url(#f)"><g style="clip-path:url(#g)"><text style="font-size:6.41;font-family:Droid Sans" transform="matrix(1 0 0 -1 370.3 101.59)"><tspan x="0 5.48 8.71 13.86 17.26 19.5" y="0">Memory</tspan></text></g></g><g style="clip-path:url(#h)"><g style="clip-path:url(#i)"><text style="font-size:6.41;font-family:Droid Sans" transform="matrix(1 0 0 -1 343.18 72.36)"><tspan x="0 2.7 6.11 8.82 11.87" y="0">Local</tspan></text></g></g><g style="clip-path:url(#j)"><g style="clip-path:url(#k)"><text style="font-size:6.41;font-family:Droid Sans" transform="matrix(1 0 0 -1 343.18 64.58)"><tspan x="0 3.94 5.41 7.89" y="0">Disk</tspan></text></g></g><g style="clip-path:url(#l)"><g style="clip-path:url(#m)"><text style="font-size:6.41;font-family:Droid Sans" transform="matrix(1 0 0 -1 376.92 81.41)"><tspan x="0 3.33 6.52 8.76 12.1 15.29" y="0">Kernel</tspan></text></g></g><path d="m414.5 84.67h31.32v-10.44h-31.32z" style="fill:none;stroke:#f90;stroke-width:.82;stroke-linecap:round;stroke-linejoin:round;stroke-miterlimit:10"/><g style="clip-path:url(#n)"><g style="clip-path:url(#o)"><text style="font-size:6.41;font-family:Droid Sans" transform="matrix(1 0 0 -1 420.41 77.23)"><tspan x="0 1.47 2.93 6.27" y="0">libs</tspan></text></g></g><g style="clip-path:url(#p)"><g style="clip-path:url(#q)"><text style="font-size:6.38;font-family:Droid Sans" transform="matrix(1 0 0 -1 410.66 97.75)"><tspan x="0 3.33 6.39 9.4 12.59 13.98 16.68 19.76 22.46 25.81" y="0">Page cache</tspan></text></g></g><g style="fill:none;stroke-width:.82;stroke-linecap:round;stroke-linejoin:round;stroke-miterlimit:10"><path d="m448.32 82.56h.41v-10.44h-31.32v.1" style="stroke:#f90"/><path d="m450.53 80.5h.43v-10.44h-31.32v.1" style="stroke:#f90"/><g style="stroke:#3165bb"><path d="m470.06 112.15h.65v-61.25h-135.33v.79"/><path d="m472.78 109.37h.62v-61.23h-135.34v.77"/></g></g><g style="clip-path:url(#r)"><g style="clip-path:url(#s)"><text style="font-size:6.41;font-family:Droid Sans" transform="matrix(1 0 0 -1 540.7 101.62)"><tspan x="0 1.46 2.93 6.28" y="0">libs</tspan></text></g></g><g style="clip-path:url(#t)"><g style="clip-path:url(#u)"><text style="font-size:6.41;font-family:Droid Sans" transform="matrix(1 0 0 -1 540.36 120.41)"><tspan x="0 2.92 6.11 8.34 11.69 14.88" y="0">kernel</tspan></text></g></g><g style="fill:none;stroke-width:.82;stroke-linecap:round;stroke-linejoin:round;stroke-miterlimit:10;stroke:#3165bb"><path d="m398.35 163.39h54.29v-30.26h-54.29z"/><path d="m453.98 160.54h1.2v-30.27h-54.28v.41"/><path d="m456.72 157.75h1.2v-30.26h-54.29v.43"/></g><text style="font-size:6;font-family:Droid Sans;letter-spacing:0;word-spacing:0" transform="scale(1 -1)" x="516.86" xml:space="preserve" y="-185.49"><tspan x="516.86" y="-185.49"><tspan style="font-size:6;font-family:Droid Sans" x="516.86" y="-185.49">DHCP server</tspan><tspan dx="0" x="550.59" y="-185.49"/></tspan><tspan x="516.86" y="-179.49"><tspan x="516.86" y="-179.49"/></tspan><tspan x="516.86" y="-173.49"><tspan style="font-size:6;font-family:Droid Sans" x="516.86" y="-173.49">(provides IP and boot </tspan></tspan><tspan x="516.86" y="-167.49"><tspan style="font-size:6;font-family:Droid Sans" x="516.86" y="-167.49">image location)</tspan></tspan></text><path d="m514.15-195.26h64.77v35.21h-64.77z" style="fill:none;stroke:#1e90ff;stroke-width:.88" transform="scale(1 -1)"/><path d="m512.05 174.33-57.03-59.1" style="fill:#ed1c24;fill-rule:evenodd;stroke:#f00;stroke-width:.8;marker-start:url(#a)"/><g style="clip-path:url(#v)"><g style="clip-path:url(#w)"><text style="font-size:6.41;font-family:Droid Sans" transform="matrix(1 0 0 -1 405 148.58)"><tspan x="0 2.94 6.27 9.61 11.75 15.12 18.49 23.11 26.45" y="0">Shutdown </tspan></text></g></g><g style="clip-path:url(#x)"><g style="clip-path:url(#y)"><text style="font-size:6.41;font-family:Droid Sans" transform="matrix(1 0 0 -1 405 140.78)"><tspan x="0 5.15 8.22 10.93 14.27 15.74 19.07 22.28" y="0">machines</tspan></text></g></g><path d="m421.9 201.11 15.76-37.74" style="fill:none;stroke:#ed1c24;stroke-width:.82;stroke-linecap:round;stroke-linejoin:round;stroke-miterlimit:10"/><path d="m438.66 168.78-1-5.41-4.7 2.87" style="fill:none;stroke:#ed1c24;stroke-width:.82;stroke-linecap:round;stroke-linejoin:round;stroke-miterlimit:10"/><g style="clip-path:url(#z)" transform="translate(-40.73 1.41)"><g style="clip-path:url(#A)"><text style="font-size:6.38;font-family:Droid Sans" transform="matrix(1 0 0 -1 451.97 200.76)"><tspan x="0 3.35 6.7 9.84 11.18 14.66 18.09 21.52" y="0">PXE Boot</tspan></text></g></g><path d="m401.11 86.86 133.63 35.97" style="fill:none;stroke:#ed1c24;stroke-width:.82;stroke-linecap:round;stroke-linejoin:round;stroke-miterlimit:10"/><path d="m445.82 79.56 87.89 24.67" style="fill:none;stroke:#f90;stroke-width:.82;stroke-linecap:round;stroke-linejoin:round;stroke-miterlimit:10"/><g style="clip-path:url(#B)"><g style="clip-path:url(#C)"><text style="font-size:6.41;font-family:Droid Sans" transform="matrix(1 0 0 -1 330.89 172.94)"><tspan x="0 3.63 5.11 7.32 9.46 12.83 15.9 17.35 18.83 21.34 24.41 26.55 28.03 31.44 34.78 36.17 38.88 40.35 43.68 46.18 48.35 51.56" y="0">Virtualization cluster</tspan></text></g></g><g style="clip-path:url(#D)"><g style="clip-path:url(#E)"><text style="font-size:6.38;font-family:Droid Sans" transform="matrix(1 0 0 -1 330.89 165.14)"><tspan x="0 1.93 5.15 8.43 11.71 15 16.32 21.47 24.53 27.25 30.6 32.05 35.4 38.59 41.11" y="0">(~200 machines)</tspan></text></g></g><text style="font-size:7;font-family:Droid Sans;letter-spacing:0;word-spacing:0" transform="scale(1 -1)" x="530.23" y="-135.44"><tspan x="530.23" y="-135.44"><tspan style="font-size:6;font-family:Droid Sans" x="530.23" y="-135.44">SAN TFTP server</tspan></tspan></text></g></svg>