<svg height="300" viewBox="0 0 369.33 180.56" width="1200" xmlns="http://www.w3.org/2000/svg" xmlns:xlink="http://www.w3.org/1999/xlink">
<clipPath id="a">
<path d="m528.48 768.7h54.41v8.45h-54.41z" style="clip-rule:evenodd"/>
</clipPath>
<clipPath id="b">
<path d="m528.48 768.72h54.41v8.42h-54.41z" style="clip-rule:evenodd"/>
</clipPath>
<clipPath id="c">
<path d="m526.39 684.02h63v8.45h-63z" style="clip-rule:evenodd"/>
</clipPath>
<clipPath id="d">
<path d="m526.39 684.02h63v8.45h-63z" style="clip-rule:evenodd"/>
</clipPath>
<clipPath id="e">
<path d="m348.19 762.46h49.34v8.45h-49.34z" style="clip-rule:evenodd"/>
</clipPath>
<clipPath id="f">
<path d="m348.19 762.46h49.34v8.45h-49.34z" style="clip-rule:evenodd"/>
</clipPath>
<clipPath id="g">
<path d="m353.04 731.45h41.95v8.45h-41.95z" style="clip-rule:evenodd"/>
</clipPath>
<clipPath id="h">
<path d="m353.04 731.45h41.95v8.45h-41.95z" style="clip-rule:evenodd"/>
</clipPath>
<clipPath id="i">
<path d="m350.42 747.53h43.22v8.42h-43.22z" style="clip-rule:evenodd"/>
</clipPath>
<clipPath id="j">
<path d="m350.42 747.53h43.22v8.42h-43.22z" style="clip-rule:evenodd"/>
</clipPath>
<clipPath id="k">
<path d="m348.6 698.23h49.34v8.45h-49.34z" style="clip-rule:evenodd"/>
</clipPath>
<clipPath id="l">
<path d="m348.6 698.23h49.34v8.45h-49.34z" style="clip-rule:evenodd"/>
</clipPath>
<clipPath id="m">
<path d="m353.47 667.2h41.93v8.45h-41.93z" style="clip-rule:evenodd"/>
</clipPath>
<clipPath id="n">
<path d="m353.47 667.2h41.93v8.45h-41.93z" style="clip-rule:evenodd"/>
</clipPath>
<clipPath id="o">
<path d="m350.86 683.28h43.2v8.45h-43.2z" style="clip-rule:evenodd"/>
</clipPath>
<clipPath id="p">
<path d="m350.86 683.28h43.2v8.45h-43.2z" style="clip-rule:evenodd"/>
</clipPath>
<clipPath id="q">
<path d="m537.43 755.62h43.15v8.45h-43.15z" style="clip-rule:evenodd"/>
</clipPath>
<clipPath id="r">
<path d="m537.43 755.64h43.13v8.42h-43.13z" style="clip-rule:evenodd"/>
</clipPath>
<clipPath id="s">
<path d="m438.26 761.93h60.17v8.45h-60.17z" style="clip-rule:evenodd"/>
</clipPath>
<clipPath id="t">
<path d="m438.26 761.93h60.17v8.45h-60.17z" style="clip-rule:evenodd"/>
</clipPath>
<clipPath id="u">
<path d="m440.14 741h43.13v8.45h-43.13z" style="clip-rule:evenodd"/>
</clipPath>
<clipPath id="v">
<path d="m440.14 741h43.13v8.45h-43.13z" style="clip-rule:evenodd"/>
</clipPath>
<clipPath id="w">
<path d="m438.26 700.66h68.78v8.42h-68.78z" style="clip-rule:evenodd"/>
</clipPath>
<clipPath id="x">
<path d="m438.26 700.66h68.78v8.42h-68.78z" style="clip-rule:evenodd"/>
</clipPath>
<clipPath id="y">
<path d="m440.14 679.73h43.13v8.42h-43.13z" style="clip-rule:evenodd"/>
</clipPath>
<clipPath id="z">
<path d="m440.14 679.73h43.13v8.42h-43.13z" style="clip-rule:evenodd"/>
</clipPath>
<clipPath id="A">
<path d="m533.21 670.39h43.13v8.45h-43.13z" style="clip-rule:evenodd"/>
</clipPath>
<clipPath id="B">
<path d="m533.21 670.39h43.13v8.45h-43.13z" style="clip-rule:evenodd"/>
</clipPath>
<clipPath id="C">
<path d="m536.57 736.9h43.13v8.45h-43.13z" style="clip-rule:evenodd"/>
</clipPath>
<clipPath id="D">
<path d="m536.57 736.9h43.13v8.45h-43.13z" style="clip-rule:evenodd"/>
</clipPath>
<clipPath id="E">
<path d="m439.39 727.56h43.13v8.45h-43.13z" style="clip-rule:evenodd"/>
</clipPath>
<clipPath id="F">
<path d="m439.39 727.56h43.13v8.45h-43.13z" style="clip-rule:evenodd"/>
</clipPath>
<clipPath id="G">
<path d="m440.52 665.52h43.13v8.45h-43.13z" style="clip-rule:evenodd"/>
</clipPath>
<clipPath id="H">
<path d="m440.52 665.52h43.13v8.45h-43.13z" style="clip-rule:evenodd"/>
</clipPath>
<clipPath id="I">
<path d="m462.19 643.1h132.53v8.42h-132.53z" style="clip-rule:evenodd"/>
</clipPath>
<clipPath id="J">
<path d="m462.19 643.1h132.53v8.42h-132.53z" style="clip-rule:evenodd"/>
</clipPath>
<clipPath id="K">
<path d="m462.19 634.73h76.39v8.45h-76.39z" style="clip-rule:evenodd"/>
</clipPath>
<clipPath id="L">
<path d="m462.19 634.73h76.39v8.45h-76.39z" style="clip-rule:evenodd"/>
</clipPath>
<clipPath id="M">
<path d="m0 6.36h370.85v7.03h-370.85z" style="clip-rule:evenodd"/>
</clipPath>
<clipPath id="N">
<path d="m0 6.43h370.85v6.96h-370.85z" style="clip-rule:evenodd"/>
</clipPath>
<g transform="matrix(1.25 0 0 -1.25 -402.06 976.27)">
<g style="fill:none;stroke-linecap:round;stroke-linejoin:round;stroke-miterlimit:10">
<path d="m438.12 773.06h55.32v-34.75h-55.32z" style="stroke:#ed1c24;stroke-width:.86"/>
<path d="m438.12 752.16h55.32v-13.49h-55.32z" style="stroke:#ed1c24;stroke-width:.86"/>
<g style="stroke-width:.89">
<path d="m349.46 741h43.01v-10.85h-43.01z" style="stroke:#f60"/>
<path d="m346.1 775.92h51.56v-49.3h-51.56z" style="stroke:#3165bb"/>
</g>
</g>
<g style="clip-path:url(#a)">
<g style="clip-path:url(#b)">
<text style="font-size:6.86;font-family:Droid Sans" transform="matrix(1 0 0 -1 533.11 770.64)">
<tspan x="0 3.73 6.93 9.55 12.91 16.49 18.07 21.26 23.95" y="0">BaseClass</tspan>
</text>
</g>
</g>
<g style="clip-path:url(#c)">
<g style="clip-path:url(#d)">
<text style="font-size:6.89;font-family:Droid Sans" transform="matrix(1 0 0 -1 531.02 685.97)">
<tspan x="0 4.17 7.54 9.91 11.47 14.6 17.96 21.54 25.11 26.67 29.89 32.5" y="0">DerivedClass</tspan>
</text>
</g>
</g>
<g style="fill:none;stroke-linecap:round;stroke-linejoin:round;stroke-miterlimit:10;stroke:#177d36;stroke-width:.86">
<path d="m526.15 695.11h65.4v-31.01h-65.4z"/>
<path d="m549.17 695.11.26 34.15"/>
<path d="m546.38 723.26 3.05 6 2.98-6.07"/>
</g>
<g style="clip-path:url(#e)">
<g style="clip-path:url(#f)">
<text style="font-size:6.86;font-family:Droid Sans" transform="matrix(1 0 0 -1 352.82 764.4)">
<tspan x="0 4.54 8.15 9.81 13.17 16.08 18.4" y="0">Object1</tspan>
</text>
</g>
</g>
<g style="clip-path:url(#g)">
<g style="clip-path:url(#h)">
<text style="font-size:6.89;font-family:Droid Sans" transform="matrix(1 0 0 -1 357.67 733.39)">
<tspan x="0 3.82 7.34 10.72" y="0">VPTR</tspan>
</text>
</g>
</g>
<path d="m349.94 757.58h40.35v-12.33h-40.35z" style="fill:none;stroke:#3165bb;stroke-width:.89;stroke-linecap:round;stroke-linejoin:round;stroke-miterlimit:10"/>
<g style="clip-path:url(#i)">
<g style="clip-path:url(#j)">
<text style="font-size:6.86;font-family:Droid Sans" transform="matrix(1 0 0 -1 355.06 749.47)">
<tspan x="0 2.04 3.62 7.01 8.59 12.19" y="0">field1</tspan>
</text>
</g>
</g>
<path d="m349.87 676.78h42.99v-10.85h-42.99z" style="fill:none;stroke:#f60;stroke-width:.89;stroke-linecap:round;stroke-linejoin:round;stroke-miterlimit:10"/>
<path d="m346.51 711.67h51.58v-49.29h-51.58z" style="fill:none;stroke:#3165bb;stroke-width:.89;stroke-linecap:round;stroke-linejoin:round;stroke-miterlimit:10"/>
<g style="clip-path:url(#k)">
<g style="clip-path:url(#l)">
<text style="font-size:6.89;font-family:Droid Sans" transform="matrix(1 0 0 -1 353.23 700.18)">
<tspan x="0 4.56 8.18 9.82 13.2 16.11 18.45" y="0">Object2</tspan>
</text>
</g>
</g>
<g style="clip-path:url(#m)">
<g style="clip-path:url(#n)">
<text style="font-size:6.86;font-family:Droid Sans" transform="matrix(1 0 0 -1 358.1 669.14)">
<tspan x="0 3.82 7.32 10.66" y="0">VPTR</tspan>
</text>
</g>
</g>
<path d="m350.35 693.36h40.37v-12.36h-40.37z" style="fill:none;stroke:#3165bb;stroke-width:.89;stroke-linecap:round;stroke-linejoin:round;stroke-miterlimit:10"/>
<g style="clip-path:url(#o)">
<g style="clip-path:url(#p)">
<text style="font-size:6.89;font-family:Droid Sans" transform="matrix(1 0 0 -1 355.49 685.22)">
<tspan x="0 2.02 3.57 6.94 8.49 12.07" y="0">field1</tspan>
</text>
</g>
</g>
<g style="fill:none;stroke-linecap:round;stroke-linejoin:round;stroke-miterlimit:10;stroke:#177d36;stroke-width:.86">
<path d="m527.28 780.58h65.4v-50.45h-65.4z"/>
<path d="m532.66 681.36h51.57v-13.66h-51.57z"/>
<path d="m534.29 766.13h51.57v-13.66h-51.57z"/>
</g>
<g style="clip-path:url(#q)">
<g style="clip-path:url(#r)">
<text style="font-size:6.86;font-family:Droid Sans" transform="matrix(1 0 0 -1 542.06 757.56)">
<tspan x="0 2.04 5.64 9.25 12.15" y="0">func1</tspan>
</text>
</g>
</g>
<g style="clip-path:url(#s)">
<g style="clip-path:url(#t)">
<text style="font-size:6.86;font-family:Droid Sans" transform="matrix(1 0 0 -1 442.9 763.87)">
<tspan x="0 3.82 6.14 9.36 12.96 14.54 17.9 19.62 23.36 26.58 29.2" y="0">Vtable Base</tspan>
</text>
</g>
</g>
<g style="clip-path:url(#u)">
<g style="clip-path:url(#v)">
<text style="font-size:6.86;font-family:Droid Sans" transform="matrix(1 0 0 -1 444.77 742.94)">
<tspan x="0 2.02 5.62 9.23 12.13" y="0">func1</tspan>
</text>
</g>
</g>
<path d="m438.12 711.77h55.32v-34.73h-55.32z" style="fill:none;stroke:#ed1c24;stroke-width:.86;stroke-linecap:round;stroke-linejoin:round;stroke-miterlimit:10"/>
<path d="m438.12 690.86h55.32v-13.46h-55.32z" style="fill:none;stroke:#ed1c24;stroke-width:.86;stroke-linecap:round;stroke-linejoin:round;stroke-miterlimit:10"/>
<g style="clip-path:url(#w)">
<g style="clip-path:url(#x)">
<text style="font-size:6.86;font-family:Droid Sans" transform="matrix(1 0 0 -1 442.9 702.6)">
<tspan x="0 3.82 6.14 9.36 12.96 14.54 17.9 19.62 23.82 27.19 29.58 31.16 34.31 37.67" y="0">Vtable Derived</tspan>
</text>
</g>
</g>
<g style="clip-path:url(#y)">
<g style="clip-path:url(#z)">
<text style="font-size:6.86;font-family:Droid Sans" transform="matrix(1 0 0 -1 444.77 681.67)">
<tspan x="0 2.02 5.62 9.23 12.13" y="0">func1</tspan>
</text>
</g>
</g>
<g style="fill:none;stroke:#ed1c24;stroke-linecap:round;stroke-linejoin:round;stroke-miterlimit:10">
<path d="m392.47 738.24 45.65 22.44" style="stroke-width:.89"/>
<path d="m431.4 760.7 6.72-.02-4.08-5.38" style="stroke-width:.89"/>
<path d="m493.44 740.18 40.85 19.16" style="stroke-width:.86"/>
<path d="m527.57 759.48 6.72-.14-4.18-5.33" style="stroke-width:.86"/>
<path d="m392.86 671.35 45.19 30.27" style="stroke-width:.89"/>
<path d="m431.38 700.75 6.67.87-3.34-5.86" style="stroke-width:.89"/>
<g style="stroke-width:.86">
<path d="m493.44 684.14 38.06-12.43"/>
<path d="m526.73 676.46 4.77-4.75-6.67-.98"/>
</g>
</g>
<g style="clip-path:url(#A)">
<g style="clip-path:url(#B)">
<text style="font-size:6.89;font-family:Droid Sans" transform="matrix(1 0 0 -1 537.84 672.34)">
<tspan x="0 2.02 5.59 9.17 12.08" y="0">func1</tspan>
</text>
</g>
</g>
<path d="m534.53 747.77h51.57v-13.66h-51.57z" style="fill:none;stroke:#177d36;stroke-width:.86;stroke-linecap:round;stroke-linejoin:round;stroke-miterlimit:10"/>
<g style="clip-path:url(#C)">
<g style="clip-path:url(#D)">
<text style="font-size:6.89;font-family:Droid Sans" transform="matrix(1 0 0 -1 541.2 738.84)">
<tspan x="0 2.02 5.63 9.22 12.13" y="0">func2</tspan>
</text>
</g>
</g>
<path d="m437.98 738.5h55.32v-13.46h-55.32z" style="fill:none;stroke:#ed1c24;stroke-width:.86;stroke-linecap:round;stroke-linejoin:round;stroke-miterlimit:10"/>
<path d="m437.98 677.21h55.32v-13.47h-55.32z" style="fill:none;stroke:#ed1c24;stroke-width:.86;stroke-linecap:round;stroke-linejoin:round;stroke-miterlimit:10"/>
<g style="clip-path:url(#E)">
<g style="clip-path:url(#F)">
<text style="font-size:6.89;font-family:Droid Sans" transform="matrix(1 0 0 -1 444.02 729.5)">
<tspan x="0 2.02 5.59 9.17 12.08" y="0">func2</tspan>
</text>
</g>
</g>
<g style="clip-path:url(#G)">
<g style="clip-path:url(#H)">
<text style="font-size:6.89;font-family:Droid Sans" transform="matrix(1 0 0 -1 445.15 667.46)">
<tspan x="0 2.02 5.59 9.17 12.08" y="0">func2</tspan>
</text>
</g>
</g>
<g style="fill:none;stroke-linecap:round;stroke-linejoin:round;stroke-miterlimit:10">
<g style="stroke:#ed1c24;stroke-width:.86">
<path d="m493.3 731.78 41.2 7.56"/>
<path d="m528 741.24 6.5-1.9-5.42-4.05"/>
<path d="m493.39 669.46 41.14 64.65"/>
<path d="m528.77 730.63 5.76 3.48-.7-6.72"/>
</g>
<g style="stroke:#595959;stroke-width:.89">
<path d="m467.21 643.3h-20.57v20.56"/>
<path d="m443.64 657.84 3 6.02 3-6.02"/>
</g>
</g>
<g style="clip-path:url(#I)">
<g style="clip-path:url(#J)">
<text style="font-size:6.86;font-family:Droid Sans" transform="matrix(1 0 0 -1 466.82 645.05)">
<tspan x="0 3.34 6.95 10.3 11.85 14.99 17.29 20.51 24.09 25.66 29.01 30.63 34 37.57 39.87 42.27 43.85 47.2 49.81 51.44 55.01 58.59 60.17 63.73 66.02 67.58 69.88 73.47 75.02 77.32 80.93 84.27 85.82 91.34 94.92 97.53 99.83 101.38 104.98 108.33 110.72 112.3 115.43 118.79" y="0">The vtable entries point to the most derived</tspan>
</text>
</g>
</g>
<g style="clip-path:url(#K)">
<g style="clip-path:url(#L)">
<text style="font-size:6.89;font-family:Droid Sans" transform="matrix(1 0 0 -1 466.82 636.67)">
<tspan x="0 5.89 9.26 14.77 18.36 21.72 24.13 25.69 27.7 31.28 34.85 37.77 40.07 41.62 45.2" y="0">Member function</tspan>
</text>
</g>
</g>
<g style="clip-path:url(#M)">
<g style="clip-path:url(#N)">
<text style="font-size:6.22;font-family:Droid Sans" transform="matrix(1 0 0 -1 162.74 7.92)">
<tspan x="0 3.74 5.76 8.52 10.17 13.31 14.96 18.1 21.24 23.66 25.44 28.94 31.7 34.83 37.59 39.08 42.22" y="0">Trainings Page 40</tspan>
</text>
</g>
</g>
</g>
</svg>