<svg height="745.16" width="1688.73" viewBox="0 0 1688.73 745.16" xml:space="preserve" xmlns="http://www.w3.org/2000/svg" xmlns:xlink="http://www.w3.org/1999/xlink"><marker id="a" orient="auto" refX="0" refY="0" style="overflow:visible"><path d="m2.31 0-3.46 2v-4z" style="fill:#7cfc00;fill-rule:evenodd;stroke:#7cfc00;stroke-width:.4pt"/></marker><marker id="b" orient="auto" refX="0" refY="0" style="overflow:visible"><path d="m2.31 0-3.46 2v-4z" style="fill:#ed1c24;fill-rule:evenodd;stroke:#ed1c24;stroke-width:.4pt"/></marker><marker id="c" orient="auto" refX="0" refY="0" style="overflow:visible"><path d="m5.77 0-8.65 5v-10z" style="fill:#008000;fill-rule:evenodd;stroke:#008000;stroke-width:1pt" transform="scale(-.4)"/></marker><marker id="d" orient="auto" refX="0" refY="0" style="overflow:visible"><path d="m5.77 0-8.65 5v-10z" style="fill:#7fff00;fill-rule:evenodd;stroke:#7fff00;stroke-width:1pt" transform="scale(-.4)"/></marker><marker id="e" orient="auto" refX="0" refY="0" style="overflow:visible"><path d="m5.77 0-8.65 5v-10z" style="fill:#7cfc00;fill-rule:evenodd;stroke:#7cfc00;stroke-width:1pt" transform="scale(-.4)"/></marker><marker id="f" orient="auto" refX="0" refY="0" style="overflow:visible"><path d="m2.31 0-3.46 2v-4z" style="fill:#f00;fill-rule:evenodd;stroke:#f00;stroke-width:.4pt"/></marker><marker id="g" orient="auto" refX="0" refY="0" style="overflow:visible"><path d="m2.31 0-3.46 2v-4z" style="fill:#f00;fill-rule:evenodd;stroke:#f00;stroke-width:.4pt"/></marker><marker id="h" orient="auto" refX="0" refY="0" style="overflow:visible"><path d="m2.31 0-3.46 2v-4z" style="fill:#7cfc00;fill-rule:evenodd;stroke:#7cfc00;stroke-width:.4pt"/></marker><marker id="i" orient="auto" refX="0" refY="0" style="overflow:visible"><path d="m2.31 0-3.46 2v-4z" style="fill:#7cfc00;fill-rule:evenodd;stroke:#7cfc00;stroke-width:.4pt"/></marker><marker id="j" orient="auto" refX="0" refY="0" style="overflow:visible"><path d="m2.31 0-3.46 2v-4z" style="fill:#7cfc00;fill-rule:evenodd;stroke:#7cfc00;stroke-width:.4pt"/></marker><marker id="k" orient="auto" refX="0" refY="0" style="overflow:visible"><path d="m2.31 0-3.46 2v-4z" style="fill:#7cfc00;fill-rule:evenodd;stroke:#7cfc00;stroke-width:.4pt"/></marker><marker id="l" orient="auto" refX="0" refY="0" style="overflow:visible"><path d="m2.31 0-3.46 2v-4z" style="fill:#7cfc00;fill-rule:evenodd;stroke:#7cfc00;stroke-width:.4pt"/></marker><marker id="m" orient="auto" refX="0" refY="0" style="overflow:visible"><path d="m2.31 0-3.46 2v-4z" style="fill:#7cfc00;fill-rule:evenodd;stroke:#7cfc00;stroke-width:.4pt"/></marker><marker id="n" orient="auto" refX="0" refY="0" style="overflow:visible"><path d="m2.31 0-3.46 2v-4z" style="fill:#f00;fill-rule:evenodd;stroke:#f00;stroke-width:.4pt"/></marker><marker id="o" orient="auto" refX="0" refY="0" style="overflow:visible"><path d="m2.31 0-3.46 2v-4z" style="fill:#7cfc00;fill-rule:evenodd;stroke:#7cfc00;stroke-width:.4pt"/></marker><marker id="p" orient="auto" refX="0" refY="0" style="overflow:visible"><path d="m2.31 0-3.46 2v-4z" style="fill:#f00;fill-rule:evenodd;stroke:#f00;stroke-width:.4pt"/></marker><marker id="q" orient="auto" refX="0" refY="0" style="overflow:visible"><path d="m2.31 0-3.46 2v-4z" style="fill:#ff1493;fill-rule:evenodd;stroke:#ff1493;stroke-width:.4pt"/></marker><marker id="r" orient="auto" refX="0" refY="0" style="overflow:visible"><path d="m2.31 0-3.46 2v-4z" style="fill:#ff1493;fill-rule:evenodd;stroke:#ff1493;stroke-width:.4pt"/></marker><marker id="s" orient="auto" refX="0" refY="0" style="overflow:visible"><path d="m2.31 0-3.46 2v-4z" style="fill:#f00;fill-rule:evenodd;stroke:#f00;stroke-width:.4pt"/></marker><marker id="t" orient="auto" refX="0" refY="0" style="overflow:visible"><path d="m2.31 0-3.46 2v-4z" style="fill:#ff8c00;fill-rule:evenodd;stroke:#ff8c00;stroke-width:.4pt"/></marker><marker id="u" orient="auto" refX="0" refY="0" style="overflow:visible"><path d="m2.31 0-3.46 2v-4z" style="fill:#ff8c00;fill-rule:evenodd;stroke:#ff8c00;stroke-width:.4pt"/></marker><marker id="v" orient="auto" refX="0" refY="0" style="overflow:visible"><path d="m2.31 0-3.46 2v-4z" style="fill:#ff8c00;fill-rule:evenodd;stroke:#ff8c00;stroke-width:.4pt"/></marker><marker id="w" orient="auto" refX="0" refY="0" style="overflow:visible"><path d="m2.31 0-3.46 2v-4z" style="fill:#f00;fill-rule:evenodd;stroke:#f00;stroke-width:.4pt"/></marker><marker id="x" orient="auto" refX="0" refY="0" style="overflow:visible"><path d="m2.31 0-3.46 2v-4z" style="fill:#f00;fill-rule:evenodd;stroke:#f00;stroke-width:.4pt"/></marker><marker id="y" orient="auto" refX="0" refY="0" style="overflow:visible"><path d="m2.31 0-3.46 2v-4z" style="fill:#00f;fill-rule:evenodd;stroke:#00f;stroke-width:.4pt"/></marker><marker id="z" orient="auto" refX="0" refY="0" style="overflow:visible"><path d="m2.31 0-3.46 2v-4z" style="fill:#f00;fill-rule:evenodd;stroke:#f00;stroke-width:.4pt"/></marker><marker id="A" orient="auto" refX="0" refY="0" style="overflow:visible"><path d="m2.31 0-3.46 2v-4z" style="fill:#f00;fill-rule:evenodd;stroke:#f00;stroke-width:.4pt"/></marker><marker id="B" orient="auto" refX="0" refY="0" style="overflow:visible"><path d="m2.31 0-3.46 2v-4z" style="fill:#f00;fill-rule:evenodd;stroke:#f00;stroke-width:.4pt"/></marker><marker id="C" orient="auto" refX="0" refY="0" style="overflow:visible"><path d="m2.31 0-3.46 2v-4z" style="fill:#ff8c00;fill-rule:evenodd;stroke:#ff8c00;stroke-width:.4pt"/></marker><marker id="D" orient="auto" refX="0" refY="0" style="overflow:visible"><path d="m2.31 0-3.46 2v-4z" style="fill:#ff8c00;fill-rule:evenodd;stroke:#ff8c00;stroke-width:.4pt"/></marker><marker id="E" orient="auto" refX="0" refY="0" style="overflow:visible"><path d="m2.31 0-3.46 2v-4z" style="fill:#f00;fill-rule:evenodd;stroke:#f00;stroke-width:.4pt"/></marker><marker id="F" orient="auto" refX="0" refY="0" style="overflow:visible"><path d="m2.31 0-3.46 2v-4z" style="fill:#f00;fill-rule:evenodd;stroke:#f00;stroke-width:.4pt"/></marker><marker id="G" orient="auto" refX="0" refY="0" style="overflow:visible"><path d="m2.31 0-3.46 2v-4z" style="fill:#ff8c00;fill-rule:evenodd;stroke:#ff8c00;stroke-width:.4pt"/></marker><marker id="H" orient="auto" refX="0" refY="0" style="overflow:visible"><path d="m2.31 0-3.46 2v-4z" style="fill:#008000;fill-rule:evenodd;stroke:#008000;stroke-width:.4pt"/></marker><marker id="I" orient="auto" refX="0" refY="0" style="overflow:visible"><path d="m2.31 0-3.46 2v-4z" style="fill:#ff8c00;fill-rule:evenodd;stroke:#ff8c00;stroke-width:.4pt"/></marker><marker id="J" orient="auto" refX="0" refY="0" style="overflow:visible"><path d="m2.31 0-3.46 2v-4z" style="fill:#ff8c00;fill-rule:evenodd;stroke:#ff8c00;stroke-width:.4pt"/></marker><marker id="K" orient="auto" refX="0" refY="0" style="overflow:visible"><path d="m2.31 0-3.46 2v-4z" style="fill:#ff8c00;fill-rule:evenodd;stroke:#ff8c00;stroke-width:.4pt"/></marker><marker id="L" orient="auto" refX="0" refY="0" style="overflow:visible"><path d="m2.31 0-3.46 2v-4z" style="fill:#ff8c00;fill-rule:evenodd;stroke:#ff8c00;stroke-width:.4pt"/></marker><marker id="M" orient="auto" refX="0" refY="0" style="overflow:visible"><path d="m2.31 0-3.46 2v-4z" style="fill:#ff8c00;fill-rule:evenodd;stroke:#ff8c00;stroke-width:.4pt"/></marker><marker id="N" orient="auto" refX="0" refY="0" style="overflow:visible"><path d="m2.31 0-3.46 2v-4z" style="fill:#f00;fill-rule:evenodd;stroke:#f00;stroke-width:.4pt"/></marker><marker id="O" orient="auto" refX="0" refY="0" style="overflow:visible"><path d="m2.31 0-3.46 2v-4z" style="fill:#ff8c00;fill-rule:evenodd;stroke:#ff8c00;stroke-width:.4pt"/></marker><marker id="P" orient="auto" refX="0" refY="0" style="overflow:visible"><path d="m2.31 0-3.46 2v-4z" style="fill:#ff8c00;fill-rule:evenodd;stroke:#ff8c00;stroke-width:.4pt"/></marker><g transform="matrix(1.25 0 0 -1.25 -12 1224.1)"><path d="m229.34 898.13h184.08v-41.22h-184.08z" style="fill:none;stroke:#3165bb;stroke-width:.72;stroke-linecap:round;stroke-linejoin:round;stroke-miterlimit:10"/><g style="font-size:2.8;font-family:Droid Sans"><text style="font-weight:bold;fill:#0" transform="matrix(2.71 0 0 -2.72 234.12 886.95)"><tspan x="0" y="0">ADL </tspan></text><text style="font-weight:bold;fill:#f00" transform="matrix(2.71 0 0 -2.72 248.29 886.95)"><tspan x="0" y="0">(function only)</tspan></text><g style="fill:#0"><text transform="matrix(2.71 0 0 -2.72 234.85 877.81)"><tspan x="0" y="0">Argument dependent look-up</tspan></text><text transform="matrix(2.71 0 0 -2.72 235.82 868.67)"><tspan x="0" y="0">-</tspan></text><text transform="matrix(2.71 0 0 -2.72 239.78 868.67)"><tspan x="0" y="0">Adds all symbols from the arguments namespaces</tspan></text><text transform="matrix(2.71 0 0 -2.72 235.82 859.53)"><tspan x="0" y="0">-</tspan></text><text transform="matrix(2.71 0 0 -2.72 239.78 859.53)"><tspan x="0" y="0">Friend functions of argument classes</tspan></text></g><g transform="translate(-1.03 -37.44)"><g style="fill:#0"><text style="font-weight:bold" transform="matrix(2.71 0 0 -2.72 22.05 901.04)"><tspan x="0" y="0">Unqualified lookup (there is no ::)</tspan></text><text transform="matrix(2.71 0 0 -2.72 23.76 891.9)"><tspan x="0" y="0">-</tspan></text><text transform="matrix(2.71 0 0 -2.72 27.72 891.9)"><tspan x="0" y="0">Start looking in the inner most block/class/namespace</tspan></text><text transform="matrix(2.71 0 0 -2.72 40.34 873.7)"><tspan x="0" y="0">namespaces</tspan></text><text transform="matrix(2.71 0 0 -2.72 23.76 882.76)"><tspan x="0" y="0">-</tspan></text><text transform="matrix(2.71 0 0 -2.72 27.72 882.76)"><tspan x="0" y="0">Lookup in the base classes but NOT in their enclosing</tspan></text><text transform="matrix(2.71 0 0 -2.72 40.34 855.42)"><tspan x="0" y="0">declaration is found</tspan></text><text transform="matrix(2.71 0 0 -2.72 23.76 864.56)"><tspan x="0" y="0">-</tspan></text></g><text style="fill:#f00" transform="matrix(2.71 0 0 -2.72 27.72 864.56)"><tspan x="0" y="0">STOPS</tspan></text><text style="fill:#0" transform="matrix(2.71 0 0 -2.72 50.99 864.56)"><tspan x="0" y="0">looking at other scopes as soon as a matching</tspan></text></g></g><path d="m16.37 874.73h197.7v-61.65h-197.7z" style="fill:none;stroke:#3165bb;stroke-width:.72;stroke-linecap:round;stroke-linejoin:round;stroke-miterlimit:10"/><text style="font-weight:bold;font-size:2.8;font-family:Droid Sans;fill:#0" transform="matrix(2.71 0 0 -2.72 13.25 967.23)"><tspan x="0" y="0">Name lookup</tspan></text><g transform="matrix(2.71 0 0 2.72 -59.92 -1164.76)"><g style="font-size:2.8;font-family:Droid Sans;fill:#0"><text transform="matrix(1 0 0 -1 27.62 780.46)"><tspan x="0" y="0">-</tspan></text><text transform="matrix(1 0 0 -1 29.11 780.46)"><tspan x="0" y="0">Associate to a name all the matching </tspan></text><text transform="matrix(1 0 0 -1 76.05 780.46)"><tspan x="0" y="0">declarations</tspan></text></g><path d="m76.46 779.98h14.9v.17h-14.9z" style="fill-rule:evenodd"/></g><g style="font-size:2.8;font-family:Droid Sans;fill:#0"><text style="font-weight:bold" transform="matrix(2.71 0 0 -2.72 215.85 728.89)"><tspan x="0" y="0">Template dependent lookup</tspan></text><text transform="matrix(2.71 0 0 -2.72 234.2 710.61)"><tspan x="0" y="0">Names as symbols unless prefixed with</tspan></text><text transform="matrix(2.71 0 0 -2.72 234.2 701.47)"><tspan x="0" y="0">"typename"</tspan></text><text transform="matrix(2.71 0 0 -2.72 217.62 719.75)"><tspan x="0" y="0">-</tspan></text><text transform="matrix(2.71 0 0 -2.72 221.57 719.75)"><tspan x="0" y="0">First lookup pass will consider ALL dependent</tspan></text><text style="font-weight:bold" transform="matrix(2.71 0 0 -2.72 234.5 822.83)"><tspan x="0" y="0">Qualified lookup (name is preceded by ::)</tspan></text><text transform="matrix(2.71 0 0 -2.72 252.85 804.6)"><tspan x="0" y="0">Symbols introduced in the global namespace </tspan></text><text transform="matrix(2.71 0 0 -2.72 252.85 795.46)"><tspan x="0" y="0">by using directives</tspan></text><text transform="matrix(2.71 0 0 -2.72 236.18 813.74)"><tspan x="0" y="0">-</tspan></text><text transform="matrix(2.71 0 0 -2.72 240.22 813.74)"><tspan x="0" y="0">::name will only look in global namespace and </tspan></text></g><g style="fill:none;stroke-linecap:round;stroke-miterlimit:10"><path d="m230.76 835.62h179.31v-47.75h-179.31z" style="stroke:#3165bb;stroke-width:.72;stroke-linejoin:round"/><path d="m211.8 740.03h168.62v-44.08h-168.62z" style="stroke:#3165bb;stroke-width:.88"/><g style="stroke:#4bacc6"><path d="m10.05 977.13h407.01v-213h-407.01v213" style="stroke-width:.88"/><g style="stroke-width:.72;stroke-linejoin:round"><path d="m211.8 717.96-20.64 45.11"/><path d="m190.97 755.7.2 7.37 5.73-4.63"/></g></g></g><g style="font-size:2.8;font-family:Droid Sans"><text style="font-weight:bold;fill:#0" transform="matrix(2.71 0 0 -2.72 459.09 824.31)"><tspan x="0" y="0">Template argument deduction </tspan></text><text style="font-weight:bold;fill:#f00" transform="matrix(2.71 0 0 -2.72 571.88 824.31)"><tspan x="0" y="0">(function only)</tspan></text><g style="fill:#0"><text transform="matrix(2.71 0 0 -2.72 477.35 806.03)"><tspan x="0" y="0">types at the call site</tspan></text><text transform="matrix(2.71 0 0 -2.72 460.77 815.17)"><tspan x="0" y="0">-</tspan></text><text transform="matrix(2.71 0 0 -2.72 464.75 815.17)"><tspan x="0" y="0">Deduce function template arguments from argument</tspan></text><text transform="matrix(2.71 0 0 -2.72 460.77 796.89)"><tspan x="0" y="0">-</tspan></text><text transform="matrix(2.71 0 0 -2.72 464.75 796.89)"><tspan x="0" y="0">Return type is NOT used</tspan></text><text transform="matrix(2.71 0 0 -2.72 460.77 787.75)"><tspan x="0" y="0">-</tspan></text><text transform="matrix(2.71 0 0 -2.72 464.75 787.75)"><tspan x="0" y="0">Dependent names do not participate in deduction</tspan></text><text style="font-weight:bold" transform="matrix(2.71 0 0 -2.72 680.86 958.89)"><tspan x="0" y="0">Partial specialization </tspan></text></g><text style="font-weight:bold;fill:#00f" transform="matrix(2.71 0 0 -2.72 759.74 958.89)"><tspan x="0" y="0">(class only)</tspan></text><g style="fill:#0"><text transform="matrix(2.71 0 0 -2.72 699.12 940.61)"><tspan x="0" y="0">primary emplate</tspan></text><text transform="matrix(2.71 0 0 -2.72 682.54 949.75)"><tspan x="0" y="0">-</tspan></text><text transform="matrix(2.71 0 0 -2.72 686.57 949.75)"><tspan x="0" y="0">Must be declared in the SAME namespace as the</tspan></text><text transform="matrix(2.71 0 0 -2.72 699.12 922.33)"><tspan x="0" y="0">Only if the primary template is visible they will be</tspan></text><text transform="matrix(2.71 0 0 -2.72 699.12 913.19)"><tspan x="0" y="0">Considered</tspan></text><text transform="matrix(2.71 0 0 -2.72 682.54 931.47)"><tspan x="0" y="0">-</tspan></text><text transform="matrix(2.71 0 0 -2.72 686.57 931.47)"><tspan x="0" y="0">Partial specializations are NOT considered for name lookup</tspan></text><text transform="matrix(2.71 0 0 -2.72 699.12 894.97)"><tspan x="0" y="0">The number of items in specialization argument list</tspan></text><text transform="matrix(2.71 0 0 -2.72 682.54 904.11)"><tspan x="0" y="0">-</tspan></text><text transform="matrix(2.71 0 0 -2.72 686.57 904.11)"><tspan x="0" y="0">Number of parameters in primary template MUST match</tspan></text><text transform="matrix(2.71 0 0 -2.72 460.7 932.99)"><tspan x="0" y="0">-</tspan></text><text transform="matrix(2.71 0 0 -2.72 464.74 932.99)"><tspan x="0" y="0">Called explicit specialization by the standard</tspan></text><text transform="matrix(2.71 0 0 -2.72 477.29 914.79)"><tspan x="0" y="0">primary template</tspan></text><text transform="matrix(2.71 0 0 -2.72 460.7 923.85)"><tspan x="0" y="0">-</tspan></text><text transform="matrix(2.71 0 0 -2.72 464.74 923.85)"><tspan x="0" y="0">Must be declared in the SAME namespace as the </tspan></text><text transform="matrix(2.71 0 0 -2.72 477.29 896.51)"><tspan x="0" y="0">of the template</tspan></text><text transform="matrix(2.71 0 0 -2.72 460.7 905.65)"><tspan x="0" y="0">-</tspan></text><text transform="matrix(2.71 0 0 -2.72 464.74 905.65)"><tspan x="0" y="0">Must be declared before any implicit instantiation </tspan></text><text style="font-weight:bold" transform="matrix(2.71 0 0 -2.72 1148.43 873.16)"><tspan x="0" y="0">Template argument substitution</tspan></text><text transform="matrix(2.71 0 0 -2.72 1150.11 864.02)"><tspan x="0" y="0">-</tspan></text><text transform="matrix(2.71 0 0 -2.72 1154.07 864.02)"><tspan x="0" y="0">SFINAE : stop if deduced arguments produce an</tspan></text><text transform="matrix(2.71 0 0 -2.72 1153.9 837.48)"><tspan x="0" y="0">Template argument is not valid</tspan></text><text transform="matrix(2.71 0 0 -2.72 1150.11 845.82)"><tspan x="0" y="0">-</tspan></text><text transform="matrix(2.71 0 0 -2.72 1154.07 845.82)"><tspan x="0" y="0">SFINAE : removes a class partial specialization if its</tspan></text><text style="font-weight:bold" transform="matrix(2.71 0 0 -2.72 937.27 946.6)"><tspan x="0" y="0">Partial ordering </tspan></text></g><text style="font-weight:bold;fill:#00f" transform="matrix(2.71 0 0 -2.72 998.65 946.6)"><tspan x="0" y="0">(class only)</tspan></text><g style="fill:#0"><text transform="matrix(2.71 0 0 -2.72 955.56 928.4)"><tspan x="0" y="0">Unless the highest ranking specialization is unique</tspan></text><text transform="matrix(2.71 0 0 -2.72 938.98 937.46)"><tspan x="0" y="0">-</tspan></text><text transform="matrix(2.71 0 0 -2.72 942.93 937.46)"><tspan x="0" y="0">Ranks all matching specializations, the type is ambiguous</tspan></text><text transform="matrix(2.71 0 0 -2.72 955.56 910.12)"><tspan x="0" y="0">Template arguments and attempts overload resolution</tspan></text><text transform="matrix(2.71 0 0 -2.72 938.98 919.26)"><tspan x="0" y="0">-</tspan></text><text transform="matrix(2.71 0 0 -2.72 942.93 919.26)"><tspan x="0" y="0">Builds dummy function templates from specialization</tspan></text><text style="font-weight:bold" transform="matrix(2.71 0 0 -2.72 459.09 750.87)"><tspan x="0" y="0">Function template explicit template arguments</tspan></text><text transform="matrix(2.71 0 0 -2.72 477.35 732.59)"><tspan x="0" y="0">does not apply or is ambiguous</tspan></text><text transform="matrix(2.71 0 0 -2.72 460.77 741.73)"><tspan x="0" y="0">-</tspan></text><text transform="matrix(2.71 0 0 -2.72 464.75 741.73)"><tspan x="0" y="0">Needed in case template argument deduction</tspan></text></g></g><g style="fill:#0;font-size:2.5;font-family:DejaVu Sans Mono"><text transform="matrix(2.71 0 0 -2.72 655.02 866.72)"><tspan x="0" y="0">template&lt;class A, class B, class C&gt;</tspan></text><text transform="matrix(2.71 0 0 -2.72 655.02 859.02)"><tspan x="0" y="0">struct Klass;</tspan></text><text transform="matrix(2.71 0 0 -2.72 655.02 843.6)"><tspan x="0" y="0">template&lt;class A&gt;</tspan></text><text transform="matrix(2.71 0 0 -2.72 655.02 835.9)"><tspan x="0" y="0">struct Klass&lt;A, A*, int&gt; {};</tspan></text></g><g style="fill:none;stroke-linecap:round;stroke-miterlimit:10"><g style="stroke:#008000;stroke-width:.72;stroke-linejoin:round"><path d="m454.42 951.87h187.05v-59.15h-187.05z"/><path d="m679.4 969.82h211.02v-79.99h-211.02z"/><path d="m455.38 834.42h193.02v-53.08h-193.02z"/><path d="m454.51 761.34h183.87v-34.28h-183.87z"/><path d="m933 955.6h215.58v-50.23h-215.58z"/><path d="m1146.19 883.63h184.02v-51.34h-184.02z"/></g><g style="stroke:#9c0"><path d="m444.24 978.83h892.33v-273.97h-892.33z" style="stroke-width:.88"/><g style="stroke-width:.72;stroke-linejoin:round"><path d="m417.11 855.61 27.19.41"/><path d="m437.74 859.2 6.56-3.18-6.51-3.4"/><path d="m506.97 781.34-9.38-20"/><path d="m503.39 765.86-5.8-4.52-.14 7.32"/><path d="m501.25 776.77 5.72 4.57.19-7.32"/><path d="m891.57 940.03 41.48-9.58"/><path d="m927.2 934.89 5.8-4.43-7.02-2.04"/><path d="m1119.08 905.37 26.75-29.77"/><path d="m1143.48 882.38 2.79-6.77-7.16 1.82"/></g></g><path d="m1064.65 862.61 39.07 42.01" style="stroke:#ed1c24;stroke-width:.8;marker-end:url(#b)"/></g><text style="font-weight:bold;font-size:2.8;font-family:Droid Sans;fill:#0" transform="matrix(2.71 0 0 -2.72 108.78 572.33)"><tspan x="0" y="0">Overload resolution </tspan></text><text style="font-weight:bold;font-size:2.8;font-family:Droid Sans;fill:#f00" transform="matrix(2.71 0 0 -2.72 183.31 572.33)"><tspan x="0" y="0">(function only)</tspan></text><path d="m104.01 665.61h435.6v-70.69h-435.6z" style="fill:none;stroke:#ff1493;stroke-width:.88;stroke-linecap:round;stroke-miterlimit:10"/><text style="font-size:2.8;font-family:Droid Sans;fill:#0" transform="matrix(2.71 0 0 -2.72 490.03 868.46)"><tspan x="0" y="0">Do not consider primary or partial</tspan></text><text style="font-size:2.8;font-family:Droid Sans;fill:#0" transform="matrix(2.71 0 0 -2.72 490.03 859.32)"><tspan x="0" y="0">Specializations if matching candidate</tspan></text><g style="fill:none;stroke-linecap:round;stroke-miterlimit:10"><g style="stroke:#9c0;stroke-width:.72;stroke-linejoin:round"><path d="m444.24 726.18-63.09-8.22"/><path d="m387.33 715.25-6.91 2.34 6.05 4.19"/><path d="m1230.9 883.68v56.35h-81.49"/><path d="m1154.87 936.77-6.56 3.26 6.56 3.35"/></g><path d="m104.75 585.13h1197.47v-201.55h-1197.47z" style="stroke:#ffa500;stroke-width:.88"/></g><text style="fill:#0" transform="scale(1 -1)" x="590.35" y="-700.99"><tspan x="590.35" y="-700.99"/></text><path d="m1336.47 879h23.72v-200.97h-1284.45v-34.95h26.21" style="fill:none;stroke:#ff1493;stroke-width:.8;marker-end:url(#g)"/><path d="m1336.66 877.9h20.41v-200.97h-1284.45v-142.63h31.51" style="fill:none;stroke:#ffa500;stroke-width:.8;marker-end:url(#h)"/><text style="font-size:8;font-family:Droid Sans;letter-spacing:-.40000004;word-spacing:0;fill:#0" transform="scale(1 -1)" x="459.52" xml:space="preserve" y="-943.43"><tspan style="font-weight:bold;font-size:8;font-family:Droid Sans" x="459.52" y="-943.43">Full specialization <tspan style="fill:#00f">(class only)</tspan></tspan></text><text style="font-size:8;font-family:Droid Sans;letter-spacing:-.40000004;word-spacing:0;fill:#0" transform="scale(1 -1)" x="448.28" y="-970.61"><tspan style="font-weight:bold;font-size:8;font-family:Droid Sans" x="448.28" y="-970.61">Choose relevant templates (primary, full/partial specialized)</tspan><tspan style="font-weight:bold;font-size:8;font-family:Droid Sans;fill:#f00" x="448.28" y="-962.61">Multiples results for function templates</tspan></text><g style="fill:none;stroke-width:.8"><path d="m543.26 874.2 25.36 17.18" style="stroke:#f00;marker-end:url(#f)"/><path d="m1047.08 783.76h123.19v49.08" style="stroke:#7fff00;marker-start:url(#d)"/><path d="m1161.16 831.15v-36.16h-116.96" style="stroke:#7cfc00;marker-start:url(#e)"/><path d="m640.55 926.25h36.73" style="stroke:#7cfc00;marker-end:url(#a)"/><path d="m602.86-439.05h106.81v45.64h-106.81z" style="stroke:#ff8c00" transform="matrix(1 0 0 -1 58.46 9.23)"/></g><text style="font-size:8;font-family:Droid Sans;letter-spacing:-.40000004;word-spacing:0;fill:#0" transform="matrix(1 0 0 -1 58.46 9.23)" x="606.45" xml:space="preserve" y="-429.31"><tspan style="font-weight:bold" x="606.45" y="-429.31">User defined</tspan><tspan x="606.45" y="-421.31">- constructors</tspan><tspan x="606.45" y="-413.31">- cast operators</tspan><tspan x="606.45" y="-405.31">- Chose best conversions using</tspan><tspan x="606.45" y="-397.31">   overload resolution</tspan></text><path d="m219.57-461.68h125.13v24.62h-125.13z" style="fill:none;stroke:#ff8c00;stroke-width:.8" transform="matrix(1 0 0 -1 680.85 97.3)"/><text style="font-size:8;font-family:Droid Sans;letter-spacing:-.40000004;word-spacing:0;fill:#0" transform="matrix(1 0 0 -1 680.85 97.3)" x="222.64" y="-451.94"><tspan style="font-weight:bold" x="222.64" y="-451.94">Partial ordering</tspan><tspan x="222.64" y="-443.94">- Which template is more specialized</tspan></text><path d="m390.16-427.6h111.29v24.1h-111.29z" style="fill:none;stroke:#ff8c00;stroke-width:.8" transform="matrix(1 0 0 -1 663.93 131.66)"/><text style="font-size:8;font-family:Droid Sans;letter-spacing:-.40000004;word-spacing:0;fill:#0" transform="matrix(1 0 0 -1 663.93 131.66)" x="393.24" y="-416.83"><tspan x="393.24" y="-416.83">Chose fully specialized template</tspan><tspan x="393.24" y="-408.83">over instantiation</tspan></text><path d="m710.5-810.57h106.16v36.41h-106.16z" style="fill:none;stroke:#008000;stroke-width:.8" transform="matrix(1 0 0 -1 -42.05 8.21)"/><g style="font-family:Droid Sans;font-size:8;letter-spacing:-.40000004;word-spacing:0;fill:#0"><text transform="matrix(1 0 0 -1 -42.05 8.21)" x="714.09" y="-800.83"><tspan style="font-weight:bold;font-size:8;font-family:Droid Sans" x="714.09" y="-800.83">Remove references</tspan></text><text transform="matrix(1 0 0 -1 -42.05 8.21)" x="713.89" xml:space="preserve" y="-788.8"><tspan x="713.89" y="-788.8">- Remove reference of call site</tspan><tspan x="713.89" y="-780.8">   arguments</tspan><tspan x="713.89" y="-772.8"/></text><text transform="scale(1 -1)" x="809.79" y="-840.09"><tspan style="font-weight:bold;font-size:8;font-family:Droid Sans" x="809.79" y="-840.09">Remove Const/Volatile</tspan></text></g><path d="m806.97-849.83h97.95v39.49h-97.95z" style="fill:none;stroke:#008000;stroke-width:.8" transform="scale(1 -1)"/><text style="font-size:8;font-family:Droid Sans;letter-spacing:-.40000004;word-spacing:0;fill:#0" transform="scale(1 -1)" x="809.28" xml:space="preserve" y="-829.83"><tspan x="809.28" y="-829.83">- Remove CV qualifiers of call</tspan><tspan x="809.28" y="-821.83">   site arguments</tspan><tspan x="809.28" y="-813.83">- Only for <tspan style="fill:#f00">top-level CV</tspan></tspan></text><path d="m836.39-768.99h91.29v30.77h-91.29z" style="fill:none;stroke:#008000;stroke-width:.8" transform="matrix(1 0 0 -1 -29.23 28.72)"/><g style="font-family:Droid Sans;font-size:8;letter-spacing:-.40000004;word-spacing:0;fill:#0"><text transform="matrix(1 0 0 -1 -29.23 28.72)" x="838.82" y="-759.7"><tspan style="font-weight:bold;font-size:8;font-family:Droid Sans" x="838.82" y="-759.7">Universal reference</tspan></text><text transform="matrix(1 0 0 -1 -29.23 28.72)" x="838.51" xml:space="preserve" y="-749.83"><tspan x="838.51" y="-749.83">- Binds to lvalue or rvalue</tspan><tspan x="838.51" y="-741.83">   expressions</tspan></text><text transform="matrix(1 0 0 -1 -3.59 3.08)" x="812.87" y="-739.31"><tspan style="font-weight:bold;font-size:8;font-family:Droid Sans" x="812.87" y="-739.31">Reference collapse</tspan></text></g><path d="m810.05-749.06h97.95v33.33h-97.95z" style="fill:none;stroke:#008000;stroke-width:.8" transform="matrix(1 0 0 -1 -3.59 3.08)"/><text style="font-size:8;font-family:Droid Sans;letter-spacing:-.40000004;word-spacing:0;fill:#0" transform="matrix(1 0 0 -1 -3.59 3.08)" x="812.36" xml:space="preserve" y="-729.06"><tspan x="812.36" y="-729.06">- Collapse ref-to-ref deduced</tspan><tspan x="812.36" y="-721.06">   type to lvalue or rvalue</tspan></text><g style="fill:none;stroke:#7cfc00;stroke-width:.8"><path d="m647.79 802.14h19.47" style="marker-end:url(#i)"/><path d="m774.46 801.63 30.98 41.03" style="marker-end:url(#j)"/><path d="m773.97 800.94 31.49-17.44" style="marker-end:url(#k)"/><path d="m774.48 801.46 30.98-58.46" style="marker-end:url(#l)"/><path d="m898.59 784.02 3.77-.03-.23-29.84" style="marker-end:url(#m)"/></g><g style="font-family:Droid Sans;font-size:8;letter-spacing:-.40000004;word-spacing:0;fill:#0" transform="scale(1 -1)"><text x="787.74" y="-754.96"><tspan x="787.74" y="-754.96">T&amp; / T*</tspan></text><text x="789.28" y="-792.39"><tspan x="789.28" y="-792.39">T&amp;&amp;</tspan></text><text x="794.46" y="-823.96"><tspan x="794.46" y="-823.96">T</tspan></text></g><path d="m783.14 854.5h261.04v-141.15h-261.04z" style="fill:none;stroke:#9c0;stroke-width:.88;stroke-linecap:round;stroke-miterlimit:10;stroke-dasharray:.88 2.64"/><path d="m745.17 871.65 17.84 17.42" style="fill:none;stroke:#f00;stroke-width:.8;marker-end:url(#n)"/><text style="font-size:8;font-family:Droid Sans;letter-spacing:-.40000004;word-spacing:0;fill:#0" transform="scale(1 -1)" x="1153.63" y="-856.51"><tspan x="1153.63" y="-856.51">invalid function signature (body is NOT checked)</tspan></text><g transform="translate(-7.6 46.4)"><text style="font-size:8;font-family:Droid Sans;letter-spacing:-.40000004;word-spacing:0;fill:#0" transform="scale(1 -1)" x="939.27" y="-756.11"><tspan style="font-weight:bold;font-size:8;font-family:Droid Sans" x="939.27" y="-756.11">Array decay</tspan></text><text style="font-size:8;font-family:Droid Sans;letter-spacing:-.40000004;word-spacing:0;fill:#0" transform="scale(1 -1)" x="938.87" xml:space="preserve" y="-754.51"><tspan x="938.87" y="-754.51"/><tspan x="938.87" y="-746.51">- Array and function types decay</tspan><tspan x="938.87" y="-738.51">   to pointers for call site args</tspan></text><path d="m936.06 765.25h110.81v-31.88h-110.81z" style="fill:none;stroke:#008000;stroke-width:.72;stroke-linecap:round;stroke-linejoin:round;stroke-miterlimit:10"/></g><path d="m904.86 827.22 22.18-28.17" style="fill:none;stroke:#7cfc00;stroke-width:.8;marker-end:url(#o)"/><text style="font-size:8;font-family:Droid Sans;letter-spacing:-.40000004;word-spacing:0;fill:#0" transform="scale(1 -1)" x="927.23" xml:space="preserve" y="-751.37"><tspan x="927.23" y="-751.37">&amp; + &amp;       =&gt; lvalue</tspan><tspan x="927.23" y="-743.37">&amp;&amp; + &amp;    =&gt; lvalue</tspan><tspan x="927.23" y="-735.37">&amp;&amp; + &amp;&amp; =&gt; rvalue</tspan></text><path d="m926.42 746.78-20.62-11.45" style="fill:none;stroke:#f00;stroke-width:.8;marker-end:url(#p)"/><path d="m517.73-420.07h101.54v22.57h-101.54z" style="fill:none;stroke:#ff8c00;stroke-width:.8" transform="matrix(1 0 0 -1 676.24 109.1)"/><text style="font-size:8;font-family:Droid Sans;letter-spacing:-.40000004;word-spacing:0;fill:#0" transform="matrix(1 0 0 -1 676.24 109.1)" x="521.29" y="-407.2"><tspan x="521.29" y="-407.2">Class member access control</tspan></text><text style="font-size:8;font-family:Droid Sans;letter-spacing:-.40000004;word-spacing:0;fill:#0" transform="scale(1 -1)" x="108.22" xml:space="preserve" y="-654.95"><tspan style="font-weight:bold;font-size:8;font-family:Droid Sans" x="108.22" y="-654.95">Class instantiation <tspan style="fill:#00f">(class only)</tspan></tspan></text><g transform="translate(-11.8 7.69)"><path d="m127.36 629.27h95.59v-23.51h-95.59z" style="fill:none;stroke:#ff1493;stroke-width:.88;stroke-linecap:round;stroke-miterlimit:10"/><text style="font-size:8;font-family:Droid Sans;letter-spacing:-.40000004;word-spacing:0;fill:#0" transform="scale(1 -1)" x="130.28" y="-619.57"><tspan x="130.28" y="-619.57">Instantiate class body ONLY</tspan><tspan x="130.28" y="-611.57">(memory layout / sizeof)</tspan></text></g><g transform="translate(-104.62 -15.39)"><path d="m351.73 653.37h126.87v-23.51h-126.87z" style="fill:none;stroke:#ff1493;stroke-width:.88;stroke-linecap:round;stroke-miterlimit:10"/><text style="font-size:8;font-family:Droid Sans;letter-spacing:-.40000004;word-spacing:0;fill:#0" transform="scale(1 -1)" x="355.41" y="-643.67"><tspan x="355.41" y="-643.67">Instantiate virtual member functions</tspan><tspan x="355.41" y="-635.67">(emits vtable code)</tspan></text></g><path d="m385.34-634.44h108.35v22.57h-108.35z" style="fill:none;stroke:#ff1493;stroke-width:.8" transform="matrix(1 0 0 -1 18.46 -7.18)"/><text style="font-size:8;font-family:Droid Sans;letter-spacing:-.40000004;word-spacing:0;fill:#0" transform="matrix(1 0 0 -1 18.46 -7.18)" x="389.77" y="-621.62"><tspan x="389.77" y="-621.62">Instantiate member functions</tspan></text><g style="fill:none;stroke-width:.8"><path d="m211.22 627.44 34.04-.26" style="stroke:#ff1493;marker-end:url(#q)"/><path d="m373.67 625.97 27.41-10.51" style="stroke:#ff1493;marker-end:url(#r)"/><path d="m423.46 644.87 23.82-17.18" style="stroke:#f00;marker-end:url(#s)"/></g><text style="font-size:8;font-family:Droid Sans;letter-spacing:-.40000004;word-spacing:0;fill:#0" transform="scale(1 -1)" x="399.01" y="-645.72"><tspan x="399.01" y="-645.72">Only when [ODR]-used in the code</tspan></text><path d="m120.28-460.58h84.11v25.13h-84.11z" style="fill:none;stroke:#ff8c00;stroke-width:.8" transform="matrix(1 0 0 -1 -4.62 88.72)"/><text style="font-size:8;font-family:Droid Sans;letter-spacing:-.40000004;word-spacing:0;fill:#0" transform="matrix(1 0 0 -1 -4.62 88.72)" x="125.15" y="-449.81"><tspan x="125.15" y="-449.81">Do not take into acount</tspan><tspan x="125.15" y="-441.81">default arguments</tspan></text><path d="m362.34-460.07h106.16v24.62h-106.16z" style="fill:none;stroke:#ff8c00;stroke-width:.8" transform="matrix(1 0 0 -1 538.8 59.86)"/><text style="font-size:8;font-family:Droid Sans;letter-spacing:-.40000004;word-spacing:0;fill:#0" transform="matrix(1 0 0 -1 538.8 59.86)" x="366.18" y="-449.81"><tspan x="366.18" y="-449.81">NON template function wins</tspan><tspan x="366.18" y="-441.81">against template specialization</tspan></text><g style="fill:none;stroke:#ff8c00;stroke-width:.8"><path d="m1025.33 547.29 26.9.26" style="marker-end:url(#t)"/><path d="m1006.31 512 185.88 8.97" style="marker-end:url(#u)"/><path d="m1164.78 547.9 28.95-24.87" style="marker-end:url(#v)"/></g><text style="font-size:8;font-family:Droid Sans;letter-spacing:-.40000004;word-spacing:0;fill:#0" transform="scale(1 -1)" x="1048.57" y="-503.52"><tspan style="font-size:8;font-family:DejaVu Sans Mono" x="1048.57" y="-503.52">template &lt;class T, class V&gt;</tspan><tspan style="font-size:8;font-family:DejaVu Sans Mono" x="1048.57" y="-495.52">void func (T t, V v) {}</tspan><tspan x="1048.57" y="-487.52"/><tspan style="font-size:8;font-family:DejaVu Sans Mono" x="1048.57" y="-479.52">template &lt;class T&gt;</tspan><tspan style="font-size:8;font-family:DejaVu Sans Mono" x="1048.57" y="-471.52">void func (T t, int v) {}</tspan><tspan x="1048.57" y="-463.52"/><tspan style="font-size:8;font-family:DejaVu Sans Mono" x="1048.57" y="-455.52">template &lt;&gt;</tspan><tspan style="font-size:8;font-family:DejaVu Sans Mono" x="1048.57" y="-447.52">void func (char t, int v) {}</tspan></text><path d="m1088.18 507.48 20.74 28.98" style="fill:none;stroke:#f00;stroke-width:.8;marker-end:url(#w)"/><path d="m1158.74 477.98 12.69-13.06-11.95-13.87" style="fill:none;stroke:#f00;stroke-width:.8;marker-end:url(#x)"/><text style="font-size:8;font-family:Droid Sans;letter-spacing:-.40000004;word-spacing:0;fill:#0" transform="scale(1 -1)" x="1168.07" y="-479.93"><tspan x="1168.07" y="-479.93">primary template</tspan><tspan x="1168.07" y="-471.93">and specialization</tspan></text><path d="m213.91 843.3 29.46 13.09" style="fill:none;stroke:#00f;stroke-width:.8;marker-end:url(#y)"/><text style="font-size:8;font-family:Droid Sans;letter-spacing:-.40000004;word-spacing:0;fill:#0" transform="scale(1 -1)" x="250.79" xml:space="preserve" y="-934.45"><tspan x="250.79" y="-934.45">ADL <tspan style="font-weight:bold">always</tspan> called even if previous lookup</tspan><tspan x="250.79" y="-926.45">found candidate functions </tspan></text><text style="font-size:8;font-family:Droid Sans;letter-spacing:-.40000004;word-spacing:0;fill:#0" transform="scale(1 -1)" x="74.89" xml:space="preserve" y="-939.07"><tspan style="font-size:8;font-family:DejaVu Sans Mono" x="74.89" y="-939.07">namespace NS1 {</tspan><tspan style="font-size:8;font-family:DejaVu Sans Mono" x="74.89" y="-931.07">  struct A {};</tspan><tspan style="font-size:8;font-family:DejaVu Sans Mono" x="74.89" y="-923.07">  void funcInGlobalAndNs1(A) {}</tspan><tspan style="font-size:8;font-family:DejaVu Sans Mono" x="74.89" y="-915.07">}</tspan><tspan style="font-size:8;font-family:DejaVu Sans Mono" x="74.89" y="-907.07">void funcInGlobalAndNs1(int) {}</tspan><tspan x="74.89" y="-899.07"/><tspan style="font-size:8;font-family:DejaVu Sans Mono" x="74.89" y="-891.07">funcInGlobalAndNs1(NS1::A());</tspan></text><g style="fill:none;stroke-width:.8"><g style="stroke:#f00"><path d="m299.46 925.54 21.25-25.9" style="marker-end:url(#z)"/><path d="m203.96 891.04 45.66 35.18-34.66-.05" style="marker-end:url(#A)"/><path d="m248.07 926.42-33.11-15.64" style="marker-end:url(#B)"/></g><path d="m115.59-503.15h151.94v29.23h-151.94z" style="stroke:#ff8c00" transform="matrix(1 0 0 -1 105.13 48.21)"/></g><g style="fill:#0"><text style="font-size:8;font-family:Droid Sans;letter-spacing:-.40000004;word-spacing:0" transform="matrix(1 0 0 -1 105.13 48.21)" x="117.97" xml:space="preserve" y="-494.43"><tspan x="117.97" y="-494.43"><tspan style="font-weight:bold">Implicit this argument</tspan></tspan><tspan x="117.97" y="-486.43">- Member function signature is transformed</tspan><tspan x="117.97" y="-478.43">   adding the object ref as first argument </tspan></text><g transform="scale(1 -1)"><text x="151.82" y="-479.05"><tspan x="151.82" y="-479.05"/></text><g style="font-size:8;font-family:Droid Sans;letter-spacing:-.40000004;word-spacing:0"><text x="204.12" xml:space="preserve" y="-490.84"><tspan style="font-size:8;font-family:DejaVu Sans Mono" x="204.12" y="-490.84">vector::begin() const</tspan><tspan style="font-size:8;font-family:DejaVu Sans Mono" x="204.12" y="-482.84"> =&gt; begin(const vector&amp;)</tspan><tspan style="font-size:8;font-family:DejaVu Sans Mono" x="204.12" y="-474.84">vector::begin()</tspan><tspan style="font-size:8;font-family:DejaVu Sans Mono" x="204.12" y="-466.84"> =&gt; begin(vector&amp;)</tspan></text><text x="346.18" y="-470.33"><tspan style="font-size:8;font-family:DejaVu Sans Mono" x="346.18" y="-470.33">void func(int*) { ... }</tspan><tspan style="font-size:8;font-family:DejaVu Sans Mono" x="346.18" y="-462.33">void func(int(&amp;)[3]) { ... }</tspan><tspan x="346.18" y="-454.33"/><tspan style="font-size:8;font-family:DejaVu Sans Mono" x="346.18" y="-446.33">int a[3];</tspan><tspan style="font-size:8;font-family:DejaVu Sans Mono" x="346.18" y="-438.33">func(a); // AMBIGUOUS !</tspan></text></g></g></g><g style="fill:none"><g style="stroke-width:.8"><path d="m199.98 538.63 19.68.26" style="stroke:#ff8c00;marker-end:url(#C)"/><path d="m372.46 538.75 29.48-33.08" style="stroke:#ff8c00;marker-end:url(#D)"/><g style="stroke:#f00"><path d="m254.63 496.62 19.51 24.52" style="marker-end:url(#E)"/><path d="m424.94 473.9 19.51 20.2" style="marker-end:url(#F)"/></g></g><path d="m396.7 576.8h141.04v-90.38h-141.04z" style="stroke:#ff8c00;stroke-width:.88;stroke-linecap:round;stroke-miterlimit:10;stroke-dasharray:.88 2.64"/></g><g transform="matrix(1 0 0 -1 -6.15 75.9)"><g style="font-size:8;font-family:Droid Sans;letter-spacing:-.40000004;word-spacing:0;fill:#0"><text x="414.9" y="-426.22"><tspan style="font-weight:bold" x="414.9" y="-426.22">Array decay</tspan></text><text x="477.47" xml:space="preserve" y="-430.84"><tspan style="font-weight:bold" x="477.47" y="-430.84">Remove CV </tspan><tspan style="font-weight:bold" x="477.47" y="-422.84">qualification</tspan></text><text x="467.21" y="-425.71"><tspan style="font-weight:bold" x="467.21" y="-425.71">+</tspan></text></g><path d="m409.45-441.1h118.61v22.57h-118.61z" style="fill:none;stroke:#ff8c00;stroke-width:.8"/></g><text style="font-size:8;font-family:Droid Sans;letter-spacing:-.40000004;word-spacing:0;fill:#0" transform="matrix(1 0 0 -1 -25.13 133.85)" x="431.83" y="-425.71"><tspan style="font-weight:bold" x="431.83" y="-425.71">Can I bind to expression ?</tspan><tspan x="431.83" y="-417.71">- T&amp; : only bind to lvalue</tspan><tspan x="431.83" y="-409.71">- const T&amp; : bind to lvalue and rvalue</tspan><tspan x="431.83" y="-401.71">- T&amp;&amp; : only bind to rvalue</tspan></text><path d="m428.42-436.48h123.74v40h-123.74z" style="fill:none;stroke:#ff8c00;stroke-width:.8" transform="matrix(1 0 0 -1 -25.13 133.85)"/><path d="m372.9 537.83 28.45 16.15" style="fill:none;stroke:#ff8c00;stroke-width:.8;marker-end:url(#G)"/><text style="font-size:8;font-family:Droid Sans;letter-spacing:-.40000004;word-spacing:0;fill:#0" transform="scale(1 -1)" x="381.06" y="-547.77"><tspan x="381.06" y="-547.77">T&amp;</tspan><tspan x="381.06" y="-539.77">T&amp;&amp;</tspan></text><text style="font-size:8;font-family:Droid Sans;letter-spacing:-.40000004;word-spacing:0;fill:#0" transform="scale(1 -1)" x="385.67" y="-517.51"><tspan x="385.67" y="-517.51">T</tspan></text><path d="m534.78 579.05 50.55 77.19 195.12 65.06" style="fill:none;stroke:#008000;stroke-width:1.2;marker-start:url(#c);marker-end:url(#H)"/><text style="font-size:8;font-family:Droid Sans;letter-spacing:-.40000004;word-spacing:0;fill:#0" transform="scale(1 -1)" x="588.5" y="-647.42"><tspan x="588.5" y="-647.42">Process is more-or-less</tspan><tspan x="588.5" y="-639.42">repeated twice</tspan></text><path d="m562.17 569.49h307.71v-173.97h-307.71z" style="fill:none;stroke:#ff8c00;stroke-width:.88;stroke-linecap:round;stroke-miterlimit:10;stroke-dasharray:.88 2.64"/><text style="font-size:8;font-family:Droid Sans;letter-spacing:-.40000004;word-spacing:0;fill:#0" transform="matrix(1 0 0 -1 67.7 95.9)" x="502.92" xml:space="preserve" y="-397.2"><tspan style="font-weight:bold" x="502.92" y="-397.2">Conversion (rank 3)</tspan><tspan x="502.92" y="-389.2">- float-to-int</tspan><tspan x="502.92" y="-381.2">- Derived-to-Base class </tspan></text><path d="m500.22-407.25h83.73v31.28h-83.73z" style="fill:none;stroke:#ff8c00;stroke-width:.8" transform="matrix(1 0 0 -1 67.7 95.9)"/><text style="font-size:8;font-family:Droid Sans;letter-spacing:-.40000004;word-spacing:0;fill:#0" transform="matrix(1 0 0 -1 -62.57 138.47)" x="637.82" y="-400.83"><tspan style="font-weight:bold" x="637.82" y="-400.83">Promotion (rank 2)</tspan><tspan x="637.82" y="-392.83">- int -&gt; long</tspan><tspan x="637.82" y="-384.83">- float -&gt; double</tspan></text><path d="m634.59-410.84h77.07v31.28h-77.07z" style="fill:none;stroke:#ff8c00;stroke-width:.8" transform="matrix(1 0 0 -1 -62.57 138.47)"/><text style="font-size:8;font-family:Droid Sans;letter-spacing:-.40000004;word-spacing:0;fill:#0" transform="matrix(1 0 0 -1 75.39 155.39)" x="618.24" y="-359.49"><tspan style="font-weight:bold" x="618.24" y="-359.49">Qualification (rank 1)</tspan><tspan x="618.24" y="-351.49">- const / volatile</tspan></text><path d="m614.07-369.81h83.73v22.57h-83.73z" style="fill:none;stroke:#ff8c00;stroke-width:.8" transform="matrix(1 0 0 -1 75.39 155.39)"/><text style="font-size:8;font-family:Droid Sans;letter-spacing:-.40000004;word-spacing:0;fill:#0" transform="scale(1 -1)" x="600.55" y="-507.25"><tspan style="font-weight:bold;font-size:10;font-family:Droid Sans" x="600.55" y="-507.25">OR</tspan></text><path d="m377.14-402.63h76.04v22.57h-76.04z" style="fill:none;stroke:#ff8c00;stroke-width:.8" transform="matrix(1 0 0 -1 192.83 36.92)"/><text style="font-size:8;font-family:Droid Sans;letter-spacing:-.40000004;word-spacing:0;fill:#0" transform="matrix(1 0 0 -1 192.83 36.92)" x="381.57" y="-392.89"><tspan x="381.57" y="-392.89">Standard conversion</tspan><tspan x="381.57" y="-384.89">sequence</tspan></text><path d="m377.14-402.63h76.04v22.57h-76.04z" style="fill:none;stroke:#ff8c00;stroke-width:.8" transform="matrix(1 0 0 -1 408.48 36.92)"/><text style="font-size:8;font-family:Droid Sans;letter-spacing:-.40000004;word-spacing:0;fill:#0" transform="matrix(1 0 0 -1 408.48 36.92)" x="381.57" y="-392.89"><tspan x="381.57" y="-392.89">Standard conversion</tspan><tspan x="381.57" y="-384.89">sequence</tspan></text><g style="fill:none;stroke:#ff8c00;stroke-width:.8"><path d="m648.06 535.08 39.78-22.78" style="marker-end:url(#I)"/><path d="m650.6 484.7 37.24 22.78" style="marker-end:url(#J)"/><path d="m645.43 430.31 14.65-.21" style="marker-end:url(#K)"/><path d="m766.78 429.5 16.8-.21" style="marker-end:url(#L)"/></g><text style="font-size:8;font-family:Droid Sans;letter-spacing:-.40000004;word-spacing:0;fill:#0" transform="scale(1 -1)" x="562.09" y="-574.44"><tspan style="font-weight:bold" x="562.09" y="-574.44">Select best conversion sequence</tspan></text><path d="m563.63 463.41h306.17" style="fill:none;stroke:#ff8c00;stroke-width:.8;stroke-dasharray:2.4 2.4"/><text style="font-size:8;font-family:Droid Sans;letter-spacing:-.40000004;word-spacing:0;fill:#0" transform="scale(1 -1)" x="567.22" y="-558.02"><tspan x="567.22" y="-558.02">Only standard sequences</tspan></text><text style="font-size:8;font-family:Droid Sans;letter-spacing:-.40000004;word-spacing:0;fill:#0" transform="scale(1 -1)" x="565.17" y="-453.92"><tspan x="565.17" y="-453.92">Standard and user-defined sequences</tspan></text><path d="m536.29 532.58 24.3-.21" style="fill:none;stroke:#ff8c00;stroke-width:.8;marker-end:url(#M)"/><text style="font-size:8;font-family:Droid Sans;letter-spacing:-.40000004;word-spacing:0;fill:#0" transform="scale(1 -1)" x="469.07" xml:space="preserve" y="-431.03"><tspan style="font-size:8;font-family:DejaVu Sans Mono" x="469.07" y="-431.03">struct Klass {</tspan><tspan style="font-size:8;font-family:DejaVu Sans Mono" x="469.07" y="-423.03">  Klass(long) {}</tspan><tspan style="font-size:8;font-family:DejaVu Sans Mono" x="469.07" y="-415.03">  Klass(float) {}</tspan><tspan style="font-size:8;font-family:DejaVu Sans Mono" x="469.07" y="-407.03">};</tspan><tspan style="font-size:8;font-family:DejaVu Sans Mono" x="469.07" y="-399.03">void func(Klass) {}</tspan><tspan style="font-size:8;font-family:DejaVu Sans Mono" x="469.07" y="-391.03">func( (int)666 );</tspan></text><g style="fill:none;stroke-width:.8"><path d="m543.74 393.26 122.8 15.13" style="stroke:#f00;marker-end:url(#N)"/><g style="stroke:#ff8c00"><path d="m869.07 512.14 31 36.16" style="marker-end:url(#O)"/><path d="m868.8 512.84 30.58.26" style="marker-end:url(#P)"/></g></g><g style="fill:#0;font-family:DejaVu Sans Mono"><text style="font-size:2.5" transform="matrix(2.71 0 0 -2.72 940.15 895.58)"><tspan x="0" y="0">template&lt;class A, class B, class C&gt;</tspan></text><text style="font-size:2.5" transform="matrix(2.71 0 0 -2.72 940.15 887.88)"><tspan x="0" y="0">struct Klass;</tspan></text><g style="font-size:2.47"><text transform="matrix(2.71 0 0 -2.72 940.15 872.46)"><tspan x="0" y="0">template&lt;class A&gt;</tspan></text><text transform="matrix(2.71 0 0 -2.72 940.15 864.76)"><tspan x="0" y="0">struct Klass&lt;A, A*, int&gt; {};</tspan></text><text transform="matrix(2.71 0 0 -2.72 940.15 857.06)"><tspan x="0" y="0">// void dummy ( X&lt;A, A*, int&gt; );</tspan></text><text transform="matrix(2.71 0 0 -2.72 940.15 841.67)"><tspan x="0" y="0">template&lt;class A, class B&gt;</tspan></text><text transform="matrix(2.71 0 0 -2.72 940.15 833.94)"><tspan x="0" y="0">struct Klass&lt;A, B*, int&gt; {};</tspan></text><text transform="matrix(2.71 0 0 -2.72 940.15 826.24)"><tspan x="0" y="0">// void dummy ( X&lt;A, B*, int&gt; );</tspan></text></g></g></g></svg>
