<svg height="200" width="1000" viewBox="0 0 1109.07 219.16" xmlns="http://www.w3.org/2000/svg" xmlns:xlink="http://www.w3.org/1999/xlink"><marker id="a" orient="auto" refX="0" refY="0" style="overflow:visible"><path d="m5.77 0-8.65 5v-10z" style="fill:#228b22;fill-rule:evenodd;stroke:#228b22;stroke-width:1pt" transform="scale(-.4)"/></marker><marker id="b" orient="auto" refX="0" refY="0" style="overflow:visible"><path d="m5.77 0-8.65 5v-10z" style="fill:#696969;fill-rule:evenodd;stroke:#696969;stroke-width:1pt" transform="scale(-.4)"/></marker><marker id="c" orient="auto" refX="0" refY="0" style="overflow:visible"><path d="m5.77 0-8.65 5v-10z" style="fill:#1e90ff;fill-rule:evenodd;stroke:#1e90ff;stroke-width:1pt" transform="scale(-.4)"/></marker><marker id="d" orient="auto" refX="0" refY="0" style="overflow:visible"><path d="m5.77 0-8.65 5v-10z" style="fill:#f00;fill-rule:evenodd;stroke:#f00;stroke-width:1pt" transform="scale(-.4)"/></marker><marker id="e" orient="auto" refX="0" refY="0" style="overflow:visible"><path d="m5.77 0-8.65 5v-10z" style="fill:#228b22;fill-rule:evenodd;stroke:#228b22;stroke-width:1pt" transform="scale(-.4)"/></marker><marker id="f" orient="auto" refX="0" refY="0" style="overflow:visible"><path d="m5.77 0-8.65 5v-10z" style="fill:#ff1493;fill-rule:evenodd;stroke:#ff1493;stroke-width:1pt" transform="scale(-.4)"/></marker><marker id="g" orient="auto" refX="0" refY="0" style="overflow:visible"><path d="m5.77 0-8.65 5v-10z" style="fill:#f00;fill-rule:evenodd;stroke:#f00;stroke-width:1pt" transform="scale(-.4)"/></marker><g transform="translate(-109.17 -355.15)"><g style="fill:none"><path d="m369.21 474.86h144.36v34.98h-144.36z" style="stroke:#00f;stroke-width:1.1"/><path d="m740.02 421.48h-34.23" style="stroke:#228b22;marker-start:url(#a)"/><path d="m134.34 401.3h209.26l-22.53 148.39h-211.25z" style="stroke:#696969;stroke-width:1.1;stroke-miterlimit:10"/></g><g style="font-size:10;font-family:Droid Sans;letter-spacing:-.5;word-spacing:0"><text x="137.44" xml:space="preserve" y="417.71"><tspan style="font-size:10;font-family:DejaVu Sans Mono" x="137.44" y="417.71">class Klass {</tspan><tspan style="font-size:10;font-family:DejaVu Sans Mono" x="137.44" y="427.71">  int field = 1;</tspan><tspan x="137.44" y="437.71"/><tspan style="font-size:10;font-family:DejaVu Sans Mono" x="137.44" y="447.71">  void func() {</tspan><tspan style="font-size:10;font-family:DejaVu Sans Mono" x="137.44" y="457.71">    static int v1 = 2;</tspan><tspan style="font-size:10;font-family:DejaVu Sans Mono" x="137.44" y="467.71">    int v2 = 3;</tspan><tspan x="137.44" y="477.71"/><tspan style="font-size:10;font-family:DejaVu Sans Mono" x="137.44" y="487.71">    auto l = [=] (auto <tspan style="fill:#ff1493">v3</tspan>) {</tspan><tspan style="font-size:10;font-family:DejaVu Sans Mono" x="137.44" y="497.71"><tspan style="fill:#ff1493">      return</tspan><tspan style="fill:#f00"> field</tspan> + <tspan style="fill:#1e90ff">v1</tspan> + <tspan style="fill:#228b22">v2 + </tspan><tspan style="fill:#ff1493">v3</tspan>;</tspan><tspan style="font-size:10;font-family:DejaVu Sans Mono" x="137.44" y="507.71">    };</tspan><tspan x="137.44" y="517.71"/><tspan style="font-size:10;font-family:DejaVu Sans Mono" x="137.44" y="527.71">  }</tspan><tspan style="font-size:10;font-family:DejaVu Sans Mono" x="137.44" y="537.71">};</tspan></text><text x="373.75" y="490.89"><tspan x="373.75" y="490.89">Standard name lookup for names</tspan><tspan x="373.75" y="500.89">in lambda capture-list and body</tspan></text><text x="521.82" xml:space="preserve" y="488.36"><tspan x="521.82" y="488.36">member </tspan><tspan x="521.82" y="498.36">variable/function</tspan></text><text x="497.78" y="458.41"><tspan x="497.78" y="458.41">automatic storage</tspan></text><text x="496.51" y="529.7"><tspan x="496.51" y="529.7">static/global variable</tspan></text></g><path d="m368.22 496.37h-44.85" style="fill:none;stroke:#696969;marker-start:url(#b)"/><g transform="translate(92.38 158.19)"><path d="m460.61 380.59h154.06v34.98h-154.06z" style="fill:none;stroke:#1e90ff;stroke-width:1.1"/><text style="font-size:10;font-family:Droid Sans;letter-spacing:-.5;word-spacing:0" x="464.45" y="395.55"><tspan x="464.45" y="395.55">Do NOT capture</tspan><tspan x="464.45" y="405.55">Use as if called from enclosing scope</tspan></text></g><path d="m551.69 558.8-57.88.61-.01-49.54" style="fill:none;stroke:#1e90ff;marker-start:url(#c)"/><g transform="translate(199.11 46.4)"><path d="m400.71 425.73h108.5v34.98h-108.5z" style="fill:none;stroke:#f00;stroke-width:1.1"/><text style="font-size:10;font-family:Droid Sans;letter-spacing:-.5;word-spacing:0" x="405.39" xml:space="preserve" y="440.27"><tspan x="405.39" y="440.27">Capture <tspan style="font-weight:bold;font-size:10;font-family:Droid Sans;fill:#f00">this</tspan> by value</tspan><tspan x="405.39" y="450.27">[&amp;this] is a compile-error</tspan></text></g><path d="m597.57 490.47h-84.8" style="fill:none;stroke:#f00;marker-start:url(#d)"/><g transform="translate(72.98 -1.69)"><path d="m481.49 406.33h152.38v34.98h-152.38z" style="fill:none;stroke:#228b22;stroke-width:1.1"/><text style="font-size:10;font-family:Droid Sans;letter-spacing:-.5;word-spacing:0" x="486.39" y="421.71"><tspan x="486.39" y="421.71">Variable type deduction</tspan><tspan x="486.39" y="431.71">Special rules when capture by value</tspan></text><g transform="translate(232.86 67.5)"><path d="m509.33 336.3h152.38v34.98h-152.38z" style="fill:none;stroke:#228b22;stroke-width:1.09" transform="matrix(1.02 0 0 1 -83.01 1.69)"/><text style="font-size:10;font-family:Droid Sans;letter-spacing:-.5;word-spacing:0" x="441.25" y="353.37"><tspan x="441.25" y="353.37">Capture automatic storage variable</tspan><tspan x="441.25" y="363.37">As lambda type field (by value or ref)</tspan></text></g></g><path d="m552.15 422.11-57.88-.65-.01 53.14" style="fill:none;stroke:#228b22;marker-start:url(#e)"/><path d="m943.86 396.43h273.66l-29.46 107.36h-276.27z" style="fill:none;stroke:#696969;stroke-width:1.1;stroke-miterlimit:10"/><text style="font-size:10;font-family:Droid Sans;letter-spacing:-.5;word-spacing:0" x="944.39" xml:space="preserve" y="413.33"><tspan style="font-size:10;font-family:DejaVu Sans Mono" x="944.39" y="413.33">class LambdaInnerType {</tspan><tspan style="font-size:10;font-family:DejaVu Sans Mono" x="944.39" y="423.33">  int _v2;</tspan><tspan style="font-size:10;font-family:DejaVu Sans Mono" x="944.39" y="433.33">  const Klass* <tspan style="fill:#f00">_this</tspan>;</tspan><tspan x="944.39" y="443.33"/><tspan style="font-size:10;font-family:DejaVu Sans Mono" x="944.39" y="453.33">  template&lt;class <tspan style="fill:#c71585">T</tspan>&gt;</tspan><tspan style="font-size:10;font-family:DejaVu Sans Mono" x="944.39" y="463.33">  auto operator()(<tspan style="fill:#ff1493">T _v3</tspan>) -&gt; <tspan style="fill:#ff1493">decltype(int+T)</tspan> {</tspan><tspan style="font-size:10;font-family:DejaVu Sans Mono" x="944.39" y="473.33">    return <tspan style="fill:#f00">_this-&gt;field</tspan> + <tspan style="fill:#1e90ff">v1</tspan> + <tspan style="fill:#228b22">_v2</tspan> + <tspan style="fill:#ff1493">_v3</tspan>;</tspan><tspan style="font-size:10;font-family:DejaVu Sans Mono" x="944.39" y="483.33">  }</tspan><tspan style="font-size:10;font-family:DejaVu Sans Mono" x="944.39" y="493.33">};</tspan></text><g transform="translate(45.98 16.45)"><text style="font-size:10;font-family:Droid Sans;letter-spacing:-.5;word-spacing:0" x="515.49" y="353.79"><tspan x="515.49" y="353.79">Return + auto parameters type deduction</tspan><tspan style="fill:#ff1493" x="515.49" y="363.79">Delayed deduction at call site</tspan></text><path d="m509.12 339.25h177.04v34.98h-177.04z" style="fill:none;stroke:#ff1493;stroke-width:1.1"/></g><path d="m552.12 373.62-108.76-.36-119.17 123.11" style="fill:none;stroke:#ff1493;marker-start:url(#f)"/><text style="font-size:10;font-family:Droid Sans;letter-spacing:-.5;word-spacing:0" x="922.5" y="532.36"><tspan x="922.5" y="532.36">Notice access control is violated</tspan><tspan x="922.5" y="542.36">(field is a private member)</tspan></text><g style="fill:none"><path d="m1022.21 476.86-44.23 49" style="stroke:#f00;marker-start:url(#g)"/><path d="m926.86 451.74-220.23 104" style="stroke:#1e90ff"/><path d="m927.11 451.36-218.73 35.5" style="stroke:#f00"/><path d="m926.86 451.11-29.23-31.5" style="stroke:#228b22"/><path d="m926.36 451.61-15.26-79.2-178.96.2" style="stroke:#c71585"/></g></g></svg>
