<svg height="200" width="800" viewBox="0 0 1024 291.91" xmlns="http://www.w3.org/2000/svg" xmlns:xlink="http://www.w3.org/1999/xlink"><marker id="a" orient="auto" refX="0" refY="0" style="overflow:visible"><path d="m5.77 0-8.65 5v-10z" style="fill:#ff8c00;fill-rule:evenodd;stroke:#ff8c00;stroke-width:1pt" transform="scale(-.4)"/></marker><marker id="b" orient="auto" refX="0" refY="0" style="overflow:visible"><path d="m5.77 0-8.65 5v-10z" style="fill:#ff8c00;fill-rule:evenodd;stroke:#ff8c00;stroke-width:1pt" transform="scale(-.4)"/></marker><marker id="c" orient="auto" refX="0" refY="0" style="overflow:visible"><path d="m5.77 0-8.65 5v-10z" style="fill:#ff8c00;fill-rule:evenodd;stroke:#ff8c00;stroke-width:1pt" transform="scale(-.4)"/></marker><marker id="d" orient="auto" refX="0" refY="0" style="overflow:visible"><path d="m5.77 0-8.65 5v-10z" style="fill:#ff8c00;fill-rule:evenodd;stroke:#ff8c00;stroke-width:1pt" transform="scale(-.4)"/></marker><marker id="e" orient="auto" refX="0" refY="0" style="overflow:visible"><path d="m5.77 0-8.65 5v-10z" style="fill:#ff1493;fill-rule:evenodd;stroke:#ff1493;stroke-width:1pt" transform="scale(-.4)"/></marker><marker id="f" orient="auto" refX="0" refY="0" style="overflow:visible"><path d="m5.77 0-8.65 5v-10z" style="fill:#ff1493;fill-rule:evenodd;stroke:#ff1493;stroke-width:1pt" transform="scale(-.4)"/></marker><marker id="g" orient="auto" refX="0" refY="0" style="overflow:visible"><path d="m5.77 0-8.65 5v-10z" style="fill:#f00;fill-rule:evenodd;stroke:#f00;stroke-width:1pt" transform="scale(-.4)"/></marker><marker id="h" orient="auto" refX="0" refY="0" style="overflow:visible"><path d="m5.77 0-8.65 5v-10z" style="fill:#00f;fill-rule:evenodd;stroke:#00f;stroke-width:1pt" transform="scale(-.4)"/></marker><marker id="i" orient="auto" refX="0" refY="0" style="overflow:visible"><path d="m5.77 0-8.65 5v-10z" style="fill:#00f;fill-rule:evenodd;stroke:#00f;stroke-width:1pt" transform="scale(-.4)"/></marker><g transform="translate(139.58 -129.6)"><path d="m209.18 212.9h392.6v69.82h-392.6z" style="fill:none;stroke:#1e90ff;stroke-width:1.1;stroke-dasharray:6.6 2.2"/><g transform="matrix(1.22 0 0 1.22 -203.22 -165.86)"><path d="m345.05 328.64h93.22v30.57h-93.22z" style="fill:none;stroke:#00f;stroke-width:.9"/><text style="font-size:10;font-family:Droid Sans;letter-spacing:-.5;word-spacing:0" x="350.79" y="346.61"><tspan x="350.79" y="346.61">Template argument</tspan></text></g><g transform="matrix(1.22 0 0 1.22 -135.35 42.25)"><path d="m218.27 75.39h167.79v46.09h-167.79z" style="fill:none;stroke:#696969;stroke-width:.9"/><text style="font-size:10;font-family:Droid Sans;letter-spacing:-.5;word-spacing:0" x="222.52" y="85.91"><tspan x="222.52" y="85.91">Different rules whether</tspan><tspan x="222.52" y="95.91">- T : CV remove + array decay</tspan><tspan x="222.52" y="105.91">- T&amp;&amp; : univesal reference</tspan><tspan x="222.52" y="115.91">- T&amp; | T* : keep CV + reference collapse</tspan></text></g><g transform="matrix(1.22 0 0 1.22 14.49 -170.97)"><text style="font-size:10;font-family:Droid Sans;letter-spacing:-.5;word-spacing:0" x="286.36" y="351.38"><tspan x="286.36" y="351.38">Auto variables</tspan></text><path d="m268.39 332.52h93.22v30.57h-93.22z" style="fill:none;stroke:#00f;stroke-width:.9"/></g><g transform="matrix(1.22 0 0 1.22 -115.52 -47.98)"><text style="font-size:10;font-family:Droid Sans;letter-spacing:-.5;word-spacing:0" x="476.07" xml:space="preserve" y="365.11"><tspan x="476.07" y="365.11">Auto function </tspan><tspan x="476.07" y="375.11">return values</tspan></text><path d="m458.1 351.61h93.22v30.57h-93.22z" style="fill:none;stroke:#ff1493;stroke-width:.9"/></g><g transform="matrix(1.22 0 0 1.22 100.14 -298.75)"><text style="font-size:10;font-family:Droid Sans;letter-spacing:-.5;word-spacing:0" x="305.45" y="449.82"><tspan x="305.45" y="449.82">Declared type operator</tspan><tspan x="305.45" y="459.82">decltype</tspan></text><path d="m301.2 436.32h100.97v30.57h-100.97z" style="fill:none;stroke:#f00;stroke-width:.9"/></g><g transform="matrix(1.22 0 0 1.22 -342.18 -117.66)"><text style="font-size:10;font-family:Droid Sans;letter-spacing:-.5;word-spacing:0" x="526.18" y="428.94"><tspan x="526.18" y="428.94">Lambda init-captures</tspan></text><path d="m522.53 409.48h95v30.57h-95z" style="fill:none;stroke:#ff8c00;stroke-width:.9"/></g><g transform="matrix(1.22 0 0 1.22 -353.13 -219.16)"><text style="font-size:10;font-family:Droid Sans;letter-spacing:-.5;word-spacing:0" x="437.29" y="454.59"><tspan x="437.29" y="454.59">Lambda captures</tspan></text><path d="m428.27 436.32h93.22v30.57h-93.22z" style="fill:none;stroke:#ff8c00;stroke-width:.9"/></g><g transform="matrix(1.22 0 0 1.22 -573.52 -152.71)"><text style="font-size:10;font-family:Droid Sans;letter-spacing:-.5;word-spacing:0" x="586.44" y="454.59"><tspan x="586.44" y="454.59">Lambda auto arguments</tspan></text><path d="m581.59 436.92h111.11v30.57h-111.11z" style="fill:none;stroke:#ff8c00;stroke-width:.9"/></g><text style="font-size:12.24;font-family:Droid Sans;letter-spacing:-.61181748;word-spacing:0" x="215.74" y="226.93"><tspan x="215.74" y="226.93">"Standard rules"</tspan></text><g transform="matrix(1.22 0 0 1.22 278.8 -234.5)"><text style="font-size:10;font-family:Droid Sans;letter-spacing:-.5;word-spacing:0" transform="translate(-314.69 93.66)" x="452.21" y="216.56"><tspan x="452.21" y="216.56">Funny behavior with brace-init</tspan><tspan x="452.21" y="226.56"/></text><text style="font-size:10;font-family:Droid Sans;letter-spacing:-.5;word-spacing:0" transform="translate(-314.69 93.66)" x="451.61" xml:space="preserve" y="230.88"><tspan style="font-size:10;font-family:Droid Sans Mono" x="451.61" y="230.88">auto v {666};        // type = int</tspan><tspan style="font-size:10;font-family:Droid Sans Mono" x="451.61" y="240.88">auto v = {666};      // type = std::init</tspan><tspan style="font-size:10;font-family:Droid Sans Mono" x="451.61" y="250.88">auto v {666,333};    // INVALID !!</tspan></text><path d="m132.96 297.92h230.43v51.45h-230.43z" style="fill:none;stroke:#696969;stroke-width:.9"/></g><g transform="matrix(1.22 0 0 1.22 8.42 -146.87)"><text style="font-size:10;font-family:Droid Sans;letter-spacing:-.5;word-spacing:0" x="503.51" y="338.26"><tspan x="503.51" y="338.26">- decltype(name) =&gt; returns the exact declared type</tspan><tspan x="503.51" y="348.26">- decltype(lvalue expr) =&gt; lvalue-ref to deduced type</tspan><tspan x="503.51" y="358.26">- decltype(rvalue expr) =&gt; deduce by value</tspan></text><text style="font-size:10;font-family:Droid Sans;letter-spacing:-.5;word-spacing:0" x="505.3" xml:space="preserve" y="378.83"><tspan style="font-size:10;font-family:Droid Sans Mono" x="505.3" y="378.83">int a;</tspan><tspan style="font-size:10;font-family:Droid Sans Mono" x="505.3" y="388.83">decltype(a)    // type = int</tspan><tspan style="font-size:10;font-family:Droid Sans Mono" x="505.3" y="398.83">decltype(<tspan style="fill:#f00">(a)</tspan>)  // type = <tspan style="fill:#f00">int&amp;</tspan></tspan></text><path d="m499.56 324.76h216.11v80.09h-216.11z" style="fill:none;stroke:#696969;stroke-width:.9"/></g><g transform="matrix(1.22 0 0 1.22 -715.09 -241.07)"><text style="font-size:10;font-family:Droid Sans;letter-spacing:-.5;word-spacing:0" x="473.68" y="437.89"><tspan x="473.68" y="437.89">By value captures will NOT remove CV qualification</tspan></text><text style="font-size:10;font-family:Droid Sans;letter-spacing:-.5;word-spacing:0" x="474.88" y="454.59"><tspan style="font-size:10;font-family:Droid Sans Mono" x="474.88" y="454.59">const int cx = 0;</tspan><tspan x="474.88" y="464.59"/><tspan style="font-size:10;font-family:Droid Sans Mono" x="474.88" y="474.59">// INVALID lambda::cx = const int</tspan><tspan style="font-size:10;font-family:Droid Sans Mono" x="474.88" y="484.59">auto l = [cx] { cx = 1; };</tspan></text><path d="m470.92 426.18h214.32v64.58h-214.32z" style="fill:none;stroke:#696969;stroke-width:.9"/></g><g style="fill:none"><g style="stroke:#ff8c00"><path d="m269.59 274.68-40.81 41.12" style="marker-start:url(#a)"/><path d="m124.83 300.15 45.3 34.32" style="marker-start:url(#b)"/><path d="m426.96 274.59-93.35 109.53" style="marker-start:url(#c)"/><path d="m304.52 275.57 13.52 57.55-44.41 59.29" style="marker-start:url(#d)"/></g><path d="m443.91 275.57 26.33 105.88" style="stroke:#ff1493;marker-start:url(#e)"/><path d="m542.7 274.03-29.36 108.4" style="stroke:#ff1493;marker-start:url(#f)"/><path d="m616.96 275.8-25.09-17.98" style="stroke:#f00;marker-start:url(#g)"/><g style="stroke:#00f"><path d="m466.4 194.42-29.86 41.62" style="marker-start:url(#h)"/><path d="m311.59 192.8.06 43.81" style="marker-start:url(#i)"/></g></g><g style="font-size:12.24;font-family:Droid Sans;letter-spacing:-.61181748;word-spacing:0"><text x="443.23" y="373.75"><tspan x="443.23" y="373.75">auto f() {}</tspan></text><text x="521.09" y="370.97"><tspan x="521.09" y="370.97">decltype(auto) f() {}</tspan></text><text x="135.13" y="305.04"><tspan x="135.13" y="305.04">by-value</tspan></text><text x="246.45" y="307.01"><tspan x="246.45" y="307.01">by-ref</tspan></text></g></g></svg>
