<svg height="300" viewBox="0 0 765.79 263.5" width="1100" xmlns="http://www.w3.org/2000/svg" xmlns:xlink="http://www.w3.org/1999/xlink">
<marker id="a" orient="auto" refX="0" refY="0" style="overflow:visible">
<path d="m5.77 0-8.65 5v-10z" style="fill:#f00;fill-rule:evenodd;stroke:#f00;stroke-width:1pt" transform="scale(-.4)"/>
</marker>
<marker id="b" orient="auto" refX="0" refY="0" style="overflow:visible">
<path d="m5.77 0-8.65 5v-10z" style="fill:#ff8c00;fill-rule:evenodd;stroke:#ff8c00;stroke-width:1pt" transform="scale(-.4)"/>
</marker>
<marker id="c" orient="auto" refX="0" refY="0" style="overflow:visible">
<path d="m5.77 0-8.65 5v-10z" style="fill:#ff8c00;fill-rule:evenodd;stroke:#ff8c00;stroke-width:1pt" transform="scale(-.4)"/>
</marker>
<marker id="d" orient="auto" refX="0" refY="0" style="overflow:visible">
<path d="m5.77 0-8.65 5v-10z" style="fill:#f00;fill-rule:evenodd;stroke:#f00;stroke-width:1pt" transform="scale(-.4)"/>
</marker>
<marker id="e" orient="auto" refX="0" refY="0" style="overflow:visible">
<path d="m5.77 0-8.65 5v-10z" style="fill:#ff8c00;fill-rule:evenodd;stroke:#ff8c00;stroke-width:1pt" transform="scale(-.4)"/>
</marker>
<marker id="f" orient="auto" refX="0" refY="0" style="overflow:visible">
<path d="m5.77 0-8.65 5v-10z" style="fill:#f00;fill-rule:evenodd;stroke:#f00;stroke-width:1pt" transform="scale(-.4)"/>
</marker>
<marker id="g" orient="auto" refX="0" refY="0" style="overflow:visible">
<path d="m5.77 0-8.65 5v-10z" style="fill:#f00;fill-rule:evenodd;stroke:#f00;stroke-width:1pt" transform="scale(-.4)"/>
</marker>
<marker id="h" orient="auto" refX="0" refY="0" style="overflow:visible">
<path d="m2.31 0-3.46 2v-4z" style="fill:#696969;fill-rule:evenodd;stroke:#696969;stroke-width:.4pt"/>
</marker>
<marker id="i" orient="auto" refX="0" refY="0" style="overflow:visible">
<path d="m2.31 0-3.46 2v-4z" style="fill:#696969;fill-rule:evenodd;stroke:#696969;stroke-width:.4pt"/>
</marker>
<g transform="translate(-16.14 17.3)">
<path d="m51.45 48.79h126.38l-32.74 77.85h-128.1z" style="fill:none;stroke:#696969;stroke-width:1.1;stroke-miterlimit:10"/>
<text style="font-size:10;font-family:Droid Sans;letter-spacing:-.5;word-spacing:0" x="53.59" xml:space="preserve" y="60.29">
<tspan style="font-size:10;font-family:DejaVu Sans Mono" x="53.59" y="60.29">lea 8(%edx), %ecx</tspan>
<tspan x="53.59" y="70.29"/>
<tspan style="font-size:10;font-family:DejaVu Sans Mono" x="53.59" y="80.29">     ....</tspan>
<tspan x="53.59" y="90.29"/>
<tspan style="font-size:10;font-family:DejaVu Sans Mono" x="53.59" y="100.29">mov %eax, 8(%edx)</tspan>
<tspan x="53.59" y="110.29"/>
<tspan style="font-size:10;font-family:DejaVu Sans Mono" x="53.59" y="120.29">mov (%ecx), %ebx</tspan>
</text>
<text style="font-size:10;font-family:Droid Sans;letter-spacing:-.5;word-spacing:0" x="27.56" xml:space="preserve" y="158.37">
<tspan x="27.56" y="158.37">Hidden memory dependency:</tspan>
<tspan x="27.56" y="168.37"/>
<tspan x="27.56" y="178.37"> - %ecx and %edx+8 point to the same address</tspan>
<tspan x="27.56" y="188.37"> - There is no way to detect the dependency</tspan>
<tspan x="27.56" y="198.37">    before calculating the address on a later</tspan>
<tspan x="27.56" y="208.37">    stage of the pipeline</tspan>
</text>
<path d="m28.25 159.88h117.9" style="fill:none;stroke:#000;stroke-width:.8"/>
<path d="m216 97.04h87.25v24.36h-87.25z" style="fill:none;stroke:#00f;stroke-width:1.1"/>
<text style="font-size:10;font-family:Droid Sans;letter-spacing:-.5;word-spacing:0" x="222.64" y="111.43">
<tspan x="222.64" y="111.43">Reordering buffer</tspan>
</text>
<g transform="translate(-10.77 .43)">
<path d="m344.18 70.62h69.17v24.36h-69.17z" style="fill:none;stroke:#00f;stroke-width:1.1"/>
<text style="font-size:10;font-family:Droid Sans;letter-spacing:-.5;word-spacing:0" x="349.16" y="86.21">
<tspan x="349.16" y="86.21">Execution Unit</tspan>
</text>
</g>
<g transform="translate(69.09 48.87)">
<path d="m344.18 70.62h69.17v24.36h-69.17z" style="fill:none;stroke:#00f;stroke-width:1.1"/>
<text style="font-size:10;font-family:Droid Sans;letter-spacing:-.5;word-spacing:0" x="349.16" y="86.21">
<tspan x="349.16" y="86.21">Execution Unit</tspan>
</text>
</g>
<g transform="translate(-136.08 -14.07)">
<g style="fill:none">
<path d="m348.84 118.18-64.87-6.89" style="stroke:#f00;marker-start:url(#a)"/>
<path d="m348.87 126.77-69.61 5.17" style="stroke:#ff8c00;marker-start:url(#b)"/>
<path d="m467.5 97.56-27.84 31.87" style="stroke:#ff8c00;marker-start:url(#c)"/>
<path d="m546.53 146.58-107.5-28.42" style="stroke:#f00;marker-start:url(#d)"/>
</g>
<text style="font-size:10;font-family:Droid Sans;letter-spacing:-.5;word-spacing:0" x="415.99" y="153.06">
<tspan x="415.99" y="153.06">Out of order execution</tspan>
<tspan x="415.99" y="163.06">Of dependent instructions</tspan>
</text>
<g style="fill:none">
<path d="m590.23 74.72-51.96 17.66" style="stroke:#ff8c00;marker-start:url(#e)"/>
<g style="stroke:#f00">
<path d="m671.28 159.2-52.82-13.78" style="marker-start:url(#f)"/>
<path d="m742.98 73.5 90.73.32v84.42l-12.2.09" style="marker-start:url(#g)"/>
</g>
</g>
<text style="font-size:10;font-family:Droid Sans;letter-spacing:-.5;word-spacing:0" x="756.19" xml:space="preserve" y="39.81">
<tspan x="756.19" y="39.81">Detected RAW violation</tspan>
<tspan x="756.19" y="49.81"> - A dependent load took place before its</tspan>
<tspan x="756.19" y="59.81">   associated store</tspan>
<tspan x="756.19" y="69.81"> =&gt; Flush pipeline ?</tspan>
</text>
<g style="fill:none;stroke:#696969">
<path d="m208.43 166.4 12.92-28.18" style="marker-end:url(#h)"/>
<path d="m231.44 166.87 20.78-49.02" style="marker-end:url(#i)"/>
</g>
</g>
<g style="fill:none;stroke:#008000;stroke-width:.88" transform="matrix(1.56 0 0 1 130.35 -237.22)">
<path d="m209.41 276.35h95v55.03h-95z"/>
<path d="m209.2 289.76h94.91"/>
<path d="m209.2 303.72h94.91"/>
<path d="m209.38 317.68h94.91"/>
</g>
<text style="font-size:10;font-family:Droid Sans;letter-spacing:-.5;word-spacing:0" x="457.76" xml:space="preserve" y="27.03">
<tspan x="457.76" y="27.03">Load Buffer</tspan>
<tspan x="457.76" y="37.03">Timestamp  |  Address   |  Inst Data</tspan>
</text>
<path d="m510.3 39.52v54.26" style="fill:none;stroke:#008000"/>
<text style="font-size:10;font-family:Droid Sans;letter-spacing:-.5;word-spacing:0" transform="translate(-136.08 -14.07)" x="607.19" y="77.27">
<tspan x="607.19" y="77.27">0123</tspan>
</text>
<text style="font-size:10;font-family:Droid Sans;letter-spacing:-.5;word-spacing:0" transform="translate(-136.08 -14.07)" x="654.13" y="76.41">
<tspan x="654.13" y="76.41">0xAABB</tspan>
</text>
<path d="m558.53 39.52v54.26" style="fill:none;stroke:#008000"/>
<g style="fill:none;stroke:#32cd32;stroke-width:.88" transform="matrix(1.56 0 0 1 211.96 -150.91)">
<path d="m209.41 276.35h95v55.03h-95z"/>
<path d="m209.2 289.76h94.91"/>
<path d="m209.2 303.72h94.91"/>
<path d="m209.38 317.68h94.91"/>
</g>
<text style="font-size:10;font-family:Droid Sans;letter-spacing:-.5;word-spacing:0" x="539.37" xml:space="preserve" y="113.34">
<tspan x="539.37" y="113.34">Store Buffer</tspan>
<tspan x="539.37" y="123.34">Timestamp  |  Address   |  Inst Data</tspan>
</text>
<path d="m591.9 125.82v54.26" style="fill:none;stroke:#32cd32"/>
<text style="font-size:10;font-family:Droid Sans;letter-spacing:-.5;word-spacing:0" x="552.72" y="149.51">
<tspan x="552.72" y="149.51">0456</tspan>
</text>
<text style="font-size:10;font-family:Droid Sans;letter-spacing:-.5;word-spacing:0" x="599.66" y="148.65">
<tspan x="599.66" y="148.65">0xAABB</tspan>
</text>
<path d="m640.13 125.82v54.26" style="fill:none;stroke:#32cd32"/>
</g>
</svg>