<svg height="400" viewBox="0 0 1086.86 391.91" width="1100" xmlns="http://www.w3.org/2000/svg" xmlns:xlink="http://www.w3.org/1999/xlink">
<marker id="a" orient="auto" refX="0" refY="0" style="overflow:visible">
<path d="m5.77 0-8.65 5v-10z" style="fill:#f00;fill-rule:evenodd;stroke:#f00;stroke-width:1pt" transform="scale(-.4)"/>
</marker>
<marker id="b" orient="auto" refX="0" refY="0" style="overflow:visible">
<path d="m5.77 0-8.65 5v-10z" style="fill:#00f;fill-rule:evenodd;stroke:#00f;stroke-width:1pt" transform="scale(-.4)"/>
</marker>
<marker id="c" orient="auto" refX="0" refY="0" style="overflow:visible">
<path d="m5.77 0-8.65 5v-10z" style="fill:#f00;fill-rule:evenodd;stroke:#f00;stroke-width:1pt" transform="scale(-.4)"/>
</marker>
<marker id="d" orient="auto" refX="0" refY="0" style="overflow:visible">
<path d="m5.77 0-8.65 5v-10z" style="fill:#00f;fill-rule:evenodd;stroke:#00f;stroke-width:1pt" transform="scale(-.4)"/>
</marker>
<marker id="e" orient="auto" refX="0" refY="0" style="overflow:visible">
<path d="m5.77 0-8.65 5v-10z" style="fill:#00f;fill-rule:evenodd;stroke:#00f;stroke-width:1pt" transform="scale(-.4)"/>
</marker>
<marker id="f" orient="auto" refX="0" refY="0" style="overflow:visible">
<path d="m5.77 0-8.65 5v-10z" style="fill:#00f;fill-rule:evenodd;stroke:#00f;stroke-width:1pt" transform="scale(-.4)"/>
</marker>
<marker id="g" orient="auto" refX="0" refY="0" style="overflow:visible">
<path d="m5.77 0-8.65 5v-10z" style="fill:#f00;fill-rule:evenodd;stroke:#f00;stroke-width:1pt" transform="scale(-.4)"/>
</marker>
<marker id="h" orient="auto" refX="0" refY="0" style="overflow:visible">
<path d="m5.77 0-8.65 5v-10z" style="fill:#f00;fill-rule:evenodd;stroke:#f00;stroke-width:1pt" transform="scale(-.4)"/>
</marker>
<marker id="i" orient="auto" refX="0" refY="0" style="overflow:visible">
<path d="m5.77 0-8.65 5v-10z" style="fill:#f00;fill-rule:evenodd;stroke:#f00;stroke-width:1pt" transform="scale(-.4)"/>
</marker>
<marker id="j" orient="auto" refX="0" refY="0" style="overflow:visible">
<path d="m5.77 0-8.65 5v-10z" style="fill:#f00;fill-rule:evenodd;stroke:#f00;stroke-width:1pt" transform="scale(-.4)"/>
</marker>
<marker id="k" orient="auto" refX="0" refY="0" style="overflow:visible">
<path d="m5.77 0-8.65 5v-10z" style="fill:#f00;fill-rule:evenodd;stroke:#f00;stroke-width:1pt" transform="scale(-.4)"/>
</marker>
<marker id="l" orient="auto" refX="0" refY="0" style="overflow:visible">
<path d="m5.77 0-8.65 5v-10z" style="fill:#00f;fill-rule:evenodd;stroke:#00f;stroke-width:1pt" transform="scale(-.4)"/>
</marker>
<g transform="translate(-35.38 -47.3)">
<path d="m35.93 84.65h181.13v65.77h-181.13z" style="fill:none;stroke:#00f;stroke-width:1.1"/>
<text style="font-size:10;font-family:Droid Sans;letter-spacing:-.5;word-spacing:0" x="41.27" xml:space="preserve" y="100.5">
<tspan x="41.27" y="100.5">Fetch:</tspan>
<tspan x="41.27" y="110.5"/>
<tspan x="41.27" y="120.5"> - Puts code into the instruction cache</tspan>
<tspan x="41.27" y="130.5"> - 4Ko read ahead to instruction pointer</tspan>
</text>
<text style="font-size:10;font-family:Droid Sans;letter-spacing:-.5;word-spacing:0" x="252.78" xml:space="preserve" y="98.94">
<tspan x="252.78" y="98.94">Decode:</tspan>
<tspan x="252.78" y="108.94"/>
<tspan x="252.78" y="118.94"> - Transforms assembler ops into micro ops</tspan>
<tspan x="252.78" y="128.94"> - Many instructions decoded in parallel</tspan>
</text>
<path d="m249.63 84.57h184.63v65.77h-184.63z" style="fill:none;stroke:#00f;stroke-width:1.1"/>
<text style="font-size:10;font-family:Droid Sans;letter-spacing:-.5;word-spacing:0" x="687.72" xml:space="preserve" y="97.65">
<tspan x="687.72" y="97.65">Register renaming:</tspan>
<tspan x="687.72" y="107.65"/>
<tspan x="687.72" y="117.65"> - Rewrite uops to use hidden registers</tspan>
<tspan x="687.72" y="127.65"> =&gt; Processor state is not changed until </tspan>
<tspan x="687.72" y="137.65">       retirment</tspan>
</text>
<text style="font-size:10;font-family:Droid Sans;letter-spacing:-.5;word-spacing:0" x="469.82" xml:space="preserve" y="98.94">
<tspan x="469.82" y="98.94">Branch prediction:</tspan>
<tspan x="469.82" y="108.94"/>
<tspan x="469.82" y="118.94"> - Speculatively decide which jump branch</tspan>
<tspan x="469.82" y="128.94">   to take (feed it into the pipeline)</tspan>
</text>
<g style="fill:none;stroke:#00f;stroke-width:1.1">
<path d="m464.95 83.71h181.13v65.77h-181.13z"/>
<path d="m681.56 83.28h181.13v65.77h-181.13z"/>
<path d="m899.03 83.71h181.13v65.77h-181.13z"/>
</g>
<text style="font-size:10;font-family:Droid Sans;letter-spacing:-.5;word-spacing:0" x="905.19" xml:space="preserve" y="97.22">
<tspan x="905.19" y="97.22">Reordering buffer:</tspan>
<tspan x="905.19" y="107.22"/>
<tspan x="905.19" y="117.22"> - Decides which uops to run in //</tspan>
<tspan x="905.19" y="127.22"> - Ensures depedent uops run sequentially</tspan>
<tspan x="905.19" y="137.22"> - Capacity &gt; 128 uops</tspan>
</text>
<g transform="translate(187.33 -103.35)">
<text style="font-size:10;font-family:Droid Sans;letter-spacing:-.5;word-spacing:0" x="619.25" y="299.19">
<tspan x="619.25" y="299.19">Execution unit</tspan>
</text>
<g style="fill:none;stroke:#ff4500;stroke-width:.47" transform="matrix(3.25 0 0 1.7 -46.44 -169.93)">
<path d="m203.41 269.18h95v65.77h-95z"/>
<path d="m297.97 271.25h1.9v65.77h-95v-2.51"/>
<path d="m299.73 273.96h1.9v65.77h-95v-2.51"/>
</g>
<g transform="translate(-239.43 143.83)">
<text style="font-size:10;font-family:Droid Sans;letter-spacing:-.5;word-spacing:0" x="866" xml:space="preserve" y="194.97">
<tspan x="866" y="194.97">AGU (address generation unit):</tspan>
<tspan x="866" y="204.97"/>
<tspan x="866" y="214.97"> - Calculates memory addresses</tspan>
<tspan x="866" y="224.97">   from registers</tspan>
<tspan x="866" y="234.97"> - Ex : 8(%eax, %edx, 1)</tspan>
</text>
<path d="m862.42 183.19h138.93v58.88h-138.93z" style="fill:none;stroke:#ff4500;stroke-width:1.1"/>
</g>
<g transform="translate(-241.15 100.77)">
<text style="font-size:10;font-family:Droid Sans;letter-spacing:-.5;word-spacing:0" x="1025.77" y="281.53">
<tspan x="1025.77" y="281.53">ALU (Arithmetical/logical unit)</tspan>
</text>
<path d="m1021.76 268.88h130.75v19.69h-130.75z" style="fill:none;stroke:#ff4500;stroke-width:1.1"/>
<text style="font-size:10;font-family:Droid Sans;letter-spacing:-.5;word-spacing:0" x="1028.78" y="222.53">
<tspan x="1028.78" y="222.53">FPU (Floating point unit)</tspan>
</text>
<path d="m1021.54 209.67h130.75v19.69h-130.75z" style="fill:none;stroke:#ff4500;stroke-width:1.1"/>
<g transform="translate(74.93 -36.6)">
<text style="font-size:10;font-family:Droid Sans;letter-spacing:-.5;word-spacing:0" x="951.27" y="290.14">
<tspan x="951.27" y="290.14">Memory write/read</tspan>
</text>
<path d="m947.04 276.42h130.75v19.69h-130.75z" style="fill:none;stroke:#ff4500;stroke-width:1.1"/>
</g>
</g>
</g>
<text style="font-size:10;font-family:Droid Sans;letter-spacing:-.5;word-spacing:0" x="603.32" y="255.69">
<tspan x="603.32" y="255.69">Some operations can only be executed</tspan>
<tspan x="603.32" y="265.69">at certain units (ex: division goes to unit 0</tspan>
<tspan x="603.32" y="275.69">in Sandy Bridge)</tspan>
</text>
<path d="m800.57 232.01-39.04 20.24" style="fill:none;stroke:#f00;marker-start:url(#a)"/>
<text style="font-size:10;font-family:Droid Sans;letter-spacing:-.5;word-spacing:0;fill:#f00" x="1027.24" y="171.13">
<tspan x="1027.24" y="171.13">Out of order execution</tspan>
</text>
<path d="m1027.57 172.92h90.69" style="fill:none;stroke:#f00;stroke-width:.8"/>
<g transform="translate(176.08 -85.29)">
<text style="font-size:10;font-family:Droid Sans;letter-spacing:-.5;word-spacing:0;fill:#f00" x="840.57" y="409.13">
<tspan x="840.57" y="409.13">uops reordered as in asm</tspan>
</text>
<path d="m840.9 410.92h102.51" style="fill:none;stroke:#f00;stroke-width:.8"/>
</g>
<path d="m863.62 337.45h181.13v65.77h-181.13z" style="fill:none;stroke:#00f;stroke-width:1.1"/>
<text style="font-size:10;font-family:Droid Sans;letter-spacing:-.5;word-spacing:0" x="870.16" xml:space="preserve" y="347.53">
<tspan x="870.16" y="347.53">Retirement:</tspan>
<tspan x="870.16" y="357.53"/>
<tspan x="870.16" y="367.53"> - Flushes store buffer to cache</tspan>
<tspan x="870.16" y="377.53"> - Writes hidden registers to standard</tspan>
<tspan x="870.16" y="387.53">   registers</tspan>
<tspan x="870.16" y="397.53"> - Removes instruction from pipeline</tspan>
</text>
<g style="fill:none">
<path d="m244.8 117.41h-27.99" style="stroke:#00f;stroke-width:1.5;marker-start:url(#b)"/>
<path d="m899.57 183.28 55.74-33.36" style="stroke:#f00;marker-start:url(#c)"/>
<g style="stroke:#00f;stroke-width:1.5">
<path d="m460.5 116.57h-26.04" style="marker-start:url(#d)"/>
<path d="m677.24 118.68h-30.93" style="marker-start:url(#e)"/>
<path d="m894.16 116.99h-31.66" style="marker-start:url(#f)"/>
</g>
<g style="stroke:#f00">
<path d="m1005.89 182.99-50.03-33.36" style="marker-start:url(#g)"/>
<path d="m956.1 182.56.01-33.36" style="marker-start:url(#h)"/>
<path d="m955.03 335.18.01-39.86" style="marker-start:url(#i)"/>
<path d="m949.96 336.28-45.6-40.26" style="marker-start:url(#j)"/>
<path d="m959.62 336.09 45.8-40.25" style="marker-start:url(#k)"/>
</g>
<path d="m184.82 154.7-.34 34.01 363.14-2.01.11-37.5" style="stroke:#00f;stroke-width:1.5;marker-start:url(#l)"/>
</g>
</g>
</svg>