<svg height="630" width="930" viewBox="0 0 1098.21 745.51" xmlns="http://www.w3.org/2000/svg" xmlns:xlink="http://www.w3.org/1999/xlink"><marker id="a" orient="auto" refX="0" refY="0" style="overflow:visible"><path d="m5.77 0-8.65 5v-10z" style="fill:#ff8c00;fill-rule:evenodd;stroke:#ff8c00;stroke-width:1pt" transform="scale(-.4)"/></marker><marker id="b" orient="auto" refX="0" refY="0" style="overflow:visible"><path d="m2.31 0-3.46 2v-4z" style="fill:#ff8c00;fill-rule:evenodd;stroke:#ff8c00;stroke-width:.4pt"/></marker><marker id="c" orient="auto" refX="0" refY="0" style="overflow:visible"><path d="m5.77 0-8.65 5v-10z" style="fill:#ff8c00;fill-rule:evenodd;stroke:#ff8c00;stroke-width:1pt" transform="scale(-.4)"/></marker><marker id="d" orient="auto" refX="0" refY="0" style="overflow:visible"><path d="m2.31 0-3.46 2v-4z" style="fill:#ff8c00;fill-rule:evenodd;stroke:#ff8c00;stroke-width:.4pt"/></marker><marker id="e" orient="auto" refX="0" refY="0" style="overflow:visible"><path d="m2.31 0-3.46 2v-4z" style="fill:#ff8c00;fill-rule:evenodd;stroke:#ff8c00;stroke-width:.4pt"/></marker><marker id="f" orient="auto" refX="0" refY="0" style="overflow:visible"><path d="m2.31 0-3.46 2v-4z" style="fill:#f00;fill-rule:evenodd;stroke:#f00;stroke-width:.4pt"/></marker><marker id="g" orient="auto" refX="0" refY="0" style="overflow:visible"><path d="m2.31 0-3.46 2v-4z" style="fill:#f00;fill-rule:evenodd;stroke:#f00;stroke-width:.4pt"/></marker><marker id="h" orient="auto" refX="0" refY="0" style="overflow:visible"><path d="m5.77 0-8.65 5v-10z" style="fill:#696969;fill-rule:evenodd;stroke:#696969;stroke-width:1pt" transform="scale(-.4)"/></marker><marker id="i" orient="auto" refX="0" refY="0" style="overflow:visible"><path d="m2.31 0-3.46 2v-4z" style="fill:#ff8c00;fill-rule:evenodd;stroke:#ff8c00;stroke-width:.4pt"/></marker><marker id="j" orient="auto" refX="0" refY="0" style="overflow:visible"><path d="m2.31 0-3.46 2v-4z" style="fill:#ff8c00;fill-rule:evenodd;stroke:#ff8c00;stroke-width:.4pt"/></marker><marker id="k" orient="auto" refX="0" refY="0" style="overflow:visible"><path d="m2.31 0-3.46 2v-4z" style="fill:#ff8c00;fill-rule:evenodd;stroke:#ff8c00;stroke-width:.4pt"/></marker><marker id="l" orient="auto" refX="0" refY="0" style="overflow:visible"><path d="m5.77 0-8.65 5v-10z" style="fill:#696969;fill-rule:evenodd;stroke:#696969;stroke-width:1pt" transform="scale(-.4)"/></marker><marker id="m" orient="auto" refX="0" refY="0" style="overflow:visible"><path d="m2.31 0-3.46 2v-4z" style="fill:#ff8c00;fill-rule:evenodd;stroke:#ff8c00;stroke-width:.4pt"/></marker><marker id="n" orient="auto" refX="0" refY="0" style="overflow:visible"><path d="m2.31 0-3.46 2v-4z" style="fill:#ff8c00;fill-rule:evenodd;stroke:#ff8c00;stroke-width:.4pt"/></marker><marker id="o" orient="auto" refX="0" refY="0" style="overflow:visible"><path d="m5.77 0-8.65 5v-10z" style="fill:#696969;fill-rule:evenodd;stroke:#696969;stroke-width:1pt" transform="scale(-.4)"/></marker><marker id="p" orient="auto" refX="0" refY="0" style="overflow:visible"><path d="m2.31 0-3.46 2v-4z" style="fill:#ff8c00;fill-rule:evenodd;stroke:#ff8c00;stroke-width:.4pt"/></marker><marker id="q" orient="auto" refX="0" refY="0" style="overflow:visible"><path d="m2.31 0-3.46 2v-4z" style="fill:#ff8c00;fill-rule:evenodd;stroke:#ff8c00;stroke-width:.4pt"/></marker><marker id="r" orient="auto" refX="0" refY="0" style="overflow:visible"><path d="m2.31 0-3.46 2v-4z" style="fill:#ff8c00;fill-rule:evenodd;stroke:#ff8c00;stroke-width:.4pt"/></marker><marker id="s" orient="auto" refX="0" refY="0" style="overflow:visible"><path d="m5.77 0-8.65 5v-10z" style="fill:#696969;fill-rule:evenodd;stroke:#696969;stroke-width:1pt" transform="scale(-.4)"/></marker><marker id="t" orient="auto" refX="0" refY="0" style="overflow:visible"><path d="m2.31 0-3.46 2v-4z" style="fill:#ff8c00;fill-rule:evenodd;stroke:#ff8c00;stroke-width:.4pt"/></marker><marker id="u" orient="auto" refX="0" refY="0" style="overflow:visible"><path d="m2.31 0-3.46 2v-4z" style="fill:#ff8c00;fill-rule:evenodd;stroke:#ff8c00;stroke-width:.4pt"/></marker><marker id="v" orient="auto" refX="0" refY="0" style="overflow:visible"><path d="m2.31 0-3.46 2v-4z" style="fill:#ff8c00;fill-rule:evenodd;stroke:#ff8c00;stroke-width:.4pt"/></marker><marker id="w" orient="auto" refX="0" refY="0" style="overflow:visible"><path d="m2.31 0-3.46 2v-4z" style="fill:#ff8c00;fill-rule:evenodd;stroke:#ff8c00;stroke-width:.4pt"/></marker><marker id="x" orient="auto" refX="0" refY="0" style="overflow:visible"><path d="m2.31 0-3.46 2v-4z" style="fill:#ff8c00;fill-rule:evenodd;stroke:#ff8c00;stroke-width:.4pt"/></marker><g transform="translate(122.09 -150.5)"><g style="fill:none;stroke:#f00;stroke-width:.91" transform="matrix(1 0 0 1.2 0 -40.15)"><path d="m135.89 216.78v134.23h21.07v-134.23h10.53l-22.12-18.79-21.77 18.49z"/><path d="m135.89 350.56v-134.23h21.07v134.23h10.53l-22.12 18.79-21.77-18.49z"/></g><path d="m-77.63 290.76h171.96v83.07h-171.96z" style="fill:none;stroke:#ff8c00;stroke-width:1.1"/><text style="font-size:10;font-family:Droid Sans;letter-spacing:-.5;word-spacing:0" x="-73.68" y="302.17"><tspan x="-73.68" y="302.17">Home Socket</tspan></text><path d="m222.7 357.95h-125.49" style="fill:none;stroke:#ff8c00;marker-end:url(#b)"/><g transform="translate(115.14 1.79)"><path d="m253.57 391.68h48.12" style="fill:none;stroke:#696969;marker-start:url(#c)"/><text style="font-size:10;font-family:Droid Sans;letter-spacing:-.5;word-spacing:0" x="257.73" y="388.69"><tspan x="257.73" y="388.69">Load 0x00</tspan></text></g><g style="fill:none;stroke:#008000" transform="translate(-163.46 -192.99)"><g style="stroke-width:1.35" transform="matrix(.66 0 0 1 -36.4 242.52)"><path d="m204.2 275.2h95v41.37h-95z"/><path d="m203.99 288.64h94.91"/><path d="m203.99 302.6h94.91"/></g><g style="stroke-width:1.1"><path d="m161.87 517.72h48.53v41.37h-48.53z"/><path d="m161.76 531.16h48.48"/><path d="m161.76 545.12h48.48"/><path d="m210.78 517.72h36.61v41.37h-36.61z"/><path d="m210.7 531.16h36.57"/><path d="m210.7 545.12h36.57"/></g></g><text style="font-size:10;font-family:Droid Sans;letter-spacing:-.5;word-spacing:0" x="-63.24" xml:space="preserve" y="321.56"><tspan x="-63.24" y="321.56">State                  | Presence   | Data</tspan></text><g transform="translate(0 -242.21)"><g style="fill:none;stroke:#32cd32;stroke-width:1.7;stroke-miterlimit:10" transform="matrix(.67 0 0 .61 320.15 204.02)"><ellipse cx="312.74" cy="424.64" rx="34.8" ry="7.07"/><path d="m347.35 477.12c0 3.91-15.58 7.07-34.8 7.07s-34.8-3.17-34.8-7.07"/><path d="m277.94 477.87v-53.6m69.23 0v53.6"/></g><text style="font-size:10;font-family:Droid Sans;letter-spacing:-.5;word-spacing:0" x="510.97" y="479.05"><tspan x="510.97" y="479.05">Socket</tspan><tspan x="510.97" y="489.05">Memory</tspan></text></g><g transform="translate(-9.55 -421.48)"><g style="fill:none;stroke:#32cd32;stroke-width:1.04;stroke-miterlimit:10" transform="matrix(1.12 0 0 .96 -287.56 212.49)"><ellipse cx="312.74" cy="424.64" rx="34.8" ry="7.07"/><path d="m347.35 477.12c0 3.91-15.58 7.07-34.8 7.07s-34.8-3.17-34.8-7.07"/><path d="m277.94 477.87v-53.6m69.23 0v53.6"/></g><text style="font-size:10;font-family:Droid Sans;letter-spacing:-.5;word-spacing:0" transform="translate(-188.52 340.35)" x="219.24" y="298.89"><tspan x="219.24" y="298.89">Socket Memory</tspan></text><g style="fill:none;stroke:#008000;stroke-width:.9"><path d="m31.81 647.1h25.03v15.89h-25.03z"/><path d="m31.75 652.26h25"/><path d="m31.75 657.62h25"/><path d="m57 647.1h19.33v15.89h-19.33z"/><path d="m56.95 652.26h19.31"/><path d="m56.95 657.62h19.31"/><path d="m76.48 647.1h14.58v15.89h-14.58z"/><path d="m76.45 652.26h14.57"/><path d="m76.45 657.62h14.57"/></g></g><path d="m221.85 332.52h144.52v68.76h-144.52z" style="fill:none;stroke:#ff8c00;stroke-width:1.1"/><text style="font-size:10;font-family:Droid Sans;letter-spacing:-.5;word-spacing:0" x="226.1" y="344.82"><tspan x="226.1" y="344.82">Socket 1</tspan></text><g transform="translate(-228.49 -112.16)"><text style="font-size:10;font-family:Droid Sans;letter-spacing:-.5;word-spacing:0" x="463.54" y="402.69"><tspan x="463.54" y="402.69">Socket 2</tspan></text><path d="m450.64 385.02h59.21v30.57h-59.21z" style="fill:none;stroke:#ff8c00;stroke-width:1.1"/></g><g transform="translate(-292.32 -124.09)"><text style="font-size:10;font-family:Droid Sans;letter-spacing:-.5;word-spacing:0" x="526.18" y="361.53"><tspan x="526.18" y="361.53">Socket 3</tspan></text><path d="m513.88 342.66h59.21v30.57h-59.21z" style="fill:none;stroke:#ff8c00;stroke-width:1.1"/></g><g style="font-size:10;font-family:Droid Sans;letter-spacing:-.5;word-spacing:0"><text x="-51.9" xml:space="preserve" y="334.68"><tspan style="fill:#00f" x="-51.9" y="334.68">Shared                1 1 0 0</tspan></text><text x="-52.46" xml:space="preserve" y="348.57"><tspan x="-52.46" y="348.57">Invalid                 0 0 0 0</tspan></text><text x="-52.46" xml:space="preserve" y="362.29"><tspan x="-52.46" y="362.29">Invalid                 0 0 0 0</tspan></text><text x="115.74" y="368.68"><tspan x="115.74" y="368.68">1) Fetch line from home</tspan></text><text x="-60.25" y="387.78"><tspan x="-60.25" y="387.78">Home socket will put line in its cache</tspan><tspan x="-60.25" y="397.78">=&gt; you do not get exclusive state ??</tspan></text></g><path d="m27.06 290.04v-33.96" style="fill:none;stroke:#ff8c00;marker-end:url(#d)"/><text style="font-size:10;font-family:Droid Sans;letter-spacing:-.5;word-spacing:0" x="29.23" y="270.85"><tspan x="29.23" y="270.85">2) Fetch data from socket</tspan><tspan x="29.23" y="280.85">memory</tspan></text><text style="font-size:10;font-family:Droid Sans;letter-spacing:-.5;word-spacing:0;fill:#f00" x="109.17" y="414.62"><tspan x="109.17" y="414.62">Socket interconnect</tspan><tspan x="109.17" y="424.62">(point-to-point)</tspan></text><path d="m93.94 337.07h125.49" style="fill:none;stroke:#ff8c00;marker-end:url(#e)"/><text style="font-size:10;font-family:Droid Sans;letter-spacing:-.5;word-spacing:0" x="113.95" y="346.61"><tspan x="113.95" y="346.61">3) Send data + directory</tspan></text><text style="font-size:10;font-family:Droid Sans;letter-spacing:-.5;word-spacing:0" x="-87.1" y="158.09"><tspan x="-87.1" y="158.09">Every memory block must have its directory</tspan><tspan x="-87.1" y="168.09">=&gt; space overhead</tspan><tspan x="-87.1" y="178.09">Otherwise home node needs to hold all blocks</tspan><tspan x="-87.1" y="188.09">shared in all sockets</tspan></text><g style="fill:none"><path d="m-39.09 189.11 59.27 42.95" style="stroke:#f00;marker-end:url(#f)"/><g style="stroke:#008000;stroke-width:1.1"><path d="m256.67 350.98h62.83v41.37h-62.83z"/><path d="m256.53 364.42h62.77"/><path d="m256.53 378.38h62.77"/><path d="m319.3 350.98h36.61v41.37h-36.61z"/><path d="m319.22 364.42h36.57"/><path d="m319.22 378.38h36.57"/></g></g><g style="font-size:10;font-family:Droid Sans;letter-spacing:-.5;word-spacing:0"><text x="269.59" y="360.93"><tspan style="fill:#00f" x="269.59" y="360.93">Shared</tspan></text><text x="269.03" y="374.82"><tspan x="269.03" y="374.82">Invalid</tspan></text><text x="269.03" y="388.54"><tspan x="269.03" y="388.54">Invalid</tspan></text><text x="281.58" xml:space="preserve" y="348.4"><tspan x="281.58" y="348.4">State       | Data</tspan></text><text x="201.05" y="427.75"><tspan x="201.05" y="427.75">Lines cached belonging to other</tspan><tspan x="201.05" y="437.75">sockets MAY NOT need a presence</tspan><tspan x="201.05" y="447.75">vector (avoids update messages)</tspan></text></g><g style="fill:none"><path d="m249.77 419.97 25.26-27.44" style="stroke:#f00;marker-end:url(#g)"/><g style="stroke:#f00;stroke-width:.91" transform="matrix(1 0 0 1.2 522.17 -37.41)"><path d="m135.89 216.78v134.23h21.07v-134.23h10.53l-22.12-18.79-21.77 18.49z"/><path d="m135.89 350.56v-134.23h21.07v134.23h10.53l-22.12 18.79-21.77-18.49z"/></g><path d="m444.54 300.66h171.96v75.91h-171.96z" style="stroke:#ff8c00;stroke-width:1.1"/></g><text style="font-size:10;font-family:Droid Sans;letter-spacing:-.5;word-spacing:0" x="448.49" y="312.66"><tspan x="448.49" y="312.66">Home Socket</tspan></text><g transform="translate(637.91 -61.69)"><path d="m253.57 391.68h48.12" style="fill:none;stroke:#696969;marker-start:url(#h)"/><text style="font-size:10;font-family:Droid Sans;letter-spacing:-.5;word-spacing:0" x="257.73" y="388.69"><tspan x="257.73" y="388.69">Store 0x10</tspan></text></g><g style="fill:none;stroke:#008000" transform="translate(358.71 -190.25)"><g style="stroke-width:1.35" transform="matrix(.66 0 0 1 -36.4 242.52)"><path d="m204.2 275.2h95v41.37h-95z"/><path d="m203.99 288.64h94.91"/><path d="m203.99 302.6h94.91"/></g><g style="stroke-width:1.1"><path d="m161.87 517.72h48.53v41.37h-48.53z"/><path d="m161.76 531.16h48.48"/><path d="m161.76 545.12h48.48"/><path d="m210.78 517.72h36.61v41.37h-36.61z"/><path d="m210.7 531.16h36.57"/><path d="m210.7 545.12h36.57"/></g></g><path d="m744.62 269.04h144.52v68.76h-144.52z" style="fill:none;stroke:#ff8c00;stroke-width:1.1"/><text style="font-size:10;font-family:Droid Sans;letter-spacing:-.5;word-spacing:0" x="748.87" y="281.34"><tspan x="748.87" y="281.34">Socket 2</tspan></text><g transform="translate(294.28 -30.67)"><text style="font-size:10;font-family:Droid Sans;letter-spacing:-.5;word-spacing:0" x="463.54" y="402.69"><tspan x="463.54" y="402.69">Socket 1</tspan></text><path d="m450.64 385.02h59.21v30.57h-59.21z" style="fill:none;stroke:#ff8c00;stroke-width:1.1"/></g><g transform="translate(229.85 -121.35)"><text style="font-size:10;font-family:Droid Sans;letter-spacing:-.5;word-spacing:0" x="526.18" y="361.53"><tspan x="526.18" y="361.53">Socket 3</tspan></text><path d="m513.88 342.66h59.21v30.57h-59.21z" style="fill:none;stroke:#ff8c00;stroke-width:1.1"/></g><g style="font-size:10;font-family:Droid Sans;letter-spacing:-.5;word-spacing:0"><text x="470.27" xml:space="preserve" y="337.42"><tspan x="470.27" y="337.42">Shared                1 1 0 0</tspan></text><text x="469.71" xml:space="preserve" y="351.31"><tspan style="fill:#00f" x="469.71" y="351.31">Invalid                 0 0 1 0</tspan></text><text x="469.71" xml:space="preserve" y="365.03"><tspan x="469.71" y="365.03">Invalid                 0 0 0 0</tspan></text></g><g style="fill:none;stroke:#008000;stroke-width:1.1"><path d="m779.44 287.5h62.83v41.37h-62.83z"/><path d="m779.3 300.94h62.77"/><path d="m779.3 314.9h62.77"/><path d="m842.07 287.5h36.61v41.37h-36.61z"/><path d="m841.99 300.94h36.57"/><path d="m841.99 314.9h36.57"/></g><g style="font-size:10;font-family:Droid Sans;letter-spacing:-.5;word-spacing:0"><text x="792.36" y="297.45"><tspan x="792.36" y="297.45">Invalid</tspan></text><text x="788.22" y="311.34"><tspan style="fill:#00f" x="788.22" y="311.34">Modified</tspan></text><text x="791.8" y="325.06"><tspan x="791.8" y="325.06">Invalid</tspan></text></g><path d="m519.5 299.74v-40.89" style="fill:none;stroke:#ff8c00;marker-end:url(#i)"/><path d="m744.25 330.77h-124.84" style="fill:none;stroke:#ff8c00;marker-end:url(#j)"/><text style="font-size:10;font-family:Droid Sans;letter-spacing:-.5;word-spacing:0" x="632" y="340.36"><tspan x="632" y="340.36">1) Read and invalidate</tspan></text><text style="font-size:10;font-family:Droid Sans;letter-spacing:-.5;word-spacing:0" x="521.5" y="278.86"><tspan x="521.5" y="278.86">2) Fetch from memory</tspan></text><path d="m616.18 311.36h124.84" style="fill:none;stroke:#ff8c00;marker-end:url(#k)"/><text style="font-size:10;font-family:Droid Sans;letter-spacing:-.5;word-spacing:0" x="626" y="319.86"><tspan x="626" y="319.86">3) Send data + directory</tspan></text><g transform="translate(-522.8 18.29)"><g style="fill:none;stroke:#32cd32;stroke-width:1.7;stroke-miterlimit:10" transform="matrix(.67 0 0 .61 320.15 204.02)"><ellipse cx="312.74" cy="424.64" rx="34.8" ry="7.07"/><path d="m347.35 477.12c0 3.91-15.58 7.07-34.8 7.07s-34.8-3.17-34.8-7.07"/><path d="m277.94 477.87v-53.6m69.23 0v53.6"/></g><text style="font-size:10;font-family:Droid Sans;letter-spacing:-.5;word-spacing:0" x="510.97" y="479.05"><tspan x="510.97" y="479.05">Socket</tspan><tspan x="510.97" y="489.05">Memory</tspan></text></g><g style="fill:none;stroke:#f00;stroke-width:.91" transform="matrix(1 0 0 1.2 -.62 223.09)"><path d="m135.89 216.78v134.23h21.07v-134.23h10.53l-22.12-18.79-21.77 18.49z"/><path d="m135.89 350.56v-134.23h21.07v134.23h10.53l-22.12 18.79-21.77-18.49z"/></g><path d="m-78.25 561.16h171.96v75.91h-171.96z" style="fill:none;stroke:#ff8c00;stroke-width:1.1"/><text style="font-size:10;font-family:Droid Sans;letter-spacing:-.5;word-spacing:0" x="-74.3" y="573.16"><tspan x="-74.3" y="573.16">Home Socket</tspan></text><g transform="translate(113.7 140.83)"><path d="m253.57 391.68h48.12" style="fill:none;stroke:#696969;marker-start:url(#l)"/><text style="font-size:10;font-family:Droid Sans;letter-spacing:-.5;word-spacing:0" x="257.73" y="388.69"><tspan x="257.73" y="388.69">Load 0x00</tspan></text></g><g style="fill:none;stroke:#008000" transform="translate(-164.09 70.25)"><g style="stroke-width:1.35" transform="matrix(.66 0 0 1 -36.4 242.52)"><path d="m204.2 275.2h95v41.37h-95z"/><path d="m203.99 288.64h94.91"/><path d="m203.99 302.6h94.91"/></g><g style="stroke-width:1.1"><path d="m161.87 517.72h48.53v41.37h-48.53z"/><path d="m161.76 531.16h48.48"/><path d="m161.76 545.12h48.48"/><path d="m210.78 517.72h36.61v41.37h-36.61z"/><path d="m210.7 531.16h36.57"/><path d="m210.7 545.12h36.57"/></g></g><path d="m220.41 471.55h144.52v68.76h-144.52z" style="fill:none;stroke:#ff8c00;stroke-width:1.1"/><text style="font-size:10;font-family:Droid Sans;letter-spacing:-.5;word-spacing:0" x="224.66" y="483.86"><tspan x="224.66" y="483.86">Socket 3</tspan></text><g transform="translate(-228.52 229.83)"><text style="font-size:10;font-family:Droid Sans;letter-spacing:-.5;word-spacing:0" x="463.54" y="402.69"><tspan x="463.54" y="402.69">Socket 1</tspan></text><path d="m450.64 385.02h59.21v30.57h-59.21z" style="fill:none;stroke:#ff8c00;stroke-width:1.1"/></g><g transform="translate(-292.95 218.35)"><text style="font-size:10;font-family:Droid Sans;letter-spacing:-.5;word-spacing:0" x="526.18" y="361.53"><tspan x="526.18" y="361.53">Socket 2</tspan></text><path d="m513.88 342.66h59.21v30.57h-59.21z" style="fill:none;stroke:#ff8c00;stroke-width:1.1"/></g><g style="font-size:10;font-family:Droid Sans;letter-spacing:-.5;word-spacing:0"><text x="-52.53" xml:space="preserve" y="597.92"><tspan style="fill:#00f" x="-52.53" y="597.92">Shared                1 1 0 1</tspan></text><text x="-53.09" xml:space="preserve" y="611.81"><tspan x="-53.09" y="611.81">Invalid                 0 0 1 0</tspan></text><text x="-53.09" xml:space="preserve" y="625.53"><tspan x="-53.09" y="625.53">Invalid                 0 0 0 0</tspan></text></g><g style="fill:none;stroke:#008000;stroke-width:1.1"><path d="m255.23 490.02h62.83v41.37h-62.83z"/><path d="m255.09 503.45h62.77"/><path d="m255.09 517.41h62.77"/><path d="m317.85 490.01h36.61v41.37h-36.61z"/><path d="m317.77 503.45h36.57"/><path d="m317.77 517.41h36.57"/></g><g style="font-size:10;font-family:Droid Sans;letter-spacing:-.5;word-spacing:0"><text style="fill:#00f" x="268.15" y="499.97"><tspan style="fill:#00f" x="268.15" y="499.97">Shared</tspan></text><text x="267.55" y="513.15"><tspan x="267.55" y="513.15">Invalid</tspan></text><text x="267.59" y="527.58"><tspan x="267.59" y="527.58">Invalid</tspan></text></g><path d="m220.42 497.28h-76.17l-61.34 61.52" style="fill:none;stroke:#ff8c00;marker-end:url(#m)"/><text style="font-size:10;font-family:Droid Sans;letter-spacing:-.5;word-spacing:0" x="121.94" y="506.68"><tspan x="121.94" y="506.68">1) Fetch line from home</tspan></text><path d="m93.95 576.16h51.84l72.86-56.57" style="fill:none;stroke:#ff8c00;marker-end:url(#n)"/><text style="font-size:10;font-family:Droid Sans;letter-spacing:-.5;word-spacing:0" x="111.84" y="585.44"><tspan x="111.84" y="585.44">2) Send data + directory</tspan></text><g transform="translate(1.31 19.17)"><g style="fill:none;stroke:#32cd32;stroke-width:1.7;stroke-miterlimit:10" transform="matrix(.67 0 0 .61 320.15 204.02)"><ellipse cx="312.74" cy="424.64" rx="34.8" ry="7.07"/><path d="m347.35 477.12c0 3.91-15.58 7.07-34.8 7.07s-34.8-3.17-34.8-7.07"/><path d="m277.94 477.87v-53.6m69.23 0v53.6"/></g><text style="font-size:10;font-family:Droid Sans;letter-spacing:-.5;word-spacing:0" x="510.97" y="479.05"><tspan x="510.97" y="479.05">Socket</tspan><tspan x="510.97" y="489.05">Memory</tspan></text></g><g style="fill:none;stroke:#f00;stroke-width:.91" transform="matrix(1 0 0 1.2 523.48 223.97)"><path d="m135.89 216.78v134.23h21.07v-134.23h10.53l-22.12-18.79-21.77 18.49z"/><path d="m135.89 350.56v-134.23h21.07v134.23h10.53l-22.12 18.79-21.77-18.49z"/></g><path d="m445.85 562.04h171.96v75.91h-171.96z" style="fill:none;stroke:#ff8c00;stroke-width:1.1"/><text style="font-size:10;font-family:Droid Sans;letter-spacing:-.5;word-spacing:0" x="449.8" y="574.04"><tspan x="449.8" y="574.04">Home Socket</tspan></text><g transform="translate(638.99 225.23)"><path d="m253.57 391.68h48.12" style="fill:none;stroke:#696969;marker-start:url(#o)"/><text style="font-size:10;font-family:Droid Sans;letter-spacing:-.5;word-spacing:0" x="257.73" y="388.69"><tspan x="257.73" y="388.69">Store 0x00</tspan></text></g><g style="fill:none;stroke:#008000" transform="translate(360.01 71.13)"><g style="stroke-width:1.35" transform="matrix(.66 0 0 1 -36.4 242.52)"><path d="m204.2 275.2h95v41.37h-95z"/><path d="m203.99 288.64h94.91"/><path d="m203.99 302.6h94.91"/></g><g style="stroke-width:1.1"><path d="m161.87 517.72h48.53v41.37h-48.53z"/><path d="m161.76 531.16h48.48"/><path d="m161.76 545.12h48.48"/><path d="m210.78 517.72h36.61v41.37h-36.61z"/><path d="m210.7 531.16h36.57"/><path d="m210.7 545.12h36.57"/></g></g><path d="m745.7 555.96h144.52v68.76h-144.52z" style="fill:none;stroke:#ff8c00;stroke-width:1.1"/><text style="font-size:10;font-family:Droid Sans;letter-spacing:-.5;word-spacing:0" x="749.96" y="568.26"><tspan x="749.96" y="568.26">Socket 1</tspan></text><g transform="translate(294.39 126.31)"><text style="font-size:10;font-family:Droid Sans;letter-spacing:-.5;word-spacing:0" x="463.54" y="402.69"><tspan x="463.54" y="402.69">Socket 2</tspan></text><path d="m450.64 385.02h59.21v30.57h-59.21z" style="fill:none;stroke:#ff8c00;stroke-width:1.1"/></g><g transform="translate(231.15 124.37)"><text style="font-size:10;font-family:Droid Sans;letter-spacing:-.5;word-spacing:0" x="526.18" y="361.53"><tspan x="526.18" y="361.53">Socket 3</tspan></text><path d="m513.88 342.66h59.21v30.57h-59.21z" style="fill:none;stroke:#ff8c00;stroke-width:1.1"/></g><g style="font-size:10;font-family:Droid Sans;letter-spacing:-.5;word-spacing:0"><text x="471.57" xml:space="preserve" y="598.8"><tspan style="fill:#00f" x="471.57" y="598.8">Invalid                0 1 0 0</tspan></text><text x="471.01" xml:space="preserve" y="612.69"><tspan x="471.01" y="612.69">Invalid                 0 0 1 0</tspan></text><text x="471.01" xml:space="preserve" y="626.41"><tspan x="471.01" y="626.41">Invalid                 0 0 0 0</tspan></text></g><g style="fill:none;stroke:#008000;stroke-width:1.1"><path d="m780.53 574.42h62.83v41.37h-62.83z"/><path d="m780.39 587.86h62.77"/><path d="m780.39 601.81h62.77"/><path d="m843.15 574.41h36.61v41.37h-36.61z"/><path d="m843.07 587.85h36.57"/><path d="m843.07 601.81h36.57"/></g><g style="font-size:10;font-family:Droid Sans;letter-spacing:-.5;word-spacing:0"><text style="fill:#00f" x="791.06" y="584.37"><tspan style="fill:#00f" x="791.06" y="584.37">Modified</tspan></text><text x="792.84" y="597.55"><tspan x="792.84" y="597.55">Invalid</tspan></text><text x="792.88" y="611.98"><tspan x="792.88" y="611.98">Invalid</tspan></text></g><text x="791.66" y="631.18"><tspan x="791.66" y="631.18"/></text><path d="m745.71 616.26h-124.84" style="fill:none;stroke:#ff8c00;marker-end:url(#p)"/><text style="font-size:10;font-family:Droid Sans;letter-spacing:-.5;word-spacing:0" x="641.92" y="625.81"><tspan x="641.92" y="625.81">1) Invalidate</tspan></text><path d="m616.87 605.53 126.63-116.93" style="fill:none;stroke:#ff8c00;marker-end:url(#q)"/><text style="font-size:10;font-family:Droid Sans;letter-spacing:-.5;word-spacing:0" x="688.45" y="547.66"><tspan x="688.45" y="547.66">2) Invalidate</tspan></text><path d="m616.87 574.5h124.84" style="fill:none;stroke:#ff8c00;marker-end:url(#r)"/><text style="font-size:10;font-family:Droid Sans;letter-spacing:-.5;word-spacing:0" x="635.35" y="597.17"><tspan x="635.35" y="597.17">3) Invalidate acknowledge</tspan></text><g transform="translate(-523.45 246.33)"><g style="fill:none;stroke:#32cd32;stroke-width:1.7;stroke-miterlimit:10" transform="matrix(.67 0 0 .61 320.15 204.02)"><ellipse cx="312.74" cy="424.64" rx="34.8" ry="7.07"/><path d="m347.35 477.12c0 3.91-15.58 7.07-34.8 7.07s-34.8-3.17-34.8-7.07"/><path d="m277.94 477.87v-53.6m69.23 0v53.6"/></g><text style="font-size:10;font-family:Droid Sans;letter-spacing:-.5;word-spacing:0" x="510.97" y="479.05"><tspan x="510.97" y="479.05">Socket</tspan><tspan x="510.97" y="489.05">Memory</tspan></text></g><g style="fill:none;stroke:#f00;stroke-width:.91" transform="matrix(1 0 0 1.2 -1.28 451.13)"><path d="m135.89 216.78v134.23h21.07v-134.23h10.53l-22.12-18.79-21.77 18.49z"/><path d="m135.89 350.56v-134.23h21.07v134.23h10.53l-22.12 18.79-21.77-18.49z"/></g><path d="m-78.91 789.2h171.96v75.91h-171.96z" style="fill:none;stroke:#ff8c00;stroke-width:1.1"/><text style="font-size:10;font-family:Droid Sans;letter-spacing:-.5;word-spacing:0" x="-74.96" y="801.2"><tspan x="-74.96" y="801.2">Home Socket</tspan></text><g transform="translate(115.24 484.39)"><path d="m253.57 391.68h48.12" style="fill:none;stroke:#696969;marker-start:url(#s)"/><text style="font-size:10;font-family:Droid Sans;letter-spacing:-.5;word-spacing:0" x="257.73" y="388.69"><tspan x="257.73" y="388.69">Load 0x10</tspan></text></g><g style="fill:none;stroke:#008000" transform="translate(-164.74 298.29)"><g style="stroke-width:1.35" transform="matrix(.66 0 0 1 -36.4 242.52)"><path d="m204.2 275.2h95v41.37h-95z"/><path d="m203.99 288.64h94.91"/><path d="m203.99 302.6h94.91"/></g><g style="stroke-width:1.1"><path d="m161.87 517.72h48.53v41.37h-48.53z"/><path d="m161.76 531.16h48.48"/><path d="m161.76 545.12h48.48"/><path d="m210.78 517.72h36.61v41.37h-36.61z"/><path d="m210.7 531.16h36.57"/><path d="m210.7 545.12h36.57"/></g></g><path d="m221.95 815.12h144.52v68.76h-144.52z" style="fill:none;stroke:#ff8c00;stroke-width:1.1"/><text style="font-size:10;font-family:Droid Sans;letter-spacing:-.5;word-spacing:0" x="226.2" y="827.42"><tspan x="226.2" y="827.42">Socket 1</tspan></text><g transform="translate(-293.6 351.53)"><text style="font-size:10;font-family:Droid Sans;letter-spacing:-.5;word-spacing:0" x="526.18" y="361.53"><tspan x="526.18" y="361.53">Socket 3</tspan></text><path d="m513.88 342.66h59.21v30.57h-59.21z" style="fill:none;stroke:#ff8c00;stroke-width:1.1"/></g><g style="font-size:10;font-family:Droid Sans;letter-spacing:-.5;word-spacing:0"><text x="-53.18" xml:space="preserve" y="825.96"><tspan x="-53.18" y="825.96">Invalid                0 1 0 0</tspan></text><text x="-55.87" xml:space="preserve" y="839.85"><tspan style="fill:#00f" x="-55.87" y="839.85">Shared                 1 1 1 0</tspan></text><text x="-53.74" xml:space="preserve" y="853.57"><tspan x="-53.74" y="853.57">Invalid                 0 0 0 0</tspan></text></g><g style="fill:none;stroke:#008000;stroke-width:1.1"><path d="m256.77 833.58h62.83v41.37h-62.83z"/><path d="m256.63 847.02h62.77"/><path d="m256.63 860.97h62.77"/><path d="m319.39 833.58h36.61v41.37h-36.61z"/><path d="m319.31 847.02h36.57"/><path d="m319.31 860.98h36.57"/></g><g style="font-size:10;font-family:Droid Sans;letter-spacing:-.5;word-spacing:0"><text style="fill:#00f" x="267.3" y="843.53"><tspan style="fill:#000" x="267.3" y="843.53">Exclusive</tspan></text><text style="fill:#00f" x="269.08" y="856.71"><tspan style="fill:#00f" x="269.08" y="856.71">Shared</tspan></text><text x="269.13" y="871.14"><tspan x="269.13" y="871.14">Invalid</tspan></text></g><path d="m221.74 734.98h144.52v68.76h-144.52z" style="fill:none;stroke:#ff8c00;stroke-width:1.1"/><text style="font-size:10;font-family:Droid Sans;letter-spacing:-.5;word-spacing:0" x="225.99" y="747.29"><tspan x="225.99" y="747.29">Socket 2</tspan></text><g style="fill:none;stroke:#008000;stroke-width:1.1"><path d="m256.56 753.45h62.83v41.37h-62.83z"/><path d="m256.42 766.89h62.77"/><path d="m256.42 780.84h62.77"/><path d="m319.18 753.44h36.61v41.37h-36.61z"/><path d="m319.1 766.88h36.57"/><path d="m319.1 780.84h36.57"/></g><g style="font-size:10;font-family:Droid Sans;letter-spacing:-.5;word-spacing:0"><text x="269.48" y="763.4"><tspan x="269.48" y="763.4">Invalid</tspan></text><text x="268.87" y="777.29"><tspan style="fill:#00f" x="268.87" y="777.29">Shared</tspan></text><text x="268.92" y="791.01"><tspan x="268.92" y="791.01">Invalid</tspan></text></g><g style="fill:none;stroke:#ff8c00"><path d="m222.22 857.91h-126.22" style="marker-end:url(#t)"/><path d="m92.46 844.47 127.64-58.69" style="marker-end:url(#u)"/><path d="m94.82 825.61 127.63-58.69" style="marker-start:url(#a)"/><path d="m91.28 808.64 127.64-58.69" style="marker-end:url(#v)"/><path d="m74.96 865.22 12.04 11.5h132.29" style="marker-end:url(#w)"/><path d="m-4.95 789.24v-43.53" style="marker-end:url(#x)"/></g><g style="font-size:10;font-family:Droid Sans;letter-spacing:-.5;word-spacing:0"><text x="111.33" y="867.31"><tspan x="111.33" y="867.31">1) Fetch line from home</tspan></text><text x="123.5" y="838.86"><tspan x="123.5" y="838.86">2) Fetch up-to-date line</tspan></text><text x="125" y="818.86"><tspan x="125" y="818.86">3) Send line</tspan></text><text x="-3" y="764.36"><tspan x="-3" y="764.36">4) Write to memory</tspan></text><text x="124" y="800.36"><tspan x="124" y="800.36">5) Send data + directory</tspan></text><text x="94.5" y="885.86"><tspan x="94.5" y="885.86">6) Send data + directory</tspan></text></g></g></svg>
