<svg height="300" viewBox="0 0 639.14 208.08" width="1400" xmlns="http://www.w3.org/2000/svg">
<g transform="translate(-85.29 -209.06)">
<g style="fill:none;stroke:#008000;stroke-width:1.11" transform="matrix(.99 0 0 1 26.88 -1.51)">
<path d="m337.39 241.36h95v55.03h-95z"/>
<path d="m337.18 254.77h94.91"/>
<path d="m337.18 268.73h94.91"/>
<path d="m337.36 282.69h94.91"/>
<path d="m337.39 296.47h95v55.03h-95z"/>
<path d="m337.18 309.88h94.91"/>
<path d="m337.18 323.84h94.91"/>
<path d="m337.36 337.8h94.91"/>
</g>
<g style="fill:none;stroke:#0000cd;stroke-width:1.4" transform="matrix(.62 0 0 1 127.5 -36.29)">
<path d="m204.2 275.23h95v55.03h-95z"/>
<path d="m203.99 288.64h94.91"/>
<path d="m203.99 302.6h94.91"/>
<path d="m204.17 316.56h94.91"/>
</g>
<text style="font-family:Droid Sans;letter-spacing:-.5;word-spacing:0" x="374.87" y="236.53">
<tspan style="font-size:10" x="374.87" y="236.53">Main Memory</tspan>
</text>
<text style="font-family:Droid Sans;letter-spacing:-.5;word-spacing:0" x="251.7" y="234.38">
<tspan style="font-size:10" x="251.7" y="234.38">Direct Associative cache</tspan>
</text>
<path d="m459.92 353.87v-116.92" style="fill:none;stroke:#696969"/>
<g style="font-family:Droid Sans;letter-spacing:-.5;word-spacing:0">
<text x="443.55" y="363.57">
<tspan style="font-size:10" x="443.55" y="363.57">Address</tspan>
</text>
<text x="383.67" y="250.3">
<tspan style="font-size:10" x="383.67" y="250.3">0xFFA000</tspan>
</text>
<text x="383.25" y="263.62">
<tspan style="font-size:10" x="383.25" y="263.62">0xFFA100</tspan>
</text>
<text x="382.87" y="291.03">
<tspan style="font-size:10" x="382.87" y="291.03">0xFFAF00</tspan>
</text>
<text x="398.9" y="275.27">
<tspan style="font-size:10" x="398.9" y="275.27">...</tspan>
</text>
<text x="383.02" y="305.07">
<tspan style="font-size:10" x="383.02" y="305.07">0xFFB000</tspan>
</text>
<text x="382.89" y="319">
<tspan style="font-size:10" x="382.89" y="319">0xFFB100</tspan>
</text>
<text x="382.22" y="346.41">
<tspan style="font-size:10" x="382.22" y="346.41">0xFFBF00</tspan>
</text>
<text x="398.24" y="330.04">
<tspan style="font-size:10" x="398.24" y="330.04">...</tspan>
</text>
</g>
<path d="m359.31 242.87-44.15.01" style="fill:none;stroke:#696969"/>
<path d="m359.35 288.66-44.46-41.1" style="fill:none;stroke:#696969"/>
<path d="m385.81 368.02 14.62-19.48" style="fill:#f00;fill-rule:evenodd;stroke:#f00"/>
<path d="m423.6 367.9-13.78-19.49" style="fill:none;stroke:#f00"/>
<text style="font-family:Droid Sans;letter-spacing:-.5;word-spacing:0" x="376.06" y="375.76">
<tspan style="font-size:10" x="376.06" y="375.76">Tag</tspan>
</text>
<text style="font-family:Droid Sans;letter-spacing:-.5;word-spacing:0" x="413.52" y="375.15">
<tspan style="font-size:10" x="413.52" y="375.15">Index</tspan>
</text>
<g style="stroke:#0000cd;stroke-width:1.6" transform="matrix(.39 0 0 1 408.47 -43.85)">
<g style="fill:none;stroke:#0000cd">
<path d="m220.64 283.14h95v55.03h-95z" style="stroke-width:1.76"/>
<g style="stroke-width:1.44">
<path d="m220.43 296.55h94.91"/>
<path d="m220.43 310.51h94.91"/>
<path d="m220.61 324.47h94.91"/>
</g>
<g style="stroke-width:1.6">
<path d="m315.35 283.14h95v55.03h-95z" style="stroke-width:1.76"/>
<g style="stroke-width:1.44">
<path d="m315.14 296.55h94.91"/>
<path d="m315.14 310.51h94.91"/>
<path d="m315.32 324.47h94.91"/>
</g>
</g>
</g>
<text style="font-family:Droid Sans;letter-spacing:-.80133349;word-spacing:0;stroke:none;stroke-width:1" transform="scale(1.6 .62)" x="135.95" y="448.49">
<tspan style="font-size:16.03" x="135.95" y="448.49">2-Associative cache</tspan>
</text>
</g>
<g style="fill:none">
<path d="m453.06 248.77 38.73.01" style="stroke:#696969"/>
<path d="m452.93 302.99 89.32-49.63" style="stroke:#696969"/>
<g style="stroke:#0000cd;stroke-width:1.1">
<path d="m192.14 362.67h40.8v12.79h-40.8z"/>
<path d="m232.95 362.67h40.8v12.79h-40.8z"/>
<path d="m273.75 362.67h40.8v12.79h-40.8z"/>
<path d="m314.55 362.67h40.8v12.79h-40.8z"/>
</g>
<g style="stroke:#696969;stroke-width:.8">
<path d="m358.65 314.25-130.93 47.82"/>
<path d="m358.92 314.18-103.22 48.42"/>
<path d="m358.88 314.24-59.68 47.2"/>
<path d="m359.16 314.16-21.92 47.2"/>
</g>
</g>
<g style="font-family:Droid Sans;letter-spacing:-.5;word-spacing:0">
<text x="190.62" y="358.7">
<tspan style="font-size:10" x="190.62" y="358.7">Full associative cache</tspan>
</text>
<text x="209.19" y="304.5">
<tspan style="font-size:10" x="209.19" y="304.5">Faster lookup (direct from index)</tspan>
</text>
<text x="220.76" y="387.02">
<tspan style="font-size:10" x="220.76" y="387.02">Slower lookup</tspan>
<tspan style="font-size:10" x="220.76" y="397.02">(compare every tag ?)</tspan>
</text>
<text x="485.52" y="307.49">
<tspan style="font-size:10" x="485.52" y="307.49">Lookup compromise</tspan>
<tspan style="font-size:10" x="485.52" y="317.49">(Compare al tags for same index)</tspan>
</text>
</g>
</g>
</svg>