<svg height="182.42mm" viewBox="0 0 797.62 646.37" width="225.11mm" xmlns="http://www.w3.org/2000/svg" xmlns:xlink="http://www.w3.org/1999/xlink"><marker id="a" orient="auto" refX="0" refY="0" style="overflow:visible"><path d="m2.31 0-3.46 2v-4z" style="fill:#ff8c00;fill-rule:evenodd;stroke:#ff8c00;stroke-width:.4pt"/></marker><marker id="b" orient="auto" refX="0" refY="0" style="overflow:visible"><path d="m5.77 0-8.65 5v-10z" style="fill:#696969;fill-rule:evenodd;stroke:#696969;stroke-width:1pt" transform="scale(-.4)"/></marker><marker id="c" orient="auto" refX="0" refY="0" style="overflow:visible"><path d="m2.31 0-3.46 2v-4z" style="fill:#ff8c00;fill-rule:evenodd;stroke:#ff8c00;stroke-width:.4pt"/></marker><marker id="d" orient="auto" refX="0" refY="0" style="overflow:visible"><path d="m5.77 0-8.65 5v-10z" style="fill:#696969;fill-rule:evenodd;stroke:#696969;stroke-width:1pt" transform="scale(-.4)"/></marker><marker id="e" orient="auto" refX="0" refY="0" style="overflow:visible"><path d="m2.31 0-3.46 2v-4z" style="fill:#ff8c00;fill-rule:evenodd;stroke:#ff8c00;stroke-width:.4pt"/></marker><marker id="f" orient="auto" refX="0" refY="0" style="overflow:visible"><path d="m2.31 0-3.46 2v-4z" style="fill:#ff8c00;fill-rule:evenodd;stroke:#ff8c00;stroke-width:.4pt"/></marker><marker id="g" orient="auto" refX="0" refY="0" style="overflow:visible"><path d="m2.31 0-3.46 2v-4z" style="fill:#ff8c00;fill-rule:evenodd;stroke:#ff8c00;stroke-width:.4pt"/></marker><marker id="h" orient="auto" refX="0" refY="0" style="overflow:visible"><path d="m2.31 0-3.46 2v-4z" style="fill:#ff8c00;fill-rule:evenodd;stroke:#ff8c00;stroke-width:.4pt"/></marker><marker id="i" orient="auto" refX="0" refY="0" style="overflow:visible"><path d="m5.77 0-8.65 5v-10z" style="fill:#696969;fill-rule:evenodd;stroke:#696969;stroke-width:1pt" transform="scale(-.4)"/></marker><marker id="j" orient="auto" refX="0" refY="0" style="overflow:visible"><path d="m2.31 0-3.46 2v-4z" style="fill:#ff8c00;fill-rule:evenodd;stroke:#ff8c00;stroke-width:.4pt"/></marker><marker id="k" orient="auto" refX="0" refY="0" style="overflow:visible"><path d="m2.31 0-3.46 2v-4z" style="fill:#ff8c00;fill-rule:evenodd;stroke:#ff8c00;stroke-width:.4pt"/></marker><marker id="l" orient="auto" refX="0" refY="0" style="overflow:visible"><path d="m2.31 0-3.46 2v-4z" style="fill:#ff8c00;fill-rule:evenodd;stroke:#ff8c00;stroke-width:.4pt"/></marker><marker id="m" orient="auto" refX="0" refY="0" style="overflow:visible"><path d="m2.31 0-3.46 2v-4z" style="fill:#ff8c00;fill-rule:evenodd;stroke:#ff8c00;stroke-width:.4pt"/></marker><marker id="n" orient="auto" refX="0" refY="0" style="overflow:visible"><path d="m5.77 0-8.65 5v-10z" style="fill:#696969;fill-rule:evenodd;stroke:#696969;stroke-width:1pt" transform="scale(-.4)"/></marker><marker id="o" orient="auto" refX="0" refY="0" style="overflow:visible"><path d="m2.31 0-3.46 2v-4z" style="fill:#ff8c00;fill-rule:evenodd;stroke:#ff8c00;stroke-width:.4pt"/></marker><marker id="p" orient="auto" refX="0" refY="0" style="overflow:visible"><path d="m2.31 0-3.46 2v-4z" style="fill:#ff8c00;fill-rule:evenodd;stroke:#ff8c00;stroke-width:.4pt"/></marker><marker id="q" orient="auto" refX="0" refY="0" style="overflow:visible"><path d="m2.31 0-3.46 2v-4z" style="fill:#ff8c00;fill-rule:evenodd;stroke:#ff8c00;stroke-width:.4pt"/></marker><marker id="r" orient="auto" refX="0" refY="0" style="overflow:visible"><path d="m2.31 0-3.46 2v-4z" style="fill:#ff8c00;fill-rule:evenodd;stroke:#ff8c00;stroke-width:.4pt"/></marker><marker id="s" orient="auto" refX="0" refY="0" style="overflow:visible"><path d="m5.77 0-8.65 5v-10z" style="fill:#696969;fill-rule:evenodd;stroke:#696969;stroke-width:1pt" transform="scale(-.4)"/></marker><marker id="t" orient="auto" refX="0" refY="0" style="overflow:visible"><path d="m2.31 0-3.46 2v-4z" style="fill:#ff8c00;fill-rule:evenodd;stroke:#ff8c00;stroke-width:.4pt"/></marker><g style="fill:none"><path d="m232.64 296.28v134.23h21.07v-134.23h10.53l-22.12-18.79-21.77 18.49z" style="stroke:#f00"/><g style="stroke:#32cd32;stroke-width:1.7;stroke-miterlimit:10" transform="matrix(.67 0 0 .61 31.14 -252.54)"><ellipse cx="312.74" cy="424.64" rx="34.8" ry="7.07"/><path d="m347.35 477.12c0 3.91-15.58 7.07-34.8 7.07s-34.8-3.17-34.8-7.07"/><path d="m277.94 477.87v-53.6m69.23 0v53.6"/></g><path d="m148.18 144.53 91.56.26v-99.13" style="stroke:#ff8c00;marker-end:url(#a)"/><path d="m35.88 57.51h119.2v113.71h-119.2z" style="stroke:#9acd32;stroke-width:.9;stroke-dasharray:5.4 1.8"/><path d="m229.74 60.67v134.23h21.07v-134.23h10.53l-22.12-18.79-21.77 18.49z" style="stroke:#f00"/></g><text style="font-size:10;font-family:Droid Sans;letter-spacing:-.5;word-spacing:0" x="221.96" y="22.49"><tspan x="221.96" y="22.49">Shared</tspan><tspan x="221.96" y="32.49">Memory</tspan></text><g transform="translate(-10.71 -442.84)"><g style="fill:none;stroke:#008000;stroke-width:1.35" transform="matrix(.66 0 0 1 -36.4 242.52)"><path d="m204.2 275.2h95v41.37h-95z"/><path d="m203.99 288.64h94.91"/><path d="m203.99 302.6h94.91"/></g><g style="font-size:10;font-family:Droid Sans;letter-spacing:-.5;word-spacing:0"><text x="110.96" y="527.37"><tspan style="fill:#00f" x="110.96" y="527.37">Exclusive</tspan></text><text x="114.17" y="555.58"><tspan x="114.17" y="555.58">Invalid</tspan></text><text x="114.76" y="541.27"><tspan x="114.76" y="541.27">Invalid</tspan></text></g></g><g transform="translate(-94.23 -257.9)"><path d="m183.97 388.3h58.61v32.96h-58.61z" style="fill:none;stroke:#ff8c00;stroke-width:1.1"/><text style="font-size:10;font-family:Droid Sans;letter-spacing:-.5;word-spacing:0" x="192.1" y="403.88"><tspan x="192.1" y="403.88">Cache</tspan><tspan x="192.1" y="413.88">Controller</tspan></text></g><g transform="translate(176.02 -441.57)"><g style="fill:none;stroke:#008000;stroke-width:1.35" transform="matrix(.66 0 0 1 -36.4 242.52)"><path d="m204.2 275.2h95v41.37h-95z"/><path d="m203.99 288.64h94.91"/><path d="m203.99 302.6h94.91"/></g><g style="font-size:10;font-family:Droid Sans;letter-spacing:-.5;word-spacing:0"><text x="114.54" y="527.37"><tspan x="114.54" y="527.37">Invalid</tspan></text><text x="109.99" y="555.58"><tspan x="109.99" y="555.58">Exclusive</tspan></text><text x="114.76" y="541.27"><tspan x="114.76" y="541.27">Invalid</tspan></text></g></g><g transform="translate(92.5 -256.63)"><path d="m183.97 388.3h58.61v32.96h-58.61z" style="fill:none;stroke:#ff8c00;stroke-width:1.1"/><text style="font-size:10;font-family:Droid Sans;letter-spacing:-.5;word-spacing:0" x="192.1" y="403.88"><tspan x="192.1" y="403.88">Cache</tspan><tspan x="192.1" y="413.88">Controller</tspan></text></g><text style="font-size:10;font-family:Droid Sans;letter-spacing:-.5;word-spacing:0;fill:#f00" x="175.42" xml:space="preserve" y="205.64"><tspan x="175.42" y="205.64">Common cache bus sequences </tspan><tspan x="175.42" y="215.64">access between all caches</tspan></text><g transform="translate(-154.48 -450.59)"><path d="m241.36 599.56h-47.66" style="fill:none;stroke:#696969;marker-start:url(#b)"/><text style="font-size:10;font-family:Droid Sans;letter-spacing:-.5;word-spacing:0" x="197.47" y="596.58"><tspan x="197.47" y="596.58">Load 0x00</tspan></text></g><text style="font-size:10;font-family:Droid Sans;letter-spacing:-.5;word-spacing:0" x="158.72" y="154.34"><tspan x="158.72" y="154.34">1) Fetch from</tspan><tspan x="158.72" y="164.34">shared memory</tspan></text><path d="m147.25 136.04 13.15.21v-54.28l-14.91-.07" style="fill:none;stroke:#ff8c00;marker-end:url(#c)"/><text style="font-size:10;font-family:Droid Sans;letter-spacing:-.5;word-spacing:0" x="163.49" y="89.31"><tspan x="163.49" y="89.31">2) Put in cache</tspan><tspan x="163.49" y="99.31"/></text><text style="font-size:10;font-family:Droid Sans;letter-spacing:-.5;word-spacing:0" x="40.6" y="69.03"><tspan x="40.6" y="69.03">Core 1</tspan></text><path d="m267.36 57.51h85.19v113.71h-85.19z" style="fill:none;stroke:#9acd32;stroke-width:.9;stroke-dasharray:5.4 1.8"/><text style="font-size:10;font-family:Droid Sans;letter-spacing:-.5;word-spacing:0" x="274.91" y="68.42"><tspan x="274.91" y="68.42">Core 2</tspan></text><g style="fill:none;stroke:#32cd32;stroke-width:1.7;stroke-miterlimit:10" transform="matrix(.67 0 0 .61 355.98 -252.24)"><ellipse cx="312.74" cy="424.64" rx="34.8" ry="7.07"/><path d="m347.35 477.12c0 3.91-15.58 7.07-34.8 7.07s-34.8-3.17-34.8-7.07"/><path d="m277.94 477.87v-53.6m69.23 0v53.6"/></g><path d="m554.58 60.98v134.23h21.07v-134.23h10.53l-22.12-18.79-21.77 18.49z" style="fill:none;stroke:#f00"/><text style="font-size:10;font-family:Droid Sans;letter-spacing:-.5;word-spacing:0" x="546.79" y="22.79"><tspan x="546.79" y="22.79">Shared</tspan><tspan x="546.79" y="32.79">Memory</tspan></text><g transform="translate(314.13 -442.54)"><g style="fill:none;stroke:#008000;stroke-width:1.35" transform="matrix(.66 0 0 1 -36.4 242.52)"><path d="m204.2 275.2h95v41.37h-95z"/><path d="m203.99 288.64h94.91"/><path d="m203.99 302.6h94.91"/></g><g style="font-size:10;font-family:Droid Sans;letter-spacing:-.5;word-spacing:0"><text x="113.95" y="527.37"><tspan style="fill:#00f" x="113.95" y="527.37">Shared</tspan></text><text x="114.17" y="555.58"><tspan x="114.17" y="555.58">Invalid</tspan></text><text x="114.76" y="541.27"><tspan x="114.76" y="541.27">Invalid</tspan></text></g></g><g transform="translate(230.61 -257.6)"><path d="m183.97 388.3h58.61v32.96h-58.61z" style="fill:none;stroke:#ff8c00;stroke-width:1.1"/><text style="font-size:10;font-family:Droid Sans;letter-spacing:-.5;word-spacing:0" x="192.1" y="403.88"><tspan x="192.1" y="403.88">Cache</tspan><tspan x="192.1" y="413.88">Controller</tspan></text></g><g transform="translate(550.37 -444.25)"><g style="fill:none;stroke:#008000;stroke-width:1.35" transform="matrix(.66 0 0 1 -36.4 242.52)"><path d="m204.2 275.2h95v41.37h-95z"/><path d="m203.99 288.64h94.91"/><path d="m203.99 302.6h94.91"/></g><g style="font-size:10;font-family:Droid Sans;letter-spacing:-.5;word-spacing:0"><text x="114.54" y="527.37"><tspan style="fill:#00f" x="114.54" y="527.37">Shared</tspan></text><text x="109.39" y="555.58"><tspan x="109.39" y="555.58">Exclusive</tspan></text><text x="114.76" y="541.27"><tspan x="114.76" y="541.27">Invalid</tspan></text></g></g><g transform="translate(466.85 -259.31)"><path d="m183.97 388.3h58.61v32.96h-58.61z" style="fill:none;stroke:#ff8c00;stroke-width:1.1"/><text style="font-size:10;font-family:Droid Sans;letter-spacing:-.5;word-spacing:0" x="192.1" y="403.88"><tspan x="192.1" y="403.88">Cache</tspan><tspan x="192.1" y="413.88">Controller</tspan></text></g><g transform="translate(517.56 -453.28)"><path d="m194.5 598.96h48.12" style="fill:none;stroke:#696969;marker-start:url(#d)"/><text style="font-size:10;font-family:Droid Sans;letter-spacing:-.5;word-spacing:0" x="197.47" y="596.58"><tspan x="197.47" y="596.58">Load 0x00</tspan></text></g><path d="m650.22 143.41-85.64.05v-18.38" style="fill:none;stroke:#ff8c00;marker-end:url(#e)"/><text style="font-size:10;font-family:Droid Sans;letter-spacing:-.5;word-spacing:0" x="577.52" y="154.34"><tspan x="577.52" y="154.34">1) Fetch data</tspan></text><path d="m472.73 138.19h88.56" style="fill:none;stroke:#ff8c00;marker-end:url(#f)"/><text style="font-size:10;font-family:Droid Sans;letter-spacing:-.5;word-spacing:0" x="477.29" y="147.77"><tspan x="477.29" y="147.77">2) Snoop fetch call</tspan></text><path d="m474.56 81.55h89.83l.24 36.99" style="fill:none;stroke:#ff8c00;marker-end:url(#g)"/><text style="font-size:10;font-family:Droid Sans;letter-spacing:-.5;word-spacing:0" x="479.08" y="91.1"><tspan x="479.08" y="91.1">3) Serve data from cache</tspan><tspan x="479.08" y="101.1"/></text><path d="m651.57 135.73-9.97.21v-54.28l11.32-.07" style="fill:none;stroke:#ff8c00;marker-end:url(#h)"/><text style="font-size:10;font-family:Droid Sans;letter-spacing:-.5;word-spacing:0" x="579.21" y="109.62"><tspan x="579.21" y="109.62">4) Put in cache</tspan><tspan x="579.21" y="119.62"/></text><g style="fill:none;stroke:#32cd32;stroke-width:1.7;stroke-miterlimit:10" transform="matrix(.67 0 0 .61 34.04 -16.93)"><ellipse cx="312.74" cy="424.64" rx="34.8" ry="7.07"/><path d="m347.35 477.12c0 3.91-15.58 7.07-34.8 7.07s-34.8-3.17-34.8-7.07"/><path d="m277.94 477.87v-53.6m69.23 0v53.6"/></g><text style="font-size:10;font-family:Droid Sans;letter-spacing:-.5;word-spacing:0" x="224.85" y="258.1"><tspan x="224.85" y="258.1">Shared</tspan><tspan x="224.85" y="268.1">Memory</tspan></text><g transform="translate(-7.81 -207.23)"><g style="fill:none;stroke:#008000;stroke-width:1.35" transform="matrix(.66 0 0 1 -36.4 242.52)"><path d="m204.2 275.2h95v41.37h-95z"/><path d="m203.99 288.64h94.91"/><path d="m203.99 302.6h94.91"/></g><g style="font-size:10;font-family:Droid Sans;letter-spacing:-.5;word-spacing:0"><text x="110.96" y="527.37"><tspan style="fill:#00f" x="110.96" y="527.37">Modified</tspan></text><text x="114.17" y="555.58"><tspan x="114.17" y="555.58">Invalid</tspan></text><text x="114.76" y="541.27"><tspan x="114.76" y="541.27">Invalid</tspan></text></g></g><g transform="translate(-91.33 -22.29)"><path d="m183.97 388.3h58.61v32.96h-58.61z" style="fill:none;stroke:#ff8c00;stroke-width:1.1"/><text style="font-size:10;font-family:Droid Sans;letter-spacing:-.5;word-spacing:0" x="192.1" y="403.88"><tspan x="192.1" y="403.88">Cache</tspan><tspan x="192.1" y="413.88">Controller</tspan></text></g><g transform="translate(228.43 -208.94)"><g style="fill:none;stroke:#008000;stroke-width:1.35" transform="matrix(.66 0 0 1 -36.4 242.52)"><path d="m204.2 275.2h95v41.37h-95z"/><path d="m203.99 288.64h94.91"/><path d="m203.99 302.6h94.91"/></g><g style="font-size:10;font-family:Droid Sans;letter-spacing:-.5;word-spacing:0"><text x="114.54" y="527.37"><tspan style="fill:#00f" x="114.54" y="527.37">Invalid</tspan></text><text x="108.8" y="554.99"><tspan x="108.8" y="554.99">Exclusive</tspan></text><text x="114.76" y="541.27"><tspan x="114.76" y="541.27">Invalid</tspan></text></g></g><g transform="translate(144.91 -24)"><path d="m183.97 388.3h58.61v32.96h-58.61z" style="fill:none;stroke:#ff8c00;stroke-width:1.1"/><text style="font-size:10;font-family:Droid Sans;letter-spacing:-.5;word-spacing:0" x="192.1" y="403.88"><tspan x="192.1" y="403.88">Cache</tspan><tspan x="192.1" y="413.88">Controller</tspan></text></g><g transform="translate(-151.49 -215.64)"><path d="m241.36 599.56h-47.66" style="fill:none;stroke:#696969;marker-start:url(#i)"/><text style="font-size:10;font-family:Droid Sans;letter-spacing:-.5;word-spacing:0" x="197.47" y="596.58"><tspan x="197.47" y="596.58">Store 0x00</tspan></text></g><path d="m150.62 383.42h175.81" style="fill:none;stroke:#ff8c00;marker-end:url(#j)"/><text style="font-size:10;font-family:Droid Sans;letter-spacing:-.5;word-spacing:0" x="155.74" y="393.56"><tspan x="155.74" y="393.56">1) Invalidate broadcast</tspan></text><path d="m329.52 369.59-9.97.21v-54.28l11.32-.07" style="fill:none;stroke:#ff8c00;marker-end:url(#k)"/><text style="font-size:10;font-family:Droid Sans;letter-spacing:-.5;word-spacing:0;text-anchor:end" x="315.62" y="320.78"><tspan x="315.12" y="320.78">2) Invalidate line</tspan><tspan x="315.12" y="330.78">(NO invalidation queue)</tspan></text><path d="m328.92 376.26h-175.82" style="fill:none;stroke:#ff8c00;marker-end:url(#l)"/><text style="font-size:10;font-family:Droid Sans;letter-spacing:-.5;word-spacing:0" x="164.09" y="372.68"><tspan x="164.09" y="372.68">3) Acknowledge invalidate</tspan></text><path d="m150.72 369.59 8.47.21v-54.28l-9.61-.07" style="fill:none;stroke:#ff8c00;marker-end:url(#m)"/><text style="font-size:10;font-family:Droid Sans;letter-spacing:-.5;word-spacing:0" x="161.7" y="320.78"><tspan x="161.7" y="320.78">4) Modify line</tspan></text><g style="fill:none;stroke:#32cd32;stroke-width:1.7;stroke-miterlimit:10" transform="matrix(.67 0 0 .61 357.98 -18.72)"><ellipse cx="312.74" cy="424.64" rx="34.8" ry="7.07"/><path d="m347.35 477.12c0 3.91-15.58 7.07-34.8 7.07s-34.8-3.17-34.8-7.07"/><path d="m277.94 477.87v-53.6m69.23 0v53.6"/></g><path d="m556.59 294.49v134.23h21.07v-134.23h10.53l-22.12-18.79-21.77 18.49z" style="fill:none;stroke:#f00"/><text style="font-size:10;font-family:Droid Sans;letter-spacing:-.5;word-spacing:0" x="548.8" y="256.31"><tspan x="548.8" y="256.31">Shared</tspan><tspan x="548.8" y="266.31">Memory</tspan></text><g transform="translate(325.08 -209.02)"><g style="fill:none;stroke:#008000;stroke-width:1.35" transform="matrix(.66 0 0 1 -36.4 242.52)"><path d="m204.2 275.2h95v41.37h-95z"/><path d="m203.99 288.64h94.91"/><path d="m203.99 302.6h94.91"/></g><g style="font-size:10;font-family:Droid Sans;letter-spacing:-.5;word-spacing:0"><text x="113.95" y="527.37"><tspan x="113.95" y="527.37">Shared</tspan></text><text x="114.17" y="555.58"><tspan x="114.17" y="555.58">Invalid</tspan></text><text x="114.76" y="541.27"><tspan x="114.76" y="541.27">Invalid</tspan></text></g></g><g transform="translate(241.56 -24.08)"><path d="m183.97 388.3h58.61v32.96h-58.61z" style="fill:none;stroke:#ff8c00;stroke-width:1.1"/><text style="font-size:10;font-family:Droid Sans;letter-spacing:-.5;word-spacing:0" x="192.1" y="403.88"><tspan x="192.1" y="403.88">Cache</tspan><tspan x="192.1" y="413.88">Controller</tspan></text></g><g transform="translate(552.38 -210.73)"><g style="fill:none;stroke:#008000;stroke-width:1.35" transform="matrix(.66 0 0 1 -36.4 242.52)"><path d="m204.2 275.2h95v41.37h-95z"/><path d="m203.99 288.64h94.91"/><path d="m203.99 302.6h94.91"/></g><g style="font-size:10;font-family:Droid Sans;letter-spacing:-.5;word-spacing:0"><text x="114.54" y="527.37"><tspan x="114.54" y="527.37">Shared</tspan></text><text x="109.39" y="555.58"><tspan x="109.39" y="555.58">Exclusive</tspan></text><text x="109.99" y="541.27"><tspan style="fill:#00f" x="109.99" y="541.27">Modified</tspan></text></g></g><g transform="translate(468.86 -25.79)"><path d="m183.97 388.3h58.61v32.96h-58.61z" style="fill:none;stroke:#ff8c00;stroke-width:1.1"/><text style="font-size:10;font-family:Droid Sans;letter-spacing:-.5;word-spacing:0" x="192.1" y="403.88"><tspan x="192.1" y="403.88">Cache</tspan><tspan x="192.1" y="413.88">Controller</tspan></text></g><g transform="translate(519.56 -219.76)"><path d="m194.5 598.96h48.12" style="fill:none;stroke:#696969;marker-start:url(#n)"/><text style="font-size:10;font-family:Droid Sans;letter-spacing:-.5;word-spacing:0" x="197.47" y="596.58"><tspan x="197.47" y="596.58">Load 0x10</tspan></text></g><path d="m652.77 384.41-86.71.27v-105.66" style="fill:none;stroke:#ff8c00;marker-end:url(#o)"/><text style="font-size:10;font-family:Droid Sans;letter-spacing:-.5;word-spacing:0" x="567.37" y="394.16"><tspan x="567.37" y="394.16">1) Read + invalidate</tspan><tspan x="567.37" y="404.16">broadcast</tspan></text><path d="m484.63 376.26h165.82" style="fill:none;stroke:#ff8c00;marker-end:url(#p)"/><text style="font-size:10;font-family:Droid Sans;letter-spacing:-.5;word-spacing:0" x="490.09" y="373.49"><tspan x="490.09" y="373.49">2) Acknowledge invalidate</tspan></text><path d="m568.99 384.61h-82.37" style="fill:none;stroke:#ff8c00;marker-end:url(#q)"/><path d="m653.46 369.4-9.97.16v-42.33l11.32-.06" style="fill:none;stroke:#ff8c00;marker-end:url(#r)"/><text style="font-size:10;font-family:Droid Sans;letter-spacing:-.5;word-spacing:0" x="581.18" y="333.93"><tspan x="581.18" y="333.93">3) Put in cache</tspan><tspan x="581.18" y="343.93"/></text><g style="fill:none;stroke:#32cd32;stroke-width:1.7;stroke-miterlimit:10" transform="matrix(.67 0 0 .61 34.34 198.43)"><ellipse cx="312.74" cy="424.64" rx="34.8" ry="7.07"/><path d="m347.35 477.12c0 3.91-15.58 7.07-34.8 7.07s-34.8-3.17-34.8-7.07"/><path d="m277.94 477.87v-53.6m69.23 0v53.6"/></g><path d="m232.94 511.65v134.23h21.07v-134.23h10.53l-22.12-18.79-21.77 18.49z" style="fill:none;stroke:#f00"/><text style="font-size:10;font-family:Droid Sans;letter-spacing:-.5;word-spacing:0" x="225.15" y="473.46"><tspan x="225.15" y="473.46">Shared</tspan><tspan x="225.15" y="483.46">Memory</tspan></text><g transform="translate(46.78 7.54)"><g style="fill:none;stroke:#008000;stroke-width:1.35" transform="matrix(.66 0 0 1 -36.4 242.52)"><path d="m204.2 275.2h95v41.37h-95z"/><path d="m203.99 288.64h94.91"/><path d="m203.99 302.6h94.91"/></g><g style="font-size:10;font-family:Droid Sans;letter-spacing:-.5;word-spacing:0"><text x="113.95" y="527.37"><tspan x="113.95" y="527.37">Shared</tspan></text><text x="114.17" y="555.58"><tspan x="114.17" y="555.58">Invalid</tspan></text><text x="114.76" y="541.27"><tspan x="114.76" y="541.27">Invalid</tspan></text></g></g><g transform="translate(-36.74 192.48)"><path d="m183.97 388.3h58.61v32.96h-58.61z" style="fill:none;stroke:#ff8c00;stroke-width:1.1"/><text style="font-size:10;font-family:Droid Sans;letter-spacing:-.5;word-spacing:0" x="192.1" y="403.88"><tspan x="192.1" y="403.88">Cache</tspan><tspan x="192.1" y="413.88">Controller</tspan></text></g><g transform="translate(228.73 6.42)"><g style="fill:none;stroke:#008000;stroke-width:1.35" transform="matrix(.66 0 0 1 -36.4 242.52)"><path d="m204.2 275.2h95v41.37h-95z"/><path d="m203.99 288.64h94.91"/><path d="m203.99 302.6h94.91"/></g><g style="font-size:10;font-family:Droid Sans;letter-spacing:-.5;word-spacing:0"><text x="114.54" y="527.37"><tspan x="114.54" y="527.37">Shared</tspan></text><text x="109.39" y="555.58"><tspan style="fill:#00f" x="109.39" y="555.58">Modified</tspan></text><text x="109.99" y="541.27"><tspan x="109.99" y="541.27">Modified</tspan></text></g></g><g transform="translate(145.21 191.36)"><path d="m183.97 388.3h58.61v32.96h-58.61z" style="fill:none;stroke:#ff8c00;stroke-width:1.1"/><text style="font-size:10;font-family:Droid Sans;letter-spacing:-.5;word-spacing:0" x="192.1" y="403.88"><tspan x="192.1" y="403.88">Cache</tspan><tspan x="192.1" y="413.88">Controller</tspan></text></g><g transform="translate(195.92 -2.61)"><path d="m194.5 598.96h48.12" style="fill:none;stroke:#696969;marker-start:url(#s)"/><text style="font-size:10;font-family:Droid Sans;letter-spacing:-.5;word-spacing:0" x="197.47" y="596.58"><tspan x="197.47" y="596.58">Load 0x30</tspan></text></g><path d="m330.12 601.68-9.97.16v-42.33l11.32-.06" style="fill:none;stroke:#ff8c00;marker-end:url(#t)"/><g style="font-size:10;font-family:Droid Sans;letter-spacing:-.5;word-spacing:0"><text x="252.98" y="581.49"><tspan x="252.98" y="581.49">Just put in cache</tspan><tspan x="252.98" y="591.49"/></text><text x="289.97" y="626.23"><tspan x="289.97" y="626.23">No bus traffic when writing an</tspan><tspan x="289.97" y="636.23">exclusive line =&gt; optimization</tspan></text></g></svg>