<svg height="58.05mm" viewBox="0 0 735.35 205.69" width="207.53mm" xmlns="http://www.w3.org/2000/svg" xmlns:xlink="http://www.w3.org/1999/xlink"><marker id="a" orient="auto" refX="0" refY="0" style="overflow:visible"><path d="m2.31 0-3.46 2v-4z" style="fill:#00008b;fill-rule:evenodd;stroke:#00008b;stroke-width:.4pt"/></marker><marker id="b" orient="auto" refX="0" refY="0" style="overflow:visible"><path d="m2.31 0-3.46 2v-4z" style="fill:#1e90ff;fill-rule:evenodd;stroke:#1e90ff;stroke-width:.4pt"/></marker><marker id="c" orient="auto" refX="0" refY="0" style="overflow:visible"><path d="m2.31 0-3.46 2v-4z" style="fill:#00008b;fill-rule:evenodd;stroke:#00008b;stroke-width:.4pt"/></marker><marker id="d" orient="auto" refX="0" refY="0" style="overflow:visible"><path d="m2.31 0-3.46 2v-4z" style="fill:#00008b;fill-rule:evenodd;stroke:#00008b;stroke-width:.4pt"/></marker><marker id="e" orient="auto" refX="0" refY="0" style="overflow:visible"><path d="m2.31 0-3.46 2v-4z" style="fill:#00008b;fill-rule:evenodd;stroke:#00008b;stroke-width:.4pt"/></marker><marker id="f" orient="auto" refX="0" refY="0" style="overflow:visible"><path d="m2.31 0-3.46 2v-4z" style="fill:#00008b;fill-rule:evenodd;stroke:#00008b;stroke-width:.4pt"/></marker><marker id="g" orient="auto" refX="0" refY="0" style="overflow:visible"><path d="m2.31 0-3.46 2v-4z" style="fill:#1e90ff;fill-rule:evenodd;stroke:#1e90ff;stroke-width:.4pt"/></marker><marker id="h" orient="auto" refX="0" refY="0" style="overflow:visible"><path d="m2.31 0-3.46 2v-4z" style="fill:#00008b;fill-rule:evenodd;stroke:#00008b;stroke-width:.4pt"/></marker><marker id="i" orient="auto" refX="0" refY="0" style="overflow:visible"><path d="m2.31 0-3.46 2v-4z" style="fill:#00008b;fill-rule:evenodd;stroke:#00008b;stroke-width:.4pt"/></marker><marker id="j" orient="auto" refX="0" refY="0" style="overflow:visible"><path d="m2.31 0-3.46 2v-4z" style="fill:#00008b;fill-rule:evenodd;stroke:#00008b;stroke-width:.4pt"/></marker><marker id="k" orient="auto" refX="0" refY="0" style="overflow:visible"><path d="m2.31 0-3.46 2v-4z" style="fill:#1e90ff;fill-rule:evenodd;stroke:#1e90ff;stroke-width:.4pt"/></marker><marker id="l" orient="auto" refX="0" refY="0" style="overflow:visible"><path d="m2.31 0-3.46 2v-4z" style="fill:#00008b;fill-rule:evenodd;stroke:#00008b;stroke-width:.4pt"/></marker><marker id="m" orient="auto" refX="0" refY="0" style="overflow:visible"><path d="m2.31 0-3.46 2v-4z" style="fill:#00008b;fill-rule:evenodd;stroke:#00008b;stroke-width:.4pt"/></marker><marker id="n" orient="auto" refX="0" refY="0" style="overflow:visible"><path d="m2.31 0-3.46 2v-4z" style="fill:#1e90ff;fill-rule:evenodd;stroke:#1e90ff;stroke-width:.4pt"/></marker><marker id="o" orient="auto" refX="0" refY="0" style="overflow:visible"><path d="m2.31 0-3.46 2v-4z" style="fill:#00008b;fill-rule:evenodd;stroke:#00008b;stroke-width:.4pt"/></marker><marker id="p" orient="auto" refX="0" refY="0" style="overflow:visible"><path d="m2.31 0-3.46 2v-4z" style="fill:#00008b;fill-rule:evenodd;stroke:#00008b;stroke-width:.4pt"/></marker><g transform="translate(6.78 -182.28)"><path d="m186.13 197.71v142.36" style="fill:none;stroke:#00008b;marker-end:url(#a)"/><path d="m58.8 228.05h102.47l-26.55 26.52h-103.87z" style="fill:none;stroke:#00008b;stroke-width:1.1;stroke-miterlimit:10"/><g style="font-size:10;font-family:Droid Sans;letter-spacing:-.5;word-spacing:0" transform="translate(-209.4 -78.75)"><text x="268.97" y="317.66"><tspan style="font-size:10;font-family:DejaVu Sans Mono" x="268.97" y="317.66">mov $1, (%eax)</tspan><tspan style="font-size:10;font-family:DejaVu Sans Mono" x="268.97" y="327.66">mov $6, (%ebx)</tspan></text><text x="267.27" y="303.06"><tspan x="267.27" y="303.06">Core 1</tspan></text></g><g transform="translate(-160.48 -185.54)"><text style="font-size:10;font-family:Droid Sans;letter-spacing:-.5;word-spacing:0" x="201.14" y="476.52"><tspan style="font-size:10;font-family:DejaVu Sans Mono" x="201.14" y="476.52">mov (%ebx), %ecx</tspan><tspan style="font-size:10;font-family:DejaVu Sans Mono" x="201.14" y="486.52">mov (%eax), %edx</tspan></text><text style="font-size:10;font-family:Droid Sans;letter-spacing:-.5;word-spacing:0" x="203.43" y="461.15"><tspan x="203.43" y="461.15">Core 2</tspan></text><path d="m204.03 465.79h114.1l-29.56 26.52h-115.65z" style="fill:none;stroke:#1e90ff;stroke-width:1.1;stroke-miterlimit:10"/></g><path d="m252.95 198.9v141.8" style="fill:none;stroke:#1e90ff;marker-end:url(#b)"/><text style="font-size:10;font-family:Droid Sans;letter-spacing:-.5;word-spacing:0" x="158.69" y="191.5"><tspan x="158.69" y="191.5">Possible sequential execution 1</tspan></text><g transform="translate(14.91 -350.19)"><path d="m175.16 558.4h-8.31" style="fill:none;stroke:#000080"/><text style="font-size:10;font-family:Droid Sans;letter-spacing:-.5;word-spacing:0" x="175.9" y="561.66"><tspan style="font-size:10;font-family:DejaVu Sans Mono" x="175.9" y="561.66">(%eax)=1</tspan></text></g><g transform="translate(14.85 -315.13)"><path d="m175.16 558.4h-8.31" style="fill:none;stroke:#000080"/><text style="font-size:10;font-family:Droid Sans;letter-spacing:-.5;word-spacing:0" x="175.9" y="561.66"><tspan style="font-size:10;font-family:DejaVu Sans Mono" x="175.9" y="561.66">(%ebx)=6</tspan></text></g><path d="m186.07 207.99 8.22 13.34 55 .39" style="fill:none;stroke:#00008b;marker-end:url(#c)"/><text style="font-size:10;font-family:Droid Sans;letter-spacing:-.5;word-spacing:0;fill:#f00" x="189.71" y="231.47"><tspan x="189.71" y="231.47">Change visible</tspan></text><path d="m185.55 243.21 9.41 25.87 55 .39" style="fill:none;stroke:#00008b;marker-end:url(#d)"/><g transform="translate(35.73 -276.94)"><path d="m221.1 558.4h-8.31" style="fill:none;stroke:#1e90ff"/><text style="font-size:10;font-family:Droid Sans;letter-spacing:-.5;word-spacing:0" x="175.9" y="561.66"><tspan style="font-size:10;font-family:DejaVu Sans Mono" x="175.9" y="561.66">%ecx=6</tspan></text></g><g transform="translate(35.88 -259.2)"><path d="m221.1 558.4h-8.31" style="fill:none;stroke:#1e90ff"/><text style="font-size:10;font-family:Droid Sans;letter-spacing:-.5;word-spacing:0" x="175.9" y="561.66"><tspan style="font-size:10;font-family:DejaVu Sans Mono" x="175.9" y="561.66">%edx=1</tspan></text></g><path d="m322.35 196.68v144.71" style="fill:none;stroke:#00008b;marker-end:url(#h)"/><path d="m389.16 197.87v142.97" style="fill:none;stroke:#1e90ff;marker-end:url(#g)"/><text style="font-size:10;font-family:Droid Sans;letter-spacing:-.5;word-spacing:0" x="294.9" y="190.47"><tspan x="294.9" y="190.47">Possible sequential execution 2</tspan></text><g transform="translate(151.13 -351.22)"><path d="m175.16 558.4h-8.31" style="fill:none;stroke:#000080"/><text style="font-size:10;font-family:Droid Sans;letter-spacing:-.5;word-spacing:0" x="175.9" y="561.66"><tspan style="font-size:10;font-family:DejaVu Sans Mono" x="175.9" y="561.66">(%eax)=1</tspan></text></g><g transform="translate(151.07 -287.52)"><path d="m175.16 558.4h-8.31" style="fill:none;stroke:#000080"/><text style="font-size:10;font-family:Droid Sans;letter-spacing:-.5;word-spacing:0" x="175.9" y="561.66"><tspan style="font-size:10;font-family:DejaVu Sans Mono" x="175.9" y="561.66">(%ebx)=6</tspan></text></g><path d="m322.28 206.96 8.22 13.34 55 .39" style="fill:none;stroke:#00008b;marker-end:url(#f)"/><path d="m321.76 270.82 9.41 25.87 55 .39" style="fill:none;stroke:#00008b;marker-end:url(#e)"/><g transform="translate(171.94 -325.69)"><path d="m221.1 558.4h-8.31" style="fill:none;stroke:#1e90ff"/><text style="font-size:10;font-family:Droid Sans;letter-spacing:-.5;word-spacing:0" x="175.9" y="561.66"><tspan style="font-size:10;font-family:DejaVu Sans Mono" x="175.9" y="561.66">%ecx=0</tspan></text></g><g transform="translate(171.5 -307.96)"><path d="m221.1 558.4h-8.31" style="fill:none;stroke:#1e90ff"/><text style="font-size:10;font-family:Droid Sans;letter-spacing:-.5;word-spacing:0" x="175.9" y="561.66"><tspan style="font-size:10;font-family:DejaVu Sans Mono" x="175.9" y="561.66">%edx=1</tspan></text></g><path d="m460.03 196.08v145.89" style="fill:none;stroke:#00008b;marker-end:url(#l)"/><path d="m526.84 197.28v145.33" style="fill:none;stroke:#1e90ff;marker-end:url(#k)"/><text style="font-size:10;font-family:Droid Sans;letter-spacing:-.5;word-spacing:0;fill:#f00" x="432.58" y="189.87"><tspan x="432.58" y="189.87">Impossible sequential execution 1</tspan></text><g transform="translate(288.81 -351.82)"><path d="m175.16 558.4h-8.31" style="fill:none;stroke:#000080"/><text style="font-size:10;font-family:Droid Sans;letter-spacing:-.5;word-spacing:0" x="175.9" y="561.66"><tspan style="font-size:10;font-family:DejaVu Sans Mono" x="175.9" y="561.66">(%eax)=1</tspan></text></g><g transform="translate(288.75 -288.12)"><path d="m175.16 558.4h-8.31" style="fill:none;stroke:#000080"/><text style="font-size:10;font-family:Droid Sans;letter-spacing:-.5;word-spacing:0" x="175.9" y="561.66"><tspan style="font-size:10;font-family:DejaVu Sans Mono" x="175.9" y="561.66">(%ebx)=6</tspan></text></g><path d="m459.96 206.36 8.22 13.34 55 .39" style="fill:none;stroke:#00008b;marker-end:url(#j)"/><path d="m459.44 270.22 9.41 25.87 55 .39" style="fill:none;stroke:#00008b;marker-end:url(#i)"/><g transform="translate(309.63 -306.01)"><path d="m221.1 558.4h-8.31" style="fill:none;stroke:#1e90ff"/><text style="font-size:10;font-family:Droid Sans;letter-spacing:-.5;word-spacing:0" x="175.9" y="561.66"><tspan style="font-size:10;font-family:DejaVu Sans Mono" x="175.9" y="561.66">%ecx=0</tspan></text></g><g transform="translate(309.18 -324.06)"><path d="m221.1 558.4h-8.31" style="fill:none;stroke:#1e90ff"/><text style="font-size:10;font-family:Droid Sans;letter-spacing:-.5;word-spacing:0" x="175.9" y="561.66"><tspan style="font-size:10;font-family:DejaVu Sans Mono" x="175.9" y="561.66">%edx=1</tspan></text></g><path d="m601.47 196.08v145.89" style="fill:none;stroke:#00008b;marker-end:url(#o)"/><path d="m668.29 197.28v145.33" style="fill:none;stroke:#1e90ff;marker-end:url(#n)"/><text style="font-size:10;font-family:Droid Sans;letter-spacing:-.5;word-spacing:0;fill:#f00" x="574.03" y="189.87"><tspan x="574.03" y="189.87">Impossible sequential execution 2</tspan></text><g transform="translate(430.25 -351.82)"><path d="m175.16 558.4h-8.31" style="fill:none;stroke:#000080"/><text style="font-size:10;font-family:Droid Sans;letter-spacing:-.5;word-spacing:0" x="175.9" y="561.66"><tspan style="font-size:10;font-family:DejaVu Sans Mono" x="175.9" y="561.66">(%eax)=1</tspan></text></g><g transform="translate(430.19 -327.49)"><path d="m175.16 558.4h-8.31" style="fill:none;stroke:#000080"/><text style="font-size:10;font-family:Droid Sans;letter-spacing:-.5;word-spacing:0" x="175.9" y="561.66"><tspan style="font-size:10;font-family:DejaVu Sans Mono" x="175.9" y="561.66">(%ebx)=6</tspan></text></g><path d="m601.41 206.36 8.82 62.26 55 .39" style="fill:none;stroke:#00008b;marker-end:url(#m)"/><g transform="translate(451.07 -276.78)"><path d="m221.1 558.4h-8.31" style="fill:none;stroke:#1e90ff"/><text style="font-size:10;font-family:Droid Sans;letter-spacing:-.5;word-spacing:0" x="175.9" y="561.66"><tspan style="font-size:10;font-family:DejaVu Sans Mono" x="175.9" y="561.66">%ecx=6</tspan></text></g><g transform="translate(451.81 -301.39)"><path d="m221.1 558.4h-8.31" style="fill:none;stroke:#1e90ff"/><text style="font-size:10;font-family:Droid Sans;letter-spacing:-.5;word-spacing:0" x="175.9" y="561.66"><tspan style="font-size:10;font-family:DejaVu Sans Mono" x="175.9" y="561.66">%edx=0</tspan></text></g><path d="m601.96 231.28 8.22 13.34 55 .39" style="fill:none;stroke:#00008b;marker-end:url(#p)"/><g style="font-size:10;font-family:Droid Sans;letter-spacing:-.5;word-spacing:0"><text x="158.09" xml:space="preserve" y="355.56"><tspan x="158.09" y="355.56">- Writes are immediately visible by other cores after executed</tspan><tspan x="158.09" y="365.56">- The sequence of asm operations is respected for each core</tspan><tspan x="158.09" y="375.56">- Total order is not defined, it can be any combination of the</tspan><tspan x="158.09" y="385.56">   interleave of the 2 cores sequences</tspan><tspan x="158.09" y="395.56"/></text><text x="437.29" y="355.56"><tspan x="437.29" y="355.56">Sequence of asm operations</tspan><tspan x="437.29" y="365.56">on core 2 is not respected</tspan></text><text x="586.44" y="355.56"><tspan x="586.44" y="355.56">Writes by core 1 are not</tspan><tspan x="586.44" y="365.56">visible immediately to core 2</tspan></text></g></g></svg>