<svg height="800" viewBox="0 0 1050.71 532.69" width="1600" xmlns="http://www.w3.org/2000/svg" xmlns:xlink="http://www.w3.org/1999/xlink"><marker id="a" orient="auto" refX="0" refY="0" style="overflow:visible"><path d="m0 0 5-5-17.5 5 17.5 5z" style="fill:#ef2929;fill-rule:evenodd;stroke:#ef2929;stroke-width:1pt" transform="matrix(-.4 0 0 -.4 -4 0)"/></marker><marker id="b" orient="auto" refX="0" refY="0" style="overflow:visible"><path d="m0 0 5-5-17.5 5 17.5 5z" style="fill:#204a87;fill-rule:evenodd;stroke:#204a87;stroke-width:1pt" transform="matrix(-.4 0 0 -.4 -4 0)"/></marker><marker id="c" orient="auto" refX="0" refY="0" style="overflow:visible"><path d="m0 0 5-5-17.5 5 17.5 5z" style="fill:#ef2929;fill-rule:evenodd;stroke:#ef2929;stroke-width:1pt" transform="matrix(-.4 0 0 -.4 -4 0)"/></marker><marker id="d" orient="auto" refX="0" refY="0" style="overflow:visible"><path d="m0 0 5-5-17.5 5 17.5 5z" style="fill:#204a87;fill-rule:evenodd;stroke:#204a87;stroke-width:1pt" transform="matrix(-.4 0 0 -.4 -4 0)"/></marker><marker id="e" orient="auto" refX="0" refY="0" style="overflow:visible"><path d="m0 0 5-5-17.5 5 17.5 5z" style="fill:#204a87;fill-rule:evenodd;stroke:#204a87;stroke-width:1pt" transform="matrix(-.4 0 0 -.4 -4 0)"/></marker><marker id="f" orient="auto" refX="0" refY="0" style="overflow:visible"><path d="m8.72 4.03-10.93-4.01 10.93-4.02c-1.75 2.37-1.74 5.62 0 8.04z" style="fill:#204a87;fill-rule:evenodd;stroke:#204a87;stroke-width:.63;stroke-linejoin:round" transform="scale(-.6)"/></marker><marker id="g" orient="auto" refX="0" refY="0" style="overflow:visible"><path d="m0 0 5-5-17.5 5 17.5 5z" style="fill:#204a87;fill-rule:evenodd;stroke:#204a87;stroke-width:1pt" transform="matrix(-.4 0 0 -.4 -4 0)"/></marker><marker id="h" orient="auto" refX="0" refY="0" style="overflow:visible"><path d="m0 0 5-5-17.5 5 17.5 5z" style="fill:#204a87;fill-rule:evenodd;stroke:#204a87;stroke-width:1pt" transform="matrix(-.4 0 0 -.4 -4 0)"/></marker><marker id="i" orient="auto" refX="0" refY="0" style="overflow:visible"><path d="m0 0 5-5-17.5 5 17.5 5z" style="fill:#204a87;fill-rule:evenodd;stroke:#204a87;stroke-width:1pt" transform="matrix(-.4 0 0 -.4 -4 0)"/></marker><marker id="j" orient="auto" refX="0" refY="0" style="overflow:visible"><path d="m8.72 4.03-10.93-4.01 10.93-4.02c-1.75 2.37-1.74 5.62 0 8.04z" style="fill:#204a87;fill-rule:evenodd;stroke:#204a87;stroke-width:.63;stroke-linejoin:round" transform="scale(-.6)"/></marker><marker id="k" orient="auto" refX="0" refY="0" style="overflow:visible"><path d="m0 0 5-5-17.5 5 17.5 5z" style="fill:#ef2929;fill-rule:evenodd;stroke:#ef2929;stroke-width:1pt" transform="matrix(-.4 0 0 -.4 -4 0)"/></marker><marker id="l" orient="auto" refX="0" refY="0" style="overflow:visible"><path d="m0 0 5-5-17.5 5 17.5 5z" style="fill:#204a87;fill-rule:evenodd;stroke:#204a87;stroke-width:1pt" transform="matrix(-.4 0 0 -.4 -4 0)"/></marker><marker id="m" orient="auto" refX="0" refY="0" style="overflow:visible"><path d="m0 0 5-5-17.5 5 17.5 5z" style="fill:#ef2929;fill-rule:evenodd;stroke:#ef2929;stroke-width:1pt" transform="matrix(-.4 0 0 -.4 -4 0)"/></marker><marker id="n" orient="auto" refX="0" refY="0" style="overflow:visible"><path d="m0 0 5-5-17.5 5 17.5 5z" style="fill:#204a87;fill-rule:evenodd;stroke:#204a87;stroke-width:1pt" transform="matrix(-.4 0 0 -.4 -4 0)"/></marker><marker id="o" orient="auto" refX="0" refY="0" style="overflow:visible"><path d="m0 0 5-5-17.5 5 17.5 5z" style="fill:#3465a4;fill-rule:evenodd;stroke:#3465a4;stroke-width:1pt" transform="matrix(-.4 0 0 -.4 -4 0)"/></marker><marker id="p" orient="auto" refX="0" refY="0" style="overflow:visible"><path d="m0 0 5-5-17.5 5 17.5 5z" style="fill:#3465a4;fill-rule:evenodd;stroke:#3465a4;stroke-width:1pt" transform="matrix(-.4 0 0 -.4 -4 0)"/></marker><marker id="q" orient="auto" refX="0" refY="0" style="overflow:visible"><path d="m0 0 5-5-17.5 5 17.5 5z" style="fill:#ef2929;fill-rule:evenodd;stroke:#ef2929;stroke-width:1pt" transform="matrix(-.4 0 0 -.4 -4 0)"/></marker><marker id="r" orient="auto" refX="0" refY="0" style="overflow:visible"><path d="m0 0 5-5-17.5 5 17.5 5z" style="fill:#ef2929;fill-rule:evenodd;stroke:#ef2929;stroke-width:1pt" transform="matrix(-.4 0 0 -.4 -4 0)"/></marker><marker id="s" orient="auto" refX="0" refY="0" style="overflow:visible"><path d="m0 0 5-5-17.5 5 17.5 5z" style="fill:#3465a4;fill-rule:evenodd;stroke:#3465a4;stroke-width:1pt" transform="matrix(-.4 0 0 -.4 -4 0)"/></marker><g transform="translate(120.79 257.06)"><ellipse cx="191.45" cy="-223.26" rx="52.8" ry="26.17" style="fill:none;stroke:#204a87;stroke-width:1.1"/><text style="font-size:10;font-family:Droid Sans;letter-spacing:0;word-spacing:0;stroke-width:.94" x="170.04" xml:space="preserve" y="-227.99"><tspan x="170.04" y="-227.99">Bytes</tspan><tspan x="170.04" y="-215.49">Bytearray </tspan></text></g><text style="stroke-width:.94" x="189.2" y="191.77"><tspan style="stroke-width:.94" x="189.2" y="200.63"/></text><g transform="translate(125.56 280.55)"><ellipse cx="49.5" cy="-67.29" rx="34.24" ry="26.17" style="fill:none;stroke:#204a87;stroke-width:1.1"/><text style="font-size:10;font-family:Droid Sans;letter-spacing:0;word-spacing:0;stroke-width:.94" x="27.84" xml:space="preserve" y="-69.88"><tspan style="stroke-width:.94" x="27.84" y="-69.88">Cython </tspan><tspan style="stroke-width:.94" x="27.84" y="-57.38">memview</tspan></text></g><g transform="translate(-73.34 5.71)"><ellipse cx="536.45" cy="203.03" rx="52.8" ry="26.17" style="fill:none;stroke:#204a87;stroke-width:1.1"/><text style="font-size:10;font-family:Droid Sans;letter-spacing:0;word-spacing:0;stroke-width:.94" x="506.53" y="204.95"><tspan style="stroke-width:.94" x="506.53" y="204.95">C raw pointer</tspan></text></g><g style="stroke-width:.94"><path d="m294.65 57.34s-49.68 63.64-63.99 81.15c-14.18 17.35-52.73 47.85-52.73 47.85" style="fill:none;stroke:#204a87;marker-end:url(#b)"/><g style="font-size:10;font-family:Droid Sans;letter-spacing:0;word-spacing:0"><text x="123.47" y="133.26"><tspan style="font-size:10;font-family:Droid Sans Mono;stroke-width:.94" x="123.47" y="133.26">cdef char[:] view = bytearray</tspan></text><text x="62.5" y="93.17"><tspan style="font-size:10;font-family:Droid Sans Mono;stroke-width:.94" x="62.5" y="93.17">cdef bytes octets = view.tobytes()</tspan></text><text x="17.72" xml:space="preserve" y="238.81"><tspan style="font-size:10;font-family:Droid Sans Mono;stroke-width:.94" x="17.72" y="238.81">cdef object pview = </tspan><tspan style="font-size:10;font-family:Droid Sans Mono;stroke-width:.94" x="17.72" y="251.31">  memoryview(view)</tspan></text></g></g><g transform="translate(71.87 255.69)"><text style="font-size:10;font-family:Droid Sans;letter-spacing:0;word-spacing:0;stroke-width:.94" x="-18.23" xml:space="preserve" y="-85.79"><tspan style="stroke-width:.94" x="-18.23" y="-85.79">Python </tspan><tspan style="stroke-width:.94" x="-18.23" y="-73.29">memview</tspan></text><ellipse cx="3.65" cy="-82.81" rx="34.24" ry="26.17" style="fill:none;stroke:#204a87;stroke-width:1.1"/></g><g style="stroke-width:.94"><path d="m90.5 150.02s43.43-38.55 63.96-47.94c21.15-17.88 119.88-49.68 119.88-49.68" style="fill:none;stroke:#ef2929;marker-end:url(#a)"/><path d="m348.88 51.63s2.39 71.27 13.63 92.98c10.35 19.98 61.23 45.15 61.23 45.15" style="fill:none;stroke:#204a87;marker-end:url(#d)"/><text style="font-size:10;font-family:Droid Sans;letter-spacing:0;word-spacing:0" x="327.34" y="129.08"><tspan style="font-size:10;font-family:Droid Sans Mono;stroke-width:.94" x="327.34" y="129.08">cdef char* raw = bytes</tspan><tspan style="font-size:10;font-family:Droid Sans Mono;stroke-width:.94" x="327.34" y="141.58">(auto coerce)</tspan></text><path d="m489.19 186.74s-22.04-54.22-37.16-72.19c-20.37-24.21-93.12-67.96-93.12-67.96" style="fill:none;stroke:#ef2929;marker-end:url(#c)"/><text style="font-size:10;font-family:Droid Sans;letter-spacing:0;word-spacing:0" x="366.2" y="97.07"><tspan style="font-size:10;font-family:Droid Sans Mono;stroke-width:.94" x="366.2" y="97.07">cdef bytes octets = raw[:len]</tspan></text><path d="m411.05 213.32s-51.49-30.95-76.34-36.65c-25.32-5.8-224.83-11.22-224.83-11.22" style="fill:none;stroke:#204a87;marker-end:url(#f)"/><text style="font-size:10;font-family:Droid Sans;letter-spacing:0;word-spacing:0" x="231.78" y="248.41"><tspan style="font-size:10;font-family:Droid Sans Mono;stroke-width:.94" x="231.78" y="248.41">cdef char* view = &amp;view[0]</tspan></text><path d="m205.29 224.98s96.22 13.2 120.59 13.36c25.95.17 87.77-18.97 87.77-18.97" style="fill:none;stroke:#204a87;marker-end:url(#e)"/><text style="font-size:10;font-family:Droid Sans;letter-spacing:0;word-spacing:0" x="212.06" xml:space="preserve" y="186.23"><tspan style="font-size:10;font-family:Droid Sans Mono;stroke-width:.94" x="212.06" y="186.23">cdef object view = </tspan><tspan style="font-size:10;font-family:Droid Sans Mono;stroke-width:.94" x="212.06" y="198.73">  PyMemoryView_FromMemory(...)</tspan></text><path d="m141.84 217.6s-19.61 18.07-43.09 11.57c-35.05-9.71-27.93-28.39-27.93-28.39" style="fill:none;stroke:#204a87;marker-end:url(#g)"/></g><g transform="translate(637.32 258.41)"><ellipse cx="191.45" cy="-223.26" rx="52.8" ry="26.17" style="fill:none;stroke:#204a87;stroke-width:1.1"/><text style="font-size:10;font-family:Droid Sans;letter-spacing:0;word-spacing:0;stroke-width:.94" x="170.04" xml:space="preserve" y="-227.99"><tspan x="170.04" y="-227.99">Python</tspan><tspan x="170.04" y="-215.49">Array [int] </tspan></text></g><g transform="translate(642.1 281.9)"><ellipse cx="49.5" cy="-67.29" rx="34.24" ry="26.17" style="fill:none;stroke:#204a87;stroke-width:1.1"/><text style="font-size:10;font-family:Droid Sans;letter-spacing:0;word-spacing:0;stroke-width:.94" x="27.84" xml:space="preserve" y="-69.88"><tspan style="stroke-width:.94" x="27.84" y="-69.88">Cython </tspan><tspan style="stroke-width:.94" x="27.84" y="-57.38">memview</tspan></text></g><g transform="translate(443.19 7.06)"><ellipse cx="536.45" cy="203.03" rx="52.8" ry="26.17" style="fill:none;stroke:#204a87;stroke-width:1.1"/><text style="font-size:10;font-family:Droid Sans;letter-spacing:0;word-spacing:0;stroke-width:.94" x="506.53" y="204.95"><tspan style="stroke-width:.94" x="506.53" y="204.95">C raw pointer</tspan></text></g><g style="stroke-width:.94"><path d="m811.18 58.69s-49.68 63.64-63.99 81.15c-14.18 17.35-52.73 47.85-52.73 47.85" style="fill:none;stroke:#204a87;marker-end:url(#n)"/><g style="font-size:10;font-family:Droid Sans;letter-spacing:0;word-spacing:0"><text x="684.74" y="134.32"><tspan style="font-size:10;font-family:Droid Sans Mono;stroke-width:.94" x="684.74" y="134.32">cdef int[:] view = array</tspan></text><text x="579.03" y="94.51"><tspan style="font-size:10;font-family:Droid Sans Mono;stroke-width:.94" x="579.03" y="94.51">cdef array items = array('i',view)</tspan></text><text x="534.25" xml:space="preserve" y="240.16"><tspan style="font-size:10;font-family:Droid Sans Mono;stroke-width:.94" x="534.25" y="240.16">cdef object pview = </tspan><tspan style="font-size:10;font-family:Droid Sans Mono;stroke-width:.94" x="534.25" y="252.66">  memoryview(view)</tspan></text></g></g><g transform="translate(588.4 257.04)"><text style="font-size:10;font-family:Droid Sans;letter-spacing:0;word-spacing:0;stroke-width:.94" x="-18.23" xml:space="preserve" y="-85.79"><tspan style="stroke-width:.94" x="-18.23" y="-85.79">Python </tspan><tspan style="stroke-width:.94" x="-18.23" y="-73.29">memview</tspan></text><ellipse cx="3.65" cy="-82.81" rx="34.24" ry="26.17" style="fill:none;stroke:#204a87;stroke-width:1.1"/></g><g style="stroke-width:.94"><path d="m686.21 188.1s-18.67-84.26-6.57-100.84c10.11-13.85 111.23-33.51 111.23-33.51" style="fill:none;stroke:#ef2929;marker-end:url(#m)"/><path d="m865.41 52.98s2.39 71.27 13.63 92.98c10.35 19.98 61.23 45.15 61.23 45.15" style="fill:none;stroke:#204a87;marker-end:url(#l)"/><text style="font-size:10;font-family:Droid Sans;letter-spacing:0;word-spacing:0" x="843.87" xml:space="preserve" y="130.42"><tspan style="font-size:10;font-family:Droid Sans Mono;stroke-width:.94" x="843.87" y="130.42">cdef int* raw =</tspan><tspan style="font-size:10;font-family:Droid Sans Mono;stroke-width:.94" x="843.87" y="142.92">  &lt;int*&gt;array.data.as_voidptr</tspan></text><path d="m1005.72 188.09s-22.04-54.22-37.16-72.19c-20.37-24.21-93.11-67.97-93.11-67.97" style="fill:none;stroke:#ef2929;marker-end:url(#k)"/><text style="font-size:10;font-family:Droid Sans;letter-spacing:0;word-spacing:0" x="872.12" xml:space="preserve" y="93.52"><tspan style="font-size:10;font-family:Droid Sans Mono;stroke-width:.94" x="872.12" y="93.52">array.extend_buffer(items, </tspan><tspan style="font-size:10;font-family:Droid Sans Mono;stroke-width:.94" x="872.12" y="106.02">  &lt;char*&gt;raw, item_count)</tspan></text><path d="m927.58 214.66s-51.49-30.95-76.34-36.65c-25.32-5.8-224.83-11.22-224.83-11.22" style="fill:none;stroke:#204a87;marker-end:url(#j)"/><text style="font-size:10;font-family:Droid Sans;letter-spacing:0;word-spacing:0" x="748.32" y="249.76"><tspan style="font-size:10;font-family:Droid Sans Mono;stroke-width:.94" x="748.32" y="249.76">cdef int* view = &lt;int*&gt;&amp;view[0]</tspan></text><path d="m721.83 226.33s96.22 13.2 120.59 13.36c25.95.17 87.77-18.97 87.77-18.97" style="fill:none;stroke:#204a87;marker-end:url(#i)"/><text style="font-size:10;font-family:Droid Sans;letter-spacing:0;word-spacing:0" x="728.59" xml:space="preserve" y="187.58"><tspan style="font-size:10;font-family:Droid Sans Mono;stroke-width:.94" x="728.59" y="187.58">cdef object view = </tspan><tspan style="font-size:10;font-family:Droid Sans Mono;stroke-width:.94" x="728.59" y="200.08">  PyMemoryView_<tspan style="font-weight:bold">FromBuffer</tspan>(...)</tspan></text><g style="fill:none"><path d="m658.37 218.94s-19.61 18.07-43.09 11.57c-35.04-9.7-27.93-28.38-27.93-28.38" style="stroke:#204a87;marker-end:url(#h)"/><path d="m615.45 155.16s39.92 7.81 52.02-8.77c8.74-14.35 8.04-39.14 8.04-39.14" style="stroke:#ef2929"/></g></g><g transform="translate(512.64 553.97)"><ellipse cx="191.45" cy="-223.26" rx="52.8" ry="26.17" style="fill:none;stroke:#204a87;stroke-width:1.1"/><text style="font-size:10;font-family:Droid Sans;letter-spacing:0;word-spacing:0;stroke-width:.94" x="170.04" xml:space="preserve" y="-227.99"><tspan x="170.04" y="-227.99">Python</tspan><tspan x="170.04" y="-215.49">List/tuple </tspan></text></g><g transform="translate(162.84 551.52)"><ellipse cx="191.45" cy="-223.26" rx="52.8" ry="26.17" style="fill:none;stroke:#204a87;stroke-width:1.1"/><text style="font-size:10;font-family:Droid Sans;letter-spacing:0;word-spacing:0;stroke-width:.94" x="170.04" xml:space="preserve" y="-227.99"><tspan x="170.04" y="-227.99">Numpy</tspan><tspan x="170.04" y="-215.49">Array </tspan></text></g><g transform="translate(158.76 722.14)"><ellipse cx="191.45" cy="-223.26" rx="52.8" ry="26.17" style="fill:none;stroke:#204a87;stroke-width:1.1"/><text style="font-size:10;font-family:Droid Sans;letter-spacing:0;word-spacing:0;stroke-width:.94" x="170.04" xml:space="preserve" y="-227.99"><tspan x="170.04" y="-227.99">Cython</tspan><tspan x="170.04" y="-215.49">memview </tspan></text></g><g transform="translate(512.23 722.14)"><ellipse cx="191.45" cy="-223.26" rx="52.8" ry="26.17" style="fill:none;stroke:#204a87;stroke-width:1.1"/><text style="font-size:10;font-family:Droid Sans;letter-spacing:0;word-spacing:0;stroke-width:.94" x="170.04" xml:space="preserve" y="-227.99"><tspan x="170.04" y="-227.99">C raw</tspan><tspan x="170.04" y="-215.49">pointer </tspan></text></g><g style="stroke-width:.94"><text style="font-size:10;font-family:Droid Sans;letter-spacing:0;word-spacing:0" x="660.41" y="460.92"><tspan style="font-size:10;font-family:Droid Sans Mono;stroke-width:.94" x="660.41" y="460.92">cdef int[len] = list</tspan></text><text style="font-size:10;font-family:Droid Sans;letter-spacing:0;word-spacing:0" x="668.58" y="378.07"><tspan style="font-size:10;font-family:Droid Sans Mono;stroke-width:.94" x="668.58" y="378.07">cdef list items = raw</tspan></text><g style="fill:none"><path d="m397.43 344.05s20.76 57.8 58.86 81.24c35.08 21.58 194.95 67.95 194.95 67.95" style="stroke:#3465a4;marker-end:url(#o)"/><path d="m658.6 484.68s-20.76-57.8-58.86-81.24c-35.09-21.58-194.95-67.96-194.95-67.96" style="stroke:#3465a4;marker-end:url(#p)"/><g style="stroke:#ef2929"><path d="m688.08 355.19s-28.9 27.3-27.42 54.07c1.15 20.83 35.64 62.07 35.64 62.07" style="marker-end:url(#q)"/><path d="m719.71 473.82s28.9-27.3 27.42-54.07c-1.15-20.83-35.64-62.07-35.64-62.07" style="marker-end:url(#r)"/></g></g><text style="font-size:10;font-family:Droid Sans;letter-spacing:0;word-spacing:0" x="432.53" xml:space="preserve" y="332.86"><tspan style="font-size:10;font-family:Droid Sans Mono;stroke-width:.94" x="432.53" y="332.86">cdef np.ndarray items =</tspan><tspan style="font-size:10;font-family:Droid Sans Mono;stroke-width:.94" x="432.53" y="345.36">  np.PyArray_SimpleNewFromData(...)</tspan></text><text style="font-size:10;font-family:Droid Sans;letter-spacing:0;word-spacing:0" x="443.14" xml:space="preserve" y="480.62"><tspan style="font-size:10;font-family:Droid Sans Mono;stroke-width:.94" x="443.14" y="480.62">cdef long* raw = </tspan><tspan style="font-size:10;font-family:Droid Sans Mono;stroke-width:.94" x="443.14" y="493.12">  &lt;long*&gt;np.PyArray_DATA(items)</tspan></text><path d="m346.01 354.97s-28.9 27.3-27.42 54.07c1.15 20.83 35.64 62.07 35.64 62.07" style="fill:none;stroke:#3465a4;marker-end:url(#s)"/><text style="font-size:10;font-family:Droid Sans;letter-spacing:0;word-spacing:0" x="244.77" y="411.64"><tspan style="font-size:10;font-family:Droid Sans Mono;stroke-width:.94" x="244.77" y="411.64">cdef long[:] view = items</tspan></text></g></svg>
