<svg height="350" viewBox="0 0 1024 336.42" width="1400" xmlns="http://www.w3.org/2000/svg" xmlns:xlink="http://www.w3.org/1999/xlink"><clipPath id="a"><path d="m266.18 775.66h38.64v5.9h-38.64z" style="clip-rule:evenodd"/></clipPath><clipPath id="b"><path d="m266.18 775.7h38.64v5.86h-38.64z" style="clip-rule:evenodd"/></clipPath><clipPath id="c"><path d="m324.74 779.83h34.01v5.9h-34.01z" style="clip-rule:evenodd"/></clipPath><clipPath id="d"><path d="m324.74 779.9h34.01v5.83h-34.01z" style="clip-rule:evenodd"/></clipPath><clipPath id="e"><path d="m324.74 774h55.92v5.9h-55.92z" style="clip-rule:evenodd"/></clipPath><clipPath id="f"><path d="m324.74 774.05h55.92v5.86h-55.92z" style="clip-rule:evenodd"/></clipPath><clipPath id="g"><path d="m249.22 775.39h21.62v5.9h-21.62z" style="clip-rule:evenodd"/></clipPath><clipPath id="h"><path d="m249.22 775.44h21.62v5.86h-21.62z" style="clip-rule:evenodd"/></clipPath><clipPath id="i"><path d="m257.3 761.02h24.05v5.9h-24.05z" style="clip-rule:evenodd"/></clipPath><clipPath id="j"><path d="m257.3 761.09h24.05v5.83h-24.05z" style="clip-rule:evenodd"/></clipPath><clipPath id="k"><path d="m238.22 760.78h21.65v5.9h-21.65z" style="clip-rule:evenodd"/></clipPath><clipPath id="l"><path d="m238.22 760.82h21.65v5.86h-21.65z" style="clip-rule:evenodd"/></clipPath><clipPath id="m"><path d="m372.29 748.75h21.65v5.9h-21.65z" style="clip-rule:evenodd"/></clipPath><clipPath id="n"><path d="m372.29 748.8h21.65v5.86h-21.65z" style="clip-rule:evenodd"/></clipPath><clipPath id="o"><path d="m311.93 748.49h21.65v5.9h-21.65z" style="clip-rule:evenodd"/></clipPath><clipPath id="p"><path d="m311.93 748.54h21.65v5.86h-21.65z" style="clip-rule:evenodd"/></clipPath><clipPath id="q"><path d="m273.24 670.87h31.94v5.9h-31.94z" style="clip-rule:evenodd"/></clipPath><clipPath id="r"><path d="m273.24 670.92h31.94v5.86h-31.94z" style="clip-rule:evenodd"/></clipPath><clipPath id="s"><path d="m273.24 665.04h29.18v5.9h-29.18z" style="clip-rule:evenodd"/></clipPath><clipPath id="t"><path d="m273.24 665.09h29.18v5.86h-29.18z" style="clip-rule:evenodd"/></clipPath><clipPath id="u"><path d="m286.06 721.3h46.2v5.93h-46.2z" style="clip-rule:evenodd"/></clipPath><clipPath id="v"><path d="m286.06 721.37h46.2v5.86h-46.2z" style="clip-rule:evenodd"/></clipPath><clipPath id="w"><path d="m250.25 726.26h21.65v5.9h-21.65z" style="clip-rule:evenodd"/></clipPath><clipPath id="x"><path d="m250.25 726.34h21.65v5.83h-21.65z" style="clip-rule:evenodd"/></clipPath><clipPath id="y"><path d="m235.1 711.91h21.62v5.9h-21.62z" style="clip-rule:evenodd"/></clipPath><clipPath id="z"><path d="m235.1 711.96h21.62v5.86h-21.62z" style="clip-rule:evenodd"/></clipPath><clipPath id="A"><path d="m242.42 697.01h21.62v5.9h-21.62z" style="clip-rule:evenodd"/></clipPath><clipPath id="B"><path d="m242.42 697.06h21.62v5.86h-21.62z" style="clip-rule:evenodd"/></clipPath><clipPath id="C"><path d="m235.37 681.34h21.62v5.9h-21.62z" style="clip-rule:evenodd"/></clipPath><clipPath id="D"><path d="m235.37 681.38h21.62v5.86h-21.62z" style="clip-rule:evenodd"/></clipPath><clipPath id="E"><path d="m246.34 666.96h21.62v5.9h-21.62z" style="clip-rule:evenodd"/></clipPath><clipPath id="F"><path d="m246.34 667.01h21.62v5.86h-21.62z" style="clip-rule:evenodd"/></clipPath><clipPath id="G"><path d="m345.65 697.8h21.62v5.9h-21.62z" style="clip-rule:evenodd"/></clipPath><clipPath id="H"><path d="m345.65 697.85h21.62v5.86h-21.62z" style="clip-rule:evenodd"/></clipPath><clipPath id="I"><path d="m352.44 683.69h21.62v5.9h-21.62z" style="clip-rule:evenodd"/></clipPath><clipPath id="J"><path d="m352.44 683.74h21.62v5.86h-21.62z" style="clip-rule:evenodd"/></clipPath><clipPath id="K"><path d="m347.47 668.26h21.62v5.9h-21.62z" style="clip-rule:evenodd"/></clipPath><clipPath id="L"><path d="m347.47 668.33h21.62v5.83h-21.62z" style="clip-rule:evenodd"/></clipPath><clipPath id="M"><path d="m386.14 721.82h43.61v5.9h-43.61z" style="clip-rule:evenodd"/></clipPath><clipPath id="N"><path d="m386.14 721.87h43.61v5.86h-43.61z" style="clip-rule:evenodd"/></clipPath><clipPath id="O"><path d="m483.62 727.32h49.8v5.9h-49.8z" style="clip-rule:evenodd"/></clipPath><clipPath id="P"><path d="m483.62 727.37h49.8v5.86h-49.8z" style="clip-rule:evenodd"/></clipPath><clipPath id="Q"><path d="m483.62 721.46h59.69v5.9h-59.69z" style="clip-rule:evenodd"/></clipPath><clipPath id="R"><path d="m483.62 721.51h59.69v5.86h-59.69z" style="clip-rule:evenodd"/></clipPath><clipPath id="S"><path d="m441.02 712.94h21.65v5.9h-21.65z" style="clip-rule:evenodd"/></clipPath><clipPath id="T"><path d="m441.02 712.99h21.65v5.86h-21.65z" style="clip-rule:evenodd"/></clipPath><clipPath id="U"><path d="m456.7 727.85h21.65v5.9h-21.65z" style="clip-rule:evenodd"/></clipPath><clipPath id="V"><path d="m456.7 727.9h21.65v5.86h-21.65z" style="clip-rule:evenodd"/></clipPath><clipPath id="W"><path d="m337.8 712.68h21.65v5.9h-21.65z" style="clip-rule:evenodd"/></clipPath><clipPath id="X"><path d="m337.8 712.73h21.65v5.86h-21.65z" style="clip-rule:evenodd"/></clipPath><clipPath id="Y"><path d="m431.62 698.83h21.65v5.9h-21.65z" style="clip-rule:evenodd"/></clipPath><clipPath id="Z"><path d="m431.62 698.88h21.65v5.86h-21.65z" style="clip-rule:evenodd"/></clipPath><clipPath id="aa"><path d="m449.9 697.27h21.65v5.9h-21.65z" style="clip-rule:evenodd"/></clipPath><clipPath id="ab"><path d="m449.9 697.32h21.65v5.86h-21.65z" style="clip-rule:evenodd"/></clipPath><clipPath id="ac"><path d="m529.87 697.54h21.65v5.9h-21.65z" style="clip-rule:evenodd"/></clipPath><clipPath id="ad"><path d="m529.87 697.58h21.65v5.86h-21.65z" style="clip-rule:evenodd"/></clipPath><clipPath id="ae"><path d="m521.78 683.16h21.62v5.9h-21.62z" style="clip-rule:evenodd"/></clipPath><clipPath id="af"><path d="m521.78 683.21h21.62v5.86h-21.62z" style="clip-rule:evenodd"/></clipPath><g transform="matrix(2.76 0 0 -2.76 -615.76 2166.45)"><g style="fill:none;stroke-width:.62;stroke-linecap:round;stroke-linejoin:round;stroke-miterlimit:10"><path d="m249.26 782.45h7.85v-7.83h-7.85z" style="stroke:#000"/><path d="m238.06 768.24h7.84v-7.82h-7.84z" style="stroke:#ed1c24"/><path d="m258.19 767.98h7.85v-7.83h-7.85z" style="stroke:#ed1c24"/><path d="m310.68 782.62h7.82v-7.85h-7.82z" style="stroke:#000"/><g style="stroke:#ed1c24"><path d="m299.5 768.41h7.82v-7.85h-7.82z"/><path d="m319.61 768.14h7.82v-7.84h-7.82z"/><path d="m312.29 754.92h7.85v-7.85h-7.85z"/></g><g style="stroke:#000"><path d="m371.3 783.14h7.83v-7.84h-7.83z"/><path d="m360.12 768.94h7.82v-7.85h-7.82z"/><path d="m380.23 768.65h7.85v-7.83h-7.85z"/></g><path d="m372.91 755.45h7.85v-7.85h-7.85z" style="stroke:#ed1c24"/><g style="stroke:#000"><path d="m241.94 760.18-.02-.39-.07-.38-.12-.39-.19-.36-.2-.31-.26-.31-.29-.26-.31-.24-.34-.2-.38-.14-.36-.1-.41-.04h-.38l-.39.04-.38.1-.36.14-.36.2-.31.24-.29.26-.26.31-.22.31-.14.36-.15.39-.05.38-.04.39.04.4.05.39.15.38.14.34.22.33.26.32.29.26.31.24.36.19.36.15.38.09.39.05h.38l.41-.05.36-.09.38-.15.34-.19.31-.24.29-.26.26-.32.2-.33.19-.34.12-.38.07-.39z"/><path d="m249.77 759.96-.03-.41-.07-.38-.12-.36-.17-.36-.19-.34-.29-.31-.28-.26-.32-.24-.33-.17-.39-.17-.36-.1-.4-.04h-.39l-.38.04-.39.1-.36.17-.36.17-.31.24-.29.26-.24.31-.21.34-.17.36-.14.36-.05.38-.03.41.03.38.05.39.14.38.17.34.21.36.24.29.29.26.31.24.36.19.36.15.39.09.38.05h.39l.4-.05.36-.09.39-.15.33-.19.32-.24.28-.26.29-.29.19-.36.17-.34.12-.38.07-.39z"/><path d="m260.23 759.43-.02-.41-.1-.38-.12-.36-.17-.36-.19-.34-.26-.31-.29-.26-.34-.24-.31-.17-.38-.17-.39-.09-.38-.05h-.41l-.36.05-.41.09-.36.17-.36.17-.31.24-.29.26-.24.31-.21.34-.15.36-.14.36-.05.38-.05.41.05.39.05.38.14.38.15.36.21.34.24.29.29.29.31.21.36.19.36.15.41.09.36.08h.41l.38-.08.39-.09.38-.15.31-.19.34-.21.29-.29.26-.29.19-.34.17-.36.12-.38.1-.38z"/><path d="m270.17 759.17-.05-.41-.07-.38-.12-.36-.17-.36-.19-.34-.27-.31-.28-.24-.34-.24-.31-.22-.39-.14-.38-.1-.38-.02h-.41l-.39.02-.38.1-.36.14-.36.22-.31.24-.29.24-.24.31-.22.34-.14.36-.14.36-.08.38-.02.41.02.41.08.36.14.38.14.36.22.34.24.31.29.26.31.22.36.19.36.14.38.1.39.05h.41l.38-.05.38-.1.39-.14.31-.19.34-.22.28-.26.27-.31.19-.34.17-.36.12-.38.07-.36z"/><path d="m301.25 759.7-.03-.41-.07-.39-.12-.38-.17-.36-.21-.31-.24-.31-.29-.27-.34-.24-.33-.19-.36-.14-.39-.1-.4-.05h-.39l-.38.05-.39.1-.36.14-.36.19-.31.24-.29.27-.24.31-.21.31-.17.36-.12.38-.07.39-.05.41.05.38.07.38.12.39.17.36.21.31.24.34.29.26.31.22.36.19.36.14.39.1.38.05h.39l.4-.05.39-.1.36-.14.33-.19.34-.22.29-.26.24-.34.21-.31.17-.36.12-.39.07-.38z"/><path d="m310.39 759.43-.02-.41-.07-.38-.12-.36-.17-.36-.19-.34-.27-.31-.29-.26-.33-.24-.34-.17-.38-.17-.36-.09-.39-.05h-.4l-.39.05-.38.09-.36.17-.36.17-.31.24-.29.26-.24.31-.22.34-.17.36-.12.36-.07.38-.02.41.02.39.07.38.12.38.17.36.22.34.24.29.29.29.31.21.36.19.36.15.38.09.39.08h.4l.39-.08.36-.09.38-.15.34-.19.33-.21.29-.29.27-.29.19-.34.17-.36.12-.38.07-.38z"/><path d="m314.83 747.14v-.38l-.09-.41-.12-.36-.17-.36-.19-.31-.27-.31-.29-.29-.31-.22-.33-.19-.39-.14-.38-.1-.39-.07h-.4l-.39.07-.38.1-.36.14-.36.19-.31.22-.29.29-.24.31-.22.31-.17.36-.12.36-.07.41-.02.38.02.39.07.38.12.39.17.36.22.33.24.31.29.27.31.24.36.19.36.12.38.12.39.05h.4l.39-.05.38-.12.39-.12.33-.19.31-.24.29-.27.27-.31.19-.33.17-.36.12-.39.09-.38z"/><path d="m331.03 759.43v-.41l-.07-.38-.12-.36-.19-.36-.19-.34-.27-.31-.29-.26-.31-.24-.36-.17-.36-.17-.38-.09-.39-.05h-.4l-.39.05-.38.09-.34.17-.36.17-.33.24-.27.26-.26.31-.22.34-.17.36-.12.36-.07.38-.02.41.02.39.07.38.12.38.17.36.22.34.26.29.27.29.33.21.36.19.34.15.38.09.39.08h.4l.39-.08.38-.09.36-.15.36-.19.31-.21.29-.29.27-.29.19-.34.19-.36.12-.38.07-.38z"/><path d="m323.98 746.88v-.41l-.1-.36-.1-.38-.19-.36-.19-.34-.26-.29-.29-.26-.31-.24-.36-.19-.36-.15-.39-.09-.38-.05h-.41l-.38.05-.39.09-.36.15-.33.19-.32.24-.28.26-.27.29-.21.34-.15.36-.14.38-.07.36-.03.41.03.41.07.38.14.36.15.36.21.34.27.31.28.26.32.22.33.19.36.17.39.07.38.05h.41l.38-.05.39-.07.36-.17.36-.19.31-.22.29-.26.26-.31.19-.34.19-.36.1-.36.1-.38z"/><path d="m362.14 760.99v-.38l-.1-.41-.12-.36-.17-.36-.19-.31-.26-.31-.29-.27-.31-.24-.36-.19-.36-.14-.39-.1-.38-.05h-.41l-.38.05-.39.1-.36.14-.36.19-.31.24-.29.27-.24.31-.21.31-.17.36-.12.36-.07.41-.03.38.03.41.07.36.12.38.17.36.21.34.24.31.29.27.31.24.36.19.36.12.39.12.38.05h.41l.38-.05.39-.12.36-.12.36-.19.31-.24.29-.27.26-.31.19-.34.17-.36.12-.38.1-.36z"/><path d="m371.28 760.99v-.38l-.1-.41-.12-.36-.16-.36-.22-.31-.24-.31-.29-.27-.33-.24-.34-.19-.36-.14-.38-.1-.39-.05h-.41l-.38.05-.38.1-.36.14-.36.19-.32.24-.28.27-.24.31-.22.31-.14.36-.15.36-.07.41-.02.38.02.41.07.36.15.38.14.36.22.34.24.31.28.27.32.24.36.19.36.12.38.12.38.05h.41l.39-.05.38-.12.36-.12.34-.19.33-.24.29-.27.24-.31.22-.34.16-.36.12-.38.1-.36z"/><path d="m375.74 747.14-.02-.38-.1-.41-.12-.36-.16-.36-.2-.31-.26-.31-.29-.29-.31-.22-.36-.19-.36-.14-.38-.1-.39-.07h-.41l-.38.07-.38.1-.36.14-.34.19-.31.22-.31.29-.24.31-.22.31-.14.36-.15.36-.07.41-.02.38.02.39.07.38.15.39.14.36.22.33.24.31.31.27.31.24.34.19.36.12.38.12.38.05h.41l.39-.05.38-.12.36-.12.36-.19.31-.24.29-.27.26-.31.2-.33.16-.36.12-.39.1-.38z"/><path d="m384.36 747.41-.02-.41-.08-.38-.12-.39-.19-.33-.19-.34-.26-.29-.29-.26-.31-.24-.34-.19-.38-.15-.36-.12-.41-.02h-.39l-.38.02-.38.12-.36.15-.36.19-.32.24-.28.26-.24.29-.24.34-.15.33-.14.39-.05.38-.02.41.02.38.05.41.14.36.15.36.24.34.24.31.28.26.32.22.36.19.36.14.38.1.38.05h.39l.41-.05.36-.1.38-.14.34-.19.31-.22.29-.26.26-.31.19-.34.19-.36.12-.36.08-.41z"/><path d="m391.68 760.99-.02-.38-.08-.41-.12-.36-.19-.36-.19-.31-.26-.31-.27-.27-.33-.24-.34-.19-.38-.14-.36-.1-.41-.05h-.39l-.4.05-.36.1-.36.14-.36.19-.32.24-.28.27-.24.31-.24.31-.15.36-.14.36-.07.41-.03.38.03.41.07.36.14.38.15.36.24.34.24.31.28.27.32.24.36.19.36.12.36.12.4.05h.39l.41-.05.36-.12.38-.12.34-.19.33-.24.27-.27.26-.31.19-.34.19-.36.12-.38.08-.36z"/><path d="m241.99 767.76 7.27 10.3"/><path d="m257.11 778.06 4.99-10.56"/><path d="m310.68 778.2-6.26-9.12"/><path d="m318.79 778.22 4.73-10.58"/><path d="m319.61 763.73-4.23-9.03"/><path d="m371.3 778.73-6.02-9.91"/><path d="m379.15 778.73 5.02-10.56"/><path d="m380.18 762.29-3.33-7.32"/></g><g style="stroke:#00f"><path d="m270.17 772.2h26.93"/><path d="m292.87 774.31 4.23-2.11-4.23-2.11"/><path d="m331.1 771.89h26.91"/><path d="m353.81 774 4.22-2.11-4.22-2.11"/></g></g><g style="clip-path:url(#a)"><g style="clip-path:url(#b)"><text style="font-size:4.8;font-family:Droid Sans" transform="matrix(1 0 0 -1 269.42 776.98)"><tspan x="0 2.78 5.3 7.82 8.92 12.02 14.58 17.1" y="0">Add Node</tspan></text></g></g><g style="clip-path:url(#c)"><g style="clip-path:url(#d)"><text style="font-size:4.8;font-family:Droid Sans" transform="matrix(1 0 0 -1 327.98 781.15)"><tspan x="0 2.59 4.98 7.01 9.54 10.63 13.16" y="0">Recolor</tspan></text></g></g><g style="clip-path:url(#e)"><g style="clip-path:url(#f)"><text style="font-size:4.82;font-family:Droid Sans" transform="matrix(1 0 0 -1 327.98 775.3)"><tspan x="0 2.35 4.89 5.93 8.12 10.53 12.91 15.41 16.39 18.89 20.54 23.08 25.58 27.98 29.64 31.25 32.33 34.73" y="0">To keep properties</tspan></text></g></g><g style="clip-path:url(#g)"><g style="clip-path:url(#h)"><text style="font-size:4.8;font-family:Droid Sans" transform="matrix(1 0 0 -1 252.46 776.71)"><tspan x="0" y="0">5</tspan></text></g></g><g style="clip-path:url(#i)"><g style="clip-path:url(#j)"><text style="font-size:4.8;font-family:Droid Sans" transform="matrix(1 0 0 -1 260.54 762.34)"><tspan x="0 2.47" y="0">10</tspan></text></g></g><g style="clip-path:url(#k)"><g style="clip-path:url(#l)"><text style="font-size:4.82;font-family:Droid Sans" transform="matrix(1 0 0 -1 241.46 762.07)"><tspan x="0" y="0">4</tspan></text></g></g><g style="clip-path:url(#m)"><g style="clip-path:url(#n)"><text style="font-size:4.82;font-family:Droid Sans" transform="matrix(1 0 0 -1 375.53 750.05)"><tspan x="0" y="0">6</tspan></text></g></g><g style="clip-path:url(#o)"><g style="clip-path:url(#p)"><text style="font-size:4.8;font-family:Droid Sans" transform="matrix(1 0 0 -1 315.17 749.78)"><tspan x="0" y="0">6</tspan></text></g></g><g style="fill:none;stroke-width:.62;stroke-linecap:round;stroke-linejoin:round;stroke-miterlimit:10"><path d="m250.03 733.01h7.85v-7.83h-7.85z" style="stroke:#000"/><path d="m235.46 718.8h7.83v-7.82h-7.83z" style="stroke:#ed1c24"/><path d="m266.81 718.8h7.85v-7.85h-7.85z" style="stroke:#ed1c24"/><path d="m239.38 718.32 10.65 10.01" style="stroke:#000"/><path d="m257.88 728.62 12.05-10.23" style="stroke:#000"/><path d="m235.7 688.56h7.85v-7.85h-7.85z" style="stroke:#ed1c24"/><g style="stroke:#000"><path d="m239.83 680.23-.02-.41-.07-.38-.12-.36-.17-.36-.22-.34-.24-.28-.29-.29-.33-.22-.34-.19-.36-.14-.38-.1-.41-.07h-.38l-.39.07-.38.1-.36.14-.36.19-.31.22-.29.29-.24.28-.22.34-.17.36-.12.36-.07.38-.02.41.02.39.07.38.12.38.17.36.22.34.24.31.29.27.31.21.36.19.36.15.38.09.39.05h.38l.41-.05.38-.09.36-.15.34-.19.33-.21.29-.27.24-.31.22-.34.17-.36.12-.38.07-.38z"/><path d="m226.78 703.7h7.84v-7.82h-7.84z"/><path d="m237.48 696.72-.02-.41-.08-.38-.12-.36-.16-.36-.22-.34-.24-.29-.29-.26-.33-.24-.34-.19-.36-.17-.38-.1-.39-.04h-.41l-.38.04-.38.1-.36.17-.36.19-.32.24-.28.26-.24.29-.22.34-.17.36-.12.36-.07.38-.02.41.02.38.07.39.12.38.17.36.22.34.24.31.28.26.32.22.36.19.36.15.38.09.38.05h.41l.39-.05.38-.09.36-.15.34-.19.33-.22.29-.26.24-.31.22-.34.16-.36.12-.38.08-.39z"/><path d="m242.98 703.7h7.84v-7.82h-7.84z"/><path d="m253.68 696.72v-.41l-.1-.38-.12-.39-.16-.36-.2-.31-.26-.31-.29-.24-.31-.24-.36-.22-.36-.14-.38-.1-.39-.04h-.41l-.38.04-.38.1-.36.14-.36.22-.32.24-.28.24-.24.31-.22.31-.17.36-.12.39-.07.38-.02.41.02.38.07.39.12.38.17.36.22.31.24.34.28.26.32.22.36.19.36.15.38.09.38.05h.41l.39-.05.38-.09.36-.15.36-.19.31-.22.29-.26.26-.34.2-.31.16-.36.12-.38.1-.39z"/><path d="m262.08 703.7h7.82v-7.82h-7.82z"/><path d="m265.44 696.72v-.41l-.1-.38-.12-.39-.16-.36-.2-.31-.26-.31-.29-.24-.31-.24-.36-.22-.36-.14-.38-.1-.39-.04h-.41l-.38.04-.38.1-.34.14-.36.22-.34.24-.26.24-.26.31-.22.31-.17.36-.12.39-.07.38-.02.41.02.38.07.39.12.38.17.36.22.31.26.34.26.26.34.22.36.19.34.15.38.09.38.05h.41l.39-.05.38-.09.36-.15.36-.19.31-.22.29-.26.26-.34.2-.31.16-.36.12-.38.1-.39z"/><path d="m272.76 696.72v-.41l-.1-.38-.12-.39-.16-.36-.22-.31-.24-.31-.29-.24-.33-.24-.34-.22-.36-.14-.38-.1-.39-.04h-.41l-.38.04-.38.1-.36.14-.34.22-.31.24-.31.24-.24.31-.22.31-.17.36-.12.39-.07.38-.02.41.02.38.07.39.12.38.17.36.22.31.24.34.31.26.31.22.34.19.36.15.38.09.38.05h.41l.39-.05.38-.09.36-.15.34-.19.33-.22.29-.26.24-.34.22-.31.16-.36.12-.38.1-.39z"/><path d="m278.28 703.7h7.82v-7.82h-7.82z"/><path d="m281.64 696.72v-.41l-.07-.38-.12-.39-.19-.36-.2-.31-.26-.31-.29-.24-.31-.24-.36-.22-.36-.14-.38-.1-.39-.04h-.38l-.41.04-.38.1-.34.14-.36.22-.31.24-.29.24-.26.31-.22.31-.17.36-.12.39-.07.38-.02.41.02.38.07.39.12.38.17.36.22.31.26.34.29.26.31.22.36.19.34.15.38.09.41.05h.38l.39-.05.38-.09.36-.15.36-.19.31-.22.29-.26.26-.34.2-.31.19-.36.12-.38.07-.39z"/><path d="m288.96 696.72v-.41l-.1-.38-.12-.39-.16-.36-.22-.31-.24-.31-.29-.24-.33-.24-.34-.22-.36-.14-.38-.1-.39-.04h-.41l-.38.04-.38.1-.36.14-.34.22-.34.24-.28.24-.24.31-.22.31-.14.36-.15.39-.07.38-.02.41.02.38.07.39.15.38.14.36.22.31.24.34.28.26.34.22.34.19.36.15.38.09.38.05h.41l.39-.05.38-.09.36-.15.34-.19.33-.22.29-.26.24-.34.22-.31.16-.36.12-.38.1-.39z"/><path d="m235.46 714.38-6.07-10.63"/><path d="m243.31 714.38 3.34-10.63"/><path d="m266.83 714.38-2.69-10.89"/><path d="m274.66 714.38 7.53-11.16"/></g><path d="m246.14 674.42h7.85v-7.82h-7.85z" style="stroke:#ed1c24"/><g style="stroke:#000"><path d="m249.5 666.38-.02-.4-.07-.39-.12-.36-.19-.36-.2-.33-.24-.32-.28-.26-.34-.24-.34-.17-.36-.17-.38-.09-.41-.05h-.38l-.39.05-.38.09-.36.17-.36.17-.31.24-.29.26-.24.32-.22.33-.16.36-.12.36-.08.39-.04.4.04.39.08.38.12.39.16.36.22.33.24.29.29.26.31.24.36.2.36.14.38.1.39.04h.38l.41-.04.38-.1.36-.14.34-.2.34-.24.28-.26.24-.29.2-.33.19-.36.12-.39.07-.38z"/><path d="m256.56 666.41-.02-.41-.1-.38-.1-.36-.19-.36-.19-.34-.26-.29-.29-.29-.31-.24-.34-.16-.38-.15-.39-.12-.38-.05h-.41l-.36.05-.41.12-.36.15-.33.16-.32.24-.31.29-.24.29-.19.34-.17.36-.14.36-.05.38-.05.41.05.38.05.39.14.38.17.34.19.36.24.28.31.29.32.22.33.19.36.14.41.1.36.05h.41l.38-.05.39-.1.38-.14.34-.19.31-.22.29-.29.26-.28.19-.36.19-.34.1-.38.1-.39z"/><path d="m242.45 698.02-3.65-9.7"/><path d="m243.55 680.23 6.53-6.29"/><path d="m352.49 734.02h7.85v-7.85h-7.85z"/></g><path d="m337.9 719.81h7.84v-7.85h-7.84z" style="stroke:#ed1c24"/><path d="m369.26 719.81h7.83v-7.85h-7.83z" style="stroke:#ed1c24"/><path d="m341.83 719.3 10.66 10.01" style="stroke:#000"/><path d="m360.34 729.62 12.02-10.24" style="stroke:#000"/><path d="m345.72 704.42h7.85v-7.82h-7.85z" style="stroke:#ed1c24"/><g style="stroke:#000"><path d="m364.25 682.8-.05-.41-.07-.38-.12-.39-.17-.36-.19-.31-.27-.31-.28-.26-.34-.22-.31-.22-.39-.14-.38-.1-.38-.04h-.41l-.39.04-.38.1-.36.14-.36.22-.31.22-.29.26-.24.31-.22.31-.14.36-.14.39-.08.38-.02.41.02.38.08.39.14.38.14.36.22.31.24.34.29.24.31.24.36.19.36.15.38.09.39.05h.41l.38-.05.38-.09.39-.15.31-.19.34-.24.28-.24.27-.34.19-.31.17-.36.12-.38.07-.39z"/><path d="m329.23 704.71h7.85v-7.85h-7.85z"/><path d="m332.62 697.7-.03-.38-.07-.38-.12-.39-.17-.36-.21-.31-.27-.31-.29-.27-.31-.24-.33-.19-.39-.14-.36-.1-.41-.05h-.38l-.38.05-.39.1-.36.14-.36.19-.33.24-.27.27-.24.31-.24.31-.14.36-.15.39-.04.38-.03.38.03.41.04.39.15.38.14.36.24.31.24.31.27.27.33.21.36.22.36.14.39.1.38.05h.38l.41-.05.36-.1.39-.14.33-.22.31-.21.29-.27.27-.31.21-.31.17-.36.12-.38.07-.39z"/><path d="m339.94 697.7-.03-.38-.07-.38-.12-.39-.19-.36-.19-.31-.27-.31-.29-.27-.31-.24-.33-.19-.39-.14-.36-.1-.41-.05h-.38l-.41.05-.36.1-.36.14-.36.19-.31.24-.29.27-.24.31-.24.31-.14.36-.15.39-.07.38-.02.38.02.41.07.39.15.38.14.36.24.31.24.31.29.27.31.21.36.22.36.14.36.1.41.05h.38l.41-.05.36-.1.39-.14.33-.22.31-.21.29-.27.27-.31.19-.31.19-.36.12-.38.07-.39z"/><path d="m352.75 690.07h7.85v-7.85h-7.85z"/><path d="m349.08 696.91-.02-.38-.08-.39-.12-.38-.19-.34-.19-.33-.24-.29-.29-.29-.33-.24-.34-.17-.38-.14-.39-.12-.38-.05h-.39l-.38.05-.41.12-.33.14-.36.17-.32.24-.28.29-.27.29-.19.33-.17.34-.12.38-.07.39-.05.38.05.41.07.38.12.39.17.33.19.36.27.29.28.29.32.22.36.19.33.14.41.1.38.05h.39l.38-.05.39-.1.38-.14.34-.19.33-.22.29-.29.24-.29.19-.36.19-.33.12-.39.08-.38z"/><path d="m364.51 704.71h7.83v-7.85h-7.83z"/><path d="m367.9 697.7-.03-.38-.07-.38-.12-.39-.19-.36-.19-.31-.24-.31-.29-.27-.34-.24-.33-.19-.36-.14-.39-.1-.41-.05h-.38l-.38.05-.41.1-.34.14-.36.19-.31.24-.29.27-.26.31-.19.31-.17.36-.12.39-.07.38-.05.38.05.41.07.39.12.38.17.36.19.31.26.31.29.27.31.21.36.22.34.14.41.1.38.05h.38l.41-.05.39-.1.36-.14.33-.22.34-.21.29-.27.24-.31.19-.31.19-.36.12-.38.07-.39z"/><path d="m375.22 697.7-.03-.38-.07-.38-.12-.39-.19-.36-.19-.31-.24-.31-.32-.27-.31-.24-.33-.19-.39-.14-.38-.1-.39-.05h-.38l-.38.05-.41.1-.36.14-.34.19-.31.24-.29.27-.26.31-.19.31-.17.36-.12.39-.07.38-.05.38.05.41.07.39.12.38.17.36.19.31.26.31.29.27.31.21.34.22.36.14.41.1.38.05h.38l.39-.05.38-.1.39-.14.33-.22.31-.21.32-.27.24-.31.19-.31.19-.36.12-.38.07-.39z"/><path d="m380.71 704.71h7.83v-7.85h-7.83z"/><path d="m384.1 697.7-.03-.38-.07-.38-.12-.39-.19-.36-.19-.31-.24-.31-.29-.27-.34-.24-.33-.19-.36-.14-.41-.1-.39-.05h-.38l-.38.05-.41.1-.34.14-.36.19-.31.24-.29.27-.26.31-.19.31-.17.36-.12.39-.07.38-.05.38.05.41.07.39.12.38.17.36.19.31.26.31.29.27.31.21.36.22.34.14.41.1.38.05h.38l.39-.05.41-.1.36-.14.33-.22.34-.21.29-.27.24-.31.19-.31.19-.36.12-.38.07-.39z"/><path d="m391.42 697.7-.03-.38-.07-.38-.12-.39-.17-.36-.21-.31-.27-.31-.29-.27-.31-.24-.33-.19-.39-.14-.38-.1-.39-.05h-.38l-.38.05-.41.1-.36.14-.34.19-.31.24-.29.27-.26.31-.19.31-.17.36-.12.39-.07.38-.05.38.05.41.07.39.12.38.17.36.19.31.26.31.29.27.31.21.34.22.36.14.41.1.38.05h.38l.39-.05.38-.1.39-.14.33-.22.31-.21.29-.27.27-.31.21-.31.17-.36.12-.38.07-.39z"/><path d="m337.92 715.39-6.1-10.63"/><path d="m345.74 715.39 3.34-10.63"/><path d="m369.26 715.39-2.66-10.92"/><path d="m377.09 715.39 7.53-11.18"/></g><path d="m348.6 675.43h7.85v-7.85h-7.85z" style="stroke:#ed1c24"/><g style="stroke:#000"><path d="m350.11 667.1v-.38l-.09-.38-.12-.39-.17-.36-.22-.33-.24-.29-.29-.27-.33-.24-.34-.19-.36-.14-.38-.1-.39-.05h-.4l-.39.05-.38.1-.36.14-.34.19-.33.24-.29.27-.24.29-.22.33-.14.36-.15.39-.07.38-.02.38.02.41.07.39.15.36.14.36.22.33.24.31.29.27.33.21.34.22.36.14.38.08.39.07h.4l.39-.07.38-.08.36-.14.34-.22.33-.21.29-.27.24-.31.22-.33.17-.36.12-.36.09-.39z"/><path d="m360.29 667.15v-.41l-.07-.38-.12-.38-.2-.36-.19-.32-.26-.31-.29-.26-.31-.24-.36-.19-.36-.15-.39-.09-.38-.05h-.41l-.38.05-.39.09-.33.15-.36.19-.34.24-.26.26-.27.31-.21.32-.17.36-.12.38-.07.38-.03.41.03.39.07.38.12.38.17.36.21.32.27.31.26.26.34.24.36.19.33.15.39.09.38.05h.41l.38-.05.39-.09.36-.15.36-.19.31-.24.29-.26.26-.31.19-.32.2-.36.12-.38.07-.38z"/><path d="m353.52 699.31 2.88-9.17"/><path d="m356.16 682.32-3.65-7.37"/><path d="m456.38 734.45h7.83v-7.83h-7.83z"/></g><path d="m432.12 705.36h7.85v-7.85h-7.85z" style="stroke:#ed1c24"/><path d="m473.14 720.24h7.84v-7.85h-7.84z" style="stroke:#ed1c24"/><path d="m445.7 719.76 10.68 10.01" style="stroke:#000"/><path d="m464.21 730.06 12.05-10.23" style="stroke:#000"/><path d="m441.77 720.05h7.85v-7.85h-7.85z" style="stroke:#ed1c24"/><g style="stroke:#000"><path d="m461.86 697.34-.03-.38-.07-.41-.12-.36-.19-.36-.19-.31-.27-.34-.29-.24-.31-.24-.33-.19-.39-.17-.38-.07-.39-.05h-.38l-.38.05-.41.07-.36.17-.34.19-.31.24-.29.24-.26.34-.19.31-.17.36-.12.36-.07.41-.05.38.05.41.07.36.12.39.17.36.19.33.26.31.29.27.31.21.34.22.36.12.41.12.38.02h.38l.39-.02.38-.12.39-.12.33-.22.31-.21.29-.27.27-.31.19-.33.19-.36.12-.39.07-.36z"/><path d="m423.96 690h7.85v-7.85h-7.85z"/><path d="m434.66 681.96-.02-.41-.07-.38-.12-.39-.19-.33-.2-.34-.26-.29-.29-.26-.31-.24-.34-.22-.38-.12-.36-.12-.41-.02h-.38l-.41.02-.36.12-.36.12-.36.22-.31.24-.29.26-.24.29-.24.34-.14.33-.15.39-.07.38-.02.41.02.38.07.39.15.38.14.36.24.34.24.31.29.26.31.22.36.19.36.15.36.09.41.05h.38l.41-.05.36-.09.38-.15.34-.19.31-.22.29-.26.26-.31.2-.34.19-.36.12-.38.07-.39z"/><path d="m443.02 697.37v-.39l-.1-.38-.12-.38-.17-.36-.21-.32-.24-.31-.29-.29-.31-.21-.36-.19-.36-.15-.39-.09-.38-.08h-.41l-.38.08-.39.09-.36.15-.33.19-.34.21-.29.29-.24.31-.21.32-.17.36-.12.38-.07.38-.03.39.03.38.07.41.12.36.17.36.21.34.24.31.29.26.34.24.33.19.36.12.39.12.38.05h.41l.38-.05.39-.12.36-.12.36-.19.31-.24.29-.26.24-.31.21-.34.17-.36.12-.36.1-.41z"/><path d="m450.36 704.62h7.85v-7.83h-7.85z"/><path d="m427.37 682.22-.05-.4-.07-.39-.12-.36-.17-.36-.19-.33-.27-.32-.28-.26-.34-.24-.31-.17-.39-.17-.38-.09-.38-.05h-.41l-.36.05-.41.09-.36.17-.36.17-.31.24-.29.26-.24.32-.22.33-.14.36-.14.36-.08.39-.02.4.02.39.08.38.14.39.14.36.22.33.24.29.29.26.31.24.36.2.36.14.41.1.36.04h.41l.38-.04.38-.1.39-.14.31-.2.34-.24.28-.26.27-.29.19-.33.17-.36.12-.39.07-.38z"/><path d="m468.38 705.14h7.85v-7.82h-7.85z"/><path d="m471.79 698.16-.02-.41-.1-.38-.09-.39-.2-.33-.19-.34-.26-.29-.29-.26-.31-.24-.34-.22-.38-.12-.39-.12-.38-.02h-.41l-.38.02-.39.12-.36.12-.33.22-.31.24-.32.26-.24.29-.21.34-.15.33-.14.39-.07.38-.03.41.03.38.07.39.14.38.15.36.21.34.24.31.32.26.31.22.33.19.36.15.39.09.38.05h.41l.38-.05.39-.09.38-.15.34-.19.31-.22.29-.26.26-.31.19-.34.2-.36.09-.38.1-.39z"/><path d="m479.11 698.16-.05-.41-.07-.38-.12-.39-.17-.33-.19-.34-.26-.29-.29-.26-.34-.24-.31-.22-.38-.12-.39-.12-.38-.02h-.41l-.38.02-.39.12-.36.12-.36.22-.31.24-.29.26-.24.29-.21.34-.15.33-.14.39-.05.38-.05.41.05.38.05.39.14.38.15.36.21.34.24.31.29.26.31.22.36.19.36.15.39.09.38.05h.41l.38-.05.39-.09.38-.15.31-.19.34-.22.29-.26.26-.31.19-.34.17-.36.12-.38.07-.39z"/><path d="m484.58 705.14h7.88v-7.82h-7.88z"/><path d="m487.99 698.16-.02-.41-.1-.38-.09-.39-.2-.33-.19-.34-.26-.29-.29-.26-.31-.24-.34-.22-.38-.12-.39-.12-.38-.02h-.41l-.36.02-.41.12-.36.12-.33.22-.31.24-.32.26-.24.29-.19.34-.17.33-.14.39-.05.38-.05.41.05.38.05.39.14.38.17.36.19.34.24.31.32.26.31.22.33.19.36.15.41.09.36.05h.41l.38-.05.39-.09.38-.15.34-.19.31-.22.29-.26.26-.31.19-.34.2-.36.09-.38.1-.39z"/><path d="m495.31 698.16-.05-.41-.04-.38-.12-.39-.2-.33-.19-.34-.24-.29-.31-.26-.34-.24-.31-.22-.36-.12-.41-.12-.38-.02h-.38l-.39.02-.41.12-.36.12-.36.22-.28.24-.32.26-.24.29-.19.34-.17.33-.14.39-.05.38-.05.41.05.38.05.39.14.36.17.36.19.36.24.31.32.26.28.22.36.19.36.12.41.12.39.05h.38l.38-.05.41-.12.36-.12.31-.19.34-.22.31-.26.24-.31.19-.36.2-.36.12-.36.04-.39z"/><path d="m441.38 716.04-6.07-10.66"/><path d="m449.69 715.51 3.36-10.65"/><path d="m473.14 715.85-2.64-10.92"/><path d="m480.98 715.85 7.54-11.19"/></g><path d="m446.21 690h7.85v-7.85h-7.85z" style="stroke:#ed1c24"/><g style="stroke:#000"><path d="m447.72 681.67v-.41l-.07-.38-.12-.36-.19-.36-.2-.34-.26-.31-.26-.24-.34-.24-.34-.19-.38-.17-.36-.07-.41-.07h-.38l-.41.07-.36.07-.36.17-.36.19-.31.24-.29.24-.26.31-.22.34-.14.36-.12.36-.1.38-.02.41.02.41.1.36.12.38.14.36.22.34.26.31.29.27.31.21.36.19.36.15.36.09.41.05h.38l.41-.05.36-.09.38-.15.34-.19.34-.21.26-.27.26-.31.2-.34.19-.36.12-.38.07-.36z"/><path d="m457.92 681.7-.02-.39-.08-.41-.12-.36-.16-.36-.22-.31-.26-.31-.29-.29-.31-.21-.34-.2-.38-.14-.36-.1-.41-.07h-.39l-.38.07-.38.1-.36.14-.36.2-.32.21-.28.29-.24.31-.24.31-.15.36-.14.36-.05.41-.02.39.02.38.05.38.14.39.15.36.24.33.24.32.28.26.32.22.36.21.36.12.38.1.38.07h.39l.41-.07.36-.1.38-.12.34-.21.31-.22.29-.26.26-.32.22-.33.16-.36.12-.39.08-.38z"/><path d="m432.19 698.28-3.91-8.38"/><path d="m453.77 696.86-3.65-7.34"/><path d="m554.78 733.73h7.83v-7.83h-7.83z"/><path d="m530.5 704.64h7.87v-7.85h-7.87z"/></g><path d="m571.56 719.54h7.82v-7.87h-7.82z" style="stroke:#ed1c24"/><path d="m544.1 719.04 10.68 10.01" style="stroke:#000"/><path d="m562.61 729.36 12.02-10.25" style="stroke:#000"/><path d="m540.17 719.33h7.82v-7.83h-7.82z" style="stroke:#ed1c24"/><path d="m560.23 696.62-.02-.38-.07-.41-.12-.36-.17-.36-.22-.31-.24-.31-.29-.27-.33-.24-.34-.19-.36-.14-.38-.1-.39-.05h-.4l-.39.05-.38.1-.36.14-.36.19-.31.24-.29.27-.24.31-.22.31-.14.36-.15.36-.07.41-.02.38.02.41.07.36.15.41.14.36.22.31.24.31.29.27.31.24.36.19.36.14.38.1.39.05h.4l.39-.05.38-.1.36-.14.34-.19.33-.24.29-.27.24-.31.22-.31.17-.36.12-.41.07-.36z" style="stroke:#000"/><path d="m522.36 689.28h7.85v-7.85h-7.85z" style="stroke:#ed1c24"/><g style="stroke:#000"><path d="m533.06 681.24-.04-.41-.05-.38-.12-.36-.19-.36-.2-.34-.24-.29-.31-.26-.33-.24-.32-.19-.4-.15-.36-.09-.39-.05h-.38l-.41.05-.38.09-.36.15-.36.19-.29.24-.31.26-.24.29-.22.34-.17.36-.12.36-.07.38-.02.41.02.41.07.36.12.38.17.36.22.34.24.31.31.26.29.24.36.17.36.17.38.07.41.07h.38l.39-.07.36-.07.4-.17.32-.17.33-.24.31-.26.24-.31.2-.34.19-.36.12-.38.05-.36z"/><path d="m541.42 696.65-.03-.39-.09-.38-.12-.36-.17-.36-.19-.34-.27-.31-.26-.26-.34-.24-.33-.17-.39-.17-.36-.07-.41-.07h-.4l-.39.07-.36.07-.36.17-.36.17-.33.24-.27.26-.24.31-.24.34-.14.36-.12.36-.1.38-.02.39.02.38.1.41.12.38.14.36.24.34.24.29.27.26.33.24.36.19.36.15.36.09.39.05h.4l.41-.05.36-.09.39-.15.33-.19.34-.24.26-.26.27-.29.19-.34.17-.36.12-.38.09-.41z"/><path d="m548.74 703.92h7.87v-7.85h-7.87z"/><path d="m525.72 681.5v-.38l-.07-.41-.12-.36-.19-.36-.17-.31-.29-.31-.26-.27-.34-.24-.31-.19-.41-.14-.38-.12-.39-.03h-.38l-.41.03-.38.12-.34.14-.36.19-.31.24-.29.27-.26.31-.22.31-.14.36-.12.36-.1.41-.02.38.02.39.1.38.12.41.14.36.22.31.26.31.29.27.31.21.36.22.34.14.38.1.41.05h.38l.39-.05.38-.1.41-.14.31-.22.34-.21.26-.27.29-.31.17-.31.19-.36.12-.41.07-.38z"/><path d="m566.78 704.42h7.85v-7.82h-7.85z"/><path d="m570.17 697.44-.03-.41-.07-.38-.12-.36-.17-.36-.21-.34-.24-.29-.29-.26-.34-.24-.33-.19-.36-.15-.39-.09-.38-.05h-.41l-.38.05-.39.09-.36.15-.36.19-.31.24-.29.26-.24.29-.21.34-.15.36-.14.36-.07.38-.03.41.03.41.07.36.14.38.15.36.21.34.24.31.29.26.31.24.36.17.36.17.39.07.38.07h.41l.38-.07.39-.07.36-.17.33-.17.34-.24.29-.26.24-.31.21-.34.17-.36.12-.38.07-.36z"/><path d="m577.49 697.44-.03-.41-.07-.38-.12-.36-.17-.36-.21-.34-.24-.29-.29-.26-.34-.24-.33-.19-.39-.15-.36-.09-.38-.05h-.41l-.38.05-.39.09-.36.15-.36.19-.31.24-.29.26-.24.29-.21.34-.17.36-.12.36-.07.38-.03.41.03.41.07.36.12.38.17.36.21.34.24.31.29.26.31.24.36.17.36.17.39.07.38.07h.41l.38-.07.36-.07.39-.17.33-.17.34-.24.29-.26.24-.31.21-.34.17-.36.12-.38.07-.36z"/><path d="m582.98 704.42h7.85v-7.82h-7.85z"/><path d="m586.37 697.44-.03-.41-.07-.38-.12-.36-.17-.36-.21-.34-.24-.29-.29-.26-.34-.24-.33-.19-.36-.15-.39-.09-.38-.05h-.41l-.38.05-.39.09-.36.15-.36.19-.31.24-.29.26-.24.29-.21.34-.15.36-.14.36-.07.38-.03.41.03.41.07.36.14.38.15.36.21.34.24.31.29.26.31.24.36.17.36.17.39.07.38.07h.41l.38-.07.39-.07.36-.17.33-.17.34-.24.29-.26.24-.31.21-.34.17-.36.12-.38.07-.36z"/><path d="m593.69 697.44-.03-.41-.04-.38-.12-.36-.2-.36-.21-.34-.24-.29-.29-.26-.34-.24-.33-.19-.39-.15-.36-.09-.38-.05h-.41l-.38.05-.39.09-.36.15-.36.19-.31.24-.29.26-.24.29-.21.34-.17.36-.12.36-.07.38-.03.41.03.41.07.36.12.38.17.36.21.34.24.31.29.26.31.24.36.17.36.17.39.07.38.07h.41l.38-.07.36-.07.39-.17.33-.17.34-.24.29-.26.24-.31.21-.34.2-.36.12-.38.04-.36z"/><path d="m539.78 715.32-6.07-10.63"/><path d="m548.09 714.79 3.36-10.63"/><path d="m571.56 715.13-2.69-10.92"/><path d="m579.38 715.13 7.54-11.19"/></g><path d="m544.61 689.28h7.82v-7.85h-7.82z" style="stroke:#ed1c24"/><g style="stroke:#000"><path d="m546.14 680.95-.04-.38-.08-.39-.09-.38-.19-.36-.2-.31-.28-.34-.27-.24-.33-.24-.32-.19-.4-.17-.36-.07-.39-.07h-.41l-.36.07-.4.07-.36.17-.36.19-.29.24-.31.24-.24.34-.2.31-.19.36-.12.38-.05.39-.04.38.04.41.05.38.12.36.19.36.2.34.24.31.31.29.29.19.36.22.36.12.4.12.36.02h.41l.39-.02.36-.12.4-.12.32-.22.33-.19.27-.29.28-.31.2-.34.19-.36.09-.36.08-.38z"/><path d="m556.3 681-.03-.41-.05-.38-.12-.39-.19-.36-.21-.33-.24-.29-.29-.29-.34-.24-.33-.17-.36-.14-.39-.1-.38-.07h-.39l-.4.07-.39.1-.36.14-.36.17-.29.24-.31.29-.24.29-.21.33-.17.36-.12.39-.07.38-.03.41.03.38.07.39.12.36.17.36.21.33.24.34.31.24.29.24.36.19.36.12.39.1.4.07h.39l.38-.07.39-.1.36-.12.33-.19.34-.24.29-.24.24-.34.21-.33.19-.36.12-.36.05-.39z"/><path d="m530.59 697.56-3.93-8.38"/><path d="m552.17 696.17-3.63-7.37"/></g><g style="stroke:#00f"><path d="m281.98 719.9 49.08.05"/><path d="m326.83 722.06 4.23-2.11-4.23-2.11"/><path d="m382.85 720.62 49.08.05"/><path d="m427.7 722.78 4.23-2.11-4.23-2.11"/><path d="m485.54 721.39 49.11.07"/><path d="m530.4 723.55 4.25-2.09-4.25-2.13"/><path d="m277.99 670.3-24-.27"/><path d="m258.24 667.97-4.25 2.06 4.2 2.16"/></g></g><g style="clip-path:url(#q)"><g style="clip-path:url(#r)"><text style="font-size:4.8;font-family:Droid Sans" transform="matrix(1 0 0 -1 276.48 672.19)"><tspan x="0 2.78 5.3 7.82 10.24" y="0">Added</tspan></text></g></g><g style="clip-path:url(#s)"><g style="clip-path:url(#t)"><text style="font-size:4.82;font-family:Droid Sans" transform="matrix(1 0 0 -1 276.48 666.34)"><tspan x="0 2.53 5.07 7.61" y="0">node</tspan></text></g></g><g style="clip-path:url(#u)"><g style="clip-path:url(#v)"><text style="font-size:4.82;font-family:Droid Sans" transform="matrix(1 0 0 -1 289.3 722.62)"><tspan x="0 2.62 3.73 5.98 8.51 10.13 11.23 12.91 15.48 17.1 19.41 21.03 22.14 24.7" y="0">Right rotation</tspan></text></g></g><g style="clip-path:url(#w)"><g style="clip-path:url(#x)"><text style="font-size:4.8;font-family:Droid Sans" transform="matrix(1 0 0 -1 253.49 727.58)"><tspan x="0" y="0">9</tspan></text></g></g><g style="clip-path:url(#y)"><g style="clip-path:url(#z)"><text style="font-size:4.82;font-family:Droid Sans" transform="matrix(1 0 0 -1 238.34 713.21)"><tspan x="0" y="0">4</tspan></text></g></g><g style="clip-path:url(#A)"><g style="clip-path:url(#B)"><text style="font-size:4.8;font-family:Droid Sans" transform="matrix(1 0 0 -1 245.66 698.3)"><tspan x="0" y="0">7</tspan></text></g></g><g style="clip-path:url(#C)"><g style="clip-path:url(#D)"><text style="font-size:4.82;font-family:Droid Sans" transform="matrix(1 0 0 -1 238.61 682.63)"><tspan x="0" y="0">5</tspan></text></g></g><g style="clip-path:url(#E)"><g style="clip-path:url(#F)"><text style="font-size:4.8;font-family:Droid Sans" transform="matrix(1 0 0 -1 249.58 668.26)"><tspan x="0" y="0">6</tspan></text></g></g><g style="clip-path:url(#G)"><g style="clip-path:url(#H)"><text style="font-size:4.82;font-family:Droid Sans" transform="matrix(1 0 0 -1 348.89 699.1)"><tspan x="0" y="0">5</tspan></text></g></g><g style="clip-path:url(#I)"><g style="clip-path:url(#J)"><text style="font-size:4.82;font-family:Droid Sans" transform="matrix(1 0 0 -1 355.68 684.98)"><tspan x="0" y="0">7</tspan></text></g></g><g style="clip-path:url(#K)"><g style="clip-path:url(#L)"><text style="font-size:4.8;font-family:Droid Sans" transform="matrix(1 0 0 -1 350.71 669.58)"><tspan x="0" y="0">6</tspan></text></g></g><g style="clip-path:url(#M)"><g style="clip-path:url(#N)"><text style="font-size:4.8;font-family:Droid Sans" transform="matrix(1 0 0 -1 389.38 723.14)"><tspan x="0 2.04 4.45 5.92 7.55 8.6 10.28 12.84 14.47 16.77 18.4 19.51 22.07" y="0">Left rotation</tspan></text></g></g><g style="clip-path:url(#O)"><g style="clip-path:url(#P)"><text style="font-size:4.8;font-family:Droid Sans" transform="matrix(1 0 0 -1 486.86 728.62)"><tspan x="0 2.61 5.01 7.04 9.61 10.72 13.28 14.96 15.95 17.57 20.14 21.12 23.3 25.69 28.1" y="0">Recolor to keep</tspan></text></g></g><g style="clip-path:url(#Q)"><g style="clip-path:url(#R)"><text style="font-size:4.8;font-family:Droid Sans" transform="matrix(1 0 0 -1 486.86 722.78)"><tspan x="0 2.61 3.72 6.01 8.06 10.24 11.3 13.82 16.38 18.9 21.29 22.36 24.39 26.96 29.48 32 33.63 34.68 37.08 38.14" y="0">Black node count = 3</tspan></text></g></g><g style="clip-path:url(#S)"><g style="clip-path:url(#T)"><text style="font-size:4.8;font-family:Droid Sans" transform="matrix(1 0 0 -1 444.26 714.26)"><tspan x="0" y="0">5</tspan></text></g></g><g style="clip-path:url(#U)"><g style="clip-path:url(#V)"><text style="font-size:4.82;font-family:Droid Sans" transform="matrix(1 0 0 -1 459.94 729.14)"><tspan x="0" y="0">9</tspan></text></g></g><g style="clip-path:url(#W)"><g style="clip-path:url(#X)"><text style="font-size:4.8;font-family:Droid Sans" transform="matrix(1 0 0 -1 341.04 714)"><tspan x="0" y="0">4</tspan></text></g></g><g style="clip-path:url(#Y)"><g style="clip-path:url(#Z)"><text style="font-size:4.8;font-family:Droid Sans" transform="matrix(1 0 0 -1 434.86 700.15)"><tspan x="0" y="0">4</tspan></text></g></g><g style="clip-path:url(#aa)"><g style="clip-path:url(#ab)"><text style="font-size:4.8;font-family:Droid Sans" transform="matrix(1 0 0 -1 453.14 698.57)"><tspan x="0" y="0">7</tspan></text></g></g><g style="clip-path:url(#ac)"><g style="clip-path:url(#ad)"><text style="font-size:4.82;font-family:Droid Sans" transform="matrix(1 0 0 -1 533.11 698.83)"><tspan x="0" y="0">4</tspan></text></g></g><g style="clip-path:url(#ae)"><g style="clip-path:url(#af)"><text style="font-size:4.8;font-family:Droid Sans" transform="matrix(1 0 0 -1 525.02 684.46)"><tspan x="0" y="0">3</tspan></text></g></g><path d="m229.63 696.67v-.41l-.09-.36-.12-.38-.17-.36-.19-.34-.27-.28-.29-.29-.33-.22-.34-.19-.36-.14-.38-.1-.39-.07h-.4l-.39.07-.38.1-.36.14-.36.19-.31.22-.29.29-.24.28-.22.34-.17.36-.12.38-.07.36-.02.41.02.39.07.4.12.36.17.36.22.34.24.31.29.27.31.21.36.19.36.15.38.09.39.05h.4l.39-.05.38-.09.36-.15.34-.19.33-.21.29-.27.27-.31.19-.34.17-.36.12-.36.09-.4z" style="fill:none;stroke:#000;stroke-width:.62;stroke-linecap:round;stroke-linejoin:round;stroke-miterlimit:10"/></g></svg>
