<svg height="100" viewBox="0 0 421.2 80.68" width="700" xml:space="preserve" xmlns="http://www.w3.org/2000/svg" xmlns:xlink="http://www.w3.org/1999/xlink">
<clipPath id="a">
<path d="m244.78 639.98h24.02v5.93h-24.02z" style="clip-rule:evenodd"/>
</clipPath>
<clipPath id="b">
<path d="m244.78 640.06h24.02v5.86h-24.02z" style="clip-rule:evenodd"/>
</clipPath>
<clipPath id="c">
<path d="m231.43 625.9h21.65v5.9h-21.65z" style="clip-rule:evenodd"/>
</clipPath>
<clipPath id="d">
<path d="m231.43 625.94h21.65v5.86h-21.65z" style="clip-rule:evenodd"/>
</clipPath>
<clipPath id="e">
<path d="m262.8 625.63h21.62v5.9h-21.62z" style="clip-rule:evenodd"/>
</clipPath>
<clipPath id="f">
<path d="m262.8 625.68h21.62v5.86h-21.62z" style="clip-rule:evenodd"/>
</clipPath>
<clipPath id="g">
<path d="m238.75 610.46h21.65v5.9h-21.65z" style="clip-rule:evenodd"/>
</clipPath>
<clipPath id="h">
<path d="m238.75 610.51h21.65v5.86h-21.65z" style="clip-rule:evenodd"/>
</clipPath>
<clipPath id="i">
<path d="m222.82 610.2h21.62v5.9h-21.62z" style="clip-rule:evenodd"/>
</clipPath>
<clipPath id="j">
<path d="m222.82 610.25h21.62v5.86h-21.62z" style="clip-rule:evenodd"/>
</clipPath>
<clipPath id="k">
<path d="m257.57 610.46h21.65v5.9h-21.65z" style="clip-rule:evenodd"/>
</clipPath>
<clipPath id="l">
<path d="m257.57 610.51h21.65v5.86h-21.65z" style="clip-rule:evenodd"/>
</clipPath>
<clipPath id="m">
<path d="m247.63 590.47h57.46v5.9h-57.46z" style="clip-rule:evenodd"/>
</clipPath>
<clipPath id="n">
<path d="m247.63 590.52h57.46v5.86h-57.46z" style="clip-rule:evenodd"/>
</clipPath>
<clipPath id="o">
<path d="m247.63 584.64h46.54v5.9h-46.54z" style="clip-rule:evenodd"/>
</clipPath>
<clipPath id="p">
<path d="m247.63 584.69h46.54v5.86h-46.54z" style="clip-rule:evenodd"/>
</clipPath>
<clipPath id="q">
<path d="m275.09 639.22h43.01v5.9h-43.01z" style="clip-rule:evenodd"/>
</clipPath>
<clipPath id="r">
<path d="m275.09 639.26h43.01v5.86h-43.01z" style="clip-rule:evenodd"/>
</clipPath>
<clipPath id="s">
<path d="m344.59 641.04h24.05v5.9h-24.05z" style="clip-rule:evenodd"/>
</clipPath>
<clipPath id="t">
<path d="m344.59 641.09h24.05v5.86h-24.05z" style="clip-rule:evenodd"/>
</clipPath>
<clipPath id="u">
<path d="m330.74 626.66h21.65v5.9h-21.65z" style="clip-rule:evenodd"/>
</clipPath>
<clipPath id="v">
<path d="m330.74 626.71h21.65v5.86h-21.65z" style="clip-rule:evenodd"/>
</clipPath>
<clipPath id="w">
<path d="m362.62 626.66h21.65v5.9h-21.65z" style="clip-rule:evenodd"/>
</clipPath>
<clipPath id="x">
<path d="m362.62 626.71h21.65v5.86h-21.65z" style="clip-rule:evenodd"/>
</clipPath>
<clipPath id="y">
<path d="m338.59 611.52h21.62v5.9h-21.62z" style="clip-rule:evenodd"/>
</clipPath>
<clipPath id="z">
<path d="m338.59 611.57h21.62v5.86h-21.62z" style="clip-rule:evenodd"/>
</clipPath>
<clipPath id="A">
<path d="m322.63 611.26h21.65v5.9h-21.65z" style="clip-rule:evenodd"/>
</clipPath>
<clipPath id="B">
<path d="m322.63 611.3h21.65v5.86h-21.65z" style="clip-rule:evenodd"/>
</clipPath>
<clipPath id="C">
<path d="m357.41 611.52h21.62v5.9h-21.62z" style="clip-rule:evenodd"/>
</clipPath>
<clipPath id="D">
<path d="m357.41 611.57h21.62v5.86h-21.62z" style="clip-rule:evenodd"/>
</clipPath>
<clipPath id="E">
<path d="m374.9 640.25h42.82v5.9h-42.82z" style="clip-rule:evenodd"/>
</clipPath>
<clipPath id="F">
<path d="m374.9 640.32h42.82v5.83h-42.82z" style="clip-rule:evenodd"/>
</clipPath>
<clipPath id="G">
<path d="m350.09 593.74h57.43v5.9h-57.43z" style="clip-rule:evenodd"/>
</clipPath>
<clipPath id="H">
<path d="m350.09 593.81h57.43v5.83h-57.43z" style="clip-rule:evenodd"/>
</clipPath>
<clipPath id="I">
<path d="m350.09 587.9h46.51v5.9h-46.51z" style="clip-rule:evenodd"/>
</clipPath>
<clipPath id="J">
<path d="m350.09 587.95h46.51v5.86h-46.51z" style="clip-rule:evenodd"/>
</clipPath>
<clipPath id="K">
<path d="m374.38 611.26h21.65v5.9h-21.65z" style="clip-rule:evenodd"/>
</clipPath>
<clipPath id="L">
<path d="m374.38 611.3h21.65v5.86h-21.65z" style="clip-rule:evenodd"/>
</clipPath>
<clipPath id="M">
<path d="m388.25 613.87h54.46v5.9h-54.46z" style="clip-rule:evenodd"/>
</clipPath>
<clipPath id="N">
<path d="m388.25 613.92h54.46v5.86h-54.46z" style="clip-rule:evenodd"/>
</clipPath>
<clipPath id="O">
<path d="m388.25 613.92h54.46v5.86h-54.46z" style="clip-rule:evenodd"/>
</clipPath>
<clipPath id="P">
<path d="m388.25 613.92h54.46v5.86h-54.46z" style="clip-rule:evenodd"/>
</clipPath>
<clipPath id="Q">
<path d="m388.25 608.02h45.46v5.9h-45.46z" style="clip-rule:evenodd"/>
</clipPath>
<clipPath id="R">
<path d="m388.25 608.06h45.46v5.86h-45.46z" style="clip-rule:evenodd"/>
</clipPath>
<clipPath id="S">
<path d="m457.49 640.01h21.65v5.9h-21.65z" style="clip-rule:evenodd"/>
</clipPath>
<clipPath id="T">
<path d="m457.49 640.06h21.65v5.86h-21.65z" style="clip-rule:evenodd"/>
</clipPath>
<clipPath id="U">
<path d="m444.17 625.9h21.62v5.9h-21.62z" style="clip-rule:evenodd"/>
</clipPath>
<clipPath id="V">
<path d="m444.17 625.94h21.62v5.86h-21.62z" style="clip-rule:evenodd"/>
</clipPath>
<clipPath id="W">
<path d="m475.51 625.63h21.65v5.9h-21.65z" style="clip-rule:evenodd"/>
</clipPath>
<clipPath id="X">
<path d="m475.51 625.68h21.65v5.86h-21.65z" style="clip-rule:evenodd"/>
</clipPath>
<clipPath id="Y">
<path d="m435.29 610.58h21.62v5.9h-21.62z" style="clip-rule:evenodd"/>
</clipPath>
<clipPath id="Z">
<path d="m435.29 610.63h21.62v5.86h-21.62z" style="clip-rule:evenodd"/>
</clipPath>
<clipPath id="aa">
<path d="m470.3 610.49h21.62v5.9h-21.62z" style="clip-rule:evenodd"/>
</clipPath>
<clipPath id="ab">
<path d="m470.3 610.54h21.62v5.86h-21.62z" style="clip-rule:evenodd"/>
</clipPath>
<clipPath id="ac">
<path d="m460.37 590.5h57.43v5.9h-57.43z" style="clip-rule:evenodd"/>
</clipPath>
<clipPath id="ad">
<path d="m460.37 590.54h57.43v5.86h-57.43z" style="clip-rule:evenodd"/>
</clipPath>
<clipPath id="ae">
<path d="m460.37 584.64h46.51v5.9h-46.51z" style="clip-rule:evenodd"/>
</clipPath>
<clipPath id="af">
<path d="m460.37 584.69h46.51v5.86h-46.51z" style="clip-rule:evenodd"/>
</clipPath>
<clipPath id="ag">
<path d="m451.49 610.2h21.62v5.9h-21.62z" style="clip-rule:evenodd"/>
</clipPath>
<clipPath id="ah">
<path d="m451.49 610.25h21.62v5.86h-21.62z" style="clip-rule:evenodd"/>
</clipPath>
<clipPath id="ai">
<path d="m497.74 641.83h77.4v5.9h-77.4z" style="clip-rule:evenodd"/>
</clipPath>
<clipPath id="aj">
<path d="m497.74 641.88h77.4v5.86h-77.4z" style="clip-rule:evenodd"/>
</clipPath>
<clipPath id="ak">
<path d="m497.74 635.98h75.58v5.9h-75.58z" style="clip-rule:evenodd"/>
</clipPath>
<clipPath id="al">
<path d="m497.74 636.02h75.58v5.86h-75.58z" style="clip-rule:evenodd"/>
</clipPath>
<clipPath id="am">
<path d="m497.74 636.02h75.58v5.86h-75.58z" style="clip-rule:evenodd"/>
</clipPath>
<clipPath id="an">
<path d="m497.74 636.02h75.58v5.86h-75.58z" style="clip-rule:evenodd"/>
</clipPath>
<g transform="matrix(1.25 0 0 -1.25 -278.18 812.31)">
<g style="fill:none;stroke:#3165bb;stroke-width:.62;stroke-linecap:round;stroke-linejoin:round;stroke-miterlimit:10">
<path d="m246.12 646.78h7.85v-7.83h-7.85z"/>
<path d="m231.53 632.57h7.85v-7.83h-7.85z"/>
<path d="m262.9 632.57h7.84v-7.83h-7.84z"/>
<path d="m235.46 632.09 10.66 9.98"/>
<path d="m253.97 642.38 12.02-10.22"/>
<path d="m222.86 617.47h7.83v-7.85h-7.83z"/>
<path d="m239.06 617.47h7.85v-7.85h-7.85z"/>
<path d="m258.14 617.47h7.85v-7.85h-7.85z"/>
<path d="m231.53 628.15-6.05-10.63"/>
<path d="m239.38 628.18 3.36-10.66"/>
<path d="m262.9 628.18-2.67-10.92"/>
<path d="m270.74 628.18 7.54-11.21"/>
</g>
<g style="clip-path:url(#a)">
<g style="clip-path:url(#b)">
<text style="font-size:4.82;font-family:Droid Sans" transform="matrix(1 0 0 -1 248.02 641.3)">
<tspan x="0 2.45" y="0">10</tspan>
</text>
</g>
</g>
<g style="clip-path:url(#c)">
<g style="clip-path:url(#d)">
<text style="font-size:4.82;font-family:Droid Sans" transform="matrix(1 0 0 -1 234.67 627.19)">
<tspan x="0" y="0">8</tspan>
</text>
</g>
</g>
<g style="clip-path:url(#e)">
<g style="clip-path:url(#f)">
<text style="font-size:4.82;font-family:Droid Sans" transform="matrix(1 0 0 -1 266.04 626.93)">
<tspan x="0" y="0">4</tspan>
</text>
</g>
</g>
<g style="clip-path:url(#g)">
<g style="clip-path:url(#h)">
<text style="font-size:4.8;font-family:Droid Sans" transform="matrix(1 0 0 -1 241.99 611.78)">
<tspan x="0" y="0">7</tspan>
</text>
</g>
</g>
<g style="clip-path:url(#i)">
<g style="clip-path:url(#j)">
<text style="font-size:4.8;font-family:Droid Sans" transform="matrix(1 0 0 -1 226.06 611.52)">
<tspan x="0" y="0">1</tspan>
</text>
</g>
</g>
<g style="clip-path:url(#k)">
<g style="clip-path:url(#l)">
<text style="font-size:4.8;font-family:Droid Sans" transform="matrix(1 0 0 -1 260.81 611.78)">
<tspan x="0" y="0">2</tspan>
</text>
</g>
</g>
<g style="fill:none;stroke:#3165bb;stroke-width:.62;stroke-linecap:round;stroke-linejoin:round;stroke-miterlimit:10">
<path d="m285.84 612.12-.05-.67-.14-.67-.24-.65-.34-.6-.43-.55-.5-.53-.58-.46-.62-.38-.7-.36-.72-.24-.77-.15-.79-.09h-.79l-.77.09-.77.15-.72.24-.69.36-.65.38-.58.46-.5.53-.41.55-.34.6-.24.65-.14.67-.05.67.05.67.14.67.24.63.34.6.41.57.5.51.58.48.65.38.69.34.72.24.77.17.77.07h.79l.79-.07.77-.17.72-.24.7-.34.62-.38.58-.48.5-.51.43-.57.34-.6.24-.63.14-.67z"/>
<path d="m266.52 593.95 7.82 15.67"/>
<path d="m270.55 606.82 3.79 2.8v-4.7"/>
</g>
<g style="clip-path:url(#m)">
<g style="clip-path:url(#n)">
<text style="font-size:4.8;font-family:Droid Sans" transform="matrix(1 0 0 -1 250.87 591.79)">
<tspan x="0 3.1 5.49 7.57 9.21 10.27 11.37 13.89 15.78 18.17 19.86 21.48 22.54 25.06 27.62 29.52 30.62 32.25 33.35 35.91" y="0">Next insert position</tspan>
</text>
</g>
</g>
<g style="clip-path:url(#o)">
<g style="clip-path:url(#p)">
<text style="font-size:4.82;font-family:Droid Sans" transform="matrix(1 0 0 -1 250.87 585.94)">
<tspan x="0 1.46 4.09 5.77 8.17 10.46 13 14.61 17.14 18.19 19.66 20.77 22.44 24.33 25.96" y="0">(Breadth first)</tspan>
</text>
</g>
</g>
<path d="m274.34 638.83 49.08.07" style="fill:none;stroke:#00f;stroke-width:.62;stroke-linecap:round;stroke-linejoin:round;stroke-miterlimit:10"/>
<path d="m319.2 640.99 4.22-2.09-4.22-2.11" style="fill:none;stroke:#00f;stroke-width:.62;stroke-linecap:round;stroke-linejoin:round;stroke-miterlimit:10"/>
<g style="clip-path:url(#q)">
<g style="clip-path:url(#r)">
<text style="font-size:4.8;font-family:Droid Sans" transform="matrix(1 0 0 -1 278.33 640.51)">
<tspan x="0 1.21 3.7 5.57 7.96 9.62 11.23 12.31 14.84 17.36 18.38 19.84 22.29" y="0">Insertion (6)</tspan>
</text>
</g>
</g>
<g style="fill:none;stroke:#3165bb;stroke-width:.62;stroke-linecap:round;stroke-linejoin:round;stroke-miterlimit:10">
<path d="m345.96 647.83h7.85v-7.85h-7.85z"/>
<path d="m331.37 633.62h7.82v-7.84h-7.82z"/>
<path d="m362.74 633.62h7.82v-7.84h-7.82z"/>
<path d="m335.28 633.12 10.68 10.01"/>
<path d="m353.81 643.44 12-10.25"/>
<path d="m322.7 618.53h7.83v-7.85h-7.83z"/>
<path d="m338.9 618.53h7.83v-7.85h-7.83z"/>
<path d="m357.96 618.53h7.85v-7.85h-7.85z"/>
<path d="m331.37 629.21-6.07-10.66"/>
<path d="m339.22 629.21 3.33-10.66"/>
<path d="m362.74 629.21-2.67-10.92"/>
<path d="m370.56 629.21 7.54-11.19"/>
</g>
<g style="clip-path:url(#s)">
<g style="clip-path:url(#t)">
<text style="font-size:4.8;font-family:Droid Sans" transform="matrix(1 0 0 -1 347.83 642.36)">
<tspan x="0 2.45" y="0">10</tspan>
</text>
</g>
</g>
<g style="clip-path:url(#u)">
<g style="clip-path:url(#v)">
<text style="font-size:4.8;font-family:Droid Sans" transform="matrix(1 0 0 -1 333.98 627.98)">
<tspan x="0" y="0">8</tspan>
</text>
</g>
</g>
<g style="clip-path:url(#w)">
<g style="clip-path:url(#x)">
<text style="font-size:4.8;font-family:Droid Sans;font-weight:bold;fill:#f00" transform="matrix(1 0 0 -1 365.86 627.98)">
<tspan x="0" y="0">6</tspan>
</text>
</g>
</g>
<g style="clip-path:url(#y)">
<g style="clip-path:url(#z)">
<text style="font-size:4.82;font-family:Droid Sans" transform="matrix(1 0 0 -1 341.83 612.82)">
<tspan x="0" y="0">7</tspan>
</text>
</g>
</g>
<g style="clip-path:url(#A)">
<g style="clip-path:url(#B)">
<text style="font-size:4.8;font-family:Droid Sans" transform="matrix(1 0 0 -1 325.87 612.55)">
<tspan x="0" y="0">1</tspan>
</text>
</g>
</g>
<g style="clip-path:url(#C)">
<g style="clip-path:url(#D)">
<text style="font-size:4.82;font-family:Droid Sans" transform="matrix(1 0 0 -1 360.65 612.82)">
<tspan x="0" y="0">2</tspan>
</text>
</g>
</g>
<g style="fill:none;stroke-linecap:round;stroke-linejoin:round;stroke-miterlimit:10">
<g style="stroke-width:.62">
<path d="m332.88 595.92-.05-.67-.14-.67-.24-.65-.34-.6-.43-.55-.48-.53-.58-.46-.64-.38-.7-.36-.72-.24-.77-.15-.79-.09h-.77l-.79.09-.77.15-.72.24-.69.36-.65.38-.55.46-.51.53-.43.55-.34.6-.24.65-.16.67-.03.67.03.67.16.67.24.63.34.6.43.57.51.51.55.48.65.38.69.34.72.24.77.17.79.07h.77l.79-.07.77-.17.72-.24.7-.34.64-.38.58-.48.48-.51.43-.57.34-.6.24-.63.14-.67z" style="stroke:#3165bb"/>
<g style="stroke:#00f">
<path d="m374.16 639.86 63.77.08"/>
<path d="m433.73 642.05 4.22-2.11-4.22-2.09"/>
</g>
</g>
<g style="stroke:#ed1c24;stroke-width:.43">
<path d="m383.88 613.58h.26.27v.27h.24v.24h.26.27.28v.26h.24v.27h.27v.26h.24.29v.26h.26v.27.26h.26.24.27v.27.24h.26.27v.26.29h.26v.24h.26.27v.26.27l.24.26h.26v.26h.27v.27.24.29h.28v.24h.24v.26.26.27h.27v.26.27h.26v.24.28.24.27h.27v.26.27.26.26.24.29.27h-.27v.24.26.26h-.26v.27.26.27h-.27v.26h-.24v.26.24h-.28v.27.29h-.27-.26v.24.26.26h-.24v.27h-.27v.24h-.26v.29.24h-.26v.28h-.27v.24l-.26.27-.27.26h-.24v.27h-.26v.26h-.26-.29v.26h-.24v.24h-.27v.27h-.24-.28-.27-.26v.26h-.24-.27l-.26.27h-.26-.27-.26v.26h-.27-.24-.28-.24-.29-.24-.27-.26-.26-.24-.29-.27-.24-.26-.26-.27-.26-.27-.24-.28-.24-.27-.26-.27-.26-.26-.27-.26-.27-.24-.28-.24-.27-.26-.27-.26-.26-.24"/>
<path d="m372.89 631.08h.29.24.26v.26h.26.27v.27.26h.26v.27.26h.27.24v.26.24.29h.28v.24.27h.24"/>
<path d="m372.89 631.08h.29.24v-.26-.27h.26v-.26h.26v-.27-.24h.27v-.26h.26v-.26h.27v-.27h.24v-.26-.27h.28v-.24"/>
</g>
</g>
<g style="clip-path:url(#E)">
<g style="clip-path:url(#F)">
<text style="font-size:4.8;font-family:Droid Sans" transform="matrix(1 0 0 -1 378.14 641.57)">
<tspan x="0 2.97 5.36 6.47 8.87 10.5 12.89 13.91 16.43 18.82 21.12" y="0">Delete head</tspan>
</text>
</g>
</g>
<g style="fill:none;stroke:#3165bb;stroke-width:.62;stroke-linecap:round;stroke-linejoin:round;stroke-miterlimit:10">
<path d="m326.88 610.68-.26-9.41"/>
<path d="m352.75 593.95-20.35-.09"/>
<path d="m336.62 591.77-4.22 2.09 4.2 2.13"/>
</g>
<g style="clip-path:url(#G)">
<g style="clip-path:url(#H)">
<text style="font-size:4.8;font-family:Droid Sans" transform="matrix(1 0 0 -1 353.33 595.06)">
<tspan x="0 3.07 5.46 7.56 9.16 10.2 11.3 13.8 15.67 18.06 19.74 21.35 22.39 24.88 27.45 29.32 30.43 32.04 33.14 35.7" y="0">Next insert position</tspan>
</text>
</g>
</g>
<g style="clip-path:url(#I)">
<g style="clip-path:url(#J)">
<text style="font-size:4.82;font-family:Droid Sans" transform="matrix(1 0 0 -1 353.33 589.2)">
<tspan x="0 1.46 4.09 5.77 8.17 10.46 12.96 14.57 17.06 18.09 19.57 20.68 22.34 24.23 25.82" y="0">(Breadth first)</tspan>
</text>
</g>
</g>
<path d="m374.5 618.22h7.82v-7.85h-7.82z" style="fill:none;stroke:#3165bb;stroke-width:.62;stroke-linecap:round;stroke-linejoin:round;stroke-miterlimit:10"/>
<g style="clip-path:url(#K)">
<g style="clip-path:url(#L)">
<text style="font-size:4.8;font-family:Droid Sans;font-weight:bold;fill:#f00" transform="matrix(1 0 0 -1 377.62 612.55)">
<tspan x="0" y="0">4</tspan>
</text>
</g>
</g>
<g style="clip-path:url(#M)">
<g style="clip-path:url(#N)">
<text style="font-size:4.82;font-family:Droid Sans" transform="matrix(1 0 0 -1 391.49 615.17)">
<tspan x="0 2.19 5.62 7.9 10.39 11.42 13.44 15.93 17.01 18.09" y="0">Swap chilp</tspan>
</text>
</g>
<g style="clip-path:url(#O)">
<text style="font-size:4.82;font-family:Droid Sans" transform="matrix(1 0 0 -1 412.22 615.17)">
<tspan x="0" y="0">-</tspan>
</text>
</g>
<g style="clip-path:url(#P)">
<text style="font-size:4.82;font-family:Droid Sans" transform="matrix(1 0 0 -1 413.69 615.17)">
<tspan x="0 2.49 4.78 6.43 8.83 11.33" y="0">parent</tspan>
</text>
</g>
</g>
<g style="clip-path:url(#Q)">
<g style="clip-path:url(#R)">
<text style="font-size:4.8;font-family:Droid Sans" transform="matrix(1 0 0 -1 391.49 609.34)">
<tspan x="0 1.21 2.67 3.74 5.76 8.26 9.34 10.42 12.91 14 16.49 17.57 19.8 22.03 24.42" y="0">If child bigger</tspan>
</text>
</g>
</g>
<g style="fill:none;stroke:#3165bb;stroke-width:.62;stroke-linecap:round;stroke-linejoin:round;stroke-miterlimit:10">
<path d="m458.86 646.8h7.84v-7.85h-7.84z"/>
<path d="m444.26 632.59h7.83v-7.85h-7.83z"/>
<path d="m475.63 632.59h7.83v-7.85h-7.83z"/>
<path d="m448.18 632.11 10.68 9.99"/>
<path d="m466.7 642.41 12-10.23"/>
<path d="m435.6 617.5h7.82v-7.85h-7.82z"/>
<path d="m451.8 617.5h7.82v-7.85h-7.82z"/>
<path d="m470.86 617.5h7.84v-7.85h-7.84z"/>
<path d="m444.26 628.18-6.04-10.64"/>
<path d="m452.11 628.18 3.34-10.64"/>
<path d="m475.63 628.18-2.66-10.92"/>
<path d="m483.48 628.18 7.54-11.19"/>
</g>
<g style="clip-path:url(#S)">
<g style="clip-path:url(#T)">
<text style="font-size:4.8;font-family:Droid Sans;font-weight:bold;fill:#f00" transform="matrix(1 0 0 -1 460.73 641.33)">
<tspan x="0" y="0">8</tspan>
</text>
</g>
</g>
<g style="clip-path:url(#U)">
<g style="clip-path:url(#V)">
<text style="font-size:4.8;font-family:Droid Sans;font-weight:bold;fill:#f00" transform="matrix(1 0 0 -1 447.41 627.22)">
<tspan x="0" y="0">7</tspan>
</text>
</g>
</g>
<g style="clip-path:url(#W)">
<g style="clip-path:url(#X)">
<text style="font-size:4.8;font-family:Droid Sans" transform="matrix(1 0 0 -1 478.75 626.95)">
<tspan x="0" y="0">6</tspan>
</text>
</g>
</g>
<g style="clip-path:url(#Y)">
<g style="clip-path:url(#Z)">
<text style="font-size:4.8;font-family:Droid Sans" transform="matrix(1 0 0 -1 438.53 611.88)">
<tspan x="0" y="0">1</tspan>
</text>
</g>
</g>
<g style="clip-path:url(#aa)">
<g style="clip-path:url(#ab)">
<text style="font-size:4.82;font-family:Droid Sans" transform="matrix(1 0 0 -1 473.54 611.78)">
<tspan x="0" y="0">2</tspan>
</text>
</g>
</g>
<g style="fill:none;stroke:#3165bb;stroke-width:.62;stroke-linecap:round;stroke-linejoin:round;stroke-miterlimit:10">
<path d="m498.58 612.14-.08-.69-.12-.67-.26-.63-.34-.6-.4-.57-.51-.53-.57-.46-.63-.38-.69-.34-.72-.24-.8-.17-.76-.09h-.8l-.76.09-.8.17-.72.24-.67.34-.65.38-.55.46-.53.53-.4.57-.34.6-.24.63-.14.67-.08.69.08.65.14.67.24.63.34.62.4.55.53.53.55.46.65.38.67.34.72.26.8.15.76.09h.8l.76-.09.8-.15.72-.26.69-.34.63-.38.57-.46.51-.53.4-.55.34-.62.26-.63.12-.67z"/>
<path d="m479.23 593.98 7.85 15.67"/>
<path d="m483.29 606.82 3.79 2.83v-4.71"/>
</g>
<g style="clip-path:url(#ac)">
<g style="clip-path:url(#ad)">
<text style="font-size:4.8;font-family:Droid Sans" transform="matrix(1 0 0 -1 463.61 591.79)">
<tspan x="0 3.07 5.46 7.56 9.16 10.2 11.3 13.8 15.67 18.06 19.74 21.35 22.39 24.88 27.45 29.32 30.43 32.04 33.14 35.7" y="0">Next insert position</tspan>
</text>
</g>
</g>
<g style="clip-path:url(#ae)">
<g style="clip-path:url(#af)">
<text style="font-size:4.8;font-family:Droid Sans" transform="matrix(1 0 0 -1 463.61 585.96)">
<tspan x="0 1.45 4.07 5.76 8.15 10.45 12.95 14.56 17.05 18.09 19.55 20.65 22.33 24.21 25.81" y="0">(Breadth first)</tspan>
</text>
</g>
</g>
<g style="clip-path:url(#ag)">
<g style="clip-path:url(#ah)">
<text style="font-size:4.8;font-family:Droid Sans;font-weight:bold;fill:#f00" transform="matrix(1 0 0 -1 454.73 611.52)">
<tspan x="0" y="0">4</tspan>
</text>
</g>
</g>
<g style="fill:none;stroke-linecap:round;stroke-linejoin:round;stroke-miterlimit:10;stroke:#ed1c24;stroke-width:.43">
<path d="m468.53 644.14h.26v.24h.24.27.26v.26h.26.27v.26h.26v.29h.27.24v.24h.26v.27h.26.29v.24h.24v.28"/>
<path d="m468.79 644.14v-.27h.24.27v-.26h.26v-.27h.26v-.26h.27v-.26h.26v-.27h.27v-.24h.24v-.26-.27"/>
<path d="m495.96 616.15v.27h.24v.28.24.27.26h.31v.24h.24v.27.28.27h.27v.24.26.27l.24.24v.28h.26v.27.26.24.27.28h.26v.27.24h.29v.26.27h.24v.24.28.27.24.26.27.24h.27v.28.27.26.24.27h.26v.28.24.27.26.27.24.28.27.26.24.27.28.24.27.26.27.24h-.26v.28.24.27.26.27.24h-.27v.28.27h-.24v.24.26.27h-.29v.28.24.27l-.26.26v.27h-.26v.24.28.27h-.24v.24.26h-.27-.24v.27.28.24h-.31v.27h-.24v.24.26h-.26v.27l-.24.28h-.27v.24.27h-.29v.26h-.26-.24v.24.27h-.26v.28h-.27-.24v.27h-.29v.24h-.26-.26v.26h-.24-.27v.27.28h-.29-.24-.26v.24h-.26v.27h-.27-.24v.26h-.29-.24v.24h-.28-.24v.27h-.27-.24-.29v.28h-.26l-.26.27h-.24v.24h-.27-.29-.24v.26h-.26-.26-.27v.24h-.24l-.29.27h-.26-.24-.26-.27v.28h-.29-.24-.26v.27h-.26-.27-.24-.29-.24-.26-.26-.27v.24h-.24-.29-.26-.24-.26l-.27.26h-.29-.24-.26-.26-.24-.27-.29-.26-.24-.26-.27-.29v.27h-.24-.26-.26-.24-.27-.29-.24-.26-.26-.24-.27-.29-.26-.24-.26-.27-.24-.29-.26-.26-.24-.27-.29-.26-.24-.26-.27-.24-.29-.26-.26-.24"/>
<path d="m452.86 630.77v.29.24h.26v.26h.26l.27.26h.24v.27h.29v.26h.24v.27h.28.24v.24h.27.24v.28h.29.26v.24h.26.24.27.26.27.26.26.27.24.29.26v-.24h.26l.24-.28h.27v-.24h.26l.27-.27v-.26h.26.26v-.27h.27v-.26-.26h.24v-.24h.26v-.29-.27h.27v-.24-.26h.28v-.26h.24v-.27-.26-.27-.26h.27v-.26h.24v-.24-.27h.29v-.26-.27-.26-.26h.24v-.27-.26-.24-.27-.28-.24-.27-.26-.27h-.24v-.26h-.29v-.26h-.24v-.24h-.27v-.29h-.24v-.24h-.28-.27v-.27h-.26v-.26l-.24-.26h-.27-.26v-.27-.26h-.26v-.24h-.27v-.27h-.26v-.28-.24h-.27v-.27h-.24v-.26-.27h-.26v-.24h-.26v-.28h-.29"/>
<path d="m457.82 621.89v-.24-.27-.28-.24-.27-.26-.27-.24-.28h.27v-.27h.24.29.26.26.24.27.26.27.26.26.27"/>
<path d="m445.8 636.79v-.26-.27h-.26v-.26-.26-.24-.27-.26h-.24v-.27"/>
<path d="m442.42 634.97h.24.26.26.27.26.27.26.24.29.24"/>
<path d="m458.86 645.7h-.29v.24.28h-.24v.27h-.27v.26h-.26v.24.27h-.26-.24v.26.26h-.29v.27h-.27v.26h-.24v.27h-.26-.26v.24h-.27v.26h-.26v.26h-.27-.24-.28-.24-.27-.26-.27-.26v.29h-.26-.24-.29-.27-.26-.24-.26-.27-.26-.27-.26-.26v-.29h-.24-.27v-.26h-.26v-.26h-.29-.24v-.24h-.26v-.27h-.27v-.26h-.26v-.27h-.24v-.26h-.29-.26v-.26h-.24v-.27h-.27v-.24h-.26v-.26h-.27v-.27h-.26v-.28h-.26v-.24h-.24v-.27h-.29v-.24-.29h-.24v-.26h-.27v-.26-.24h-.26v-.27h-.26v-.26-.27h-.27v-.26-.26-.27-.24-.26-.27-.28-.24-.27-.26-.27-.24-.28-.27-.24-.26-.27-.26-.26-.27-.24-.29-.24-.26-.26-.27-.26-.27h.27v-.24-.28h.26v-.27-.24h.26v-.26h.27v-.27"/>
</g>
<g style="clip-path:url(#ai)">
<g style="clip-path:url(#aj)">
<text style="font-size:4.82;font-family:Droid Sans" transform="matrix(1 0 0 -1 500.98 643.13)">
<tspan x="0 2.51 5.05 6.66 7.72 8.83 11.14 13.01 14.63 15.69 16.8 19.31 21.2 23.58 25.27 26.88 29.29 31.82 32.87 35.4 37.95 40.48 42.88 43.94 45.05 47.56 48.65 51.18 53.58 55.9" y="0">Put last inserted node in head</tspan>
</text>
</g>
</g>
<g style="clip-path:url(#ak)">
<g style="clip-path:url(#al)">
<text style="font-size:4.8;font-family:Droid Sans" transform="matrix(1 0 0 -1 500.98 637.3)">
<tspan x="0 2.35 4.87 7.26 9.78 10.84 12.72 16.17 18.47 20.99 22.05 25.5 26.6 28.23 30.75" y="0">Then swap with </tspan>
</text>
</g>
<g style="clip-path:url(#am)">
<text style="font-size:4.8;font-family:Droid Sans;font-weight:bold" transform="matrix(1 0 0 -1 532.75 637.3)">
<tspan x="0 2.58 3.76 6.07 8.37 10.77 12.71" y="0">biggest</tspan>
</text>
</g>
<g style="clip-path:url(#an)">
<text style="font-size:4.8;font-family:Droid Sans" transform="matrix(1 0 0 -1 548.06 637.3)">
<tspan x="0 2.04 4.57 5.66 6.78" y="0">child</tspan>
</text>
</g>
</g>
</g>
</svg>
