<svg height="149.04" viewBox="0 0 365.62 149.04" width="365.62" xml:space="preserve" xmlns="http://www.w3.org/2000/svg" xmlns:xlink="http://www.w3.org/1999/xlink"><clipPath id="a"><path d="m426.86 768.1h57.41v8.23h-57.41z" style="clip-rule:evenodd"/></clipPath><clipPath id="b"><path d="m426.86 768.17h57.41v8.16h-57.41z" style="clip-rule:evenodd"/></clipPath><clipPath id="c"><path d="m346.87 768.1h41.78v8.23h-41.78z" style="clip-rule:evenodd"/></clipPath><clipPath id="d"><path d="m346.87 768.17h41.78v8.16h-41.78z" style="clip-rule:evenodd"/></clipPath><clipPath id="e"><path d="m357.1 750.19h41.42v8.26h-41.42z" style="clip-rule:evenodd"/></clipPath><clipPath id="f"><path d="m357.1 750.26h41.42v8.18h-41.42z" style="clip-rule:evenodd"/></clipPath><clipPath id="g"><path d="m437.83 750.31h41.42v8.26h-41.42z" style="clip-rule:evenodd"/></clipPath><clipPath id="h"><path d="m437.83 750.38h41.42v8.18h-41.42z" style="clip-rule:evenodd"/></clipPath><clipPath id="i"><path d="m345.05 781.97h161.21v8.26h-161.21z" style="clip-rule:evenodd"/></clipPath><clipPath id="j"><path d="m345.05 782.04h161.21v8.18h-161.21z" style="clip-rule:evenodd"/></clipPath><clipPath id="k"><path d="m487.49 701.98h107.98v8.26h-107.98z" style="clip-rule:evenodd"/></clipPath><clipPath id="l"><path d="m487.49 702.05h107.98v8.18h-107.98z" style="clip-rule:evenodd"/></clipPath><clipPath id="m"><path d="m487.49 693.82h100.37v8.26h-100.37z" style="clip-rule:evenodd"/></clipPath><clipPath id="n"><path d="m487.49 693.89h100.37v8.18h-100.37z" style="clip-rule:evenodd"/></clipPath><clipPath id="o"><path d="m488.95 766.25h60.98v8.26h-60.98z" style="clip-rule:evenodd"/></clipPath><clipPath id="p"><path d="m488.95 766.34h60.98v8.16h-60.98z" style="clip-rule:evenodd"/></clipPath><g transform="matrix(1.25 0 0 -1.25 -402.71 986.16)"><g style="fill:none;stroke-width:.86;stroke-linecap:round;stroke-linejoin:round;stroke-miterlimit:10"><path d="m346.61 778.94h49.65v-108.81h-49.65z" style="stroke:#ed1c24"/><g style="stroke:#800000"><path d="m356.76 732.55h26.64v-14.23h-26.64z"/><path d="m356.76 718.39h26.66v-14.23h-26.66z"/><path d="m356.76 704.52h26.66v-14.26h-26.66z"/><path d="m356.78 690.36h26.64v-14.23h-26.64z"/><path d="m356.76 761.14h26.66v-14.26h-26.66z"/><path d="m356.78 746.98h26.64v-14.26h-26.64z"/></g></g><g style="clip-path:url(#a)"><g style="clip-path:url(#b)"><text style="font-size:6.72;font-family:Droid Sans" transform="matrix(1 0 0 -1 431.38 769.92)"><tspan x="0 4.19 7.53 10.75 14.25 15.77 19.07 22.29 25.79 27.34" y="0">Heap Table</tspan></text></g></g><g style="clip-path:url(#c)"><g style="clip-path:url(#d)"><text style="font-size:6.72;font-family:Droid Sans" transform="matrix(1 0 0 -1 351.38 769.92)"><tspan x="0 1.69 5.18 8.68 12.03" y="0">Index</tspan></text></g></g><g style="clip-path:url(#e)"><g style="clip-path:url(#f)"><text style="font-size:6.72;font-family:Droid Sans" transform="matrix(1 0 0 -1 361.61 752.02)"><tspan x="0 3.66 5.2 8.8 11.65" y="0">Block</tspan></text></g></g><g style="fill:none;stroke-width:.86;stroke-linecap:round;stroke-linejoin:round;stroke-miterlimit:10"><path d="m427.34 779.06h49.68v-108.84h-49.68z" style="stroke:#ed1c24"/><g style="stroke:#800000"><path d="m437.5 732.67h26.64v-14.23h-26.64z"/><path d="m437.52 718.51h26.64v-14.23h-26.64z"/><path d="m437.52 704.64h26.64v-14.26h-26.64z"/><path d="m437.52 690.48h26.66v-14.26h-26.66z"/><path d="m437.52 761.26h26.64v-14.26h-26.64z"/><path d="m437.52 747.1h26.66v-14.26h-26.66z"/></g></g><g style="clip-path:url(#g)"><g style="clip-path:url(#h)"><text style="font-size:6.72;font-family:Droid Sans" transform="matrix(1 0 0 -1 442.37 752.14)"><tspan x="0 3.66 5.2 8.74 11.61" y="0">Block</tspan></text></g></g><g style="clip-path:url(#i)"><g style="clip-path:url(#j)"><text style="font-size:6.72;font-family:Droid Sans" transform="matrix(1 0 0 -1 349.56 783.79)"><tspan x="0 3.08 6.43 7.98 11.32 14.17 16.46 17.92 21.01 24.28 28.59 31.68 34.76 36.21 38.26 40.6 44.17 49.57 50.96 54.23 58.12 61.78 64.63 67.91 69.38 74.19 77.72 81.06 83.41 86.78 88.24 89.93 94.09 97.57 100.94 104.44 107.71 111.01 112.33 115.68 117.16 120.22 123.44 124.99 128.48 131.83" y="0">Select STUFF from TABLE where IDX_KEY &lt; value </tspan></text></g></g><g style="fill:none;stroke-width:.86;stroke-linecap:round;stroke-linejoin:round;stroke-miterlimit:10"><path d="m488.71 778.22h86.16v-46.77h-86.16z" style="stroke:#008000"/><path d="m498.48 759.7h26.64v-14.26h-26.64z" style="stroke:#800000"/><path d="m539.06 759.7h26.62v-14.26h-26.62z" style="stroke:#800000"/><g style="stroke:#ed1c24"><path d="m464.21 753.02 34.34-1.1"/><path d="m492.74 755.04 5.81-3.12-6-2.76"/><path d="m461.66 683.35 77.43 66"/><path d="m532.7 747.77 6.39 1.58-2.55-6.05"/><path d="m383.47 739.87 54.07-56.97"/><path d="m435.62 689.18 1.92-6.28-6.19 2.25"/><path d="m383.11 754.49 54.43-2.57"/><path d="m431.78 755.14 5.76-3.22-6.02-2.66"/></g></g><g style="clip-path:url(#k)"><g style="clip-path:url(#l)"><text style="font-size:6.72;font-family:Droid Sans" transform="matrix(1 0 0 -1 492.02 703.8)"><tspan x="0 1.69 5.18 8.68 12.03 14.94 16.41 19.63 22.47 25.29 28.63 31.26 33.89 35.34 37.59 39.94 41.46 44.61 47.75 51.1 53.44 56.79 60.32 61.77 65.2 66.66 69.29 70.82 74.32 77.46 79.01 82.35 83.89 87.39 88.93 92.49 95.34" y="0">Index access triggered 2 single block</tspan></text></g></g><g style="clip-path:url(#m)"><g style="clip-path:url(#n)"><text style="font-size:6.72;font-family:Droid Sans" transform="matrix(1 0 0 -1 492.02 695.64)"><tspan x="0 1.69 6.12 7.64 9.69 13.27 15.61 16.99 20.21 21.73 24.35 29.75 32.97 34.51 36.04 37.5 39.76 42.97 46.48 48.03 51.37 52.84 56.19 59.55 61.02 63.65 65.17 68.74" y="0">IO for a small table =&gt; slow</tspan></text></g></g><g style="clip-path:url(#o)"><g style="clip-path:url(#p)"><text style="font-size:6.72;font-family:Droid Sans" transform="matrix(1 0 0 -1 493.49 768.1)"><tspan x="0 3.66 7.15 9.2 11.25 14.6 16.92 18.36 21.2 24.38 27.22 30.72" y="0">Buffer cache</tspan></text></g></g></g></svg>