<?xml version="1.0" encoding="UTF-8" standalone="no"?>
<svg
   xmlns:dc="http://purl.org/dc/elements/1.1/"
   xmlns:cc="http://creativecommons.org/ns#"
   xmlns:rdf="http://www.w3.org/1999/02/22-rdf-syntax-ns#"
   xmlns:svg="http://www.w3.org/2000/svg"
   xmlns="http://www.w3.org/2000/svg"
   xmlns:sodipodi="http://sodipodi.sourceforge.net/DTD/sodipodi-0.dtd"
   xmlns:inkscape="http://www.inkscape.org/namespaces/inkscape"
   viewBox="0 0 1280.0001 337.5576"
   height="337.55759"
   width="1280.0001"
   xml:space="preserve"
   version="1.1"
   id="svg2"
   inkscape:version="0.91 r13725"
   sodipodi:docname="DB_Oracle_Tracing.svg"><sodipodi:namedview
     pagecolor="#ffffff"
     bordercolor="#666666"
     borderopacity="1"
     objecttolerance="10"
     gridtolerance="10"
     guidetolerance="10"
     inkscape:pageopacity="0"
     inkscape:pageshadow="2"
     inkscape:window-width="1920"
     inkscape:window-height="1060"
     id="namedview335"
     showgrid="false"
     fit-margin-top="0"
     fit-margin-left="0"
     fit-margin-right="0"
     fit-margin-bottom="0"
     inkscape:zoom="0.54144972"
     inkscape:cx="342.59875"
     inkscape:cy="90.349019"
     inkscape:window-x="-4"
     inkscape:window-y="-3"
     inkscape:window-maximized="1"
     inkscape:current-layer="svg2" /><metadata
     id="metadata8"><rdf:RDF><cc:Work
         rdf:about=""><dc:format>image/svg+xml</dc:format><dc:type
           rdf:resource="http://purl.org/dc/dcmitype/StillImage" /><dc:title></dc:title></cc:Work></rdf:RDF></metadata><defs
     id="defs6"><clipPath
       clipPathUnits="userSpaceOnUse"
       id="clipPath28"><path
         d="m 466.32,465.6 53.736,0 0,8.472 -53.736,0 0,-8.472 z"
         id="path30"
         style="clip-rule:evenodd"
         inkscape:connector-curvature="0" /></clipPath><clipPath
       clipPathUnits="userSpaceOnUse"
       id="clipPath36"><path
         d="m 466.32,465.67 53.736,0 0,8.4 -53.736,0 0,-8.4 z"
         id="path38"
         style="clip-rule:evenodd"
         inkscape:connector-curvature="0" /></clipPath><clipPath
       clipPathUnits="userSpaceOnUse"
       id="clipPath48"><path
         d="m 493.58,553.34 51.192,0 0,8.472 -51.192,0 0,-8.472 z"
         id="path50"
         style="clip-rule:evenodd"
         inkscape:connector-curvature="0" /></clipPath><clipPath
       clipPathUnits="userSpaceOnUse"
       id="clipPath56"><path
         d="m 493.58,553.42 51.192,0 0,8.4 -51.192,0 0,-8.4 z"
         id="path58"
         style="clip-rule:evenodd"
         inkscape:connector-curvature="0" /></clipPath><clipPath
       clipPathUnits="userSpaceOnUse"
       id="clipPath68"><path
         d="m 380.62,554.09 78.288,0 0,8.472 -78.288,0 0,-8.472 z"
         id="path70"
         style="clip-rule:evenodd"
         inkscape:connector-curvature="0" /></clipPath><clipPath
       clipPathUnits="userSpaceOnUse"
       id="clipPath76"><path
         d="m 380.62,554.16 78.288,0 0,8.4 -78.288,0 0,-8.4 z"
         id="path78"
         style="clip-rule:evenodd"
         inkscape:connector-curvature="0" /></clipPath><clipPath
       clipPathUnits="userSpaceOnUse"
       id="clipPath88"><path
         d="m 394.13,538.7 73.56,0 0,8.472 -73.56,0 0,-8.472 z"
         id="path90"
         style="clip-rule:evenodd"
         inkscape:connector-curvature="0" /></clipPath><clipPath
       clipPathUnits="userSpaceOnUse"
       id="clipPath96"><path
         d="m 394.13,538.78 73.56,0 0,8.4 -73.56,0 0,-8.4 z"
         id="path98"
         style="clip-rule:evenodd"
         inkscape:connector-curvature="0" /></clipPath><clipPath
       clipPathUnits="userSpaceOnUse"
       id="clipPath116"><path
         d="m 498.1,538.32 68.376,0 0,8.496 -68.376,0 0,-8.496 z"
         id="path118"
         style="clip-rule:evenodd"
         inkscape:connector-curvature="0" /></clipPath><clipPath
       clipPathUnits="userSpaceOnUse"
       id="clipPath124"><path
         d="m 498.1,538.39 68.376,0 0,8.424 -68.376,0 0,-8.424 z"
         id="path126"
         style="clip-rule:evenodd"
         inkscape:connector-curvature="0" /></clipPath><clipPath
       clipPathUnits="userSpaceOnUse"
       id="clipPath146"><path
         d="m 328.44,535.32 65.616,0 0,8.472 -65.616,0 0,-8.472 z"
         id="path148"
         style="clip-rule:evenodd"
         inkscape:connector-curvature="0" /></clipPath><clipPath
       clipPathUnits="userSpaceOnUse"
       id="clipPath154"><path
         d="m 328.44,535.39 65.616,0 0,8.4 -65.616,0 0,-8.4 z"
         id="path156"
         style="clip-rule:evenodd"
         inkscape:connector-curvature="0" /></clipPath><clipPath
       clipPathUnits="userSpaceOnUse"
       id="clipPath180"><path
         d="m 471.82,448.27 53.208,0 0,8.472 -53.208,0 0,-8.472 z"
         id="path182"
         style="clip-rule:evenodd"
         inkscape:connector-curvature="0" /></clipPath><clipPath
       clipPathUnits="userSpaceOnUse"
       id="clipPath188"><path
         d="m 471.82,448.34 53.208,0 0,8.4 -53.208,0 0,-8.4 z"
         id="path190"
         style="clip-rule:evenodd"
         inkscape:connector-curvature="0" /></clipPath><clipPath
       clipPathUnits="userSpaceOnUse"
       id="clipPath200"><path
         d="m 471.82,439.87 76.848,0 0,8.472 -76.848,0 0,-8.472 z"
         id="path202"
         style="clip-rule:evenodd"
         inkscape:connector-curvature="0" /></clipPath><clipPath
       clipPathUnits="userSpaceOnUse"
       id="clipPath208"><path
         d="m 471.82,439.94 76.848,0 0,8.4 -76.848,0 0,-8.4 z"
         id="path210"
         style="clip-rule:evenodd"
         inkscape:connector-curvature="0" /></clipPath><clipPath
       clipPathUnits="userSpaceOnUse"
       id="clipPath224"><path
         d="m 531.48,448.54 53.208,0 0,8.496 -53.208,0 0,-8.496 z"
         id="path226"
         style="clip-rule:evenodd"
         inkscape:connector-curvature="0" /></clipPath><clipPath
       clipPathUnits="userSpaceOnUse"
       id="clipPath232"><path
         d="m 531.48,448.61 53.208,0 0,8.424 -53.208,0 0,-8.424 z"
         id="path234"
         style="clip-rule:evenodd"
         inkscape:connector-curvature="0" /></clipPath><clipPath
       clipPathUnits="userSpaceOnUse"
       id="clipPath244"><path
         d="m 531.48,440.14 64.08,0 0,8.496 -64.08,0 0,-8.496 z"
         id="path246"
         style="clip-rule:evenodd"
         inkscape:connector-curvature="0" /></clipPath><clipPath
       clipPathUnits="userSpaceOnUse"
       id="clipPath252"><path
         d="m 531.48,440.21 64.08,0 0,8.424 -64.08,0 0,-8.424 z"
         id="path254"
         style="clip-rule:evenodd"
         inkscape:connector-curvature="0" /></clipPath><clipPath
       clipPathUnits="userSpaceOnUse"
       id="clipPath274"><path
         d="m 40.392,763.3 51.936,0 0,8.496 -51.936,0 0,-8.496 z"
         id="path276"
         style="clip-rule:evenodd"
         inkscape:connector-curvature="0" /></clipPath><clipPath
       clipPathUnits="userSpaceOnUse"
       id="clipPath282"><path
         d="m 40.392,763.37 51.936,0 0,8.424 -51.936,0 0,-8.424 z"
         id="path284"
         style="clip-rule:evenodd"
         inkscape:connector-curvature="0" /></clipPath><clipPath
       clipPathUnits="userSpaceOnUse"
       id="clipPath294"><path
         d="m 57.264,738.12 113.5,0 0,8.472 -113.5,0 0,-8.472 z"
         id="path296"
         style="clip-rule:evenodd"
         inkscape:connector-curvature="0" /></clipPath><clipPath
       clipPathUnits="userSpaceOnUse"
       id="clipPath302"><path
         d="m 57.264,738.19 113.5,0 0,8.4 -113.5,0 0,-8.4 z"
         id="path304"
         style="clip-rule:evenodd"
         inkscape:connector-curvature="0" /></clipPath><clipPath
       clipPathUnits="userSpaceOnUse"
       id="clipPath314"><path
         d="m 40.392,746.5 270.05,0 0,8.496 -270.05,0 0,-8.496 z"
         id="path316"
         style="clip-rule:evenodd"
         inkscape:connector-curvature="0" /></clipPath><clipPath
       clipPathUnits="userSpaceOnUse"
       id="clipPath322"><path
         d="m 40.392,746.59 270.05,0 0,8.4 -270.05,0 0,-8.4 z"
         id="path324"
         style="clip-rule:evenodd"
         inkscape:connector-curvature="0" /></clipPath><clipPath
       clipPathUnits="userSpaceOnUse"
       id="clipPath334"><path
         d="m 40.392,746.59 270.05,0 0,8.4 -270.05,0 0,-8.4 z"
         id="path336"
         style="clip-rule:evenodd"
         inkscape:connector-curvature="0" /></clipPath><clipPath
       clipPathUnits="userSpaceOnUse"
       id="clipPath346"><path
         d="m 40.392,746.59 270.05,0 0,8.4 -270.05,0 0,-8.4 z"
         id="path348"
         style="clip-rule:evenodd"
         inkscape:connector-curvature="0" /></clipPath><clipPath
       clipPathUnits="userSpaceOnUse"
       id="clipPath358"><path
         d="m 40.392,729.72 271.49,0 0,8.472 -271.49,0 0,-8.472 z"
         id="path360"
         style="clip-rule:evenodd"
         inkscape:connector-curvature="0" /></clipPath><clipPath
       clipPathUnits="userSpaceOnUse"
       id="clipPath366"><path
         d="m 40.392,729.79 271.49,0 0,8.4 -271.49,0 0,-8.4 z"
         id="path368"
         style="clip-rule:evenodd"
         inkscape:connector-curvature="0" /></clipPath><clipPath
       clipPathUnits="userSpaceOnUse"
       id="clipPath378"><path
         d="m 40.392,729.79 271.49,0 0,8.4 -271.49,0 0,-8.4 z"
         id="path380"
         style="clip-rule:evenodd"
         inkscape:connector-curvature="0" /></clipPath><clipPath
       clipPathUnits="userSpaceOnUse"
       id="clipPath390"><path
         d="m 40.392,729.79 271.49,0 0,8.4 -271.49,0 0,-8.4 z"
         id="path392"
         style="clip-rule:evenodd"
         inkscape:connector-curvature="0" /></clipPath><clipPath
       clipPathUnits="userSpaceOnUse"
       id="clipPath402"><path
         d="m 40.392,729.79 271.49,0 0,8.4 -271.49,0 0,-8.4 z"
         id="path404"
         style="clip-rule:evenodd"
         inkscape:connector-curvature="0" /></clipPath><clipPath
       clipPathUnits="userSpaceOnUse"
       id="clipPath414"><path
         d="m 40.392,729.79 271.49,0 0,8.4 -271.49,0 0,-8.4 z"
         id="path416"
         style="clip-rule:evenodd"
         inkscape:connector-curvature="0" /></clipPath><clipPath
       clipPathUnits="userSpaceOnUse"
       id="clipPath428"><path
         d="m 40.392,721.32 228.17,0 0,8.472 -228.17,0 0,-8.472 z"
         id="path430"
         style="clip-rule:evenodd"
         inkscape:connector-curvature="0" /></clipPath><clipPath
       clipPathUnits="userSpaceOnUse"
       id="clipPath436"><path
         d="m 40.392,721.39 228.17,0 0,8.4 -228.17,0 0,-8.4 z"
         id="path438"
         style="clip-rule:evenodd"
         inkscape:connector-curvature="0" /></clipPath><clipPath
       clipPathUnits="userSpaceOnUse"
       id="clipPath448"><path
         d="m 40.392,721.39 228.17,0 0,8.4 -228.17,0 0,-8.4 z"
         id="path450"
         style="clip-rule:evenodd"
         inkscape:connector-curvature="0" /></clipPath><clipPath
       clipPathUnits="userSpaceOnUse"
       id="clipPath460"><path
         d="m 40.392,721.39 228.17,0 0,8.4 -228.17,0 0,-8.4 z"
         id="path462"
         style="clip-rule:evenodd"
         inkscape:connector-curvature="0" /></clipPath><clipPath
       clipPathUnits="userSpaceOnUse"
       id="clipPath472"><path
         d="m 40.392,712.92 205.8,0 0,8.472 -205.8,0 0,-8.472 z"
         id="path474"
         style="clip-rule:evenodd"
         inkscape:connector-curvature="0" /></clipPath><clipPath
       clipPathUnits="userSpaceOnUse"
       id="clipPath480"><path
         d="m 40.392,712.99 205.8,0 0,8.4 -205.8,0 0,-8.4 z"
         id="path482"
         style="clip-rule:evenodd"
         inkscape:connector-curvature="0" /></clipPath><clipPath
       clipPathUnits="userSpaceOnUse"
       id="clipPath492"><path
         d="m 40.392,712.99 205.8,0 0,8.4 -205.8,0 0,-8.4 z"
         id="path494"
         style="clip-rule:evenodd"
         inkscape:connector-curvature="0" /></clipPath><clipPath
       clipPathUnits="userSpaceOnUse"
       id="clipPath504"><path
         d="m 40.392,712.99 205.8,0 0,8.4 -205.8,0 0,-8.4 z"
         id="path506"
         style="clip-rule:evenodd"
         inkscape:connector-curvature="0" /></clipPath><clipPath
       clipPathUnits="userSpaceOnUse"
       id="clipPath516"><path
         d="m 57.264,696.12 62.016,0 0,8.472 -62.016,0 0,-8.472 z"
         id="path518"
         style="clip-rule:evenodd"
         inkscape:connector-curvature="0" /></clipPath><clipPath
       clipPathUnits="userSpaceOnUse"
       id="clipPath524"><path
         d="m 57.264,696.19 62.016,0 0,8.4 -62.016,0 0,-8.4 z"
         id="path526"
         style="clip-rule:evenodd"
         inkscape:connector-curvature="0" /></clipPath><clipPath
       clipPathUnits="userSpaceOnUse"
       id="clipPath536"><path
         d="m 40.392,704.52 272.3,0 0,8.472 -272.3,0 0,-8.472 z"
         id="path538"
         style="clip-rule:evenodd"
         inkscape:connector-curvature="0" /></clipPath><clipPath
       clipPathUnits="userSpaceOnUse"
       id="clipPath544"><path
         d="m 40.392,704.59 272.3,0 0,8.4 -272.3,0 0,-8.4 z"
         id="path546"
         style="clip-rule:evenodd"
         inkscape:connector-curvature="0" /></clipPath><clipPath
       clipPathUnits="userSpaceOnUse"
       id="clipPath556"><path
         d="m 40.392,704.59 272.3,0 0,8.4 -272.3,0 0,-8.4 z"
         id="path558"
         style="clip-rule:evenodd"
         inkscape:connector-curvature="0" /></clipPath><clipPath
       clipPathUnits="userSpaceOnUse"
       id="clipPath568"><path
         d="m 40.392,704.59 272.3,0 0,8.4 -272.3,0 0,-8.4 z"
         id="path570"
         style="clip-rule:evenodd"
         inkscape:connector-curvature="0" /></clipPath><clipPath
       clipPathUnits="userSpaceOnUse"
       id="clipPath580"><path
         d="m 40.392,687.72 270.05,0 0,8.472 -270.05,0 0,-8.472 z"
         id="path582"
         style="clip-rule:evenodd"
         inkscape:connector-curvature="0" /></clipPath><clipPath
       clipPathUnits="userSpaceOnUse"
       id="clipPath588"><path
         d="m 40.392,687.79 270.05,0 0,8.4 -270.05,0 0,-8.4 z"
         id="path590"
         style="clip-rule:evenodd"
         inkscape:connector-curvature="0" /></clipPath><clipPath
       clipPathUnits="userSpaceOnUse"
       id="clipPath600"><path
         d="m 40.392,687.79 270.05,0 0,8.4 -270.05,0 0,-8.4 z"
         id="path602"
         style="clip-rule:evenodd"
         inkscape:connector-curvature="0" /></clipPath><clipPath
       clipPathUnits="userSpaceOnUse"
       id="clipPath612"><path
         d="m 40.392,687.79 270.05,0 0,8.4 -270.05,0 0,-8.4 z"
         id="path614"
         style="clip-rule:evenodd"
         inkscape:connector-curvature="0" /></clipPath><clipPath
       clipPathUnits="userSpaceOnUse"
       id="clipPath624"><path
         d="m 40.392,687.79 270.05,0 0,8.4 -270.05,0 0,-8.4 z"
         id="path626"
         style="clip-rule:evenodd"
         inkscape:connector-curvature="0" /></clipPath><clipPath
       clipPathUnits="userSpaceOnUse"
       id="clipPath636"><path
         d="m 40.392,687.79 270.05,0 0,8.4 -270.05,0 0,-8.4 z"
         id="path638"
         style="clip-rule:evenodd"
         inkscape:connector-curvature="0" /></clipPath><clipPath
       clipPathUnits="userSpaceOnUse"
       id="clipPath650"><path
         d="m 57.264,670.92 81,0 0,8.496 -81,0 0,-8.496 z"
         id="path652"
         style="clip-rule:evenodd"
         inkscape:connector-curvature="0" /></clipPath><clipPath
       clipPathUnits="userSpaceOnUse"
       id="clipPath658"><path
         d="m 57.264,670.99 81,0 0,8.424 -81,0 0,-8.424 z"
         id="path660"
         style="clip-rule:evenodd"
         inkscape:connector-curvature="0" /></clipPath><clipPath
       clipPathUnits="userSpaceOnUse"
       id="clipPath670"><path
         d="m 57.264,670.99 81,0 0,8.424 -81,0 0,-8.424 z"
         id="path672"
         style="clip-rule:evenodd"
         inkscape:connector-curvature="0" /></clipPath><clipPath
       clipPathUnits="userSpaceOnUse"
       id="clipPath682"><path
         d="m 57.264,670.99 81,0 0,8.424 -81,0 0,-8.424 z"
         id="path684"
         style="clip-rule:evenodd"
         inkscape:connector-curvature="0" /></clipPath><clipPath
       clipPathUnits="userSpaceOnUse"
       id="clipPath696"><path
         d="m 40.392,679.32 270.05,0 0,8.472 -270.05,0 0,-8.472 z"
         id="path698"
         style="clip-rule:evenodd"
         inkscape:connector-curvature="0" /></clipPath><clipPath
       clipPathUnits="userSpaceOnUse"
       id="clipPath704"><path
         d="m 40.392,679.39 270.05,0 0,8.4 -270.05,0 0,-8.4 z"
         id="path706"
         style="clip-rule:evenodd"
         inkscape:connector-curvature="0" /></clipPath><clipPath
       clipPathUnits="userSpaceOnUse"
       id="clipPath716"><path
         d="m 40.392,679.39 270.05,0 0,8.4 -270.05,0 0,-8.4 z"
         id="path718"
         style="clip-rule:evenodd"
         inkscape:connector-curvature="0" /></clipPath><clipPath
       clipPathUnits="userSpaceOnUse"
       id="clipPath728"><path
         d="m 40.392,679.39 270.05,0 0,8.4 -270.05,0 0,-8.4 z"
         id="path730"
         style="clip-rule:evenodd"
         inkscape:connector-curvature="0" /></clipPath><clipPath
       clipPathUnits="userSpaceOnUse"
       id="clipPath740"><path
         d="m 57.264,654.12 89.472,0 0,8.496 -89.472,0 0,-8.496 z"
         id="path742"
         style="clip-rule:evenodd"
         inkscape:connector-curvature="0" /></clipPath><clipPath
       clipPathUnits="userSpaceOnUse"
       id="clipPath748"><path
         d="m 57.264,654.22 89.472,0 0,8.4 -89.472,0 0,-8.4 z"
         id="path750"
         style="clip-rule:evenodd"
         inkscape:connector-curvature="0" /></clipPath><clipPath
       clipPathUnits="userSpaceOnUse"
       id="clipPath760"><path
         d="m 40.392,662.52 270.05,0 0,8.496 -270.05,0 0,-8.496 z"
         id="path762"
         style="clip-rule:evenodd"
         inkscape:connector-curvature="0" /></clipPath><clipPath
       clipPathUnits="userSpaceOnUse"
       id="clipPath768"><path
         d="m 40.392,662.59 270.05,0 0,8.424 -270.05,0 0,-8.424 z"
         id="path770"
         style="clip-rule:evenodd"
         inkscape:connector-curvature="0" /></clipPath><clipPath
       clipPathUnits="userSpaceOnUse"
       id="clipPath780"><path
         d="m 40.392,662.59 270.05,0 0,8.424 -270.05,0 0,-8.424 z"
         id="path782"
         style="clip-rule:evenodd"
         inkscape:connector-curvature="0" /></clipPath><clipPath
       clipPathUnits="userSpaceOnUse"
       id="clipPath792"><path
         d="m 40.392,662.59 270.05,0 0,8.424 -270.05,0 0,-8.424 z"
         id="path794"
         style="clip-rule:evenodd"
         inkscape:connector-curvature="0" /></clipPath><clipPath
       clipPathUnits="userSpaceOnUse"
       id="clipPath804"><path
         d="m 57.264,637.34 151.32,0 0,8.472 -151.32,0 0,-8.472 z"
         id="path806"
         style="clip-rule:evenodd"
         inkscape:connector-curvature="0" /></clipPath><clipPath
       clipPathUnits="userSpaceOnUse"
       id="clipPath812"><path
         d="m 57.264,637.42 151.32,0 0,8.4 -151.32,0 0,-8.4 z"
         id="path814"
         style="clip-rule:evenodd"
         inkscape:connector-curvature="0" /></clipPath><clipPath
       clipPathUnits="userSpaceOnUse"
       id="clipPath824"><path
         d="m 40.392,645.72 270.05,0 0,8.496 -270.05,0 0,-8.496 z"
         id="path826"
         style="clip-rule:evenodd"
         inkscape:connector-curvature="0" /></clipPath><clipPath
       clipPathUnits="userSpaceOnUse"
       id="clipPath832"><path
         d="m 40.392,645.82 270.05,0 0,8.4 -270.05,0 0,-8.4 z"
         id="path834"
         style="clip-rule:evenodd"
         inkscape:connector-curvature="0" /></clipPath><clipPath
       clipPathUnits="userSpaceOnUse"
       id="clipPath844"><path
         d="m 40.392,645.82 270.05,0 0,8.4 -270.05,0 0,-8.4 z"
         id="path846"
         style="clip-rule:evenodd"
         inkscape:connector-curvature="0" /></clipPath><clipPath
       clipPathUnits="userSpaceOnUse"
       id="clipPath856"><path
         d="m 40.392,645.82 270.05,0 0,8.4 -270.05,0 0,-8.4 z"
         id="path858"
         style="clip-rule:evenodd"
         inkscape:connector-curvature="0" /></clipPath><clipPath
       clipPathUnits="userSpaceOnUse"
       id="clipPath868"><path
         d="m 57.264,620.54 65.376,0 0,8.472 -65.376,0 0,-8.472 z"
         id="path870"
         style="clip-rule:evenodd"
         inkscape:connector-curvature="0" /></clipPath><clipPath
       clipPathUnits="userSpaceOnUse"
       id="clipPath876"><path
         d="m 57.264,620.62 65.376,0 0,8.4 -65.376,0 0,-8.4 z"
         id="path878"
         style="clip-rule:evenodd"
         inkscape:connector-curvature="0" /></clipPath><clipPath
       clipPathUnits="userSpaceOnUse"
       id="clipPath888"><path
         d="m 40.392,628.94 270.05,0 0,8.472 -270.05,0 0,-8.472 z"
         id="path890"
         style="clip-rule:evenodd"
         inkscape:connector-curvature="0" /></clipPath><clipPath
       clipPathUnits="userSpaceOnUse"
       id="clipPath896"><path
         d="m 40.392,629.02 270.05,0 0,8.4 -270.05,0 0,-8.4 z"
         id="path898"
         style="clip-rule:evenodd"
         inkscape:connector-curvature="0" /></clipPath><clipPath
       clipPathUnits="userSpaceOnUse"
       id="clipPath908"><path
         d="m 40.392,629.02 270.05,0 0,8.4 -270.05,0 0,-8.4 z"
         id="path910"
         style="clip-rule:evenodd"
         inkscape:connector-curvature="0" /></clipPath><clipPath
       clipPathUnits="userSpaceOnUse"
       id="clipPath920"><path
         d="m 40.392,629.02 270.05,0 0,8.4 -270.05,0 0,-8.4 z"
         id="path922"
         style="clip-rule:evenodd"
         inkscape:connector-curvature="0" /></clipPath><clipPath
       clipPathUnits="userSpaceOnUse"
       id="clipPath932"><path
         d="m 40.392,603.74 132.62,0 0,8.472 -132.62,0 0,-8.472 z"
         id="path934"
         style="clip-rule:evenodd"
         inkscape:connector-curvature="0" /></clipPath><clipPath
       clipPathUnits="userSpaceOnUse"
       id="clipPath940"><path
         d="m 40.392,603.82 132.62,0 0,8.4 -132.62,0 0,-8.4 z"
         id="path942"
         style="clip-rule:evenodd"
         inkscape:connector-curvature="0" /></clipPath><clipPath
       clipPathUnits="userSpaceOnUse"
       id="clipPath952"><path
         d="m 40.392,603.82 132.62,0 0,8.4 -132.62,0 0,-8.4 z"
         id="path954"
         style="clip-rule:evenodd"
         inkscape:connector-curvature="0" /></clipPath><clipPath
       clipPathUnits="userSpaceOnUse"
       id="clipPath964"><path
         d="m 40.392,603.82 132.62,0 0,8.4 -132.62,0 0,-8.4 z"
         id="path966"
         style="clip-rule:evenodd"
         inkscape:connector-curvature="0" /></clipPath><clipPath
       clipPathUnits="userSpaceOnUse"
       id="clipPath976"><path
         d="m 40.392,549.41 126.24,0 0,8.472 -126.24,0 0,-8.472 z"
         id="path978"
         style="clip-rule:evenodd"
         inkscape:connector-curvature="0" /></clipPath><clipPath
       clipPathUnits="userSpaceOnUse"
       id="clipPath984"><path
         d="m 40.392,549.48 126.24,0 0,8.4 -126.24,0 0,-8.4 z"
         id="path986"
         style="clip-rule:evenodd"
         inkscape:connector-curvature="0" /></clipPath><clipPath
       clipPathUnits="userSpaceOnUse"
       id="clipPath996"><path
         d="m 40.392,532.61 268.42,0 0,8.496 -268.42,0 0,-8.496 z"
         id="path998"
         style="clip-rule:evenodd"
         inkscape:connector-curvature="0" /></clipPath><clipPath
       clipPathUnits="userSpaceOnUse"
       id="clipPath1004"><path
         d="m 40.392,532.68 268.42,0 0,8.424 -268.42,0 0,-8.424 z"
         id="path1006"
         style="clip-rule:evenodd"
         inkscape:connector-curvature="0" /></clipPath><clipPath
       clipPathUnits="userSpaceOnUse"
       id="clipPath1016"><path
         d="m 57.264,515.81 187.27,0 0,8.496 -187.27,0 0,-8.496 z"
         id="path1018"
         style="clip-rule:evenodd"
         inkscape:connector-curvature="0" /></clipPath><clipPath
       clipPathUnits="userSpaceOnUse"
       id="clipPath1024"><path
         d="m 57.264,515.9 187.27,0 0,8.4 -187.27,0 0,-8.4 z"
         id="path1026"
         style="clip-rule:evenodd"
         inkscape:connector-curvature="0" /></clipPath><clipPath
       clipPathUnits="userSpaceOnUse"
       id="clipPath1036"><path
         d="m 40.392,524.21 270.65,0 0,8.496 -270.65,0 0,-8.496 z"
         id="path1038"
         style="clip-rule:evenodd"
         inkscape:connector-curvature="0" /></clipPath><clipPath
       clipPathUnits="userSpaceOnUse"
       id="clipPath1044"><path
         d="m 40.392,524.28 270.65,0 0,8.424 -270.65,0 0,-8.424 z"
         id="path1046"
         style="clip-rule:evenodd"
         inkscape:connector-curvature="0" /></clipPath><clipPath
       clipPathUnits="userSpaceOnUse"
       id="clipPath1056"><path
         d="m 40.392,792.5 67.992,0 0,13.056 -67.992,0 0,-13.056 z"
         id="path1058"
         style="clip-rule:evenodd"
         inkscape:connector-curvature="0" /></clipPath><clipPath
       clipPathUnits="userSpaceOnUse"
       id="clipPath1064"><path
         d="m 40.392,792.58 67.992,0 0,12.984 -67.992,0 0,-12.984 z"
         id="path1066"
         style="clip-rule:evenodd"
         inkscape:connector-curvature="0" /></clipPath><clipPath
       clipPathUnits="userSpaceOnUse"
       id="clipPath1076"><path
         d="m 40.392,782.59 49.224,0 0,7.728 -49.224,0 0,-7.728 z"
         id="path1078"
         style="clip-rule:evenodd"
         inkscape:connector-curvature="0" /></clipPath><clipPath
       clipPathUnits="userSpaceOnUse"
       id="clipPath1084"><path
         d="m 40.392,782.66 49.224,0 0,7.656 -49.224,0 0,-7.656 z"
         id="path1086"
         style="clip-rule:evenodd"
         inkscape:connector-curvature="0" /></clipPath><clipPath
       clipPathUnits="userSpaceOnUse"
       id="clipPath1096"><path
         d="m 92.304,782.59 24.096,0 0,7.728 -24.096,0 0,-7.728 z"
         id="path1098"
         style="clip-rule:evenodd"
         inkscape:connector-curvature="0" /></clipPath><clipPath
       clipPathUnits="userSpaceOnUse"
       id="clipPath1104"><path
         d="m 92.304,782.66 24.096,0 0,7.656 -24.096,0 0,-7.656 z"
         id="path1106"
         style="clip-rule:evenodd"
         inkscape:connector-curvature="0" /></clipPath><clipPath
       clipPathUnits="userSpaceOnUse"
       id="clipPath1116"><path
         d="m 40.392,6.312 33.456,0 0,7.056 -33.456,0 0,-7.056 z"
         id="path1118"
         style="clip-rule:evenodd"
         inkscape:connector-curvature="0" /></clipPath><clipPath
       clipPathUnits="userSpaceOnUse"
       id="clipPath1124"><path
         d="m 40.392,6.456 33.456,0 0,6.912 -33.456,0 0,-6.912 z"
         id="path1126"
         style="clip-rule:evenodd"
         inkscape:connector-curvature="0" /></clipPath><clipPath
       clipPathUnits="userSpaceOnUse"
       id="clipPath1132"><path
         d="m 0,6.312 372.38,0 0,7.056 -372.38,0 0,-7.056 z"
         id="path1134"
         style="clip-rule:evenodd"
         inkscape:connector-curvature="0" /></clipPath><clipPath
       clipPathUnits="userSpaceOnUse"
       id="clipPath1140"><path
         d="m 0,6.456 372.36,0 0,6.912 -372.36,0 0,-6.912 z"
         id="path1142"
         style="clip-rule:evenodd"
         inkscape:connector-curvature="0" /></clipPath><clipPath
       clipPathUnits="userSpaceOnUse"
       id="clipPath1152"><path
         d="m 298.56,6.312 33.48,0 0,7.056 -33.48,0 0,-7.056 z"
         id="path1154"
         style="clip-rule:evenodd"
         inkscape:connector-curvature="0" /></clipPath><clipPath
       clipPathUnits="userSpaceOnUse"
       id="clipPath1160"><path
         d="m 298.56,6.456 33.48,0 0,6.912 -33.48,0 0,-6.912 z"
         id="path1162"
         style="clip-rule:evenodd"
         inkscape:connector-curvature="0" /></clipPath></defs><g
     id="g10"
     transform="matrix(2.3350933,0,0,-2.3350933,-105.19128,1320.828)"><g
       id="g12"><path
         d="m 382.46,564.43 76.16,0 0,-78.79 -76.16,0 0,78.79"
         style="fill:none;stroke:#548dd4;stroke-width:0.88800001;stroke-linecap:round;stroke-linejoin:round;stroke-miterlimit:10;stroke-dasharray:none;stroke-opacity:1"
         id="path14"
         inkscape:connector-curvature="0" /><path
         d="m 396.74,549.05 57.39,0 0,-59.26 -57.39,0 0,59.26"
         style="fill:none;stroke:#ed1c24;stroke-width:0.88800001;stroke-linecap:round;stroke-linejoin:round;stroke-miterlimit:10;stroke-dasharray:none;stroke-opacity:1"
         id="path16"
         inkscape:connector-curvature="0" /><path
         d="m 493.18,565.18 81.07,0 0,-78.82 -81.07,0 0,78.82"
         style="fill:none;stroke:#548dd4;stroke-width:0.912;stroke-linecap:round;stroke-linejoin:round;stroke-miterlimit:10;stroke-dasharray:none;stroke-opacity:1"
         id="path18"
         inkscape:connector-curvature="0" /><path
         d="m 466.66,477.82 126.09,0 0,-56.28 -126.09,0 0,56.28"
         style="fill:none;stroke:#a5a5a5;stroke-width:0.912;stroke-linecap:round;stroke-linejoin:round;stroke-miterlimit:10;stroke-dasharray:none;stroke-opacity:1"
         id="path20"
         inkscape:connector-curvature="0" /><path
         d="m 498.43,551.5 64.18,0 0,-17.88 -64.18,0 0,17.88"
         style="fill:none;stroke:#ff6600;stroke-width:0.912;stroke-linecap:round;stroke-linejoin:round;stroke-miterlimit:10;stroke-dasharray:none;stroke-opacity:1"
         id="path22"
         inkscape:connector-curvature="0" /></g><g
       id="g24"><g
         id="g26"
         clip-path="url(#clipPath28)"><g
           id="g32"><g
             id="g34"
             clip-path="url(#clipPath36)"><text
               transform="matrix(1,0,0,-1,470.98,467.54)"
               style="font-variant:normal;font-weight:normal;font-size:6.91200018px;font-family:'Droid Sans';-inkscape-font-specification:'Droid Sans';writing-mode:lr-tb;fill:#000000;fill-opacity:1;fill-rule:nonzero;stroke:none"
               id="text40"><tspan
                 x="0 4.2647042 7.5548158 9.8703356 13.146624 16.747776 20.037888 22.74048"
                 y="0"
                 id="tspan42">Database</tspan></text>
</g></g></g></g><g
       id="g44"><g
         id="g46"
         clip-path="url(#clipPath48)"><g
           id="g52"><g
             id="g54"
             clip-path="url(#clipPath56)"><text
               transform="matrix(1,0,0,-1,498.24,555.29)"
               style="font-variant:normal;font-weight:normal;font-size:6.91200018px;font-family:'Droid Sans';-inkscape-font-specification:'Droid Sans';writing-mode:lr-tb;fill:#000000;fill-opacity:1;fill-rule:nonzero;stroke:none"
               id="text60"><tspan
                 x="0 1.741824 5.3291521 8.031744 10.347264 13.630464 17.231615 20.155392"
                 y="0"
                 id="tspan62">Instance</tspan></text>
</g></g></g></g><g
       id="g64"><g
         id="g66"
         clip-path="url(#clipPath68)"><g
           id="g72"><g
             id="g74"
             clip-path="url(#clipPath76)"><text
               transform="matrix(1,0,0,-1,385.27,556.03)"
               style="font-variant:normal;font-weight:normal;font-size:6.88800001px;font-family:'Droid Sans';-inkscape-font-specification:'Droid Sans';writing-mode:lr-tb;fill:#000000;fill-opacity:1;fill-rule:nonzero;stroke:none"
               id="text80"><tspan
                 x="0 3.988152 7.604352 11.186112 12.770352 14.354592 17.268215 20.567568 22.888824 24.473064 28.13748 31.753679 33.227711 35.920921 39.351143 41.755054 44.90976 48.360649"
                 y="0"
                 id="tspan82">Application server</tspan></text>
</g></g></g></g><g
       id="g84"><g
         id="g86"
         clip-path="url(#clipPath88)"><g
           id="g92"><g
             id="g94"
             clip-path="url(#clipPath96)"><text
               transform="matrix(1,0,0,-1,398.78,540.65)"
               style="font-variant:normal;font-weight:normal;font-size:6.91200018px;font-family:'Droid Sans';-inkscape-font-specification:'Droid Sans';writing-mode:lr-tb;fill:#000000;fill-opacity:1;fill-rule:nonzero;stroke:none"
               id="text100"><tspan
                 x="0 3.6840961 7.3267202 10.95552 14.542848 17.985023 20.9088 23.245056 24.807167 28.470528 32.071678 33.48864 37.08979 40.753151 44.416512"
                 y="0"
                 id="tspan102">Connection pool</tspan></text>
</g></g></g></g><g
       id="g104"><path
         d="m 416.18,537.17 29.64,0 0,-12.34 -29.64,0 0,12.34"
         style="fill:none;stroke:#ed1c24;stroke-width:0.88800001;stroke-linecap:round;stroke-linejoin:round;stroke-miterlimit:10;stroke-dasharray:none;stroke-opacity:1"
         id="path106"
         inkscape:connector-curvature="0" /><path
         d="m 416.18,520.85 29.67,0 0,-12.36 -29.67,0 0,12.36"
         style="fill:none;stroke:#ed1c24;stroke-width:0.88800001;stroke-linecap:round;stroke-linejoin:round;stroke-miterlimit:10;stroke-dasharray:none;stroke-opacity:1"
         id="path108"
         inkscape:connector-curvature="0" /><path
         d="m 416.04,505.46 29.62,0 0,-12.36 -29.62,0 0,12.36"
         style="fill:none;stroke:#ed1c24;stroke-width:0.88800001;stroke-linecap:round;stroke-linejoin:round;stroke-miterlimit:10;stroke-dasharray:none;stroke-opacity:1"
         id="path110"
         inkscape:connector-curvature="0" /></g><g
       id="g112"><g
         id="g114"
         clip-path="url(#clipPath116)"><g
           id="g120"><g
             id="g122"
             clip-path="url(#clipPath124)"><text
               transform="matrix(1,0,0,-1,502.73,540.29)"
               style="font-variant:normal;font-weight:normal;font-size:6.91200018px;font-family:'Droid Sans';-inkscape-font-specification:'Droid Sans';writing-mode:lr-tb;fill:#000000;fill-opacity:1;fill-rule:nonzero;stroke:none"
               id="text128"><tspan
                 x="0 3.1726079 6.6147838 9.0408964 12.19968 15.641856 18.074881 19.512575 23.141376 25.553663 29.251583 32.175362 35.617535 38.340862"
                 y="0"
                 id="tspan130">Server process</tspan></text>
</g></g></g></g><g
       id="g132"><path
         d="m 498.67,529.37 64.15,0 0,-17.93 -64.15,0 0,17.93"
         style="fill:none;stroke:#ff6600;stroke-width:0.912;stroke-linecap:round;stroke-linejoin:round;stroke-miterlimit:10;stroke-dasharray:none;stroke-opacity:1"
         id="path134"
         inkscape:connector-curvature="0" /><path
         d="m 498.67,507.22 64.15,0 0,-17.91 -64.15,0 0,17.91"
         style="fill:none;stroke:#ff6600;stroke-width:0.912;stroke-linecap:round;stroke-linejoin:round;stroke-miterlimit:10;stroke-dasharray:none;stroke-opacity:1"
         id="path136"
         inkscape:connector-curvature="0" /><path
         d="m 342.79,534.1 53.69,0"
         style="fill:none;stroke:#3165bb;stroke-width:0.88800001;stroke-linecap:round;stroke-linejoin:round;stroke-miterlimit:10;stroke-dasharray:none;stroke-opacity:1"
         id="path138"
         inkscape:connector-curvature="0" /><path
         d="m 390.43,537.12 6.05,-3.02 -6.05,-3.03"
         style="fill:none;stroke:#3165bb;stroke-width:0.88800001;stroke-linecap:round;stroke-linejoin:round;stroke-miterlimit:10;stroke-dasharray:none;stroke-opacity:1"
         id="path140"
         inkscape:connector-curvature="0" /></g><g
       id="g142"><g
         id="g144"
         clip-path="url(#clipPath146)"><g
           id="g150"><g
             id="g152"
             clip-path="url(#clipPath154)"><text
               transform="matrix(1,0,0,-1,333.1,537.26)"
               style="font-variant:normal;font-weight:normal;font-size:6.88800001px;font-family:'Droid Sans';-inkscape-font-specification:'Droid Sans';writing-mode:lr-tb;fill:#000000;fill-opacity:1;fill-rule:nonzero;stroke:none"
               id="text158"><tspan
                 x="0 3.671304 5.2555442 6.8397841 10.290672 13.906872 16.214352 17.729712 20.42292 23.887585 26.580791 29.301552 30.885792 34.550209"
                 y="0"
                 id="tspan160">Client session</tspan></text>
</g></g></g></g><g
       id="g162"><path
         d="m 416.18,531 -19.32,3.1"
         style="fill:none;stroke:#3165bb;stroke-width:0.88800001;stroke-linecap:round;stroke-linejoin:round;stroke-miterlimit:10;stroke-dasharray:none;stroke-opacity:1"
         id="path164"
         inkscape:connector-curvature="0" /><path
         d="m 416.18,514.68 -19.7,19.42"
         style="fill:none;stroke:#3165bb;stroke-width:0.88800001;stroke-linecap:round;stroke-linejoin:round;stroke-miterlimit:10;stroke-dasharray:none;stroke-opacity:1"
         id="path166"
         inkscape:connector-curvature="0" /><path
         d="m 445.82,530.98 52.73,11.01"
         style="fill:none;stroke:#ff6600;stroke-width:0.912;stroke-linecap:round;stroke-linejoin:round;stroke-miterlimit:10;stroke-dasharray:none;stroke-opacity:1"
         id="path168"
         inkscape:connector-curvature="0" /><path
         d="m 445.85,514.66 52.77,5.76"
         style="fill:none;stroke:#ff6600;stroke-width:0.912;stroke-linecap:round;stroke-linejoin:round;stroke-miterlimit:10;stroke-dasharray:none;stroke-opacity:1"
         id="path170"
         inkscape:connector-curvature="0" /><path
         d="m 445.68,499.27 52.94,-1.01"
         style="fill:none;stroke:#ff6600;stroke-width:0.912;stroke-linecap:round;stroke-linejoin:round;stroke-miterlimit:10;stroke-dasharray:none;stroke-opacity:1"
         id="path172"
         inkscape:connector-curvature="0" /><path
         d="m 471.94,460.18 56.3,0 0,-24.03 -56.3,0 0,24.03"
         style="fill:none;stroke:#a5a5a5;stroke-width:0.912;stroke-linecap:round;stroke-linejoin:round;stroke-miterlimit:10;stroke-dasharray:none;stroke-opacity:1"
         id="path174"
         inkscape:connector-curvature="0" /></g><g
       id="g176"><g
         id="g178"
         clip-path="url(#clipPath180)"><g
           id="g184"><g
             id="g186"
             clip-path="url(#clipPath188)"><text
               transform="matrix(1,0,0,-1,476.47,450.22)"
               style="font-variant:normal;font-weight:normal;font-size:6.91200018px;font-family:'Droid Sans';-inkscape-font-specification:'Droid Sans';writing-mode:lr-tb;fill:#000000;fill-opacity:1;fill-rule:nonzero;stroke:none"
               id="text192"><tspan
                 x="0 3.3661439 5.7784319 9.0892801 12.013056 15.455232 16.941313 19.049473 20.590849 22.15296"
                 y="0"
                 id="tspan194">Trace file</tspan></text>
</g></g></g></g><g
       id="g196"><g
         id="g198"
         clip-path="url(#clipPath200)"><g
           id="g204"><g
             id="g206"
             clip-path="url(#clipPath208)"><text
               transform="matrix(1,0,0,-1,476.47,441.82)"
               style="font-variant:normal;font-weight:normal;font-size:6.91200018px;font-family:'Droid Sans';-inkscape-font-specification:'Droid Sans';writing-mode:lr-tb;fill:#000000;fill-opacity:1;fill-rule:nonzero;stroke:none"
               id="text212"><tspan
                 x="0 2.094336 5.5987201 7.105536 10.706688 14.148864 16.561152 18.054144 21.655296 25.256449 26.81856 29.521152 32.963329 35.66592 38.333954 39.896065 43.559425 47.160576"
                 y="0"
                 id="tspan214">(1 per db session)</tspan></text>
</g></g></g></g><g
       id="g216"><path
         d="m 531.58,460.44 56.32,0 0,-24 -56.32,0 0,24"
         style="fill:none;stroke:#a5a5a5;stroke-width:0.912;stroke-linecap:round;stroke-linejoin:round;stroke-miterlimit:10;stroke-dasharray:none;stroke-opacity:1"
         id="path218"
         inkscape:connector-curvature="0" /></g><g
       id="g220"><g
         id="g222"
         clip-path="url(#clipPath224)"><g
           id="g228"><g
             id="g230"
             clip-path="url(#clipPath232)"><text
               transform="matrix(1,0,0,-1,536.11,450.5)"
               style="font-variant:normal;font-weight:normal;font-size:6.91200018px;font-family:'Droid Sans';-inkscape-font-specification:'Droid Sans';writing-mode:lr-tb;fill:#000000;fill-opacity:1;fill-rule:nonzero;stroke:none"
               id="text236"><tspan
                 x="0 3.3661439 5.7991681 9.1100159 12.033792 15.475968 17.010431 19.118591 20.708351 22.298113"
                 y="0"
                 id="tspan238">Trace file</tspan></text>
</g></g></g></g><g
       id="g240"><g
         id="g242"
         clip-path="url(#clipPath244)"><g
           id="g248"><g
             id="g250"
             clip-path="url(#clipPath252)"><text
               transform="matrix(1,0,0,-1,536.11,442.1)"
               style="font-variant:normal;font-weight:normal;font-size:6.91200018px;font-family:'Droid Sans';-inkscape-font-specification:'Droid Sans';writing-mode:lr-tb;fill:#000000;fill-opacity:1;fill-rule:nonzero;stroke:none"
               id="text256"><tspan
                 x="0 2.094336 5.6332798 7.1470079 10.775808 14.217984 16.644096 18.157824 21.786625 25.415424 26.977535 29.693953 33.136127 35.852543 38.555138 40.144897 43.835903 47.464703"
                 y="0"
                 id="tspan258">(1 per db session)</tspan></text>
</g></g></g></g><g
       id="g260"><path
         d="M 511.32,511.56 500.09,460.18"
         style="fill:none;stroke:#a5a5a5;stroke-width:0.912;stroke-linecap:round;stroke-linejoin:round;stroke-miterlimit:10;stroke-dasharray:none;stroke-opacity:1"
         id="path262"
         inkscape:connector-curvature="0" /><path
         d="m 504.34,465.46 -4.25,-5.28 -1.66,6.52"
         style="fill:none;stroke:#a5a5a5;stroke-width:0.912;stroke-linecap:round;stroke-linejoin:round;stroke-miterlimit:10;stroke-dasharray:none;stroke-opacity:1"
         id="path264"
         inkscape:connector-curvature="0" /><path
         d="m 562.75,540.84 18.36,0 0,-79.54"
         style="fill:none;stroke:#a5a5a5;stroke-width:0.912;stroke-linecap:round;stroke-linejoin:round;stroke-miterlimit:10;stroke-dasharray:none;stroke-opacity:1"
         id="path266"
         inkscape:connector-curvature="0" /><path
         d="m 584.16,467.35 -3.05,-6.05 -3.02,6.05"
         style="fill:none;stroke:#a5a5a5;stroke-width:0.912;stroke-linecap:round;stroke-linejoin:round;stroke-miterlimit:10;stroke-dasharray:none;stroke-opacity:1"
         id="path268"
         inkscape:connector-curvature="0" /></g><g
       id="g972"><g
         id="g974"
         clip-path="url(#clipPath976)"><g
           id="g980"><g
             id="g982"
             clip-path="url(#clipPath984)"><text
               transform="matrix(1,0,0,-1,45.048,551.35)"
               style="font-variant:normal;font-weight:bold;font-size:6.88800001px;font-family:'Droid Sans';-inkscape-font-specification:'Droid Sans';writing-mode:lr-tb;fill:#000000;fill-opacity:1;fill-rule:nonzero;stroke:none"
               id="text988"><tspan
                 x="0 3.423336 5.8892398 9.2505836 12.150432 13.84488 17.543736 20.808647 22.158695 25.520041 29.191343 32.862648 34.557095 36.251545 39.165169 42.526512 44.916649 46.611095 50.316841 53.974369 55.462177 58.210487 61.654488 64.120392 67.399078 70.829308 73.295212 74.714134 77.462448 80.906448 83.654762 86.416847 88.111298 91.78949 95.460793"
                 y="0"
                 id="tspan990">Tracing application server sessions</tspan></text>
</g></g></g></g><g
       id="g992"><g
         id="g994"
         clip-path="url(#clipPath996)"><g
           id="g1000"><g
             id="g1002"
             clip-path="url(#clipPath1004)"><text
               transform="matrix(1,0,0,-1,45.048,534.58)"
               style="font-variant:normal;font-weight:normal;font-size:6.91200018px;font-family:'Droid Sans';-inkscape-font-specification:'Droid Sans';writing-mode:lr-tb;fill:#000000;fill-opacity:1;fill-rule:nonzero;stroke:none"
               id="text1008"><tspan
                 x="0 3.9605761 5.5226879 8.2252798 9.7666559 13.367808 16.581888 18.143999 21.586176 23.065344 26.355455 29.956608 33.557758 35.119873 37.822464 41.236992 43.649281 46.773502 50.215679 52.627968 54.031105 56.733696 60.148224 62.850815 65.525757 67.087875 70.751228 74.352386 75.838463 78.762238 82.031616 85.632767 87.118851 90.720001 93.422592 96.83712 98.399231 101.10182 104.51635 107.64058 111.08275 113.49504 116.77824 118.34035 119.75731 124.02202 127.78214 129.25439 131.95699 135.37152 138.07411 140.74905 142.31117 145.97453 149.57568 152.27827 153.68141 156.97153 160.09575 163.40659 164.96179 166.52391 169.81401 173.41516 174.97728 178.41945 179.89862 181.46074 185.06189 186.62399 188.1792 190.49472 193.16966 194.65575 197.57951 201.22214 204.85094 208.43137 211.87354 214.76967 217.08519 218.63347 222.29683 225.89798 227.31494 230.91609 234.57945 238.24281"
                 y="0"
                 id="tspan1010">A single app server session can use several DB sessions available in its connection pool</tspan></text>
</g></g></g></g><g
       id="g1012"><g
         id="g1014"
         clip-path="url(#clipPath1016)"><g
           id="g1020"><g
             id="g1022"
             clip-path="url(#clipPath1024)"><text
               transform="matrix(1,0,0,-1,61.92,517.78)"
               style="font-variant:normal;font-weight:normal;font-size:6.91200018px;font-family:'Droid Sans';-inkscape-font-specification:'Droid Sans';writing-mode:lr-tb;fill:#000000;fill-opacity:1;fill-rule:nonzero;stroke:none"
               id="text1028"><tspan
                 x="0 1.5897599 5.184 8.6261759 12.254976 14.570496 16.160255 18.268415 19.858175 23.300352 25.712641 27.212543 32.00256 34.096897 35.624447 39.066624 42.529537 44.043262 47.485439 50.796288 53.519615 55.109375 58.551552 60.96384 62.470657 64.786179 68.463364 69.901054 73.211906 76.467453 79.695358 82.107651 85.549828 88.805374 92.116226 94.431747 97.873917 99.401474 102.57408 107.22585 110.14964 111.66336 113.97888 116.39117 119.70202 122.62579 126.06797 128.79129 130.30502 133.96838 137.56953 139.08327 143.34796 147.10809 148.62874 151.33133 152.92108 156.52225"
                 y="0"
                 id="tspan1030">identifier …) =&gt; easier to aggregate SQL traces on DB side</tspan></text>
</g></g></g></g><g
       id="g1032"><g
         id="g1034"
         clip-path="url(#clipPath1036)"><g
           id="g1040"><g
             id="g1042"
             clip-path="url(#clipPath1044)"><text
               transform="matrix(1,0,0,-1,45.048,526.18)"
               style="font-variant:normal;font-weight:normal;font-size:6.91200018px;font-family:'Droid Sans';-inkscape-font-specification:'Droid Sans';writing-mode:lr-tb;fill:#000000;fill-opacity:1;fill-rule:nonzero;stroke:none"
               id="text1048"><tspan
                 x="0 3.3661439 6.9603839 10.40256 11.881728 15.17184 18.772991 22.374144 23.936256 26.638847 30.053375 32.465664 35.58989 39.032063 41.444351 42.847488 45.550079 49.137409 52.80077 56.40192 57.964031 61.565186 63.127296 66.030334 69.32045 71.732735 75.154175 77.262337 80.842751 82.404861 83.966972 87.098114 88.528893 90.091011 93.692162 97.134338 100.72166 103.03719 104.58547 106.69363 109.82477 111.30393 114.74611 118.0224 120.94617 124.52659 126.01267 128.93645 132.57907 136.20787 139.78828 143.23047 146.12659 148.44211 149.9904 153.65376 157.25491 158.67188 160.7662 164.20839 167.20128 169.0537 170.5536 173.47737 175.01875 176.58087 180.02304 183.61037 185.92589 189.34732 190.90944 194.51059 196.21785 197.63481 203.17133 206.83469 210.43584 214.03699 215.59911 219.04128 220.52045 224.1216 227.41171 232.94823 236.3904 238.08385 239.50079 242.20338 245.61792 248.32051 250.99545 252.55757 256.22092"
                 y="0"
                 id="tspan1050">The app server should carefully identify each connection (ex: client_id, module name, session</tspan></text>
</g></g></g></g><g
       id="g1112"><g
         id="g1114"
         clip-path="url(#clipPath1116)"><g
           id="g1120"><g
             id="g1122"
             clip-path="url(#clipPath1124)" /></g></g></g><g
       id="g1148"><g
         id="g1150"
         clip-path="url(#clipPath1152)"><g
           id="g1156"><g
             id="g1158"
             clip-path="url(#clipPath1160)" /></g></g></g></g></svg>