<svg height="520.44" viewBox="0 0 1280 520.44" width="1280" xml:space="preserve" xmlns="http://www.w3.org/2000/svg" xmlns:xlink="http://www.w3.org/1999/xlink"><clipPath id="a"><path d="m328.34 769.92h51.84v8.52h-51.84z" style="clip-rule:evenodd"/></clipPath><clipPath id="b"><path d="m328.34 769.99h51.84v8.45h-51.84z" style="clip-rule:evenodd"/></clipPath><clipPath id="c"><path d="m328.34 761.5h75.5v8.52h-75.5z" style="clip-rule:evenodd"/></clipPath><clipPath id="d"><path d="m328.34 761.57h75.5v8.45h-75.5z" style="clip-rule:evenodd"/></clipPath><clipPath id="e"><path d="m338.14 738.29h50.11v8.5h-50.11z" style="clip-rule:evenodd"/></clipPath><clipPath id="f"><path d="m338.14 738.36h50.11v8.42h-50.11z" style="clip-rule:evenodd"/></clipPath><clipPath id="g"><path d="m402.19 763.15h51.67v8.5h-51.67z" style="clip-rule:evenodd"/></clipPath><clipPath id="h"><path d="m402.19 763.22h51.67v8.42h-51.67z" style="clip-rule:evenodd"/></clipPath><clipPath id="i"><path d="m500.14 684.05h55.51v8.5h-55.51z" style="clip-rule:evenodd"/></clipPath><clipPath id="j"><path d="m500.14 684.12h55.51v8.42h-55.51z" style="clip-rule:evenodd"/></clipPath><clipPath id="k"><path d="m500.5 720.96h57.34v8.52h-57.34z" style="clip-rule:evenodd"/></clipPath><clipPath id="l"><path d="m500.5 721.03h57.34v8.45h-57.34z" style="clip-rule:evenodd"/></clipPath><clipPath id="m"><path d="m367.27 590.11h45.43v8.52h-45.43z" style="clip-rule:evenodd"/></clipPath><clipPath id="n"><path d="m367.27 590.18h45.43v8.45h-45.43z" style="clip-rule:evenodd"/></clipPath><clipPath id="o"><path d="m358.87 621.5h53.93v8.52h-53.93z" style="clip-rule:evenodd"/></clipPath><clipPath id="p"><path d="m358.87 621.6h53.93v8.42h-53.93z" style="clip-rule:evenodd"/></clipPath><clipPath id="q"><path d="m358.87 613.08h104.5v8.52h-104.5z" style="clip-rule:evenodd"/></clipPath><clipPath id="r"><path d="m358.87 613.15h104.5v8.45h-104.5z" style="clip-rule:evenodd"/></clipPath><clipPath id="s"><path d="m336.96 678.94h66v8.52h-66z" style="clip-rule:evenodd"/></clipPath><clipPath id="t"><path d="m336.96 679.01h66v8.45h-66z" style="clip-rule:evenodd"/></clipPath><clipPath id="u"><path d="m337.01 705.14h66v8.5h-66z" style="clip-rule:evenodd"/></clipPath><clipPath id="v"><path d="m337.01 705.22h66v8.42h-66z" style="clip-rule:evenodd"/></clipPath><clipPath id="w"><path d="m411.6 746.57h39.19v8.52h-39.19z" style="clip-rule:evenodd"/></clipPath><clipPath id="x"><path d="m411.6 746.64h39.17v8.45h-39.17z" style="clip-rule:evenodd"/></clipPath><clipPath id="y"><path d="m413.5 700.61h39.62v8.52h-39.62z" style="clip-rule:evenodd"/></clipPath><clipPath id="z"><path d="m413.5 700.7h39.62v8.42h-39.62z" style="clip-rule:evenodd"/></clipPath><clipPath id="A"><path d="m502.39 638.09h76.1v8.52h-76.1z" style="clip-rule:evenodd"/></clipPath><clipPath id="B"><path d="m502.39 638.16h76.1v8.45h-76.1z" style="clip-rule:evenodd"/></clipPath><clipPath id="C"><path d="m345.31 635.83h57.24v8.52h-57.24z" style="clip-rule:evenodd"/></clipPath><clipPath id="D"><path d="m345.31 635.9h57.24v8.45h-57.24z" style="clip-rule:evenodd"/></clipPath><clipPath id="E"><path d="m40.54 757.49h124.92v8.52h-124.92z" style="clip-rule:evenodd"/></clipPath><clipPath id="F"><path d="m40.54 757.56h124.92v8.45h-124.92z" style="clip-rule:evenodd"/></clipPath><clipPath id="G"><path d="m57.48 732.22h254.14v8.5h-254.14z" style="clip-rule:evenodd"/></clipPath><clipPath id="H"><path d="m57.48 732.29h254.14v8.42h-254.14z" style="clip-rule:evenodd"/></clipPath><clipPath id="I"><path d="m57.48 732.29h254.14v8.42h-254.14z" style="clip-rule:evenodd"/></clipPath><clipPath id="J"><path d="m57.48 723.77h198.7v8.52h-198.7z" style="clip-rule:evenodd"/></clipPath><clipPath id="K"><path d="m57.48 723.84h198.7v8.45h-198.7z" style="clip-rule:evenodd"/></clipPath><clipPath id="L"><path d="m57.48 723.84h198.7v8.45h-198.7z" style="clip-rule:evenodd"/></clipPath><clipPath id="M"><path d="m40.54 740.64h271.08v8.5h-271.08z" style="clip-rule:evenodd"/></clipPath><clipPath id="N"><path d="m40.54 740.71h271.08v8.42h-271.08z" style="clip-rule:evenodd"/></clipPath><clipPath id="O"><path d="m40.54 740.71h271.08v8.42h-271.08z" style="clip-rule:evenodd"/></clipPath><clipPath id="P"><path d="m40.54 740.71h271.08v8.42h-271.08z" style="clip-rule:evenodd"/></clipPath><clipPath id="Q"><path d="m57.48 706.92h55.22v8.5h-55.22z" style="clip-rule:evenodd"/></clipPath><clipPath id="R"><path d="m57.48 706.99h55.22v8.42h-55.22z" style="clip-rule:evenodd"/></clipPath><clipPath id="S"><path d="m40.54 715.34h270.41v8.52h-270.41z" style="clip-rule:evenodd"/></clipPath><clipPath id="T"><path d="m40.54 715.42h270.41v8.45h-270.41z" style="clip-rule:evenodd"/></clipPath><clipPath id="U"><path d="m40.54 715.42h270.41v8.45h-270.41z" style="clip-rule:evenodd"/></clipPath><clipPath id="V"><path d="m40.54 715.42h270.41v8.45h-270.41z" style="clip-rule:evenodd"/></clipPath><clipPath id="W"><path d="m40.54 698.5h259.94v8.5h-259.94z" style="clip-rule:evenodd"/></clipPath><clipPath id="X"><path d="m40.54 698.57h259.94v8.42h-259.94z" style="clip-rule:evenodd"/></clipPath><clipPath id="Y"><path d="m40.54 698.57h259.94v8.42h-259.94z" style="clip-rule:evenodd"/></clipPath><clipPath id="Z"><path d="m40.54 698.57h259.94v8.42h-259.94z" style="clip-rule:evenodd"/></clipPath><clipPath id="aa"><path d="m40.54 690.05h210.22v8.52h-210.22z" style="clip-rule:evenodd"/></clipPath><clipPath id="ab"><path d="m40.54 690.14h210.22v8.42h-210.22z" style="clip-rule:evenodd"/></clipPath><clipPath id="ac"><path d="m40.54 690.14h210.22v8.42h-210.22z" style="clip-rule:evenodd"/></clipPath><clipPath id="ad"><path d="m40.54 690.14h210.22v8.42h-210.22z" style="clip-rule:evenodd"/></clipPath><clipPath id="ae"><path d="m40.54 681.62h164.33v8.52h-164.33z" style="clip-rule:evenodd"/></clipPath><clipPath id="af"><path d="m40.54 681.7h164.33v8.45h-164.33z" style="clip-rule:evenodd"/></clipPath><clipPath id="ag"><path d="m40.54 681.7h164.33v8.45h-164.33z" style="clip-rule:evenodd"/></clipPath><clipPath id="ah"><path d="m40.54 681.7h164.33v8.45h-164.33z" style="clip-rule:evenodd"/></clipPath><clipPath id="ai"><path d="m40.54 664.78h207.41v8.5h-207.41z" style="clip-rule:evenodd"/></clipPath><clipPath id="aj"><path d="m40.54 664.85h207.41v8.42h-207.41z" style="clip-rule:evenodd"/></clipPath><clipPath id="ak"><path d="m40.54 664.85h207.41v8.42h-207.41z" style="clip-rule:evenodd"/></clipPath><clipPath id="al"><path d="m40.54 664.85h207.41v8.42h-207.41z" style="clip-rule:evenodd"/></clipPath><clipPath id="am"><path d="m40.54 656.33h207.26v8.52h-207.26z" style="clip-rule:evenodd"/></clipPath><clipPath id="an"><path d="m40.54 656.42h207.26v8.42h-207.26z" style="clip-rule:evenodd"/></clipPath><clipPath id="ao"><path d="m40.54 656.42h207.26v8.42h-207.26z" style="clip-rule:evenodd"/></clipPath><clipPath id="ap"><path d="m40.54 656.42h207.26v8.42h-207.26z" style="clip-rule:evenodd"/></clipPath><clipPath id="aq"><path d="m40.54 647.9h231.14v8.52h-231.14z" style="clip-rule:evenodd"/></clipPath><clipPath id="ar"><path d="m40.54 647.98h231.14v8.45h-231.14z" style="clip-rule:evenodd"/></clipPath><clipPath id="as"><path d="m40.54 647.98h231.14v8.45h-231.14z" style="clip-rule:evenodd"/></clipPath><clipPath id="at"><path d="m40.54 647.98h231.14v8.45h-231.14z" style="clip-rule:evenodd"/></clipPath><clipPath id="au"><path d="m40.54 639.48h246.22v8.52h-246.22z" style="clip-rule:evenodd"/></clipPath><clipPath id="av"><path d="m40.54 639.55h246.22v8.45h-246.22z" style="clip-rule:evenodd"/></clipPath><clipPath id="aw"><path d="m57.48 614.18h254.14v8.52h-254.14z" style="clip-rule:evenodd"/></clipPath><clipPath id="ax"><path d="m57.48 614.26h254.14v8.45h-254.14z" style="clip-rule:evenodd"/></clipPath><clipPath id="ay"><path d="m57.48 597.31h256.85v16.97h-256.85z" style="clip-rule:evenodd"/></clipPath><clipPath id="az"><path d="m57.48 605.83h256.85v8.45h-256.85z" style="clip-rule:evenodd"/></clipPath><clipPath id="aA"><path d="m57.48 597.41h256.85v8.42h-256.85z" style="clip-rule:evenodd"/></clipPath><clipPath id="aB"><path d="m40.54 622.61h271.08v8.52h-271.08z" style="clip-rule:evenodd"/></clipPath><clipPath id="aC"><path d="m40.54 622.7h271.08v8.42h-271.08z" style="clip-rule:evenodd"/></clipPath><clipPath id="aD"><path d="m40.54 622.7h271.08v8.42h-271.08z" style="clip-rule:evenodd"/></clipPath><g transform="matrix(2.48 0 0 -2.48 -112.77 1935.31)"><g style="fill:none;stroke-width:.91;stroke-linecap:round;stroke-linejoin:round;stroke-miterlimit:10"><path d="m328.92 780.29h228.62v-129.12h-228.62z" style="stroke:#548dd4"/><path d="m358.3 633.41h153.69v-62.16h-153.69z" style="stroke:#a5a5a5"/><path d="m403.03 773.57h88.15v-117.07h-88.15z" style="stroke:#008000"/></g><g style="clip-path:url(#a)"><g style="clip-path:url(#b)"><text style="font-weight:bold;font-size:6.94;font-family:Droid Sans;fill:#f00" transform="matrix(1 0 0 -1 333.02 771.89)"><tspan x="0 1.85 5.58 8.34 10.75 14.14 17.83 20.75" y="0">Instance</tspan></text></g></g><g style="clip-path:url(#c)"><g style="clip-path:url(#d)"><text style="font-weight:bold;font-size:6.94;font-family:Droid Sans;fill:#f00" transform="matrix(1 0 0 -1 333.02 763.46)"><tspan x="0 2.16 6.09 9.79 13.48 15.89 17.6 23.24 26.72 28.13 29.85 35.48 38.87 42.18 45.63" y="0">(Runtime image)</tspan></text></g></g><path d="m337.7 752.04h48.6v-17.95h-48.6z" style="fill:none;stroke:#f60;stroke-width:.89;stroke-linecap:round;stroke-linejoin:round;stroke-miterlimit:10"/><g style="clip-path:url(#e)"><g style="clip-path:url(#f)"><text style="font-size:6.91;font-family:Droid Sans" transform="matrix(1 0 0 -1 342.82 740.23)"><tspan x="0 2.92 4.51 7.22 9.53 12.99 16.62 20.07" y="0">Listener</tspan></text></g></g><g style="clip-path:url(#g)"><g style="clip-path:url(#h)"><text style="font-size:6.91;font-family:Droid Sans" transform="matrix(1 0 0 -1 406.85 765.1)"><tspan x="0 5.94 9.41 15 18.69 21.1" y="0">Memory</tspan></text></g></g><path d="m500.88 697.63h48.58v-17.95h-48.58z" style="fill:none;stroke:#f60;stroke-width:.91;stroke-linecap:round;stroke-linejoin:round;stroke-miterlimit:10"/><g style="clip-path:url(#i)"><g style="clip-path:url(#j)"><text style="font-size:6.91;font-family:Droid Sans" transform="matrix(1 0 0 -1 504.79 685.99)"><tspan x="0 4.29 8.05 9.57 15.76 18.17 19.76 22.11 25.58" y="0">DB Writer</tspan></text></g></g><path d="m501.24 734.54h48.58v-17.97h-48.58z" style="fill:none;stroke:#f60;stroke-width:.91;stroke-linecap:round;stroke-linejoin:round;stroke-miterlimit:10"/><g style="clip-path:url(#k)"><g style="clip-path:url(#l)"><text style="font-size:6.94;font-family:Droid Sans" transform="matrix(1 0 0 -1 505.18 722.9)"><tspan x="0 2.91 6.62 9.86 11.37 17.54 19.96 21.56 23.88 27.33" y="0">Log Writer</tspan></text></g></g><g style="fill:none;stroke-linecap:round;stroke-linejoin:round;stroke-miterlimit:10"><path d="m412.51 759.34h67.83v-34.3h-67.83z" style="stroke:#008000;stroke-width:.89"/><path d="m412.9 713.74h67.8v-19.97h-67.8z" style="stroke:#008000;stroke-width:.89"/><path d="m365.14 606.58h127.24v-22.59h-127.24z" style="stroke:#800000;stroke-width:1.27"/></g><g style="clip-path:url(#m)"><g style="clip-path:url(#n)"><text style="font-size:6.94;font-family:Droid Sans" transform="matrix(1 0 0 -1 371.95 592.08)"><tspan x="0 3.77 5.37 9.04 11.97 15.13" y="0">Blocks</tspan></text></g></g><g style="clip-path:url(#o)"><g style="clip-path:url(#p)"><text style="font-size:6.94;font-family:Droid Sans" transform="matrix(1 0 0 -1 363.53 623.47)"><tspan x="0 4.29 7.61 9.93 13.25 16.9 20.22 22.93" y="0">Database</tspan></text></g></g><g style="clip-path:url(#q)"><g style="clip-path:url(#r)"><text style="font-size:6.94;font-family:Droid Sans" transform="matrix(1 0 0 -1 363.53 615.05)"><tspan x="0 2.1 5.8 9.44 11.01 14.17 15.68 19.32 22.78 25.2 27.91 29.51 32.22 34.56 38.04 41.68 44.61 48.09 49.82 51.18 55.62 60.21 61.81 63.4 67.08 70.32 71.91 74.85" y="0">(only persistence, NO logic)</tspan></text></g></g><path d="m337.7 692.52h48.6v-19.85h-48.6z" style="fill:none;stroke:#f60;stroke-width:.89;stroke-linecap:round;stroke-linejoin:round;stroke-miterlimit:10"/><g style="clip-path:url(#s)"><g style="clip-path:url(#t)"><text style="font-size:6.94;font-family:Droid Sans" transform="matrix(1 0 0 -1 341.64 680.9)"><tspan x="0 3.18 6.64 9.02 12.19 15.64 18.06 19.46 23.06 25.48 29.13 32.07 35.52 38.23" y="0">Server process</tspan></text></g></g><path d="m337.75 718.75h48.58v-17.97h-48.58z" style="fill:none;stroke:#f60;stroke-width:.89;stroke-linecap:round;stroke-linejoin:round;stroke-miterlimit:10"/><g style="clip-path:url(#u)"><g style="clip-path:url(#v)"><text style="font-size:6.91;font-family:Droid Sans" transform="matrix(1 0 0 -1 341.69 707.09)"><tspan x="0 3.17 6.61 9.03 12.19 15.63 18.04 19.46 23.06 25.47 29.15 32.07 35.51 38.24" y="0">Server process</tspan></text></g></g><g style="clip-path:url(#w)"><g style="clip-path:url(#x)"><text style="font-size:6.94;font-family:Droid Sans" transform="matrix(1 0 0 -1 416.28 748.54)"><tspan x="0 3.17 7.53" y="0">SGA</tspan></text></g></g><path d="m412.9 693.36h67.8v-19.97h-67.8z" style="fill:none;stroke:#008000;stroke-width:.89;stroke-linecap:round;stroke-linejoin:round;stroke-miterlimit:10"/><g style="clip-path:url(#y)"><g style="clip-path:url(#z)"><text style="font-size:6.94;font-family:Droid Sans" transform="matrix(1 0 0 -1 418.15 702.58)"><tspan x="0 3.61 7.99" y="0">PGA</tspan></text></g></g><g style="fill:none;stroke-linecap:round;stroke-linejoin:round;stroke-miterlimit:10;stroke:#f60"><g style="stroke-width:.89"><path d="m380.42 718.97 32.04 15.84"/><path d="m386.45 745.73 25.63-.39"/><path d="m386.3 682.58 26.21 42.46"/><path d="m386.45 682.82 26.76-4.53"/><path d="m386.45 708.05 26.76-6.77"/></g><path d="m510.79 679.8-36.05-73.22" style="stroke-width:.91"/><path d="m480.14 610.7-5.4-4.1-.04 6.77" style="stroke-width:.89"/><path d="m543.17 716.71-58.37-110.01" style="stroke-width:.91"/><g style="stroke-width:.89"><path d="m490.32 610.66-5.54-3.94.16 6.77"/><path d="m365.38 598.08h-17.72v73.42"/><path d="m344.64 665.45 3.02 6.05 3.05-6.05"/></g></g><g style="clip-path:url(#A)"><g style="clip-path:url(#B)"><text style="font-size:6.94;font-family:Droid Sans" transform="matrix(1 0 0 -1 507.07 640.06)"><tspan x="0 6.17 8.57 10.13 12.45 15.9 17.4 21 24.32 26.64 29.96 31.43 34.76 38.35 41.95 43.52 45.07 48.73 51.99" y="0">Write data and logs</tspan></text></g></g><g style="clip-path:url(#C)"><g style="clip-path:url(#D)"><text style="font-size:6.94;font-family:Droid Sans" transform="matrix(1 0 0 -1 349.97 637.78)"><tspan x="0 3.18 6.64 8.96 11.92 15.56 17.06 20.7 23.99 26.32" y="0">Fetch data</tspan></text></g></g><g style="fill:none;stroke-linecap:round;stroke-linejoin:round;stroke-miterlimit:10"><path d="m480.34 746.52 20.9-11.95" style="stroke:#f60;stroke-width:.91"/><path d="m480.34 731.04 24.81-33.41" style="stroke:#f60;stroke-width:.91"/><g style="stroke:#800000;stroke-width:1.27"><path d="m501.05 600.67h4.01v-22.58h-132.53v.65"/><path d="m495.1 603.7h3.93v-22.59h-129.91v.65"/></g></g><g style="clip-path:url(#E)"><g style="clip-path:url(#F)"><text style="font-weight:bold;font-size:6.94;font-family:Droid Sans" transform="matrix(1 0 0 -1 45.22 759.46)"><tspan x="0 6.03 9.41 11.13 14.8 16.37 19.28 22.95 28.59 32.27 35.94 39.6 43.06 46.73 49.13 51.9 53.4 57.07 59.26 60.83 64.2 67.87 69.44 73.1 75.56 78.95 81.87 83.59 87.05 88.54 92.91" y="0">Main components of an oracle DB</tspan></text></g></g><g style="clip-path:url(#G)"><g style="clip-path:url(#H)"><text style="font-size:6.94;font-family:Droid Sans" transform="matrix(1 0 0 -1 62.16 734.16)"><tspan x="0 3.45 7.1 9.81 13.41 15.83 17.4 21.04 24.26 25.83 28.17 31.81 35.26 36.76 41.05 44.82 46.33 47.92 51.6 54.84 56.43 59.37 61.08 62.59 65.97 69.61 73.06 75.46 78.91 80.42 82.02 84.73 86.3 89.62" y="0">ensuring the DB logic. There is a </tspan></text></g><g style="clip-path:url(#I)"><text style="font-size:6.94;font-family:Droid Sans" transform="matrix(1 0 0 -1 153.34 734.16)"><tspan x="0 2.93 4.53 7.98 11.28 13.7 15.19 18.83 20.4 23.11 25.43 27.03 30.65 33.58 35.91 37.5 41.18 44.82 46.31 49.95 53.41 55.73 60.69 64.14 67.6 71.24 72.66 74.99 78.63 82.08 83.58 85.17 88.79 91.5 93.82 97.15 100.77 103.7 107.15 108.66 112.3 114.69 118.38 121.54 123.13 126.75 128.34 131.96 135.2 136.71 141" y="0">clear distinction between the instance providing DB</tspan></text></g><path d="m153.34 732.96h144.79v.46h-144.79z" style="fill-rule:evenodd"/></g><g style="clip-path:url(#J)"><g style="clip-path:url(#K)"><text style="font-size:6.94;font-family:Droid Sans" transform="matrix(1 0 0 -1 62.16 725.74)"><tspan x="0 3.18 6.64 9.94 12.26 15.9 18.29 21.74 24.46 25.97 29.29 32.9 36.55 38.11 40.44 44.08 47.53 49.03 52.67 55.97 58.29 61.61 65.23 68.56 71.27 74.72 76.23 79.92 83.56 85.13 88.29 89.73 93.19 96.83 99.54 103.15 105.57 107.13 110.77 113.99 115.56 119.2 122.66 125.08 127.79 129.36 132.07 134.39 137.85 141.49 144.42 147.88 149.3 152.99 155.1 156.61 160.25 163.54 165.87" y="0">Features and the database only ensuring persistence of data</tspan></text></g><g style="clip-path:url(#L)"><text style="font-size:6.94;font-family:Droid Sans" transform="matrix(1 0 0 -1 231.38 725.74)"><tspan x="0" y="0">.</tspan></text></g><path d="m62.16 724.54h169.22v.46h-169.22z" style="fill-rule:evenodd"/></g><g style="clip-path:url(#M)"><g style="clip-path:url(#N)"><text style="font-size:6.91;font-family:Droid Sans" transform="matrix(1 0 0 -1 45.22 742.58)"><tspan x="0 1.74 5.33 8.03 10.36 13.67 17.27 20.2 23.64" y="0">Instance </tspan></text></g><g style="clip-path:url(#O)"><text style="font-size:6.91;font-family:Droid Sans" transform="matrix(1 0 0 -1 70.44 742.58)"><tspan x="0" y="0">-</tspan></text></g><g style="clip-path:url(#P)"><text style="font-size:6.91;font-family:Droid Sans" transform="matrix(1 0 0 -1 74.14 742.58)"><tspan x="0 4 5.54 7.11 8.67 11.08 14.67 18.27 19.83 22.15 23.74 29.28 32.72 34.15 37.75 40.17 43.81 46.75 50.19 52.9 55.61 59.06 61.77 63.19 65.28 68.88 72.19 75.11 78.26 81.51 83.9 87.57 91.17 94.77 98.37 100.1 101.52 104.22 107.68 110.09 113.21 116.67 119.08 120.56 125.35 127.44 128.85 132.16 135.77 139.37 140.93 146.49 149.93 155.51 159.17 161.58 164.71 166.06 168.79 172.43 176.06 179.5 182.21 183.7 185.79 188.93 193.29 197.3 199.02 200.5 204.1 208.46 212.46 213.94 218.73" y="0">All run time processes (background, server …) and memory zones (SGA, PGA …)</tspan></text></g></g><g style="clip-path:url(#Q)"><g style="clip-path:url(#R)"><text style="font-size:6.91;font-family:Droid Sans" transform="matrix(1 0 0 -1 62.16 708.86)"><tspan x="0 3.63 6.04 9.71 12.64 16.08 18.8 21.5 24.96" y="0">processes</tspan></text></g></g><g style="clip-path:url(#S)"><g style="clip-path:url(#T)"><text style="font-size:6.94;font-family:Droid Sans" transform="matrix(1 0 0 -1 45.22 717.31)"><tspan x="0 3.14 7.52 11.49" y="0">SGA </tspan></text></g><g style="clip-path:url(#U)"><text style="font-size:6.94;font-family:Droid Sans" transform="matrix(1 0 0 -1 58.32 717.31)"><tspan x="0" y="0">-</tspan></text></g><g style="clip-path:url(#V)"><text style="font-size:6.94;font-family:Droid Sans" transform="matrix(1 0 0 -1 61.92 717.31)"><tspan x="0 2.71 5.85 8.57 10.89 14.34 19.91 21.33 24.57 26.13 29.78 33.4 36.72 38.27 39.76 43.08 45.47 48.93 52.25 53.73 59.29 62.74 68.31 71.96 74.38 77.52 78.86 81.8 85.45 89.07 91.39 94.71 96.26 99.86 101.43 105.02 108.26 109.76 113.36 116.68 119 122.32 123.87 126.58 128.91 131.33 134.91 137.85 140.17 143.77 146.19 149.64 152.36 153.75 157.07 160.01 162.92 166.37 169.09 171.8 173.36 176.96 178.52 181.97 183.39 185.71 189.38 190.87 194.19 195.74 197.3 198.87 203.15 206.47 208.79 212.12 215.7 219.03 221.74" y="0">system global area memory containing data structures accessible to all Database</tspan></text></g></g><g style="clip-path:url(#W)"><g style="clip-path:url(#X)"><text style="font-size:6.94;font-family:Droid Sans" transform="matrix(1 0 0 -1 45.22 700.44)"><tspan x="0 3.59 7.96 11.95" y="0">PGA </tspan></text></g><g style="clip-path:url(#Y)"><text style="font-size:6.94;font-family:Droid Sans" transform="matrix(1 0 0 -1 58.68 700.44)"><tspan x="0" y="0">-</tspan></text></g><g style="clip-path:url(#Z)"><text style="font-size:6.94;font-family:Droid Sans" transform="matrix(1 0 0 -1 62.38 700.44)"><tspan x="0 3.6 6.02 9.68 12.91 15.34 18.63 24.19 25.61 28.85 30.41 34.06 37.68 41 42.55 44.04 47.36 49.75 53.21 56.53 58.1 59.95 61.44 67 70.46 76.02 79.67 82.09 85.24 86.51 90.11 93.56 97.16 98.72 101.65 104.98 107.3 110.75 114.35 115.84 118.16 121.83 123.32 126.78 130.1 133.03 136.62 138.11 140.82 144.28 146.7 149.83 153.29 155.68 158.38 161.98 165.31 168.24 171.37 174.61 177.03 180.68 184.28 187.88 191.48 192.82 196.42 198.84 202.5 205.43 208.88 211.6" y="0">program global area : memory dedicated to each server/background process</tspan></text></g></g><g style="clip-path:url(#aa)"><g style="clip-path:url(#ab)"><text style="font-size:6.94;font-family:Droid Sans" transform="matrix(1 0 0 -1 45.22 692.02)"><tspan x="0 4.29 8.06 14.23" y="0">DBW </tspan></text></g><g style="clip-path:url(#ac)"><text style="font-size:6.94;font-family:Droid Sans" transform="matrix(1 0 0 -1 60.96 692.02)"><tspan x="0" y="0">-</tspan></text></g><g style="clip-path:url(#ad)"><text style="font-size:6.94;font-family:Droid Sans" transform="matrix(1 0 0 -1 64.56 692.02)"><tspan x="0 3.6 6.92 9.25 12.57 16.15 19.48 22.19 25.64 27.12 32.08 34.5 36.05 38.37 41.82 44.24 45.72 49.31 51.74 55.39 58.32 61.78 64.49 67.2 68.94 70.34 73.94 77.39 79.81 82.52 84.06 86.78 89.1 91.81 93.3 96.9 98.46 102.12 105.05 108.21 110.92 112.34 114.42 116.84 120.5 126.05 127.47 131.07 134.67 136.76 138.84 142.3 144.72 146.26 149.19 152.52 155.43 159.03" y="0">database writer process, persists blocks from buffer cache</tspan></text></g></g><g style="clip-path:url(#ae)"><g style="clip-path:url(#af)"><text style="font-size:6.94;font-family:Droid Sans" transform="matrix(1 0 0 -1 45.22 683.59)"><tspan x="0 2.91 7.29 13.46 17.23" y="0">LGWR </tspan></text></g><g style="clip-path:url(#ag)"><text style="font-size:6.94;font-family:Droid Sans" transform="matrix(1 0 0 -1 63.89 683.59)"><tspan x="0" y="0">-</tspan></text></g><g style="clip-path:url(#ah)"><text style="font-size:6.94;font-family:Droid Sans" transform="matrix(1 0 0 -1 67.58 683.59)"><tspan x="0 2.42 5.87 9.45 13.11 14.61 16.17 19.83 23.1 24.57 29.53 31.95 33.5 35.82 39.28 41.7 43.17 46.77 49.19 52.85 55.78 59.23 61.95 64.66 66.39 67.79 71.39 74.85 77.27 79.98 81.52 84.23 86.55 88.05 90.47 93.92 97.5 101.15 102.66 104.22 107.88 111.14" y="0">redo log writer process, persist redo logs</tspan></text></g></g><g style="clip-path:url(#ai)"><g style="clip-path:url(#aj)"><text style="font-size:6.91;font-family:Droid Sans" transform="matrix(1 0 0 -1 45.22 666.72)"><tspan x="0 3.14 6.59 9 12.14 15.58 17.99 19.41 23.01 25.42 29.06 32 35.44 38.16 40.86" y="0">Server process </tspan></text></g><g style="clip-path:url(#ak)"><text style="font-size:6.91;font-family:Droid Sans" transform="matrix(1 0 0 -1 87.77 666.72)"><tspan x="0" y="0">-</tspan></text></g><g style="clip-path:url(#al)"><text style="font-size:6.91;font-family:Droid Sans" transform="matrix(1 0 0 -1 91.39 666.72)"><tspan x="0 3.6 6.91 10.51 14.11 15.68 19.12 21.84 23.4 27 29.7 33.16 35.57 37.05 39.46 42.9 46.5 50.11 53.55 56.26 58.58 61.3 62.78 64.88 68.19 70.89 72.38 77.95 81.26 84.86 87.99 89.49 92.8 95.5 97 99.93 103.6 107.2 110.8 114.24 117.17 119.5 121.06 124.73 128.33 131.03" y="0">handles user requests (as many as connections)</tspan></text></g></g><g style="clip-path:url(#am)"><g style="clip-path:url(#an)"><text style="font-size:6.94;font-family:Droid Sans" transform="matrix(1 0 0 -1 45.22 658.3)"><tspan x="0 4.45 7.16 10.62 13.01 14.5 18.1 20.52 24.17 27.11 30.56 33.27 35.98" y="0">User process </tspan></text></g><g style="clip-path:url(#ao)"><text style="font-size:6.94;font-family:Droid Sans" transform="matrix(1 0 0 -1 82.73 658.3)"><tspan x="0" y="0">-</tspan></text></g><g style="clip-path:url(#ap)"><text style="font-size:6.94;font-family:Droid Sans" transform="matrix(1 0 0 -1 86.42 658.3)"><tspan x="0 2.93 4.49 6.05 9.5 13.1 15.43 16.92 19.63 21.19 24.79 28.24 29.73 33.33 35.76 39.41 42.34 45.8 48.51 51.22 52.7 55.63 59.29 62.9 66.5 69.96 72.89 75.21 76.77 80.37 83.61 85.03 87.35 91.02 92.51 95.83 97.4 100.11 103.57 105.95 109.09 112.54 114.96 116.37 119.97 122.39 126.05 128.98 132.44 135.15" y="0">client side process connecting to a server process</tspan></text></g></g><g style="clip-path:url(#aq)"><g style="clip-path:url(#ar)"><text style="font-size:6.94;font-family:Droid Sans" transform="matrix(1 0 0 -1 45.22 649.87)"><tspan x="0 2.91 4.51 7.22 9.54 13 16.58 20.04 22.46 23.85 27.45 29.87 33.53 36.46 39.92 42.63 45.34" y="0">Listener process </tspan></text></g><g style="clip-path:url(#as)"><text style="font-size:6.94;font-family:Droid Sans" transform="matrix(1 0 0 -1 92.14 649.87)"><tspan x="0" y="0">-</tspan></text></g><g style="clip-path:url(#at)"><text style="font-size:6.94;font-family:Droid Sans" transform="matrix(1 0 0 -1 95.83 649.87)"><tspan x="0 3.32 6.26 9.17 12.62 16.22 18.55 21.26 22.75 26.35 29.8 34.76 36.26 39.2 42.85 46.46 50.06 53.52 56.45 58.78 60.34 63.99 67.61 70.32 71.66 74.99 78.58 82.18 83.75 86.68 89.07 92.52 95.84 98.17 101.62 104.33 105.75 108.46 111.91 114.33 117.47 120.92 123.32 124.81 128.41 130.83 134.48 137.42 140.87 143.58 146.29 149.75" y="0">accepts new connections and creates server processes</tspan></text></g></g><g style="clip-path:url(#au)"><g style="clip-path:url(#av)"><text style="font-size:6.94;font-family:Droid Sans" transform="matrix(1 0 0 -1 45.22 641.45)"><tspan x="0 4.59 6.98 10.31 13.24 14.79 18.24 19.73 22.44 25.38 27.77 29.33 32.93 35.26 37.97 39.46 41.55 45.2 47.62 49.11 52.04 55.7 61.27 66.83 70.48 74.1 75.37 77.69 81.01 83.72 86.88 88.35 91.28 94.61 98.19 99.76 103.35 106.81 108.3 110.39 114.04 117.66 121.26 124.85 126.42 127.98 131.58 133.14 136.6 140.25 142.67 146 148.9 150.46 153.92 157.37 160.98 164.63 170.21 173.59 177.05 179.66 182.08 185.66 189.26 194.83 197.54 200.15 203.47 207.07 212.56 214.12" y="0">Oracle scripts for common task can be found in &lt;oracle_home&gt;/rdbms/admin</tspan></text></g></g><g style="clip-path:url(#aw)"><g style="clip-path:url(#ax)"><text style="font-size:6.94;font-family:Droid Sans" transform="matrix(1 0 0 -1 62.16 616.15)"><tspan x="0 3.64 5.21 8.9 11.83 14.99 17.7 19.43 20.88 23.3 26.75 30.36 34.05 35.56 37.16 40.83 44.07 45.58 47.33 49.04 50.79 52.89 54.45 57.91 61.36 62.89 68.45 72.14 74.85 77.18 78.62 80.94 84.58 86.16 89.8 93.03 95.74 97.31 100.63 103.05 106.5 108 110.42 113.88 117.48 119.9 123.36 126.07 129.52 133.13 135.45 138.91 142.55 143.98 147.3 150.01 151.58 154.9 156.41 158.73 162.05 165.67 167.27 170.72 172.29 175.99 178.41 179.9 181.49 184.21 185.7 188.42 190.74 194.44 196.86 200.31 203.92 205.43 207.03 210.64 212.21 215.85 217.44 221.12 224.05 227.21 229.92" y="0">blocks, redo log ...) =&gt; most things are represented as a table or is stored in blocks.</tspan></text></g></g><g style="clip-path:url(#ay)"><g style="clip-path:url(#az)"><text style="font-size:6.94;font-family:Droid Sans" transform="matrix(1 0 0 -1 62.16 607.73)"><tspan x="0 3.77 7.22 10.54 14.16 15.68 18.61 22.29 25.93 28.65 30.21 32.93 35.25 38.7 42.34 45.28 48.42 49.87 51.47 54.18 55.68 59.32 62.61 65.32 68.78 72.42 73.99 77.68 81.32 82.81 86.45 90.06 93.7 97.37 98.88 103.84 107.48 109.08 111.98 115.62 117.19 120.51 122.9 126.35 127.87 130.65 134.29 137.96 140.38 145.93 149.25 150.84 153.63 155.05 157.38 160.7 164.32 165.92 169.37 172.08 173.82 175.31 176.91 180.52 184.16 187.62 190.62 194.08 196.79 198.31 201.63 204.02 207.48 208.99 211.31 214.63 218.26 219.85 223.3 226.02 227.52 230.23 232.56 236.25 238.67 240.24 243.88 247.1" y="0">Read consistency is based on undo which are "normal" tables, indexes are tables storing </tspan></text></g><g style="clip-path:url(#aA)"><text style="font-size:6.94;font-family:Droid Sans" transform="matrix(1 0 0 -1 62.16 599.28)"><tspan x="0 2.42 6.08 11.06 12.57 14.16 17.78 20.49 22.24 23.73 29.67 32.99 36.61 39.77 41.28 44.22 47.9 51.54 53.86 56.25 59.94 61.54 62.97 66.61 69.9 72.22 75.55 77.05 79.15 82.8 84.39 87.3 89.63 91.22 94.91 98.55 101.84 104.26 107.4 108.92 111.86 115.18 118.09 121.73 125.19 126.9 128.34 131.06 133.38 136.7 139.03 141.74 143.25 148.07 150.17 151.69 155.01 157.41 160.86 162.37 165.53 167.13 170.58 175.54 179 182.64 184.06 187.38 190.09 191.66 193.99 197.31 200.95 202.52 205.97 208.68" y="0">row ids. Many control data (dictionary cache, stats …) are viewed as tables.</tspan></text></g></g><g style="clip-path:url(#aB)"><g style="clip-path:url(#aC)"><text style="font-weight:bold;font-size:6.94;font-family:Droid Sans;fill:#1f497d" transform="matrix(1 0 0 -1 45.22 624.58)"><tspan x="0 3.38 5.1 8.56 11.87 15.25 18.92 21.33 22.81 26.48 29.94 32.7 34.44 37.75 41.42 42.91 44.79 46.35 50.02 52.48 55.87 58.79 60.51 63.96 65.38 69.05 72.72 74.44 76.16 79.83 82.59 84.1 89.74 93.12 96.79 100.1 101.59 105.26 107.45 109.02 110.73 113.13 115.9 117.41 120.79 124.46 127.77 131.15 134.82 137.74 141.2 144.87 146.43 148.62 152.06 155.45 157.86 161.52 163.98 167.45 170.22 171.72 175.39 179.06 180.63 183.03 186.69 190.36 191.93 195.59 197.78 199.35 201.05 203.46 206.23 207.73 211.04 214.5 216.96 220.27 221.69 224.61 228.28 230.74" y="0">Elegant design : oracle builds many of its advanced features on top of its very core</tspan></text></g><g style="clip-path:url(#aD)"><text style="font-size:6.94;font-family:Droid Sans" transform="matrix(1 0 0 -1 282.1 624.58)"><tspan x="0 2.1 5.04 8.33 11.26 14.86 18.31" y="0">(cache,</tspan></text></g></g></g></svg>