<svg height="227.62" viewBox="0 0 690.11 227.62" width="690.11" xml:space="preserve" xmlns="http://www.w3.org/2000/svg" xmlns:xlink="http://www.w3.org/1999/xlink"><clipPath id="a"><path d="m456.05 723.05h81.91v12.94h-81.91z" style="clip-rule:evenodd"/></clipPath><clipPath id="b"><path d="m456.05 723.17h81.91v12.82h-81.91z" style="clip-rule:evenodd"/></clipPath><clipPath id="c"><path d="m456.05 689.3h99.19v12.94h-99.19z" style="clip-rule:evenodd"/></clipPath><clipPath id="d"><path d="m456.05 689.42h99.19v12.82h-99.19z" style="clip-rule:evenodd"/></clipPath><clipPath id="e"><path d="m457.2 556.03h121.37v12.94h-121.37z" style="clip-rule:evenodd"/></clipPath><clipPath id="f"><path d="m457.2 556.15h121.37v12.82h-121.37z" style="clip-rule:evenodd"/></clipPath><clipPath id="g"><path d="m460.06 660.72h125.83v12.91h-125.83z" style="clip-rule:evenodd"/></clipPath><clipPath id="h"><path d="m460.06 660.82h125.83v12.82h-125.83z" style="clip-rule:evenodd"/></clipPath><clipPath id="i"><path d="m460.63 633.05h135v12.94h-135z" style="clip-rule:evenodd"/></clipPath><clipPath id="j"><path d="m460.63 633.17h135v12.82h-135z" style="clip-rule:evenodd"/></clipPath><clipPath id="k"><path d="m460.63 608.28h84.43v12.94h-84.43z" style="clip-rule:evenodd"/></clipPath><clipPath id="l"><path d="m460.63 608.4h84.43v12.82h-84.43z" style="clip-rule:evenodd"/></clipPath><clipPath id="m"><path d="m460.63 582.67h90.02v25.73h-90.02z" style="clip-rule:evenodd"/></clipPath><clipPath id="n"><path d="m460.63 595.58h90.02v12.82h-90.02z" style="clip-rule:evenodd"/></clipPath><clipPath id="o"><path d="m460.63 582.79h90.02v12.79h-90.02z" style="clip-rule:evenodd"/></clipPath><g transform="matrix(1.25 0 0 -1.25 -65.71 921.69)"><g style="fill:none;stroke-width:1.9;stroke-linecap:round;stroke-linejoin:round;stroke-miterlimit:10"><path d="m69.53 736.39h360.38v-180.19h-360.38z" style="stroke:#f60"/><path d="m86.71 715.42h326.04v-62.93h-326.04z" style="stroke:#8db3e2"/><path d="m86.71 642.91h326.04v-66.38h-326.04z" style="stroke:#8db3e2"/><g style="stroke:#9c0"><path d="m104.54 728.66h102.27v-159.4h-102.27z"/><path d="m220.42 729.74h83.64v-161.54h-83.64z"/><path d="m326.95 730.87h68.64v-164.11h-68.64z"/></g><path d="m121.01 693.89h34.32v-34.32h-34.32z" style="stroke:#ed1c24"/><path d="m172.49 711.05h17.16v-51.48h-17.16z" style="stroke:#ed1c24"/><g style="stroke:#bfbfbf"><path d="m455.64 728.4-25.73.67"/><path d="m439.97 723.67-10.06 5.4 10.32 4.8"/><path d="m455.64 694.63-41.45.12"/><path d="m424.37 689.59-10.18 5.11 10.2 5.07"/><path d="m456.79 666.05-63.33-.63"/><path d="m403.66 660.46-10.23 4.96 10.13 5.21"/><path d="m463.66 608.28-271.71 63.5"/><path d="m200.71 664.54-8.76 7.24 11.09 2.64"/><path d="m460.8 638.59-154.13 32.88"/><path d="m315.6 664.34-8.93 7.13 11.04 2.86"/><path d="m459.65 560.23-46.9 23.74"/><path d="m419.52 574.8-6.77 9.17 11.4-.07"/></g></g><g style="clip-path:url(#a)"><g style="clip-path:url(#b)"><text style="font-size:10.54;font-family:Droid Sans" transform="matrix(1 0 0 -1 463.15 725.9)"><tspan x="0 6.48 11.53 15.06 20.06 25.53 30.58 34.65" y="0">Database</tspan></text></g></g><g style="clip-path:url(#c)"><g style="clip-path:url(#d)"><text style="font-size:10.54;font-family:Droid Sans" transform="matrix(1 0 0 -1 463.15 692.16)"><tspan x="0 4.8 9.26 14.72 19.97 28.42 33.46 38.8 40.96 43.81 46.08 50.51" y="0">Schema1 : LH</tspan></text></g></g><g style="clip-path:url(#e)"><g style="clip-path:url(#f)"><text style="font-size:10.54;font-family:Droid Sans" transform="matrix(1 0 0 -1 464.28 558.91)"><tspan x="0 4.8 9.26 14.79 20.04 28.48 33.53 38.87 41.74 43.81 49.91 55.04 57.67 62.13 69.11 71.42 74.08 76.73" y="0">Schema2: AY,LO ...</tspan></text></g></g><g style="fill:none;stroke-width:1.9;stroke-linecap:round;stroke-linejoin:round;stroke-miterlimit:10"><path d="m121.97 626.98h34.32v-34.32h-34.32z" style="stroke:#ed1c24"/><path d="m170.59 633.55h17.16v-51.45h-17.16z" style="stroke:#ed1c24"/><g style="stroke:#bfbfbf"><path d="m461.93 606.58-275.38-3.77"/><path d="m196.8 597.89-10.25 4.92 10.11 5.23"/></g></g><g style="clip-path:url(#g)"><g style="clip-path:url(#h)"><text style="font-size:10.51;font-family:Droid Sans" transform="matrix(1 0 0 -1 467.14 663.58)"><tspan x="0 5.15 10.19 15.7 18.09 23.36 27.47 32.99 38.02 42.47 47.76 50.63 52.81 58.9 61.55 67.26 69.63 75.15 77.57 82.48 84.85 88.42 93.45 98.97 101.36" y="0">Tablespace: AIR big table</tspan></text></g></g><g style="clip-path:url(#i)"><g style="clip-path:url(#j)"><text style="font-size:10.54;font-family:Droid Sans" transform="matrix(1 0 0 -1 467.71 635.93)"><tspan x="0 5.13 10.18 15.71 18.1 23.35 27.47 33 38.05 42.5 47.75 50.57 52.79 58.89 61.5 67.22 69.62 73.74 82.21 87.26 89.68 92.05 94.23 97.76 102.81 108.34 110.72 115.97" y="0">Tablespace: AIR small tables</tspan></text></g></g><g style="clip-path:url(#k)"><g style="clip-path:url(#l)"><text style="font-size:10.54;font-family:Droid Sans" transform="matrix(1 0 0 -1 467.71 611.14)"><tspan x="0 5.13 10.18 15.71 18.1 23.35 27.48 29.9 35.37 40.87 46.12" y="0">Table/index</tspan></text></g></g><g style="clip-path:url(#m)"><g style="clip-path:url(#n)"><text style="font-size:10.51;font-family:Droid Sans;fill:#f00" transform="matrix(1 0 0 -1 467.71 598.34)"><tspan x="0 4.83 9.86 18.3 23.54 25.86 29.97 33.53 37.2 42.72 47.17 50.69 56.21 59.88 65.11 67.33 69.75 75.22" y="0">Same structure in </tspan></text></g><g style="clip-path:url(#o)"><text style="font-size:10.51;font-family:Droid Sans;fill:#f00" transform="matrix(1 0 0 -1 467.71 585.53)"><tspan x="0 5.52 11.1 14.62 20.14 22.45 26.56 31.03 36.55 41.79 50.25 55.28" y="0">both schemas</tspan></text></g></g></g></svg>