<svg height="488.47" viewBox="0 0 1280 488.47" width="1280" xml:space="preserve" xmlns="http://www.w3.org/2000/svg" xmlns:xlink="http://www.w3.org/1999/xlink"><clipPath id="a"><path d="m327.96 540.53h76.56v8.52h-76.56z" style="clip-rule:evenodd"/></clipPath><clipPath id="b"><path d="m327.96 540.6h76.56v8.45h-76.56z" style="clip-rule:evenodd"/></clipPath><clipPath id="c"><path d="m334.37 525.84h80.54v8.52h-80.54z" style="clip-rule:evenodd"/></clipPath><clipPath id="d"><path d="m334.37 525.91h80.54v8.45h-80.54z" style="clip-rule:evenodd"/></clipPath><clipPath id="e"><path d="m475.92 468.22h74.21v8.52h-74.21z" style="clip-rule:evenodd"/></clipPath><clipPath id="f"><path d="m475.92 468.31h74.21v8.42h-74.21z" style="clip-rule:evenodd"/></clipPath><clipPath id="g"><path d="m475.92 459.79h85.82v8.52h-85.82z" style="clip-rule:evenodd"/></clipPath><clipPath id="h"><path d="m475.92 459.86h85.82v8.45h-85.82z" style="clip-rule:evenodd"/></clipPath><clipPath id="i"><path d="m475.92 459.86h85.82v8.45h-85.82z" style="clip-rule:evenodd"/></clipPath><clipPath id="j"><path d="m346.7 474.62h61.03v8.52h-61.03z" style="clip-rule:evenodd"/></clipPath><clipPath id="k"><path d="m346.7 474.7h61.03v8.45h-61.03z" style="clip-rule:evenodd"/></clipPath><clipPath id="l"><path d="m346.7 466.2h63v8.52h-63z" style="clip-rule:evenodd"/></clipPath><clipPath id="m"><path d="m346.7 466.27h63v8.45h-63z" style="clip-rule:evenodd"/></clipPath><clipPath id="n"><path d="m341.81 508.15h72.86v8.52h-72.86z" style="clip-rule:evenodd"/></clipPath><clipPath id="o"><path d="m341.81 508.22h72.86v8.45h-72.86z" style="clip-rule:evenodd"/></clipPath><clipPath id="p"><path d="m341.81 499.73h77.76v8.5h-77.76z" style="clip-rule:evenodd"/></clipPath><clipPath id="q"><path d="m341.81 499.8h77.76v8.42h-77.76z" style="clip-rule:evenodd"/></clipPath><clipPath id="r"><path d="m481.94 501.36h65.54v8.52h-65.54z" style="clip-rule:evenodd"/></clipPath><clipPath id="s"><path d="m481.94 501.46h65.54v8.42h-65.54z" style="clip-rule:evenodd"/></clipPath><clipPath id="t"><path d="m413.02 514.92h61.32v8.52h-61.32z" style="clip-rule:evenodd"/></clipPath><clipPath id="u"><path d="m413.02 515.02h61.32v8.42h-61.32z" style="clip-rule:evenodd"/></clipPath><clipPath id="v"><path d="m416.02 491.21h64.8v8.5h-64.8z" style="clip-rule:evenodd"/></clipPath><clipPath id="w"><path d="m416.02 491.28h64.8v8.42h-64.8z" style="clip-rule:evenodd"/></clipPath><clipPath id="x"><path d="m416.02 482.76h64.8v8.52h-64.8z" style="clip-rule:evenodd"/></clipPath><clipPath id="y"><path d="m416.02 482.86h64.8v8.42h-64.8z" style="clip-rule:evenodd"/></clipPath><clipPath id="z"><path d="m416.02 482.86h64.8v8.42h-64.8z" style="clip-rule:evenodd"/></clipPath><clipPath id="A"><path d="m416.02 474.34h55.54v8.52h-55.54z" style="clip-rule:evenodd"/></clipPath><clipPath id="B"><path d="m416.02 474.41h55.54v8.45h-55.54z" style="clip-rule:evenodd"/></clipPath><clipPath id="C"><path d="m416.02 474.41h55.54v8.45h-55.54z" style="clip-rule:evenodd"/></clipPath><clipPath id="D"><path d="m335.28 417.41h84.38v8.52h-84.38z" style="clip-rule:evenodd"/></clipPath><clipPath id="E"><path d="m335.28 417.48h84.38v8.45h-84.38z" style="clip-rule:evenodd"/></clipPath><clipPath id="F"><path d="m351.48 394.06h52.44v8.52h-52.44z" style="clip-rule:evenodd"/></clipPath><clipPath id="G"><path d="m351.48 394.13h52.44v8.45h-52.44z" style="clip-rule:evenodd"/></clipPath><clipPath id="H"><path d="m468.26 392.93h61.1v8.52h-61.1z" style="clip-rule:evenodd"/></clipPath><clipPath id="I"><path d="m468.26 393h61.1v8.45h-61.1z" style="clip-rule:evenodd"/></clipPath><clipPath id="J"><path d="m409.49 392.18h64.73v8.5h-64.73z" style="clip-rule:evenodd"/></clipPath><clipPath id="K"><path d="m409.49 392.26h64.73v8.42h-64.73z" style="clip-rule:evenodd"/></clipPath><clipPath id="L"><path d="m40.54 525.84h90.65v8.52h-90.65z" style="clip-rule:evenodd"/></clipPath><clipPath id="M"><path d="m40.54 525.91h90.65v8.45h-90.65z" style="clip-rule:evenodd"/></clipPath><clipPath id="N"><path d="m57.48 500.54h136.99v8.52h-136.99z" style="clip-rule:evenodd"/></clipPath><clipPath id="O"><path d="m57.48 500.62h136.99v8.45h-136.99z" style="clip-rule:evenodd"/></clipPath><clipPath id="P"><path d="m40.54 508.99h263.47v8.5h-263.47z" style="clip-rule:evenodd"/></clipPath><clipPath id="Q"><path d="m40.54 509.06h263.47v8.42h-263.47z" style="clip-rule:evenodd"/></clipPath><clipPath id="R"><path d="m40.54 509.06h263.47v8.42h-263.47z" style="clip-rule:evenodd"/></clipPath><clipPath id="S"><path d="m40.54 509.06h263.47v8.42h-263.47z" style="clip-rule:evenodd"/></clipPath><clipPath id="T"><path d="m57.48 483.7h104.81v8.52h-104.81z" style="clip-rule:evenodd"/></clipPath><clipPath id="U"><path d="m57.48 483.77h104.81v8.45h-104.81z" style="clip-rule:evenodd"/></clipPath><clipPath id="V"><path d="m40.54 492.12h263.47v8.52h-263.47z" style="clip-rule:evenodd"/></clipPath><clipPath id="W"><path d="m40.54 492.19h263.47v8.45h-263.47z" style="clip-rule:evenodd"/></clipPath><clipPath id="X"><path d="m40.54 492.19h263.47v8.45h-263.47z" style="clip-rule:evenodd"/></clipPath><clipPath id="Y"><path d="m40.54 492.19h263.47v8.45h-263.47z" style="clip-rule:evenodd"/></clipPath><clipPath id="Z"><path d="m40.54 475.27h248.11v8.5h-248.11z" style="clip-rule:evenodd"/></clipPath><clipPath id="aa"><path d="m40.54 475.34h248.11v8.42h-248.11z" style="clip-rule:evenodd"/></clipPath><clipPath id="ab"><path d="m40.54 475.34h248.11v8.42h-248.11z" style="clip-rule:evenodd"/></clipPath><clipPath id="ac"><path d="m40.54 475.34h248.11v8.42h-248.11z" style="clip-rule:evenodd"/></clipPath><g transform="matrix(2.45 0 0 -2.45 -111.76 1356.93)"><path d="m329.06 552.22h237.36v-197.74h-237.36z" style="fill:none;stroke:#008000;stroke-width:1.27;stroke-linecap:round;stroke-linejoin:round;stroke-miterlimit:10"/><g style="clip-path:url(#a)"><g style="clip-path:url(#b)"><text style="font-size:6.94;font-family:Droid Sans" transform="matrix(1 0 0 -1 332.64 542.5)"><tspan x="0 1.75 5.35 8.07 10.39 13.71 17.33 20.27 23.72 25.23 30.79 34.24 39.81 43.5 45.92" y="0">Instance memory</tspan></text></g></g><path d="m335.9 537h224.36v-97.13h-224.36z" style="fill:none;stroke:#808000;stroke-width:1.27;stroke-linecap:round;stroke-linejoin:round;stroke-miterlimit:10"/><g style="clip-path:url(#c)"><g style="clip-path:url(#d)"><text style="font-size:6.94;font-family:Droid Sans" transform="matrix(1 0 0 -1 339.05 527.81)"><tspan x="0 3.18 6.33 9.04 11.36 14.82 20.39 21.83 25.07 26.67 30.34 33.99 37.28 38.88 40.37 43.7 46.09 49.54" y="0">System global area</tspan></text></g></g><path d="m343.13 519.07h56.52v-25.99h-56.52z" style="fill:none;stroke:#3165bb;stroke-width:1.25;stroke-linecap:round;stroke-linejoin:round;stroke-miterlimit:10"/><g style="clip-path:url(#e)"><g style="clip-path:url(#f)"><text style="font-size:6.94;font-family:Droid Sans" transform="matrix(1 0 0 -1 480.6 470.18)"><tspan x="0 4.29 5.88 8.82 11.14 12.71 16.37 19.98 23.3 25.7 28.84 30.19 33.12 36.44 39.35 42.95" y="0">Dictionary cache</tspan></text></g></g><g style="clip-path:url(#g)"><g style="clip-path:url(#h)"><text style="font-size:6.94;font-family:Droid Sans" transform="matrix(1 0 0 -1 482.18 461.76)"><tspan x="0" y="0">-</tspan></text></g><g style="clip-path:url(#i)"><text style="font-size:6.94;font-family:Droid Sans" transform="matrix(1 0 0 -1 485.86 461.76)"><tspan x="0 2.71 5.65 9.24 12.69 18.26 21.58 24.29 25.7 31.26 34.71 37.04 40.36 43.95 47.28 49.6" y="0">schemas metadata</tspan></text></g></g><g style="clip-path:url(#j)"><g style="clip-path:url(#k)"><text style="font-size:6.94;font-family:Droid Sans" transform="matrix(1 0 0 -1 351.38 476.59)"><tspan x="0 3.77 7.22 10.83 14.52 16.01 19.61 23.21 25.32 27.44 30.89" y="0">Redo buffer</tspan></text></g></g><g style="clip-path:url(#l)"><g style="clip-path:url(#m)"><text style="font-size:6.94;font-family:Droid Sans" transform="matrix(1 0 0 -1 351.38 468.17)"><tspan x="0 2.1 5.87 7.46 11.06 14.3 15.87 19.48 23.08 25.2 27.31 30.77 33.16" y="0">(Ring buffer)</tspan></text></g></g><g style="clip-path:url(#n)"><g style="clip-path:url(#o)"><text style="font-size:6.94;font-family:Droid Sans" transform="matrix(1 0 0 -1 346.49 510.12)"><tspan x="0 4.29 7.61 9.93 13.25 16.84 20.16 22.87 26.33 27.74 31.34 34.94 37.05 39.17 42.62" y="0">Database buffer</tspan></text></g></g><g style="clip-path:url(#p)"><g style="clip-path:url(#q)"><text style="font-size:6.91;font-family:Droid Sans" transform="matrix(1 0 0 -1 346.49 501.67)"><tspan x="0 2.09 5.78 9.09 12.01 15.64 19.08 20.57 22.68 26.35 28.76 30.24 33.84 35.43 39.09 42.01 45.16 47.86" y="0">(Cache for blocks)</tspan></text></g></g><g style="clip-path:url(#r)"><g style="clip-path:url(#s)"><text style="font-size:6.94;font-family:Droid Sans" transform="matrix(1 0 0 -1 486.62 503.33)"><tspan x="0 3.77 7.22 9.93 13.54 15.13 17.46 20.17 21.67 24.61 27.93 30.84 34.44" y="0">Results cache</tspan></text></g></g><g style="fill:none;stroke-linecap:round;stroke-linejoin:round;stroke-miterlimit:10"><path d="m336.31 430.46h224.35v-69.26h-224.35z" style="stroke:#808000;stroke-width:1.27"/><g style="stroke:#3165bb"><path d="m343.82 486.17h56.5v-27.51h-56.5z" style="stroke-width:1.25"/><path d="m411.62 526.08h144.27v-81h-144.27z" style="stroke-width:1.27"/></g></g><g style="clip-path:url(#t)"><g style="clip-path:url(#u)"><text style="font-size:6.94;font-family:Droid Sans" transform="matrix(1 0 0 -1 417.67 516.89)"><tspan x="0 3.18 6.79 10.11 12.53 15.99 19.63 21.2 24.84 28.53 32.22" y="0">Shared pool</tspan></text></g></g><path d="m417.26 503.11h48.24v-32.37h-48.24z" style="fill:none;stroke:#3165bb;stroke-width:1.25;stroke-linecap:round;stroke-linejoin:round;stroke-miterlimit:10"/><g style="clip-path:url(#v)"><g style="clip-path:url(#w)"><text style="font-size:6.91;font-family:Droid Sans" transform="matrix(1 0 0 -1 420.7 493.15)"><tspan x="0 2.92 4.51 8.14 10.53 13.84 16.26 19.41 20.92 23.85 27.16 30.08 33.71" y="0">Library cache</tspan></text></g></g><g style="clip-path:url(#x)"><g style="clip-path:url(#y)"><text style="font-size:6.94;font-family:Droid Sans" transform="matrix(1 0 0 -1 422.28 484.73)"><tspan x="0" y="0">-</tspan></text></g><g style="clip-path:url(#z)"><text style="font-size:6.94;font-family:Droid Sans" transform="matrix(1 0 0 -1 425.98 484.73)"><tspan x="0 3.18 6.79 10.11 12.51 15.96 19.6 21.1 24.28 28.95" y="0">Shared SQL</tspan></text></g></g><g style="clip-path:url(#A)"><g style="clip-path:url(#B)"><text style="font-size:6.94;font-family:Droid Sans" transform="matrix(1 0 0 -1 422.28 476.3)"><tspan x="0" y="0">-</tspan></text></g><g style="clip-path:url(#C)"><text style="font-size:6.94;font-family:Droid Sans" transform="matrix(1 0 0 -1 425.98 476.3)"><tspan x="0 3.61 6.53 9.25 12.43 17.1 20.01" y="0">PL/SQL </tspan></text></g></g><path d="m482.71 514.99h48.22v-22.25h-48.22z" style="fill:none;stroke:#3165bb;stroke-width:1.27;stroke-linecap:round;stroke-linejoin:round;stroke-miterlimit:10"/><path d="m473.66 484.08h72.32v-32.38h-72.32z" style="fill:none;stroke:#3165bb;stroke-width:1.27;stroke-linecap:round;stroke-linejoin:round;stroke-miterlimit:10"/><g style="clip-path:url(#D)"><g style="clip-path:url(#E)"><text style="font-size:6.94;font-family:Droid Sans" transform="matrix(1 0 0 -1 339.96 419.38)"><tspan x="0 3.61 6.03 9.69 12.96 15.35 18.67 24.21 25.67 28.91 30.5 34.18 37.82 41.12 42.71 44.21 47.53 49.93 53.38" y="0">Program global area</tspan></text></g></g><path d="m343.32 414.94h199.99v-39.58h-199.99z" style="fill:none;stroke:#3165bb;stroke-width:1.27;stroke-linecap:round;stroke-linejoin:round;stroke-miterlimit:10"/><path d="m350.35 407.5h48.24v-22.25h-48.24z" style="fill:none;stroke:#3165bb;stroke-width:1.25;stroke-linecap:round;stroke-linejoin:round;stroke-miterlimit:10"/><g style="clip-path:url(#F)"><g style="clip-path:url(#G)"><text style="font-size:6.94;font-family:Droid Sans" transform="matrix(1 0 0 -1 356.16 396.02)"><tspan x="0 3.18 7.82 10.74 12.26 15.59 17.98 21.43" y="0">SQL area</tspan></text></g></g><path d="m467.16 407.86h48.22v-22.25h-48.22z" style="fill:none;stroke:#3165bb;stroke-width:1.27;stroke-linecap:round;stroke-linejoin:round;stroke-miterlimit:10"/><g style="clip-path:url(#H)"><g style="clip-path:url(#I)"><text style="font-size:6.94;font-family:Droid Sans" transform="matrix(1 0 0 -1 472.94 394.9)"><tspan x="0 3.18 6.64 9.35 12.06 13.63 17.32 20.92 22.43 24.03 27.61 29.73" y="0">Session info</tspan></text></g></g><path d="m408.74 407.5h48.24v-22.25h-48.24z" style="fill:none;stroke:#3165bb;stroke-width:1.25;stroke-linecap:round;stroke-linejoin:round;stroke-miterlimit:10"/><g style="clip-path:url(#J)"><g style="clip-path:url(#K)"><text style="font-size:6.94;font-family:Droid Sans" transform="matrix(1 0 0 -1 414.17 394.13)"><tspan x="0 3.7 7.34 9.76 12.47 16.15 18.57 20.08 22.79 25.12 28.44 30.76 34.4" y="0">Cursor status</tspan></text></g></g><g style="clip-path:url(#L)"><g style="clip-path:url(#M)"><text style="font-weight:bold;font-size:6.94;font-family:Droid Sans" transform="matrix(1 0 0 -1 45.22 527.81)"><tspan x="0 3.24 6.91 10.36 13.28 15 18.39 20.11 21.6 27.24 30.69 36.33 40.01 42.47 45.78 47.2 50.58 53.05 56.51 59.9" y="0">Special memory areas</tspan></text></g></g><g style="clip-path:url(#N)"><g style="clip-path:url(#O)"><text style="font-size:6.94;font-family:Droid Sans" transform="matrix(1 0 0 -1 62.16 502.51)"><tspan x="0 3.98 7.14 10.83 12.43 16.04 18.75 20.27 23.91 27.2 29.62 33.23 34.74 38.38 41.68 44.1 46.81 48.37 52.01 55.24 56.81 59.74 63.44 69 74.56 78.25 81.89 83.22 85.64 89.09 92.7 96.34 99.8 102.51 104.83 107.54" y="0">Avoids hard parsing common requests.</tspan></text></g></g><g style="clip-path:url(#P)"><g style="clip-path:url(#Q)"><text style="font-size:6.94;font-family:Droid Sans" transform="matrix(1 0 0 -1 45.22 510.94)"><tspan x="0 2.91 4.51 8.09 10.51 13.8 16.22 19.37 20.84 23.77 27.09 30.01 33.6 37.06" y="0">Library cache </tspan></text></g><g style="clip-path:url(#R)"><text style="font-size:6.94;font-family:Droid Sans" transform="matrix(1 0 0 -1 83.93 510.94)"><tspan x="0" y="0">-</tspan></text></g><g style="clip-path:url(#S)"><text style="font-size:6.94;font-family:Droid Sans" transform="matrix(1 0 0 -1 87.55 510.94)"><tspan x="0 2.93 6.59 10.2 12.53 15.85 17.4 21 23.71 25.21 28.81 32.13 34.52 37.23 40.69 42.18 44.5 46.92 50.38 53.83 55.31 58.63 62.22 65.82 67.39 70.84 73.85 77.3 80.24 83.82 86.15 87.71 91.37 94.98 96.4 100 101.56 104.88 108.47 110.04 113.69 115.81 117.28 120.88 123.3 126.76 129.89 131.44 135.09 138.71 141.42 142.98 146.12 147.54 151.14 153.56 157.21 160.15 163.6 166.31 169.02 172.48 176.07 177.49 181.09 184.68 188.14 190.56 192.1 195.55 198.27" y="0">contains parse tree and execution plan of previously processed queries.</tspan></text></g></g><g style="clip-path:url(#T)"><g style="clip-path:url(#U)"><text style="font-size:6.94;font-family:Droid Sans" transform="matrix(1 0 0 -1 62.16 485.64)"><tspan x="0 3.32 6.94 10.58 12.14 15.79 18.5 21.95 24.34 27.04 30.37 33.98 36.3 39.94 43.62 46.04 47.6 50.31 53.64 55.96 57.55 61.22 64.87 66.19 67.79 69.36 72.07 74.4" y="0">and user/authorization lists</tspan></text></g></g><g style="clip-path:url(#V)"><g style="clip-path:url(#W)"><text style="font-size:6.94;font-family:Droid Sans" transform="matrix(1 0 0 -1 45.22 494.09)"><tspan x="0 4.29 5.85 8.78 11.1 12.67 16.32 19.93 23.26 25.65 28.79 30.14 33.07 36.39 39.31 42.91 46.36 49.07 51.49 55.14 60.1 61.52 64.46 67.78 70.69 74.29 77.75" y="0">Dictionary cache/row cache </tspan></text></g><g style="clip-path:url(#X)"><text style="font-size:6.94;font-family:Droid Sans" transform="matrix(1 0 0 -1 124.78 494.09)"><tspan x="0" y="0">-</tspan></text></g><g style="clip-path:url(#Y)"><text style="font-size:6.94;font-family:Droid Sans" transform="matrix(1 0 0 -1 129.96 494.09)"><tspan x="0 5.56 9.02 11.34 14.66 16.08 19.68 23 25.32 28.65 30.19 33.51 37.11 40.76 44.38 46.7 48.19 51.79 54.5 57.96 60.38 61.85 64.56 67.49 71.09 74.54 80.1 83.43 84.83 86.94 90.52 93.23 96.69 99.11 100.58 102.9 106.22 109.82 111.38 114.83 116.32 119.26 122.91 124.48 128.08 133.64 137.24 138.73 142.33 145.79 147.88 149.44 153.04 154.6 156.92 158.49 162.14 165.76" y="0">meta data about user schema (user table column definition)</tspan></text></g></g><g style="clip-path:url(#Z)"><g style="clip-path:url(#aa)"><text style="font-size:6.91;font-family:Droid Sans" transform="matrix(1 0 0 -1 45.22 477.22)"><tspan x="0 3.14 7.8 10.72 12.21 16.21 18.59 22.04 25.35" y="0">SQL Area </tspan></text></g><g style="clip-path:url(#ab)"><text style="font-size:6.91;font-family:Droid Sans" transform="matrix(1 0 0 -1 72.17 477.22)"><tspan x="0" y="0">-</tspan></text></g><g style="clip-path:url(#ac)"><text style="font-size:6.91;font-family:Droid Sans" transform="matrix(1 0 0 -1 75.86 477.22)"><tspan x="0 5.56 9.01 14.58 18.25 20.66 23.79 25.14 28.74 32.4 36.07 37.63 39.05 42.65 45.35 48.81 52.41 53.97 56.06 59.72 62.13 63.61 66.53 70.14 73.74 76.44 82 85.45 91.02 92.37 93.93 97.53 99.84 103.31 106.91 109.61 111.2 114.32 117.77 119.2 122.86 126.46 129.9 132.32 135.63 137.94 139.53 143.18 146.8 149.51 150.92 153.01 155.71 159.38 161.8 164.11 165.84 167.26 168.91 172.58 174.14 177.74 180.44 181.94 186.73" y="0">memory pool used for cpu/mem intensive operations (sort, joins …)</tspan></text></g></g><g style="fill:none;stroke-width:1.27;stroke-linecap:round;stroke-linejoin:round;stroke-miterlimit:10;stroke:#3165bb"><path d="m545.86 410.09h1.68v-38.79h-199.97v.72"/><path d="m550.03 405.96h1.66v-38.78h-199.99v.74"/></g></g></svg>