<svg height="337.56" viewBox="0 0 1280 337.56" width="1280" xmlns="http://www.w3.org/2000/svg" xmlns:xlink="http://www.w3.org/1999/xlink"><clipPath id="a"><path d="m466.32 465.6h53.74v8.47h-53.74z" style="clip-rule:evenodd"/></clipPath><clipPath id="b"><path d="m466.32 465.67h53.74v8.4h-53.74z" style="clip-rule:evenodd"/></clipPath><clipPath id="c"><path d="m493.58 553.34h51.19v8.47h-51.19z" style="clip-rule:evenodd"/></clipPath><clipPath id="d"><path d="m493.58 553.42h51.19v8.4h-51.19z" style="clip-rule:evenodd"/></clipPath><clipPath id="e"><path d="m380.62 554.09h78.29v8.47h-78.29z" style="clip-rule:evenodd"/></clipPath><clipPath id="f"><path d="m380.62 554.16h78.29v8.4h-78.29z" style="clip-rule:evenodd"/></clipPath><clipPath id="g"><path d="m394.13 538.7h73.56v8.47h-73.56z" style="clip-rule:evenodd"/></clipPath><clipPath id="h"><path d="m394.13 538.78h73.56v8.4h-73.56z" style="clip-rule:evenodd"/></clipPath><clipPath id="i"><path d="m498.1 538.32h68.38v8.5h-68.38z" style="clip-rule:evenodd"/></clipPath><clipPath id="j"><path d="m498.1 538.39h68.38v8.42h-68.38z" style="clip-rule:evenodd"/></clipPath><clipPath id="k"><path d="m328.44 535.32h65.62v8.47h-65.62z" style="clip-rule:evenodd"/></clipPath><clipPath id="l"><path d="m328.44 535.39h65.62v8.4h-65.62z" style="clip-rule:evenodd"/></clipPath><clipPath id="m"><path d="m471.82 448.27h53.21v8.47h-53.21z" style="clip-rule:evenodd"/></clipPath><clipPath id="n"><path d="m471.82 448.34h53.21v8.4h-53.21z" style="clip-rule:evenodd"/></clipPath><clipPath id="o"><path d="m471.82 439.87h76.85v8.47h-76.85z" style="clip-rule:evenodd"/></clipPath><clipPath id="p"><path d="m471.82 439.94h76.85v8.4h-76.85z" style="clip-rule:evenodd"/></clipPath><clipPath id="q"><path d="m531.48 448.54h53.21v8.5h-53.21z" style="clip-rule:evenodd"/></clipPath><clipPath id="r"><path d="m531.48 448.61h53.21v8.42h-53.21z" style="clip-rule:evenodd"/></clipPath><clipPath id="s"><path d="m531.48 440.14h64.08v8.5h-64.08z" style="clip-rule:evenodd"/></clipPath><clipPath id="t"><path d="m531.48 440.21h64.08v8.42h-64.08z" style="clip-rule:evenodd"/></clipPath><clipPath id="u"><path d="m40.39 549.41h126.24v8.47h-126.24z" style="clip-rule:evenodd"/></clipPath><clipPath id="v"><path d="m40.39 549.48h126.24v8.4h-126.24z" style="clip-rule:evenodd"/></clipPath><clipPath id="w"><path d="m40.39 532.61h268.42v8.5h-268.42z" style="clip-rule:evenodd"/></clipPath><clipPath id="x"><path d="m40.39 532.68h268.42v8.42h-268.42z" style="clip-rule:evenodd"/></clipPath><clipPath id="y"><path d="m57.26 515.81h187.27v8.5h-187.27z" style="clip-rule:evenodd"/></clipPath><clipPath id="z"><path d="m57.26 515.9h187.27v8.4h-187.27z" style="clip-rule:evenodd"/></clipPath><clipPath id="A"><path d="m40.39 524.21h270.65v8.5h-270.65z" style="clip-rule:evenodd"/></clipPath><clipPath id="B"><path d="m40.39 524.28h270.65v8.42h-270.65z" style="clip-rule:evenodd"/></clipPath><g transform="matrix(2.34 0 0 -2.34 -105.19 1320.83)"><g style="fill:none;stroke-linecap:round;stroke-linejoin:round;stroke-miterlimit:10"><path d="m382.46 564.43h76.16v-78.79h-76.16z" style="stroke:#548dd4;stroke-width:.89"/><path d="m396.74 549.05h57.39v-59.26h-57.39z" style="stroke:#ed1c24;stroke-width:.89"/><g style="stroke-width:.91"><path d="m493.18 565.18h81.07v-78.82h-81.07z" style="stroke:#548dd4"/><path d="m466.66 477.82h126.09v-56.28h-126.09z" style="stroke:#a5a5a5"/><path d="m498.43 551.5h64.18v-17.88h-64.18z" style="stroke:#f60"/></g></g><g style="clip-path:url(#a)"><g style="clip-path:url(#b)"><text style="font-size:6.91;font-family:Droid Sans" transform="matrix(1 0 0 -1 470.98 467.54)"><tspan x="0 4.26 7.55 9.87 13.15 16.75 20.04 22.74" y="0">Database</tspan></text></g></g><g style="clip-path:url(#c)"><g style="clip-path:url(#d)"><text style="font-size:6.91;font-family:Droid Sans" transform="matrix(1 0 0 -1 498.24 555.29)"><tspan x="0 1.74 5.33 8.03 10.35 13.63 17.23 20.16" y="0">Instance</tspan></text></g></g><g style="clip-path:url(#e)"><g style="clip-path:url(#f)"><text style="font-size:6.89;font-family:Droid Sans" transform="matrix(1 0 0 -1 385.27 556.03)"><tspan x="0 3.99 7.6 11.19 12.77 14.35 17.27 20.57 22.89 24.47 28.14 31.75 33.23 35.92 39.35 41.76 44.91 48.36" y="0">Application server</tspan></text></g></g><g style="clip-path:url(#g)"><g style="clip-path:url(#h)"><text style="font-size:6.91;font-family:Droid Sans" transform="matrix(1 0 0 -1 398.78 540.65)"><tspan x="0 3.68 7.33 10.96 14.54 17.99 20.91 23.25 24.81 28.47 32.07 33.49 37.09 40.75 44.42" y="0">Connection pool</tspan></text></g></g><g style="fill:none;stroke-linecap:round;stroke-linejoin:round;stroke-miterlimit:10;stroke:#ed1c24;stroke-width:.89"><path d="m416.18 537.17h29.64v-12.34h-29.64z"/><path d="m416.18 520.85h29.67v-12.36h-29.67z"/><path d="m416.04 505.46h29.62v-12.36h-29.62z"/></g><g style="clip-path:url(#i)"><g style="clip-path:url(#j)"><text style="font-size:6.91;font-family:Droid Sans" transform="matrix(1 0 0 -1 502.73 540.29)"><tspan x="0 3.17 6.61 9.04 12.2 15.64 18.07 19.51 23.14 25.55 29.25 32.18 35.62 38.34" y="0">Server process</tspan></text></g></g><g style="fill:none;stroke-linecap:round;stroke-linejoin:round;stroke-miterlimit:10"><path d="m498.67 529.37h64.15v-17.93h-64.15z" style="stroke:#f60;stroke-width:.91"/><path d="m498.67 507.22h64.15v-17.91h-64.15z" style="stroke:#f60;stroke-width:.91"/><g style="stroke:#3165bb;stroke-width:.89"><path d="m342.79 534.1h53.69"/><path d="m390.43 537.12 6.05-3.02-6.05-3.03"/></g></g><g style="clip-path:url(#k)"><g style="clip-path:url(#l)"><text style="font-size:6.89;font-family:Droid Sans" transform="matrix(1 0 0 -1 333.1 537.26)"><tspan x="0 3.67 5.26 6.84 10.29 13.91 16.21 17.73 20.42 23.89 26.58 29.3 30.89 34.55" y="0">Client session</tspan></text></g></g><g style="fill:none;stroke-linecap:round;stroke-linejoin:round;stroke-miterlimit:10"><path d="m416.18 531-19.32 3.1" style="stroke:#3165bb;stroke-width:.89"/><path d="m416.18 514.68-19.7 19.42" style="stroke:#3165bb;stroke-width:.89"/><g style="stroke-width:.91"><g style="stroke:#f60"><path d="m445.82 530.98 52.73 11.01"/><path d="m445.85 514.66 52.77 5.76"/><path d="m445.68 499.27 52.94-1.01"/></g><path d="m471.94 460.18h56.3v-24.03h-56.3z" style="stroke:#a5a5a5"/></g></g><g style="clip-path:url(#m)"><g style="clip-path:url(#n)"><text style="font-size:6.91;font-family:Droid Sans" transform="matrix(1 0 0 -1 476.47 450.22)"><tspan x="0 3.37 5.78 9.09 12.01 15.46 16.94 19.05 20.59 22.15" y="0">Trace file</tspan></text></g></g><g style="clip-path:url(#o)"><g style="clip-path:url(#p)"><text style="font-size:6.91;font-family:Droid Sans" transform="matrix(1 0 0 -1 476.47 441.82)"><tspan x="0 2.09 5.6 7.11 10.71 14.15 16.56 18.05 21.66 25.26 26.82 29.52 32.96 35.67 38.33 39.9 43.56 47.16" y="0">(1 per db session)</tspan></text></g></g><path d="m531.58 460.44h56.32v-24h-56.32z" style="fill:none;stroke:#a5a5a5;stroke-width:.91;stroke-linecap:round;stroke-linejoin:round;stroke-miterlimit:10"/><g style="clip-path:url(#q)"><g style="clip-path:url(#r)"><text style="font-size:6.91;font-family:Droid Sans" transform="matrix(1 0 0 -1 536.11 450.5)"><tspan x="0 3.37 5.8 9.11 12.03 15.48 17.01 19.12 20.71 22.3" y="0">Trace file</tspan></text></g></g><g style="clip-path:url(#s)"><g style="clip-path:url(#t)"><text style="font-size:6.91;font-family:Droid Sans" transform="matrix(1 0 0 -1 536.11 442.1)"><tspan x="0 2.09 5.63 7.15 10.78 14.22 16.64 18.16 21.79 25.42 26.98 29.69 33.14 35.85 38.56 40.14 43.84 47.46" y="0">(1 per db session)</tspan></text></g></g><g style="fill:none;stroke-linecap:round;stroke-linejoin:round;stroke-miterlimit:10;stroke:#a5a5a5;stroke-width:.91"><path d="m511.32 511.56-11.23-51.38"/><path d="m504.34 465.46-4.25-5.28-1.66 6.52"/><path d="m562.75 540.84h18.36v-79.54"/><path d="m584.16 467.35-3.05-6.05-3.02 6.05"/></g><g style="clip-path:url(#u)"><g style="clip-path:url(#v)"><text style="font-weight:bold;font-size:6.89;font-family:Droid Sans" transform="matrix(1 0 0 -1 45.05 551.35)"><tspan x="0 3.42 5.89 9.25 12.15 13.84 17.54 20.81 22.16 25.52 29.19 32.86 34.56 36.25 39.17 42.53 44.92 46.61 50.32 53.97 55.46 58.21 61.65 64.12 67.4 70.83 73.3 74.71 77.46 80.91 83.65 86.42 88.11 91.79 95.46" y="0">Tracing application server sessions</tspan></text></g></g><g style="clip-path:url(#w)"><g style="clip-path:url(#x)"><text style="font-size:6.91;font-family:Droid Sans" transform="matrix(1 0 0 -1 45.05 534.58)"><tspan x="0 3.96 5.52 8.23 9.77 13.37 16.58 18.14 21.59 23.07 26.36 29.96 33.56 35.12 37.82 41.24 43.65 46.77 50.22 52.63 54.03 56.73 60.15 62.85 65.53 67.09 70.75 74.35 75.84 78.76 82.03 85.63 87.12 90.72 93.42 96.84 98.4 101.1 104.52 107.64 111.08 113.5 116.78 118.34 119.76 124.02 127.78 129.25 131.96 135.37 138.07 140.75 142.31 145.97 149.58 152.28 153.68 156.97 160.1 163.41 164.96 166.52 169.81 173.42 174.98 178.42 179.9 181.46 185.06 186.62 188.18 190.49 193.17 194.66 197.58 201.22 204.85 208.43 211.87 214.77 217.09 218.63 222.3 225.9 227.31 230.92 234.58 238.24" y="0">A single app server session can use several DB sessions available in its connection pool</tspan></text></g></g><g style="clip-path:url(#y)"><g style="clip-path:url(#z)"><text style="font-size:6.91;font-family:Droid Sans" transform="matrix(1 0 0 -1 61.92 517.78)"><tspan x="0 1.59 5.18 8.63 12.25 14.57 16.16 18.27 19.86 23.3 25.71 27.21 32 34.1 35.62 39.07 42.53 44.04 47.49 50.8 53.52 55.11 58.55 60.96 62.47 64.79 68.46 69.9 73.21 76.47 79.7 82.11 85.55 88.81 92.12 94.43 97.87 99.4 102.57 107.23 110.15 111.66 113.98 116.39 119.7 122.63 126.07 128.79 130.31 133.97 137.57 139.08 143.35 147.11 148.63 151.33 152.92 156.52" y="0">identifier …) =&gt; easier to aggregate SQL traces on DB side</tspan></text></g></g><g style="clip-path:url(#A)"><g style="clip-path:url(#B)"><text style="font-size:6.91;font-family:Droid Sans" transform="matrix(1 0 0 -1 45.05 526.18)"><tspan x="0 3.37 6.96 10.4 11.88 15.17 18.77 22.37 23.94 26.64 30.05 32.47 35.59 39.03 41.44 42.85 45.55 49.14 52.8 56.4 57.96 61.57 63.13 66.03 69.32 71.73 75.15 77.26 80.84 82.4 83.97 87.1 88.53 90.09 93.69 97.13 100.72 103.04 104.59 106.69 109.82 111.3 114.75 118.02 120.95 124.53 126.01 128.94 132.58 136.21 139.79 143.23 146.13 148.44 149.99 153.65 157.25 158.67 160.77 164.21 167.2 169.05 170.55 173.48 175.02 176.58 180.02 183.61 185.93 189.35 190.91 194.51 196.22 197.63 203.17 206.83 210.44 214.04 215.6 219.04 220.52 224.12 227.41 232.95 236.39 238.08 239.5 242.2 245.62 248.32 251 252.56 256.22" y="0">The app server should carefully identify each connection (ex: client_id, module name, session</tspan></text></g></g></g></svg>