<svg height="462.45" viewBox="0 0 1280 462.45" width="1280" xml:space="preserve" xmlns="http://www.w3.org/2000/svg" xmlns:xlink="http://www.w3.org/1999/xlink"><clipPath id="a"><path d="m45.62 193.85h74.95v8.52h-74.95z" style="clip-rule:evenodd"/></clipPath><clipPath id="b"><path d="m45.62 193.92h74.95v8.45h-74.95z" style="clip-rule:evenodd"/></clipPath><clipPath id="c"><path d="m138.6 191.69h64.34v8.5h-64.34z" style="clip-rule:evenodd"/></clipPath><clipPath id="d"><path d="m138.6 191.76h64.34v8.42h-64.34z" style="clip-rule:evenodd"/></clipPath><clipPath id="e"><path d="m133.32 206.38h52.44v8.52h-52.44z" style="clip-rule:evenodd"/></clipPath><clipPath id="f"><path d="m133.32 206.45h52.44v8.45h-52.44z" style="clip-rule:evenodd"/></clipPath><clipPath id="g"><path d="m229.01 191.69h43.01v8.5h-43.01z" style="clip-rule:evenodd"/></clipPath><clipPath id="h"><path d="m229.01 191.76h43.01v8.42h-43.01z" style="clip-rule:evenodd"/></clipPath><clipPath id="i"><path d="m229.01 183.26h86.33v8.5h-86.33z" style="clip-rule:evenodd"/></clipPath><clipPath id="j"><path d="m229.01 183.34h86.33v8.42h-86.33z" style="clip-rule:evenodd"/></clipPath><clipPath id="k"><path d="m229.01 174.82h72.94v8.52h-72.94z" style="clip-rule:evenodd"/></clipPath><clipPath id="l"><path d="m229.01 174.91h72.94v8.42h-72.94z" style="clip-rule:evenodd"/></clipPath><clipPath id="m"><path d="m223.73 206.38h52.44v8.52h-52.44z" style="clip-rule:evenodd"/></clipPath><clipPath id="n"><path d="m223.73 206.45h52.44v8.45h-52.44z" style="clip-rule:evenodd"/></clipPath><clipPath id="o"><path d="m35.42 220.49h148.37v8.52h-148.37z" style="clip-rule:evenodd"/></clipPath><clipPath id="p"><path d="m35.42 220.56h148.37v8.45h-148.37z" style="clip-rule:evenodd"/></clipPath><clipPath id="q"><path d="m40.54 288.53h49.66v8.52h-49.66z" style="clip-rule:evenodd"/></clipPath><clipPath id="r"><path d="m40.54 288.62h49.66v8.42h-49.66z" style="clip-rule:evenodd"/></clipPath><clipPath id="s"><path d="m40.54 271.68h166.51v8.52h-166.51z" style="clip-rule:evenodd"/></clipPath><clipPath id="t"><path d="m40.54 271.75h166.51v8.45h-166.51z" style="clip-rule:evenodd"/></clipPath><clipPath id="u"><path d="m40.54 271.75h166.51v8.45h-166.51z" style="clip-rule:evenodd"/></clipPath><clipPath id="v"><path d="m40.54 271.75h166.51v8.45h-166.51z" style="clip-rule:evenodd"/></clipPath><clipPath id="w"><path d="m40.54 263.26h208.78v8.5h-208.78z" style="clip-rule:evenodd"/></clipPath><clipPath id="x"><path d="m40.54 263.33h208.78v8.42h-208.78z" style="clip-rule:evenodd"/></clipPath><clipPath id="y"><path d="m40.54 263.33h208.78v8.42h-208.78z" style="clip-rule:evenodd"/></clipPath><clipPath id="z"><path d="m40.54 263.33h208.78v8.42h-208.78z" style="clip-rule:evenodd"/></clipPath><clipPath id="A"><path d="m57.48 246.38h225.43v8.52h-225.43z" style="clip-rule:evenodd"/></clipPath><clipPath id="B"><path d="m57.48 246.46h225.43v8.45h-225.43z" style="clip-rule:evenodd"/></clipPath><clipPath id="C"><path d="m57.48 246.46h225.43v8.45h-225.43z" style="clip-rule:evenodd"/></clipPath><clipPath id="D"><path d="m57.48 246.46h225.43v8.45h-225.43z" style="clip-rule:evenodd"/></clipPath><clipPath id="E"><path d="m57.48 237.96h86.57v8.52h-86.57z" style="clip-rule:evenodd"/></clipPath><clipPath id="F"><path d="m57.48 238.03h86.57v8.45h-86.57z" style="clip-rule:evenodd"/></clipPath><clipPath id="G"><path d="m40.54 254.81h252.1v8.52h-252.1z" style="clip-rule:evenodd"/></clipPath><clipPath id="H"><path d="m40.54 254.9h252.1v8.42h-252.1z" style="clip-rule:evenodd"/></clipPath><clipPath id="I"><path d="m40.54 254.9h252.1v8.42h-252.1z" style="clip-rule:evenodd"/></clipPath><clipPath id="J"><path d="m40.54 254.9h252.1v8.42h-252.1z" style="clip-rule:evenodd"/></clipPath><clipPath id="K"><path d="m323.06 304.37h76.54v8.5h-76.54z" style="clip-rule:evenodd"/></clipPath><clipPath id="L"><path d="m323.06 304.44h76.54v8.42h-76.54z" style="clip-rule:evenodd"/></clipPath><clipPath id="M"><path d="m329.45 291.17h58.99v8.52h-58.99z" style="clip-rule:evenodd"/></clipPath><clipPath id="N"><path d="m329.45 291.26h58.99v8.42h-58.99z" style="clip-rule:evenodd"/></clipPath><clipPath id="O"><path d="m451.92 158.95h84.74v8.52h-84.74z" style="clip-rule:evenodd"/></clipPath><clipPath id="P"><path d="m451.92 159.05h84.74v8.42h-84.74z" style="clip-rule:evenodd"/></clipPath><clipPath id="Q"><path d="m451.92 150.53h130.78v8.52h-130.78z" style="clip-rule:evenodd"/></clipPath><clipPath id="R"><path d="m451.92 150.6h130.78v8.45h-130.78z" style="clip-rule:evenodd"/></clipPath><clipPath id="S"><path d="m451.92 150.6h130.78v8.45h-130.78z" style="clip-rule:evenodd"/></clipPath><clipPath id="T"><path d="m451.92 150.6h130.78v8.45h-130.78z" style="clip-rule:evenodd"/></clipPath><clipPath id="U"><path d="m451.92 142.1h130.78v8.52h-130.78z" style="clip-rule:evenodd"/></clipPath><clipPath id="V"><path d="m451.92 142.18h130.78v8.45h-130.78z" style="clip-rule:evenodd"/></clipPath><clipPath id="W"><path d="m451.92 142.18h130.78v8.45h-130.78z" style="clip-rule:evenodd"/></clipPath><clipPath id="X"><path d="m451.92 142.18h130.78v8.45h-130.78z" style="clip-rule:evenodd"/></clipPath><clipPath id="Y"><path d="m390.86 270.46h45.82v8.52h-45.82z" style="clip-rule:evenodd"/></clipPath><clipPath id="Z"><path d="m390.86 270.53h45.82v8.45h-45.82z" style="clip-rule:evenodd"/></clipPath><clipPath id="aa"><path d="m481.3 333.74h114.29v8.5h-114.29z" style="clip-rule:evenodd"/></clipPath><clipPath id="ab"><path d="m481.3 333.82h114.29v8.42h-114.29z" style="clip-rule:evenodd"/></clipPath><clipPath id="ac"><path d="m481.3 333.82h114.29v8.42h-114.29z" style="clip-rule:evenodd"/></clipPath><clipPath id="ad"><path d="m481.3 333.82h114.29v8.42h-114.29z" style="clip-rule:evenodd"/></clipPath><clipPath id="ae"><path d="m481.3 325.32h80.23v8.5h-80.23z" style="clip-rule:evenodd"/></clipPath><clipPath id="af"><path d="m481.3 325.39h80.23v8.42h-80.23z" style="clip-rule:evenodd"/></clipPath><clipPath id="ag"><path d="m352.44 328.46h95.54v8.52h-95.54z" style="clip-rule:evenodd"/></clipPath><clipPath id="ah"><path d="m352.44 328.54h95.54v8.45h-95.54z" style="clip-rule:evenodd"/></clipPath><clipPath id="ai"><path d="m352.44 328.54h95.54v8.45h-95.54z" style="clip-rule:evenodd"/></clipPath><clipPath id="aj"><path d="m352.44 328.54h95.54v8.45h-95.54z" style="clip-rule:evenodd"/></clipPath><clipPath id="ak"><path d="m317.04 154.44h125.23v8.52h-125.23z" style="clip-rule:evenodd"/></clipPath><clipPath id="al"><path d="m317.04 154.51h125.23v8.45h-125.23z" style="clip-rule:evenodd"/></clipPath><clipPath id="am"><path d="m317.04 154.51h125.23v8.45h-125.23z" style="clip-rule:evenodd"/></clipPath><clipPath id="an"><path d="m317.04 154.51h125.23v8.45h-125.23z" style="clip-rule:evenodd"/></clipPath><clipPath id="ao"><path d="m317.04 146.02h139.18v8.52h-139.18z" style="clip-rule:evenodd"/></clipPath><clipPath id="ap"><path d="m317.04 146.09h139.18v8.45h-139.18z" style="clip-rule:evenodd"/></clipPath><g transform="matrix(2.33 0 0 -2.33 -94.82 794.15)"><g style="fill:none;stroke-width:1.27;stroke-linecap:round;stroke-linejoin:round;stroke-miterlimit:10"><path d="m134.64 216.7h76.8v-63.34h-76.8z" style="stroke:#1f497d"/><g style="stroke:#ed1c24"><path d="m47.62 204.98h34.15v-44.08h-34.15z"/><path d="m81.31 204.98h30.36v-44.08h-30.36z"/></g></g><g style="clip-path:url(#a)"><g style="clip-path:url(#b)"><text style="font-size:6.94;font-family:Droid Sans" transform="matrix(1 0 0 -1 50.28 195.82)"><tspan x="0 3.61 6.94 9.36 11.69 13.29 15.61 17.21 20.91 24.55 28 31.64 33.07 35.42 38.74 42.35 43.95" y="0">Partitioned table</tspan></text></g></g><g style="fill:none;stroke-width:1.27;stroke-linecap:round;stroke-linejoin:round;stroke-miterlimit:10"><path d="m41.35 215.02h40.22v-62.88h-40.22z" style="stroke:#1f497d"/><path d="m81.43 215.23h35.88v-62.88h-35.88z" style="stroke:#1f497d"/><g style="stroke:#ed1c24"><path d="m138.36 204.31h34.1v-44.06h-34.1z"/><path d="m172.03 204.31h30.36v-44.06h-30.36z"/></g></g><g style="clip-path:url(#c)"><g style="clip-path:url(#d)"><text style="font-size:6.91;font-family:Droid Sans" transform="matrix(1 0 0 -1 143.26 193.63)"><tspan x="0 3.4 6.71 10.34 11.93 15.39 16.91 20.59 22.18 25.81 28.51 30.87 34.34" y="0">Table Cluster</tspan></text></g></g><g style="clip-path:url(#e)"><g style="clip-path:url(#f)"><text style="font-size:6.94;font-family:Droid Sans" transform="matrix(1 0 0 -1 138 208.34)"><tspan x="0 3.14 6.6 9.81 15.38 18.83 22.43" y="0">Segment</tspan></text></g></g><path d="m225.05 216.7h78.31v-62.02h-78.31z" style="fill:none;stroke:#1f497d;stroke-width:1.27;stroke-linecap:round;stroke-linejoin:round;stroke-miterlimit:10"/><path d="m229.7 204.31h67.59v-44.06h-67.59z" style="fill:none;stroke:#ed1c24;stroke-width:1.27;stroke-linecap:round;stroke-linejoin:round;stroke-miterlimit:10"/><g style="clip-path:url(#g)"><g style="clip-path:url(#h)"><text style="font-size:6.91;font-family:Droid Sans" transform="matrix(1 0 0 -1 233.66 193.63)"><tspan x="0 3.4 6.73 10.36 11.95" y="0">Table</tspan></text></g></g><g style="clip-path:url(#i)"><g style="clip-path:url(#j)"><text style="font-size:6.91;font-family:Droid Sans" transform="matrix(1 0 0 -1 233.66 185.21)"><tspan x="0 2.09 6.56 10.26 12.68 18.28 21.61 23.2 24.79 27.94 29.38 32.92 34.44 37.14 40.62 43.88 49.45 52.92 56.55" y="0">(Normally 1 segment</tspan></text></g></g><g style="clip-path:url(#k)"><g style="clip-path:url(#l)"><text style="font-size:6.94;font-family:Droid Sans" transform="matrix(1 0 0 -1 233.66 176.78)"><tspan x="0 3.61 7.09 9.51 11.02 13.37 16.69 20.33 21.92 25.38 28.1 29.69 33.31 36.95 40.4 43.43" y="0">Per table/index)</tspan></text></g></g><g style="clip-path:url(#m)"><g style="clip-path:url(#n)"><text style="font-size:6.94;font-family:Droid Sans" transform="matrix(1 0 0 -1 228.41 208.34)"><tspan x="0 3.18 6.64 9.86 15.43 18.88 22.48" y="0">Segment</tspan></text></g></g><g style="clip-path:url(#o)"><g style="clip-path:url(#p)"><text style="font-weight:bold;font-size:6.94;font-family:Droid Sans" transform="matrix(1 0 0 -1 40.1 222.46)"><tspan x="0 4.38 8.07 13.23 14.76 17.17 20.54 24.24 25.96 29.42 32.18 33.71 37.09 39.56 43.02 44.59 47.39 49.79 53.48 55.95 59.41 63.11 64.62 66.34 70.04 71.61 73.35 77.05 80.35 82.07 84.99 88.38 90.1 91.44 94.21 96.62 99.08 102.81 105.7 108.11 111.84 114.3 117.75" y="0">How tables are stored in logical structures</tspan></text></g></g><g style="clip-path:url(#q)"><g style="clip-path:url(#r)"><text style="font-weight:bold;font-size:6.94;font-family:Droid Sans" transform="matrix(1 0 0 -1 45.22 290.5)"><tspan x="0 3.24 5.65 9.31 11.77 15.16 18.47" y="0">Storage</tspan></text></g></g><g style="clip-path:url(#s)"><g style="clip-path:url(#t)"><text style="font-size:6.94;font-family:Droid Sans" transform="matrix(1 0 0 -1 45.22 273.65)"><tspan x="0 3.59 7.2 10.34 13.05 14.61 17.55 20.87 22.42" y="0">Physical </tspan></text></g><g style="clip-path:url(#u)"><text style="font-size:6.94;font-family:Droid Sans" transform="matrix(1 0 0 -1 69.17 273.65)"><tspan x="0" y="0">-</tspan></text></g><g style="clip-path:url(#v)"><text style="font-size:6.94;font-family:Droid Sans" transform="matrix(1 0 0 -1 72.86 273.65)"><tspan x="0 3.6 6.92 9.25 12.57 14.64 16.2 17.76 21.22 23.93 25.42 29.02 31.73 33.29 36.89 40.13 41.7 45.29 48.89 52.49 55.95 58.37 59.91 63.05 64.61 68.21 71.45 73.02 77.61 80.74 82.23 84.31 85.87 87.44 90.89 93.6 96.74 99.46 101.78 105.23" y="0">datafiles using underlying OS filesystem</tspan></text></g></g><g style="clip-path:url(#w)"><g style="clip-path:url(#x)"><text style="font-size:6.91;font-family:Droid Sans" transform="matrix(1 0 0 -1 45.22 265.2)"><tspan x="0 2.92 6.59 9.84 11.38 14.31 17.62 19.18" y="0">Logical </tspan></text></g><g style="clip-path:url(#y)"><text style="font-size:6.91;font-family:Droid Sans" transform="matrix(1 0 0 -1 65.93 265.2)"><tspan x="0" y="0">-</tspan></text></g><g style="clip-path:url(#z)"><text style="font-size:6.91;font-family:Droid Sans" transform="matrix(1 0 0 -1 69.62 265.2)"><tspan x="0 2.92 6.59 12.16 15.76 19.42 22.13 25.58 29.18 30.52 34.19 36.29 37.76 41.36 42.92 46.59 49.51 52.66 55.36 57.09 58.59 62.03 65.04 67.35 70.81 74.41 76.73 79.45 81.17 82.59 85.29 88.75 92.01 97.55 100.99 104.62 106.94 109.64 111.06 114.37 117.97 121.58 123.14 125.45 128.76 132.39 133.93 137.38 140.09 143.69 147 149.93 153.37" y="0">composed of blocks, extents, segments and tablespaces</tspan></text></g></g><g style="clip-path:url(#A)"><g style="clip-path:url(#B)"><text style="font-size:6.94;font-family:Droid Sans" transform="matrix(1 0 0 -1 62.16 248.35)"><tspan x="0 4.45 7.16 10.62 13.01 14.75" y="0">User. </tspan></text></g><g style="clip-path:url(#C)"><text style="font-size:6.94;font-family:Droid Sans" transform="matrix(1 0 0 -1 78.43 248.35)"><tspan x="0 3.38 6.71 9.64 13.25 14.76 18.4 21.11 24.57 26.95 28.52 32.22 37.18 40.83 43.54 44.97 48.29 49.86 52.57 54.16 57.78 61.02 62.62 66.07 67.64 70.35 73.29 76.93 80.38 85.92 89.25 90.69 93.4 97.04 100.34 102.76 104.32 107.96 111.18 112.75 114.35 116.67 119.38 120.9 124.54 127.84 133.4" y="0">Each user owns a single schema sharing its name</tspan></text></g><g style="clip-path:url(#D)"><text style="font-size:6.94;font-family:Droid Sans" transform="matrix(1 0 0 -1 215.33 248.35)"><tspan x="0 1.75 3.24 7.68 11.37 13.69 15.21 16.81 18.38 22.02 25.18 28.63 32.25 33.76 36.09 39.78 41.3" y="0">. Not linked to a</tspan></text></g><path d="m78.43 247.15h136.9v.43h-136.9z" style="fill-rule:evenodd"/></g><g style="clip-path:url(#E)"><g style="clip-path:url(#F)"><text style="font-size:6.94;font-family:Droid Sans" transform="matrix(1 0 0 -1 62.16 239.93)"><tspan x="0 3.61 6.94 9.33 11.65 13.25 16.18 19.8 21.39 24.69 27.11 28.53 30.86 34.18 37.8 39.4 42.85 45.56 49.18 52.5 55.43" y="0">Particular tablespace</tspan></text></g></g><g style="clip-path:url(#G)"><g style="clip-path:url(#H)"><text style="font-size:6.94;font-family:Droid Sans" transform="matrix(1 0 0 -1 45.22 256.78)"><tspan x="0 3.14 6.08 9.67 13.12 18.69 22.01" y="0">Schema </tspan></text></g><g style="clip-path:url(#I)"><text style="font-size:6.94;font-family:Droid Sans" transform="matrix(1 0 0 -1 68.71 256.78)"><tspan x="0" y="0">-</tspan></text></g><g style="clip-path:url(#J)"><text style="font-size:6.94;font-family:Droid Sans" transform="matrix(1 0 0 -1 72.41 256.78)"><tspan x="0 2.71 6.17 8.49 9.98 13.64 15.75 17.23 20.83 24.15 26.47 29.8 33.38 36.71 39.42 42.87 44.35 48 51.62 53.28 56.73 59.66 61.99 64.7 66.11 68.22 70.54 73.86 77.44 79 82.46 85.17 86.9 88.39 91.99 94.41 98.06 101 104.45 108.04 111.64 114.06 117.52 120.23 121.93 123.35 124.91 128.51 132.11 135.56 138.57 142.02 144.73 146.22 151.01 153.11 154.6 157.93 160.64 163.35 167.01 169.94 171.5 174.82 177.15 180.6 184.19 185.61 187.93 191.6 193.02" y="0">set of database objects (tables, procedures, indexes …) associated to a</tspan></text></g></g><g style="fill:none;stroke-width:1.27;stroke-linecap:round;stroke-linejoin:round;stroke-miterlimit:10"><path d="m404.5 327.55-51.94-59.47" style="stroke:#bfbfbf"/><path d="m359.5 270.96-6.96-2.86 1.92 7.25" style="stroke:#bfbfbf"/><path d="m325.51 303.14h171v-120.12h-171z" style="stroke:#9c0"/><path d="m319.27 317.76h237.34v-140.54h-237.34z" style="stroke:#a5a5a5"/></g><g style="clip-path:url(#K)"><g style="clip-path:url(#L)"><text style="font-size:6.91;font-family:Droid Sans" transform="matrix(1 0 0 -1 327.72 306.31)"><tspan x="0 4.29 7.6 9.95 13.26 16.89 20.2 22.9 26.38 27.81 30.52 32.87 36.56 38.98 42.29 45.54" y="0">Database storage</tspan></text></g></g><g style="clip-path:url(#M)"><g style="clip-path:url(#N)"><text style="font-size:6.94;font-family:Droid Sans" transform="matrix(1 0 0 -1 334.13 293.14)"><tspan x="0 3.38 6.7 10.32 11.92 15.37 18.08 21.7 25.02 27.95" y="0">Tablespace</tspan></text></g></g><g style="fill:none;stroke-width:1.27;stroke-linecap:round;stroke-linejoin:round;stroke-miterlimit:10"><g style="stroke:#9c0"><path d="m510.46 288.84h37.75v-96.65h-37.75z"/><path d="m507.12 294.5h37.78v-107.2h-37.78z"/><path d="m514.42 283.85h37.75v-86.47h-37.75z"/></g><g style="stroke:#bfbfbf"><path d="m512.69 159.6 11.66 38.06"/><path d="m519.17 192.22 5.18 5.44 1.2-7.41"/></g></g><g style="clip-path:url(#O)"><g style="clip-path:url(#P)"><text style="font-size:6.94;font-family:Droid Sans" transform="matrix(1 0 0 -1 456.58 160.92)"><tspan x="0 4.59 6.95 10.59 14.05 16.47 17.99 20.34 23.66 27.27 28.87 32.32 35.03 38.68 42 44.93 48.41 51.12 52.56 54.45" y="0">Other tablespaces : </tspan></text></g></g><g style="clip-path:url(#Q)"><g style="clip-path:url(#R)"><text style="font-size:6.94;font-family:Droid Sans" transform="matrix(1 0 0 -1 456.58 152.5)"><tspan x="0 3.18 6.56 9.75 13.14 16.54 22.49" y="0">SYSTEM </tspan></text></g><g style="clip-path:url(#S)"><text style="font-size:6.94;font-family:Droid Sans" transform="matrix(1 0 0 -1 480.46 152.5)"><tspan x="0" y="0">-</tspan></text></g><g style="clip-path:url(#T)"><text style="font-size:6.94;font-family:Droid Sans" transform="matrix(1 0 0 -1 484.15 152.5)"><tspan x="0 2.93 6.64 10.28 12.6 15.93 17.52 21.13 23.85 25.36 29 32.29 34.64 37.96 39.47 43.11 44.67 47.61 49.97 51.71 53.28 55.99 58.35 62.04 64.46 67.93 71.57 72.99 76.64 79.06 82.73 85.67 88.38" y="0">contains data dict, stored procs…</tspan></text></g></g><g style="clip-path:url(#U)"><g style="clip-path:url(#V)"><text style="font-size:6.94;font-family:Droid Sans" transform="matrix(1 0 0 -1 456.58 144.07)"><tspan x="0 4.45 8.88 13.16 17.76" y="0">UNDO </tspan></text></g><g style="clip-path:url(#W)"><text style="font-size:6.94;font-family:Droid Sans" transform="matrix(1 0 0 -1 475.87 144.07)"><tspan x="0" y="0">-</tspan></text></g><g style="clip-path:url(#X)"><text style="font-size:6.94;font-family:Droid Sans" transform="matrix(1 0 0 -1 479.57 144.07)"><tspan x="0 3.64 7.25 10.89 14.56 16.07 18.78 22.26 25.5 31.08 34.56 38.2 40.52 43.23 44.68 47.03 50.72 52.23 54.65 58.34 59.93 61.51 65.15 68.44 71.38 74.56 76 78.34" y="0">undo segments to rollback tx</tspan></text></g></g><g style="fill:none;stroke-width:1.27;stroke-linecap:round;stroke-linejoin:round;stroke-miterlimit:10"><g style="stroke:#1f497d"><path d="m338.98 267.72h19.22v-42.94h-19.22z"/><path d="m338.86 254.66h19.22v-13.2h-19.22z"/><path d="m339 267.91h19.2v-13.2h-19.2z"/></g><path d="m392.42 281.11h95v-38.64h-95z" style="stroke:#9436b8"/><g style="stroke:#953734"><path d="m404.59 270.12h14.71v-12.46h-14.71z"/><path d="m433.73 269.88h14.71v-12.46h-14.71z"/><path d="m448.56 269.88h14.69v-12.46h-14.69z"/><path d="m462.65 269.88h14.71v-12.46h-14.71z"/><path d="m419.09 270.24h14.71v-12.43h-14.71z"/><path d="m404.78 257.93h14.69v-12.46h-14.69z"/><path d="m433.92 257.69h14.69v-12.46h-14.69z"/><path d="m448.78 257.69h14.68v-12.46h-14.68z"/><path d="m462.84 257.69h14.71v-12.46h-14.71z"/><path d="m419.28 258.05h14.69v-12.43h-14.69z"/></g></g><g style="clip-path:url(#Y)"><g style="clip-path:url(#Z)"><text style="font-size:6.94;font-family:Droid Sans" transform="matrix(1 0 0 -1 395.54 272.42)"><tspan x="0 3.45 6.46 8.78 12.24 15.84" y="0">extent</tspan></text></g></g><path d="m441.77 214.85h39.62v-16.11h-39.62z" style="fill:none;stroke:#9436b8;stroke-width:1.27;stroke-linecap:round;stroke-linejoin:round;stroke-miterlimit:10"/><path d="m392.74 214.25h39.62v-16.11h-39.62z" style="fill:none;stroke:#9436b8;stroke-width:1.27;stroke-linecap:round;stroke-linejoin:round;stroke-miterlimit:10"/><g style="clip-path:url(#aa)"><g style="clip-path:url(#ab)"><text style="font-size:6.91;font-family:Droid Sans" transform="matrix(1 0 0 -1 485.98 335.69)"><tspan x="0 4.29 7.6 9.92 13.23 16.86 18.41 22.07 24.99 28.14" y="0">Datablock </tspan></text></g><g style="clip-path:url(#ac)"><text style="font-size:6.91;font-family:Droid Sans" transform="matrix(1 0 0 -1 515.64 335.69)"><tspan x="0" y="0">-</tspan></text></g><g style="clip-path:url(#ad)"><text style="font-size:6.91;font-family:Droid Sans" transform="matrix(1 0 0 -1 519.26 335.69)"><tspan x="0 2.7 8.27 11.58 13.15 14.71 18.15 20.87 23.18 24.61 26.18 29.84 33.09 34.64 37.56 40.87 42.43 43.92 46.84 50.51 54.11 56.43 59.74 61.33 64.91 68.35" y="0">smallest logical container</tspan></text></g></g><g style="clip-path:url(#ae)"><g style="clip-path:url(#af)"><text style="font-size:6.94;font-family:Droid Sans" transform="matrix(1 0 0 -1 485.98 327.26)"><tspan x="0 2.1 4.18 6.6 10.25 15.81 17.22 20.74 23.89 27.49 28.99 31.31 34.98 36.47 39.99 43.52 46.67 50.26" y="0">(from 8kb to 32kb)</tspan></text></g></g><g style="fill:none;stroke-width:1.27;stroke-linecap:round;stroke-linejoin:round;stroke-miterlimit:10"><path d="m519.41 325.7-48.17-56.11" style="stroke:#bfbfbf"/><path d="m478.18 272.52-6.96-2.93 1.84 7.27" style="stroke:#bfbfbf"/><g style="stroke:#1f497d"><path d="m358.2 261.31 34.22.48"/><path d="m385.66 265.08 6.76-3.29-6.64-3.43"/><path d="m358.08 248.06 83.69-41.28"/><path d="m437.21 212.74 4.56-5.96-7.49-.07"/><path d="m357.82 233.81 35.04-27.48"/><path d="m389.62 213.1 3.24-6.77-7.35 1.49"/></g></g><g style="clip-path:url(#ag)"><g style="clip-path:url(#ah)"><text style="font-size:6.94;font-family:Droid Sans" transform="matrix(1 0 0 -1 357.12 330.43)"><tspan x="0 3.14 6.6 9.81 15.38 18.83 22.43 24.75" y="0">Segment </tspan></text></g><g style="clip-path:url(#ai)"><text style="font-size:6.94;font-family:Droid Sans" transform="matrix(1 0 0 -1 383.4 330.43)"><tspan x="0" y="0">-</tspan></text></g><g style="clip-path:url(#aj)"><text style="font-size:6.94;font-family:Droid Sans" transform="matrix(1 0 0 -1 387.1 330.43)"><tspan x="0 1.56 3.12 5.83 8.16 9.65 13.3 15.42 16.9 20.35 23.35 25.68 29.13 32.74 35.06" y="0">list of extents</tspan></text></g></g><path d="m331.44 241.73h160.46v-51.22h-160.46z" style="fill:none;stroke:#595959;stroke-width:1.27;stroke-linecap:round;stroke-linejoin:round;stroke-miterlimit:10"/><path d="m331.68 288.19h159.72v-46.34h-159.72z" style="fill:none;stroke:#595959;stroke-width:1.27;stroke-linecap:round;stroke-linejoin:round;stroke-miterlimit:10"/><g style="clip-path:url(#ak)"><g style="clip-path:url(#al)"><text style="font-size:6.94;font-family:Droid Sans" transform="matrix(1 0 0 -1 321.72 156.41)"><tspan x="0 4.29 7.61 9.93 13.25 15.37 16.94 18.53 21.99 24.7" y="0">Datafiles </tspan></text></g><g style="clip-path:url(#am)"><text style="font-size:6.94;font-family:Droid Sans" transform="matrix(1 0 0 -1 347.86 156.41)"><tspan x="0" y="0">-</tspan></text></g><g style="clip-path:url(#an)"><text style="font-size:6.94;font-family:Droid Sans" transform="matrix(1 0 0 -1 351.55 156.41)"><tspan x="0 2.93 6.62 10.26 12.58 15.88 17.48 21.09 23.8 25.32 28.03 31.48 34.65 38.1 40.52 43.81 45.41 46.84 50.29 53.3 55.62 59.07 62.72 65.04" y="0">contains several extents</tspan></text></g></g><g style="clip-path:url(#ao)"><g style="clip-path:url(#ap)"><text style="font-size:6.94;font-family:Droid Sans" transform="matrix(1 0 0 -1 321.72 147.96)"><tspan x="0 3.18 6.1 9.74 13.19 18.73 22.06 23.5 27.19 30.83 32.49 35.94 38.86 41.18 43.89 45.41 48.34 51.67 55.27 56.79 59.5 63.14 66.43 70.07 71.64 74.35 77.81 80.97 84.42 86.85 90.14 91.74 93.16 96.81 100.1 102.42 105.75 107.86 109.46 111.02 114.47" y="0">Schema objects can span several datafiles</tspan></text></g></g><g style="fill:none;stroke-width:1.27;stroke-linecap:round;stroke-linejoin:round;stroke-miterlimit:10;stroke:#bfbfbf"><path d="m344.26 161.14 17.73 29.73"/><path d="m355.66 186.82 6.33 4.05-.55-7.46"/></g></g></svg>