<?xml version="1.0" encoding="UTF-8" standalone="no"?>
<svg
   xmlns:dc="http://purl.org/dc/elements/1.1/"
   xmlns:cc="http://creativecommons.org/ns#"
   xmlns:rdf="http://www.w3.org/1999/02/22-rdf-syntax-ns#"
   xmlns:svg="http://www.w3.org/2000/svg"
   xmlns="http://www.w3.org/2000/svg"
   viewBox="0 0 690.11005 227.62438"
   height="227.62437"
   width="690.11005"
   xml:space="preserve"
   version="1.1"
   id="svg2"><metadata
     id="metadata8"><rdf:RDF><cc:Work
         rdf:about=""><dc:format>image/svg+xml</dc:format><dc:type
           rdf:resource="http://purl.org/dc/dcmitype/StillImage" /><dc:title></dc:title></cc:Work></rdf:RDF></metadata><defs
     id="defs6"><clipPath
       clipPathUnits="userSpaceOnUse"
       id="clipPath58"><path
         d="m 456.05,723.05 81.912,0 0,12.936 -81.912,0 0,-12.936 z"
         id="path60"
         style="clip-rule:evenodd" /></clipPath><clipPath
       clipPathUnits="userSpaceOnUse"
       id="clipPath66"><path
         d="m 456.05,723.17 81.912,0 0,12.816 -81.912,0 0,-12.816 z"
         id="path68"
         style="clip-rule:evenodd" /></clipPath><clipPath
       clipPathUnits="userSpaceOnUse"
       id="clipPath78"><path
         d="m 456.05,689.3 99.192,0 0,12.936 -99.192,0 0,-12.936 z"
         id="path80"
         style="clip-rule:evenodd" /></clipPath><clipPath
       clipPathUnits="userSpaceOnUse"
       id="clipPath86"><path
         d="m 456.05,689.42 99.192,0 0,12.816 -99.192,0 0,-12.816 z"
         id="path88"
         style="clip-rule:evenodd" /></clipPath><clipPath
       clipPathUnits="userSpaceOnUse"
       id="clipPath98"><path
         d="m 457.2,556.03 121.37,0 0,12.936 -121.37,0 0,-12.936 z"
         id="path100"
         style="clip-rule:evenodd" /></clipPath><clipPath
       clipPathUnits="userSpaceOnUse"
       id="clipPath106"><path
         d="m 457.2,556.15 121.37,0 0,12.816 -121.37,0 0,-12.816 z"
         id="path108"
         style="clip-rule:evenodd" /></clipPath><clipPath
       clipPathUnits="userSpaceOnUse"
       id="clipPath128"><path
         d="m 460.06,660.72 125.83,0 0,12.912 -125.83,0 0,-12.912 z"
         id="path130"
         style="clip-rule:evenodd" /></clipPath><clipPath
       clipPathUnits="userSpaceOnUse"
       id="clipPath136"><path
         d="m 460.06,660.82 125.83,0 0,12.816 -125.83,0 0,-12.816 z"
         id="path138"
         style="clip-rule:evenodd" /></clipPath><clipPath
       clipPathUnits="userSpaceOnUse"
       id="clipPath148"><path
         d="m 460.63,633.05 135,0 0,12.936 -135,0 0,-12.936 z"
         id="path150"
         style="clip-rule:evenodd" /></clipPath><clipPath
       clipPathUnits="userSpaceOnUse"
       id="clipPath156"><path
         d="m 460.63,633.17 135,0 0,12.816 -135,0 0,-12.816 z"
         id="path158"
         style="clip-rule:evenodd" /></clipPath><clipPath
       clipPathUnits="userSpaceOnUse"
       id="clipPath168"><path
         d="m 460.63,608.28 84.432,0 0,12.936 -84.432,0 0,-12.936 z"
         id="path170"
         style="clip-rule:evenodd" /></clipPath><clipPath
       clipPathUnits="userSpaceOnUse"
       id="clipPath176"><path
         d="m 460.63,608.4 84.432,0 0,12.816 -84.432,0 0,-12.816 z"
         id="path178"
         style="clip-rule:evenodd" /></clipPath><clipPath
       clipPathUnits="userSpaceOnUse"
       id="clipPath188"><path
         d="m 460.63,582.67 90.024,0 0,25.728 -90.024,0 0,-25.728 z"
         id="path190"
         style="clip-rule:evenodd" /></clipPath><clipPath
       clipPathUnits="userSpaceOnUse"
       id="clipPath196"><path
         d="m 460.63,595.58 90.024,0 0,12.816 -90.024,0 0,-12.816 z"
         id="path198"
         style="clip-rule:evenodd" /></clipPath><clipPath
       clipPathUnits="userSpaceOnUse"
       id="clipPath208"><path
         d="m 460.63,582.79 90.024,0 0,12.792 -90.024,0 0,-12.792 z"
         id="path210"
         style="clip-rule:evenodd" /></clipPath><clipPath
       clipPathUnits="userSpaceOnUse"
       id="clipPath220"><path
         d="m 61.56,785.66 170.81,0 0,19.896 -170.81,0 0,-19.896 z"
         id="path222"
         style="clip-rule:evenodd" /></clipPath><clipPath
       clipPathUnits="userSpaceOnUse"
       id="clipPath228"><path
         d="m 61.56,785.76 170.81,0 0,19.8 -170.81,0 0,-19.8 z"
         id="path230"
         style="clip-rule:evenodd" /></clipPath><clipPath
       clipPathUnits="userSpaceOnUse"
       id="clipPath240"><path
         d="m 61.56,770.57 73.2,0 0,11.784 -73.2,0 0,-11.784 z"
         id="path242"
         style="clip-rule:evenodd" /></clipPath><clipPath
       clipPathUnits="userSpaceOnUse"
       id="clipPath248"><path
         d="m 61.56,770.69 73.2,0 0,11.664 -73.2,0 0,-11.664 z"
         id="path250"
         style="clip-rule:evenodd" /></clipPath><clipPath
       clipPathUnits="userSpaceOnUse"
       id="clipPath260"><path
         d="m 138.82,770.57 36.72,0 0,11.784 -36.72,0 0,-11.784 z"
         id="path262"
         style="clip-rule:evenodd" /></clipPath><clipPath
       clipPathUnits="userSpaceOnUse"
       id="clipPath268"><path
         d="m 138.82,770.69 36.72,0 0,11.664 -36.72,0 0,-11.664 z"
         id="path270"
         style="clip-rule:evenodd" /></clipPath><clipPath
       clipPathUnits="userSpaceOnUse"
       id="clipPath280"><path
         d="m 61.56,0.336 51.024,0 0,10.752 -51.024,0 0,-10.752 z"
         id="path282"
         style="clip-rule:evenodd" /></clipPath><clipPath
       clipPathUnits="userSpaceOnUse"
       id="clipPath288"><path
         d="m 61.56,0.57599 51.024,0 0,10.512 -51.024,0 0,-10.512 z"
         id="path290"
         style="clip-rule:evenodd" /></clipPath><clipPath
       clipPathUnits="userSpaceOnUse"
       id="clipPath296"><path
         d="m 0,0.336 567.55,0 0,10.752 L 0,11.088 0,0.336 Z"
         id="path298"
         style="clip-rule:evenodd" /></clipPath><clipPath
       clipPathUnits="userSpaceOnUse"
       id="clipPath304"><path
         d="m 0,0.57599 567.55,0 0,10.512 -567.55,0 0,-10.512 z"
         id="path306"
         style="clip-rule:evenodd" /></clipPath><clipPath
       clipPathUnits="userSpaceOnUse"
       id="clipPath316"><path
         d="m 455.06,0.336 51.024,0 0,10.752 -51.024,0 0,-10.752 z"
         id="path318"
         style="clip-rule:evenodd" /></clipPath><clipPath
       clipPathUnits="userSpaceOnUse"
       id="clipPath324"><path
         d="m 455.06,0.57599 51.024,0 0,10.512 -51.024,0 0,-10.512 z"
         id="path326"
         style="clip-rule:evenodd" /></clipPath></defs><g
     id="g10"
     transform="matrix(1.25,0,0,-1.25,-65.708123,921.68938)"><g
       id="g12"><path
         d="m 69.528,736.39 360.382,0 0,-180.19 -360.382,0 0,180.19"
         style="fill:none;stroke:#ff6600;stroke-width:1.89600003;stroke-linecap:round;stroke-linejoin:round;stroke-miterlimit:10;stroke-dasharray:none;stroke-opacity:1"
         id="path14" /><path
         d="m 86.712,715.42 326.038,0 0,-62.93 -326.038,0 0,62.93"
         style="fill:none;stroke:#8db3e2;stroke-width:1.89600003;stroke-linecap:round;stroke-linejoin:round;stroke-miterlimit:10;stroke-dasharray:none;stroke-opacity:1"
         id="path16" /><path
         d="m 86.712,642.91 326.038,0 0,-66.38 -326.038,0 0,66.38"
         style="fill:none;stroke:#8db3e2;stroke-width:1.89600003;stroke-linecap:round;stroke-linejoin:round;stroke-miterlimit:10;stroke-dasharray:none;stroke-opacity:1"
         id="path18" /><path
         d="m 104.54,728.66 102.27,0 0,-159.4 -102.27,0 0,159.4"
         style="fill:none;stroke:#99cc00;stroke-width:1.89600003;stroke-linecap:round;stroke-linejoin:round;stroke-miterlimit:10;stroke-dasharray:none;stroke-opacity:1"
         id="path20" /><path
         d="m 220.42,729.74 83.64,0 0,-161.54 -83.64,0 0,161.54"
         style="fill:none;stroke:#99cc00;stroke-width:1.89600003;stroke-linecap:round;stroke-linejoin:round;stroke-miterlimit:10;stroke-dasharray:none;stroke-opacity:1"
         id="path22" /><path
         d="m 326.95,730.87 68.64,0 0,-164.11 -68.64,0 0,164.11"
         style="fill:none;stroke:#99cc00;stroke-width:1.89600003;stroke-linecap:round;stroke-linejoin:round;stroke-miterlimit:10;stroke-dasharray:none;stroke-opacity:1"
         id="path24" /><path
         d="m 121.01,693.89 34.32,0 0,-34.32 -34.32,0 0,34.32"
         style="fill:none;stroke:#ed1c24;stroke-width:1.89600003;stroke-linecap:round;stroke-linejoin:round;stroke-miterlimit:10;stroke-dasharray:none;stroke-opacity:1"
         id="path26" /><path
         d="m 172.49,711.05 17.16,0 0,-51.48 -17.16,0 0,51.48"
         style="fill:none;stroke:#ed1c24;stroke-width:1.89600003;stroke-linecap:round;stroke-linejoin:round;stroke-miterlimit:10;stroke-dasharray:none;stroke-opacity:1"
         id="path28" /><path
         d="m 455.64,728.4 -25.73,0.67"
         style="fill:none;stroke:#bfbfbf;stroke-width:1.89600003;stroke-linecap:round;stroke-linejoin:round;stroke-miterlimit:10;stroke-dasharray:none;stroke-opacity:1"
         id="path30" /><path
         d="m 439.97,723.67 -10.06,5.4 10.32,4.8"
         style="fill:none;stroke:#bfbfbf;stroke-width:1.89600003;stroke-linecap:round;stroke-linejoin:round;stroke-miterlimit:10;stroke-dasharray:none;stroke-opacity:1"
         id="path32" /><path
         d="m 455.64,694.63 -41.45,0.12"
         style="fill:none;stroke:#bfbfbf;stroke-width:1.89600003;stroke-linecap:round;stroke-linejoin:round;stroke-miterlimit:10;stroke-dasharray:none;stroke-opacity:1"
         id="path34" /><path
         d="m 424.37,689.59 -10.18,5.11 10.2,5.07"
         style="fill:none;stroke:#bfbfbf;stroke-width:1.89600003;stroke-linecap:round;stroke-linejoin:round;stroke-miterlimit:10;stroke-dasharray:none;stroke-opacity:1"
         id="path36" /><path
         d="m 456.79,666.05 -63.33,-0.63"
         style="fill:none;stroke:#bfbfbf;stroke-width:1.89600003;stroke-linecap:round;stroke-linejoin:round;stroke-miterlimit:10;stroke-dasharray:none;stroke-opacity:1"
         id="path38" /><path
         d="m 403.66,660.46 -10.23,4.96 10.13,5.21"
         style="fill:none;stroke:#bfbfbf;stroke-width:1.89600003;stroke-linecap:round;stroke-linejoin:round;stroke-miterlimit:10;stroke-dasharray:none;stroke-opacity:1"
         id="path40" /><path
         d="m 463.66,608.28 -271.71,63.5"
         style="fill:none;stroke:#bfbfbf;stroke-width:1.89600003;stroke-linecap:round;stroke-linejoin:round;stroke-miterlimit:10;stroke-dasharray:none;stroke-opacity:1"
         id="path42" /><path
         d="m 200.71,664.54 -8.76,7.24 11.09,2.64"
         style="fill:none;stroke:#bfbfbf;stroke-width:1.89600003;stroke-linecap:round;stroke-linejoin:round;stroke-miterlimit:10;stroke-dasharray:none;stroke-opacity:1"
         id="path44" /><path
         d="M 460.8,638.59 306.67,671.47"
         style="fill:none;stroke:#bfbfbf;stroke-width:1.89600003;stroke-linecap:round;stroke-linejoin:round;stroke-miterlimit:10;stroke-dasharray:none;stroke-opacity:1"
         id="path46" /><path
         d="m 315.6,664.34 -8.93,7.13 11.04,2.86"
         style="fill:none;stroke:#bfbfbf;stroke-width:1.89600003;stroke-linecap:round;stroke-linejoin:round;stroke-miterlimit:10;stroke-dasharray:none;stroke-opacity:1"
         id="path48" /><path
         d="m 459.65,560.23 -46.9,23.74"
         style="fill:none;stroke:#bfbfbf;stroke-width:1.89600003;stroke-linecap:round;stroke-linejoin:round;stroke-miterlimit:10;stroke-dasharray:none;stroke-opacity:1"
         id="path50" /><path
         d="m 419.52,574.8 -6.77,9.17 11.4,-0.07"
         style="fill:none;stroke:#bfbfbf;stroke-width:1.89600003;stroke-linecap:round;stroke-linejoin:round;stroke-miterlimit:10;stroke-dasharray:none;stroke-opacity:1"
         id="path52" /></g><g
       id="g54"><g
         id="g56"
         clip-path="url(#clipPath58)"><g
           id="g62"><g
             id="g64"
             clip-path="url(#clipPath66)"><text
               transform="matrix(1,0,0,-1,463.15,725.9)"
               style="font-size:10.53600025px;-inkscape-font-specification:Droid Sans;writing-mode:lr-tb;font-family:Droid Sans;fill-opacity:1;fill-rule:nonzero;stroke:none;font-variant:normal;font-weight:normal;fill:#000000"
               id="text70"><tspan
                 x="0 6.47964 11.526384 15.055944 20.060543 25.528728 30.575472 34.652905"
                 y="0"
                 id="tspan72">Database</tspan></text>
</g></g></g></g><g
       id="g74"><g
         id="g76"
         clip-path="url(#clipPath78)"><g
           id="g82"><g
             id="g84"
             clip-path="url(#clipPath86)"><text
               transform="matrix(1,0,0,-1,463.15,692.16)"
               style="font-size:10.53600025px;-inkscape-font-specification:Droid Sans;writing-mode:lr-tb;font-family:Droid Sans;fill-opacity:1;fill-rule:nonzero;stroke:none;font-variant:normal;font-weight:normal;fill:#000000"
               id="text90"><tspan
                 x="0 4.8044162 9.2611437 14.718792 19.965719 28.415592 33.462337 38.804089 40.963966 43.808689 46.084465 50.509583"
                 y="0"
                 id="tspan92">Schema1 : LH</tspan></text>
</g></g></g></g><g
       id="g94"><g
         id="g96"
         clip-path="url(#clipPath98)"><g
           id="g102"><g
             id="g104"
             clip-path="url(#clipPath106)"><text
               transform="matrix(1,0,0,-1,464.28,558.91)"
               style="font-size:10.53600025px;-inkscape-font-specification:Droid Sans;writing-mode:lr-tb;font-family:Droid Sans;fill-opacity:1;fill-rule:nonzero;stroke:none;font-variant:normal;font-weight:normal;fill:#000000"
               id="text110"><tspan
                 x="0 4.8044162 9.2611437 14.792544 20.039473 28.478807 33.525551 38.867306 41.743633 43.808689 49.909031 55.040066 57.674065 62.130791 69.105621 71.423546 74.078613 76.733688"
                 y="0"
                 id="tspan112">Schema2: AY,LO ...</tspan></text>
</g></g></g></g><g
       id="g114"><path
         d="m 121.97,626.98 34.32,0 0,-34.32 -34.32,0 0,34.32"
         style="fill:none;stroke:#ed1c24;stroke-width:1.89600003;stroke-linecap:round;stroke-linejoin:round;stroke-miterlimit:10;stroke-dasharray:none;stroke-opacity:1"
         id="path116" /><path
         d="m 170.59,633.55 17.16,0 0,-51.45 -17.16,0 0,51.45"
         style="fill:none;stroke:#ed1c24;stroke-width:1.89600003;stroke-linecap:round;stroke-linejoin:round;stroke-miterlimit:10;stroke-dasharray:none;stroke-opacity:1"
         id="path118" /><path
         d="M 461.93,606.58 186.55,602.81"
         style="fill:none;stroke:#bfbfbf;stroke-width:1.89600003;stroke-linecap:round;stroke-linejoin:round;stroke-miterlimit:10;stroke-dasharray:none;stroke-opacity:1"
         id="path120" /><path
         d="m 196.8,597.89 -10.25,4.92 10.11,5.23"
         style="fill:none;stroke:#bfbfbf;stroke-width:1.89600003;stroke-linecap:round;stroke-linejoin:round;stroke-miterlimit:10;stroke-dasharray:none;stroke-opacity:1"
         id="path122" /></g><g
       id="g124"><g
         id="g126"
         clip-path="url(#clipPath128)"><g
           id="g132"><g
             id="g134"
             clip-path="url(#clipPath136)"><text
               transform="matrix(1,0,0,-1,467.14,663.58)"
               style="font-size:10.51200008px;-inkscape-font-specification:Droid Sans;writing-mode:lr-tb;font-family:Droid Sans;fill-opacity:1;fill-rule:nonzero;stroke:none;font-variant:normal;font-weight:normal;fill:#000000"
               id="text140"><tspan
                 x="0 5.1508799 10.186128 15.704928 18.091152 23.357664 27.467855 32.986656 38.021904 42.468479 47.756016 50.625793 52.812286 58.898735 61.54776 67.255775 69.631485 75.150291 77.568047 82.47715 84.852867 88.416435 93.451683 98.970482 101.3567"
                 y="0"
                 id="tspan142">Tablespace: AIR big table</tspan></text>
</g></g></g></g><g
       id="g144"><g
         id="g146"
         clip-path="url(#clipPath148)"><g
           id="g152"><g
             id="g154"
             clip-path="url(#clipPath156)"><text
               transform="matrix(1,0,0,-1,467.71,635.93)"
               style="font-size:10.53600025px;-inkscape-font-specification:Droid Sans;writing-mode:lr-tb;font-family:Droid Sans;fill-opacity:1;fill-rule:nonzero;stroke:none;font-variant:normal;font-weight:normal;fill:#000000"
               id="text160"><tspan
                 x="0 5.131032 10.177776 15.709176 18.100847 23.347776 27.467352 32.998753 38.045498 42.502224 47.749153 50.5728 52.785358 58.885704 61.498631 67.219681 69.621887 73.741463 82.21241 87.259155 89.682434 92.053032 94.233986 97.763542 102.81029 108.34169 110.72282 115.96975"
                 y="0"
                 id="tspan162">Tablespace: AIR small tables</tspan></text>
</g></g></g></g><g
       id="g164"><g
         id="g166"
         clip-path="url(#clipPath168)"><g
           id="g172"><g
             id="g174"
             clip-path="url(#clipPath176)"><text
               transform="matrix(1,0,0,-1,467.71,611.14)"
               style="font-size:10.53600025px;-inkscape-font-specification:Droid Sans;writing-mode:lr-tb;font-family:Droid Sans;fill-opacity:1;fill-rule:nonzero;stroke:none;font-variant:normal;font-weight:normal;fill:#000000"
               id="text180"><tspan
                 x="0 5.131032 10.177776 15.709176 18.100847 23.347776 27.477888 29.901169 35.36935 40.869144 46.116074"
                 y="0"
                 id="tspan182">Table/index</tspan></text>
</g></g></g></g><g
       id="g184"><g
         id="g186"
         clip-path="url(#clipPath188)"><g
           id="g192"><g
             id="g194"
             clip-path="url(#clipPath196)"><text
               transform="matrix(1,0,0,-1,467.71,598.34)"
               style="font-size:10.51200008px;-inkscape-font-specification:Droid Sans;writing-mode:lr-tb;font-family:Droid Sans;fill-opacity:1;fill-rule:nonzero;stroke:none;font-variant:normal;font-weight:normal;fill:#ff0000"
               id="text200"><tspan
                 x="0 4.8250079 9.8602562 18.301392 23.536367 25.85952 29.969711 33.533279 37.201969 42.720768 47.167343 50.688866 56.207664 59.87635 65.111328 67.329361 69.747124 75.223869"
                 y="0"
                 id="tspan202">Same structure in </tspan></text>
</g></g><g
           id="g204"><g
             id="g206"
             clip-path="url(#clipPath208)"><text
               transform="matrix(1,0,0,-1,467.71,585.53)"
               style="font-size:10.51200008px;-inkscape-font-specification:Droid Sans;writing-mode:lr-tb;font-family:Droid Sans;fill-opacity:1;fill-rule:nonzero;stroke:none;font-variant:normal;font-weight:normal;fill:#ff0000"
               id="text212"><tspan
                 x="0 5.5187998 11.100672 14.622192 20.140991 22.453632 26.563824 31.031424 36.550224 41.785198 50.24736 55.282608"
                 y="0"
                 id="tspan214">both schemas</tspan></text>
</g></g></g></g><g
       id="g276"><g
         id="g278"
         clip-path="url(#clipPath280)"><g
           id="g284"><g
             id="g286"
             clip-path="url(#clipPath288)" /></g></g></g><g
       id="g312"><g
         id="g314"
         clip-path="url(#clipPath316)"><g
           id="g320"><g
             id="g322"
             clip-path="url(#clipPath324)" /></g></g></g></g></svg>