<svg height="208.65" viewBox="0 0 1280 208.65" width="1280" xml:space="preserve" xmlns="http://www.w3.org/2000/svg" xmlns:xlink="http://www.w3.org/1999/xlink"><clipPath id="a"><path d="m30.5 765.14h86.02v6.38h-86.02z" style="clip-rule:evenodd"/></clipPath><clipPath id="b"><path d="m30.5 765.19h86.02v6.34h-86.02z" style="clip-rule:evenodd"/></clipPath><clipPath id="c"><path d="m43.27 746.11h182.9v6.38h-182.9z" style="clip-rule:evenodd"/></clipPath><clipPath id="d"><path d="m43.27 746.16h182.9v6.34h-182.9z" style="clip-rule:evenodd"/></clipPath><clipPath id="e"><path d="m30.5 752.45h201.12v6.41h-201.12z" style="clip-rule:evenodd"/></clipPath><clipPath id="f"><path d="m30.5 752.5h201.12v6.36h-201.12z" style="clip-rule:evenodd"/></clipPath><clipPath id="g"><path d="m43.27 733.42h122.35v6.41h-122.35z" style="clip-rule:evenodd"/></clipPath><clipPath id="h"><path d="m43.27 733.46h122.35v6.36h-122.35z" style="clip-rule:evenodd"/></clipPath><clipPath id="i"><path d="m30.5 739.75h198.5v6.41h-198.5z" style="clip-rule:evenodd"/></clipPath><clipPath id="j"><path d="m30.5 739.82h198.5v6.34h-198.5z" style="clip-rule:evenodd"/></clipPath><clipPath id="k"><path d="m43.27 720.72h188.35v6.41h-188.35z" style="clip-rule:evenodd"/></clipPath><clipPath id="l"><path d="m43.27 720.79h188.35v6.34h-188.35z" style="clip-rule:evenodd"/></clipPath><clipPath id="m"><path d="m43.27 720.79h188.35v6.34h-188.35z" style="clip-rule:evenodd"/></clipPath><clipPath id="n"><path d="m43.27 714.38h179.4v6.41h-179.4z" style="clip-rule:evenodd"/></clipPath><clipPath id="o"><path d="m43.27 714.43h179.4v6.36h-179.4z" style="clip-rule:evenodd"/></clipPath><clipPath id="p"><path d="m30.5 727.08h201.12v6.38h-201.12z" style="clip-rule:evenodd"/></clipPath><clipPath id="q"><path d="m30.5 727.13h201.12v6.34h-201.12z" style="clip-rule:evenodd"/></clipPath><clipPath id="r"><path d="m30.5 727.13h201.12v6.34h-201.12z" style="clip-rule:evenodd"/></clipPath><clipPath id="s"><path d="m43.27 701.69h188.35v6.41h-188.35z" style="clip-rule:evenodd"/></clipPath><clipPath id="t"><path d="m43.27 701.76h188.35v6.34h-188.35z" style="clip-rule:evenodd"/></clipPath><clipPath id="u"><path d="m43.27 695.35h139.87v6.41h-139.87z" style="clip-rule:evenodd"/></clipPath><clipPath id="v"><path d="m43.27 695.4h139.87v6.36h-139.87z" style="clip-rule:evenodd"/></clipPath><clipPath id="w"><path d="m30.5 708.05h201.12v6.38h-201.12z" style="clip-rule:evenodd"/></clipPath><clipPath id="x"><path d="m30.5 708.1h201.12v6.34h-201.12z" style="clip-rule:evenodd"/></clipPath><clipPath id="y"><path d="m43.27 682.66h170.04v6.41h-170.04z" style="clip-rule:evenodd"/></clipPath><clipPath id="z"><path d="m43.27 682.73h170.04v6.34h-170.04z" style="clip-rule:evenodd"/></clipPath><clipPath id="A"><path d="m43.27 682.73h170.04v6.34h-170.04z" style="clip-rule:evenodd"/></clipPath><clipPath id="B"><path d="m30.5 689.02h201.12v6.38h-201.12z" style="clip-rule:evenodd"/></clipPath><clipPath id="C"><path d="m30.5 689.06h201.12v6.34h-201.12z" style="clip-rule:evenodd"/></clipPath><clipPath id="D"><path d="m243.14 760.87h57.22v6.41h-57.22z" style="clip-rule:evenodd"/></clipPath><clipPath id="E"><path d="m243.14 760.94h57.22v6.34h-57.22z" style="clip-rule:evenodd"/></clipPath><clipPath id="F"><path d="m243.14 748.2h56.35v6.41h-56.35z" style="clip-rule:evenodd"/></clipPath><clipPath id="G"><path d="m243.14 748.25h56.35v6.36h-56.35z" style="clip-rule:evenodd"/></clipPath><clipPath id="H"><path d="m243.14 741.84h84.6v6.41h-84.6z" style="clip-rule:evenodd"/></clipPath><clipPath id="I"><path d="m243.14 741.91h84.6v6.34h-84.6z" style="clip-rule:evenodd"/></clipPath><clipPath id="J"><path d="m243.14 735.5h69.29v6.41h-69.29z" style="clip-rule:evenodd"/></clipPath><clipPath id="K"><path d="m243.14 735.55h69.29v6.36h-69.29z" style="clip-rule:evenodd"/></clipPath><clipPath id="L"><path d="m243.14 729.17h78.91v6.41h-78.91z" style="clip-rule:evenodd"/></clipPath><clipPath id="M"><path d="m243.14 729.22h78.91v6.36h-78.91z" style="clip-rule:evenodd"/></clipPath><clipPath id="N"><path d="m243.14 729.22h78.91v6.36h-78.91z" style="clip-rule:evenodd"/></clipPath><clipPath id="O"><path d="m243.14 729.22h78.91v6.36h-78.91z" style="clip-rule:evenodd"/></clipPath><clipPath id="P"><path d="m243.14 729.22h78.91v6.36h-78.91z" style="clip-rule:evenodd"/></clipPath><clipPath id="Q"><path d="m243.14 729.22h78.91v6.36h-78.91z" style="clip-rule:evenodd"/></clipPath><clipPath id="R"><path d="m243.14 722.81h23.64v6.41h-23.64z" style="clip-rule:evenodd"/></clipPath><clipPath id="S"><path d="m243.14 722.88h23.64v6.34h-23.64z" style="clip-rule:evenodd"/></clipPath><clipPath id="T"><path d="m362.21 763.13h42.36v6.41h-42.36z" style="clip-rule:evenodd"/></clipPath><clipPath id="U"><path d="m362.21 763.18h42.36v6.36h-42.36z" style="clip-rule:evenodd"/></clipPath><clipPath id="V"><path d="m403.92 763.13h43.73v6.41h-43.73z" style="clip-rule:evenodd"/></clipPath><clipPath id="W"><path d="m403.92 763.18h43.73v6.36h-43.73z" style="clip-rule:evenodd"/></clipPath><clipPath id="X"><path d="m445.37 763.13h42.82v6.41h-42.82z" style="clip-rule:evenodd"/></clipPath><clipPath id="Y"><path d="m445.37 763.18h42.82v6.36h-42.82z" style="clip-rule:evenodd"/></clipPath><clipPath id="Z"><path d="m486.24 763.13h43.49v6.41h-43.49z" style="clip-rule:evenodd"/></clipPath><clipPath id="aa"><path d="m486.24 763.18h43.49v6.36h-43.49z" style="clip-rule:evenodd"/></clipPath><clipPath id="ab"><path d="m529.08 763.13h44.35v6.41h-44.35z" style="clip-rule:evenodd"/></clipPath><clipPath id="ac"><path d="m529.08 763.18h44.35v6.36h-44.35z" style="clip-rule:evenodd"/></clipPath><clipPath id="ad"><path d="m362.21 754.42h38.9v6.41h-38.9z" style="clip-rule:evenodd"/></clipPath><clipPath id="ae"><path d="m362.21 754.49h38.9v6.34h-38.9z" style="clip-rule:evenodd"/></clipPath><clipPath id="af"><path d="m403.92 748.08h42.07v12.74h-42.07z" style="clip-rule:evenodd"/></clipPath><clipPath id="ag"><path d="m403.92 754.49h42.07v6.34h-42.07z" style="clip-rule:evenodd"/></clipPath><clipPath id="ah"><path d="m403.92 748.13h42.07v6.36h-42.07z" style="clip-rule:evenodd"/></clipPath><clipPath id="ai"><path d="m445.37 748.08h41.57v12.74h-41.57z" style="clip-rule:evenodd"/></clipPath><clipPath id="aj"><path d="m445.37 754.49h41.57v6.34h-41.57z" style="clip-rule:evenodd"/></clipPath><clipPath id="ak"><path d="m445.37 748.13h41.57v6.36h-41.57z" style="clip-rule:evenodd"/></clipPath><clipPath id="al"><path d="m486.24 748.08h43.54v12.74h-43.54z" style="clip-rule:evenodd"/></clipPath><clipPath id="am"><path d="m486.24 754.49h43.54v6.34h-43.54z" style="clip-rule:evenodd"/></clipPath><clipPath id="an"><path d="m486.24 748.13h43.54v6.36h-43.54z" style="clip-rule:evenodd"/></clipPath><clipPath id="ao"><path d="m529.08 748.08h44.35v12.74h-44.35z" style="clip-rule:evenodd"/></clipPath><clipPath id="ap"><path d="m529.08 754.49h44.35v6.34h-44.35z" style="clip-rule:evenodd"/></clipPath><clipPath id="aq"><path d="m529.08 748.13h44.35v6.36h-44.35z" style="clip-rule:evenodd"/></clipPath><clipPath id="ar"><path d="m362.21 733.03h42.36v12.77h-42.36z" style="clip-rule:evenodd"/></clipPath><clipPath id="as"><path d="m362.21 739.44h42.36v6.36h-42.36z" style="clip-rule:evenodd"/></clipPath><clipPath id="at"><path d="m362.21 733.08h42.36v6.36h-42.36z" style="clip-rule:evenodd"/></clipPath><clipPath id="au"><path d="m403.92 733.03h42.07v12.77h-42.07z" style="clip-rule:evenodd"/></clipPath><clipPath id="av"><path d="m403.92 739.44h42.07v6.36h-42.07z" style="clip-rule:evenodd"/></clipPath><clipPath id="aw"><path d="m403.92 733.08h42.07v6.36h-42.07z" style="clip-rule:evenodd"/></clipPath><clipPath id="ax"><path d="m445.37 733.03h41.57v12.77h-41.57z" style="clip-rule:evenodd"/></clipPath><clipPath id="ay"><path d="m445.37 739.44h41.57v6.36h-41.57z" style="clip-rule:evenodd"/></clipPath><clipPath id="az"><path d="m445.37 733.08h41.57v6.36h-41.57z" style="clip-rule:evenodd"/></clipPath><clipPath id="aA"><path d="m486.24 733.03h43.54v12.77h-43.54z" style="clip-rule:evenodd"/></clipPath><clipPath id="aB"><path d="m486.24 739.44h43.54v6.36h-43.54z" style="clip-rule:evenodd"/></clipPath><clipPath id="aC"><path d="m486.24 733.08h43.54v6.36h-43.54z" style="clip-rule:evenodd"/></clipPath><clipPath id="aD"><path d="m529.08 733.03h44.35v12.77h-44.35z" style="clip-rule:evenodd"/></clipPath><clipPath id="aE"><path d="m529.08 739.44h44.35v6.36h-44.35z" style="clip-rule:evenodd"/></clipPath><clipPath id="aF"><path d="m529.08 733.08h44.35v6.36h-44.35z" style="clip-rule:evenodd"/></clipPath><clipPath id="aG"><path d="m362.21 717.98h44.74v12.77h-44.74z" style="clip-rule:evenodd"/></clipPath><clipPath id="aH"><path d="m362.21 724.39h44.74v6.36h-44.74z" style="clip-rule:evenodd"/></clipPath><clipPath id="aI"><path d="m362.21 718.06h44.74v6.34h-44.74z" style="clip-rule:evenodd"/></clipPath><clipPath id="aJ"><path d="m403.92 717.98h42.14v12.77h-42.14z" style="clip-rule:evenodd"/></clipPath><clipPath id="aK"><path d="m403.92 724.39h42.14v6.36h-42.14z" style="clip-rule:evenodd"/></clipPath><clipPath id="aL"><path d="m403.92 718.06h42.14v6.34h-42.14z" style="clip-rule:evenodd"/></clipPath><clipPath id="aM"><path d="m445.37 717.98h42.58v12.77h-42.58z" style="clip-rule:evenodd"/></clipPath><clipPath id="aN"><path d="m445.37 724.39h42.58v6.36h-42.58z" style="clip-rule:evenodd"/></clipPath><clipPath id="aO"><path d="m445.37 718.06h42.58v6.34h-42.58z" style="clip-rule:evenodd"/></clipPath><clipPath id="aP"><path d="m486.24 717.98h43.54v12.77h-43.54z" style="clip-rule:evenodd"/></clipPath><clipPath id="aQ"><path d="m486.24 724.39h43.54v6.36h-43.54z" style="clip-rule:evenodd"/></clipPath><clipPath id="aR"><path d="m486.24 718.06h43.54v6.34h-43.54z" style="clip-rule:evenodd"/></clipPath><clipPath id="aS"><path d="m529.08 717.98h47.93v12.77h-47.93z" style="clip-rule:evenodd"/></clipPath><clipPath id="aT"><path d="m529.08 724.39h47.86v6.36h-47.86z" style="clip-rule:evenodd"/></clipPath><clipPath id="aU"><path d="m529.08 718.06h47.86v6.34h-47.86z" style="clip-rule:evenodd"/></clipPath><clipPath id="aV"><path d="m362.21 702.96h44.23v12.74h-44.23z" style="clip-rule:evenodd"/></clipPath><clipPath id="aW"><path d="m362.21 709.37h44.23v6.34h-44.23z" style="clip-rule:evenodd"/></clipPath><clipPath id="aX"><path d="m362.21 703.01h44.23v6.36h-44.23z" style="clip-rule:evenodd"/></clipPath><clipPath id="aY"><path d="m403.92 702.96h42.07v12.74h-42.07z" style="clip-rule:evenodd"/></clipPath><clipPath id="aZ"><path d="m403.92 709.37h42.07v6.34h-42.07z" style="clip-rule:evenodd"/></clipPath><clipPath id="a0"><path d="m403.92 703.01h42.07v6.36h-42.07z" style="clip-rule:evenodd"/></clipPath><clipPath id="a1"><path d="m445.37 702.96h43.08v12.74h-43.08z" style="clip-rule:evenodd"/></clipPath><clipPath id="a2"><path d="m445.37 709.37h43.08v6.34h-43.08z" style="clip-rule:evenodd"/></clipPath><clipPath id="a3"><path d="m445.37 703.01h43.08v6.36h-43.08z" style="clip-rule:evenodd"/></clipPath><clipPath id="a4"><path d="m486.24 702.96h43.54v12.74h-43.54z" style="clip-rule:evenodd"/></clipPath><clipPath id="a5"><path d="m486.24 709.37h43.54v6.34h-43.54z" style="clip-rule:evenodd"/></clipPath><clipPath id="a6"><path d="m486.24 703.01h43.54v6.36h-43.54z" style="clip-rule:evenodd"/></clipPath><clipPath id="a7"><path d="m529.08 702.96h47.93v12.74h-47.93z" style="clip-rule:evenodd"/></clipPath><clipPath id="a8"><path d="m529.08 709.37h47.86v6.34h-47.86z" style="clip-rule:evenodd"/></clipPath><clipPath id="a9"><path d="m529.08 703.01h47.86v6.36h-47.86z" style="clip-rule:evenodd"/></clipPath><clipPath id="ba"><path d="m301.82 707.02h65.59v6.41h-65.59z" style="clip-rule:evenodd"/></clipPath><clipPath id="bb"><path d="m301.82 707.09h65.59v6.34h-65.59z" style="clip-rule:evenodd"/></clipPath><g transform="matrix(1.25 0 0 -1.25 -42.6 1062.18)"><path d="m520.99 784.4v-55.89h19.36" style="fill:none;stroke:#008000;stroke-width:1.27;stroke-linecap:round;stroke-linejoin:round;stroke-miterlimit:10"/><g style="clip-path:url(#a)" transform="matrix(1.89 0 0 1.89 -30.49 -610.75)"><g style="clip-path:url(#b)"><text style="font-weight:bold;font-size:5.21;font-family:Droid Sans" transform="matrix(1 0 0 -1 34.03 766.56)"><tspan x="0 3.29 6.05 9.95 11.08 12.89 15.64 16.82 19.58 22.18 23.98 26.57 28.43 32.66 33.97 36.73 39.33 40.46 43 44.17 46.25 49.02 51.56 53.43 56.19 57.32 59.82 62.41" y="0">How to determine a shard key</tspan></text></g></g><g style="clip-path:url(#c)" transform="matrix(1.89 0 0 1.89 -30.49 -610.75)"><g style="clip-path:url(#d)"><text style="font-size:5.21;font-family:Droid Sans" transform="matrix(1 0 0 -1 46.78 747.53)"><tspan x="0 2.78 5.51 8.24 10.98 13.36 15.4 16.6 19.38 20.97 22.09 24.83 27.61 29.81 31.85 32.94 34.97 37.71 40.2 42.02 43.22 45.96 48.41 49.6 51.35 54.08 56.7 57.89 59.93 62.42 66.62 69.23 70.31 72.68 75.17 76.37 79.1 81.72 82.85 86.59 87.79 88.98 90.18 91.32 93.77 96.37 98.12 99.25 101.99 103.19 105.64 108.09 110.7 112.51 113.72 116.21 118.95 121.68 122.88 125.08 127.58 130.31 133.04 135.83 137.57 138.71 141.44 144.06 145.19 147.22 149.96 152.45 154.27 157.01 159.63" y="0">Chunks of docs sharing the same value will get bigger and cannot be sharded</tspan></text></g></g><g style="clip-path:url(#e)" transform="matrix(1.89 0 0 1.89 -30.49 -610.75)"><g style="clip-path:url(#f)"><text style="font-size:5.21;font-family:Droid Sans" transform="matrix(1 0 0 -1 34.03 753.86)"><tspan x="0 2.76 5.25 7.06 9.77 10.95 13.66 16.16 17.33 18.51 20.25 22.63 23.76 25.18 26.31 29.02 31.76 35.49 36.63 40.79 43.29 46.01 48.38 49.43 52.15 54.89 57.11 59.82 63.99 66.58 69.31 71.06 73.09 74.15 78.31 80.82 83.53 84.66 86.41 89.17 90.3 92.79 93.97 96 98.72 101.22 103.02 105.73 106.86 109.23 111.83 114.2 115.33 117.7 120.2 121.37 124.09 126.68 127.8 130.22 131.36 132.65 134.24 135.42 137.16 139.92 142.66 143.74 147.9 150.4 153.12 155.48 156.54 159.26 162 164.22 166.25 167.39 171.55 174.05 175.8 178 180.73" y="0">Cardinality : how many documents map to a shard key value ? If too many docs match,</tspan></text></g></g><g style="clip-path:url(#g)" transform="matrix(1.89 0 0 1.89 -30.49 -610.75)"><g style="clip-path:url(#h)"><text style="font-size:5.21;font-family:Droid Sans" transform="matrix(1 0 0 -1 46.78 734.83)"><tspan x="0 2.78 5.27 8 10.74 13.53 15.28 16.41 20.6 23.1 25.47 28.09 29.16 30.91 33.4 35.22 37.67 40.29 42.04 44.66 47.39 48.48 51.21 53.94 56.56 58.38 59.57 62.19 64.23 65.43 67.02 69.79 71.61 72.75 74.56 77.06 79.79 82.24 84.86 85.99 88.72 91.46 94.07 95.89 97.09 99.71" y="0">Cannot make targeted queries for range queries</tspan></text></g></g><g style="clip-path:url(#i)" transform="matrix(1.89 0 0 1.89 -30.49 -610.75)"><g style="clip-path:url(#j)"><text style="font-size:5.21;font-family:Droid Sans" transform="matrix(1 0 0 -1 34.03 741.17)"><tspan x="0 1.3 4.01 6.72 9.32 11.57 12.7 13.87 16.62 18.84 21.33 22.51 23.69 25.43 27.81 28.87 30.28 31.46 34.66 37.42 38.48 40.68 43.45 46.16 47.9 49.1 51.51 54.23 56.97 59.7 61.74 62.87 65.24 67.83 70.2 72.24 73.3 74.47 77.19 78.36 80.86 83.57 84.75 85.93 88.64 91.35 93.95 96.2 97.33 99.82 101.62 104.22 105.34 106.52 109.26 111.48 113.98 115.72 118.32 121.05 122.09 123.27 125.98 127.16 128.9 131.62 134.22 135.39 137.43 139.92 144.09 146.69 147.74 149.78 152.49 154.98 156.79 159.5 160.68 163.09 164.23 165.53 167.11 168.29 171 173.74 175.5" y="0">Index locality : Do contiguous keys in an index are located in the same shard ? If not,</tspan></text></g></g><g style="clip-path:url(#k)" transform="matrix(1.89 0 0 1.89 -30.49 -610.75)"><g style="clip-path:url(#l)"><text style="font-size:5.21;font-family:Droid Sans" transform="matrix(1 0 0 -1 46.78 722.14)"><tspan x="0 3.02 4.19 6.23 8.96 11.7 13.75 16.36 18.1 19.24 22.02 23.61 24.73 26.48 29.21 31.83 32.96 35 37.73 40.23 42.04 44.78" y="0">A subset of the shards</tspan></text></g><g style="clip-path:url(#m)"><text style="font-size:5.21;font-family:Droid Sans" transform="matrix(1 0 0 -1 94.75 722.14)"><tspan x="0 1.58 4.07 6.45 9.23 10.43 13.17 14.25 16.29 18.78 20.52 23.26 25.09 27.7 28.83 31.57 34.18 35.92 39.67 42.45 44.27 46.64 47.73 51.47 52.67 54.41 57.15 58.29 61.02 63.06 65.67 66.87 69.49 71.52 73.56 74.69 76.44 78.26 80.75 82.34 83.93 85.12 87.33 88.92 90 92.44 93.63 96.18 98.45 99.58 101.95 104.57 106.94 109.55 111.75 114.54 117.27 120.01 121.75 123.58" y="0">(avoid sature network with useless traffic) ? Ex key=country</tspan></text></g><path d="m46.78 721.3h46.78v.34h-46.78z" style="fill-rule:evenodd"/></g><g style="clip-path:url(#n)" transform="matrix(1.89 0 0 1.89 -30.49 -610.75)"><g style="clip-path:url(#o)"><text style="font-size:5.21;font-family:Droid Sans" transform="matrix(1 0 0 -1 46.78 715.8)"><tspan x="0 2.39 5.12 7.62 9.44 12.17 13.36 15.4 18.13 19.33 20.53 22.29 23.48 26.21 28.59 29.72 31.92 34.71 37.44 39.18 40.38 43.12 45.74 48.48 50.22 51.52 52.61 55.1 56.3 59.03 61.77 64.38 66.2 68.57 69.7 71.45 74.23 75.36 77.82 80.42 82.17 83.3 86.04 88.82 91.02 93.06 94.19 95.78 98.56 100.37 101.51 104 105.13 107.34 110.12 112.86 115.59 117.34 119.16 121.53 122.66 124.48 127.27 130 131.75 134.37 136.4 137.49 139.23 142.02 143.15 145.81 146.94 148.97 151.71 154.2 156.02" y="0">Shard split by continent, a query to get docs for a country routes to 1 shard</tspan></text></g></g><g style="clip-path:url(#p)" transform="matrix(1.89 0 0 1.89 -30.49 -610.75)"><g style="clip-path:url(#q)"><text style="font-size:5.21;font-family:Droid Sans" transform="matrix(1 0 0 -1 34.03 728.5)"><tspan x="0 2.54 5.03 6.85 9.27 11.86 13.6 16.2 18.92 19.97 22.69 25.4 27.99 29.79 30.97 33.56 35.6 36.77 38.19 39.32 42.03 44.77 45.92 47.72 50.31 52.74 55.45 56.63 59.12 60.92 62.1 64.59 66.8 69 71.59 73.63 75.68 76.73 79.45 81.94 83.69 85.44 88.04 89.83 92.55 94.58 95.71 97.51 100.11 102.14 104.86 106.03 107.78 108.91 110.09 112.81" y="0">Targeted queries : do regular access patterns result in </tspan></text></g><g style="clip-path:url(#r)"><text style="font-size:5.21;font-family:Droid Sans" transform="matrix(1 0 0 -1 148.56 728.5)"><tspan x="0 2.71 5.43 8.02 9.82 10.99 13.59 15.62 16.75 18.5 21.23 23.73 25.47 26.59 28.8 31.29 34.01 35.19 37.9 40.49 41.62 43.42 46.16 48.9 50.64 53.24 55.95 57.08 58.82 61.58 62.71 65.46 68.19 69.36" y="0">queries that can be routed to only</tspan></text></g><path d="m148.56 727.63h72.07v.34h-72.07z" style="fill-rule:evenodd"/></g><g style="clip-path:url(#s)" transform="matrix(1.89 0 0 1.89 -30.49 -610.75)"><g style="clip-path:url(#t)"><text style="font-size:5.21;font-family:Droid Sans" transform="matrix(1 0 0 -1 46.78 703.1)"><tspan x="0 4.65 6.47 7.67 9.42 12.03 13.16 15.89 17.09 19.13 20.87 22.71 23.9 26.64 29.37 31.12 33.74 36.48 37.61 40.1 44.3 47.08 49.81 52.27 53.35 55.38 58.12 60.61 62.43 65.16 67.21 68.41 70.85 71.98 74.52 76.8 77.93 79.13 80.71 81.91 84.64 86.68 87.87 90.61 93.06 94.26 96.75 99.49 100.69 101.88 104.62 106.82 108.64 111.26 115.46 118.07 120.8 122.54 125.04 126.24 127.33 128.63 131.86 132.99 135.49 138.22 140.95 142.15 144.19 146.92 149.42 151.24 153.97 156.02 157.21 159.25 160.99 163.79 165.6 168.22 169.3" y="0">Write distributed among shards ? Ex if using an incremental ID and shards store a</tspan></text></g></g><g style="clip-path:url(#u)" transform="matrix(1.89 0 0 1.89 -30.49 -610.75)"><g style="clip-path:url(#v)"><text style="font-size:5.23;font-family:Droid Sans" transform="matrix(1 0 0 -1 46.78 696.77)"><tspan x="0 2.84 5.33 8.07 10.51 13.12 14.26 17.04 18.63 19.75 22.11 24.62 25.82 28.57 31.17 33.22 34.34 36.09 38.84 41.44 44.19 45.3 47.81 48.99 51.04 52.24 54.99 57.43 58.63 61.24 62.44 64.48 67.22 69.72 71.55 74.27 75.4 79.14 80.35 81.55 82.75 83.94 86.4 89.01 90.76 91.89 94.4 95.6 96.79 97.98 99.73 102.48 105.08 106.21 109.95 111.78 112.98 114.73 117.34" y="0">Range of values then a single shard will get all the writes</tspan></text></g></g><g style="clip-path:url(#w)" transform="matrix(1.89 0 0 1.89 -30.49 -610.75)"><g style="clip-path:url(#x)"><text style="font-size:5.21;font-family:Droid Sans" transform="matrix(1 0 0 -1 34.03 709.46)"><tspan x="0 2.83 5.33 6.5 9 11.71 13.92 16.51 19.22 20.35 24.99 26.78 27.96 29.71 32.3 34.34 35.47 36.88 38.01 41.74 44.45 47.04 49.75 50.88 54.6 56.4 57.57 59.32 60.52 63.21 65.64 66.77 69.26 70.44 72.47 75.07 77.78 80.49 83.09 85.8 88 90.59 91.72 94.47 96.06 97.2 99.91 102.65 104.87 107.59 111.75 114.34 117.08 118.82 120.86 121.87 125.59 126.76 128.51 131.24 132.36 134.56 137.32 140.03 141.78 142.98 145.39 148.1 150.84 153.58 155.62 156.74 159.11 161.7 164.08 165.14 167.5 170 171.18 173.89 176.48 178.52 179.65 182.14 183.95" y="0">Balanced Writes : when writing a sequence of documents with contiguous key values are</tspan></text></g></g><g style="clip-path:url(#y)" transform="matrix(1.89 0 0 1.89 -30.49 -610.75)"><g style="clip-path:url(#z)"><text style="font-size:5.21;font-family:Droid Sans" transform="matrix(1 0 0 -1 46.78 684.07)"><tspan x="0 2.39 4.98 6.73 7.87 10.66 12.24 13.37 15.86 17.06 18.88 20.08 21.27 24.02 26.63 28.66 29.79 31.83 34.61" y="0">Set of airlines so </tspan></text></g><g style="clip-path:url(#A)"><text style="font-size:5.21;font-family:Droid Sans" transform="matrix(1 0 0 -1 82.51 684.07)"><tspan x="0 1.2 3.98 6.76 8.8 9.99 12.73 15.18 16.31 18.81 20 22.04 24.77 27.27 29.09 31.82 32.96 36.7 37.9 39.1 40.29 41.5 44.28 47.01 48.21 50.59 51.72 52.91 57.11 59.85 62.34 64.54 66.29 67.38 69.88 71.07 73.11 75.84 78.58 80.61 83.23 84.98 86.11 88.9 90.48 91.61 93.81 96.55 98.58 100.34 103.12 107.31 109.92 111.74" y="0">loosing a shard will only impact a subset of customers</tspan></text></g><path d="m82.51 683.23h113.62v.34h-113.62z" style="fill-rule:evenodd"/></g><g style="clip-path:url(#B)" transform="matrix(1.89 0 0 1.89 -30.49 -610.75)"><g style="clip-path:url(#C)"><text style="font-size:5.21;font-family:Droid Sans" transform="matrix(1 0 0 -1 34.03 690.43)"><tspan x="0 2.39 5.09 7.58 9.38 12.1 13.28 14.86 17.36 18.53 19.71 22.42 24.22 26.82 27.94 29.12 33.28 36.01 38.51 40.71 42.46 43.59 45 46.13 47.31 48.9 50.07 52.57 53.75 55.78 58.49 60.99 62.79 65.5 66.63 69.05 71.8 74.39 76.44 77.57 80.28 83.03 86.75 89.48 90.6 94.33 97.04 99.78 100.93 102.1 104.14 105.27 106.45 110.61 113.34 115.84 118.04 119.78 122.38 125.1 126.23 128.64 129.78 132.32 134.57 135.7 136.88 139.6 140.77 143.43 146.44 147.56 149.59 152.31 154.8 156.6 159.32 161.35 162.53 164.73 167.49 170.21 171.95 174.45 175.65 178.34 180.38 181.44" y="0">Shard failure impact : if a shard goes down who is impacted ? Ex in 1A shards contains a</tspan></text></g></g><g style="clip-path:url(#D)" transform="matrix(1.89 0 0 1.89 -30.49 -610.75)"><g style="clip-path:url(#E)"><text style="font-size:5.21;font-family:Droid Sans" transform="matrix(1 0 0 -1 246.65 762.29)"><tspan x="0 2.56 6.75 9.25 10.45 11.65 12.78 15.51 18.3 20.5 23.23 27.44 30.04 32.78 34.52" y="0">Email documents</tspan></text></g><path d="m246.65 761.45h36.53v.34h-36.53z" style="fill-rule:evenodd"/></g><g style="clip-path:url(#F)" transform="matrix(1.89 0 0 1.89 -30.49 -610.75)"><g style="clip-path:url(#G)"><text style="font-size:5.23;font-family:Droid Sans" transform="matrix(1 0 0 -1 247.85 749.62)"><tspan x="0 1.64 2.78 5.39 6.59 9.34 10.52 11.94 13.07 15.17 17.85 20.5 23.17 25.82 28.49 31.14 33.19" y="0">{ _id : "124589",</tspan></text></g></g><g style="clip-path:url(#H)" transform="matrix(1.89 0 0 1.89 -30.49 -610.75)"><g style="clip-path:url(#I)"><text style="font-size:5.21;font-family:Droid Sans" transform="matrix(1 0 0 -1 251.35 743.26)"><tspan x="0 2.04 4.77 7.5 8.75 11.37 13.57 15.32 16.46 17.87 19 21.11 23.56 24.76 27.13 29.74 30.87 35.06 37.67 38.75 40.78 43.56 47.76 50.37 51.44 54.18 56.67 59.41 61.9 64.64 67.13 69.17 71.29" y="0">subject : "give me some bananas",</tspan></text></g></g><g style="clip-path:url(#J)" transform="matrix(1.89 0 0 1.89 -30.49 -610.75)"><g style="clip-path:url(#K)"><text style="font-size:5.21;font-family:Droid Sans" transform="matrix(1 0 0 -1 251.35 736.92)"><tspan x="0 1.82 4.44 6.64 7.84 10.57 11.77 14.39 17.12 18.87 20.29 21.37 23.48 27.67 30.45 33.19 35.56 38.17 40.54 42.65" y="0">recipient: "monkey",</tspan></text></g></g><g style="clip-path:url(#L)" transform="matrix(1.89 0 0 1.89 -30.49 -610.75)"><g style="clip-path:url(#M)"><text style="font-size:5.23;font-family:Droid Sans" transform="matrix(1 0 0 -1 251.35 730.58)"><tspan x="0 2.05 4.65 7.4 9.15 11.76 14.5 16.99 18.75 21.35 22.44 23.84 24.98 27.08 29.75 32.41 35.08" y="0">sent_date : "2013</tspan></text></g><g style="clip-path:url(#N)"><text style="font-size:5.23;font-family:Droid Sans" transform="matrix(1 0 0 -1 289.06 730.58)"><tspan x="0" y="0">-</tspan></text></g><g style="clip-path:url(#O)"><text style="font-size:5.23;font-family:Droid Sans" transform="matrix(1 0 0 -1 290.66 730.58)"><tspan x="0 2.66" y="0">09</tspan></text></g><g style="clip-path:url(#P)"><text style="font-size:5.23;font-family:Droid Sans" transform="matrix(1 0 0 -1 295.99 730.58)"><tspan x="0" y="0">-</tspan></text></g><g style="clip-path:url(#Q)"><text style="font-size:5.23;font-family:Droid Sans" transform="matrix(1 0 0 -1 297.58 730.58)"><tspan x="0 2.62 5.27" y="0">20"</tspan></text></g></g><g style="clip-path:url(#R)" transform="matrix(1.89 0 0 1.89 -30.49 -610.75)"><g style="clip-path:url(#S)"><text style="font-size:5.21;font-family:Droid Sans" transform="matrix(1 0 0 -1 247.85 724.22)"><tspan x="0" y="0">}</tspan></text></g></g><g style="fill:none;stroke-width:1.27;stroke-linecap:round;stroke-linejoin:round;stroke-miterlimit:10;stroke:#3165bb"><path d="m429.14 844.85h162.94v-99.66h-162.94z"/><path d="m600.05 837.27h1.81v-99.66h-162.88v1.23"/><path d="m595.44 841.03h1.85v-99.64h-162.94v1.21"/></g><g style="clip-path:url(#T)" transform="matrix(1.89 0 0 1.89 -30.49 -610.75)"><g style="clip-path:url(#U)"><text style="font-weight:bold;font-size:5.23;font-family:Droid Sans" transform="matrix(1 0 0 -1 373.39 764.54)"><tspan x="0 2.77 5.31 7.16 9.94 11.22 13.99 16.53 17.82 19.12 20.93" y="0">Cardinality</tspan></text></g></g><g style="clip-path:url(#V)" transform="matrix(1.89 0 0 1.89 -30.49 -610.75)"><g style="clip-path:url(#W)"><text style="font-weight:bold;font-size:5.23;font-family:Droid Sans" transform="matrix(1 0 0 -1 409.61 764.54)"><tspan x="0 4.7 6.56 7.87 9.68 12.28 13.41 16.2 18.74 20.03 22.58 25.36 27.57 28.85 31.65" y="0">Write balancing</tspan></text></g></g><g style="clip-path:url(#X)" transform="matrix(1.89 0 0 1.89 -30.49 -610.75)"><g style="clip-path:url(#Y)"><text style="font-weight:bold;font-size:5.23;font-family:Droid Sans" transform="matrix(1 0 0 -1 451.37 764.54)"><tspan x="0 2.61 5.18 7.04 9.54 12.16 13.97 16.61 19.38 20.54 23.32 26.1 28.72 30.58" y="0">Targeted query</tspan></text></g></g><g style="clip-path:url(#Z)" transform="matrix(1.89 0 0 1.89 -30.49 -610.75)"><g style="clip-path:url(#aa)"><text style="font-weight:bold;font-size:5.23;font-family:Droid Sans" transform="matrix(1 0 0 -1 497.9 764.54)"><tspan x="0 2.38 4.92 6.21 7.5 8.63 9.92 14.17 16.96 19.5 21.71" y="0">Fail impact</tspan></text></g></g><g style="clip-path:url(#ab)" transform="matrix(1.89 0 0 1.89 -30.49 -610.75)"><g style="clip-path:url(#ac)"><text style="font-weight:bold;font-size:5.23;font-family:Droid Sans" transform="matrix(1 0 0 -1 538.56 764.54)"><tspan x="0 1.41 4.18 6.94 9.53 11.9 13.09 14.37 17.13 19.34 21.88 23.17 24.46 26.28" y="0">Index locality</tspan></text></g></g><g style="clip-path:url(#ad)" transform="matrix(1.89 0 0 1.89 -30.49 -610.75)"><g style="clip-path:url(#ae)"><text style="font-size:5.21;font-family:Droid Sans;fill:#00b050" transform="matrix(1 0 0 -1 365.74 755.83)"><tspan x="0 2.66 3.79 5.37 7.8 9.6 12.2 14.69 16.44" y="0">1 (great)</tspan></text></g></g><g style="clip-path:url(#af)" transform="matrix(1.89 0 0 1.89 -30.49 -610.75)"><g style="clip-path:url(#ag)"><text style="font-size:5.21;font-family:Droid Sans;fill:#f00" transform="matrix(1 0 0 -1 407.45 755.83)"><tspan x="0 2.66 3.79 6.5 9.29 12 14.61 15.74 18.45 21.06 22.86 24.04 25.22 27.93" y="0">1 node per id </tspan></text></g><g style="clip-path:url(#ah)"><text style="font-size:5.21;font-family:Droid Sans;fill:#f00" transform="matrix(1 0 0 -1 407.45 749.5)"><tspan x="0 1.8 4.3 7.01 9.43" y="0">range</tspan></text></g></g><g style="clip-path:url(#ai)" transform="matrix(1.89 0 0 1.89 -30.49 -610.75)"><g style="clip-path:url(#aj)"><text style="font-size:5.21;font-family:Droid Sans;fill:#f00" transform="matrix(1 0 0 -1 448.87 755.83)"><tspan x="0 3.29 6.07 8.85 11.58 12.67 15.4 18.13 19.91 21.1 22.92 25.42 27.23 29.86" y="0">Good but rare </tspan></text></g><g style="clip-path:url(#ak)"><text style="font-size:5.21;font-family:Droid Sans;fill:#f00" transform="matrix(1 0 0 -1 448.87 749.5)"><tspan x="0 2.49 4.7 6.9 9.52 11.56 13.59 14.68 17.42 19.91 21.69 23.46 26.07 27.88" y="0">access pattern</tspan></text></g></g><g style="clip-path:url(#al)" transform="matrix(1.89 0 0 1.89 -30.49 -610.75)"><g style="clip-path:url(#am)"><text style="font-size:5.21;font-family:Droid Sans;fill:#f00" transform="matrix(1 0 0 -1 489.74 755.83)"><tspan x="0 2.73 5.51 7.25 9.87 12.61 14.35 15.55 18.05 19.24 20.45 22.82 23.85 26.35 27.55 28.74" y="0">Potentially all </tspan></text></g><g style="clip-path:url(#an)"><text style="font-size:5.21;font-family:Droid Sans;fill:#f00" transform="matrix(1 0 0 -1 489.74 749.5)"><tspan x="0 2.73 4.77 7.38 9.2" y="0">users</tspan></text></g></g><g style="clip-path:url(#ao)" transform="matrix(1.89 0 0 1.89 -30.49 -610.75)"><g style="clip-path:url(#ap)"><text style="font-size:5.21;font-family:Droid Sans;fill:#f00" transform="matrix(1 0 0 -1 532.61 755.83)"><tspan x="0 3.29 6.04 8.79 11.52 12.59 15.31 18.02 19.76 20.94 22.76 25.25 27.05 29.64" y="0">Good but rare </tspan></text></g><g style="clip-path:url(#aq)"><text style="font-size:5.21;font-family:Droid Sans;fill:#f00" transform="matrix(1 0 0 -1 532.61 749.5)"><tspan x="0 2.49 4.7 6.9 9.49 11.53 13.58 14.66 17.37 19.86 21.61 23.36 25.96 27.75" y="0">access pattern</tspan></text></g></g><g style="clip-path:url(#ar)" transform="matrix(1.89 0 0 1.89 -30.49 -610.75)"><g style="clip-path:url(#as)"><text style="font-size:5.23;font-family:Droid Sans;fill:#f00" transform="matrix(1 0 0 -1 365.74 740.81)"><tspan x="0 4.47 6.96 9.67 12.04 13.17 14.76 17.47 19.52 22.1 23.9" y="0">Many (user </tspan></text></g><g style="clip-path:url(#at)"><text style="font-size:5.23;font-family:Droid Sans;fill:#f00" transform="matrix(1 0 0 -1 365.74 734.45)"><tspan x="0 4.18 6.69 7.85 9.03 11.74 14.49 16.76 17.83 19.88 21.05 23.09 25.69" y="0">mailbox size)</tspan></text></g></g><g style="clip-path:url(#au)" transform="matrix(1.89 0 0 1.89 -30.49 -610.75)"><g style="clip-path:url(#av)"><text style="font-size:5.23;font-family:Droid Sans;fill:#00b050" transform="matrix(1 0 0 -1 407.45 740.81)"><tspan x="0 2.85 5.33 6.5 9.01 11.71 13.92 16.53 19.24 20.37 23.15 25.86" y="0">Balanced on </tspan></text></g><g style="clip-path:url(#aw)"><text style="font-size:5.23;font-family:Droid Sans;fill:#00b050" transform="matrix(1 0 0 -1 407.45 734.45)"><tspan x="0 1.8 4.41 6.62 7.8 10.51 11.69 14.29 17.01" y="0">recipient</tspan></text></g></g><g style="clip-path:url(#ax)" transform="matrix(1.89 0 0 1.89 -30.49 -610.75)"><g style="clip-path:url(#ay)"><text style="font-size:5.23;font-family:Droid Sans" transform="matrix(1 0 0 -1 448.87 740.81)"><tspan x="0 2.4 5.01 6.21 8.83 11.04 12.8 13.95 18.15 20.66 21.86 23.05 25.09 27.36 30.1 32.49" y="0">Select mails by </tspan></text></g><g style="clip-path:url(#az)"><text style="font-size:5.23;font-family:Droid Sans" transform="matrix(1 0 0 -1 448.87 734.45)"><tspan x="0 4.2 6.7 7.91 9.09 10.24 12.07 14.68 16.89 18.09 20.84 22.04 24.65 27.39" y="0">mail recipient</tspan></text></g></g><g style="clip-path:url(#aA)" transform="matrix(1.89 0 0 1.89 -30.49 -610.75)"><g style="clip-path:url(#aB)"><text style="font-size:5.23;font-family:Droid Sans;fill:#00b050" transform="matrix(1 0 0 -1 489.74 740.81)"><tspan x="0 3.3 5.13 7.88 10.63 13.38 14.5 17.28 18.87 19.99 22.73 24.76 27.37 29.19 31.24" y="0">Group of users </tspan></text></g><g style="clip-path:url(#aC)"><text style="font-size:5.23;font-family:Droid Sans;fill:#00b050" transform="matrix(1 0 0 -1 489.74 734.45)"><tspan x="0 2.05 4.78 7.28 9.11 10.31 13.03 15.48 16.67 18.5 21.11 23.32 24.52 27.27 28.47 31.08 33.82" y="0">sharing recipient</tspan></text></g></g><g style="clip-path:url(#aD)" transform="matrix(1.89 0 0 1.89 -30.49 -610.75)"><g style="clip-path:url(#aE)"><text style="font-size:5.23;font-family:Droid Sans;fill:#f00" transform="matrix(1 0 0 -1 532.61 740.81)"><tspan x="0 3.3 6.06 8.82 11.52 12.6 15.31 18.02 19.77 20.95 22.75 25.25 27.04 29.65" y="0">Good but rare </tspan></text></g><g style="clip-path:url(#aF)"><text style="font-size:5.23;font-family:Droid Sans;fill:#f00" transform="matrix(1 0 0 -1 532.61 734.45)"><tspan x="0 2.51 4.72 6.91 9.52 11.54 13.59 14.66 17.37 19.88 21.63 23.38 25.96 27.76" y="0">access pattern</tspan></text></g></g><g style="clip-path:url(#aG)" transform="matrix(1.89 0 0 1.89 -30.49 -610.75)"><g style="clip-path:url(#aH)"><text style="font-size:5.21;font-family:Droid Sans;fill:#f00" transform="matrix(1 0 0 -1 365.74 725.76)"><tspan x="0 4.45 6.95 9.68 12.04 13.18 14.75 17.25 18.45 19.61 20.74 24.9 27.4 28.58 29.76 31.79 32.92 35.67 37.26" y="0">Many (all mails of </tspan></text></g><g style="clip-path:url(#aI)"><text style="font-size:5.21;font-family:Droid Sans;fill:#f00" transform="matrix(1 0 0 -1 365.74 719.4)"><tspan x="0 1.74 4.48 7.06 8.19 10.9 13.39 15.76" y="0">the day)</tspan></text></g></g><g style="clip-path:url(#aJ)" transform="matrix(1.89 0 0 1.89 -30.49 -610.75)"><g style="clip-path:url(#aK)"><text style="font-size:5.21;font-family:Droid Sans;fill:#f00" transform="matrix(1 0 0 -1 407.45 725.76)"><tspan x="0 2.39 4.89 9.07 11.68 12.81 15.52 18.3 21.01 23.62 24.75 27.36 29.86 32.06 34.78" y="0">Same node each </tspan></text></g><g style="clip-path:url(#aL)"><text style="font-size:5.21;font-family:Droid Sans;fill:#f00" transform="matrix(1 0 0 -1 407.45 719.4)"><tspan x="0 2.71 5.21" y="0">day</tspan></text></g></g><g style="clip-path:url(#aM)" transform="matrix(1.89 0 0 1.89 -30.49 -610.75)"><g style="clip-path:url(#aN)"><text style="font-size:5.21;font-family:Droid Sans" transform="matrix(1 0 0 -1 448.87 725.76)"><tspan x="0 2.39 5.01 6.21 8.82 11.03 12.8 13.95 18.14 20.64 21.84 23.03 25.07 26.16 28.2 30.81 33.54 35.32" y="0">Select mails sent </tspan></text></g><g style="clip-path:url(#aO)"><text style="font-size:5.21;font-family:Droid Sans" transform="matrix(1 0 0 -1 448.87 719.4)"><tspan x="0 2.73 5.13 6.28 9.02 11.51 13.29" y="0">by date</tspan></text></g></g><g style="clip-path:url(#aP)" transform="matrix(1.89 0 0 1.89 -30.49 -610.75)"><g style="clip-path:url(#aQ)"><text style="font-size:5.21;font-family:Droid Sans;fill:#f00" transform="matrix(1 0 0 -1 489.74 725.76)"><tspan x="0 2.73 5.51 7.25 9.87 12.61 14.35 15.55 18.05 19.24 20.45 22.82 23.85 26.35 27.55 28.74" y="0">Potentially all </tspan></text></g><g style="clip-path:url(#aR)"><text style="font-size:5.21;font-family:Droid Sans;fill:#f00" transform="matrix(1 0 0 -1 489.74 719.4)"><tspan x="0 2.73 4.77 7.38 9.2" y="0">users</tspan></text></g></g><g style="clip-path:url(#aS)" transform="matrix(1.89 0 0 1.89 -30.49 -610.75)"><g style="clip-path:url(#aT)"><text style="font-size:5.21;font-family:Droid Sans" transform="matrix(1 0 0 -1 532.61 725.76)"><tspan x="0 3.5 6.22 8.81 10.61 12.98 14.11 16.85 19.59 20.71 22.74 25.34 28.05 29.79 30.93 33.64 36.14 37.88 40.48" y="0">Query on sent date </tspan></text></g><g style="clip-path:url(#aU)"><text style="font-size:5.21;font-family:Droid Sans" transform="matrix(1 0 0 -1 532.61 719.4)"><tspan x="0 1.8 4.3 7.01 9.43" y="0">range</tspan></text></g></g><g style="clip-path:url(#aV)" transform="matrix(1.89 0 0 1.89 -30.49 -610.75)"><g style="clip-path:url(#aW)"><text style="font-size:5.21;font-family:Droid Sans" transform="matrix(1 0 0 -1 365.74 710.71)"><tspan x="0 2.39 4.97 8.71 9.84 11.42 13.91 15.11 16.27 17.4 21.56 24.07 25.24 26.42 28.46 29.59 32.3 34.89 36.69" y="0">Few (all mails per </tspan></text></g><g style="clip-path:url(#aX)"><text style="font-size:5.21;font-family:Droid Sans" transform="matrix(1 0 0 -1 365.74 704.38)"><tspan x="0 2.71 4.75 7.34 9.16 10.28 12.99 15.58 17.38 18.56 21.27 23.76 26.13" y="0">user per day)</tspan></text></g></g><g style="clip-path:url(#aY)" transform="matrix(1.89 0 0 1.89 -30.49 -610.75)"><g style="clip-path:url(#aZ)"><text style="font-size:5.21;font-family:Droid Sans;fill:#00b050" transform="matrix(1 0 0 -1 407.45 710.71)"><tspan x="0 2.83 5.33 6.5 9 11.71 13.92 16.53 19.24 20.37 23.15 25.87" y="0">Balanced on </tspan></text></g><g style="clip-path:url(#a0)"><text style="font-size:5.21;font-family:Droid Sans;fill:#00b050" transform="matrix(1 0 0 -1 407.45 704.38)"><tspan x="0 1.8 4.41 6.61 7.8 10.51 11.69 14.3 17.01" y="0">recipient</tspan></text></g></g><g style="clip-path:url(#a1)" transform="matrix(1.89 0 0 1.89 -30.49 -610.75)"><g style="clip-path:url(#a2)"><text style="font-size:5.21;font-family:Droid Sans;fill:#00b050" transform="matrix(1 0 0 -1 448.87 710.71)"><tspan x="0 2.39 5.01 6.21 8.82 11.03 12.8 13.95 18.14 20.64 21.84 23.03 25.07 26.16 28.89 31.29" y="0">Select mails by </tspan></text></g><g style="clip-path:url(#a3)"><text style="font-size:5.21;font-family:Droid Sans;fill:#00b050" transform="matrix(1 0 0 -1 448.87 704.38)"><tspan x="0 1.82 4.44 6.64 7.84 10.57 11.77 14.39 17.12 18.89 20.05 22.78 25.18 26.33 29.06 31.56 33.33" y="0">recipient by date</tspan></text></g></g><g style="clip-path:url(#a4)" transform="matrix(1.89 0 0 1.89 -30.49 -610.75)"><g style="clip-path:url(#a5)"><text style="font-size:5.21;font-family:Droid Sans;fill:#00b050" transform="matrix(1 0 0 -1 489.74 710.71)"><tspan x="0 3.29 5.1 7.89 10.62 13.36 14.49 17.27 18.86 19.98 22.72 24.75 27.37 29.19 31.22" y="0">Group of users </tspan></text></g><g style="clip-path:url(#a6)"><text style="font-size:5.21;font-family:Droid Sans;fill:#00b050" transform="matrix(1 0 0 -1 489.74 704.38)"><tspan x="0 2.04 4.78 7.28 9.1 10.3 13.04 15.49 16.67 18.5 21.11 23.32 24.52 27.26 28.46 31.06 33.8" y="0">sharing recipient</tspan></text></g></g><g style="clip-path:url(#a7)" transform="matrix(1.89 0 0 1.89 -30.49 -610.75)"><g style="clip-path:url(#a8)"><text style="font-size:5.21;font-family:Droid Sans;fill:#00b050" transform="matrix(1 0 0 -1 532.61 710.71)"><tspan x="0 3.5 6.22 8.81 10.61 12.98 14.11 16.85 19.59 20.71 22.74 25.34 28.05 29.79 30.93 33.64 36.14 37.88 40.48" y="0">Query on sent date </tspan></text></g><g style="clip-path:url(#a9)"><text style="font-size:5.21;font-family:Droid Sans;fill:#00b050" transform="matrix(1 0 0 -1 532.61 704.38)"><tspan x="0 1.8 4.3 7.01 9.43 12.03 13.15 15.86 18.23 19.41 21.21 23.8 26 27.18 29.89 31.07 33.66 36.37" y="0">range by recipient</tspan></text></g></g><g style="fill:none;stroke-miterlimit:10"><g style="stroke:#c6c6c6;stroke-width:.45"><path d="m657.39 715.9h397.9v130.18h-397.9z"/><path d="m657.39 829.52h397.9"/><path d="m657.39 801.17h397.9"/><path d="m657.39 772.6h397.9"/><path d="m657.39 744.25h397.9"/><path d="m736.36 846.08v-130.18"/><path d="m814.6 846.08v-130.18"/><path d="m891.72 846.08v-130.18"/><path d="m972.74 846.08v-130.18"/></g><g style="stroke-linecap:round;stroke-linejoin:round;stroke-width:1.27"><g style="stroke:#4f81bd"><path d="m500.41 809.51 156.49 9.62"/><path d="m647.96 822.95 8.94-3.82-8.39-4.8"/><path d="m522.9 784.88 134 6.41"/><path d="m648.06 795.18 8.85-3.89-8.45-4.72"/><path d="m540.04 771.46 116.86-10.17"/><path d="m648.64 766.34 8.26-5.05-9.03-3.57"/></g><g style="stroke:#008000"><path d="m539 771.46v-46.1h118.39"/><path d="m648.78 729.73 8.62-4.37-8.62-4.25"/></g></g></g><g style="clip-path:url(#ba)" transform="matrix(1.89 0 0 1.89 -30.49 -610.75)"><g style="clip-path:url(#bb)"><text style="font-size:5.21;font-family:Droid Sans" transform="matrix(1 0 0 -1 305.33 708.43)"><tspan x="0 2.78 5.56 9.75 12.49 15.27 18 20.74 23.47 24.56 26.59 29.33 31.82 33.64 36.37 37.58 39.98 42.59" y="0">Compound shard key</tspan></text></g></g></g></svg>