<svg height="300" viewBox="0 0 740.39 364.96" width="800" xmlns="http://www.w3.org/2000/svg" xmlns:xlink="http://www.w3.org/1999/xlink">
<marker id="a" orient="auto" refX="0" refY="0" style="overflow:visible">
<path d="m0 0 5-5-17.5 5 17.5 5z" style="fill:#8b008b;fill-rule:evenodd;stroke:#8b008b;stroke-width:1pt" transform="matrix(-.4 0 0 -.4 -4 0)"/>
</marker>
<marker id="b" orient="auto" refX="0" refY="0" style="overflow:visible">
<path d="m4 0 2-2-7 2 7 2z" style="fill:#8b008b;fill-rule:evenodd;stroke:#8b008b;stroke-width:.4pt"/>
</marker>
<marker id="c" orient="auto" refX="0" refY="0" style="overflow:visible">
<path d="m4 0 2-2-7 2 7 2z" style="fill:#8b008b;fill-rule:evenodd;stroke:#8b008b;stroke-width:.4pt"/>
</marker>
<marker id="d" orient="auto" refX="0" refY="0" style="overflow:visible">
<path d="m0 0 5-5-17.5 5 17.5 5z" style="fill:#8b008b;fill-rule:evenodd;stroke:#8b008b;stroke-width:1pt" transform="matrix(-.4 0 0 -.4 -4 0)"/>
</marker>
<marker id="e" orient="auto" refX="0" refY="0" style="overflow:visible">
<path d="m0 0 5-5-17.5 5 17.5 5z" style="fill:#8b008b;fill-rule:evenodd;stroke:#8b008b;stroke-width:1pt" transform="matrix(-.4 0 0 -.4 -4 0)"/>
</marker>
<marker id="f" orient="auto" refX="0" refY="0" style="overflow:visible">
<path d="m0 0 5-5-17.5 5 17.5 5z" style="fill:#ff4500;fill-rule:evenodd;stroke:#ff4500;stroke-width:1pt" transform="matrix(-.4 0 0 -.4 -4 0)"/>
</marker>
<marker id="g" orient="auto" refX="0" refY="0" style="overflow:visible">
<path d="m4 0 2-2-7 2 7 2z" style="fill:#8b008b;fill-rule:evenodd;stroke:#8b008b;stroke-width:.4pt"/>
</marker>
<marker id="h" orient="auto" refX="0" refY="0" style="overflow:visible">
<path d="m0 0 5-5-17.5 5 17.5 5z" style="fill:#ff4500;fill-rule:evenodd;stroke:#ff4500;stroke-width:1pt" transform="matrix(-.4 0 0 -.4 -4 0)"/>
</marker>
<g transform="translate(45.92 -239.26)">
<ellipse cx="266.24" cy="340.39" rx="97.65" ry="52.04" style="fill:none;stroke:#ff8c00;stroke-width:1.1"/>
<path d="m382.63 284.89-26 53.01" style="fill:#ff4500;fill-rule:evenodd;stroke:#ff4500;marker-end:url(#f)"/>
<path d="m160.32 257.52h388.21v168.47h-388.21z" style="fill:none;stroke:#ffa500;stroke-width:1.1;stroke-dasharray:6.6 2.2"/>
<g style="font-family:Droid Sans;letter-spacing:-.5;word-spacing:0">
<text x="165.16" y="268.32">
<tspan style="font-size:10" x="165.16" y="268.32">
<tspan style="font-weight:bold">Fund market</tspan>
</tspan>
</text>
<text x="212.6" y="370.95">
<tspan style="font-weight:bold;font-size:10" x="212.6" y="370.95">Debt</tspan>
<tspan style="font-size:10" x="212.6" y="380.95">- Obligation to pay later</tspan>
</text>
<text x="394.31" y="307.71">
<tspan style="font-weight:bold;font-size:10" x="394.31" y="307.71">Equity</tspan>
<tspan style="font-size:10" x="394.31" y="317.71">- Sell ownership</tspan>
<tspan style="font-size:10" x="394.31" y="327.71">- funding is NOT payed back</tspan>
</text>
</g>
<g style="fill:none">
<path d="m164.04 346.38h485.32" style="stroke:#ff4500"/>
<ellipse cx="203.2" cy="534.11" rx="64.15" ry="36.78" style="stroke:#0000cd;stroke-width:1.1"/>
<ellipse cx="440.59" cy="339.78" rx="97.65" ry="52.04" style="stroke:#ff8c00;stroke-width:1.1"/>
<path d="m264.91 280.04-.37 137.23" style="stroke:#ff4500"/>
<g style="stroke-width:1.1">
<ellipse cx="232.15" cy="330.48" rx="50.75" ry="24.5" style="stroke:#8b4513"/>
<ellipse cx="304.74" cy="346.48" rx="50.75" ry="24.5" style="stroke:#a0522d"/>
</g>
</g>
<g style="font-family:Droid Sans;letter-spacing:-.5;word-spacing:0">
<text x="568.56" y="319.98">
<tspan style="font-weight:bold;font-size:10" x="568.56" y="319.98">Primary</tspan>
<tspan style="font-size:10" x="568.56" y="329.98">- Issuer =&gt; investor</tspan>
<tspan style="font-size:10" x="568.56" y="339.98">- ex: IPO for stocks</tspan>
</text>
<text x="569.27" y="361.86">
<tspan style="font-weight:bold;font-size:10" x="569.27" y="361.86">Secondary</tspan>
<tspan style="font-size:10" x="569.27" y="371.86">- Investor &lt;=&gt; investor</tspan>
</text>
<text x="214.66" y="321.97">
<tspan style="font-size:10" x="214.66" y="321.97">Loans</tspan>
</text>
<text x="291.16" y="344.47">
<tspan style="font-size:10" x="291.16" y="344.47">Bonds</tspan>
<tspan style="font-size:10" x="291.16" y="354.47">(tradable)</tspan>
</text>
<text x="175.66" y="404.97">
<tspan style="font-size:10" x="175.66" y="404.97">Money market</tspan>
<tspan style="font-size:10" x="175.66" y="414.97">(short term &lt; 1 year)</tspan>
</text>
<text x="271.66" y="404.97">
<tspan style="font-size:10" x="271.66" y="404.97">Capital market</tspan>
<tspan style="font-size:10" x="271.66" y="414.97">(long term : 1 - 30 years)</tspan>
</text>
<text x="346.16" y="282.47">
<tspan style="font-size:10" x="346.16" y="282.47">Perpetual bonds</tspan>
</text>
</g>
<path d="m137.4 385.45 130.97-45" style="fill:#ff4500;fill-rule:evenodd;stroke:#ff4500;marker-end:url(#h)"/>
<text style="font-family:Droid Sans;letter-spacing:-.5;word-spacing:0" x="96.66" y="377.47">
<tspan style="font-size:10" x="96.66" y="377.47">Mortage based</tspan>
<tspan style="font-size:10" x="96.66" y="387.47">securities</tspan>
</text>
<path d="m357.06 463.74h290.21v120.97h-290.21z" style="fill:none;stroke:#32cd32;stroke-width:1.1;stroke-dasharray:6.6 2.2"/>
<ellipse cx="430.66" cy="535.47" rx="64.15" ry="36.78" style="fill:none;stroke:#008000;stroke-width:1.1"/>
<text style="font-family:Droid Sans;letter-spacing:-.5;word-spacing:0" x="361.66" y="475.97">
<tspan style="font-weight:bold;font-size:10" x="361.66" y="475.97">Transaction market</tspan>
<tspan style="font-size:10" x="361.66" y="485.97">- Immediate one-time exchange of goods</tspan>
</text>
<ellipse cx="575.16" cy="535.47" rx="64.15" ry="36.78" style="fill:none;stroke:#008000;stroke-width:1.1"/>
<text style="font-family:Droid Sans;letter-spacing:-.5;word-spacing:0" x="398.66" y="521.97">
<tspan style="font-weight:bold;font-size:10" x="398.66" y="521.97">Commodities</tspan>
</text>
<text style="font-family:Droid Sans;letter-spacing:-.5;word-spacing:0" x="536.16" y="520.47">
<tspan style="font-weight:bold;font-size:10" x="536.16" y="520.47">Foreign currency</tspan>
</text>
<path d="m280.56 489.93 75 .01" style="fill:#8b008b;fill-rule:evenodd;stroke:#8b008b;stroke-width:1.5;marker-start:url(#b);marker-end:url(#a)"/>
<text style="font-family:Droid Sans;letter-spacing:-.5;word-spacing:0" x="290.16" y="487.47">
<tspan style="font-size:10" x="290.16" y="487.47">Exchange rate</tspan>
<tspan style="font-size:10" x="290.16" y="497.47">options</tspan>
</text>
<path d="m-9.94 464.99h290.21v120.97h-290.21z" style="fill:none;stroke:#4682b4;stroke-width:1.1;stroke-dasharray:6.6 2.2"/>
<ellipse cx="66.16" cy="533.47" rx="64.15" ry="36.78" style="fill:none;stroke:#0000cd;stroke-width:1.1"/>
<text style="font-family:Droid Sans;letter-spacing:-.5;word-spacing:0" x="-6.84" y="475.47">
<tspan style="font-weight:bold;font-size:10" x="-6.84" y="475.47">Hedge markets</tspan>
<tspan style="font-size:10" x="-6.84" y="485.47">- Offset risk exposures</tspan>
</text>
<path d="m360.16 426.71 22 37.51" style="fill:#8b008b;fill-rule:evenodd;stroke:#8b008b;stroke-width:1.5;marker-start:url(#c);marker-end:url(#d)"/>
<g style="font-family:Droid Sans;letter-spacing:-.5;word-spacing:0">
<text x="377.16" y="441.97">
<tspan style="font-size:10" x="377.16" y="441.97">Commodity-backed</tspan>
<tspan style="font-size:10" x="377.16" y="451.97">bond</tspan>
</text>
<text x="177.66" y="515.97">
<tspan style="font-weight:bold;font-size:10" x="177.66" y="515.97">Derivatives</tspan>
<tspan style="font-size:10" x="177.66" y="525.97">(tradable)</tspan>
</text>
<text x="41.16" y="515.97">
<tspan style="font-weight:bold;font-size:10" x="41.16" y="515.97">Insurance</tspan>
</text>
</g>
<path d="m280.66 547.71 75.5.51" style="fill:#8b008b;fill-rule:evenodd;stroke:#8b008b;stroke-width:1.5;marker-start:url(#g);marker-end:url(#e)"/>
<text style="font-family:Droid Sans;letter-spacing:-.5;word-spacing:0" x="291.66" y="545.47">
<tspan style="font-size:10" x="291.66" y="545.47">Futures on</tspan>
<tspan style="font-size:10" x="291.66" y="555.47">commodities</tspan>
</text>
</g>
</svg>