<svg height="400" viewBox="0 0 310.25 265.61" width="500" xmlns="http://www.w3.org/2000/svg">
<path d="m182.86 231.29h57.94v26.39h-57.94z" style="fill:#729fcf"/>
<g style="fill:#ff5b5b">
<path d="m66.97 46.56h115.89v26.39h-115.89z"/>
<path d="m66.98 99.34h115.89v26.39h-115.89z"/>
<path d="m66.96 178.51h115.89v78.84h-115.89z"/>
</g>
<g style="fill:#ad7fa8">
<path d="m124.91 125.73h57.94v52.78h-57.94z"/>
<path d="m124.91 72.95h57.94v26.39h-57.94z"/>
<path d="m124.91 20.17h57.94v26.39h-57.94z"/>
</g>
<g style="fill:#babdb6">
<path d="m66.97 20.17h57.94v26.39h-57.94z"/>
<path d="m66.97 72.95h57.94v26.39h-57.94z"/>
<path d="m66.98 125.73h57.94v52.78h-57.94z"/>
<path d="m240.8 231.29h57.94v26.39h-57.94z"/>
<path d="m182.86 20.17h115.88v211.12h-115.88z"/>
</g>
<path d="m66.97 20.17h57.95v26.39h-57.95z" style="fill:none;stroke:#000;stroke-width:1.77"/>
<g style="stroke-width:.94">
<text x="419.85" y="-87">
<tspan style="stroke-width:.94" x="419.85" y="-78.14"/>
</text>
<g style="font-size:10;font-family:Droid Sans;letter-spacing:0;word-spacing:0">
<text x="23.22" y="37.2">
<tspan style="font-weight:bold" x="23.22" y="37.2">an - Akk</tspan>
</text>
<text x="24.41" y="63.03">
<tspan style="font-weight:bold" x="24.41" y="63.03">an - Dat</tspan>
</text>
<text x="84.53" y="14.74">
<tspan style="font-weight:bold" x="84.53" y="14.74">Masc</tspan>
</text>
</g>
</g>
<g style="fill:none;stroke:#000;stroke-width:1.77">
<path d="m124.92 20.17h57.94v26.39h-57.94z"/>
<path d="m182.86 20.17h57.94v26.39h-57.94z"/>
<path d="m240.8 20.17h57.94v26.39h-57.94z"/>
<path d="m66.97 46.56h57.94v26.39h-57.94z"/>
<path d="m124.92 46.56h57.94v26.39h-57.94z"/>
<path d="m182.86 46.56h57.94v26.39h-57.94z"/>
<path d="m240.8 46.56h57.94v26.39h-57.94z"/>
<path d="m66.97 152.12h57.94v26.39h-57.94z"/>
<path d="m124.92 152.12h57.94v26.39h-57.94z"/>
<path d="m182.86 152.12h57.94v26.39h-57.94z"/>
<path d="m240.8 152.12h57.94v26.39h-57.94z"/>
<path d="m66.97 178.51h57.95v26.4h-57.95z"/>
<path d="m124.92 178.51h57.94v26.39h-57.94z"/>
<path d="m182.86 178.51h57.94v26.39h-57.94z"/>
<path d="m240.8 178.51h57.94v26.39h-57.94z"/>
</g>
<g style="stroke-width:.94;font-family:Droid Sans;letter-spacing:0;word-spacing:0">
<g style="font-size:10">
<text x="142.51" y="14.19">
<tspan style="font-weight:bold;stroke-width:.94" x="142.51" y="14.19">Neut</tspan>
</text>
<text x="198.8" y="14.68">
<tspan style="font-weight:bold;stroke-width:.94" x="198.8" y="14.68">Femn</tspan>
</text>
<text x="259.17" y="14.68">
<tspan style="font-weight:bold;stroke-width:.94" x="259.17" y="14.68">Plur</tspan>
</text>
</g>
<g style="font-size:12.5">
<text x="78.04" y="37.55">
<tspan x="78.04" y="37.55">an der</tspan>
</text>
<text x="193.99" y="37.92">
<tspan style="stroke-width:.94" x="193.99" y="37.92">an die</tspan>
</text>
<text x="252.44" y="38.44">
<tspan style="stroke-width:.94" x="252.44" y="38.44">an die</tspan>
</text>
<text x="143.99" y="37.55">
<tspan style="stroke-width:.94" x="143.99" y="37.55">ans</tspan>
</text>
<text x="87.43" y="63.06">
<tspan style="stroke-width:.94" x="87.43" y="63.06">am</tspan>
</text>
<text x="144.63" y="63.06">
<tspan style="stroke-width:.94" x="144.63" y="63.06">am</tspan>
</text>
<text x="193.5" y="63.88">
<tspan style="stroke-width:.94" x="193.5" y="63.88">an der</tspan>
</text>
<text x="250.1" y="64.14">
<tspan style="stroke-width:.94" x="250.1" y="64.14">an den</tspan>
</text>
</g>
<text style="font-size:10" x="10.43" y="168.34">
<tspan style="font-weight:bold;stroke-width:.94" x="10.43" y="168.34">fuers - Akk</tspan>
</text>
</g>
<g style="fill:none;stroke:#000;stroke-width:1.77">
<path d="m66.97 204.9h57.95v26.4h-57.95z"/>
<path d="m124.92 204.9h57.94v26.39h-57.94z"/>
<path d="m182.86 204.9h57.94v26.39h-57.94z"/>
<path d="m240.8 204.9h57.94v26.39h-57.94z"/>
<path d="m66.97 231.29h57.95v26.4h-57.95z"/>
<path d="m124.92 231.29h57.94v26.39h-57.94z"/>
<path d="m182.86 231.29h57.94v26.39h-57.94z"/>
<path d="m240.8 231.29h57.94v26.39h-57.94z"/>
</g>
<g style="stroke-width:.94;font-family:Droid Sans;letter-spacing:0;word-spacing:0">
<g style="font-size:12.5">
<text x="70.73" y="169.35">
<tspan style="stroke-width:.94" x="70.73" y="169.35">fuers der</tspan>
</text>
<text x="187.2" y="170.24">
<tspan style="stroke-width:.94" x="187.2" y="170.24">fuers die</tspan>
</text>
<text x="139.01" y="169.87">
<tspan style="stroke-width:.94" x="139.01" y="169.87">fuers</tspan>
</text>
<text x="245.24" y="170.35">
<tspan style="stroke-width:.94" x="245.24" y="170.35">fuers die</tspan>
</text>
</g>
<text style="font-size:10" x="21.94" y="194.59">
<tspan style="font-weight:bold;stroke-width:.94" x="21.94" y="194.59">bei - Dat</tspan>
</text>
<g style="font-size:12.5">
<text x="80.94" y="196.11">
<tspan style="stroke-width:.94" x="80.94" y="196.11">beim</tspan>
</text>
<text x="139.7" y="196.63">
<tspan style="stroke-width:.94" x="139.7" y="196.63">beim</tspan>
</text>
<text x="191.69" y="196.67">
<tspan style="stroke-width:.94" x="191.69" y="196.67">bei der</tspan>
</text>
<text x="248.81" y="196.41">
<tspan style="stroke-width:.94" x="248.81" y="196.41">bei den</tspan>
</text>
</g>
<text style="font-size:10" x="21.86" y="220.53">
<tspan style="font-weight:bold;stroke-width:.94" x="21.86" y="220.53">vor - Dat</tspan>
</text>
<g style="font-size:12.5">
<text x="83.8" y="222.34">
<tspan style="stroke-width:.94" x="83.8" y="222.34">vom</tspan>
</text>
<text x="141" y="222.08">
<tspan style="stroke-width:.94" x="141" y="222.08">vom</tspan>
</text>
<text x="190.91" y="222.11">
<tspan style="stroke-width:.94" x="190.91" y="222.11">von der</tspan>
</text>
<text x="247.77" y="222.37">
<tspan style="stroke-width:.94" x="247.77" y="222.37">von den</tspan>
</text>
</g>
<text style="font-size:10" x="26.27" y="248.34">
<tspan style="font-weight:bold;stroke-width:.94" x="26.27" y="248.34">zu - Dat</tspan>
</text>
<g style="font-size:12.5">
<text x="83.27" y="248.3">
<tspan style="stroke-width:.94" x="83.27" y="248.3">zum</tspan>
</text>
<text x="140.47" y="248.04">
<tspan style="stroke-width:.94" x="140.47" y="248.04">zum</tspan>
</text>
<text x="202.32" y="248.08">
<tspan style="stroke-width:.94" x="202.32" y="248.08">zur</tspan>
</text>
<text x="251.66" y="248.08">
<tspan style="stroke-width:.94" x="251.66" y="248.08">zu den</tspan>
</text>
</g>
</g>
<path d="m66.97 72.95h57.95v26.39h-57.95z" style="fill:none;stroke:#000;stroke-width:1.77"/>
<text style="font-size:10;font-family:Droid Sans;letter-spacing:0;word-spacing:0;stroke-width:.94" x="25.04" y="89.98">
<tspan style="font-weight:bold;stroke-width:.94" x="25.04" y="89.98">in - Akk</tspan>
</text>
<text style="font-size:10;font-family:Droid Sans;letter-spacing:0;word-spacing:0;stroke-width:.94" x="26.23" y="115.81">
<tspan style="font-weight:bold;stroke-width:.94" x="26.23" y="115.81">in - Dat</tspan>
</text>
<g style="fill:none;stroke:#000;stroke-width:1.77">
<path d="m124.92 72.95h57.94v26.39h-57.94z"/>
<path d="m182.86 72.95h57.94v26.39h-57.94z"/>
<path d="m240.8 72.95h57.94v26.39h-57.94z"/>
<path d="m66.97 99.34h57.94v26.39h-57.94z"/>
<path d="m124.92 99.34h57.94v26.39h-57.94z"/>
<path d="m182.86 99.34h57.94v26.39h-57.94z"/>
<path d="m240.8 99.34h57.94v26.39h-57.94z"/>
</g>
<g style="stroke-width:.94;font-size:12.5;font-family:Droid Sans;letter-spacing:0;word-spacing:0">
<text x="80.9" y="90.33">
<tspan style="stroke-width:.94" x="80.9" y="90.33">in der</tspan>
</text>
<text x="196.85" y="90.7">
<tspan style="stroke-width:.94" x="196.85" y="90.7">in die</tspan>
</text>
<text x="255.29" y="91.22">
<tspan style="stroke-width:.94" x="255.29" y="91.22">in die</tspan>
</text>
<text x="146.85" y="90.33">
<tspan style="stroke-width:.94" x="146.85" y="90.33">ins</tspan>
</text>
<text x="90.03" y="116.88">
<tspan style="stroke-width:.94" x="90.03" y="116.88">im</tspan>
</text>
<text x="147.23" y="116.88">
<tspan style="stroke-width:.94" x="147.23" y="116.88">im</tspan>
</text>
<text x="196.09" y="117.7">
<tspan style="stroke-width:.94" x="196.09" y="117.7">in der</tspan>
</text>
<text x="252.7" y="117.96">
<tspan style="stroke-width:.94" x="252.7" y="117.96">in den</tspan>
</text>
</g>
<path d="m66.97 125.73h57.95v26.39h-57.95z" style="fill:none;stroke:#000;stroke-width:1.77"/>
<text style="font-size:10;font-family:Droid Sans;letter-spacing:0;word-spacing:0;stroke-width:.94" x="19.07" y="142.76">
<tspan style="font-weight:bold;stroke-width:.94" x="19.07" y="142.76">auf - Akk</tspan>
</text>
<g style="fill:none;stroke:#000;stroke-width:1.77">
<path d="m124.92 125.73h57.94v26.39h-57.94z"/>
<path d="m182.86 125.73h57.94v26.39h-57.94z"/>
<path d="m240.8 125.73h57.94v26.39h-57.94z"/>
</g>
<g style="stroke-width:.94;font-family:Droid Sans;letter-spacing:0;word-spacing:0;font-size:12.5">
<text x="75.96" y="143.63">
<tspan style="stroke-width:.94" x="75.96" y="143.63">auf der</tspan>
</text>
<text x="192.17" y="143.48">
<tspan style="stroke-width:.94" x="192.17" y="143.48">auf die</tspan>
</text>
<text x="250.36" y="143.48">
<tspan style="stroke-width:.94" x="250.36" y="143.48">auf die</tspan>
</text>
<text x="141.91" y="143.37">
<tspan style="stroke-width:.94" x="141.91" y="143.37">aufs</tspan>
</text>
</g>
</svg>
