<svg height="180" viewBox="0 0 216.98 123.94" width="420" xmlns="http://www.w3.org/2000/svg">
<path d="m24.44 93.81h97.63v25.66h-97.63z" style="fill:#81537e"/>
<path d="m24.4 69.12h97.62v25.67h-97.62z" style="fill:#ff5b5b"/>
<path d="m72.65 17.12h49.37v51.52h-49.37z" style="fill:#81537e"/>
<path d="m121.84 17.2h97.61v51.92h-97.61z" style="fill:#f2aa37"/>
<path d="m169.41 68.91h49.78v25.66h-49.78z" style="fill:#94ff48"/>
<path d="m24.4 43.46h48.21v25.66h-48.21z" style="fill:#94ff48"/>
<g style="fill:#729fcf">
<path d="m122.05 93.73h97.57v25.66h-97.57z"/>
<path d="m121.19 68.91h48.21v25.19h-48.21z"/>
<path d="m24.44 17.12h48.21v25.66h-48.21z"/>
</g>
<path d="m24.44 17.12h194.93v102.36h-194.93z" style="fill:none;stroke:#000;stroke-width:1.77"/>
<text style="stroke-width:.94" x="377.78" y="-87.05">
<tspan style="stroke-width:.94" x="377.78" y="-78.19"/>
</text>
<text style="font-size:10;font-family:Droid Sans;letter-spacing:0;word-spacing:0;stroke-width:.94" x="-3.95" y="35.37">
<tspan style="font-weight:bold" x="-3.95" y="35.37">Nom</tspan>
</text>
<path d="m24.31 42.95h195.04" style="fill:none;stroke:#000;stroke-width:1.77"/>
<g style="stroke-width:.94;font-size:10;font-family:Droid Sans;letter-spacing:0;word-spacing:0">
<text x="-3.04" y="59.43">
<tspan style="font-weight:bold" x="-3.04" y="59.43">Akk</tspan>
</text>
<text x="-3.99" y="85.12">
<tspan style="font-weight:bold" x="-3.99" y="85.12">Dat</tspan>
</text>
<text x="-3.74" y="110.27">
<tspan style="font-weight:bold" x="-3.74" y="110.27">Gen</tspan>
</text>
<text x="34.13" y="11.92">
<tspan style="font-weight:bold" x="34.13" y="11.92">Masc</tspan>
</text>
<text x="133.36" y="11.16">
<tspan style="font-weight:bold" x="133.36" y="11.16">Femn</tspan>
</text>
<text x="85.1" y="11.41">
<tspan style="font-weight:bold" x="85.1" y="11.41">Neut</tspan>
</text>
<text x="181.42" y="11.16">
<tspan style="font-weight:bold" x="181.42" y="11.16">Plural</tspan>
</text>
</g>
<g style="fill:none;stroke:#000">
<path d="m169.41 17.2.03 102.2" style="stroke-width:3.54"/>
<g style="stroke-width:1.77">
<path d="m121.86 17 .03 102.71"/>
<path d="m72.57 17 .03 102.46"/>
<path d="m24.4 69.12h194.87"/>
<path d="m24.4 94.53h195.21"/>
</g>
</g>
<g style="stroke-width:.94;font-family:Droid Sans;letter-spacing:0;word-spacing:0;font-size:12.5">
<text x="31.16" y="34.88">
<tspan style="stroke-width:.94" x="31.16" y="34.88">dieser</tspan>
</text>
<text x="30.13" y="60.8">
<tspan style="stroke-width:.94" x="30.13" y="60.8">diesen</tspan>
</text>
<text x="28.41" y="87.24">
<tspan style="stroke-width:.94" x="28.41" y="87.24">diesem</tspan>
</text>
<text x="30.3" y="111.28">
<tspan style="stroke-width:.94" x="30.3" y="111.28">dieses</tspan>
</text>
<text x="79.41" y="34.7">
<tspan style="stroke-width:.94" x="79.41" y="34.7">dieses</tspan>
</text>
<text x="78.72" y="60.11">
<tspan style="stroke-width:.94" x="78.72" y="60.11">dieses</tspan>
</text>
<text x="79.41" y="111.28">
<tspan style="stroke-width:.94" x="79.41" y="111.28">dieses</tspan>
</text>
<text x="76.67" y="86.9">
<tspan style="stroke-width:.94" x="76.67" y="86.9">diesem</tspan>
</text>
<text x="130.85" y="34.88">
<tspan style="stroke-width:.94" x="130.85" y="34.88">diese</tspan>
</text>
<text x="129.82" y="59.77">
<tspan style="stroke-width:.94" x="129.82" y="59.77">diese</tspan>
</text>
<text x="179.96" y="60.11">
<tspan style="stroke-width:.94" x="179.96" y="60.11">diese</tspan>
</text>
<text x="179.44" y="35.05">
<tspan style="stroke-width:.94" x="179.44" y="35.05">diese</tspan>
</text>
<text x="127.48" y="86.56">
<tspan style="stroke-width:.94" x="127.48" y="86.56">dieser</tspan>
</text>
<text x="127.65" y="111.28">
<tspan style="stroke-width:.94" x="127.65" y="111.28">dieser</tspan>
</text>
<text x="177.62" y="111.11">
<tspan style="stroke-width:.94" x="177.62" y="111.11">dieser</tspan>
</text>
<text x="176.46" y="86.73">
<tspan style="stroke-width:.94" x="176.46" y="86.73">diesen</tspan>
</text>
</g>
</svg>
