<svg height="200" viewBox="0 0 282.04 133.7" width="470" xmlns="http://www.w3.org/2000/svg">
<path d="m38.75 47.29h57.95v25.66h-57.95z" style="fill:#94ff48"/>
<path d="m38.74 73.68h57.95v25.66h-57.95z" style="fill:#ff5b5b"/>
<path d="m38.75 100.08h57.95v25.66h-57.95z" style="fill:#81537e"/>
<path d="m96.7 20.17h173.82v105.56h-173.82z" style="fill:#babdb6"/>
<path d="m38.75 20.9h57.95v25.66h-57.95z" style="fill:#729fcf"/>
<path d="m38.75 20.17h57.95v26.39h-57.95z" style="fill:none;stroke:#000;stroke-width:1.77"/>
<g style="stroke-width:.94">
<text x="391.63" y="-87">
<tspan style="stroke-width:.94" x="391.63" y="-78.14"/>
</text>
<g style="font-family:Droid Sans;letter-spacing:0;word-spacing:0">
<g style="font-size:10">
<text x="9.73" y="37.37">
<tspan style="font-weight:bold" x="9.73" y="37.37">Nom</tspan>
</text>
<text x="13.7" y="62.9">
<tspan style="font-weight:bold" x="13.7" y="62.9">Akk</tspan>
</text>
<text x="14.37" y="89.25">
<tspan style="font-weight:bold" x="14.37" y="89.25">Dat</tspan>
</text>
<text x="56.31" y="14.74">
<tspan style="font-weight:bold" x="56.31" y="14.74">Masc</tspan>
</text>
</g>
<g style="font-size:12.5">
<text x="56.65" y="37.11">
<tspan x="56.65" y="37.11">wer</tspan>
</text>
<text x="119.88" y="38.41">
<tspan style="font-size:12.5;font-family:Droid Sans;stroke-width:.94" x="119.88" y="38.41">Ø</tspan>
</text>
</g>
</g>
</g>
<g style="fill:none;stroke:#000;stroke-width:1.77">
<path d="m96.7 20.17h57.94v26.39h-57.94z"/>
<path d="m154.64 20.17h57.94v26.39h-57.94z"/>
<path d="m212.58 20.17h57.94v26.39h-57.94z"/>
<path d="m38.75 46.56h57.94v26.39h-57.94z"/>
<path d="m96.7 46.56h57.94v26.39h-57.94z"/>
<path d="m154.64 46.56h57.94v26.39h-57.94z"/>
<path d="m212.58 46.56h57.94v26.39h-57.94z"/>
<path d="m38.75 72.95h57.94v26.39h-57.94z"/>
<path d="m96.7 72.95h57.94v26.39h-57.94z"/>
<path d="m154.64 72.95h57.94v26.39h-57.94z"/>
<path d="m212.58 72.95h57.94v26.39h-57.94z"/>
<path d="m38.75 99.34h57.95v26.4h-57.95z"/>
<path d="m96.7 99.34h57.94v26.39h-57.94z"/>
<path d="m154.64 99.34h57.94v26.39h-57.94z"/>
<path d="m212.58 99.34h57.94v26.39h-57.94z"/>
</g>
<g style="stroke-width:.94;font-family:Droid Sans;letter-spacing:0;word-spacing:0">
<g style="font-size:10">
<text x="12.75" y="116.39">
<tspan style="font-weight:bold;stroke-width:.94" x="12.75" y="116.39">Gen</tspan>
</text>
<text x="114.29" y="14.19">
<tspan style="font-weight:bold;stroke-width:.94" x="114.29" y="14.19">Neut</tspan>
</text>
<text x="170.58" y="14.68">
<tspan style="font-weight:bold;stroke-width:.94" x="170.58" y="14.68">Femn</tspan>
</text>
<text x="230.95" y="14.68">
<tspan style="font-weight:bold;stroke-width:.94" x="230.95" y="14.68">Plur</tspan>
</text>
</g>
<g style="font-size:12.5">
<text x="179.17" y="38.45">
<tspan style="font-size:12.5;font-family:Droid Sans;stroke-width:.94" x="179.17" y="38.45">Ø</tspan>
</text>
<text x="237.33" y="38.71">
<tspan style="font-size:12.5;font-family:Droid Sans;stroke-width:.94" x="237.33" y="38.71">Ø</tspan>
</text>
<text x="119.41" y="64.01">
<tspan style="font-size:12.5;font-family:Droid Sans;stroke-width:.94" x="119.41" y="64.01">Ø</tspan>
</text>
<text x="178.69" y="64.05">
<tspan style="font-size:12.5;font-family:Droid Sans;stroke-width:.94" x="178.69" y="64.05">Ø</tspan>
</text>
<text x="236.85" y="64.31">
<tspan style="font-size:12.5;font-family:Droid Sans;stroke-width:.94" x="236.85" y="64.31">Ø</tspan>
</text>
<text x="119.13" y="90.42">
<tspan style="font-size:12.5;font-family:Droid Sans;stroke-width:.94" x="119.13" y="90.42">Ø</tspan>
</text>
<text x="178.41" y="90.46">
<tspan style="font-size:12.5;font-family:Droid Sans;stroke-width:.94" x="178.41" y="90.46">Ø</tspan>
</text>
<text x="236.57" y="90.72">
<tspan style="font-size:12.5;font-family:Droid Sans;stroke-width:.94" x="236.57" y="90.72">Ø</tspan>
</text>
<text x="118.65" y="116.01">
<tspan style="font-size:12.5;font-family:Droid Sans;stroke-width:.94" x="118.65" y="116.01">Ø</tspan>
</text>
<text x="177.93" y="116.05">
<tspan style="font-size:12.5;font-family:Droid Sans;stroke-width:.94" x="177.93" y="116.05">Ø</tspan>
</text>
<text x="236.09" y="116.31">
<tspan style="font-size:12.5;font-family:Droid Sans;stroke-width:.94" x="236.09" y="116.31">Ø</tspan>
</text>
<text x="56" y="63.58">
<tspan style="stroke-width:.94" x="56" y="63.58">wen</tspan>
</text>
<text x="54.18" y="90.07">
<tspan style="stroke-width:.94" x="54.18" y="90.07">wem</tspan>
</text>
<text x="46.91" y="116.03">
<tspan style="stroke-width:.94" x="46.91" y="116.03">wessen</tspan>
</text>
</g>
</g>
</svg>
