<svg height="350" viewBox="0 0 451.63 249.24" width="700" xmlns="http://www.w3.org/2000/svg">

<path d="m364.04 192.72h86.74v51.37h-86.74z" style="fill:#3465a4"/>
<path d="m364.04 88.53h86.74v104.2h-86.74z" style="fill:#94ff48"/>
<path d="m364.04 36.59h86.68v51.93h-86.68z" style="fill:#babdb6"/>
<path d="m273.79 140.47h85.87v52.26h-85.87z" style="fill:#94ff48"/>
<g style="fill:#babdb6">
<path d="m193.7 192.94h165.96v51.31h-165.96z"/>
<path d="m33.53 140.69h240.26v52.04h-240.26z"/>
<path d="m33.53 36.37h326.13v104.1h-326.13z"/>
</g>
<path d="m33.53 192.72h160.17v51.51h-160.17z" style="fill:#81537e"/>
<g style="stroke-width:.94">
<text x="382.84" y="-75.45">
<tspan style="stroke-width:.94" x="382.84" y="-66.59"/>
</text>
<g style="font-family:Droid Sans;letter-spacing:0;word-spacing:0">
<g style="font-size:10">
<text x="-.36" y="62.63">
<tspan style="font-weight:bold" x="-.36" y="62.63">Nom</tspan>
</text>
<text x="1.53" y="117.1">
<tspan style="font-weight:bold" x="1.53" y="117.1">Akk</tspan>
</text>
<text x=".91" y="168.3">
<tspan style="font-weight:bold" x=".91" y="168.3">Dat</tspan>
</text>
<text x="57.02" y="26.86">
<tspan style="font-weight:bold" x="57.02" y="26.86">Masc</tspan>
</text>
</g>
<text style="font-size:12.5" x="209.27" y="68.01">
<tspan x="209.27" y="68.01">die Kraft</tspan>
</text>
</g>
</g>
<path d="m33.53 36.37h80.09v52.16h-80.09z" style="fill:none;stroke:#000;stroke-width:1.77"/>
<g style="stroke-width:.94;font-size:10;font-family:Droid Sans;letter-spacing:0;word-spacing:0">
<text x=".41" y="217.96">
<tspan style="font-weight:bold;stroke-width:.94" x=".41" y="217.96">Gen</tspan>
</text>
<text x="218.26" y="26.43">
<tspan style="font-weight:bold;stroke-width:.94" x="218.26" y="26.43">Femn</tspan>
</text>
<text x="140.69" y="26.7">
<tspan style="font-weight:bold;stroke-width:.94" x="140.69" y="26.7">Neut</tspan>
</text>
<text x="302.52" y="27.08">
<tspan style="font-weight:bold;stroke-width:.94" x="302.52" y="27.08">Plur</tspan>
</text>
<text x="179.47" y="11.51">
<tspan style="font-weight:bold;fill:#c00;stroke-width:.94" x="179.47" y="11.51">Forte</tspan>
</text>
<text x="369.74" y="11.71">
<tspan style="font-weight:bold;fill:#c00;stroke-width:.94" x="369.74" y="11.71">Faible/N-flexion</tspan>
</text>
</g>
<path d="m41.54 17.37h310.82v12.57h-310.82z" style="fill:none;stroke:#f00;stroke-width:1.13;stroke-dasharray:3.38 1.13"/>
<g style="stroke-width:.94;font-size:12.5;font-family:Droid Sans;letter-spacing:0;word-spacing:0">
<text x="128.55" y="68">
<tspan style="stroke-width:.94" x="128.55" y="68">das Kind</tspan>
</text>
<text x="379.04" y="67.7">
<tspan style="stroke-width:.94" x="379.04" y="67.7">der Name</tspan>
</text>
<text x="44.12" y="68.04">
<tspan style="stroke-width:.94" x="44.12" y="68.04">der Baum</tspan>
</text>
<text x="285.36" y="66.59">
<tspan style="stroke-width:.94" x="285.36" y="66.59">die Kinder</tspan>
</text>
</g>
<g style="fill:none;stroke:#000;stroke-width:1.77">
<path d="m113.62 36.37h80.09v52.15h-80.09z"/>
<path d="m193.7 36.37h80.09v52.16h-80.09z"/>
<path d="m273.79 36.37h85.87v52.15h-85.87z"/>
<path d="m33.53 88.53h80.09v51.94h-80.09z"/>
<path d="m113.62 88.53h80.09v51.94h-80.09z"/>
<path d="m193.7 88.53h80.09v51.94h-80.09z"/>
<path d="m273.79 88.53h85.87v51.94h-85.87z"/>
<path d="m33.53 140.47h80.09v52.26h-80.09z"/>
<path d="m113.62 140.47h80.09v52.26h-80.09z"/>
<path d="m193.7 140.47h80.09v52.26h-80.09z"/>
<path d="m273.79 140.47h85.87v52.26h-85.87z"/>
<path d="m33.53 192.72h80.09v51.52h-80.09z"/>
<path d="m113.62 192.72h80.09v51.51h-80.09z"/>
<path d="m193.7 192.72h80.09v51.53h-80.09z"/>
<path d="m273.79 192.72h85.87v51.53h-85.87z"/>
</g>
<g style="stroke-width:.94;font-size:12.5;font-family:Droid Sans;letter-spacing:0;word-spacing:0">
<text x="43.02" y="119.98">
<tspan style="stroke-width:.94" x="43.02" y="119.98">den Baum</tspan>
</text>
<text x="42.75" y="172.23">
<tspan style="stroke-width:.94" x="42.75" y="172.23">dem Baum</tspan>
</text>
<text x="39.02" y="220.62">
<tspan style="stroke-width:.94" x="39.02" y="220.62">des Baum<tspan style="font-weight:bold">es</tspan>
</tspan>
</text>
<text x="280.94" y="51.01">
<tspan style="stroke-width:.94" x="280.94" y="51.01">die Baeume</tspan>
</text>
<text x="127.75" y="120.01">
<tspan style="stroke-width:.94" x="127.75" y="120.01">das Kind</tspan>
</text>
<text x="125.65" y="172.27">
<tspan style="stroke-width:.94" x="125.65" y="172.27">dem Kind</tspan>
</text>
<text x="123.07" y="220.35">
<tspan style="stroke-width:.94" x="123.07" y="220.35">des Kind<tspan style="font-weight:bold">es</tspan>
</tspan>
</text>
<text x="279.43" y="103.19">
<tspan style="stroke-width:.94" x="279.43" y="103.19">die Baeume</tspan>
</text>
<text x="277.27" y="154.54">
<tspan style="stroke-width:.94" x="277.27" y="154.54">den Baeume<tspan style="font-weight:bold">n</tspan>
</tspan>
</text>
<text x="280.84" y="205.48">
<tspan style="stroke-width:.94" x="280.84" y="205.48">der Baeume</tspan>
</text>
<text x="285.8" y="118.85">
<tspan style="stroke-width:.94" x="285.8" y="118.85">die Kinder</tspan>
</text>
<text x="281.03" y="171.06">
<tspan style="stroke-width:.94" x="281.03" y="171.06">den Kinder<tspan style="font-weight:bold">n</tspan>
</tspan>
</text>
<text x="285.87" y="222">
<tspan style="stroke-width:.94" x="285.87" y="222">der Kinder</tspan>
</text>
<text x="209.71" y="120.02">
<tspan style="stroke-width:.94" x="209.71" y="120.02">die Kraft</tspan>
</text>
<text x="209.04" y="171.64">
<tspan style="stroke-width:.94" x="209.04" y="171.64">der Kraft</tspan>
</text>
<text x="208.86" y="219.82">
<tspan style="stroke-width:.94" x="208.86" y="219.82">der Kraft</tspan>
</text>
<text x="283.66" y="82.38">
<tspan style="stroke-width:.94" x="283.66" y="82.38">die Kraefte</tspan>
</text>
<text x="283.53" y="134.2">
<tspan style="stroke-width:.94" x="283.53" y="134.2">die Kraefte</tspan>
</text>
<text x="283.35" y="186.98">
<tspan style="stroke-width:.94" x="283.35" y="186.98">den Kraefte</tspan>
</text>
<text x="282.34" y="239">
<tspan style="stroke-width:.94" x="282.34" y="239">der Kraefte</tspan>
</text>
</g>
<g style="fill:none;stroke:#000;stroke-width:1.77">
<path d="m364.04 36.37h86.68v52.15h-86.68z"/>
<path d="m364.04 88.53h86.68v51.94h-86.68z"/>
<path d="m364.04 140.47h86.74v52.26h-86.74z"/>
<path d="m364 193.21h86.74v51.08h-86.74z"/>
</g>
<g style="stroke-width:.94;font-family:Droid Sans;letter-spacing:0;word-spacing:0">
<g style="font-size:12.5">
<text x="374.1" y="120.58">
<tspan style="stroke-width:.94" x="374.1" y="120.58">den Name<tspan style="font-weight:bold">n</tspan>
</tspan>
</text>
<text x="371.86" y="172.13">
<tspan style="stroke-width:.94" x="371.86" y="172.13">dem Name<tspan style="font-weight:bold">n</tspan>
</tspan>
</text>
<text x="372.59" y="221.4">
<tspan style="stroke-width:.94" x="372.59" y="221.4">des Name<tspan style="font-weight:bold">ns</tspan>
</tspan>
</text>
</g>
<text style="font-size:10" x="392.58" y="26.79">
<tspan style="font-weight:bold;stroke-width:.94" x="392.58" y="26.79">Masc</tspan>
</text>
</g>
</svg>
