<svg height="180" viewBox="0 0 216.98 123.94" width="420" xmlns="http://www.w3.org/2000/svg">
<path d="m24.44 93.81h97.63v25.66h-97.63z" style="fill:#81537e"/>
<path d="m24.4 69.12h97.62v25.67h-97.62z" style="fill:#ff5b5b"/>
<path d="m72.65 17.12h49.37v51.52h-49.37z" style="fill:#babdb6"/>
<path d="m121.84 17.2h97.61v51.92h-97.61z" style="fill:#f2aa37"/>
<path d="m169.41 68.91h49.78v25.66h-49.78z" style="fill:#007d00"/>
<path d="m24.4 43.46h48.21v25.66h-48.21z" style="fill:#94ff48"/>
<path d="m122.05 93.73h97.57v25.66h-97.57z" style="fill:#eb00eb"/>
<path d="m121.19 68.91h48.21v25.19h-48.21z" style="fill:#729fcf"/>
<path d="m24.44 17.12h48.21v25.66h-48.21z" style="fill:#729fcf"/>
<path d="m24.44 17.12h194.93v102.36h-194.93z" style="fill:none;stroke:#000;stroke-width:1.77"/>
<text style="stroke-width:.94" x="377.78" y="-87.05">
<tspan style="stroke-width:.94" x="377.78" y="-78.19"/>
</text>
<text style="font-size:10;font-family:Droid Sans;letter-spacing:0;word-spacing:0;stroke-width:.94" x="-3.95" y="35.37">
<tspan style="font-weight:bold" x="-3.95" y="35.37">Nom</tspan>
</text>
<path d="m24.31 42.95h195.04" style="fill:none;stroke:#000;stroke-width:1.77"/>
<g style="stroke-width:.94;font-size:10;font-family:Droid Sans;letter-spacing:0;word-spacing:0">
<text x="-3.04" y="59.43">
<tspan style="font-weight:bold" x="-3.04" y="59.43">Akk</tspan>
</text>
<text x="-3.99" y="85.12">
<tspan style="font-weight:bold" x="-3.99" y="85.12">Dat</tspan>
</text>
<text x="-3.74" y="110.27">
<tspan style="font-weight:bold" x="-3.74" y="110.27">Gen</tspan>
</text>
<text x="34.13" y="11.92">
<tspan style="font-weight:bold" x="34.13" y="11.92">Masc</tspan>
</text>
<text x="133.36" y="11.16">
<tspan style="font-weight:bold" x="133.36" y="11.16">Femn</tspan>
</text>
<text x="85.1" y="11.41">
<tspan style="font-weight:bold" x="85.1" y="11.41">Neut</tspan>
</text>
<text x="181.42" y="11.16">
<tspan style="font-weight:bold" x="181.42" y="11.16">Plural</tspan>
</text>
</g>
<g style="fill:none;stroke:#000">
<path d="m169.41 17.2.03 102.2" style="stroke-width:3.54"/>
<g style="stroke-width:1.77">
<path d="m121.86 17 .03 102.71"/>
<path d="m72.57 17 .03 102.46"/>
<path d="m24.4 69.12h194.87"/>
<path d="m24.4 94.53h195.21"/>
</g>
</g>
<g style="stroke-width:.94;font-family:Droid Sans;letter-spacing:0;word-spacing:0;font-size:12.5">
<text x="128.05" y="111.78">
<tspan style="stroke-width:.94" x="128.05" y="111.78">deren</tspan>
</text>
<text x="186.18" y="34.08">
<tspan style="stroke-width:.94" x="186.18" y="34.08">die</tspan>
</text>
<text x="87.23" y="34.7">
<tspan style="stroke-width:.94" x="87.23" y="34.7">das</tspan>
</text>
<text x="86.49" y="60.8">
<tspan style="stroke-width:.94" x="86.49" y="60.8">das</tspan>
</text>
<text x="135.95" y="60.8">
<tspan style="stroke-width:.94" x="135.95" y="60.8">die</tspan>
</text>
<text x="38.37" y="34.94">
<tspan style="stroke-width:.94" x="38.37" y="34.94">der</tspan>
</text>
<text x="177.77" y="86.32">
<tspan style="stroke-width:.94" x="177.77" y="86.32">denen</tspan>
</text>
<text x="37.1" y="60.33">
<tspan style="stroke-width:.94" x="37.1" y="60.33">den</tspan>
</text>
<text x="135.72" y="34.47">
<tspan style="stroke-width:.94" x="135.72" y="34.47">die</tspan>
</text>
<text x="83.74" y="85.96">
<tspan style="stroke-width:.94" x="83.74" y="85.96">dem</tspan>
</text>
<text x="35.18" y="86.2">
<tspan style="stroke-width:.94" x="35.18" y="86.2">dem</tspan>
</text>
<text x="28.58" y="111.59">
<tspan style="stroke-width:.94" x="28.58" y="111.59">dessen</tspan>
</text>
<text x="185.54" y="60.25">
<tspan style="stroke-width:.94" x="185.54" y="60.25">die</tspan>
</text>
<text x="133.96" y="86.2">
<tspan style="stroke-width:.94" x="133.96" y="86.2">der</tspan>
</text>
<text x="77.79" y="112.05">
<tspan style="stroke-width:.94" x="77.79" y="112.05">dessen</tspan>
</text>
<text x="179.15" y="111.71">
<tspan style="stroke-width:.94" x="179.15" y="111.71">deren</tspan>
</text>
</g>
</svg>
