<svg height="400" viewBox="0 0 543.22 242.08" width="900" xmlns="http://www.w3.org/2000/svg">
<path d="m68.16 154.95h463.54v26.39h-463.54z" style="fill:#94ff48"/>
<path d="m68.16 49.38h463.54v26.39h-463.54z" style="fill:#94ff48"/>
<path d="m68.16 22.99h463.54v26.39h-463.54z" style="fill:#729fcf"/>
<path d="m68.16 128.56h463.54v26.39h-463.54z" style="fill:#81537e"/>
<path d="m68.16 181.34h463.54v52.52h-463.54z" style="fill:#f2aa37"/>
<path d="m68.16 75.77h463.54v52.52h-463.54z" style="fill:#f2aa37"/>
<path d="m68.16 22.99h57.94v26.39h-57.94z" style="fill:none;stroke:#000;stroke-width:1.77"/>
<text style="stroke-width:.94" x="421.04" y="-84.19">
<tspan style="stroke-width:.94" x="421.04" y="-75.33"/>
</text>
<text style="font-size:10;font-family:Droid Sans;letter-spacing:0;word-spacing:0;stroke-width:.94" x="85.72" y="17.56">
<tspan style="font-weight:bold" x="85.72" y="17.56">Ich</tspan>
</text>
<g style="fill:none;stroke:#000;stroke-width:1.77">
<path d="m126.11 22.99h57.94v26.39h-57.94z"/>
<path d="m184.05 22.99h57.94v26.39h-57.94z"/>
<path d="m241.99 22.99h57.94v26.39h-57.94z"/>
<path d="m299.93 22.99h57.94v26.39h-57.94z"/>
<path d="m357.88 22.99h57.94v26.39h-57.94z"/>
<path d="m415.82 22.99h57.94v26.39h-57.94z"/>
<path d="m473.76 22.99h57.94v26.39h-57.94z"/>
<path d="m68.16 49.38h57.94v26.39h-57.94z"/>
<path d="m126.11 49.38h57.94v26.39h-57.94z"/>
<path d="m184.05 49.38h57.94v26.39h-57.94z"/>
<path d="m241.99 49.38h57.94v26.39h-57.94z"/>
<path d="m299.93 49.38h57.94v26.39h-57.94z"/>
<path d="m357.88 49.38h57.94v26.39h-57.94z"/>
<path d="m415.82 49.38h57.94v26.39h-57.94z"/>
<path d="m473.76 49.38h57.94v26.39h-57.94z"/>
<path d="m68.16 75.77h57.95v26.39h-57.95z"/>
<path d="m126.11 75.77h57.94v26.39h-57.94z"/>
<path d="m184.05 75.77h57.94v26.39h-57.94z"/>
<path d="m241.99 75.77h57.94v26.39h-57.94z"/>
<path d="m299.93 75.77h57.95v26.39h-57.95z"/>
<path d="m357.88 75.77h57.94v26.39h-57.94z"/>
<path d="m415.82 75.77h57.94v26.39h-57.94z"/>
<path d="m473.76 75.77h57.94v26.39h-57.94z"/>
<path d="m68.16 102.16h57.94v26.39h-57.94z"/>
<path d="m126.11 102.16h57.94v26.39h-57.94z"/>
<path d="m184.05 102.16h57.94v26.39h-57.94z"/>
<path d="m241.99 102.16h57.94v26.39h-57.94z"/>
<path d="m299.93 102.16h57.94v26.39h-57.94z"/>
<path d="m357.88 102.16h57.94v26.39h-57.94z"/>
<path d="m415.82 102.16h57.94v26.39h-57.94z"/>
<path d="m473.76 102.16h57.94v26.39h-57.94z"/>
<path d="m68.16 128.56h57.94v26.39h-57.94z"/>
<path d="m126.11 128.56h57.94v26.39h-57.94z"/>
<path d="m184.05 128.56h57.94v26.39h-57.94z"/>
<path d="m241.99 128.56h57.94v26.39h-57.94z"/>
<path d="m299.93 128.56h57.94v26.39h-57.94z"/>
<path d="m357.88 128.56h57.94v26.39h-57.94z"/>
<path d="m415.82 128.56h57.94v26.39h-57.94z"/>
<path d="m473.76 128.56h57.94v26.39h-57.94z"/>
<path d="m68.16 154.95h57.94v26.39h-57.94z"/>
<path d="m126.11 154.95h57.94v26.39h-57.94z"/>
<path d="m184.05 154.95h57.94v26.39h-57.94z"/>
<path d="m241.99 154.95h57.94v26.39h-57.94z"/>
<path d="m299.93 154.95h57.94v26.39h-57.94z"/>
<path d="m357.88 154.95h57.94v26.39h-57.94z"/>
<path d="m415.82 154.95h57.94v26.39h-57.94z"/>
<path d="m473.76 154.95h57.94v26.39h-57.94z"/>
<path d="m68.16 181.34h57.94v26.39h-57.94z"/>
<path d="m126.11 181.34h57.94v26.39h-57.94z"/>
<path d="m184.05 181.34h57.94v26.39h-57.94z"/>
<path d="m241.99 181.34h57.94v26.39h-57.94z"/>
<path d="m299.93 181.34h57.94v26.39h-57.94z"/>
<path d="m357.88 181.34h57.94v26.39h-57.94z"/>
<path d="m415.82 181.34h57.94v26.39h-57.94z"/>
<path d="m473.76 181.34h57.94v26.39h-57.94z"/>
</g>
<g style="stroke-width:.94;font-size:10;font-family:Droid Sans;letter-spacing:0;word-spacing:0">
<text x="147.34" y="17.01">
<tspan style="font-weight:bold;stroke-width:.94" x="147.34" y="17.01">Du</tspan>
</text>
<text x="207.26" y="17.5">
<tspan style="font-weight:bold;stroke-width:.94" x="207.26" y="17.5">Er</tspan>
</text>
<text x="265.55" y="17.5">
<tspan style="font-weight:bold;stroke-width:.94" x="265.55" y="17.5">Es</tspan>
</text>
<text x="318.45" y="18.16">
<tspan style="font-weight:bold;stroke-width:.94" x="318.45" y="18.16">Uns</tspan>
</text>
<text x="378.54" y="18.65">
<tspan style="font-weight:bold;stroke-width:.94" x="378.54" y="18.65">Ihr</tspan>
</text>
<text x="425.63" y="17.88">
<tspan style="font-weight:bold;stroke-width:.94" x="425.63" y="17.88">Sie_Sing</tspan>
</text>
<text x="484.19" y="17.66">
<tspan style="font-weight:bold;stroke-width:.94" x="484.19" y="17.66">Sie_Plur</tspan>
</text>
</g>
<g style="fill:none;stroke:#000;stroke-width:1.77">
<path d="m68.16 207.73h57.94v26.39h-57.94z"/>
<path d="m126.11 207.73h57.94v26.39h-57.94z"/>
<path d="m184.05 207.73h57.94v26.39h-57.94z"/>
<path d="m241.99 207.73h57.94v26.39h-57.94z"/>
<path d="m299.93 207.73h57.94v26.39h-57.94z"/>
<path d="m357.88 207.73h57.94v26.39h-57.94z"/>
<path d="m415.82 207.73h57.94v26.39h-57.94z"/>
<path d="m473.76 207.73h57.94v26.39h-57.94z"/>
</g>
<g style="stroke-width:.94;font-family:Droid Sans;letter-spacing:0;word-spacing:0">
<g style="font-size:10">
<text x="10.91" y="41.12">
<tspan style="font-weight:bold;stroke-width:.94" x="10.91" y="41.12">Nom_Masc</tspan>
</text>
<text x="11.82" y="66.82">
<tspan style="font-weight:bold;stroke-width:.94" x="11.82" y="66.82">Nom_Neut</tspan>
</text>
<text x="9.73" y="93.27">
<tspan style="font-weight:bold;stroke-width:.94" x="9.73" y="93.27">Nom_Femn</tspan>
</text>
<text x="16.75" y="119.72">
<tspan style="font-weight:bold;stroke-width:.94" x="16.75" y="119.72">Nom_Plur</tspan>
</text>
<text x="15.49" y="147.9">
<tspan style="font-weight:bold;stroke-width:.94" x="15.49" y="147.9">Akk_Masc</tspan>
</text>
<text x="16.39" y="173.6">
<tspan style="font-weight:bold;stroke-width:.94" x="16.39" y="173.6">Akk_Neut</tspan>
</text>
<text x="14.3" y="200.05">
<tspan style="font-weight:bold;stroke-width:.94" x="14.3" y="200.05">Akk_Femn</tspan>
</text>
<text x="21.32" y="226.51">
<tspan style="font-weight:bold;stroke-width:.94" x="21.32" y="226.51">Akk_Plur</tspan>
</text>
</g>
<g style="font-size:12.5">
<text x="76.49" y="40.5">
<tspan style="stroke-width:.94" x="76.49" y="40.5">mein<tspan style="font-weight:bold">er</tspan>
</tspan>
</text>
<text x="137.25" y="40.99">
<tspan style="stroke-width:.94" x="137.25" y="40.99">dein<tspan style="font-weight:bold">er</tspan>
</tspan>
</text>
<text x="196.35" y="41.32">
<tspan style="stroke-width:.94" x="196.35" y="41.32">sein<tspan style="font-weight:bold">er</tspan>
</tspan>
</text>
<text x="254.15" y="41.32">
<tspan style="stroke-width:.94" x="254.15" y="41.32">sein<tspan style="font-weight:bold">er</tspan>
</tspan>
</text>
<text x="306.73" y="40.66">
<tspan style="stroke-width:.94" x="306.73" y="40.66">unser<tspan style="font-weight:bold">er</tspan>
</tspan>
</text>
<text x="371.38" y="40.99">
<tspan style="stroke-width:.94" x="371.38" y="40.99">eur<tspan style="font-weight:bold">er</tspan>
</tspan>
</text>
<text x="431.14" y="40.99">
<tspan style="stroke-width:.94" x="431.14" y="40.99">ihr<tspan style="font-weight:bold">er</tspan>
</tspan>
</text>
<text x="488.61" y="41.32">
<tspan style="stroke-width:.94" x="488.61" y="41.32">ihr<tspan style="font-weight:bold">er</tspan>
</tspan>
</text>
<text x="76.82" y="67.03">
<tspan style="stroke-width:.94" x="76.82" y="67.03">mein<tspan style="font-weight:bold">es</tspan>
</tspan>
</text>
<text x="137.57" y="67.52">
<tspan style="stroke-width:.94" x="137.57" y="67.52">dein<tspan style="font-weight:bold">es</tspan>
</tspan>
</text>
<text x="196.68" y="67.85">
<tspan style="stroke-width:.94" x="196.68" y="67.85">sein<tspan style="font-weight:bold">es</tspan>
</tspan>
</text>
<text x="254.48" y="67.85">
<tspan style="stroke-width:.94" x="254.48" y="67.85">sein<tspan style="font-weight:bold">es</tspan>
</tspan>
</text>
<text x="307.05" y="67.19">
<tspan style="stroke-width:.94" x="307.05" y="67.19">unser<tspan style="font-weight:bold">es</tspan>
</tspan>
</text>
<text x="371.71" y="67.52">
<tspan style="stroke-width:.94" x="371.71" y="67.52">eur<tspan style="font-weight:bold">es</tspan>
</tspan>
</text>
<text x="431.47" y="67.52">
<tspan style="stroke-width:.94" x="431.47" y="67.52">ihr<tspan style="font-weight:bold">es</tspan>
</tspan>
</text>
<text x="488.94" y="67.85">
<tspan style="stroke-width:.94" x="488.94" y="67.85">ihr<tspan style="font-weight:bold">es</tspan>
</tspan>
</text>
<text x="79.01" y="92.83">
<tspan style="stroke-width:.94" x="79.01" y="92.83">mein<tspan style="font-weight:bold;stroke-width:.94">e</tspan>
</tspan>
</text>
<text x="139.76" y="93.32">
<tspan style="stroke-width:.94" x="139.76" y="93.32">dein<tspan style="font-weight:bold;stroke-width:.94">e</tspan>
</tspan>
</text>
<text x="198.87" y="93.64">
<tspan style="stroke-width:.94" x="198.87" y="93.64">sein<tspan style="font-weight:bold;stroke-width:.94">e</tspan>
</tspan>
</text>
<text x="256.67" y="93.64">
<tspan style="stroke-width:.94" x="256.67" y="93.64">sein<tspan style="font-weight:bold;stroke-width:.94">e</tspan>
</tspan>
</text>
<text x="309.24" y="92.99">
<tspan style="stroke-width:.94" x="309.24" y="92.99">unser<tspan style="font-weight:bold;stroke-width:.94">e</tspan>
</tspan>
</text>
<text x="373.9" y="93.32">
<tspan style="stroke-width:.94" x="373.9" y="93.32">eur<tspan style="font-weight:bold;stroke-width:.94">e</tspan>
</tspan>
</text>
<text x="433.66" y="93.32">
<tspan style="stroke-width:.94" x="433.66" y="93.32">ihr<tspan style="font-weight:bold;stroke-width:.94">e</tspan>
</tspan>
</text>
<text x="491.13" y="93.64">
<tspan style="stroke-width:.94" x="491.13" y="93.64">ihr<tspan style="font-weight:bold;stroke-width:.94">e</tspan>
</tspan>
</text>
<text x="79.13" y="119.61">
<tspan style="stroke-width:.94" x="79.13" y="119.61">mein<tspan style="font-weight:bold;stroke-width:.94">e</tspan>
</tspan>
</text>
<text x="139.88" y="120.09">
<tspan style="stroke-width:.94" x="139.88" y="120.09">dein<tspan style="font-weight:bold;stroke-width:.94">e</tspan>
</tspan>
</text>
<text x="198.99" y="120.42">
<tspan style="stroke-width:.94" x="198.99" y="120.42">sein<tspan style="font-weight:bold;stroke-width:.94">e</tspan>
</tspan>
</text>
<text x="256.79" y="120.42">
<tspan style="stroke-width:.94" x="256.79" y="120.42">sein<tspan style="font-weight:bold;stroke-width:.94">e</tspan>
</tspan>
</text>
<text x="309.36" y="119.77">
<tspan style="stroke-width:.94" x="309.36" y="119.77">unser<tspan style="font-weight:bold;stroke-width:.94">e</tspan>
</tspan>
</text>
<text x="374.02" y="120.09">
<tspan style="stroke-width:.94" x="374.02" y="120.09">eur<tspan style="font-weight:bold;stroke-width:.94">e</tspan>
</tspan>
</text>
<text x="433.78" y="120.09">
<tspan style="stroke-width:.94" x="433.78" y="120.09">ihr<tspan style="font-weight:bold;stroke-width:.94">e</tspan>
</tspan>
</text>
<text x="491.25" y="120.42">
<tspan style="stroke-width:.94" x="491.25" y="120.42">ihr<tspan style="font-weight:bold;stroke-width:.94">e</tspan>
</tspan>
</text>
<text x="75.94" y="145.73">
<tspan style="stroke-width:.94" x="75.94" y="145.73">mein<tspan style="font-weight:bold;stroke-width:.94">en</tspan>
</tspan>
</text>
<text x="136.69" y="146.22">
<tspan style="stroke-width:.94" x="136.69" y="146.22">dein<tspan style="font-weight:bold;stroke-width:.94">en</tspan>
</tspan>
</text>
<text x="195.8" y="146.54">
<tspan style="stroke-width:.94" x="195.8" y="146.54">sein<tspan style="font-weight:bold;stroke-width:.94">en</tspan>
</tspan>
</text>
<text x="253.6" y="146.54">
<tspan style="stroke-width:.94" x="253.6" y="146.54">sein<tspan style="font-weight:bold;stroke-width:.94">en</tspan>
</tspan>
</text>
<text x="306.17" y="145.89">
<tspan style="stroke-width:.94" x="306.17" y="145.89">unser<tspan style="font-weight:bold;stroke-width:.94">en</tspan>
</tspan>
</text>
<text x="370.83" y="146.22">
<tspan style="stroke-width:.94" x="370.83" y="146.22">eur<tspan style="font-weight:bold;stroke-width:.94">en</tspan>
</tspan>
</text>
<text x="430.59" y="146.22">
<tspan style="stroke-width:.94" x="430.59" y="146.22">ihr<tspan style="font-weight:bold;stroke-width:.94">en</tspan>
</tspan>
</text>
<text x="488.06" y="146.54">
<tspan style="stroke-width:.94" x="488.06" y="146.54">ihr<tspan style="font-weight:bold;stroke-width:.94">en</tspan>
</tspan>
</text>
<text x="76.07" y="172.51">
<tspan style="stroke-width:.94" x="76.07" y="172.51">mein<tspan style="font-weight:bold;stroke-width:.94">es</tspan>
</tspan>
</text>
<text x="136.82" y="172.99">
<tspan style="stroke-width:.94" x="136.82" y="172.99">dein<tspan style="font-weight:bold;stroke-width:.94">es</tspan>
</tspan>
</text>
<text x="195.93" y="173.32">
<tspan style="stroke-width:.94" x="195.93" y="173.32">sein<tspan style="font-weight:bold;stroke-width:.94">es</tspan>
</tspan>
</text>
<text x="253.73" y="173.32">
<tspan style="stroke-width:.94" x="253.73" y="173.32">sein<tspan style="font-weight:bold;stroke-width:.94">es</tspan>
</tspan>
</text>
<text x="306.3" y="172.67">
<tspan style="stroke-width:.94" x="306.3" y="172.67">unser<tspan style="font-weight:bold;stroke-width:.94">es</tspan>
</tspan>
</text>
<text x="370.96" y="172.99">
<tspan style="stroke-width:.94" x="370.96" y="172.99">eur<tspan style="font-weight:bold;stroke-width:.94">es</tspan>
</tspan>
</text>
<text x="430.72" y="172.99">
<tspan style="stroke-width:.94" x="430.72" y="172.99">ihr<tspan style="font-weight:bold;stroke-width:.94">es</tspan>
</tspan>
</text>
<text x="488.19" y="173.32">
<tspan style="stroke-width:.94" x="488.19" y="173.32">ihr<tspan style="font-weight:bold;stroke-width:.94">es</tspan>
</tspan>
</text>
<text x="78.09" y="198.63">
<tspan style="stroke-width:.94" x="78.09" y="198.63">mein<tspan style="font-weight:bold;stroke-width:.94">e</tspan>
</tspan>
</text>
<text x="138.84" y="199.12">
<tspan style="stroke-width:.94" x="138.84" y="199.12">dein<tspan style="font-weight:bold;stroke-width:.94">e</tspan>
</tspan>
</text>
<text x="197.95" y="199.44">
<tspan style="stroke-width:.94" x="197.95" y="199.44">sein<tspan style="font-weight:bold;stroke-width:.94">e</tspan>
</tspan>
</text>
<text x="255.75" y="199.44">
<tspan style="stroke-width:.94" x="255.75" y="199.44">sein<tspan style="font-weight:bold;stroke-width:.94">e</tspan>
</tspan>
</text>
<text x="308.32" y="198.79">
<tspan style="stroke-width:.94" x="308.32" y="198.79">unser<tspan style="font-weight:bold;stroke-width:.94">e</tspan>
</tspan>
</text>
<text x="372.98" y="199.12">
<tspan style="stroke-width:.94" x="372.98" y="199.12">eur<tspan style="font-weight:bold;stroke-width:.94">e</tspan>
</tspan>
</text>
<text x="432.74" y="199.12">
<tspan style="stroke-width:.94" x="432.74" y="199.12">ihr<tspan style="font-weight:bold;stroke-width:.94">e</tspan>
</tspan>
</text>
<text x="490.21" y="199.44">
<tspan style="stroke-width:.94" x="490.21" y="199.44">ihr<tspan style="font-weight:bold;stroke-width:.94">e</tspan>
</tspan>
</text>
<text x="78.21" y="225.41">
<tspan style="stroke-width:.94" x="78.21" y="225.41">mein<tspan style="font-weight:bold;stroke-width:.94">e</tspan>
</tspan>
</text>
<text x="138.97" y="225.89">
<tspan style="stroke-width:.94" x="138.97" y="225.89">dein<tspan style="font-weight:bold;stroke-width:.94">e</tspan>
</tspan>
</text>
<text x="198.07" y="226.22">
<tspan style="stroke-width:.94" x="198.07" y="226.22">sein<tspan style="font-weight:bold;stroke-width:.94">e</tspan>
</tspan>
</text>
<text x="255.87" y="226.22">
<tspan style="stroke-width:.94" x="255.87" y="226.22">sein<tspan style="font-weight:bold;stroke-width:.94">e</tspan>
</tspan>
</text>
<text x="308.44" y="225.57">
<tspan style="stroke-width:.94" x="308.44" y="225.57">unser<tspan style="font-weight:bold;stroke-width:.94">e</tspan>
</tspan>
</text>
<text x="373.1" y="225.89">
<tspan style="stroke-width:.94" x="373.1" y="225.89">eur<tspan style="font-weight:bold;stroke-width:.94">e</tspan>
</tspan>
</text>
<text x="432.86" y="225.89">
<tspan style="stroke-width:.94" x="432.86" y="225.89">ihr<tspan style="font-weight:bold;stroke-width:.94">e</tspan>
</tspan>
</text>
<text x="490.33" y="226.22">
<tspan style="stroke-width:.94" x="490.33" y="226.22">ihr<tspan style="font-weight:bold;stroke-width:.94">e</tspan>
</tspan>
</text>
</g>
</g>
<path d="m205.17 7.57h72.64v12.68h-72.64z" style="fill:none;stroke:#f00;stroke-width:1.06;stroke-dasharray:6.38 1.06"/>
<path d="m424.11 7.57h101.04v12.68h-101.04z" style="fill:none;stroke:#f00;stroke-width:1.06;stroke-dasharray:6.38 1.06"/>
<path d="m68.16 128.29 463.9.26" style="fill:#729fcf;stroke:#000;stroke-width:3.43"/>
</svg>