<svg height="360" viewBox="0 0 762.95 247.15" width="1300" xmlns="http://www.w3.org/2000/svg">
<g style="fill:#f2aa37">
<path d="m187.18 73.59h171.94v18.11h-171.94z"/>
<path d="m187.23 16.07h171.89v18.11h-171.89z"/>
<path d="m.56 16.07h186.62v18.11h-186.62z"/>
</g>
<path d="m.56 167.39h358.56v21.24h-358.56z" style="fill:#ff5b5b"/>
<g style="fill:#94ff48">
<path d="m541.3 16.07h284.67v54.32h-284.67z"/>
<path d="m359.12 131.18h182.19v36.21h-182.19z"/>
<path d="m541.3 73.59h284.67v151.25h-284.67z"/>
<path d="m359.12 188.63h182.19v36.21h-182.19z"/>
<path d="m.56 185.5h358.56v57.45h-358.56z"/>
<path d="m187.18 131.18h171.94v36.21h-171.94z"/>
</g>
<path d="m187.18 91.7h171.94v36.21h-171.94z" style="fill:#ad7fa8"/>
<path d="m359.12 167.39h182.19v21.24h-182.19z" style="fill:#729fcf"/>
<path d="m359.12 224.84h466.85v18.31h-466.85z" style="fill:#729fcf"/>
<path d="m187.18 34.18h171.94v36.21h-171.94z" style="fill:#ad7fa8"/>
<path d="m.56 34.18h186.67v36.21h-186.67z" style="fill:#729fcf"/>
<path d="m.56 73.59h186.62v93.8h-186.62z" style="fill:#94ff48"/>
<path d="m359.12 16.07h182.18v111.84h-182.18z" style="fill:#f2aa37"/>
<path d="m.56 16.07h186.62v18.11h-186.62z" style="fill:none;stroke:#000;stroke-width:1.77"/>
<g style="stroke-width:.94" transform="translate(32.28 -.7)">
<text x="532.62" y="-337">
<tspan style="stroke-width:.94" x="532.62" y="-328.14"/>
</text>
<g style="font-family:Droid Sans;letter-spacing:0;word-spacing:0">
<g style="font-size:10">
<text x="-91.12" y="28.87">
<tspan style="font-weight:bold" x="-91.12" y="28.87">Nom_weak</tspan>
</text>
<text x="45.96" y="11.15">
<tspan style="font-weight:bold" x="45.96" y="11.15">Masc</tspan>
</text>
<text x="227.51" y="12.3">
<tspan style="font-weight:bold;stroke-width:.94" x="227.51" y="12.3">Neut</tspan>
</text>
<text x="403.97" y="11.57">
<tspan style="font-weight:bold;stroke-width:.94" x="403.97" y="11.57">Femn</tspan>
</text>
<text x="650.59" y="12.88">
<tspan style="font-weight:bold;stroke-width:.94" x="650.59" y="12.88">Plur</tspan>
</text>
</g>
<g style="font-size:12.5">
<text x="-9.01" y="47.85">
<tspan x="-9.01" y="47.85">(k)ein/mein dunkl<tspan style="font-weight:bold">er</tspan> Wald</tspan>
</text>
<text x="177.93" y="47.45">
<tspan x="177.93" y="47.45">
<tspan style="stroke-width:.94" x="177.93" y="47.45">(k)ein/mein lang<tspan style="font-weight:bold">es</tspan> Tal</tspan>
</tspan>
</text>
<text x="358.7" y="29.38">
<tspan style="stroke-width:.94" x="358.7" y="29.38">die/jede ruhig<tspan style="font-weight:bold">e</tspan> Weise</tspan>
</text>
<text x="-.1" y="29.57">
<tspan style="stroke-width:.94" x="-.1" y="29.57">der/jeder dunkl<tspan style="font-weight:bold;stroke-width:.94">e</tspan> Wald</tspan>
</text>
<text x="-.87" y="65.79">
<tspan style="stroke-width:.94" x="-.87" y="65.79">Ø/wenig frisch<tspan style="font-weight:bold">er</tspan> Saft</tspan>
</text>
<text x="172.86" y="65.56">
<tspan style="stroke-width:.94" x="172.86" y="65.56">Ø/wenig frisch<tspan style="font-weight:bold">es</tspan> Wasser</tspan>
</text>
<text x="187.61" y="29.38">
<tspan style="stroke-width:.94" x="187.61" y="29.38">das/jedes lang<tspan style="font-weight:bold">e</tspan> Tal</tspan>
</text>
<text x="340.22" y="47.49">
<tspan style="stroke-width:.94" x="340.22" y="47.49">(k)eine/meine ruhig<tspan style="font-weight:bold">e</tspan> Wiese</tspan>
</text>
<text x="357.47" y="65.53">
<tspan style="stroke-width:.94" x="357.47" y="65.53">Ø/wenig frisch<tspan style="font-weight:bold;stroke-width:.94">e</tspan> Milch</tspan>
</text>
<text x="534.37" y="30.24">
<tspan style="stroke-width:.94" x="534.37" y="30.24">die/alle dunkl<tspan style="font-weight:bold;stroke-width:.94">en</tspan> Waelder/Taeler/Wiesen</tspan>
</text>
<text x="522.9" y="48.32">
<tspan style="stroke-width:.94" x="522.9" y="48.32">keine/meine dunkl<tspan style="font-weight:bold;stroke-width:.94">en</tspan> Waelder/Taeler/Wiesen</tspan>
</text>
<text x="541.26" y="66.58">
<tspan style="stroke-width:.94" x="541.26" y="66.58">Ø/viele dunkl<tspan style="font-weight:bold;stroke-width:.94">e</tspan> Waelder/Taeler/Wiesen</tspan>
</text>
</g>
</g>
</g>
<g style="fill:none;stroke:#000;stroke-width:1.77">
<path d="m.56 34.18h186.62v18.11h-186.62z"/>
<path d="m.56 52.29h186.62v18.11h-186.62z"/>
<path d="m187.18 16.07h171.94v18.11h-171.94z"/>
<path d="m187.18 34.18h171.94v18.11h-171.94z"/>
<path d="m187.18 52.29h171.94v18.11h-171.94z"/>
<path d="m359.12 16.07h182.19v18.11h-182.19z"/>
<path d="m359.12 34.18h182.19v18.11h-182.19z"/>
<path d="m359.12 52.29h182.19v18.11h-182.19z"/>
<path d="m541.3 16.07h284.67v18.11h-284.67z"/>
<path d="m541.3 34.18h284.67v18.11h-284.67z"/>
<path d="m541.3 52.29h284.67v18.11h-284.67z"/>
<path d="m.56 73.59h186.62v18.11h-186.62z"/>
</g>
<g style="font-size:12.5;font-family:Droid Sans;letter-spacing:0;word-spacing:0;stroke-width:.94" transform="translate(32.28 -.7)">
<text x="-24.99" y="105.37">
<tspan style="stroke-width:.94" x="-24.99" y="105.37">(k)einen/meinen dunkl<tspan style="font-weight:bold;stroke-width:.94">en</tspan> Wald</tspan>
</text>
<text x="177.93" y="104.97">
<tspan style="stroke-width:.94" x="177.93" y="104.97">
<tspan style="stroke-width:.94" x="177.93" y="104.97">(k)ein/mein lang<tspan style="font-weight:bold;stroke-width:.94">es</tspan> Tal</tspan>
</tspan>
</text>
<text x="358.7" y="86.9">
<tspan style="stroke-width:.94" x="358.7" y="86.9">die/jede ruhig<tspan style="font-weight:bold;stroke-width:.94">e</tspan> Weise</tspan>
</text>
<text x="-5.16" y="87.08">
<tspan style="stroke-width:.94" x="-5.16" y="87.08">den/jeden dunkl<tspan style="font-weight:bold;stroke-width:.94">en</tspan> Wald</tspan>
</text>
<text x="-.87" y="123.31">
<tspan style="stroke-width:.94" x="-.87" y="123.31">Ø/wenig frisch<tspan style="font-weight:bold;stroke-width:.94">en</tspan> Saft</tspan>
</text>
<text x="172.86" y="123.08">
<tspan style="stroke-width:.94" x="172.86" y="123.08">Ø/wenig frisch<tspan style="font-weight:bold;stroke-width:.94">es</tspan> Wasser</tspan>
</text>
<text x="187.61" y="86.9">
<tspan style="stroke-width:.94" x="187.61" y="86.9">das/jedes lang<tspan style="font-weight:bold;stroke-width:.94">e</tspan> Tal</tspan>
</text>
<text x="340.22" y="105.01">
<tspan style="stroke-width:.94" x="340.22" y="105.01">(k)eine/meine ruhig<tspan style="font-weight:bold;stroke-width:.94">e</tspan> Wiese</tspan>
</text>
<text x="357.47" y="123.05">
<tspan style="stroke-width:.94" x="357.47" y="123.05">Ø/wenig frisch<tspan style="font-weight:bold;stroke-width:.94">e</tspan> Milch</tspan>
</text>
<text x="534.37" y="87.76">
<tspan style="stroke-width:.94" x="534.37" y="87.76">die/alle dunkl<tspan style="font-weight:bold;stroke-width:.94">en</tspan> Waelder/Taeler/Wiesen</tspan>
</text>
<text x="522.9" y="105.84">
<tspan style="stroke-width:.94" x="522.9" y="105.84">keine/meine dunkl<tspan style="font-weight:bold;stroke-width:.94">en</tspan> Waelder/Taeler/Wiesen</tspan>
</text>
<text x="541.26" y="124.09">
<tspan style="stroke-width:.94" x="541.26" y="124.09">Ø/viele dunkl<tspan style="font-weight:bold;stroke-width:.94">e</tspan> Waelder/Taeler/Wiesen</tspan>
</text>
</g>
<g style="stroke:#000">
<g style="fill:none;stroke-width:1.77">
<path d="m.56 91.7h186.62v18.1h-186.62z"/>
<path d="m.56 109.8h186.62v18.11h-186.62z"/>
<path d="m187.18 73.59h171.94v18.11h-171.94z"/>
<path d="m187.18 91.7h171.94v18.1h-171.94z"/>
<path d="m187.18 109.8h171.94v18.11h-171.94z"/>
<path d="m359.12 73.59h182.19v18.11h-182.19z"/>
<path d="m359.12 91.7h182.18v18.1h-182.18z"/>
<path d="m359.12 109.8h182.19v18.11h-182.19z"/>
<path d="m541.3 73.59h284.67v18.11h-284.67z"/>
<path d="m541.3 91.7h284.67v18.11h-284.67z"/>
<path d="m541.3 109.8h284.67v18.11h-284.67z"/>
</g>
<path d="m-.31 71.89h827.21" style="fill:#3465a4;stroke-width:4.68"/>
<path d="m-.36 187.02h827.24" style="fill:#3465a4;stroke-width:4.68"/>
<path d="m.56 131.18h186.62v18.11h-186.62z" style="fill:none;stroke-width:1.77"/>
</g>
<g style="font-size:12.5;font-family:Droid Sans;letter-spacing:0;word-spacing:0;stroke-width:.94" transform="translate(32.28 -.7)">
<text x="-28.82" y="162.95">
<tspan style="stroke-width:.94" x="-28.82" y="162.95">(k)einem/meinem dunkl<tspan style="font-weight:bold;stroke-width:.94">en</tspan> Wald</tspan>
</text>
<text x="160.55" y="162.56">
<tspan style="stroke-width:.94" x="160.55" y="162.56">
<tspan style="stroke-width:.94" x="160.55" y="162.56">(k)einem/meinem lang<tspan style="font-weight:bold;stroke-width:.94">en</tspan> Tal</tspan>
</tspan>
</text>
<text x="352.99" y="144.48">
<tspan style="stroke-width:.94" x="352.99" y="144.48">der/jeder ruhig<tspan style="font-weight:bold;stroke-width:.94">en</tspan> Weise</tspan>
</text>
<text x="-9.51" y="144.67">
<tspan style="stroke-width:.94" x="-9.51" y="144.67">dem/jedem dunkl<tspan style="font-weight:bold;stroke-width:.94">en</tspan> Wald</tspan>
</text>
<text x="-.87" y="180.9">
<tspan style="stroke-width:.94" x="-.87" y="180.9">Ø/wenig frisch<tspan style="font-weight:bold;stroke-width:.94">em</tspan> Saft</tspan>
</text>
<text x="171.38" y="180.67">
<tspan style="stroke-width:.94" x="171.38" y="180.67">Ø/wenig frisch<tspan style="font-weight:bold;stroke-width:.94">em</tspan> Wasser</tspan>
</text>
<text x="181.12" y="144.49">
<tspan style="stroke-width:.94" x="181.12" y="144.49">dem/jedem lang<tspan style="font-weight:bold;stroke-width:.94">en</tspan> Tal</tspan>
</text>
<text x="332.18" y="162.59">
<tspan style="stroke-width:.94" x="332.18" y="162.59">(k)einer/meiner ruhig<tspan style="font-weight:bold;stroke-width:.94">en</tspan> Wiese</tspan>
</text>
<text x="355.17" y="180.64">
<tspan style="stroke-width:.94" x="355.17" y="180.64">Ø/wenig frisch<tspan style="font-weight:bold;stroke-width:.94">er</tspan> Milch</tspan>
</text>
<text x="524.88" y="145.35">
<tspan style="stroke-width:.94" x="524.88" y="145.35">den/allen dunkl<tspan style="font-weight:bold;stroke-width:.94">en</tspan> Waeldern/Taelern/Wiesen</tspan>
</text>
<text x="512.63" y="163.42">
<tspan style="stroke-width:.94" x="512.63" y="163.42">keinen/diesen dunkl<tspan style="font-weight:bold;stroke-width:.94">en</tspan> Waeldern/Taelern/Wiesen</tspan>
</text>
<text x="527.74" y="181.68">
<tspan style="stroke-width:.94" x="527.74" y="181.68">Ø/vielen dunkl<tspan style="font-weight:bold;stroke-width:.94">en</tspan> Waeldern/Taelern/Wiesen</tspan>
</text>
</g>
<g style="stroke:#000">
<g style="fill:none;stroke-width:1.77">
<path d="m.56 149.28h186.62v18.11h-186.62z"/>
<path d="m.56 167.39h186.62v18.11h-186.62z"/>
<path d="m187.18 131.18h171.94v18.11h-171.94z"/>
<path d="m187.18 149.28h171.94v18.11h-171.94z"/>
<path d="m187.18 167.39h171.94v18.11h-171.94z"/>
<path d="m359.12 131.18h182.19v18.11h-182.19z"/>
<path d="m359.12 149.28h182.19v18.11h-182.19z"/>
<path d="m359.12 167.39h182.19v18.11h-182.19z"/>
<path d="m541.3 131.18h284.67v18.11h-284.67z"/>
<path d="m541.3 149.28h284.67v18.11h-284.67z"/>
<path d="m541.3 167.39h284.67v18.11h-284.67z"/>
</g>
<path d="m-.33 129.52h827.19" style="fill:#3465a4;stroke-width:4.68"/>
<path d="m.56 188.63h186.62v18.11h-186.62z" style="fill:none;stroke-width:1.77"/>
</g>
<g style="font-size:12.5;font-family:Droid Sans;letter-spacing:0;word-spacing:0;stroke-width:.94" transform="translate(32.28 -.7)">
<text x="-29.19" y="220.4">
<tspan style="stroke-width:.94" x="-29.19" y="220.4">(k)eines/meines dunkl<tspan style="font-weight:bold;stroke-width:.94">en</tspan> Waldes</tspan>
</text>
<text x="163.51" y="220.01">
<tspan style="stroke-width:.94" x="163.51" y="220.01">
<tspan style="stroke-width:.94" x="163.51" y="220.01">(k)eines/meines lang<tspan style="font-weight:bold;stroke-width:.94">en</tspan> Tals</tspan>
</tspan>
</text>
<text x="352.99" y="201.93">
<tspan style="stroke-width:.94" x="352.99" y="201.93">der/jeder ruhig<tspan style="font-weight:bold;stroke-width:.94">en</tspan> Weise</tspan>
</text>
<text x="-9.51" y="202.12">
<tspan style="stroke-width:.94" x="-9.51" y="202.12">des/jedes dunkl<tspan style="font-weight:bold;stroke-width:.94">en</tspan> Waldes</tspan>
</text>
<text x="-4.83" y="238.35">
<tspan style="stroke-width:.94" x="-4.83" y="238.35">Ø/wenig frisch<tspan style="font-weight:bold;stroke-width:.94">en</tspan> Saftes</tspan>
</text>
<text x="168.15" y="238.12">
<tspan style="stroke-width:.94" x="168.15" y="238.12">Ø/wenig frisch<tspan style="font-weight:bold;stroke-width:.94">en</tspan> Wassers</tspan>
</text>
<text x="181.12" y="201.94">
<tspan style="stroke-width:.94" x="181.12" y="201.94">des/jedes lang<tspan style="font-weight:bold;stroke-width:.94">en</tspan> Tals</tspan>
</text>
<text x="332.18" y="220.04">
<tspan style="stroke-width:.94" x="332.18" y="220.04">(k)einer/meiner ruhig<tspan style="font-weight:bold;stroke-width:.94">en</tspan> Wiese</tspan>
</text>
<text x="355.17" y="238.09">
<tspan style="stroke-width:.94" x="355.17" y="238.09">Ø/wenig frisch<tspan style="font-weight:bold;stroke-width:.94">er</tspan> Milch</tspan>
</text>
<text x="531.27" y="202.8">
<tspan style="stroke-width:.94" x="531.27" y="202.8">der/aller dunkl<tspan style="font-weight:bold;stroke-width:.94">en</tspan> Waelder/Taeler/Wiesen</tspan>
</text>
<text x="519.04" y="220.87">
<tspan style="stroke-width:.94" x="519.04" y="220.87">keiner/dieser dunkl<tspan style="font-weight:bold;stroke-width:.94">en</tspan> Waelder/Taeler/Wiesen</tspan>
</text>
<text x="537.93" y="239.13">
<tspan style="stroke-width:.94" x="537.93" y="239.13">Ø/vieler dunkl<tspan style="font-weight:bold;stroke-width:.94">er</tspan> Waelder/Taeler/Wiesen</tspan>
</text>
</g>
<g style="fill:none;stroke:#000;stroke-width:1.77">
<path d="m.56 206.73h186.62v18.11h-186.62z"/>
<path d="m.56 224.84h186.62v18.11h-186.62z"/>
<path d="m187.18 188.63h171.94v18.11h-171.94z"/>
<path d="m187.18 206.73h171.94v18.11h-171.94z"/>
<path d="m187.18 224.84h171.94v18.11h-171.94z"/>
<path d="m359.12 188.63h182.19v18.11h-182.19z"/>
<path d="m359.12 206.73h182.19v18.11h-182.19z"/>
<path d="m359.12 224.84h182.19v18.11h-182.19z"/>
<path d="m541.3 188.63h284.67v18.11h-284.67z"/>
<path d="m541.3 206.73h284.67v18.11h-284.67z"/>
<path d="m541.3 224.84h284.67v18.11h-284.67z"/>
</g>
<g style="font-size:10;font-family:Droid Sans;letter-spacing:0;word-spacing:0;stroke-width:.94" transform="translate(32.28 -.7)">
<text x="-94.87" y="46.98">
<tspan style="font-weight:bold;stroke-width:.94" x="-94.87" y="46.98">Nom_mixed</tspan>
</text>
<text x="-96.25" y="64.4">
<tspan style="font-weight:bold;stroke-width:.94" x="-96.25" y="64.4">Nom_strong</tspan>
</text>
<text x="-89.14" y="86.72">
<tspan style="font-weight:bold;stroke-width:.94" x="-89.14" y="86.72">Akk_weak</tspan>
</text>
<text x="-92.89" y="104.83">
<tspan style="font-weight:bold;stroke-width:.94" x="-92.89" y="104.83">Akk_mixed</tspan>
</text>
<text x="-94.27" y="122.25">
<tspan style="font-weight:bold;stroke-width:.94" x="-94.27" y="122.25">Akk_strong</tspan>
</text>
<text x="-88.84" y="144.07">
<tspan style="font-weight:bold;stroke-width:.94" x="-88.84" y="144.07">Dat_weak</tspan>
</text>
<text x="-92.59" y="162.17">
<tspan style="font-weight:bold;stroke-width:.94" x="-92.59" y="162.17">Dat_mixed</tspan>
</text>
<text x="-93.96" y="179.6">
<tspan style="font-weight:bold;stroke-width:.94" x="-93.96" y="179.6">Dat_strong</tspan>
</text>
<text x="-88.96" y="201.74">
<tspan style="font-weight:bold;stroke-width:.94" x="-88.96" y="201.74">Gen_weak</tspan>
</text>
<text x="-92.7" y="219.85">
<tspan style="font-weight:bold;stroke-width:.94" x="-92.7" y="219.85">Gen_mixed</tspan>
</text>
<text x="-94.08" y="237.27">
<tspan style="font-weight:bold;stroke-width:.94" x="-94.08" y="237.27">Gen_strong</tspan>
</text>
</g>
</svg>
