<svg height="200" viewBox="0 0 282.04 133.7" width="550" xmlns="http://www.w3.org/2000/svg">
<path d="m96.7 20.91h57.94v52.05h-57.94z" style="fill:#6ec814"/>
<g style="fill:#729fcf">
<path d="m154.64 99.35h115.88v25.66h-115.88z"/>
<path d="m154.64 72.96h57.94v25.66h-57.94z"/>
<path d="m38.75 20.91h57.94v25.66h-57.94z"/>
</g>
<path d="m212.58 73.69h57.94v25.66h-57.94z" style="fill:#94ff48"/>
<path d="m39.22 47.3h57.47v25.66h-57.47z" style="fill:#94ff48"/>
<path d="m154.64 20.18h115.89v52.78h-115.89z" style="fill:#f2aa37"/>
<path d="m38.75 100.09h115.89v25.66h-115.89z" style="fill:#81537e"/>
<path d="m38.75 72.96h115.89v25.66h-115.89z" style="fill:#ff5b5b"/>
<path d="m38.75 20.18h57.95v26.39h-57.95z" style="fill:none;stroke:#000;stroke-width:1.77"/>
<g style="stroke-width:.94">
<text x="391.63" y="-86.99">
<tspan style="stroke-width:.94" x="391.63" y="-78.13"/>
</text>
<g style="font-size:10;font-family:Droid Sans;letter-spacing:0;word-spacing:0">
<text x="9.73" y="37.38">
<tspan style="font-weight:bold" x="9.73" y="37.38">Nom</tspan>
</text>
<text x="13.7" y="62.91">
<tspan style="font-weight:bold" x="13.7" y="62.91">Akk</tspan>
</text>
<text x="14.38" y="89.26">
<tspan style="font-weight:bold" x="14.38" y="89.26">Dat</tspan>
</text>
<text x="56.31" y="14.75">
<tspan style="font-weight:bold" x="56.31" y="14.75">Masc</tspan>
</text>
</g>
</g>
<g style="fill:none;stroke:#000;stroke-width:1.77">
<path d="m96.7 20.18h57.94v26.39h-57.94z"/>
<path d="m154.64 20.18h57.94v26.39h-57.94z"/>
<path d="m212.58 20.18h57.94v26.39h-57.94z"/>
<path d="m38.75 46.57h57.94v26.39h-57.94z"/>
<path d="m96.7 46.57h57.94v26.39h-57.94z"/>
<path d="m154.64 46.57h57.94v26.39h-57.94z"/>
<path d="m212.58 46.57h57.94v26.39h-57.94z"/>
<path d="m38.75 72.96h57.94v26.39h-57.94z"/>
<path d="m96.7 72.96h57.94v26.39h-57.94z"/>
<path d="m154.64 72.96h57.94v26.39h-57.94z"/>
<path d="m212.58 72.96h57.94v26.39h-57.94z"/>
<path d="m38.75 99.35h57.95v26.4h-57.95z"/>
<path d="m96.7 99.35h57.94v26.39h-57.94z"/>
<path d="m154.64 99.35h57.94v26.39h-57.94z"/>
<path d="m212.58 99.35h57.94v26.39h-57.94z"/>
</g>
<g style="stroke-width:.94;font-family:Droid Sans;letter-spacing:0;word-spacing:0">
<g style="font-size:10">
<text x="12.76" y="116.4">
<tspan style="font-weight:bold;stroke-width:.94" x="12.76" y="116.4">Gen</tspan>
</text>
<text x="114.3" y="14.2">
<tspan style="font-weight:bold;stroke-width:.94" x="114.3" y="14.2">Neut</tspan>
</text>
<text x="170.58" y="14.69">
<tspan style="font-weight:bold;stroke-width:.94" x="170.58" y="14.69">Femn</tspan>
</text>
<text x="230.95" y="14.69">
<tspan style="font-weight:bold;stroke-width:.94" x="230.95" y="14.69">Plur</tspan>
</text>
</g>
<g style="font-size:12.5">
<text x="175.91" y="37.63">
<tspan style="stroke-width:.94" x="175.91" y="37.63">-e</tspan>
</text>
<text x="176.43" y="63.85">
<tspan style="stroke-width:.94" x="176.43" y="63.85">-e</tspan>
</text>
<text x="174.09" y="89.82">
<tspan style="stroke-width:.94" x="174.09" y="89.82">-er</tspan>
</text>
<text x="174.01" y="115.78">
<tspan style="stroke-width:.94" x="174.01" y="115.78">-er</tspan>
</text>
<text x="234.07" y="37.63">
<tspan style="stroke-width:.94" x="234.07" y="37.63">-e</tspan>
</text>
<text x="234.59" y="63.85">
<tspan style="stroke-width:.94" x="234.59" y="63.85">-e</tspan>
</text>
<text x="231.22" y="90.6">
<tspan style="stroke-width:.94" x="231.22" y="90.6">-en</tspan>
</text>
<text x="54.54" y="90.34">
<tspan style="stroke-width:.94" x="54.54" y="90.34">-em</tspan>
</text>
<text x="112.7" y="90.34">
<tspan style="stroke-width:.94" x="112.7" y="90.34">-em</tspan>
</text>
<text x="57.13" y="117.08">
<tspan style="stroke-width:.94" x="57.13" y="117.08">-en</tspan>
</text>
<text x="114.64" y="116.56">
<tspan style="stroke-width:.94" x="114.64" y="116.56">-en</tspan>
</text>
<text x="232.69" y="116.3">
<tspan style="stroke-width:.94" x="232.69" y="116.3">-er</tspan>
</text>
<text x="116.33" y="37.37">
<tspan style="stroke-width:.94" x="116.33" y="37.37">-es</tspan>
</text>
<text x="115.81" y="64.37">
<tspan style="stroke-width:.94" x="115.81" y="64.37">-es</tspan>
</text>
<text x="57.69" y="37.37">
<tspan style="stroke-width:.94" x="57.69" y="37.37">-er</tspan>
</text>
<text x="56.91" y="63.59">
<tspan style="stroke-width:.94" x="56.91" y="63.59">-en</tspan>
</text>
</g>
</g>
</svg>
