<svg height="180" viewBox="0 0 218.91 121.56" width="380" xmlns="http://www.w3.org/2000/svg">
<path d="m121.91 67.44h49.23v51.26h-49.23z" style="fill:#3465a4"/>
<path d="m23.45 41.77h49.23v25.67h-49.23z" style="fill:#94ff48"/>
<path d="m24.56 67.94h97.49v25.66h-97.49z" style="fill:#ff5b5b"/>
<path d="m24.56 93.35h97.48v25.66h-97.48z" style="fill:#81537e"/>
<path d="m169.57 16.02h49.62v102.28h-49.62z" style="fill:#babdb6"/>
<path d="m121.91 16.11h47.15v51.33h-47.15z" style="fill:#f2aa37"/>
<path d="m72.68 41.77h49.23v25.67h-49.23z" style="fill:#729fcf"/>
<path d="m24.47 16.11h97.44v25.66h-97.44z" style="fill:#729fcf"/>
<path d="m24.6 15.94h194.6v102.36h-194.6z" style="fill:none;stroke:#000;stroke-width:1.77"/>
<text style="stroke-width:.94" x="377.94" y="-88.23">
<tspan style="stroke-width:.94" x="377.94" y="-79.37"/>
</text>
<text style="font-size:10;font-family:Droid Sans;letter-spacing:0;word-spacing:0;stroke-width:.94" x="-3.79" y="34.19">
<tspan style="font-weight:bold" x="-3.79" y="34.19">Nom</tspan>
</text>
<path d="m24.47 41.77h194.19" style="fill:none;stroke:#000;stroke-width:1.77"/>
<g style="stroke-width:.94;font-size:10;font-family:Droid Sans;letter-spacing:0;word-spacing:0">
<text x="-2.88" y="58.25">
<tspan style="font-weight:bold" x="-2.88" y="58.25">Akk</tspan>
</text>
<text x="-3.83" y="83.94">
<tspan style="font-weight:bold" x="-3.83" y="83.94">Dat</tspan>
</text>
<text x="-3.58" y="109.09">
<tspan style="font-weight:bold" x="-3.58" y="109.09">Gen</tspan>
</text>
<text x="34.29" y="10.74">
<tspan style="font-weight:bold" x="34.29" y="10.74">Masc</tspan>
</text>
<text x="133.52" y="9.98">
<tspan style="font-weight:bold" x="133.52" y="9.98">Femn</tspan>
</text>
<text x="85.26" y="10.23">
<tspan style="font-weight:bold" x="85.26" y="10.23">Neut</tspan>
</text>
<text x="181.58" y="9.98">
<tspan style="font-weight:bold" x="181.58" y="9.98">Plural</tspan>
</text>
</g>
<g style="fill:none;stroke:#000">
<path d="m169.57 16.02.03 102.2" style="stroke-width:3.54"/>
<g style="stroke-width:1.77">
<path d="m122.02 15.82.03 102.71"/>
<path d="m72.73 15.82.03 102.46"/>
<path d="m24.56 67.94h194.53"/>
<path d="m24.56 93.35h194.53"/>
</g>
</g>
<g style="stroke-width:.94;font-family:Droid Sans;letter-spacing:0;word-spacing:0;font-size:12.5">
<text x="88.55" y="59.19">
<tspan style="stroke-width:.94" x="88.55" y="59.19">ein</tspan>
</text>
<text x="88.92" y="33">
<tspan style="stroke-width:.94" x="88.92" y="33">ein</tspan>
</text>
<text x="38.61" y="33.25">
<tspan style="stroke-width:.94" x="38.61" y="33.25">ein</tspan>
</text>
<text x="32.76" y="58.92">
<tspan style="stroke-width:.94" x="32.76" y="58.92">einen</tspan>
</text>
<text x="132.87" y="33.51">
<tspan style="stroke-width:.94" x="132.87" y="33.51">eine</tspan>
</text>
<text x="132.64" y="58.92">
<tspan style="stroke-width:.94" x="132.64" y="58.92">eine</tspan>
</text>
<text x="80.3" y="85.6">
<tspan style="stroke-width:.94" x="80.3" y="85.6">einem</tspan>
</text>
<text x="30.68" y="85.34">
<tspan style="stroke-width:.94" x="30.68" y="85.34">einem</tspan>
</text>
<text x="190.85" y="33.15">
<tspan style="font-size:12.5;font-family:Droid Sans;stroke-width:.94" x="190.85" y="33.15">Ø</tspan>
</text>
<text x="190.85" y="59.45">
<tspan style="font-size:12.5;font-family:Droid Sans;stroke-width:.94" x="190.85" y="59.45">Ø</tspan>
</text>
<text x="190.59" y="85.37">
<tspan style="font-size:12.5;font-family:Droid Sans;stroke-width:.94" x="190.59" y="85.37">Ø</tspan>
</text>
<text x="190.59" y="110.01">
<tspan style="font-size:12.5;font-family:Droid Sans;stroke-width:.94" x="190.59" y="110.01">Ø</tspan>
</text>
<text x="130.1" y="110.24">
<tspan style="stroke-width:.94" x="130.1" y="110.24">einer</tspan>
</text>
<text x="81.57" y="110.5">
<tspan style="stroke-width:.94" x="81.57" y="110.5">eines</tspan>
</text>
<text x="32.48" y="109.48">
<tspan style="stroke-width:.94" x="32.48" y="109.48">eines</tspan>
</text>
<text x="130.07" y="85.33">
<tspan style="stroke-width:.94" x="130.07" y="85.33">einer</tspan>
</text>
</g>
</svg>
