<svg height="200" viewBox="0 0 282.04 133.7" width="470" xmlns="http://www.w3.org/2000/svg">
<path d="m154.65 20.17h115.87v52.78h-115.87z" style="fill:#f2aa37"/>
<path d="m38.74 72.95h115.9v25.66h-115.9z" style="fill:#ff5b5b"/>
<path d="m38.74 47.29h57.95v25.66h-57.95z" style="fill:#94ff48"/>
<path d="m212.58 72.95h57.95v25.66h-57.95z" style="fill:#94ff48"/>
<path d="m96.7 20.17h57.95v52.78h-57.95z" style="fill:#81537e"/>
<path d="m38.75 100.08h115.85v25.66h-115.85z" style="fill:#81537e"/>
<g style="fill:#729fcf">
<path d="m154.63 73.68h57.95v52.05h-57.95z"/>
<path d="m212.58 99.34h57.95v25.66h-57.95z"/>
<path d="m38.75 20.17h57.95v25.66h-57.95z"/>
</g>
<path d="m38.75 20.17h57.95v26.39h-57.95z" style="fill:none;stroke:#000;stroke-width:1.77"/>
<g style="stroke-width:.94">
<text x="391.63" y="-87">
<tspan style="stroke-width:.94" x="391.63" y="-78.14"/>
</text>
<g style="font-family:Droid Sans;letter-spacing:0;word-spacing:0">
<g style="font-size:10">
<text x="9.73" y="37.37">
<tspan style="font-weight:bold" x="9.73" y="37.37">Nom</tspan>
</text>
<text x="13.7" y="62.9">
<tspan style="font-weight:bold" x="13.7" y="62.9">Akk</tspan>
</text>
<text x="14.37" y="89.25">
<tspan style="font-weight:bold" x="14.37" y="89.25">Dat</tspan>
</text>
<text x="56.31" y="14.74">
<tspan style="font-weight:bold" x="56.31" y="14.74">Masc</tspan>
</text>
</g>
<text style="font-size:12.5" x="45.23" y="38.41">
<tspan x="45.23" y="38.41">welcher</tspan>
</text>
</g>
</g>
<g style="fill:none;stroke:#000;stroke-width:1.77">
<path d="m96.7 20.17h57.94v26.39h-57.94z"/>
<path d="m154.64 20.17h57.94v26.39h-57.94z"/>
<path d="m212.58 20.17h57.94v26.39h-57.94z"/>
<path d="m38.75 46.56h57.94v26.39h-57.94z"/>
<path d="m96.7 46.56h57.94v26.39h-57.94z"/>
<path d="m154.64 46.56h57.94v26.39h-57.94z"/>
<path d="m212.58 46.56h57.94v26.39h-57.94z"/>
<path d="m38.75 72.95h57.94v26.39h-57.94z"/>
<path d="m96.7 72.95h57.94v26.39h-57.94z"/>
<path d="m154.64 72.95h57.94v26.39h-57.94z"/>
<path d="m212.58 72.95h57.94v26.39h-57.94z"/>
<path d="m38.75 99.34h57.95v26.4h-57.95z"/>
<path d="m96.7 99.34h57.94v26.39h-57.94z"/>
<path d="m154.64 99.34h57.94v26.39h-57.94z"/>
<path d="m212.58 99.34h57.94v26.39h-57.94z"/>
</g>
<g style="stroke-width:.94;font-family:Droid Sans;letter-spacing:0;word-spacing:0">
<g style="font-size:10">
<text x="12.75" y="116.39">
<tspan style="font-weight:bold;stroke-width:.94" x="12.75" y="116.39">Gen</tspan>
</text>
<text x="114.29" y="14.19">
<tspan style="font-weight:bold;stroke-width:.94" x="114.29" y="14.19">Neut</tspan>
</text>
<text x="170.58" y="14.68">
<tspan style="font-weight:bold;stroke-width:.94" x="170.58" y="14.68">Femn</tspan>
</text>
<text x="230.95" y="14.68">
<tspan style="font-weight:bold;stroke-width:.94" x="230.95" y="14.68">Plur</tspan>
</text>
</g>
<g style="font-size:12.5">
<text x="161.31" y="90.37">
<tspan style="stroke-width:.94" x="161.31" y="90.37">welcher</tspan>
</text>
<text x="161.57" y="116.85">
<tspan style="stroke-width:.94" x="161.57" y="116.85">welcher</tspan>
</text>
<text x="219.99" y="116.59">
<tspan style="stroke-width:.94" x="219.99" y="116.59">welcher</tspan>
</text>
<text x="44.47" y="64.4">
<tspan style="stroke-width:.94" x="44.47" y="64.4">welchen</tspan>
</text>
<text x="218.14" y="89.85">
<tspan style="stroke-width:.94" x="218.14" y="89.85">welchen</tspan>
</text>
<text x="103.15" y="38.18">
<tspan style="stroke-width:.94" x="103.15" y="38.18">welches</tspan>
</text>
<text x="102.98" y="64.66">
<tspan style="stroke-width:.94" x="102.98" y="64.66">welches</tspan>
</text>
<text x="102.98" y="117.11">
<tspan style="stroke-width:.94" x="102.98" y="117.11">welches</tspan>
</text>
<text x="44.82" y="117.63">
<tspan style="stroke-width:.94" x="44.82" y="117.63">welches</tspan>
</text>
<text x="164.51" y="38.18">
<tspan style="stroke-width:.94" x="164.51" y="38.18">welche</tspan>
</text>
<text x="164.51" y="64.14">
<tspan style="stroke-width:.94" x="164.51" y="64.14">welche</tspan>
</text>
<text x="221.89" y="37.66">
<tspan style="stroke-width:.94" x="221.89" y="37.66">welche</tspan>
</text>
<text x="221.37" y="63.88">
<tspan style="stroke-width:.94" x="221.37" y="63.88">welche</tspan>
</text>
<text x="43.25" y="90.88">
<tspan style="stroke-width:.94" x="43.25" y="90.88">welchem</tspan>
</text>
<text x="100.93" y="91.14">
<tspan style="stroke-width:.94" x="100.93" y="91.14">welchem</tspan>
</text>
</g>
</g>
</svg>