<svg height="380" viewBox="0 0 521.52 156.07" width="880" xmlns="http://www.w3.org/2000/svg">
<path d="m167.66 30.72h57.94v26.39h-57.94z" style="fill:#eb00eb"/>
<g style="fill:#ff5b5b">
<path d="m399.43 109.9h115.89v26.39h-115.89z"/>
<path d="m399.43 57.11h115.89v26.39h-115.89z"/>
<path d="m167.66 109.9h115.89v26.39h-115.89z"/>
</g>
<path d="m51.78 83.5h115.89v52.79h-115.89z" style="fill:#6ec814"/>
<path d="m167.67 83.5h115.88v26.4h-115.88z" style="fill:#3465a4"/>
<path d="m341.5 4.33h57.94v26.39h-57.94z" style="fill:#729fcf"/>
<path d="m51.78 30.72h115.89v52.79h-115.89z" style="fill:#94ff48"/>
<path d="m283.55 30.72h115.89v105.57h-115.89z" style="fill:#81537e"/>
<path d="m457.38 83.51h57.94v26.39h-57.94z" style="fill:#007d00"/>
<path d="m167.67 57.12h115.89v26.39h-115.89z" style="fill:#ff5b5b"/>
<path d="m399.44 83.51h57.94v26.39h-57.94z" style="fill:#729fcf"/>
<path d="m51.78 136.29h463.54v26.39h-463.54z" style="fill:#babdb6"/>
<path d="m399.44 5.06h115.88v52.06h-115.88z" style="fill:#f2aa37"/>
<path d="m51.78 4.33h57.94v26.39h-57.94z" style="fill:none;stroke:#000;stroke-width:1.77"/>
<g style="stroke-width:.94">
<text x="404.66" y="-102.84">
<tspan style="stroke-width:.94" x="404.66" y="-93.98"/>
</text>
<g style="font-size:10;font-family:Droid Sans;letter-spacing:0;word-spacing:0">
<text x="23.09" y="21.54">
<tspan style="font-weight:bold" x="23.09" y="21.54">Nom</tspan>
</text>
<text x="26.29" y="47.07">
<tspan style="font-weight:bold" x="26.29" y="47.07">Akk</tspan>
</text>
<text x="25.67" y="100.06">
<tspan style="font-weight:bold" x="25.67" y="100.06">Dat</tspan>
</text>
<text x="69.34" y="-1.09">
<tspan style="font-weight:bold" x="69.34" y="-1.09">Ich</tspan>
</text>
</g>
</g>
<g style="fill:none;stroke:#000;stroke-width:1.77">
<path d="m109.72 4.33h57.94v26.39h-57.94z"/>
<path d="m167.67 4.33h57.94v26.39h-57.94z"/>
<path d="m225.61 4.33h57.94v26.39h-57.94z"/>
<path d="m283.55 4.33h57.94v26.39h-57.94z"/>
<path d="m341.5 4.33h57.94v26.39h-57.94z"/>
<path d="m399.44 4.33h57.94v26.39h-57.94z"/>
<path d="m457.38 4.33h57.94v26.39h-57.94z"/>
<path d="m51.78 30.72h57.94v26.39h-57.94z"/>
<path d="m109.72 30.72h57.94v26.39h-57.94z"/>
<path d="m167.67 30.72h57.94v26.39h-57.94z"/>
<path d="m225.61 30.72h57.94v26.39h-57.94z"/>
<path d="m283.55 30.72h57.94v26.39h-57.94z"/>
<path d="m341.5 30.72h57.94v26.39h-57.94z"/>
<path d="m399.44 30.72h57.94v26.39h-57.94z"/>
<path d="m457.38 30.72h57.94v26.39h-57.94z"/>
<path d="m51.78 57.12h57.94v26.39h-57.94z"/>
<path d="m109.72 57.12h57.94v26.39h-57.94z"/>
<path d="m167.67 57.12h57.94v26.39h-57.94z"/>
<path d="m225.61 57.12h57.94v26.39h-57.94z"/>
<path d="m283.55 57.12h57.94v26.39h-57.94z"/>
<path d="m341.5 57.12h57.94v26.39h-57.94z"/>
<path d="m399.44 57.12h57.94v26.39h-57.94z"/>
<path d="m457.38 57.12h57.94v26.39h-57.94z"/>
<path d="m51.78 136.29h57.94v26.39h-57.94z"/>
<path d="m109.72 136.29h57.94v26.39h-57.94z"/>
<path d="m167.67 136.29h57.94v26.39h-57.94z"/>
<path d="m225.61 136.29h57.94v26.39h-57.94z"/>
<path d="m283.55 136.29h57.94v26.39h-57.94z"/>
<path d="m341.5 136.29h57.94v26.39h-57.94z"/>
<path d="m399.44 136.29h57.94v26.39h-57.94z"/>
<path d="m457.38 136.29h57.94v26.39h-57.94z"/>
</g>
<g style="stroke-width:.94;font-family:Droid Sans;letter-spacing:0;word-spacing:0">
<g style="font-size:10">
<text style="text-anchor:middle" x="26.54" y="146.85">
<tspan style="font-weight:bold" x="26.54" y="146.85">Gen</tspan> <tspan style="font-weight:bold" x="26.54" y="159.35">(inutiles)</tspan>
</text>
<text x="130.96" y="-1.64">
<tspan style="font-weight:bold;stroke-width:.94" x="130.96" y="-1.64">Du</tspan>
</text>
<text x="190.88" y="-1.15">
<tspan style="font-weight:bold;stroke-width:.94" x="190.88" y="-1.15">Er</tspan>
</text>
<text x="249.17" y="-1.15">
<tspan style="font-weight:bold;stroke-width:.94" x="249.17" y="-1.15">Es</tspan>
</text>
<text x="302.07" y="-.5">
<tspan style="font-weight:bold;stroke-width:.94" x="302.07" y="-.5">Wir</tspan>
</text>
<text x="362.16" y="-.01">
<tspan style="font-weight:bold;stroke-width:.94" x="362.16" y="-.01">Ihr</tspan>
</text>
<text x="409.25" y="-.78">
<tspan style="font-weight:bold;stroke-width:.94" x="409.25" y="-.78">Sie_Sing</tspan>
</text>
<text x="467.81" y="-1">
<tspan style="font-weight:bold;stroke-width:.94" x="467.81" y="-1">Sie_Plur</tspan>
</text>
</g>
<g style="font-size:12.5">
<text x="71.87" y="21.85">
<tspan style="stroke-width:.94" x="71.87" y="21.85">ich</tspan>
</text>
<text x="130.64" y="22.18">
<tspan style="stroke-width:.94" x="130.64" y="22.18">du</tspan>
</text>
<text x="190.08" y="21.52">
<tspan style="stroke-width:.94" x="190.08" y="21.52">er</tspan>
</text>
<text x="247.88" y="21.52">
<tspan style="stroke-width:.94" x="247.88" y="21.52">es</tspan>
</text>
<text x="301.43" y="21.52">
<tspan style="stroke-width:.94" x="301.43" y="21.52">wir</tspan>
</text>
<text x="362.49" y="22.18">
<tspan style="stroke-width:.94" x="362.49" y="22.18">ihr</tspan>
</text>
<text x="420.29" y="22.5">
<tspan style="stroke-width:.94" x="420.29" y="22.5">sie</tspan>
</text>
<text x="479.72" y="22.5">
<tspan style="stroke-width:.94" x="479.72" y="22.5">sie</tspan>
</text>
<text x="66.31" y="48.63">
<tspan style="stroke-width:.94" x="66.31" y="48.63">mich</tspan>
</text>
<text x="125.75" y="48.3">
<tspan style="stroke-width:.94" x="125.75" y="48.3">dich</tspan>
</text>
<text x="186.16" y="48.63">
<tspan style="stroke-width:.94" x="186.16" y="48.63">ihn</tspan>
</text>
<text x="246.9" y="48.3">
<tspan style="stroke-width:.94" x="246.9" y="48.3">es</tspan>
</text>
<text x="301.1" y="48.3">
<tspan style="stroke-width:.94" x="301.1" y="48.3">uns</tspan>
</text>
<text x="356.94" y="48.3">
<tspan style="stroke-width:.94" x="356.94" y="48.3">euch</tspan>
</text>
<text x="419.97" y="48.63">
<tspan style="stroke-width:.94" x="419.97" y="48.63">sie</tspan>
</text>
<text x="479.4" y="48.63">
<tspan style="stroke-width:.94" x="479.4" y="48.63">sie</tspan>
</text>
<text x="69.08" y="100.46">
<tspan style="stroke-width:.94" x="69.08" y="100.46">mir</tspan>
</text>
<text x="129.7" y="101.12">
<tspan style="stroke-width:.94" x="129.7" y="101.12">dir</tspan>
</text>
<text x="184.35" y="101.12">
<tspan style="stroke-width:.94" x="184.35" y="101.12">ihm</tspan>
</text>
<text x="242.15" y="100.79">
<tspan style="stroke-width:.94" x="242.15" y="100.79">ihm</tspan>
</text>
<text x="301.26" y="100.79">
<tspan style="stroke-width:.94" x="301.26" y="100.79">uns</tspan>
</text>
<text x="357.09" y="101.44">
<tspan style="stroke-width:.94" x="357.09" y="101.44">euch</tspan>
</text>
<text x="419.14" y="101.44">
<tspan style="stroke-width:.94" x="419.14" y="101.44">ihr</tspan>
</text>
<text x="470.73" y="101.44">
<tspan style="stroke-width:.94" x="470.73" y="101.44">ihnen</tspan>
</text>
<text x="59.72" y="154.2">
<tspan style="stroke-width:.94" x="59.72" y="154.2">meiner</tspan>
</text>
<text x="120.22" y="154.47">
<tspan style="stroke-width:.94" x="120.22" y="154.47">deiner</tspan>
</text>
<text x="179" y="154.47">
<tspan style="stroke-width:.94" x="179" y="154.47">seiner</tspan>
</text>
<text x="237.13" y="154.14">
<tspan style="stroke-width:.94" x="237.13" y="154.14">seiner</tspan>
</text>
<text x="290.68" y="153.49">
<tspan style="stroke-width:.94" x="290.68" y="153.49">unserer</tspan>
</text>
<text x="357.3" y="153.49">
<tspan style="stroke-width:.94" x="357.3" y="153.49">euer</tspan>
</text>
<text x="414.77" y="153.49">
<tspan style="stroke-width:.94" x="414.77" y="153.49">ihrer</tspan>
</text>
<text x="472.57" y="153.49">
<tspan style="stroke-width:.94" x="472.57" y="153.49">ihrer</tspan>
</text>
</g>
</g>
<g style="fill:none;stroke:#000;stroke-width:1.77">
<path d="m51.78 109.9h57.94v26.39h-57.94z"/>
<path d="m109.72 109.9h57.94v26.39h-57.94z"/>
<path d="m167.67 109.9h57.94v26.39h-57.94z"/>
<path d="m225.61 109.9h57.94v26.39h-57.94z"/>
<path d="m283.55 109.9h57.94v26.39h-57.94z"/>
<path d="m341.5 109.9h57.94v26.39h-57.94z"/>
<path d="m399.44 109.9h57.94v26.39h-57.94z"/>
<path d="m457.38 109.9h57.94v26.39h-57.94z"/>
<path d="m51.78 83.51h57.94v26.39h-57.94z"/>
<path d="m109.72 83.51h57.94v26.39h-57.94z"/>
<path d="m167.67 83.51h57.94v26.39h-57.94z"/>
<path d="m225.61 83.51h57.94v26.39h-57.94z"/>
<path d="m283.55 83.51h57.94v26.39h-57.94z"/>
<path d="m341.5 83.51h57.94v26.39h-57.94z"/>
<path d="m399.44 83.51h57.94v26.39h-57.94z"/>
<path d="m457.38 83.51h57.94v26.39h-57.94z"/>
</g>
<g style="stroke-width:.94;font-family:Droid Sans;letter-spacing:0;word-spacing:0">
<text style="font-size:10" x="7.99" y="126.78">
<tspan style="font-weight:bold;stroke-width:.94" x="7.99" y="126.78">Dat_Refl</tspan>
</text>
<text style="font-size:10" x="6.29" y="74.03">
<tspan style="font-weight:bold;stroke-width:.94" x="6.29" y="74.03">Akk_Refl</tspan>
</text>
<g style="font-size:12.5">
<text x="69.14" y="127.32">
<tspan style="stroke-width:.94" x="69.14" y="127.32">mir</tspan>
</text>
<text x="129.76" y="127.98">
<tspan style="stroke-width:.94" x="129.76" y="127.98">dir</tspan>
</text>
<text x="301.32" y="127.65">
<tspan style="stroke-width:.94" x="301.32" y="127.65">uns</tspan>
</text>
<text x="357.15" y="128.3">
<tspan style="stroke-width:.94" x="357.15" y="128.3">euch</tspan>
</text>
<text x="66.08" y="74.57">
<tspan style="stroke-width:.94" x="66.08" y="74.57">mich</tspan>
</text>
<text x="125.52" y="74.24">
<tspan style="stroke-width:.94" x="125.52" y="74.24">dich</tspan>
</text>
<text x="184.39" y="74.82">
<tspan style="stroke-width:.94" x="184.39" y="74.82">sich</tspan>
</text>
<text x="300.87" y="74.24">
<tspan style="stroke-width:.94" x="300.87" y="74.24">uns</tspan>
</text>
<text x="356.71" y="74.24">
<tspan style="stroke-width:.94" x="356.71" y="74.24">euch</tspan>
</text>
<text x="243.44" y="75.17">
<tspan style="stroke-width:.94" x="243.44" y="75.17">sich</tspan>
</text>
<text x="183.43" y="127.27">
<tspan style="stroke-width:.94" x="183.43" y="127.27">sich</tspan>
</text>
<text x="242.48" y="127.61">
<tspan style="stroke-width:.94" x="242.48" y="127.61">sich</tspan>
</text>
<text x="417.09" y="127.27">
<tspan style="stroke-width:.94" x="417.09" y="127.27">sich</tspan>
</text>
<text x="476.15" y="127.61">
<tspan style="stroke-width:.94" x="476.15" y="127.61">sich</tspan>
</text>
<text x="417.09" y="75.77">
<tspan style="stroke-width:.94" x="417.09" y="75.77">sich</tspan>
</text>
<text x="476.15" y="76.11">
<tspan style="stroke-width:.94" x="476.15" y="76.11">sich</tspan>
</text>
</g>
</g>
</svg>
