<svg height="360" viewBox="0 0 762.95 247.15" width="1300" xmlns="http://www.w3.org/2000/svg">
<path d="m541.3 109.8h284.67v18.11h-284.67z" style="fill:#f2aa37"/>
<path d="m541.3 52.29h284.67v18.11h-284.67z" style="fill:#f2aa37"/>
<path d="m541.3 73.59h284.67v36.21h-284.67z" style="fill:#94ff48"/>
<g style="fill:#f2aa37">
<path d="m187.18 73.59h171.94v18.11h-171.94z"/>
<path d="m187.23 16.07h171.89v18.11h-171.89z"/>
<path d="m.56 16.07h186.62v18.11h-186.62z"/>
</g>
<path d="m.56 167.39h358.56v21.24h-358.56z" style="fill:#ff5b5b"/>
<g style="fill:#94ff48">
<path d="m541.3 16.08h284.67v36.21h-284.67z"/>
<path d="m359.12 131.18h182.19v36.21h-182.19z"/>
<path d="m541.3 131.18h284.67v93.66h-284.67z"/>
<path d="m359.12 188.63h182.19v36.21h-182.19z"/>
<path d="m.56 185.5h358.56v57.45h-358.56z"/>
<path d="m187.18 131.18h171.94v36.21h-171.94z"/>
</g>
<path d="m187.18 91.7h171.94v36.21h-171.94z" style="fill:#ad7fa8"/>
<path d="m359.12 167.39h182.19v21.24h-182.19z" style="fill:#729fcf"/>
<path d="m359.12 224.84h466.85v18.31h-466.85z" style="fill:#729fcf"/>
<path d="m187.18 34.18h171.94v36.21h-171.94z" style="fill:#ad7fa8"/>
<path d="m.56 34.18h186.67v36.21h-186.67z" style="fill:#729fcf"/>
<path d="m.56 73.59h186.62v93.8h-186.62z" style="fill:#94ff48"/>
<path d="m359.12 16.07h182.18v111.84h-182.18z" style="fill:#f2aa37"/>
<path d="m.56 16.07h186.62v18.11h-186.62z" style="fill:none;stroke:#000;stroke-width:1.77"/>
<g style="stroke-width:.94">
<text x="564.9" y="-337.7">
<tspan style="stroke-width:.94" x="564.9" y="-328.84"/>
</text>
<g style="font-family:Droid Sans;letter-spacing:0;word-spacing:0">
<g style="font-size:10">
<text x="-58.84" y="28.17">
<tspan style="font-weight:bold" x="-58.84" y="28.17">Nom_weak</tspan>
</text>
<text x="78.24" y="10.45">
<tspan style="font-weight:bold" x="78.24" y="10.45">Masc</tspan>
</text>
<text x="259.79" y="11.6">
<tspan style="font-weight:bold;stroke-width:.94" x="259.79" y="11.6">Neut</tspan>
</text>
<text x="436.25" y="10.87">
<tspan style="font-weight:bold;stroke-width:.94" x="436.25" y="10.87">Femn</tspan>
</text>
<text x="682.87" y="12.18">
<tspan style="font-weight:bold;stroke-width:.94" x="682.87" y="12.18">Plur</tspan>
</text>
</g>
<g style="font-size:12.5">
<text x="23.27" y="47.15">
<tspan x="23.27" y="47.15">(k)ein/mein dunkl<tspan style="font-weight:bold">er</tspan> Wald</tspan>
</text>
<text x="210.21" y="46.75">
<tspan x="210.21" y="46.75">
<tspan style="stroke-width:.94" x="210.21" y="46.75">(k)ein/mein lang<tspan style="font-weight:bold">es</tspan> Tal</tspan>
</tspan>
</text>
<text x="390.98" y="28.68">
<tspan style="stroke-width:.94" x="390.98" y="28.68">die/jede ruhig<tspan style="font-weight:bold">e</tspan> Weise</tspan>
</text>
<text x="32.18" y="28.87">
<tspan style="stroke-width:.94" x="32.18" y="28.87">der/jeder dunkl<tspan style="font-weight:bold;stroke-width:.94">e</tspan> Wald</tspan>
</text>
<text x="31.41" y="65.09">
<tspan style="stroke-width:.94" x="31.41" y="65.09">Ø/wenig frisch<tspan style="font-weight:bold">er</tspan> Saft</tspan>
</text>
<text x="205.14" y="64.86">
<tspan style="stroke-width:.94" x="205.14" y="64.86">Ø/wenig frisch<tspan style="font-weight:bold">es</tspan> Wasser</tspan>
</text>
<text x="219.89" y="28.68">
<tspan style="stroke-width:.94" x="219.89" y="28.68">das/jedes lang<tspan style="font-weight:bold">e</tspan> Tal</tspan>
</text>
<text x="372.5" y="46.79">
<tspan style="stroke-width:.94" x="372.5" y="46.79">(k)eine/meine ruhig<tspan style="font-weight:bold">e</tspan> Wiese</tspan>
</text>
<text x="389.75" y="64.83">
<tspan style="stroke-width:.94" x="389.75" y="64.83">Ø/wenig frisch<tspan style="font-weight:bold;stroke-width:.94">e</tspan> Milch</tspan>
</text>
<text x="566.65" y="29.54">
<tspan style="stroke-width:.94" x="566.65" y="29.54">die/alle dunkl<tspan style="font-weight:bold;stroke-width:.94">en</tspan> Waelder/Taeler/Wiesen</tspan>
</text>
<text x="555.18" y="47.62">
<tspan style="stroke-width:.94" x="555.18" y="47.62">keine/meine dunkl<tspan style="font-weight:bold;stroke-width:.94">en</tspan> Waelder/Taeler/Wiesen</tspan>
</text>
<text x="573.54" y="65.88">
<tspan style="stroke-width:.94" x="573.54" y="65.88">Ø/viele dunkl<tspan style="font-weight:bold;stroke-width:.94">e</tspan> Waelder/Taeler/Wiesen</tspan>
</text>
</g>
</g>
</g>
<g style="fill:none;stroke:#000;stroke-width:1.77">
<path d="m.56 34.18h186.62v18.11h-186.62z"/>
<path d="m.56 52.29h186.62v18.11h-186.62z"/>
<path d="m187.18 16.07h171.94v18.11h-171.94z"/>
<path d="m187.18 34.18h171.94v18.11h-171.94z"/>
<path d="m187.18 52.29h171.94v18.11h-171.94z"/>
<path d="m359.12 16.07h182.19v18.11h-182.19z"/>
<path d="m359.12 34.18h182.19v18.11h-182.19z"/>
<path d="m359.12 52.29h182.19v18.11h-182.19z"/>
<path d="m541.3 16.07h284.67v18.11h-284.67z"/>
<path d="m541.3 34.18h284.67v18.11h-284.67z"/>
<path d="m541.3 52.29h284.67v18.11h-284.67z"/>
<path d="m.56 73.59h186.62v18.11h-186.62z"/>
</g>
<g style="stroke-width:.94;font-size:12.5;font-family:Droid Sans;letter-spacing:0;word-spacing:0">
<text x="7.29" y="104.67">
<tspan style="stroke-width:.94" x="7.29" y="104.67">(k)einen/meinen dunkl<tspan style="font-weight:bold;stroke-width:.94">en</tspan> Wald</tspan>
</text>
<text x="210.21" y="104.27">
<tspan style="stroke-width:.94" x="210.21" y="104.27">
<tspan style="stroke-width:.94" x="210.21" y="104.27">(k)ein/mein lang<tspan style="font-weight:bold;stroke-width:.94">es</tspan> Tal</tspan>
</tspan>
</text>
<text x="390.98" y="86.2">
<tspan style="stroke-width:.94" x="390.98" y="86.2">die/jede ruhig<tspan style="font-weight:bold;stroke-width:.94">e</tspan> Weise</tspan>
</text>
<text x="27.12" y="86.38">
<tspan style="stroke-width:.94" x="27.12" y="86.38">den/jeden dunkl<tspan style="font-weight:bold;stroke-width:.94">en</tspan> Wald</tspan>
</text>
<text x="31.41" y="122.61">
<tspan style="stroke-width:.94" x="31.41" y="122.61">Ø/wenig frisch<tspan style="font-weight:bold;stroke-width:.94">en</tspan> Saft</tspan>
</text>
<text x="205.14" y="122.38">
<tspan style="stroke-width:.94" x="205.14" y="122.38">Ø/wenig frisch<tspan style="font-weight:bold;stroke-width:.94">es</tspan> Wasser</tspan>
</text>
<text x="219.89" y="86.2">
<tspan style="stroke-width:.94" x="219.89" y="86.2">das/jedes lang<tspan style="font-weight:bold;stroke-width:.94">e</tspan> Tal</tspan>
</text>
<text x="372.5" y="104.31">
<tspan style="stroke-width:.94" x="372.5" y="104.31">(k)eine/meine ruhig<tspan style="font-weight:bold;stroke-width:.94">e</tspan> Wiese</tspan>
</text>
<text x="389.75" y="122.35">
<tspan style="stroke-width:.94" x="389.75" y="122.35">Ø/wenig frisch<tspan style="font-weight:bold;stroke-width:.94">e</tspan> Milch</tspan>
</text>
<text x="566.65" y="87.06">
<tspan style="stroke-width:.94" x="566.65" y="87.06">die/alle dunkl<tspan style="font-weight:bold;stroke-width:.94">en</tspan> Waelder/Taeler/Wiesen</tspan>
</text>
<text x="555.18" y="105.14">
<tspan style="stroke-width:.94" x="555.18" y="105.14">keine/meine dunkl<tspan style="font-weight:bold;stroke-width:.94">en</tspan> Waelder/Taeler/Wiesen</tspan>
</text>
<text x="573.54" y="123.39">
<tspan style="stroke-width:.94" x="573.54" y="123.39">Ø/viele dunkl<tspan style="font-weight:bold;stroke-width:.94">e</tspan> Waelder/Taeler/Wiesen</tspan>
</text>
</g>
<g style="stroke:#000">
<g style="fill:none;stroke-width:1.77">
<path d="m.56 91.7h186.62v18.1h-186.62z"/>
<path d="m.56 109.8h186.62v18.11h-186.62z"/>
<path d="m187.18 73.59h171.94v18.11h-171.94z"/>
<path d="m187.18 91.7h171.94v18.1h-171.94z"/>
<path d="m187.18 109.8h171.94v18.11h-171.94z"/>
<path d="m359.12 73.59h182.19v18.11h-182.19z"/>
<path d="m359.12 91.7h182.18v18.1h-182.18z"/>
<path d="m359.12 109.8h182.19v18.11h-182.19z"/>
<path d="m541.3 73.59h284.67v18.11h-284.67z"/>
<path d="m541.3 91.7h284.67v18.11h-284.67z"/>
<path d="m541.3 109.8h284.67v18.11h-284.67z"/>
</g>
<path d="m-.31 71.89h827.21" style="fill:#3465a4;stroke-width:4.68"/>
<path d="m-.36 187.02h827.24" style="fill:#3465a4;stroke-width:4.68"/>
<path d="m.56 131.18h186.62v18.11h-186.62z" style="fill:none;stroke-width:1.77"/>
</g>
<g style="stroke-width:.94;font-size:12.5;font-family:Droid Sans;letter-spacing:0;word-spacing:0">
<text x="3.46" y="162.25">
<tspan style="stroke-width:.94" x="3.46" y="162.25">(k)einem/meinem dunkl<tspan style="font-weight:bold;stroke-width:.94">en</tspan> Wald</tspan>
</text>
<text x="192.83" y="161.86">
<tspan style="stroke-width:.94" x="192.83" y="161.86">
<tspan style="stroke-width:.94" x="192.83" y="161.86">(k)einem/meinem lang<tspan style="font-weight:bold;stroke-width:.94">en</tspan> Tal</tspan>
</tspan>
</text>
<text x="385.27" y="143.78">
<tspan style="stroke-width:.94" x="385.27" y="143.78">der/jeder ruhig<tspan style="font-weight:bold;stroke-width:.94">en</tspan> Weise</tspan>
</text>
<text x="22.77" y="143.97">
<tspan style="stroke-width:.94" x="22.77" y="143.97">dem/jedem dunkl<tspan style="font-weight:bold;stroke-width:.94">en</tspan> Wald</tspan>
</text>
<text x="31.41" y="180.2">
<tspan style="stroke-width:.94" x="31.41" y="180.2">Ø/wenig frisch<tspan style="font-weight:bold;stroke-width:.94">em</tspan> Saft</tspan>
</text>
<text x="203.66" y="179.97">
<tspan style="stroke-width:.94" x="203.66" y="179.97">Ø/wenig frisch<tspan style="font-weight:bold;stroke-width:.94">em</tspan> Wasser</tspan>
</text>
<text x="213.4" y="143.79">
<tspan style="stroke-width:.94" x="213.4" y="143.79">dem/jedem lang<tspan style="font-weight:bold;stroke-width:.94">en</tspan> Tal</tspan>
</text>
<text x="364.46" y="161.89">
<tspan style="stroke-width:.94" x="364.46" y="161.89">(k)einer/meiner ruhig<tspan style="font-weight:bold;stroke-width:.94">en</tspan> Wiese</tspan>
</text>
<text x="387.45" y="179.94">
<tspan style="stroke-width:.94" x="387.45" y="179.94">Ø/wenig frisch<tspan style="font-weight:bold;stroke-width:.94">er</tspan> Milch</tspan>
</text>
<text x="557.16" y="144.65">
<tspan style="stroke-width:.94" x="557.16" y="144.65">den/allen dunkl<tspan style="font-weight:bold;stroke-width:.94">en</tspan> Waeldern/Taelern/Wiesen</tspan>
</text>
<text x="544.91" y="162.72">
<tspan style="stroke-width:.94" x="544.91" y="162.72">keinen/diesen dunkl<tspan style="font-weight:bold;stroke-width:.94">en</tspan> Waeldern/Taelern/Wiesen</tspan>
</text>
<text x="560.02" y="180.98">
<tspan style="stroke-width:.94" x="560.02" y="180.98">Ø/vielen dunkl<tspan style="font-weight:bold;stroke-width:.94">en</tspan> Waeldern/Taelern/Wiesen</tspan>
</text>
</g>
<g style="stroke:#000">
<g style="fill:none;stroke-width:1.77">
<path d="m.56 149.28h186.62v18.11h-186.62z"/>
<path d="m.56 167.39h186.62v18.11h-186.62z"/>
<path d="m187.18 131.18h171.94v18.11h-171.94z"/>
<path d="m187.18 149.28h171.94v18.11h-171.94z"/>
<path d="m187.18 167.39h171.94v18.11h-171.94z"/>
<path d="m359.12 131.18h182.19v18.11h-182.19z"/>
<path d="m359.12 149.28h182.19v18.11h-182.19z"/>
<path d="m359.12 167.39h182.19v18.11h-182.19z"/>
<path d="m541.3 131.18h284.67v18.11h-284.67z"/>
<path d="m541.3 149.28h284.67v18.11h-284.67z"/>
<path d="m541.3 167.39h284.67v18.11h-284.67z"/>
</g>
<path d="m-.33 129.52h827.19" style="fill:#3465a4;stroke-width:4.68"/>
<path d="m.56 188.63h186.62v18.11h-186.62z" style="fill:none;stroke-width:1.77"/>
</g>
<g style="stroke-width:.94;font-size:12.5;font-family:Droid Sans;letter-spacing:0;word-spacing:0">
<text x="3.09" y="219.7">
<tspan style="stroke-width:.94" x="3.09" y="219.7">(k)eines/meines dunkl<tspan style="font-weight:bold;stroke-width:.94">en</tspan> Waldes</tspan>
</text>
<text x="195.79" y="219.31">
<tspan style="stroke-width:.94" x="195.79" y="219.31">
<tspan style="stroke-width:.94" x="195.79" y="219.31">(k)eines/meines lang<tspan style="font-weight:bold;stroke-width:.94">en</tspan> Tals</tspan>
</tspan>
</text>
<text x="385.27" y="201.23">
<tspan style="stroke-width:.94" x="385.27" y="201.23">der/jeder ruhig<tspan style="font-weight:bold;stroke-width:.94">en</tspan> Weise</tspan>
</text>
<text x="22.77" y="201.42">
<tspan style="stroke-width:.94" x="22.77" y="201.42">des/jedes dunkl<tspan style="font-weight:bold;stroke-width:.94">en</tspan> Waldes</tspan>
</text>
<text x="27.45" y="237.65">
<tspan style="stroke-width:.94" x="27.45" y="237.65">Ø/wenig frisch<tspan style="font-weight:bold;stroke-width:.94">en</tspan> Saftes</tspan>
</text>
<text x="200.43" y="237.42">
<tspan style="stroke-width:.94" x="200.43" y="237.42">Ø/wenig frisch<tspan style="font-weight:bold;stroke-width:.94">en</tspan> Wassers</tspan>
</text>
<text x="213.4" y="201.24">
<tspan style="stroke-width:.94" x="213.4" y="201.24">des/jedes lang<tspan style="font-weight:bold;stroke-width:.94">en</tspan> Tals</tspan>
</text>
<text x="364.46" y="219.34">
<tspan style="stroke-width:.94" x="364.46" y="219.34">(k)einer/meiner ruhig<tspan style="font-weight:bold;stroke-width:.94">en</tspan> Wiese</tspan>
</text>
<text x="387.45" y="237.39">
<tspan style="stroke-width:.94" x="387.45" y="237.39">Ø/wenig frisch<tspan style="font-weight:bold;stroke-width:.94">er</tspan> Milch</tspan>
</text>
<text x="563.55" y="202.1">
<tspan style="stroke-width:.94" x="563.55" y="202.1">der/aller dunkl<tspan style="font-weight:bold;stroke-width:.94">en</tspan> Waelder/Taeler/Wiesen</tspan>
</text>
<text x="551.32" y="220.17">
<tspan style="stroke-width:.94" x="551.32" y="220.17">keiner/dieser dunkl<tspan style="font-weight:bold;stroke-width:.94">en</tspan> Waelder/Taeler/Wiesen</tspan>
</text>
<text x="570.21" y="238.43">
<tspan style="stroke-width:.94" x="570.21" y="238.43">Ø/vieler dunkl<tspan style="font-weight:bold;stroke-width:.94">er</tspan> Waelder/Taeler/Wiesen</tspan>
</text>
</g>
<g style="fill:none;stroke:#000;stroke-width:1.77">
<path d="m.56 206.73h186.62v18.11h-186.62z"/>
<path d="m.56 224.84h186.62v18.11h-186.62z"/>
<path d="m187.18 188.63h171.94v18.11h-171.94z"/>
<path d="m187.18 206.73h171.94v18.11h-171.94z"/>
<path d="m187.18 224.84h171.94v18.11h-171.94z"/>
<path d="m359.12 188.63h182.19v18.11h-182.19z"/>
<path d="m359.12 206.73h182.19v18.11h-182.19z"/>
<path d="m359.12 224.84h182.19v18.11h-182.19z"/>
<path d="m541.3 188.63h284.67v18.11h-284.67z"/>
<path d="m541.3 206.73h284.67v18.11h-284.67z"/>
<path d="m541.3 224.84h284.67v18.11h-284.67z"/>
</g>
<g style="stroke-width:.94;font-family:Droid Sans;letter-spacing:0;word-spacing:0;font-size:10">
<text x="-62.59" y="46.28">
<tspan style="font-weight:bold;stroke-width:.94" x="-62.59" y="46.28">Nom_mixed</tspan>
</text>
<text x="-63.97" y="63.7">
<tspan style="font-weight:bold;stroke-width:.94" x="-63.97" y="63.7">Nom_strong</tspan>
</text>
<text x="-56.86" y="86.02">
<tspan style="font-weight:bold;stroke-width:.94" x="-56.86" y="86.02">Akk_weak</tspan>
</text>
<text x="-60.61" y="104.13">
<tspan style="font-weight:bold;stroke-width:.94" x="-60.61" y="104.13">Akk_mixed</tspan>
</text>
<text x="-61.99" y="121.55">
<tspan style="font-weight:bold;stroke-width:.94" x="-61.99" y="121.55">Akk_strong</tspan>
</text>
<text x="-56.56" y="143.37">
<tspan style="font-weight:bold;stroke-width:.94" x="-56.56" y="143.37">Dat_weak</tspan>
</text>
<text x="-60.31" y="161.47">
<tspan style="font-weight:bold;stroke-width:.94" x="-60.31" y="161.47">Dat_mixed</tspan>
</text>
<text x="-61.68" y="178.9">
<tspan style="font-weight:bold;stroke-width:.94" x="-61.68" y="178.9">Dat_strong</tspan>
</text>
<text x="-56.68" y="201.04">
<tspan style="font-weight:bold;stroke-width:.94" x="-56.68" y="201.04">Gen_weak</tspan>
</text>
<text x="-60.42" y="219.15">
<tspan style="font-weight:bold;stroke-width:.94" x="-60.42" y="219.15">Gen_mixed</tspan>
</text>
<text x="-61.8" y="236.57">
<tspan style="font-weight:bold;stroke-width:.94" x="-61.8" y="236.57">Gen_strong</tspan>
</text>
</g>
</svg>