<svg height="290.17" viewBox="0 0 602.98 290.17" width="602.98" xmlns="http://www.w3.org/2000/svg" xmlns:xlink="http://www.w3.org/1999/xlink">
<marker id="a" orient="auto" refX="0" refY="0" style="overflow:visible">
<path d="m2.31 0-3.46 2v-4z" style="fill:#696969;fill-rule:evenodd;stroke:#696969;stroke-width:.4pt"/>
</marker>
<g transform="translate(67.33 -230.69)">
<g style="fill:none">
<ellipse cx="210.23" cy="360.68" rx="52.8" ry="26.17" style="stroke:#060;stroke-width:.68" transform="matrix(1.32 0 0 2.01 -145.49 -435.54)"/>
<path d="m104.1 388.78h95v94.04h-95z" style="stroke:#060;stroke-width:1.1"/>
<path d="m99.83 327.39 40.17 59.2" style="stroke:#696969;marker-end:url(#a)"/>
<g style="stroke:#060">
<path d="m99.55 332.39v-72.12"/>
<path d="m99.19 299.02 30.83-29.25"/>
<path d="m99.72 322.93 30.83-29.24"/>
</g>
</g>
<g style="font-size:10;font-family:Droid Sans;letter-spacing:0;word-spacing:0">
<text x="87.5" y="256.58">
<tspan x="87.5" y="256.58">master</tspan>
</text>
<text x="131.79" y="266.5">
<tspan x="131.79" y="266.5">branch_1</tspan>
</text>
<text x="133.56" y="290.6">
<tspan x="133.56" y="290.6">branch_2</tspan>
</text>
</g>
<path d="m292.24 357.67h202.86v157.64h-202.86z" style="fill:none;stroke:#00f;stroke-width:1.1"/>
<g style="font-size:10;font-family:Droid Sans;letter-spacing:0;word-spacing:0">
<text x="295.58" y="368.7">
<tspan style="font-weight:bold" x="295.58" y="368.7">.git/config</tspan>
</text>
<text x="298.3" xml:space="preserve" y="393.01">
<tspan x="298.3" y="393.01">[remote "origin"]</tspan>
<tspan x="298.3" y="405.51">url = &lt;upstream url&gt;</tspan>
<tspan x="298.3" y="418.01">fetch = refs/heads/*:refs/remotes/origin/* </tspan>
</text>
<text x="297.83" y="447.42">
<tspan x="297.83" y="447.42">[branch_1]</tspan>
<tspan x="297.83" y="459.92">remote = origin</tspan>
<tspan x="297.83" y="472.42">merge = refs/heads/branch_1</tspan>
</text>
</g>
<g style="fill:none">
<ellipse cx="210.23" cy="360.68" rx="52.8" ry="26.17" style="stroke:#090;stroke-width:.48" transform="matrix(2.03 0 0 2.53 -293.74 -478.6)"/>
<g style="stroke:#060">
<path d="m121.7 478.98v-72.12"/>
<path d="m121.34 445.61 30.83-29.25"/>
<path d="m121.87 469.52 30.83-29.24"/>
</g>
</g>
<g style="font-size:10;font-family:Droid Sans;letter-spacing:0;word-spacing:0">
<text x="109.65" y="403.17">
<tspan x="109.65" y="403.17">master</tspan>
</text>
<text x="153.94" y="413.09">
<tspan x="153.94" y="413.09">branch_1</tspan>
</text>
<text x="155.71" y="437.19">
<tspan x="155.71" y="437.19">branch_2</tspan>
</text>
</g>
<path d="m69.04 477.59v-72.12" style="fill:none;stroke:#090"/>
<text style="font-size:10;font-family:Droid Sans;letter-spacing:0;word-spacing:0" x="51.82" y="402.4">
<tspan x="51.82" y="402.4">branch_1</tspan>
</text>
<g style="fill:none;stroke:#696969;marker-end:url(#a)">
<path d="m296.34 402.9-94.46-102.29"/>
<path d="m295.6 445.67-75.55 63.51-118.96.07-30.87-39.03"/>
<path d="m296.03 470.32-132.81-151.23-50.92-29.9"/>
</g>
<g style="font-size:10;font-family:Droid Sans;letter-spacing:0;word-spacing:0">
<text x="-28.11" y="355.34">
<tspan x="-28.11" y="355.34">refspec : copy all branches from refs/heads</tspan>
<tspan x="-28.11" y="367.84">into refs/remotes/origin</tspan>
</text>
<text x="11.25" y="243.77">
<tspan style="font-weight:bold" x="11.25" y="243.77">Upstream repo</tspan>
</text>
<text x="-11.22" y="397.05">
<tspan style="font-weight:bold" x="-11.22" y="397.05">Local repo</tspan>
</text>
</g>
</g>
</svg>