<svg height="266.14" viewBox="0 0 466.27 266.14" width="466.27" xml:space="preserve" xmlns="http://www.w3.org/2000/svg" xmlns:xlink="http://www.w3.org/1999/xlink"><clipPath id="a"><path d="m399.96 774.12h58.85v7.85h-58.85z" style="clip-rule:evenodd"/></clipPath><clipPath id="b"><path d="m399.96 774.17h58.85v7.8h-58.85z" style="clip-rule:evenodd"/></clipPath><clipPath id="c"><path d="m405.17 753.22h54.34v7.87h-54.34z" style="clip-rule:evenodd"/></clipPath><clipPath id="d"><path d="m405.17 753.29h54.34v7.8h-54.34z" style="clip-rule:evenodd"/></clipPath><clipPath id="e"><path d="m467.88 753.22h53.76v7.87h-53.76z" style="clip-rule:evenodd"/></clipPath><clipPath id="f"><path d="m467.88 753.29h53.76v7.8h-53.76z" style="clip-rule:evenodd"/></clipPath><clipPath id="g"><path d="m410.4 735.38h43.39v10.03h-43.39z" style="clip-rule:evenodd"/></clipPath><clipPath id="h"><path d="m410.4 735.53h43.39v9.89h-43.39z" style="clip-rule:evenodd"/></clipPath><clipPath id="i"><path d="m467.88 735.38h58.99v10.03h-58.99z" style="clip-rule:evenodd"/></clipPath><clipPath id="j"><path d="m467.88 735.53h58.99v9.89h-58.99z" style="clip-rule:evenodd"/></clipPath><clipPath id="k"><path d="m352.49 694.66h53.86v7.87h-53.86z" style="clip-rule:evenodd"/></clipPath><clipPath id="l"><path d="m352.49 694.73h53.86v7.8h-53.86z" style="clip-rule:evenodd"/></clipPath><clipPath id="m"><path d="m378.62 600.62h62.4v7.87h-62.4z" style="clip-rule:evenodd"/></clipPath><clipPath id="n"><path d="m378.62 600.7h62.4v7.8h-62.4z" style="clip-rule:evenodd"/></clipPath><clipPath id="o"><path d="m295.46 768.89h94.25v7.87h-94.25z" style="clip-rule:evenodd"/></clipPath><clipPath id="p"><path d="m295.46 768.96h94.25v7.8h-94.25z" style="clip-rule:evenodd"/></clipPath><clipPath id="q"><path d="m295.46 761.09h93.41v7.87h-93.41z" style="clip-rule:evenodd"/></clipPath><clipPath id="r"><path d="m295.46 761.16h93.41v7.8h-93.41z" style="clip-rule:evenodd"/></clipPath><clipPath id="s"><path d="m295.46 753.29h92.93v7.87h-92.93z" style="clip-rule:evenodd"/></clipPath><clipPath id="t"><path d="m295.46 753.36h92.93v7.8h-92.93z" style="clip-rule:evenodd"/></clipPath><clipPath id="u"><path d="m362.95 673.75h57.05v7.87h-57.05z" style="clip-rule:evenodd"/></clipPath><clipPath id="v"><path d="m362.95 673.82h57.05v7.8h-57.05z" style="clip-rule:evenodd"/></clipPath><clipPath id="w"><path d="m420.41 678.98h72.67v7.87h-72.67z" style="clip-rule:evenodd"/></clipPath><clipPath id="x"><path d="m420.41 679.06h72.67v7.8h-72.67z" style="clip-rule:evenodd"/></clipPath><clipPath id="y"><path d="m420.41 671.18h53.16v7.87h-53.16z" style="clip-rule:evenodd"/></clipPath><clipPath id="z"><path d="m420.41 671.26h53.16v7.8h-53.16z" style="clip-rule:evenodd"/></clipPath><clipPath id="A"><path d="m420.41 652.85h72.67v7.87h-72.67z" style="clip-rule:evenodd"/></clipPath><clipPath id="B"><path d="m420.41 652.92h72.67v7.8h-72.67z" style="clip-rule:evenodd"/></clipPath><clipPath id="C"><path d="m420.41 645.07h53.16v7.87h-53.16z" style="clip-rule:evenodd"/></clipPath><clipPath id="D"><path d="m420.41 645.14h53.16v7.8h-53.16z" style="clip-rule:evenodd"/></clipPath><clipPath id="E"><path d="m529.51 664.06h57.77v7.87h-57.77z" style="clip-rule:evenodd"/></clipPath><clipPath id="F"><path d="m529.51 664.13h57.77v7.8h-57.77z" style="clip-rule:evenodd"/></clipPath><clipPath id="G"><path d="m477.29 711.77h100.3v7.87h-100.3z" style="clip-rule:evenodd"/></clipPath><clipPath id="H"><path d="m477.29 711.84h100.3v7.8h-100.3z" style="clip-rule:evenodd"/></clipPath><g transform="matrix(1.25 0 0 -1.25 -325.45 984.79)"><g style="fill:none;stroke-width:1.15;stroke-linecap:round;stroke-linejoin:round;stroke-miterlimit:10"><path d="m393.77 787.25h125.4v-59.21h-125.4z" style="stroke:#3165bb"/><path d="m404.23 766.37h41.79v-20.91h-41.79z" style="stroke:#f60"/><path d="m465.34 766.66h41.78v-20.91h-41.78z" style="stroke:#808000"/></g><g style="clip-path:url(#a)"><g style="clip-path:url(#b)"><text style="font-size:6.41;font-family:Droid Sans" transform="matrix(1 0 0 -1 404.28 775.92)"><tspan x="0 5.48 8.55 11.05 13.2 16.39 18.6 19.92 23.26 26.66 30" y="0">Master node</tspan></text></g></g><g style="clip-path:url(#c)"><g style="clip-path:url(#d)"><text style="font-size:6.41;font-family:Droid Sans" transform="matrix(1 0 0 -1 409.49 755.02)"><tspan x="0 4.14 7.21 12.35 15.57 18.93 22.33 25.69" y="0">Namenode</tspan></text></g></g><g style="clip-path:url(#e)"><g style="clip-path:url(#f)"><text style="font-size:6.41;font-family:Droid Sans" transform="matrix(1 0 0 -1 472.2 755.02)"><tspan x="0 2.02 5.42 8.76 11.88 14.08 17.13 19.85 22.76 25.95" y="0">JobTracker</tspan></text></g></g><path d="m350.23 704.83h144.53v-129.33h-144.53z" style="fill:none;stroke:#3165bb;stroke-width:1.15;stroke-linecap:round;stroke-linejoin:round;stroke-miterlimit:10"/><g style="clip-path:url(#g)"><g style="clip-path:url(#h)"><text style="font-size:8.16;font-family:Droid Sans;font-weight:bold;fill:#e36c09" transform="matrix(1 0 0 -1 414.72 737.76)"><tspan x="0 5.15 10.31 14.06" y="0">HDFS</tspan></text></g></g><g style="clip-path:url(#i)"><g style="clip-path:url(#j)"><text style="font-size:8.16;font-family:Droid Sans;font-weight:bold;fill:#76923c" transform="matrix(1 0 0 -1 472.2 737.76)"><tspan x="0 3.82 7.23 11.61 15.72 20.07 24.45 26.45 30.56" y="0">Scheduler</tspan></text></g></g><g style="clip-path:url(#k)"><g style="clip-path:url(#l)"><text style="font-size:6.41;font-family:Droid Sans" transform="matrix(1 0 0 -1 356.81 696.46)"><tspan x="0 2.94 4.39 7.46 10.38 13.59 14.98 18.32 21.72 25.06" y="0">Slave node</tspan></text></g></g><g style="fill:none;stroke-width:1.15;stroke-linecap:round;stroke-linejoin:round;stroke-miterlimit:10;stroke:#f60"><path d="m431.5 598.58-.29-2.2-.87-2.14-1.48-2.09-2.02-1.97-2.45-1.84-3.02-1.73-3.41-1.49-3.82-1.27-4.1-1.08-4.37-.79-4.53-.58-4.66-.26h-4.7l-4.64.26-4.53.58-4.37.79-4.1 1.08-3.84 1.27-3.41 1.49-3.03 1.73-2.44 1.84-2.02 1.97-1.49 2.09-.86 2.14-.29 2.2.29 2.19.86 2.13 1.49 2.12 2.02 1.99 2.44 1.82 3.03 1.71 3.41 1.48 3.84 1.28 4.1 1.08 4.37.79 4.53.57 4.64.27h4.7l4.66-.27 4.53-.57 4.37-.79 4.1-1.08 3.82-1.28 3.41-1.48 3.02-1.71 2.45-1.82 2.02-1.99 1.48-2.12.87-2.13z"/><path d="m438.46 603.74-.29-2.18-.89-2.14-1.49-2.11-1.99-1.97-2.47-1.84-3-1.71-3.41-1.49-3.84-1.29-4.1-1.08-4.37-.79-4.54-.58-4.65-.24h-4.68l-4.66.24-4.54.58-4.36.79-4.11 1.08-3.81 1.29-3.41 1.49-3.05 1.71-2.45 1.84-1.99 1.97-1.49 2.11-.86 2.14-.31 2.18.31 2.19.86 2.16 1.49 2.09 1.99 1.99 2.45 1.82 3.05 1.71 3.41 1.48 3.81 1.3 4.11 1.08 4.36.79 4.54.55 4.66.27h4.68l4.65-.27 4.54-.55 4.37-.79 4.1-1.08 3.84-1.3 3.41-1.48 3-1.71 2.47-1.82 1.99-1.99 1.49-2.09.89-2.16z"/><path d="m445.42 608.54-.29-2.2-.89-2.14-1.46-2.09-2.02-1.97-2.45-1.84-3.02-1.73-3.41-1.47-3.84-1.29-4.1-1.08-4.37-.79-4.54-.56-4.63-.28h-4.7l-4.66.28-4.54.56-4.36.79-4.11 1.08-3.81 1.29-3.41 1.47-3.03 1.73-2.44 1.84-2.02 1.97-1.49 2.09-.86 2.14-.29 2.2.29 2.19.86 2.13 1.49 2.12 2.02 1.99 2.44 1.82 3.03 1.71 3.41 1.48 3.81 1.28 4.11 1.08 4.36.79 4.54.57 4.66.27h4.7l4.63-.27 4.54-.57 4.37-.79 4.1-1.08 3.84-1.28 3.41-1.48 3.02-1.71 2.45-1.82 2.02-1.99 1.46-2.12.89-2.13z"/></g><g style="clip-path:url(#m)"><g style="clip-path:url(#n)"><text style="font-size:6.41;font-family:Droid Sans" transform="matrix(1 0 0 -1 382.94 602.42)"><tspan x="0 3.49 4.92 8.32 11.03 13.95 16.44 17.76 21.16 23.11 24.5 28.44 31.51 33.65" y="0">Blocks of Data</tspan></text></g></g><path d="m372.86 766.37 31.37-10.44" style="fill:none;stroke:#f60;stroke-width:1.15;stroke-linecap:round;stroke-linejoin:round;stroke-miterlimit:10"/><path d="m399.31 760.8 4.92-4.87-6.89-1.01" style="fill:none;stroke:#f60;stroke-width:1.15;stroke-linecap:round;stroke-linejoin:round;stroke-miterlimit:10"/><g style="clip-path:url(#o)"><g style="clip-path:url(#p)"><text style="font-size:6.41;font-family:Droid Sans" transform="matrix(1 0 0 -1 299.78 770.69)"><tspan x="0 3.33 6.52 9.71 13.05 15.56 16.94 19.99 21.38 26.5 29.57 32.91 36.24 37.72 41.04 44.02 45.46 48.88 50.83 52.22 55.56 57.03 60.42 63.13 66.05" y="0">Keeps a mapping of blocks</tspan></text></g></g><g style="clip-path:url(#q)"><g style="clip-path:url(#r)"><text style="font-size:6.41;font-family:Droid Sans" transform="matrix(1 0 0 -1 299.78 762.91)"><tspan x="0 3.34 6.53 8 11.39 14.73 17.71 19.18 22.5 25.48 26.93 29.1 32.5 33.82 36.87 38.32 40.27 41.75 43.22 46.41 47.79 50.84 54.18 57.52 58.97 61.14 64.48" y="0">belonging to a file and the</tspan></text></g></g><g style="clip-path:url(#s)"><g style="clip-path:url(#t)"><text style="font-size:6.41;font-family:Droid Sans" transform="matrix(1 0 0 -1 299.78 755.11)"><tspan x="0 4.1 7.5 10.84 14.03 16.54 17.92 20.07 23.43 26.47 28.61 30.02 32.73 36.13 39.47 41.61 44.68 46.16 49.48 50.87 53.01 56.38 59.57 64.69" y="0">Nodes that contain them </tspan></text></g></g><path d="m360.67 686.04h43.11v-20.9h-43.11z" style="fill:none;stroke:#808000;stroke-width:1.15;stroke-linecap:round;stroke-linejoin:round;stroke-miterlimit:10"/><g style="clip-path:url(#u)"><g style="clip-path:url(#v)"><text style="font-size:6.41;font-family:Droid Sans" transform="matrix(1 0 0 -1 367.25 675.58)"><tspan x="0 3.14 6.21 8.71 11.66 13.05 15.19 17.43 20.5 23.24 26.16 29.38" y="0">Task tracker</tspan></text></g></g><path d="m421.63 687.86h53.55v-19.6h-53.55z" style="fill:none;stroke:#ed1c24;stroke-width:1.15;stroke-linecap:round;stroke-linejoin:round;stroke-miterlimit:10"/><path d="m422.06 660.79h54.87v-20.9h-54.87z" style="fill:none;stroke:#ed1c24;stroke-width:1.15;stroke-linecap:round;stroke-linejoin:round;stroke-miterlimit:10"/><g style="clip-path:url(#w)"><g style="clip-path:url(#x)"><text style="font-size:6.41;font-family:Droid Sans" transform="matrix(1 0 0 -1 426.19 680.78)"><tspan x="0 5.48 8.56 11.9 14.41 17.89 21.1 24.44 27.78 30.49 33.7 34.95 37.1 40.17 42.7" y="0">Map/Reduce task</tspan></text></g></g><g style="clip-path:url(#y)"><g style="clip-path:url(#z)"><text style="font-size:6.41;font-family:Droid Sans" transform="matrix(1 0 0 -1 424.73 672.98)"><tspan x="0 1.94 5.28 8.49 13.09 14.48 16.5 20.13 25.61" y="0">(new JVM)</tspan></text></g></g><g style="clip-path:url(#A)"><g style="clip-path:url(#B)"><text style="font-size:6.41;font-family:Droid Sans" transform="matrix(1 0 0 -1 426.19 654.67)"><tspan x="0 5.48 8.56 11.9 14.41 17.89 21.1 24.44 27.78 30.49 33.7 34.95 37.1 40.17 42.7" y="0">Map/Reduce task</tspan></text></g></g><g style="clip-path:url(#C)"><g style="clip-path:url(#D)"><text style="font-size:6.41;font-family:Droid Sans" transform="matrix(1 0 0 -1 424.73 646.87)"><tspan x="0 1.94 5.28 8.49 13.09 14.48 16.5 20.13 25.61" y="0">(new JVM)</tspan></text></g></g><g style="fill:none;stroke-width:1.15;stroke-linecap:round;stroke-linejoin:round;stroke-miterlimit:10"><path d="m432.48 639.89-7.92-15.7" style="stroke:#ed1c24"/><path d="m430.13 628.32-5.57-4.13.02 6.91" style="stroke:#ed1c24"/><g style="stroke:#808000"><path d="m403.78 675.6 19.15.96"/><path d="m416.59 679.32 6.34-2.76-6.03-3.41"/><path d="m403.78 670.9 18.28-20.57"/><path d="m420.26 657.02 1.8-6.69-6.43 2.59"/><path d="m465.31 745.75-85.01-59.23"/><path d="m387.14 687.5-6.84-.98 3.32 6.07"/></g><g style="stroke:#3165bb"><path d="m506.28 700.2h78.79v-49.97h-78.79z"/><path d="m514.01 692.54h78.79v-49.96h-78.79z"/><path d="m509.98 696.19h78.81v-49.94h-78.81z"/></g></g><g style="clip-path:url(#E)"><g style="clip-path:url(#F)"><text style="font-size:6.41;font-family:Droid Sans" transform="matrix(1 0 0 -1 533.83 665.86)"><tspan x="0 4.24 6.4 9.77 12.97 15.21 16.6 19.1 20.58 23.65 26.57 29.78" y="0">Other slaves</tspan></text></g></g><path d="m507.12 745.73 45.55-49.18" style="fill:none;stroke:#808000;stroke-width:1.15;stroke-linecap:round;stroke-linejoin:round;stroke-miterlimit:10"/><path d="m550.75 703.2 1.92-6.65-6.48 2.45" style="fill:none;stroke:#808000;stroke-width:1.15;stroke-linecap:round;stroke-linejoin:round;stroke-miterlimit:10"/><g style="clip-path:url(#G)"><g style="clip-path:url(#H)"><text style="font-size:6.41;font-family:Droid Sans" transform="matrix(1 0 0 -1 481.58 713.57)"><tspan x="0 2.94 5.65 9.02 12.23 15.6 18.96 20.44 23.63 25.02 27.17 30.24 32.77 35.69 38.21 40.72 42.07 45.14 46.61 48.09 50.98 54.21 55.6 58.96 62.32 65.52 67.75 69.23 72.44" y="0">Schedule tasks/ alive queries</tspan></text></g></g></g></svg>