<svg height="650.41" viewBox="0 0 2048 650.41" width="2048" xml:space="preserve" xmlns="http://www.w3.org/2000/svg" xmlns:xlink="http://www.w3.org/1999/xlink"><clipPath id="a"><path d="m117.02 759.65h45.53v5.59h-45.53z" style="clip-rule:evenodd"/></clipPath><clipPath id="b"><path d="m117.02 759.7h45.53v5.54h-45.53z" style="clip-rule:evenodd"/></clipPath><clipPath id="c"><path d="m117.02 759.7h45.53v5.54h-45.53z" style="clip-rule:evenodd"/></clipPath><clipPath id="d"><path d="m117.02 754.1h49.13v5.59h-49.13z" style="clip-rule:evenodd"/></clipPath><clipPath id="e"><path d="m117.02 754.15h49.13v5.54h-49.13z" style="clip-rule:evenodd"/></clipPath><clipPath id="f"><path d="m117.02 748.56h45.29v5.59h-45.29z" style="clip-rule:evenodd"/></clipPath><clipPath id="g"><path d="m117.02 748.63h45.29v5.52h-45.29z" style="clip-rule:evenodd"/></clipPath><clipPath id="h"><path d="m116.5 724.44h45.53v5.57h-45.53z" style="clip-rule:evenodd"/></clipPath><clipPath id="i"><path d="m116.5 724.49h45.53v5.52h-45.53z" style="clip-rule:evenodd"/></clipPath><clipPath id="j"><path d="m116.5 724.49h45.53v5.52h-45.53z" style="clip-rule:evenodd"/></clipPath><clipPath id="k"><path d="m116.5 718.9h49.13v5.59h-49.13z" style="clip-rule:evenodd"/></clipPath><clipPath id="l"><path d="m116.5 718.94h49.13v5.54h-49.13z" style="clip-rule:evenodd"/></clipPath><clipPath id="m"><path d="m116.5 713.35h45.26v5.59h-45.26z" style="clip-rule:evenodd"/></clipPath><clipPath id="n"><path d="m116.5 713.4h45.26v5.54h-45.26z" style="clip-rule:evenodd"/></clipPath><clipPath id="o"><path d="m167.5 760.39h34.03v5.59h-34.03z" style="clip-rule:evenodd"/></clipPath><clipPath id="p"><path d="m167.5 760.44h34.03v5.54h-34.03z" style="clip-rule:evenodd"/></clipPath><clipPath id="q"><path d="m167.5 760.44h34.03v5.54h-34.03z" style="clip-rule:evenodd"/></clipPath><clipPath id="r"><path d="m167.5 754.85h53.45v5.59h-53.45z" style="clip-rule:evenodd"/></clipPath><clipPath id="s"><path d="m167.5 754.9h53.45v5.54h-53.45z" style="clip-rule:evenodd"/></clipPath><clipPath id="t"><path d="m167.5 749.3h46.13v5.59h-46.13z" style="clip-rule:evenodd"/></clipPath><clipPath id="u"><path d="m167.5 749.35h46.13v5.54h-46.13z" style="clip-rule:evenodd"/></clipPath><clipPath id="v"><path d="m167.5 749.35h46.13v5.54h-46.13z" style="clip-rule:evenodd"/></clipPath><clipPath id="w"><path d="m167.5 749.35h46.13v5.54h-46.13z" style="clip-rule:evenodd"/></clipPath><clipPath id="x"><path d="m167.64 725.76h34.06v5.59h-34.06z" style="clip-rule:evenodd"/></clipPath><clipPath id="y"><path d="m167.64 725.81h34.06v5.54h-34.06z" style="clip-rule:evenodd"/></clipPath><clipPath id="z"><path d="m167.64 725.81h34.06v5.54h-34.06z" style="clip-rule:evenodd"/></clipPath><clipPath id="A"><path d="m167.64 720.22h53.45v5.59h-53.45z" style="clip-rule:evenodd"/></clipPath><clipPath id="B"><path d="m167.64 720.26h53.45v5.54h-53.45z" style="clip-rule:evenodd"/></clipPath><clipPath id="C"><path d="m167.64 714.67h46.13v5.59h-46.13z" style="clip-rule:evenodd"/></clipPath><clipPath id="D"><path d="m167.64 714.72h46.13v5.54h-46.13z" style="clip-rule:evenodd"/></clipPath><clipPath id="E"><path d="m167.64 714.72h46.13v5.54h-46.13z" style="clip-rule:evenodd"/></clipPath><clipPath id="F"><path d="m167.64 714.72h46.13v5.54h-46.13z" style="clip-rule:evenodd"/></clipPath><clipPath id="G"><path d="m225.38 760.13h37.46v5.59h-37.46z" style="clip-rule:evenodd"/></clipPath><clipPath id="H"><path d="m225.38 760.2h37.46v5.52h-37.46z" style="clip-rule:evenodd"/></clipPath><clipPath id="I"><path d="m225.38 760.2h37.46v5.52h-37.46z" style="clip-rule:evenodd"/></clipPath><clipPath id="J"><path d="m225.38 754.61h53.88v5.59h-53.88z" style="clip-rule:evenodd"/></clipPath><clipPath id="K"><path d="m225.38 754.66h53.88v5.54h-53.88z" style="clip-rule:evenodd"/></clipPath><clipPath id="L"><path d="m225.38 754.66h53.88v5.54h-53.88z" style="clip-rule:evenodd"/></clipPath><clipPath id="M"><path d="m225.38 749.06h53.4v5.59h-53.4z" style="clip-rule:evenodd"/></clipPath><clipPath id="N"><path d="m225.38 749.11h53.4v5.54h-53.4z" style="clip-rule:evenodd"/></clipPath><clipPath id="O"><path d="m225.36 725.28h37.44v5.59h-37.44z" style="clip-rule:evenodd"/></clipPath><clipPath id="P"><path d="m225.36 725.33h37.44v5.54h-37.44z" style="clip-rule:evenodd"/></clipPath><clipPath id="Q"><path d="m225.36 725.33h37.44v5.54h-37.44z" style="clip-rule:evenodd"/></clipPath><clipPath id="R"><path d="m225.36 719.74h53.88v5.59h-53.88z" style="clip-rule:evenodd"/></clipPath><clipPath id="S"><path d="m225.36 719.78h53.88v5.54h-53.88z" style="clip-rule:evenodd"/></clipPath><clipPath id="T"><path d="m225.36 719.78h53.88v5.54h-53.88z" style="clip-rule:evenodd"/></clipPath><clipPath id="U"><path d="m225.36 714.19h53.38v5.59h-53.38z" style="clip-rule:evenodd"/></clipPath><clipPath id="V"><path d="m225.36 714.26h53.38v5.52h-53.38z" style="clip-rule:evenodd"/></clipPath><clipPath id="W"><path d="m278.33 725.02h39.24v5.59h-39.24z" style="clip-rule:evenodd"/></clipPath><clipPath id="X"><path d="m278.33 725.06h39.24v5.54h-39.24z" style="clip-rule:evenodd"/></clipPath><clipPath id="Y"><path d="m278.33 725.06h39.24v5.54h-39.24z" style="clip-rule:evenodd"/></clipPath><clipPath id="Z"><path d="m278.33 719.47h69.77v5.59h-69.77z" style="clip-rule:evenodd"/></clipPath><clipPath id="aa"><path d="m278.33 719.52h69.77v5.54h-69.77z" style="clip-rule:evenodd"/></clipPath><clipPath id="ab"><path d="m278.33 713.93h69.07v5.59h-69.07z" style="clip-rule:evenodd"/></clipPath><clipPath id="ac"><path d="m278.33 714h69.07v5.52h-69.07z" style="clip-rule:evenodd"/></clipPath><clipPath id="ad"><path d="m279.26 759.65h39.24v5.59h-39.24z" style="clip-rule:evenodd"/></clipPath><clipPath id="ae"><path d="m279.26 759.7h39.24v5.54h-39.24z" style="clip-rule:evenodd"/></clipPath><clipPath id="af"><path d="m279.26 759.7h39.24v5.54h-39.24z" style="clip-rule:evenodd"/></clipPath><clipPath id="ag"><path d="m279.26 754.1h69.77v5.59h-69.77z" style="clip-rule:evenodd"/></clipPath><clipPath id="ah"><path d="m279.26 754.15h69.77v5.54h-69.77z" style="clip-rule:evenodd"/></clipPath><clipPath id="ai"><path d="m279.26 748.56h69.07v5.59h-69.07z" style="clip-rule:evenodd"/></clipPath><clipPath id="aj"><path d="m279.26 748.63h69.07v5.52h-69.07z" style="clip-rule:evenodd"/></clipPath><clipPath id="ak"><path d="m346.13 750.74h34.63v5.59h-34.63z" style="clip-rule:evenodd"/></clipPath><clipPath id="al"><path d="m346.13 750.79h34.63v5.54h-34.63z" style="clip-rule:evenodd"/></clipPath><clipPath id="am"><path d="m346.13 745.2h38.09v5.59h-38.09z" style="clip-rule:evenodd"/></clipPath><clipPath id="an"><path d="m346.13 745.25h38.09v5.54h-38.09z" style="clip-rule:evenodd"/></clipPath><clipPath id="ao"><path d="m346.13 728.86h34.63v5.59h-34.63z" style="clip-rule:evenodd"/></clipPath><clipPath id="ap"><path d="m346.13 728.9h34.63v5.54h-34.63z" style="clip-rule:evenodd"/></clipPath><clipPath id="aq"><path d="m346.13 723.34h38.09v5.59h-38.09z" style="clip-rule:evenodd"/></clipPath><clipPath id="ar"><path d="m346.13 723.38h38.09v5.54h-38.09z" style="clip-rule:evenodd"/></clipPath><clipPath id="as"><path d="m390.41 750.24h45.02v5.59h-45.02z" style="clip-rule:evenodd"/></clipPath><clipPath id="at"><path d="m390.41 750.29h45.02v5.54h-45.02z" style="clip-rule:evenodd"/></clipPath><clipPath id="au"><path d="m390.41 744.7h74.06v5.59h-74.06z" style="clip-rule:evenodd"/></clipPath><clipPath id="av"><path d="m390.41 744.77h74.06v5.52h-74.06z" style="clip-rule:evenodd"/></clipPath><clipPath id="aw"><path d="m390.41 744.77h74.06v5.52h-74.06z" style="clip-rule:evenodd"/></clipPath><clipPath id="ax"><path d="m390.41 744.77h74.06v5.52h-74.06z" style="clip-rule:evenodd"/></clipPath><clipPath id="ay"><path d="m390.41 739.18h56.16v5.59h-56.16z" style="clip-rule:evenodd"/></clipPath><clipPath id="az"><path d="m390.41 739.22h56.16v5.54h-56.16z" style="clip-rule:evenodd"/></clipPath><clipPath id="aA"><path d="m463.63 749.5h36.58v5.59h-36.58z" style="clip-rule:evenodd"/></clipPath><clipPath id="aB"><path d="m463.63 749.54h36.58v5.54h-36.58z" style="clip-rule:evenodd"/></clipPath><clipPath id="aC"><path d="m463.63 749.54h36.58v5.54h-36.58z" style="clip-rule:evenodd"/></clipPath><clipPath id="aD"><path d="m463.63 743.98h57.5v5.57h-57.5z" style="clip-rule:evenodd"/></clipPath><clipPath id="aE"><path d="m463.63 744.02h57.5v5.52h-57.5z" style="clip-rule:evenodd"/></clipPath><clipPath id="aF"><path d="m463.63 738.43h50.14v5.59h-50.14z" style="clip-rule:evenodd"/></clipPath><clipPath id="aG"><path d="m463.63 738.48h50.14v5.54h-50.14z" style="clip-rule:evenodd"/></clipPath><clipPath id="aH"><path d="m463.63 732.89h65.09v5.59h-65.09z" style="clip-rule:evenodd"/></clipPath><clipPath id="aI"><path d="m463.63 732.94h65.09v5.54h-65.09z" style="clip-rule:evenodd"/></clipPath><clipPath id="aJ"><path d="m463.63 727.37h42.96v5.57h-42.96z" style="clip-rule:evenodd"/></clipPath><clipPath id="aK"><path d="m463.63 727.42h42.96v5.52h-42.96z" style="clip-rule:evenodd"/></clipPath><clipPath id="aL"><path d="m408.86 793.54h47.26v5.59h-47.26z" style="clip-rule:evenodd"/></clipPath><clipPath id="aM"><path d="m408.86 793.58h47.26v5.54h-47.26z" style="clip-rule:evenodd"/></clipPath><clipPath id="aN"><path d="m408.86 793.58h47.26v5.54h-47.26z" style="clip-rule:evenodd"/></clipPath><clipPath id="aO"><path d="m408.86 793.58h47.26v5.54h-47.26z" style="clip-rule:evenodd"/></clipPath><clipPath id="aP"><path d="m408.86 787.99h66v5.59h-66z" style="clip-rule:evenodd"/></clipPath><clipPath id="aQ"><path d="m408.86 788.04h66v5.54h-66z" style="clip-rule:evenodd"/></clipPath><clipPath id="aR"><path d="m408.86 782.47h50.33v5.59h-50.33z" style="clip-rule:evenodd"/></clipPath><clipPath id="aS"><path d="m408.86 782.52h50.33v5.54h-50.33z" style="clip-rule:evenodd"/></clipPath><clipPath id="aT"><path d="m198.07 795.02h90.05v5.59h-90.05z" style="clip-rule:evenodd"/></clipPath><clipPath id="aU"><path d="m198.07 795.07h90.05v5.54h-90.05z" style="clip-rule:evenodd"/></clipPath><clipPath id="aV"><path d="m198.07 795.07h90.05v5.54h-90.05z" style="clip-rule:evenodd"/></clipPath><clipPath id="aW"><path d="m198.07 795.07h90.05v5.54h-90.05z" style="clip-rule:evenodd"/></clipPath><clipPath id="aX"><path d="m198.07 795.07h90.05v5.54h-90.05z" style="clip-rule:evenodd"/></clipPath><clipPath id="aY"><path d="m198.07 795.07h90.05v5.54h-90.05z" style="clip-rule:evenodd"/></clipPath><clipPath id="aZ"><path d="m198.07 789.48h102.67v5.59h-102.67z" style="clip-rule:evenodd"/></clipPath><clipPath id="a0"><path d="m198.07 789.53h102.67v5.54h-102.67z" style="clip-rule:evenodd"/></clipPath><clipPath id="a1"><path d="m198.07 783.94h87.38v5.59h-87.38z" style="clip-rule:evenodd"/></clipPath><clipPath id="a2"><path d="m198.07 783.98h87.38v5.54h-87.38z" style="clip-rule:evenodd"/></clipPath><clipPath id="a3"><path d="m78.58 785.11h67.68v5.59h-67.68z" style="clip-rule:evenodd"/></clipPath><clipPath id="a4"><path d="m78.58 785.18h67.68v5.52h-67.68z" style="clip-rule:evenodd"/></clipPath><clipPath id="a5"><path d="m78.58 779.59h70.46v5.59h-70.46z" style="clip-rule:evenodd"/></clipPath><clipPath id="a6"><path d="m78.58 779.64h70.46v5.54h-70.46z" style="clip-rule:evenodd"/></clipPath><clipPath id="a7"><path d="m522.29 748.01h34.63v5.59h-34.63z" style="clip-rule:evenodd"/></clipPath><clipPath id="a8"><path d="m522.29 748.06h34.63v5.54h-34.63z" style="clip-rule:evenodd"/></clipPath><clipPath id="a9"><path d="m522.29 748.06h34.63v5.54h-34.63z" style="clip-rule:evenodd"/></clipPath><clipPath id="ba"><path d="m522.29 742.49h66.6v5.59h-66.6z" style="clip-rule:evenodd"/></clipPath><clipPath id="bb"><path d="m522.29 742.54h66.6v5.54h-66.6z" style="clip-rule:evenodd"/></clipPath><clipPath id="bc"><path d="m522.29 742.54h66.6v5.54h-66.6z" style="clip-rule:evenodd"/></clipPath><clipPath id="bd"><path d="m522.29 742.54h66.6v5.54h-66.6z" style="clip-rule:evenodd"/></clipPath><clipPath id="be"><path d="m37.85 756.19h28.15v5.57h-28.15z" style="clip-rule:evenodd"/></clipPath><clipPath id="bf"><path d="m37.85 756.24h28.15v5.52h-28.15z" style="clip-rule:evenodd"/></clipPath><clipPath id="bg"><path d="m34.63 742.08h29.21v5.59h-29.21z" style="clip-rule:evenodd"/></clipPath><clipPath id="bh"><path d="m34.63 742.13h29.21v5.54h-29.21z" style="clip-rule:evenodd"/></clipPath><clipPath id="bi"><path d="m34.63 736.54h35.45v5.59h-35.45z" style="clip-rule:evenodd"/></clipPath><clipPath id="bj"><path d="m34.63 736.58h35.42v5.54h-35.42z" style="clip-rule:evenodd"/></clipPath><clipPath id="bk"><path d="m27.22 770.28h42.6v5.59h-42.6z" style="clip-rule:evenodd"/></clipPath><clipPath id="bl"><path d="m27.22 770.33h42.6v5.54h-42.6z" style="clip-rule:evenodd"/></clipPath><clipPath id="bm"><path d="m66.55 746.54h42.6v5.57h-42.6z" style="clip-rule:evenodd"/></clipPath><clipPath id="bn"><path d="m66.55 746.59h42.6v5.52h-42.6z" style="clip-rule:evenodd"/></clipPath><clipPath id="bo"><path d="m66.55 746.59h42.6v5.52h-42.6z" style="clip-rule:evenodd"/></clipPath><clipPath id="bp"><path d="m66.55 741h48.46v5.59h-48.46z" style="clip-rule:evenodd"/></clipPath><clipPath id="bq"><path d="m66.55 741.05h48.46v5.54h-48.46z" style="clip-rule:evenodd"/></clipPath><clipPath id="br"><path d="m66.55 741.05h48.46v5.54h-48.46z" style="clip-rule:evenodd"/></clipPath><clipPath id="bs"><path d="m66.55 735.46h31.58v5.59h-31.58z" style="clip-rule:evenodd"/></clipPath><clipPath id="bt"><path d="m66.55 735.5h31.56v5.54h-31.56z" style="clip-rule:evenodd"/></clipPath><clipPath id="bu"><path d="m66.55 729.94h54.48v5.57h-54.48z" style="clip-rule:evenodd"/></clipPath><clipPath id="bv"><path d="m66.55 729.98h54.48v5.52h-54.48z" style="clip-rule:evenodd"/></clipPath><clipPath id="bw"><path d="m66.55 729.98h54.48v5.52h-54.48z" style="clip-rule:evenodd"/></clipPath><clipPath id="bx"><path d="m66.55 724.39h36.53v5.59h-36.53z" style="clip-rule:evenodd"/></clipPath><clipPath id="by"><path d="m66.55 724.44h36.53v5.54h-36.53z" style="clip-rule:evenodd"/></clipPath><clipPath id="bz"><path d="m27.36 687.65h59.14v5.59h-59.14z" style="clip-rule:evenodd"/></clipPath><clipPath id="bA"><path d="m27.36 687.7h59.14v5.54h-59.14z" style="clip-rule:evenodd"/></clipPath><clipPath id="bB"><path d="m189.91 657.43h48.65v7.13h-48.65z" style="clip-rule:evenodd"/></clipPath><clipPath id="bC"><path d="m189.91 657.53h48.65v7.03h-48.65z" style="clip-rule:evenodd"/></clipPath><clipPath id="bD"><path d="m449.69 657.43h55.32v7.13h-55.32z" style="clip-rule:evenodd"/></clipPath><clipPath id="bE"><path d="m449.69 657.53h55.32v7.03h-55.32z" style="clip-rule:evenodd"/></clipPath><g transform="matrix(3.61 0 0 -3.61 -95.59 2888.05)"><g style="fill:none;stroke-width:.58;stroke-linecap:round;stroke-linejoin:round;stroke-miterlimit:10"><path d="m26.76 777.41h566.42v-75.96h-566.42z" style="stroke:#7f7f7f"/><path d="m66.1 753.67h42.55v-32.9h-42.55z" style="stroke:#36f"/><path d="m116.78 766.99h41.07v-20.3h-41.07z" style="stroke:#36f"/><path d="m167.62 767.71h40.32v-22.25h-40.32z" style="stroke:#f60"/><path d="m220.49 739.44-.03-5.14-.09-4.99-.15-4.87-.21-4.63-.27-4.27-.31-3.99-.36-3.45-.41-3.03-.45-2.49-.46-1.85-.48-1.3-.48-.65h-.5l-.51.65-.48 1.3-.45 1.85-.43 2.49-.41 3.03-.36 3.45-.31 3.99-.27 4.27-.21 4.63-.17 4.87-.1 4.99-.02 5.14.02 5.11.1 5.02.17 4.87.21 4.61.27 4.29.31 3.99.36 3.45.41 3 .43 2.52.45 1.85.48 1.27.51.65h.5l.48-.65.48-1.27.46-1.85.45-2.52.41-3 .36-3.45.31-3.99.27-4.29.21-4.61.15-4.87.09-5.02z" style="stroke:#0f0"/><path d="m225.24 766.97h45.02v-21.03h-45.02z" style="stroke:#f60"/><path d="m279.24 731.76h55.39v-20.28h-55.39z" style="stroke:#36f"/><path d="m377.86 739.44-.17-4.32-.43-4.2-.72-4.1-1.01-3.89-1.23-3.6-1.48-3.36-1.68-2.91-1.92-2.54-2.04-2.11-2.16-1.56-2.26-1.08-2.3-.53h-2.33l-2.33.53-2.23 1.08-2.16 1.56-2.04 2.11-1.92 2.54-1.68 2.91-1.49 3.36-1.25 3.6-.98 3.89-.75 4.1-.43 4.2-.14 4.32.14 4.32.43 4.2.75 4.1.98 3.89 1.25 3.63 1.49 3.33 1.68 2.91 1.92 2.54 2.04 2.09 2.16 1.58 2.23 1.08 2.33.53h2.33l2.3-.53 2.26-1.08 2.16-1.58 2.04-2.09 1.92-2.54 1.68-2.91 1.48-3.33 1.23-3.63 1.01-3.89.72-4.1.43-4.2z" style="stroke:#177d36"/><path d="m391.2 757.25h59.14v-34.15h-59.14z" style="stroke:#36f"/><path d="m464.42 756.24h50.98v-32.4h-50.98z" style="stroke:#36f"/><path d="m460.92 740.09-.02-5.07-.08-4.92-.14-4.8-.19-4.53-.24-4.25-.27-3.89-.33-3.43-.34-2.98-.38-2.44-.41-1.83-.43-1.27-.43-.62h-.44l-.4.62-.44 1.27-.4 1.83-.39 2.44-.36 2.98-.31 3.43-.26 3.89-.24 4.25-.2 4.53-.12 4.8-.09 4.92-.03 5.07.03 5.04.09 4.92.12 4.8.2 4.53.24 4.23.26 3.91.31 3.41.36 2.97.39 2.48.4 1.82.44 1.25.4.65h.44l.43-.65.43-1.25.41-1.82.38-2.48.34-2.97.33-3.41.27-3.91.24-4.23.19-4.53.14-4.8.08-4.92z" style="stroke:#177d36"/><path d="m522.36 756.07h53.45v-31.63h-53.45z" style="stroke:#f60"/><path d="m589.58 739.08-.02-5.09-.07-4.94-.12-4.83-.15-4.58-.19-4.25-.24-3.91-.26-3.46-.27-3-.33-2.47-.34-1.85-.31-1.27-.36-.62h-.36l-.36.62-.36 1.27-.34 1.85-.31 2.47-.29 3-.24 3.46-.24 3.91-.19 4.25-.14 4.58-.12 4.83-.05 4.94-.05 5.09.05 5.09.05 4.94.12 4.85.14 4.56.19 4.22.24 3.96.24 3.44.29 3 .31 2.44.34 1.88.36 1.24.36.63h.36l.36-.63.31-1.24.34-1.88.33-2.44.27-3 .26-3.44.24-3.96.19-4.22.15-4.56.12-4.85.07-4.94z" style="stroke:#177d36"/></g><g style="clip-path:url(#a)"><g style="clip-path:url(#b)"><text style="font-size:4.56;font-family:Droid Sans" transform="matrix(1 0 0 -1 120.1 760.87)"><tspan x="0 2.48 4.75 6.68 9.09 10.68 13.05 15.53 17.8 19.98 22.38 24.65" y="0">RecordReader</tspan></text></g><g style="clip-path:url(#c)"><text style="font-size:4.56;font-family:Droid Sans" transform="matrix(1 0 0 -1 146.33 760.87)"><tspan x="0" y="0">:</tspan></text></g><path d="m120.1 760.13h26.23v.31h-26.23z" style="fill-rule:evenodd"/></g><g style="clip-path:url(#d)"><g style="clip-path:url(#e)"><text style="font-size:4.56;font-family:Droid Sans" transform="matrix(1 0 0 -1 120.1 755.35)"><tspan x="0 2.85 4.45 6.85 9.24 11.61 12.6 14.98 17.04 18.57 20.85 22.63 23.61 24.64 27.01 28.54" y="0">Group bytes into</tspan></text></g></g><g style="clip-path:url(#f)"><g style="clip-path:url(#g)"><text style="font-size:4.54;font-family:Droid Sans" transform="matrix(1 0 0 -1 120.1 749.81)"><tspan x="0 3.02 5.4 6.49 8.75 10.66 12.21 13.19 14.77 17.05 18.97 21.39 22.97 25.36" y="0">Object records</tspan></text></g></g><path d="m116.23 731.76h41.07v-20.28h-41.07z" style="fill:none;stroke:#36f;stroke-width:.58;stroke-linecap:round;stroke-linejoin:round;stroke-miterlimit:10"/><g style="clip-path:url(#h)"><g style="clip-path:url(#i)"><text style="font-size:4.54;font-family:Droid Sans" transform="matrix(1 0 0 -1 119.57 725.66)"><tspan x="0 2.46 4.72 6.64 9.07 10.65 13.03 15.49 17.75 19.93 22.29 24.55" y="0">RecordReader</tspan></text></g><g style="clip-path:url(#j)"><text style="font-size:4.54;font-family:Droid Sans" transform="matrix(1 0 0 -1 145.78 725.66)"><tspan x="0" y="0">:</tspan></text></g><path d="m119.57 724.92h26.21v.31h-26.21z" style="fill-rule:evenodd"/></g><g style="clip-path:url(#k)"><g style="clip-path:url(#l)"><text style="font-size:4.56;font-family:Droid Sans" transform="matrix(1 0 0 -1 119.57 720.12)"><tspan x="0 2.85 4.45 6.85 9.24 11.61 12.6 14.98 17.04 18.55 20.81 22.59 23.57 24.6 26.97 28.49" y="0">Group bytes into</tspan></text></g></g><g style="clip-path:url(#m)"><g style="clip-path:url(#n)"><text style="font-size:4.56;font-family:Droid Sans" transform="matrix(1 0 0 -1 119.57 714.6)"><tspan x="0 3 5.38 6.47 8.71 10.64 12.15 13.13 14.72 16.97 18.9 21.3 22.9 25.29" y="0">Object records</tspan></text></g></g><g style="clip-path:url(#o)"><g style="clip-path:url(#p)"><text style="font-size:4.56;font-family:Droid Sans" transform="matrix(1 0 0 -1 170.57 761.62)"><tspan x="0 3.9 6.08 8.48 10.85 13.12" y="0">Mapper</tspan></text></g><g style="clip-path:url(#q)"><text style="font-size:4.56;font-family:Droid Sans" transform="matrix(1 0 0 -1 185.26 761.62)"><tspan x="0" y="0">:</tspan></text></g><path d="m170.57 760.87h14.69v.31h-14.69z" style="fill-rule:evenodd"/></g><g style="clip-path:url(#r)"><g style="clip-path:url(#s)"><text style="font-size:4.56;font-family:Droid Sans" transform="matrix(1 0 0 -1 170.57 756.1)"><tspan x="0 2.23 5.87 6.92 8.45 10.23 11.16 12.19 14.56 16.09 18.38 19.97 23.61 25.88 28.28 29.3 31.48 33.01" y="0">Emits intermediate</tspan></text></g></g><g style="clip-path:url(#t)"><g style="clip-path:url(#u)"><text style="font-size:4.54;font-family:Droid Sans" transform="matrix(1 0 0 -1 170.57 750.55)"><tspan x="0 2.38 4.65" y="0">Key</tspan></text></g><g style="clip-path:url(#v)"><text style="font-size:4.54;font-family:Droid Sans" transform="matrix(1 0 0 -1 177.29 750.55)"><tspan x="0" y="0">-</tspan></text></g><g style="clip-path:url(#w)"><text style="font-size:4.54;font-family:Droid Sans" transform="matrix(1 0 0 -1 178.68 750.55)"><tspan x="0 2.06 4.23 5.28 7.66 9.92 10.86 13.24 15.41 16.46 18.04" y="0">value pairs</tspan></text></g></g><path d="m167.76 733.08h40.34v-22.25h-40.34z" style="fill:none;stroke:#f60;stroke-width:.58;stroke-linecap:round;stroke-linejoin:round;stroke-miterlimit:10"/><g style="clip-path:url(#x)"><g style="clip-path:url(#y)"><text style="font-size:4.56;font-family:Droid Sans" transform="matrix(1 0 0 -1 170.71 726.98)"><tspan x="0 3.9 6.08 8.48 10.85 13.12" y="0">Mapper</tspan></text></g><g style="clip-path:url(#z)"><text style="font-size:4.56;font-family:Droid Sans" transform="matrix(1 0 0 -1 185.4 726.98)"><tspan x="0" y="0">:</tspan></text></g><path d="m170.71 726.24h14.69v.31h-14.69z" style="fill-rule:evenodd"/></g><g style="clip-path:url(#A)"><g style="clip-path:url(#B)"><text style="font-size:4.56;font-family:Droid Sans" transform="matrix(1 0 0 -1 170.71 721.46)"><tspan x="0 2.23 5.9 6.93 8.46 10.24 11.18 12.21 14.59 16.12 18.4 19.99 23.65 25.92 28.32 29.34 31.52 33.05" y="0">Emits intermediate</tspan></text></g></g><g style="clip-path:url(#C)"><g style="clip-path:url(#D)"><text style="font-size:4.54;font-family:Droid Sans" transform="matrix(1 0 0 -1 170.71 715.92)"><tspan x="0 2.38 4.65" y="0">Key</tspan></text></g><g style="clip-path:url(#E)"><text style="font-size:4.54;font-family:Droid Sans" transform="matrix(1 0 0 -1 177.43 715.92)"><tspan x="0" y="0">-</tspan></text></g><g style="clip-path:url(#F)"><text style="font-size:4.54;font-family:Droid Sans" transform="matrix(1 0 0 -1 178.82 715.92)"><tspan x="0 2.08 4.25 5.3 7.68 9.95 10.88 13.26 15.44 16.48 18.06" y="0">value pairs</tspan></text></g></g><g style="clip-path:url(#G)"><g style="clip-path:url(#H)"><text style="font-size:4.54;font-family:Droid Sans" transform="matrix(1 0 0 -1 228.46 761.38)"><tspan x="0 2.42 4.84 8.51 10.9 11.92 14.3 16.57" y="0">Combiner</tspan></text></g><g style="clip-path:url(#I)"><text style="font-size:4.54;font-family:Droid Sans" transform="matrix(1 0 0 -1 246.62 761.38)"><tspan x="0" y="0">:</tspan></text></g><path d="m228.46 760.63h18.17v.29h-18.17z" style="fill-rule:evenodd"/></g><g style="clip-path:url(#J)"><g style="clip-path:url(#K)"><text style="font-size:4.56;font-family:Droid Sans" transform="matrix(1 0 0 -1 228.46 755.83)"><tspan x="0 2.48 4.75 7.14 9.5 11.43 13.7 15.49" y="0">Reduces </tspan></text></g><g style="clip-path:url(#L)"><text style="font-weight:bold;font-size:4.56;font-family:Droid Sans" transform="matrix(1 0 0 -1 244.94 755.83)"><tspan x="0 1.44 3.06 5.31 7.48 11.19 13.48 15.91 17.49" y="0">fragments</tspan></text></g></g><g style="clip-path:url(#M)"><g style="clip-path:url(#N)"><text style="font-size:4.56;font-family:Droid Sans" transform="matrix(1 0 0 -1 228.46 750.31)"><tspan x="0 3.02 4.41 5.4 9.07 11.25 13.63 16 18.27 19.86 20.85 23.27 25.65 27.17 29.57 31.93 33.46" y="0">Of mapper outputs</tspan></text></g></g><path d="m225.19 732.12h45.03v-21.05h-45.03z" style="fill:none;stroke:#f60;stroke-width:.58;stroke-linecap:round;stroke-linejoin:round;stroke-miterlimit:10"/><g style="clip-path:url(#O)"><g style="clip-path:url(#P)"><text style="font-size:4.56;font-family:Droid Sans" transform="matrix(1 0 0 -1 228.41 726.5)"><tspan x="0 2.43 4.84 8.51 10.88 11.93 14.33 16.6" y="0">Combiner</tspan></text></g><g style="clip-path:url(#Q)"><text style="font-size:4.56;font-family:Droid Sans" transform="matrix(1 0 0 -1 246.58 726.5)"><tspan x="0" y="0">:</tspan></text></g><path d="m228.41 725.76h18.17v.31h-18.17z" style="fill-rule:evenodd"/></g><g style="clip-path:url(#R)"><g style="clip-path:url(#S)"><text style="font-size:4.56;font-family:Droid Sans" transform="matrix(1 0 0 -1 228.41 720.98)"><tspan x="0 2.49 4.76 7.15 9.52 11.46 13.73 15.54" y="0">Reduces </tspan></text></g><g style="clip-path:url(#T)"><text style="font-weight:bold;font-size:4.56;font-family:Droid Sans" transform="matrix(1 0 0 -1 244.9 720.98)"><tspan x="0 1.44 3.06 5.31 7.48 11.19 13.48 15.91 17.49" y="0">fragments</tspan></text></g></g><g style="clip-path:url(#U)"><g style="clip-path:url(#V)"><text style="font-size:4.54;font-family:Droid Sans" transform="matrix(1 0 0 -1 228.41 715.44)"><tspan x="0 3.02 4.4 5.43 9.09 11.26 13.64 16.03 18.3 19.89 20.89 23.31 25.69 27.21 29.59 31.97 33.51" y="0">Of mapper outputs</tspan></text></g></g><g style="clip-path:url(#W)"><g style="clip-path:url(#X)"><text style="font-size:4.56;font-family:Droid Sans" transform="matrix(1 0 0 -1 281.4 726.24)"><tspan x="0 2.37 4.56 6.15 7.67 8.71 10.23 11.28 13.68 16.08 18.35" y="0">Partitioner</tspan></text></g><g style="clip-path:url(#Y)"><text style="font-size:4.56;font-family:Droid Sans" transform="matrix(1 0 0 -1 301.34 726.24)"><tspan x="0" y="0">:</tspan></text></g><path d="m281.4 725.5h19.94v.31h-19.94z" style="fill-rule:evenodd"/></g><g style="clip-path:url(#Z)"><g style="clip-path:url(#aa)"><text style="font-size:4.56;font-family:Droid Sans" transform="matrix(1 0 0 -1 281.4 720.72)"><tspan x="0 2.09 4.46 6.65 8.24 10.61 12.39 13.42 14.45 16.82 18.35 20.63 22.23 25.89 26.92 29.29 30.32 32.51 34.04 36.32 37.26 39.68 42.05 43.58 45.97 48.34 49.87" y="0">Shards intermidiate outputs</tspan></text></g></g><g style="clip-path:url(#ab)"><g style="clip-path:url(#ac)"><text style="font-size:4.54;font-family:Droid Sans" transform="matrix(1 0 0 -1 281.4 715.18)"><tspan x="0 2.63 4.4 5.43 9.09 11.26 13.64 15.74 16.67 18.25 20.53 22.91 25.29 27.21 29.47 31.05 32.84 33.82 35.99 37.78 38.76 40.53 42.92 45.09 46.67 49.05" y="0">As many reducers as shards</tspan></text></g></g><path d="m280.15 766.39h55.42v-20.28h-55.42z" style="fill:none;stroke:#36f;stroke-width:.58;stroke-linecap:round;stroke-linejoin:round;stroke-miterlimit:10"/><g style="clip-path:url(#ad)"><g style="clip-path:url(#ae)"><text style="font-size:4.56;font-family:Droid Sans" transform="matrix(1 0 0 -1 282.34 760.87)"><tspan x="0 2.37 4.53 6.12 7.65 8.69 10.21 11.26 13.67 16.06 18.33" y="0">Partitioner</tspan></text></g><g style="clip-path:url(#af)"><text style="font-size:4.56;font-family:Droid Sans" transform="matrix(1 0 0 -1 302.28 760.87)"><tspan x="0" y="0">:</tspan></text></g><path d="m282.34 760.13h19.94v.31h-19.94z" style="fill-rule:evenodd"/></g><g style="clip-path:url(#ag)"><g style="clip-path:url(#ah)"><text style="font-size:4.56;font-family:Droid Sans" transform="matrix(1 0 0 -1 282.34 755.35)"><tspan x="0 2.07 4.44 6.6 8.19 10.56 12.34 13.37 14.4 16.78 18.3 20.59 22.18 25.82 26.85 29.23 30.26 32.42 33.95 36.23 37.17 39.59 41.97 43.49 45.89 48.25 49.78" y="0">Shards intermidiate outputs</tspan></text></g></g><g style="clip-path:url(#ai)"><g style="clip-path:url(#aj)"><text style="font-size:4.54;font-family:Droid Sans" transform="matrix(1 0 0 -1 282.34 749.81)"><tspan x="0 2.63 4.4 5.43 9.07 11.24 13.6 15.66 16.6 18.18 20.46 22.84 25.22 27.14 29.4 30.99 32.77 33.75 35.93 37.7 38.67 40.45 42.83 44.99 46.57 48.95" y="0">As many reducers as shards</tspan></text></g></g><g style="clip-path:url(#ak)"><g style="clip-path:url(#al)"><text style="font-size:4.56;font-family:Droid Sans" transform="matrix(1 0 0 -1 349.2 751.97)"><tspan x="0 3.9 6.08 8.45 10.83 13.08 14.67" y="0">Mapper </tspan></text></g></g><g style="clip-path:url(#am)"><g style="clip-path:url(#an)"><text style="font-size:4.56;font-family:Droid Sans" transform="matrix(1 0 0 -1 349.2 746.45)"><tspan x="0 3 5.38 6.9 9.3 11.66 13.19 14.19 15.55 16.58 17.62" y="0">Output file</tspan></text></g></g><path d="m346.27 757.68h26.71v-14.83h-26.71z" style="fill:none;stroke:#f00;stroke-width:.58;stroke-linecap:round;stroke-linejoin:round;stroke-miterlimit:10"/><g style="clip-path:url(#ao)"><g style="clip-path:url(#ap)"><text style="font-size:4.54;font-family:Droid Sans" transform="matrix(1 0 0 -1 349.2 730.1)"><tspan x="0 3.91 6.08 8.44 10.82 13.08 14.66" y="0">Mapper </tspan></text></g></g><g style="clip-path:url(#aq)"><g style="clip-path:url(#ar)"><text style="font-size:4.56;font-family:Droid Sans" transform="matrix(1 0 0 -1 349.2 724.56)"><tspan x="0 3 5.38 6.9 9.3 11.66 13.19 14.19 15.55 16.58 17.62" y="0">Output file</tspan></text></g></g><path d="m346.27 735.79h26.71v-14.83h-26.71z" style="fill:none;stroke:#f00;stroke-width:.58;stroke-linecap:round;stroke-linejoin:round;stroke-miterlimit:10"/><g style="clip-path:url(#as)"><g style="clip-path:url(#at)"><text style="font-size:4.56;font-family:Droid Sans" transform="matrix(1 0 0 -1 393.48 751.49)"><tspan x="0 2.07 4.44 6.82 8.21 9.6 10.63 12.9 13.94 17.06 18.05 20.11 22.54 24.13 25.65" y="0">Shuffle &amp; Sort:</tspan></text></g><path d="m393.48 750.74h26.9v.29h-26.9z" style="fill-rule:evenodd"/></g><g style="clip-path:url(#au)"><g style="clip-path:url(#av)"><text style="font-size:4.54;font-family:Droid Sans" transform="matrix(1 0 0 -1 393.48 745.94)"><tspan x="0 3.91 6.18 7.77 9.9 12.18 13.95 14.89 17.06 19.45 21.83 22.85 24.63 27.06 28.64 30.17 31.95 32.93 35.1 36.15 37.19 38.16 40.23 42.5" y="0">Merges and sorts all key</tspan></text></g><g style="clip-path:url(#aw)"><text style="font-size:4.54;font-family:Droid Sans" transform="matrix(1 0 0 -1 438.12 745.94)"><tspan x="0" y="0">-</tspan></text></g><g style="clip-path:url(#ax)"><text style="font-size:4.54;font-family:Droid Sans" transform="matrix(1 0 0 -1 439.49 745.94)"><tspan x="0 2.06 4.23 5.28 7.66" y="0">value</tspan></text></g></g><g style="clip-path:url(#ay)"><g style="clip-path:url(#az)"><text style="font-size:4.56;font-family:Droid Sans" transform="matrix(1 0 0 -1 393.48 740.4)"><tspan x="0 2.07 4.49 6.08 7.05 9.24 10.27 12.05 13.08 15.45 17.6 18.62 20.89 21.89 24.26 26.45 28.04 29.57 30.6 32.13 33.17 35.58" y="0">For a single partition</tspan></text></g></g><g style="clip-path:url(#aA)"><g style="clip-path:url(#aB)"><text style="font-size:4.54;font-family:Droid Sans" transform="matrix(1 0 0 -1 466.7 750.74)"><tspan x="0 2.88 4.46 6.88 9.26 11.64 12.66 15.05" y="0">Grouping</tspan></text></g><g style="clip-path:url(#aC)"><text style="font-size:4.54;font-family:Droid Sans" transform="matrix(1 0 0 -1 483.89 750.74)"><tspan x="0" y="0">:</tspan></text></g><path d="m466.7 750h17.18v.29h-17.18z" style="fill-rule:evenodd"/></g><g style="clip-path:url(#aD)"><g style="clip-path:url(#aE)"><text style="font-size:4.54;font-family:Droid Sans" transform="matrix(1 0 0 -1 466.7 745.2)"><tspan x="0 2.88 4.46 6.88 9.26 11.64 13.42 14.39 15.93 18.31 20.58 21.56 23.64 25.92 28 29.77 30.76 32.14 34.57 36.15 37.14" y="0">Groups the keys for a</tspan></text></g></g><g style="clip-path:url(#aF)"><g style="clip-path:url(#aG)"><text style="font-size:4.56;font-family:Droid Sans" transform="matrix(1 0 0 -1 466.7 739.66)"><tspan x="0 2.09 3.12 5.49 7.64 8.66 10.93 11.97 13.56 15.83 18.22 20.59 22.53 24.8 25.8 27.73 29.92 30.95" y="0">Single reduce call</tspan></text></g></g><g style="clip-path:url(#aH)"><g style="clip-path:url(#aI)"><text style="font-size:4.54;font-family:Droid Sans" transform="matrix(1 0 0 -1 466.7 734.14)"><tspan x="0 2.63 3.65 4.69 5.72 7.23 9.62 11.9 12.88 14.96 17.14 18.18 20.56 22.83 24.6 25.59 27.76 29.34 31.63 32.61 36.28 38.56 40.14 42.28 44.56" y="0">All the values are merged</tspan></text></g></g><g style="clip-path:url(#aJ)"><g style="clip-path:url(#aK)"><text style="font-size:4.54;font-family:Droid Sans" transform="matrix(1 0 0 -1 466.7 728.59)"><tspan x="0 1.14 3.52 4.55 6.74 7.77 9.54 10.58 12.96 15.1 16.13 18.4 19.39 20.43 21.45 23.22" y="0">In a single list</tspan></text></g></g><g style="clip-path:url(#aL)"><g style="clip-path:url(#aM)"><text style="font-weight:bold;font-size:4.56;font-family:Droid Sans" transform="matrix(1 0 0 -1 411.94 794.76)"><tspan x="0 2.11 4.54 6.16 7.75 8.78 11.2 13.37 14.35 16.17 18.6" y="0">Sort by sub</tspan></text></g><g style="clip-path:url(#aN)"><text style="font-weight:bold;font-size:4.56;font-family:Droid Sans" transform="matrix(1 0 0 -1 433.01 794.76)"><tspan x="0" y="0">-</tspan></text></g><g style="clip-path:url(#aO)"><text style="font-weight:bold;font-size:4.56;font-family:Droid Sans" transform="matrix(1 0 0 -1 434.4 794.76)"><tspan x="0 2.16 4.44" y="0">key</tspan></text></g></g><g style="clip-path:url(#aP)"><g style="clip-path:url(#aQ)"><text style="font-size:4.54;font-family:Droid Sans" transform="matrix(1 0 0 -1 411.94 789.24)"><tspan x="0 2.28 4.55 5.54 7.96 10.34 11.36 13.42 14.41 16.52 18.11 20.53 22.91 25.29 27.07 28.04 29.08 30.6 31.63 34.01 36.44 38.71 40.49 41.43 43.81 46.22" y="0">=&gt; only groups it does not</tspan></text></g></g><g style="clip-path:url(#aR)"><g style="clip-path:url(#aS)"><text style="font-size:4.56;font-family:Droid Sans" transform="matrix(1 0 0 -1 411.94 783.7)"><tspan x="0 2.43 4.8 6.96 9.34 11.45 13.72 14.75 16.29 18.67 20.94 21.93 24.35 25.95 28.31 30.58" y="0">Change the order</tspan></text></g></g><g style="clip-path:url(#aT)"><g style="clip-path:url(#aU)"><text style="font-size:4.56;font-family:Droid Sans" transform="matrix(1 0 0 -1 201.14 796.25)"><tspan x="0 2.38 4.65" y="0">Key</tspan></text></g><g style="clip-path:url(#aV)"><text style="font-size:4.56;font-family:Droid Sans" transform="matrix(1 0 0 -1 207.86 796.25)"><tspan x="0" y="0">-</tspan></text></g><g style="clip-path:url(#aW)"><text style="font-size:4.56;font-family:Droid Sans" transform="matrix(1 0 0 -1 209.26 796.25)"><tspan x="0 2.06 4.25 5.28 7.66 9.93 10.87 13.06 14.65 16.92" y="0">value are </tspan></text></g><g style="clip-path:url(#aX)"><text style="font-weight:bold;font-size:4.56;font-family:Droid Sans" transform="matrix(1 0 0 -1 227.16 796.25)"><tspan x="0 1.82 4.25 5.87 7.46 9.74 12.17 13.15 15.38 17.81 20.23 21.26 23.08 25.38 27 28.12 30.37 31.49 32.61 34.44 36.72" y="0">sorted and serialized</tspan></text></g><g style="clip-path:url(#aY)"><text style="font-size:4.56;font-family:Droid Sans" transform="matrix(1 0 0 -1 267.29 796.25)"><tspan x="0 1.53 3.95" y="0">to </tspan></text></g></g><g style="clip-path:url(#aZ)"><g style="clip-path:url(#a0)"><text style="font-size:4.56;font-family:Droid Sans" transform="matrix(1 0 0 -1 201.14 790.73)"><tspan x="0 3.9 6.19 9.83 12.26 13.85 15.91 17.03 17.92 20.34 22.72 24.65 26.92 27.85 30.23 32.6 33.99 35.39 37.66 39.25 40.28 41.87 44.14 46.33 48.25 50.63 52.9 54.68 55.62 57.41 59.82 63.46 65.73 66.68 68.21 70.6 72.18 74.45 76.23 78.61 81.03 82.06" y="0">Memory, once buffer reaches some threshold</tspan></text></g></g><g style="clip-path:url(#a1)"><g style="clip-path:url(#a2)"><text style="font-size:4.54;font-family:Droid Sans" transform="matrix(1 0 0 -1 201.14 785.18)"><tspan x="0 1.13 2.66 3.69 4.73 6.5 7.48 8.87 9.91 12.29 14.07 16.45 18.71 21.09 22.11 23.66 26.07 27.06 28.59 30.97 33.24 34.22 35.81 38.08 39.86 41.39 42.38 44.79 46.18 47.17 48.7 51.08 53.35 54.34 56.72 57.74 60.12 62.39 63.44 64.46 66.84" y="0">It is flushed to the rest of the pipeline</tspan></text></g></g><g style="clip-path:url(#a3)"><g style="clip-path:url(#a4)"><text style="font-size:4.54;font-family:Droid Sans" transform="matrix(1 0 0 -1 81.65 786.36)"><tspan x="0 3.02 5.4 6.43 8.48 9.48 11.89 14.27 16.54 17.53 18.57 20.93 23.32 25.7 27.22 28.24 29.64 32.06 33.64 37.29 39.46 41 41.94 43.47 45.64 47.42" y="0">Only one input format task</tspan></text></g></g><g style="clip-path:url(#a5)"><g style="clip-path:url(#a6)"><text style="font-size:4.56;font-family:Droid Sans" transform="matrix(1 0 0 -1 81.65 780.82)"><tspan x="0 2.07 4.49 6.08 7.05 8.58 10.98 13.25 14.23 17.49 19.87 22.29 23.32 25.6 26.59 28.77 31.15 33.53 34.56 35.59 37.52 39.7 41.23 42.26 44.68 47.05 48.04 50.15" y="0">For the whole application ??</tspan></text></g></g><g style="clip-path:url(#a7)"><g style="clip-path:url(#a8)"><text style="font-size:4.54;font-family:Droid Sans" transform="matrix(1 0 0 -1 525.34 749.26)"><tspan x="0 2.46 4.75 7.13 9.51 11.44 13.72" y="0">Reducer</tspan></text></g><g style="clip-path:url(#a9)"><text style="font-size:4.54;font-family:Droid Sans" transform="matrix(1 0 0 -1 540.62 749.26)"><tspan x="0" y="0">:</tspan></text></g><path d="m525.34 748.51h15.29v.29h-15.29z" style="fill-rule:evenodd"/></g><g style="clip-path:url(#ba)"><g style="clip-path:url(#bb)"><text style="font-size:4.56;font-family:Droid Sans" transform="matrix(1 0 0 -1 525.34 743.71)"><tspan x="0 2.64 4.79 6.91 8.5 10.78 12.92 15.11 16.63 18.91 20.71 21.71 23.1 25.19 27.46" y="0">Aggregates (key</tspan></text></g><g style="clip-path:url(#bc)"><text style="font-size:4.56;font-family:Droid Sans" transform="matrix(1 0 0 -1 554.78 743.71)"><tspan x="0" y="0">-</tspan></text></g><g style="clip-path:url(#bd)"><text style="font-size:4.56;font-family:Droid Sans" transform="matrix(1 0 0 -1 556.18 743.71)"><tspan x="0 2.08 4.27 5.32 7.71 9.98 10.87 11.92 12.97 14.77 16.3" y="0">value list)</tspan></text></g></g><g style="fill:none;stroke-width:.58;stroke-linecap:round;stroke-linejoin:round;stroke-miterlimit:10"><g style="stroke:#fc0"><path d="m101.95 781.13-11.85-28.2"/><path d="m93.48 755.81-3.38-2.88-.31 4.44"/><path d="m227.4 785.33-12.22-31.66"/><path d="m218.47 756.67-3.29-3-.4 4.44"/><path d="m437.86 783.34 20.37-22.73"/><path d="m457.06 764.88 1.15-4.27-4.13 1.63"/></g><path d="m26.88 695.83h566.4v-75.93h-566.4z" style="stroke:#7f7f7f"/><path d="m60.91 737.33-.12-3.77-.36-3.67-.58-3.6-.82-3.39-.98-3.14-1.2-2.93-1.37-2.54-1.54-2.23-1.66-1.83-1.73-1.37-1.82-.96-1.85-.48h-1.9l-1.87.48-1.8.96-1.75 1.37-1.66 1.83-1.51 2.23-1.39 2.54-1.2 2.93-.98 3.14-.79 3.39-.6 3.6-.36 3.67-.1 3.77.1 3.77.36 3.69.6 3.58.79 3.38.98 3.19 1.2 2.93 1.39 2.55 1.51 2.2 1.66 1.85 1.75 1.35 1.8.96 1.87.45h1.9l1.85-.45 1.82-.96 1.73-1.35 1.66-1.85 1.54-2.2 1.37-2.55 1.2-2.93.98-3.19.82-3.38.58-3.58.36-3.69z" style="stroke:#008000"/><path d="m35.66 749.21h20.78v-26.95h-20.78z" style="stroke:#f00"/></g><g style="clip-path:url(#be)"><g style="clip-path:url(#bf)"><text style="font-weight:bold;font-size:4.54;font-family:Droid Sans" transform="matrix(1 0 0 -1 40.92 757.42)"><tspan x="0 2.88 5.75 7.83" y="0">HDFS</tspan></text></g></g><g style="clip-path:url(#bg)"><g style="clip-path:url(#bh)"><text style="font-size:4.56;font-family:Droid Sans" transform="matrix(1 0 0 -1 37.7 743.33)"><tspan x="0 1.15 3.53 5.91 8.28 9.81" y="0">Input:</tspan></text></g></g><g style="clip-path:url(#bi)"><g style="clip-path:url(#bj)"><text style="font-size:4.54;font-family:Droid Sans" transform="matrix(1 0 0 -1 37.7 737.78)"><tspan x="0 2.08 3.13 4.15 6.43 7.45 9.83 10.88 13.29 15.23" y="0">File block</tspan></text></g></g><g style="clip-path:url(#bk)"><g style="clip-path:url(#bl)"><text style="font-weight:bold;font-size:4.56;font-family:Droid Sans" transform="matrix(1 0 0 -1 30.29 771.53)"><tspan x="0 2.41 3.55 5.97 7.79 9.38 11.67 13.29 14.23 17.25 19.68 22.1" y="0">Cluster Node</tspan></text></g></g><g style="clip-path:url(#bm)"><g style="clip-path:url(#bn)"><text style="font-size:4.54;font-family:Droid Sans" transform="matrix(1 0 0 -1 69.62 747.77)"><tspan x="0 1.13 3.51 5.89 8.26 9.79 11.87 14.3 15.88 19.55 21.72" y="0">InputFormat</tspan></text></g><g style="clip-path:url(#bo)"><text style="font-size:4.54;font-family:Droid Sans" transform="matrix(1 0 0 -1 92.88 747.77)"><tspan x="0" y="0">:</tspan></text></g><path d="m69.62 747.02h23.26v.31h-23.26z" style="fill-rule:evenodd"/></g><g style="clip-path:url(#bp)"><g style="clip-path:url(#bq)"><text style="font-size:4.56;font-family:Droid Sans" transform="matrix(1 0 0 -1 70.66 742.22)"><tspan x="0" y="0">-</tspan></text></g><g style="clip-path:url(#br)"><text style="font-size:4.56;font-family:Droid Sans" transform="matrix(1 0 0 -1 73.08 742.22)"><tspan x="0 2.09 4.46 5.49 6.53 8.05 9.84 10.82 11.85 14.23 16.6 18.98 20.51 21.54 22.59 24.96" y="0">Splits input in </tspan></text></g></g><g style="clip-path:url(#bs)"><g style="clip-path:url(#bt)"><text style="font-size:4.54;font-family:Droid Sans" transform="matrix(1 0 0 -1 69.62 736.7)"><tspan x="0 2.42 4.8 7.18 9.56 11.63" y="0">Chunks</tspan></text></g></g><g style="clip-path:url(#bu)"><g style="clip-path:url(#bv)"><text style="font-size:4.54;font-family:Droid Sans" transform="matrix(1 0 0 -1 70.66 731.16)"><tspan x="0" y="0">-</tspan></text></g><g style="clip-path:url(#bw)"><text style="font-size:4.54;font-family:Droid Sans" transform="matrix(1 0 0 -1 73.08 731.16)"><tspan x="0 2.63 4.4 5.38 9.04 11.22 13.6 15.69 16.67 20.34 22.52 24.9 27.28 29.56 31.14" y="0">As many mappers</tspan></text></g></g><g style="clip-path:url(#bx)"><g style="clip-path:url(#by)"><text style="font-size:4.56;font-family:Droid Sans" transform="matrix(1 0 0 -1 69.62 725.62)"><tspan x="0 2.62 4.4 5.43 7.35 9.72 12.1 14.47 16.55" y="0">As chunks</tspan></text></g></g><path d="m60.82 654.96-.12-3.77-.36-3.69-.58-3.58-.82-3.38-.98-3.15-1.2-2.93-1.37-2.56-1.54-2.21-1.66-1.83-1.75-1.39-1.8-.93-1.87-.48h-1.87l-1.87.48-1.82.93-1.73 1.39-1.66 1.83-1.54 2.21-1.37 2.56-1.2 2.93-.98 3.15-.82 3.38-.58 3.58-.36 3.69-.12 3.77.12 3.77.36 3.67.58 3.6.82 3.38.98 3.17 1.2 2.93 1.37 2.54 1.54 2.21 1.66 1.85 1.73 1.37 1.82.93 1.87.48h1.87l1.87-.48 1.8-.93 1.75-1.37 1.66-1.85 1.54-2.21 1.37-2.54 1.2-2.93.98-3.17.82-3.38.58-3.6.36-3.67z" style="fill:none;stroke:#008000;stroke-width:.58;stroke-linecap:round;stroke-linejoin:round;stroke-miterlimit:10"/><path d="m35.81 666.84h20.78v-26.95h-20.78z" style="fill:none;stroke:#f00;stroke-width:.58;stroke-linecap:round;stroke-linejoin:round;stroke-miterlimit:10"/><g style="clip-path:url(#bz)"><g style="clip-path:url(#bA)"><text style="font-weight:bold;font-size:4.54;font-family:Droid Sans" transform="matrix(1 0 0 -1 30.43 688.9)"><tspan x="0 2.75 5.18 7.61 9.18 11.62 13.9 15.52 16.51 18.92 20.04 22.48 24.29 25.87 28.15 29.79 30.72 33.74 36.17 38.6" y="0">Another Cluster Node</tspan></text></g></g><g style="fill:none;stroke-width:.58;stroke-linecap:round;stroke-linejoin:round;stroke-miterlimit:10"><path d="m378.14 657.86-.16-4.32-.44-4.2-.72-4.1-.98-3.89-1.25-3.6-1.49-3.36-1.7-2.9-1.9-2.55-2.04-2.11-2.16-1.56-2.25-1.08-2.31-.53h-2.32l-2.31.53-2.28 1.08-2.13 1.56-2.07 2.11-1.89 2.55-1.71 2.9-1.46 3.36-1.25 3.6-.98 3.89-.75 4.1-.43 4.2-.14 4.32.14 4.32.43 4.2.75 4.11.98 3.89 1.25 3.62 1.46 3.34 1.71 2.9 1.89 2.54 2.07 2.09 2.13 1.59 2.28 1.08 2.31.52h2.32l2.31-.52 2.25-1.08 2.16-1.59 2.04-2.09 1.9-2.54 1.7-2.9 1.49-3.34 1.25-3.62.98-3.89.72-4.11.44-4.2z" style="stroke:#177d36"/><path d="m346.56 676.1h26.74v-14.83h-26.74z" style="stroke:#f00"/><path d="m346.56 654.22h26.74v-14.84h-26.74z" style="stroke:#f00"/><g style="stroke:#ed1c24"><path d="m56.45 735.74 9.62.12"/><path d="m108.65 743.28 7.89 12.86"/><path d="m108.89 727.94 7.41-7.41"/><path d="m157.63 757.13h9.89"/><path d="m157.3 721.61 10.22.38"/><path d="m208.08 759.36 17.57-.24"/><path d="m208.08 722.26 17.09.98"/><path d="m270.43 757.87 9.41.24"/><path d="m270.24 721.61h9"/><path d="m335.52 755.4 10.87-27.46"/><path d="m346.27 750.26-10.75 4.88"/><path d="m334.63 721.61 11.76 28.34"/><path d="m346.27 728.38-11.49-7.13"/><path d="m365.69 675.98 25.49 63.08"/><path d="m372.98 750.26 18.2-11.2"/><path d="m450.34 740.16 14.32-1.34"/><path d="m450.34 751.2 14.08-1.99"/><path d="m450.05 730.15 14.37-2.95"/><path d="m373.01 728.38 17.93 10.2"/><path d="m515.4 747.48 6.96-3.22"/><path d="m515.4 734.59 7.01-2.47"/><path d="m575.81 740.23 11.06-.67"/><path d="m583.01 741.79 3.86-2.23-4.1-1.75"/></g><path d="m115.8 690.07h220.2v-59.61h-220.2z" style="stroke:#f60"/></g><g style="clip-path:url(#bB)"><g style="clip-path:url(#bC)"><text style="font-weight:bold;font-size:5.81;font-family:Droid Sans" transform="matrix(1 0 0 -1 192.98 659.11)"><tspan x="0 5.04 7.91 11.03 12.29 15.36 17.42 20.55 22.98 25.87 28.19" y="0">Map Process</tspan></text></g></g><path d="m391.15 689.78h187.78v-59.61h-187.78z" style="fill:none;stroke:#f60;stroke-width:.58;stroke-linecap:round;stroke-linejoin:round;stroke-miterlimit:10"/><g style="clip-path:url(#bD)"><g style="clip-path:url(#bE)"><text style="font-weight:bold;font-size:5.81;font-family:Droid Sans" transform="matrix(1 0 0 -1 452.76 659.11)"><tspan x="0 3.27 6.17 9.29 12.41 14.83 17.74 18.96 22.04 24.1 27.22 29.65 32.55 34.87" y="0">Reduce Process</tspan></text></g></g></g></svg>