<svg height="238.9" viewBox="0 0 377.22 238.9" width="377.22" xml:space="preserve" xmlns="http://www.w3.org/2000/svg" xmlns:xlink="http://www.w3.org/1999/xlink"><clipPath id="a"><path d="m97.22 566.4h25.63v5.59h-25.63z" style="clip-rule:evenodd"/></clipPath><clipPath id="b"><path d="m97.22 566.45h25.63v5.54h-25.63z" style="clip-rule:evenodd"/></clipPath><clipPath id="c"><path d="m97.22 566.45h25.63v5.54h-25.63z" style="clip-rule:evenodd"/></clipPath><clipPath id="d"><path d="m97.22 560.86h63.07v5.59h-63.07z" style="clip-rule:evenodd"/></clipPath><clipPath id="e"><path d="m97.22 560.9h63.07v5.54h-63.07z" style="clip-rule:evenodd"/></clipPath><clipPath id="f"><path d="m97.22 560.9h63.07v5.54h-63.07z" style="clip-rule:evenodd"/></clipPath><clipPath id="g"><path d="m97.22 555.34h56.69v5.59h-56.69z" style="clip-rule:evenodd"/></clipPath><clipPath id="h"><path d="m97.22 555.38h56.69v5.54h-56.69z" style="clip-rule:evenodd"/></clipPath><clipPath id="i"><path d="m97.22 549.79h63.07v5.59h-63.07z" style="clip-rule:evenodd"/></clipPath><clipPath id="j"><path d="m97.22 549.84h63.07v5.54h-63.07z" style="clip-rule:evenodd"/></clipPath><clipPath id="k"><path d="m97.22 549.84h63.07v5.54h-63.07z" style="clip-rule:evenodd"/></clipPath><clipPath id="l"><path d="m97.22 544.25h61.85v5.59h-61.85z" style="clip-rule:evenodd"/></clipPath><clipPath id="m"><path d="m97.22 544.3h61.85v5.54h-61.85z" style="clip-rule:evenodd"/></clipPath><clipPath id="n"><path d="m180.74 552.6h44.64v5.59h-44.64z" style="clip-rule:evenodd"/></clipPath><clipPath id="o"><path d="m180.74 552.65h44.64v5.54h-44.64z" style="clip-rule:evenodd"/></clipPath><clipPath id="p"><path d="m180.74 552.65h44.64v5.54h-44.64z" style="clip-rule:evenodd"/></clipPath><clipPath id="q"><path d="m180.74 547.06h60.07v5.59h-60.07z" style="clip-rule:evenodd"/></clipPath><clipPath id="r"><path d="m180.74 547.1h60.07v5.54h-60.07z" style="clip-rule:evenodd"/></clipPath><clipPath id="s"><path d="m180.74 547.1h60.07v5.54h-60.07z" style="clip-rule:evenodd"/></clipPath><clipPath id="t"><path d="m180.74 541.51h68.09v5.59h-68.09z" style="clip-rule:evenodd"/></clipPath><clipPath id="u"><path d="m180.74 541.56h68.09v5.54h-68.09z" style="clip-rule:evenodd"/></clipPath><clipPath id="v"><path d="m180.74 541.56h68.09v5.54h-68.09z" style="clip-rule:evenodd"/></clipPath><clipPath id="w"><path d="m180.74 535.99h64.58v5.59h-64.58z" style="clip-rule:evenodd"/></clipPath><clipPath id="x"><path d="m180.74 536.04h64.58v5.54h-64.58z" style="clip-rule:evenodd"/></clipPath><clipPath id="y"><path d="m180.74 536.04h64.58v5.54h-64.58z" style="clip-rule:evenodd"/></clipPath><clipPath id="z"><path d="m180.74 530.45h67.61v5.59h-67.61z" style="clip-rule:evenodd"/></clipPath><clipPath id="A"><path d="m180.74 530.5h67.61v5.54h-67.61z" style="clip-rule:evenodd"/></clipPath><clipPath id="B"><path d="m180.74 530.5h67.61v5.54h-67.61z" style="clip-rule:evenodd"/></clipPath><clipPath id="C"><path d="m90.14 508.54h50.93v5.57h-50.93z" style="clip-rule:evenodd"/></clipPath><clipPath id="D"><path d="m90.14 508.58h50.93v5.52h-50.93z" style="clip-rule:evenodd"/></clipPath><clipPath id="E"><path d="m90.14 508.58h50.93v5.52h-50.93z" style="clip-rule:evenodd"/></clipPath><clipPath id="F"><path d="m90.14 502.99h73.92v5.59h-73.92z" style="clip-rule:evenodd"/></clipPath><clipPath id="G"><path d="m90.14 503.04h73.92v5.54h-73.92z" style="clip-rule:evenodd"/></clipPath><clipPath id="H"><path d="m90.14 503.04h73.92v5.54h-73.92z" style="clip-rule:evenodd"/></clipPath><clipPath id="I"><path d="m90.14 497.45h47.81v5.59h-47.81z" style="clip-rule:evenodd"/></clipPath><clipPath id="J"><path d="m90.14 497.5h47.81v5.54h-47.81z" style="clip-rule:evenodd"/></clipPath><clipPath id="K"><path d="m90.14 497.5h47.81v5.54h-47.81z" style="clip-rule:evenodd"/></clipPath><clipPath id="L"><path d="m90.14 491.9h41.47v5.59h-41.47z" style="clip-rule:evenodd"/></clipPath><clipPath id="M"><path d="m90.14 491.98h41.47v5.52h-41.47z" style="clip-rule:evenodd"/></clipPath><clipPath id="N"><path d="m90.14 491.98h41.47v5.52h-41.47z" style="clip-rule:evenodd"/></clipPath><clipPath id="O"><path d="m90.14 486.38h72v5.59h-72z" style="clip-rule:evenodd"/></clipPath><clipPath id="P"><path d="m90.14 486.43h72v5.54h-72z" style="clip-rule:evenodd"/></clipPath><clipPath id="Q"><path d="m90.14 486.43h72v5.54h-72z" style="clip-rule:evenodd"/></clipPath><clipPath id="R"><path d="m229.08 441.31h42.6v5.59h-42.6z" style="clip-rule:evenodd"/></clipPath><clipPath id="S"><path d="m229.08 441.38h42.6v5.52h-42.6z" style="clip-rule:evenodd"/></clipPath><clipPath id="T"><path d="m229.08 441.38h42.6v5.52h-42.6z" style="clip-rule:evenodd"/></clipPath><clipPath id="U"><path d="m229.08 435.79h60.58v5.59h-60.58z" style="clip-rule:evenodd"/></clipPath><clipPath id="V"><path d="m229.08 435.84h60.58v5.54h-60.58z" style="clip-rule:evenodd"/></clipPath><clipPath id="W"><path d="m229.08 435.84h60.58v5.54h-60.58z" style="clip-rule:evenodd"/></clipPath><clipPath id="X"><path d="m229.08 430.25h47.76v5.59h-47.76z" style="clip-rule:evenodd"/></clipPath><clipPath id="Y"><path d="m229.08 430.3h47.76v5.54h-47.76z" style="clip-rule:evenodd"/></clipPath><clipPath id="Z"><path d="m229.08 430.3h47.76v5.54h-47.76z" style="clip-rule:evenodd"/></clipPath><clipPath id="aa"><path d="m229.08 424.7h47.9v5.59h-47.9z" style="clip-rule:evenodd"/></clipPath><clipPath id="ab"><path d="m229.08 424.75h47.9v5.54h-47.9z" style="clip-rule:evenodd"/></clipPath><clipPath id="ac"><path d="m185.21 595.37h51.22v5.59h-51.22z" style="clip-rule:evenodd"/></clipPath><clipPath id="ad"><path d="m185.21 595.42h51.22v5.54h-51.22z" style="clip-rule:evenodd"/></clipPath><clipPath id="ae"><path d="m185.21 595.42h51.22v5.54h-51.22z" style="clip-rule:evenodd"/></clipPath><clipPath id="af"><path d="m185.21 589.85h85.85v5.57h-85.85z" style="clip-rule:evenodd"/></clipPath><clipPath id="ag"><path d="m185.21 589.9h85.85v5.52h-85.85z" style="clip-rule:evenodd"/></clipPath><clipPath id="ah"><path d="m185.21 584.3h60.02v5.59h-60.02z" style="clip-rule:evenodd"/></clipPath><clipPath id="ai"><path d="m185.21 584.35h60.02v5.54h-60.02z" style="clip-rule:evenodd"/></clipPath><clipPath id="aj"><path d="m256.7 495.7h51.07v5.59h-51.07z" style="clip-rule:evenodd"/></clipPath><clipPath id="ak"><path d="m256.7 495.74h51.07v5.54h-51.07z" style="clip-rule:evenodd"/></clipPath><clipPath id="al"><path d="m256.7 495.74h51.07v5.54h-51.07z" style="clip-rule:evenodd"/></clipPath><clipPath id="am"><path d="m256.7 495.74h51.07v5.54h-51.07z" style="clip-rule:evenodd"/></clipPath><clipPath id="an"><path d="m256.7 495.74h51.07v5.54h-51.07z" style="clip-rule:evenodd"/></clipPath><clipPath id="ao"><path d="m256.7 490.15h50.23v5.59h-50.23z" style="clip-rule:evenodd"/></clipPath><clipPath id="ap"><path d="m256.7 490.2h50.23v5.54h-50.23z" style="clip-rule:evenodd"/></clipPath><clipPath id="aq"><path d="m256.7 490.2h50.23v5.54h-50.23z" style="clip-rule:evenodd"/></clipPath><clipPath id="ar"><path d="m256.7 484.63h58.63v5.59h-58.63z" style="clip-rule:evenodd"/></clipPath><clipPath id="as"><path d="m256.7 484.68h58.63v5.54h-58.63z" style="clip-rule:evenodd"/></clipPath><clipPath id="at"><path d="m256.7 484.68h58.63v5.54h-58.63z" style="clip-rule:evenodd"/></clipPath><clipPath id="au"><path d="m256.7 479.09h49.68v5.59h-49.68z" style="clip-rule:evenodd"/></clipPath><clipPath id="av"><path d="m256.7 479.14h49.68v5.54h-49.68z" style="clip-rule:evenodd"/></clipPath><clipPath id="aw"><path d="m256.7 479.14h49.68v5.54h-49.68z" style="clip-rule:evenodd"/></clipPath><clipPath id="ax"><path d="m323.52 547.63h36.12v5.59h-36.12z" style="clip-rule:evenodd"/></clipPath><clipPath id="ay"><path d="m323.52 547.7h36.12v5.52h-36.12z" style="clip-rule:evenodd"/></clipPath><clipPath id="az"><path d="m323.52 547.7h36.12v5.52h-36.12z" style="clip-rule:evenodd"/></clipPath><clipPath id="aA"><path d="m323.52 542.11h63.77v5.59h-63.77z" style="clip-rule:evenodd"/></clipPath><clipPath id="aB"><path d="m323.52 542.16h63.77v5.54h-63.77z" style="clip-rule:evenodd"/></clipPath><clipPath id="aC"><path d="m323.52 536.57h46.75v5.59h-46.75z" style="clip-rule:evenodd"/></clipPath><clipPath id="aD"><path d="m323.52 536.62h46.75v5.54h-46.75z" style="clip-rule:evenodd"/></clipPath><clipPath id="aE"><path d="m175.06 495.7h33.86v5.59h-33.86z" style="clip-rule:evenodd"/></clipPath><clipPath id="aF"><path d="m175.06 495.74h33.86v5.54h-33.86z" style="clip-rule:evenodd"/></clipPath><clipPath id="aG"><path d="m175.06 495.74h33.86v5.54h-33.86z" style="clip-rule:evenodd"/></clipPath><clipPath id="aH"><path d="m175.06 490.15h68.93v5.59h-68.93z" style="clip-rule:evenodd"/></clipPath><clipPath id="aI"><path d="m175.06 490.2h68.93v5.54h-68.93z" style="clip-rule:evenodd"/></clipPath><clipPath id="aJ"><path d="m175.06 490.2h68.93v5.54h-68.93z" style="clip-rule:evenodd"/></clipPath><clipPath id="aK"><path d="m175.06 484.63h80.47v5.59h-80.47z" style="clip-rule:evenodd"/></clipPath><clipPath id="aL"><path d="m175.06 484.68h80.47v5.54h-80.47z" style="clip-rule:evenodd"/></clipPath><clipPath id="aM"><path d="m175.06 484.68h80.47v5.54h-80.47z" style="clip-rule:evenodd"/></clipPath><clipPath id="aN"><path d="m175.06 479.09h28.06v5.59h-28.06z" style="clip-rule:evenodd"/></clipPath><clipPath id="aO"><path d="m175.06 479.14h28.06v5.54h-28.06z" style="clip-rule:evenodd"/></clipPath><clipPath id="aP"><path d="m190.66 433.1h44.28v5.59h-44.28z" style="clip-rule:evenodd"/></clipPath><clipPath id="aQ"><path d="m190.66 433.15h44.28v5.54h-44.28z" style="clip-rule:evenodd"/></clipPath><clipPath id="aR"><path d="m190.66 427.56h32.71v5.59h-32.71z" style="clip-rule:evenodd"/></clipPath><clipPath id="aS"><path d="m190.66 427.63h32.71v5.52h-32.71z" style="clip-rule:evenodd"/></clipPath><clipPath id="aT"><path d="m289.63 440.81h45.96v5.59h-45.96z" style="clip-rule:evenodd"/></clipPath><clipPath id="aU"><path d="m289.63 440.86h45.96v5.54h-45.96z" style="clip-rule:evenodd"/></clipPath><clipPath id="aV"><path d="m289.63 440.86h45.96v5.54h-45.96z" style="clip-rule:evenodd"/></clipPath><clipPath id="aW"><path d="m289.63 435.29h46.61v5.59h-46.61z" style="clip-rule:evenodd"/></clipPath><clipPath id="aX"><path d="m289.63 435.34h46.61v5.54h-46.61z" style="clip-rule:evenodd"/></clipPath><clipPath id="aY"><path d="m289.63 435.34h46.61v5.54h-46.61z" style="clip-rule:evenodd"/></clipPath><clipPath id="aZ"><path d="m289.63 429.74h47.9v5.59h-47.9z" style="clip-rule:evenodd"/></clipPath><clipPath id="a0"><path d="m289.63 429.79h47.9v5.54h-47.9z" style="clip-rule:evenodd"/></clipPath><clipPath id="a1"><path d="m330.94 503.11h51.05v5.59h-51.05z" style="clip-rule:evenodd"/></clipPath><clipPath id="a2"><path d="m330.94 503.16h51.05v5.54h-51.05z" style="clip-rule:evenodd"/></clipPath><clipPath id="a3"><path d="m330.94 503.16h51.05v5.54h-51.05z" style="clip-rule:evenodd"/></clipPath><clipPath id="a4"><path d="m330.94 497.57h72.67v5.59h-72.67z" style="clip-rule:evenodd"/></clipPath><clipPath id="a5"><path d="m330.94 497.64h72.67v5.52h-72.67z" style="clip-rule:evenodd"/></clipPath><clipPath id="a6"><path d="m330.94 497.64h72.67v5.52h-72.67z" style="clip-rule:evenodd"/></clipPath><clipPath id="a7"><path d="m330.94 492.05h33.19v5.59h-33.19z" style="clip-rule:evenodd"/></clipPath><clipPath id="a8"><path d="m330.94 492.1h33.19v5.54h-33.19z" style="clip-rule:evenodd"/></clipPath><clipPath id="a9"><path d="m330.94 492.1h33.19v5.54h-33.19z" style="clip-rule:evenodd"/></clipPath><clipPath id="ba"><path d="m330.94 492.1h33.19v5.54h-33.19z" style="clip-rule:evenodd"/></clipPath><clipPath id="bb"><path d="m330.94 486.5h67.78v5.59h-67.78z" style="clip-rule:evenodd"/></clipPath><clipPath id="bc"><path d="m330.94 486.55h67.78v5.54h-67.78z" style="clip-rule:evenodd"/></clipPath><clipPath id="bd"><path d="m330.94 486.55h67.78v5.54h-67.78z" style="clip-rule:evenodd"/></clipPath><clipPath id="be"><path d="m330.94 486.55h67.78v5.54h-67.78z" style="clip-rule:evenodd"/></clipPath><clipPath id="bf"><path d="m330.94 486.55h67.78v5.54h-67.78z" style="clip-rule:evenodd"/></clipPath><clipPath id="bg"><path d="m330.94 480.96h30.72v5.59h-30.72z" style="clip-rule:evenodd"/></clipPath><clipPath id="bh"><path d="m330.94 481.03h30.72v5.52h-30.72z" style="clip-rule:evenodd"/></clipPath><clipPath id="bi"><path d="m330.94 475.44h65.95v5.59h-65.95z" style="clip-rule:evenodd"/></clipPath><clipPath id="bj"><path d="m330.94 475.49h65.95v5.54h-65.95z" style="clip-rule:evenodd"/></clipPath><clipPath id="bk"><path d="m330.94 475.49h65.95v5.54h-65.95z" style="clip-rule:evenodd"/></clipPath><clipPath id="bl"><path d="m330.94 469.9h48.14v5.59h-48.14z" style="clip-rule:evenodd"/></clipPath><clipPath id="bm"><path d="m330.94 469.94h48.14v5.54h-48.14z" style="clip-rule:evenodd"/></clipPath><clipPath id="bn"><path d="m251.76 546.65h38.83v5.59h-38.83z" style="clip-rule:evenodd"/></clipPath><clipPath id="bo"><path d="m251.76 546.7h38.83v5.54h-38.83z" style="clip-rule:evenodd"/></clipPath><clipPath id="bp"><path d="m251.76 546.7h38.83v5.54h-38.83z" style="clip-rule:evenodd"/></clipPath><clipPath id="bq"><path d="m251.76 541.13h63.89v5.57h-63.89z" style="clip-rule:evenodd"/></clipPath><clipPath id="br"><path d="m251.76 541.18h63.89v5.52h-63.89z" style="clip-rule:evenodd"/></clipPath><clipPath id="bs"><path d="m251.76 541.18h63.89v5.52h-63.89z" style="clip-rule:evenodd"/></clipPath><clipPath id="bt"><path d="m251.76 535.58h58.58v5.59h-58.58z" style="clip-rule:evenodd"/></clipPath><clipPath id="bu"><path d="m251.76 535.63h58.58v5.54h-58.58z" style="clip-rule:evenodd"/></clipPath><clipPath id="bv"><path d="m251.76 530.04h62.95v5.59h-62.95z" style="clip-rule:evenodd"/></clipPath><clipPath id="bw"><path d="m251.76 530.09h62.93v5.54h-62.93z" style="clip-rule:evenodd"/></clipPath><clipPath id="bx"><path d="m251.76 530.09h62.93v5.54h-62.93z" style="clip-rule:evenodd"/></clipPath><clipPath id="by"><path d="m251.76 524.52h60.82v5.57h-60.82z" style="clip-rule:evenodd"/></clipPath><clipPath id="bz"><path d="m251.76 524.57h60.82v5.52h-60.82z" style="clip-rule:evenodd"/></clipPath><g transform="matrix(1.25 0 0 -1.25 -112.37 766.18)"><g style="fill:none;stroke-linecap:round;stroke-linejoin:round;stroke-miterlimit:10"><g style="stroke-width:.58"><path d="m207.77 612.65-.91-172.66" style="stroke:#bfbfbf"/><path d="m90.19 516.19h60.36v-31.44h-60.36z" style="stroke:#f60"/><path d="m97.51 574.78h56.91v-48h-56.91z" style="stroke:#36f"/><path d="m256.75 504.26h51.22v-39.07h-51.22z" style="stroke:#f60"/><path d="m180.79 561.22h55.68v-44.55h-55.68z" style="stroke:#f0f"/><path d="m274.56 592.3-.43-1.61-1.32-1.56-2.19-1.54-2.97-1.44-3.7-1.34-4.46-1.25-5.09-1.08-5.69-.96-6.12-.74-6.5-.6-6.75-.41-6.93-.19h-7.01l-6.94.19-6.74.41-6.48.6-6.14.74-5.72.96-5.06 1.08-4.46 1.25-3.7 1.34-2.98 1.44-2.2 1.54-1.3 1.56-.46 1.61.46 1.6 1.3 1.56 2.2 1.52 2.98 1.46 3.7 1.34 4.46 1.25 5.06 1.08 5.72.94 6.14.79 6.48.58 6.74.4 6.94.2h7.01l6.93-.2 6.75-.4 6.5-.58 6.12-.79 5.69-.94 5.09-1.08 4.46-1.25 3.7-1.34 2.97-1.46 2.19-1.52 1.32-1.56z" style="stroke:#177d36"/></g><path d="m175.34 503.06h67.04v-35.35h-67.04z" style="stroke:#f0f;stroke-width:1.18"/><g style="stroke-width:.58"><path d="m323.3 554.76h51.72v-25.85h-51.72z" style="stroke:#3165bb"/><path d="m229.13 449.06h47.73v-26.95h-47.73z" style="stroke:#177d36"/></g></g><g style="clip-path:url(#a)"><g style="clip-path:url(#b)"><text style="font-size:4.56;font-family:Droid Sans" transform="matrix(1 0 0 -1 100.3 567.62)"><tspan x="0 1.42 3.84" y="0">Job</tspan></text></g><g style="clip-path:url(#c)"><text style="font-size:4.56;font-family:Droid Sans" transform="matrix(1 0 0 -1 106.51 567.62)"><tspan x="0" y="0">:</tspan></text></g><path d="m100.3 566.9h6.22v.29h-6.22z" style="fill-rule:evenodd"/></g><g style="clip-path:url(#d)"><g style="clip-path:url(#e)"><text style="font-size:4.54;font-family:Droid Sans" transform="matrix(1 0 0 -1 101.33 562.1)"><tspan x="0" y="0">-</tspan></text></g><g style="clip-path:url(#f)"><text style="font-size:4.54;font-family:Droid Sans" transform="matrix(1 0 0 -1 103.75 562.1)"><tspan x="0 2.8 5.06 6.84 8.75 10.34 11.38 13.75 16.01 17.78 18.67 20.84 21.87 23.64 24.67 27.05 29.16 30.2 32.45 33.47 37.12 39.3 41.66" y="0">Describes a single map </tspan></text></g></g><g style="clip-path:url(#g)"><g style="clip-path:url(#h)"><text style="font-size:4.56;font-family:Droid Sans" transform="matrix(1 0 0 -1 100.3 556.56)"><tspan x="0 2.48 4.73 7.1 9.48 11.41 13.66 14.64 15.73 18.14 20.53 21.5 23.02 25.44 26.43 28.8 31.06 32.04 33.63 36" y="0">Reduce job to be run</tspan></text></g></g><g style="clip-path:url(#i)"><g style="clip-path:url(#j)"><text style="font-size:4.56;font-family:Droid Sans" transform="matrix(1 0 0 -1 101.33 551.02)"><tspan x="0" y="0">-</tspan></text></g><g style="clip-path:url(#k)"><text style="font-size:4.56;font-family:Droid Sans" transform="matrix(1 0 0 -1 103.75 551.02)"><tspan x="0 1.92 2.96 4.73 6.24 7.18 9.55 11.81 14.19 16.44 18.82 21.19 23.45 25.83 27.76 28.78 31.04 32.82 33.79 35.58 37.08 39.5 41.09 43.34" y="0">List dependencies stored</tspan></text></g></g><g style="clip-path:url(#l)"><g style="clip-path:url(#m)"><text style="font-size:4.54;font-family:Droid Sans" transform="matrix(1 0 0 -1 100.3 545.5)"><tspan x="0 1.13 3.51 4.54 6.06 8.44 10.68 11.67 14.05 15.07 16.85 18.37 19.95 20.98 23.36 25.74 27.24 29.5 31.88 32.86 34.78 36.95 38.87 41.24" y="0">In the distributed cache</tspan></text></g></g><g style="clip-path:url(#n)"><g style="clip-path:url(#o)"><text style="font-size:4.56;font-family:Droid Sans" transform="matrix(1 0 0 -1 183.82 553.82)"><tspan x="0 2.43 4.84 7.22 8.61 9.66 11.81 14.18 15.77 17.95 19.48 20.53 22.96" y="0">Configuration</tspan></text></g><g style="clip-path:url(#p)"><text style="font-size:4.56;font-family:Droid Sans" transform="matrix(1 0 0 -1 209.11 553.82)"><tspan x="0" y="0">:</tspan></text></g><path d="m183.82 553.08h25.3v.31h-25.3z" style="fill-rule:evenodd"/></g><g style="clip-path:url(#q)"><g style="clip-path:url(#r)"><text style="font-size:4.56;font-family:Droid Sans" transform="matrix(1 0 0 -1 184.87 548.28)"><tspan x="0" y="0">-</tspan></text></g><g style="clip-path:url(#s)"><text style="font-size:4.56;font-family:Droid Sans" transform="matrix(1 0 0 -1 187.3 548.28)"><tspan x="0 2.83 5.1 6.88 8.82 10.42 11.46 13.84 16.11 17.89 18.78 20.31 22.7 24.98 26.02 27.96 29.01 31.4 33.17 34.7 36.98" y="0">Describes the cluster</tspan></text></g></g><g style="clip-path:url(#t)"><g style="clip-path:url(#u)"><text style="font-size:4.54;font-family:Droid Sans" transform="matrix(1 0 0 -1 184.87 542.76)"><tspan x="0" y="0">-</tspan></text></g><g style="clip-path:url(#v)"><text style="font-size:4.54;font-family:Droid Sans" transform="matrix(1 0 0 -1 187.3 542.76)"><tspan x="0 2.64 4.58 6.52 8.8 10.57 12.34 13.28 15.05 17.14 18.92 20.45 22.73 26.39 27.33 29.71 31.29 33.71 36.09 38.36 39.94 41.47 42.52 44.8" y="0">Access system properties</tspan></text></g></g><g style="clip-path:url(#w)"><g style="clip-path:url(#x)"><text style="font-size:4.56;font-family:Droid Sans" transform="matrix(1 0 0 -1 184.87 537.22)"><tspan x="0" y="0">-</tspan></text></g><g style="clip-path:url(#y)"><text style="font-size:4.56;font-family:Droid Sans" transform="matrix(1 0 0 -1 187.3 537.22)"><tspan x="0 2.09 4.02 6.42 8.69 11.06 13.44 14.49 15.55 17.92 20.07 21.11 22.16 24.55 25.94 28.34 29.94 33.61 35.79 37.32 38.38 40.8" y="0">Scheduling information</tspan></text></g></g><g style="clip-path:url(#z)"><g style="clip-path:url(#A)"><text style="font-size:4.56;font-family:Droid Sans" transform="matrix(1 0 0 -1 184.87 531.67)"><tspan x="0" y="0">-</tspan></text></g><g style="clip-path:url(#B)"><text style="font-size:4.56;font-family:Droid Sans" transform="matrix(1 0 0 -1 187.3 531.67)"><tspan x="0 3.02 5.41 6.94 9.31 11.69 13.21 14.21 16.15 18.57 22.23 24.61 26.2 28.47 30.26 32.04 33.09 35.5 37.88 38.76 39.81 42.21 43.6" y="0">Output compression info</tspan></text></g></g><g style="clip-path:url(#C)"><g style="clip-path:url(#D)"><text style="font-size:4.54;font-family:Droid Sans" transform="matrix(1 0 0 -1 93.22 509.76)"><tspan x="0 1.13 4.8 7.18 8.21 10.48 14.15 16.43 18.81 20.33 22.52 24.05 25.1 27.51 29.89" y="0">Implementations</tspan></text></g><g style="clip-path:url(#E)"><text style="font-size:4.54;font-family:Droid Sans" transform="matrix(1 0 0 -1 124.87 509.76)"><tspan x="0" y="0">:</tspan></text></g><path d="m93.22 509.02h31.66v.31h-31.66z" style="fill-rule:evenodd"/></g><g style="clip-path:url(#F)"><g style="clip-path:url(#G)"><text style="font-size:4.56;font-family:Droid Sans" transform="matrix(1 0 0 -1 94.25 504.22)"><tspan x="0" y="0">-</tspan></text></g><g style="clip-path:url(#H)"><text style="font-size:4.56;font-family:Droid Sans" transform="matrix(1 0 0 -1 96.67 504.22)"><tspan x="0 3.9 6.08 8.48 10.85 13.12 14.71 15.85 16.78 19.25 21.52 23.92 26.28 28.21 30.48 32.07 33.19 34.18 36.61 39.02 42.69 45.06 46.09 48.47 50.74" y="0">Mapper, Reducer, Combiner</tspan></text></g></g><g style="clip-path:url(#I)"><g style="clip-path:url(#J)"><text style="font-size:4.56;font-family:Droid Sans" transform="matrix(1 0 0 -1 94.25 498.7)"><tspan x="0" y="0">-</tspan></text></g><g style="clip-path:url(#K)"><text style="font-size:4.56;font-family:Droid Sans" transform="matrix(1 0 0 -1 96.67 498.7)"><tspan x="0 2.09 4.51 6.1 7.62 8.76 9.69 11.84 13.41 15.83 18.21 20.58 21.61 23.99" y="0">Sort, grouping</tspan></text></g></g><g style="clip-path:url(#L)"><g style="clip-path:url(#M)"><text style="font-size:4.54;font-family:Droid Sans" transform="matrix(1 0 0 -1 94.25 493.15)"><tspan x="0" y="0">-</tspan></text></g><g style="clip-path:url(#N)"><text style="font-size:4.54;font-family:Droid Sans" transform="matrix(1 0 0 -1 96.67 493.15)"><tspan x="0 2.37 4.55 6.13 7.67 8.71 10.23 11.28 13.69 16.07 18.34" y="0">Partitioner</tspan></text></g></g><g style="clip-path:url(#O)"><g style="clip-path:url(#P)"><text style="font-size:4.56;font-family:Droid Sans" transform="matrix(1 0 0 -1 94.25 487.61)"><tspan x="0" y="0">-</tspan></text></g><g style="clip-path:url(#Q)"><text style="font-size:4.56;font-family:Droid Sans" transform="matrix(1 0 0 -1 96.67 487.61)"><tspan x="0 1.13 3.5 5.88 8.25 9.78 11.87 14.3 15.89 19.55 21.73 23.26 24.4 25.33 28.35 30.74 33.11 35.48 37.01 39.1 41.52 43.11 46.78 48.96" y="0">InputFormat, OuputFormat</tspan></text></g></g><g style="clip-path:url(#R)"><g style="clip-path:url(#S)"><text style="font-size:4.54;font-family:Droid Sans" transform="matrix(1 0 0 -1 232.15 442.56)"><tspan x="0 1.13 3.51 5.89 8.26 9.79 11.85 14.27 15.85 19.5 21.67" y="0">InputFormat</tspan></text></g><g style="clip-path:url(#T)"><text style="font-size:4.54;font-family:Droid Sans" transform="matrix(1 0 0 -1 255.41 442.56)"><tspan x="0" y="0">:</tspan></text></g><path d="m232.15 441.82h23.26v.29h-23.26z" style="fill-rule:evenodd"/></g><g style="clip-path:url(#U)"><g style="clip-path:url(#V)"><text style="font-size:4.56;font-family:Droid Sans" transform="matrix(1 0 0 -1 233.18 437.02)"><tspan x="0" y="0">-</tspan></text></g><g style="clip-path:url(#W)"><text style="font-size:4.56;font-family:Droid Sans" transform="matrix(1 0 0 -1 235.61 437.02)"><tspan x="0 2.07 4.44 5.47 6.5 8.03 9.81 10.8 11.83 14.2 16.58 18.96 20.48 21.51 22.56 24.93 25.96 27.89 30.26 32.64 35.01 37.09" y="0">Splits input in chunks</tspan></text></g></g><g style="clip-path:url(#X)"><g style="clip-path:url(#Y)"><text style="font-size:4.56;font-family:Droid Sans" transform="matrix(1 0 0 -1 233.18 431.5)"><tspan x="0" y="0">-</tspan></text></g><g style="clip-path:url(#Z)"><text style="font-size:4.56;font-family:Droid Sans" transform="matrix(1 0 0 -1 235.61 431.5)"><tspan x="0 2.48 4.75 6.68 9.09 10.68 13.05 15.53 17.8 19.98 22.38 24.65" y="0">RecordReader</tspan></text></g></g><g style="clip-path:url(#aa)"><g style="clip-path:url(#ab)"><text style="font-size:4.54;font-family:Droid Sans" transform="matrix(1 0 0 -1 232.15 425.95)"><tspan x="0 1.13 4.77 7.15 8.18 10.46 14.1 16.37 18.76 20.28 22.47 24 25.04 27.45" y="0">Implementation</tspan></text></g></g><g style="clip-path:url(#ac)"><g style="clip-path:url(#ad)"><text style="font-size:4.54;font-family:Droid Sans" transform="matrix(1 0 0 -1 188.28 596.62)"><tspan x="0 2.8 3.85 5.62 7.14 8.72 9.77 12.15 14.53 16.05 18.33 20.71 23.12 25.3 27.22 29.6" y="0">DistributedCache</tspan></text></g><g style="clip-path:url(#ae)"><text style="font-size:4.54;font-family:Droid Sans" transform="matrix(1 0 0 -1 220.2 596.62)"><tspan x="0" y="0">:</tspan></text></g><path d="m188.28 595.87h31.92v.29h-31.92z" style="fill-rule:evenodd"/></g><g style="clip-path:url(#af)"><g style="clip-path:url(#ag)"><text style="font-size:4.54;font-family:Droid Sans" transform="matrix(1 0 0 -1 188.28 591.07)"><tspan x="0 2.06 4.24 6.16 7.2 8.24 9.26 10.8 12.85 13.84 15.38 17.79 18.78 20.55 22.61 26.26 27.31 28.33 30.71 32.77 33.7 36.51 39.31 41.38 43.44 44.43 45.81 46.85 47.88 50.16 51.93 52.92 53.96 56.32 57.86 60.27 61.26 62.79 65.17" y="0">Facility to symlink HDFS files into the</tspan></text></g></g><g style="clip-path:url(#ah)"><g style="clip-path:url(#ai)"><text style="font-size:4.56;font-family:Droid Sans" transform="matrix(1 0 0 -1 188.28 585.53)"><tspan x="0 2.22 4.4 6.19 8.26 9.24 12.5 14.92 16.51 18.57 19.6 21.97 24.09 25.02 27.4 28.43 30.02 32.29 34.22 35.75 38.17 39.76" y="0">Task working directory</tspan></text></g></g><g style="clip-path:url(#aj)"><g style="clip-path:url(#ak)"><text style="font-size:4.56;font-family:Droid Sans" transform="matrix(1 0 0 -1 259.78 496.92)"><tspan x="0 3.9 6.08 8.48 10.85 13.12" y="0">Mapper</tspan></text></g><g style="clip-path:url(#al)"><text style="font-size:4.56;font-family:Droid Sans" transform="matrix(1 0 0 -1 274.46 496.92)"><tspan x="0" y="0">/</tspan></text></g><g style="clip-path:url(#am)"><text style="font-size:4.56;font-family:Droid Sans" transform="matrix(1 0 0 -1 276.26 496.92)"><tspan x="0 2.48 4.75 7.14 9.5 11.43 13.7" y="0">Reducer</tspan></text></g><g style="clip-path:url(#an)"><text style="font-size:4.56;font-family:Droid Sans" transform="matrix(1 0 0 -1 291.55 496.92)"><tspan x="0" y="0">:</tspan></text></g><g style="fill-rule:evenodd"><path d="m259.78 496.2h14.69v.29h-14.69z"/><path d="m276.26 496.2h15.29v.29h-15.29z"/></g></g><g style="clip-path:url(#ao)"><g style="clip-path:url(#ap)"><text style="font-size:4.54;font-family:Droid Sans" transform="matrix(1 0 0 -1 260.81 491.4)"><tspan x="0" y="0">-</tspan></text></g><g style="clip-path:url(#aq)"><text style="font-size:4.54;font-family:Droid Sans" transform="matrix(1 0 0 -1 263.23 491.4)"><tspan x="0 2.23 4.19 6.47 8.39 10.77 12.29 14.58 15.51 17.29 19.56 21.1 23.48 25.86 27.23" y="0">Execute setup()</tspan></text></g></g><g style="clip-path:url(#ar)"><g style="clip-path:url(#as)"><text style="font-size:4.56;font-family:Droid Sans" transform="matrix(1 0 0 -1 260.81 485.86)"><tspan x="0" y="0">-</tspan></text></g><g style="clip-path:url(#at)"><text style="font-size:4.56;font-family:Droid Sans" transform="matrix(1 0 0 -1 263.23 485.86)"><tspan x="0 2.37 3.96 6.37 8.29 10.57 12.36 14.13 15.02 16.4 18.49 20.76 22.85 23.99 26.06 28.25 29.28 31.66 33.93 35.71" y="0">Process (key,values)</tspan></text></g></g><g style="clip-path:url(#au)"><g style="clip-path:url(#av)"><text style="font-size:4.56;font-family:Droid Sans" transform="matrix(1 0 0 -1 260.81 480.31)"><tspan x="0" y="0">-</tspan></text></g><g style="clip-path:url(#aw)"><text style="font-size:4.56;font-family:Droid Sans" transform="matrix(1 0 0 -1 263.23 480.31)"><tspan x="0 2.23 4.2 6.47 8.4 10.78 12.3 14.59 15.52 17.45 18.47 20.74 22.93 25.32 26.7" y="0">Execute clean()</tspan></text></g></g><g style="clip-path:url(#ax)"><g style="clip-path:url(#ay)"><text style="font-size:4.54;font-family:Droid Sans" transform="matrix(1 0 0 -1 326.57 548.88)"><tspan x="0 2.42 4.84 7.23 9.61 11.13 13.41 14.99" y="0">Counters</tspan></text></g><g style="clip-path:url(#az)"><text style="font-size:4.54;font-family:Droid Sans" transform="matrix(1 0 0 -1 343.34 548.88)"><tspan x="0" y="0">:</tspan></text></g><path d="m326.57 548.14h16.78v.29h-16.78z" style="fill-rule:evenodd"/></g><g style="clip-path:url(#aA)"><g style="clip-path:url(#aB)"><text style="font-size:4.56;font-family:Droid Sans" transform="matrix(1 0 0 -1 326.57 543.34)"><tspan x="0 2.37 3.96 6.37 8.46 9.51 11.91 14.18 15.11 17.3 19.44 21.57 23.16 25.43 27.58 29.76 31.29 33.56 35.96 36.95 38.75 40.28 42.46 44" y="0">Provide aggregated stats</tspan></text></g></g><g style="clip-path:url(#aC)"><g style="clip-path:url(#aD)"><text style="font-size:4.56;font-family:Droid Sans" transform="matrix(1 0 0 -1 326.57 537.82)"><tspan x="0 2.48 4.75 6.28 9.54 11.83 14.1 16.49 17.42 19.79 22.22 24.59 26.86" y="0">Between nodes</tspan></text></g></g><g style="clip-path:url(#aE)"><g style="clip-path:url(#aF)"><text style="font-size:4.56;font-family:Droid Sans" transform="matrix(1 0 0 -1 178.13 496.92)"><tspan x="0 2.43 4.84 7.22 8.75 11.03 13.02" y="0">Context</tspan></text></g><g style="clip-path:url(#aG)"><text style="font-size:4.56;font-family:Droid Sans" transform="matrix(1 0 0 -1 192.67 496.92)"><tspan x="0" y="0">:</tspan></text></g><path d="m178.13 496.2h14.54v.29h-14.54z" style="fill-rule:evenodd"/></g><g style="clip-path:url(#aH)"><g style="clip-path:url(#aI)"><text style="font-size:4.54;font-family:Droid Sans" transform="matrix(1 0 0 -1 179.16 491.4)"><tspan x="0" y="0">-</tspan></text></g><g style="clip-path:url(#aJ)"><text style="font-size:4.54;font-family:Droid Sans" transform="matrix(1 0 0 -1 181.61 491.4)"><tspan x="0 2.63 3.65 4.69 7.1 10.36 12.13 13.07 14.66 16.93 19.31 21.73 23.31 24.84 25.89 28.25 30.39 31.37 33.75 35.34 37.75 39.89 41.47 43.75 45.52" y="0">Allows reporting progress</tspan></text></g></g><g style="clip-path:url(#aN)"><g style="clip-path:url(#aO)"><text style="font-size:4.56;font-family:Droid Sans" transform="matrix(1 0 0 -1 178.13 480.31)"><tspan x="0 1.78 3.31 5.49 7.64" y="0">stage</tspan></text></g></g><g style="clip-path:url(#aP)"><g style="clip-path:url(#aQ)"><text style="font-size:4.56;font-family:Droid Sans;font-weight:bold" transform="matrix(1 0 0 -1 193.73 434.35)"><tspan x="0 2.41 3.55 4.67 6.93 9.36 10.94 12.9 15.33 16.45 18.88 20.7 22.28 24.55" y="0">Client/Cluster</tspan></text></g></g><g style="clip-path:url(#aR)"><g style="clip-path:url(#aS)"><text style="font-size:4.54;font-family:Droid Sans;font-weight:bold" transform="matrix(1 0 0 -1 193.73 428.81)"><tspan x="0 1.42 3.04 5.47 7.9 9.48 10.59 12.86" y="0">frontier</tspan></text></g></g><g style="clip-path:url(#aT)"><g style="clip-path:url(#aU)"><text style="font-size:4.54;font-family:Droid Sans" transform="matrix(1 0 0 -1 292.7 442.06)"><tspan x="0 3.02 5.4 6.92 9.3 11.68 13.22 15.3 17.73 19.31 22.98 25.15" y="0">OutputFormat</tspan></text></g><g style="clip-path:url(#aV)"><text style="font-size:4.54;font-family:Droid Sans" transform="matrix(1 0 0 -1 319.37 442.06)"><tspan x="0" y="0">:</tspan></text></g><path d="m292.7 441.31h26.66v.29h-26.66z" style="fill-rule:evenodd"/></g><g style="clip-path:url(#aW)"><g style="clip-path:url(#aX)"><text style="font-size:4.56;font-family:Droid Sans" transform="matrix(1 0 0 -1 293.74 436.51)"><tspan x="0" y="0">-</tspan></text></g><g style="clip-path:url(#aY)"><text style="font-size:4.56;font-family:Droid Sans" transform="matrix(1 0 0 -1 296.16 436.51)"><tspan x="0 2.48 4.75 6.68 9.09 10.68 13.05 17.11 18.7 19.72 21.25 23.53" y="0">RecordWriter</tspan></text></g></g><g style="clip-path:url(#aZ)"><g style="clip-path:url(#a0)"><text style="font-size:4.56;font-family:Droid Sans" transform="matrix(1 0 0 -1 292.7 430.97)"><tspan x="0 1.13 4.79 7.17 8.2 10.47 14.15 16.42 18.81 20.34 22.52 24.05 25.1 27.5" y="0">Implementation</tspan></text></g></g><path d="m289.49 449.06h46.75v-26.95h-46.75z" style="fill:none;stroke:#177d36;stroke-width:.58;stroke-linecap:round;stroke-linejoin:round;stroke-miterlimit:10"/><path d="m331.8 511.25h59.59v-47.98h-59.59z" style="fill:none;stroke:#36f;stroke-width:.58;stroke-linecap:round;stroke-linejoin:round;stroke-miterlimit:10"/><g style="clip-path:url(#a1)"><g style="clip-path:url(#a2)"><text style="font-size:4.56;font-family:Droid Sans" transform="matrix(1 0 0 -1 334.01 504.36)"><tspan x="0 3 5.38 6.89 9.27 11.64 13.16 15.59 18 21.64 25.29 26.33 27.84 30.1" y="0">OutputCommiter</tspan></text></g><g style="clip-path:url(#a3)"><text style="font-size:4.56;font-family:Droid Sans" transform="matrix(1 0 0 -1 365.81 504.36)"><tspan x="0" y="0">:</tspan></text></g><path d="m334.01 503.62h31.8v.29h-31.8z" style="fill-rule:evenodd"/></g><g style="clip-path:url(#a4)"><g style="clip-path:url(#a5)"><text style="font-size:4.54;font-family:Droid Sans" transform="matrix(1 0 0 -1 335.04 498.82)"><tspan x="0" y="0">-</tspan></text></g><g style="clip-path:url(#a6)"><text style="font-size:4.54;font-family:Droid Sans" transform="matrix(1 0 0 -1 337.46 498.82)"><tspan x="0 2.37 3.96 6.21 8.6 10.75 12.33 14.59 16.37 17.3 19.72 22.1 23.62 25.98 28.36 29.88 30.85 32.22 33.27 34.29 36.55 37.53 39.94 42.33 43.31 44.82 46.98 48.75" y="0">Prepares output file on task</tspan></text></g></g><g style="clip-path:url(#a7)"><g style="clip-path:url(#a8)"><text style="font-size:4.56;font-family:Droid Sans" transform="matrix(1 0 0 -1 334.01 493.27)"><tspan x="0 2.07 3.58 5.74 7.33" y="0">Start</tspan></text></g><g style="clip-path:url(#a9)"><text style="font-size:4.56;font-family:Droid Sans" transform="matrix(1 0 0 -1 342.91 493.27)"><tspan x="0" y="0">-</tspan></text></g><g style="clip-path:url(#ba)"><text style="font-size:4.56;font-family:Droid Sans" transform="matrix(1 0 0 -1 344.28 493.27)"><tspan x="0 2.38" y="0">up</tspan></text></g></g><g style="clip-path:url(#bb)"><g style="clip-path:url(#bc)"><text style="font-size:4.56;font-family:Droid Sans" transform="matrix(1 0 0 -1 335.04 487.75)"><tspan x="0" y="0">-</tspan></text></g><g style="clip-path:url(#bd)"><text style="font-size:4.56;font-family:Droid Sans" transform="matrix(1 0 0 -1 337.46 487.75)"><tspan x="0 2.81 4.97 7.35 9.72 10.75 13.01 14.79 15.77 17.7 18.72 20.98 23.14" y="0">Handles clean</tspan></text></g><g style="clip-path:url(#be)"><text style="font-size:4.56;font-family:Droid Sans" transform="matrix(1 0 0 -1 363.1 487.75)"><tspan x="0" y="0">-</tspan></text></g><g style="clip-path:url(#bf)"><text style="font-size:4.56;font-family:Droid Sans" transform="matrix(1 0 0 -1 364.49 487.75)"><tspan x="0 2.38 4.75 5.78 8.2 10.58 11.56 13.08 15.24 17.02" y="0">up on task</tspan></text></g></g><g style="clip-path:url(#bg)"><g style="clip-path:url(#bh)"><text style="font-size:4.54;font-family:Droid Sans" transform="matrix(1 0 0 -1 334.01 482.21)"><tspan x="0 2.06 4.24 5.26 6.3 8.66 10.25" y="0">Failure</tspan></text></g></g><g style="clip-path:url(#bi)"><g style="clip-path:url(#bj)"><text style="font-size:4.56;font-family:Droid Sans" transform="matrix(1 0 0 -1 335.04 476.66)"><tspan x="0" y="0">-</tspan></text></g><g style="clip-path:url(#bk)"><text style="font-size:4.56;font-family:Droid Sans" transform="matrix(1 0 0 -1 337.46 476.66)"><tspan x="0 2.43 4.84 8.49 12.13 13.18 14.68 16.47 17.3 19.72 22.1 23.61 25.99 28.36 29.88 30.86 33.28 35.66 36.69 38.2 40.37 42.15" y="0">Commits output on task</tspan></text></g></g><g style="clip-path:url(#bl)"><g style="clip-path:url(#bm)"><text style="font-size:4.56;font-family:Droid Sans" transform="matrix(1 0 0 -1 334.01 471.14)"><tspan x="0 2.07 4.44 6.37 8.28 10.54 12.32 14.09 15.46 17.83 18.86 19.85 21.22 22.25 24.62 25.65 27.44" y="0">Successful finish</tspan></text></g></g><g style="clip-path:url(#bn)"><g style="clip-path:url(#bo)"><text style="font-size:4.54;font-family:Droid Sans" transform="matrix(1 0 0 -1 254.83 547.9)"><tspan x="0 2.06 3.11 4.13 6.4 8.18 10.23 12.02 13.55 15.83" y="0">Filesystem</tspan></text></g><g style="clip-path:url(#bp)"><text style="font-size:4.54;font-family:Droid Sans" transform="matrix(1 0 0 -1 274.37 547.9)"><tspan x="0" y="0">:</tspan></text></g><path d="m254.83 547.15h19.54v.29h-19.54z" style="fill-rule:evenodd"/></g><g style="clip-path:url(#bq)"><g style="clip-path:url(#br)"><text style="font-size:4.54;font-family:Droid Sans" transform="matrix(1 0 0 -1 255.86 542.35)"><tspan x="0" y="0">-</tspan></text></g><g style="clip-path:url(#bs)"><text style="font-size:4.54;font-family:Droid Sans" transform="matrix(1 0 0 -1 258.29 542.35)"><tspan x="0 2.63 4.99 6.77 8.3 9.88 12.06 13.98 15.52 16.57 18.97 21.36 22.29 23.67 26.1 27.68 28.66 29.71 32.11 34.03 36.21 37.25 38.23 40.65" y="0">Abstraction for local or</tspan></text></g></g><g style="clip-path:url(#bt)"><g style="clip-path:url(#bu)"><text style="font-size:4.56;font-family:Droid Sans" transform="matrix(1 0 0 -1 254.83 536.81)"><tspan x="0 2.8 3.85 5.62 7.15 8.74 9.77 12.15 14.52 16.05 18.34 20.71 21.65 23.04 24.07 25.1 27.37 29.16 31.22 33.01 34.53 36.8" y="0">Distributed filesystem</tspan></text></g></g><g style="clip-path:url(#bv)"><g style="clip-path:url(#bw)"><text style="font-size:4.54;font-family:Droid Sans" transform="matrix(1 0 0 -1 255.86 531.29)"><tspan x="0" y="0">-</tspan></text></g><g style="clip-path:url(#bx)"><text style="font-size:4.54;font-family:Droid Sans" transform="matrix(1 0 0 -1 258.29 531.29)"><tspan x="0 2.06 3.6 5.77 7.31 8.36 10.27 11.2 14.84 17.12 18.65 21.03 23.45 25.83 26.76 28.29 30.71 31.69 33.81 36.08 37.62 38.6 39.64" y="0">Static method to get it</tspan></text></g></g><g style="clip-path:url(#by)"><g style="clip-path:url(#bz)"><text style="font-size:4.54;font-family:Droid Sans" transform="matrix(1 0 0 -1 254.83 525.74)"><tspan x="0 2.47 4.65 6.42 8.7 11.08 12.06 14.48 16.86 17.84 19.76 22.18 24.56 25.95 26.99 29.09 31.48 33.06 35.23 36.77 37.81 40.22" y="0">Based on configuration</tspan></text></g></g><g style="fill:none;stroke-width:.58;stroke-linecap:round;stroke-linejoin:round;stroke-miterlimit:10"><path d="m251.62 554.66h58.75v-33.88h-58.75z" style="stroke:#177d36"/><g style="stroke:#00f"><path d="m125.98 526.78-8.19-10.59"/><path d="m121.8 518.11-4.01-1.92.87 4.37"/><path d="m154.42 550.8 25.72-12.12"/><path d="m177.38 542.21 2.76-3.53-4.46-.1"/><path d="m175.34 485.4-24.79 12.96"/><path d="m153.17 494.76-2.62 3.6 4.47-.07"/><path d="m217.49 502.82-1.23 13.85"/><path d="m214.63 512.52 1.61 4.15 2.38-3.79"/><path d="m236.45 542.16 15.19-3.65"/><path d="m248.18 541.37 3.44-2.86-4.35-1.01"/><path d="m238.78 467.71-.24-18.57"/><path d="m240.58 453.1-2.07-3.96-1.92 4"/><path d="m242.38 467.71 47.11-20.81"/><path d="m286.66 450.34 2.83-3.44-4.44-.19"/><path d="m256.75 489.48-15 .72"/><path d="m245.62 488.02-3.87 2.18 4.08 1.8"/><path d="m331.06 449.14 9.14 14.13"/><path d="m336.36 461.02 3.84 2.25-.48-4.44"/><path d="m242.23 503.06 81.07 30.94"/><path d="m318.86 534.43 4.44-.43-3-3.29"/><path d="m154.42 563.42 20.49 21.1"/><path d="m170.71 583.06 4.2 1.46-1.34-4.25"/><path d="m239.74 503.06 3.5 77.79"/><path d="m241.06 576.94 2.18 3.91 1.82-4.08"/></g></g><g style="clip-path:url(#aK)"><g style="clip-path:url(#aL)"><text style="font-size:4.56;font-family:Droid Sans" transform="matrix(1 0 0 -1 179.16 485.86)"><tspan x="0" y="0">-</tspan></text></g><g style="clip-path:url(#aM)"><text style="font-size:4.56;font-family:Droid Sans" transform="matrix(1 0 0 -1 181.61 485.86)"><tspan x="0 2.83 3.86 5.25 6.64 8.91 10.5 12.77 15.17 16.69 17.63 20.01 22.28 24.67 26.95 29.32 31.7 32.73 35.1 37.25 38.28 40.68 43.08 44.05 46.43 47.46 49.84 52.11 53.16 54.18 56.56" y="0">Different depending on pipeline</tspan></text></g></g></g></svg>