<svg height="472.18" viewBox="0 0 1280 472.18" width="1280" xml:space="preserve" xmlns="http://www.w3.org/2000/svg" xmlns:xlink="http://www.w3.org/1999/xlink"><clipPath id="a"><path d="m32.83 624.72h138.5v6.89h-138.5z" style="clip-rule:evenodd"/></clipPath><clipPath id="b"><path d="m32.83 624.77h138.5v6.84h-138.5z" style="clip-rule:evenodd"/></clipPath><clipPath id="c"><path d="m32.83 624.77h138.5v6.84h-138.5z" style="clip-rule:evenodd"/></clipPath><clipPath id="d"><path d="m32.83 624.77h138.5v6.84h-138.5z" style="clip-rule:evenodd"/></clipPath><clipPath id="e"><path d="m46.58 604.22h228.1v6.89h-228.1z" style="clip-rule:evenodd"/></clipPath><clipPath id="f"><path d="m46.58 604.3h228.1v6.82h-228.1z" style="clip-rule:evenodd"/></clipPath><clipPath id="g"><path d="m32.83 611.06h241.85v6.89h-241.85z" style="clip-rule:evenodd"/></clipPath><clipPath id="h"><path d="m32.83 611.11h241.85v6.84h-241.85z" style="clip-rule:evenodd"/></clipPath><clipPath id="i"><path d="m32.83 597.38h179.78v6.91h-179.78z" style="clip-rule:evenodd"/></clipPath><clipPath id="j"><path d="m32.83 597.46h179.78v6.84h-179.78z" style="clip-rule:evenodd"/></clipPath><clipPath id="k"><path d="m32.83 597.46h179.78v6.84h-179.78z" style="clip-rule:evenodd"/></clipPath><clipPath id="l"><path d="m32.83 597.46h179.78v6.84h-179.78z" style="clip-rule:evenodd"/></clipPath><clipPath id="m"><path d="m32.83 590.57h245.21v6.89h-245.21z" style="clip-rule:evenodd"/></clipPath><clipPath id="n"><path d="m32.83 590.62h245.21v6.84h-245.21z" style="clip-rule:evenodd"/></clipPath><clipPath id="o"><path d="m32.83 590.62h245.21v6.84h-245.21z" style="clip-rule:evenodd"/></clipPath><clipPath id="p"><path d="m32.83 590.62h245.21v6.84h-245.21z" style="clip-rule:evenodd"/></clipPath><clipPath id="q"><path d="m32.83 590.62h245.21v6.84h-245.21z" style="clip-rule:evenodd"/></clipPath><clipPath id="r"><path d="m32.83 590.62h245.21v6.84h-245.21z" style="clip-rule:evenodd"/></clipPath><clipPath id="s"><path d="m32.83 590.62h245.21v6.84h-245.21z" style="clip-rule:evenodd"/></clipPath><clipPath id="t"><path d="m32.83 590.62h245.21v6.84h-245.21z" style="clip-rule:evenodd"/></clipPath><clipPath id="u"><path d="m124.39 566.16h45.98v6.91h-45.98z" style="clip-rule:evenodd"/></clipPath><clipPath id="v"><path d="m124.39 566.23h45.98v6.84h-45.98z" style="clip-rule:evenodd"/></clipPath><clipPath id="w"><path d="m96.94 524.98h45.96v6.89h-45.96z" style="clip-rule:evenodd"/></clipPath><clipPath id="x"><path d="m96.94 525.02h45.96v6.84h-45.96z" style="clip-rule:evenodd"/></clipPath><clipPath id="y"><path d="m106.08 511.22h71.26v6.91h-71.26z" style="clip-rule:evenodd"/></clipPath><clipPath id="z"><path d="m106.08 511.3h71.23v6.84h-71.23z" style="clip-rule:evenodd"/></clipPath><clipPath id="A"><path d="m106.08 504.41h97.32v6.89h-97.32z" style="clip-rule:evenodd"/></clipPath><clipPath id="B"><path d="m106.08 504.46h97.32v6.84h-97.32z" style="clip-rule:evenodd"/></clipPath><clipPath id="C"><path d="m106.08 483.77h29.3v6.89h-29.3z" style="clip-rule:evenodd"/></clipPath><clipPath id="D"><path d="m106.08 483.84h29.3v6.82h-29.3z" style="clip-rule:evenodd"/></clipPath><clipPath id="E"><path d="m106.08 476.93h68.26v6.91h-68.26z" style="clip-rule:evenodd"/></clipPath><clipPath id="F"><path d="m106.08 477h68.26v6.84h-68.26z" style="clip-rule:evenodd"/></clipPath><clipPath id="G"><path d="m142.7 547.85h49.63v6.91h-49.63z" style="clip-rule:evenodd"/></clipPath><clipPath id="H"><path d="m142.7 547.92h49.63v6.84h-49.63z" style="clip-rule:evenodd"/></clipPath><clipPath id="I"><path d="m37.42 442.56h83.76v6.91h-83.76z" style="clip-rule:evenodd"/></clipPath><clipPath id="J"><path d="m37.42 442.63h83.76v6.84h-83.76z" style="clip-rule:evenodd"/></clipPath><clipPath id="K"><path d="m46.58 419.69h59.26v6.89h-59.26z" style="clip-rule:evenodd"/></clipPath><clipPath id="L"><path d="m46.58 419.74h59.26v6.84h-59.26z" style="clip-rule:evenodd"/></clipPath><clipPath id="M"><path d="m46.58 412.85h51.22v6.91h-51.22z" style="clip-rule:evenodd"/></clipPath><clipPath id="N"><path d="m46.58 412.92h51.22v6.84h-51.22z" style="clip-rule:evenodd"/></clipPath><clipPath id="O"><path d="m115.25 419.69h65.42v6.89h-65.42z" style="clip-rule:evenodd"/></clipPath><clipPath id="P"><path d="m115.25 419.74h65.42v6.84h-65.42z" style="clip-rule:evenodd"/></clipPath><clipPath id="Q"><path d="m115.25 419.74h65.42v6.84h-65.42z" style="clip-rule:evenodd"/></clipPath><clipPath id="R"><path d="m115.25 419.74h65.42v6.84h-65.42z" style="clip-rule:evenodd"/></clipPath><clipPath id="S"><path d="m115.25 412.85h97.1v6.91h-97.1z" style="clip-rule:evenodd"/></clipPath><clipPath id="T"><path d="m115.25 412.92h97.1v6.84h-97.1z" style="clip-rule:evenodd"/></clipPath><clipPath id="U"><path d="m115.25 406.03h70.44v6.89h-70.44z" style="clip-rule:evenodd"/></clipPath><clipPath id="V"><path d="m115.25 406.08h70.44v6.84h-70.44z" style="clip-rule:evenodd"/></clipPath><clipPath id="W"><path d="m220.54 438h68.3v6.89h-68.3z" style="clip-rule:evenodd"/></clipPath><clipPath id="X"><path d="m220.54 438.05h68.3v6.84h-68.3z" style="clip-rule:evenodd"/></clipPath><clipPath id="Y"><path d="m206.81 465.46h79.54v6.89h-79.54z" style="clip-rule:evenodd"/></clipPath><clipPath id="Z"><path d="m206.81 465.53h79.54v6.82h-79.54z" style="clip-rule:evenodd"/></clipPath><g transform="matrix(2.44 0 0 -2.44 -89.61 1700.27)"><g style="clip-path:url(#a)"><g style="clip-path:url(#b)"><text style="font-weight:bold;font-size:5.62;font-family:Droid Sans" transform="matrix(1 0 0 -1 36.62 626.3)"><tspan x="0 2.99 4.37 7.12 9.36 11.63 12.78 15.15 18.15 20.89 23.9 25.28 28.28 30.96 32.19 34.92 37.94 40.92 42.25 45.06 47.64 49.59 52.38 55.4 57.64 59.02 62.04 65.03 66.3 70.88 73.69 76.06 79.07 81.79 84.81 86.19 88.43 93.02 94.17 95.94 98.95 100.34 103.33" y="0">Class Loading and extension mechanism (plug</tspan></text></g><g style="clip-path:url(#c)"><text style="font-weight:bold;font-size:5.62;font-family:Droid Sans" transform="matrix(1 0 0 -1 142.7 626.3)"><tspan x="0" y="0">-</tspan></text></g><g style="clip-path:url(#d)"><text style="font-weight:bold;font-size:5.62;font-family:Droid Sans" transform="matrix(1 0 0 -1 144.43 626.3)"><tspan x="0 1.38 4.4 6.64" y="0">ins)</tspan></text></g></g><g style="clip-path:url(#e)"><g style="clip-path:url(#f)"><text style="font-size:5.62;font-family:Droid Sans" transform="matrix(1 0 0 -1 50.35 605.81)"><tspan x="0 3.48 4.77 6.73 9.54 11.93 13.82 16.83 18.79 20.08 22.89 25.09 26.2 27.93 29.27 31.96 34.52 37.21 40.01 42.96 45.94 50.47 53.27 55.41 56.7 58 60.94 63.14 65.93 68.34 70.22 71.34 74.03 76.96 79.88 81.17 84.1 86.3 89.11 91.07 92.3 95.22 98.02 99.76 101.05 104 106.79 109.72 111.44 112.85 114.08 115.8 117.1 120.03 122.72 124.01 125.3 127.87 129.09 130.38 132.27 133.57 134.86 137.86 140.85 143.4 145.62 146.79 149.48 151.36 152.6 155.52 156.82 158.78 160.99 162.28 164.97 167.9 170.82 172.11 173.46 176.15 178.11 180.32 181.54 182.83 185.78 187.05 188.96 191.88 194.68 195.91 198.31 199.6 202.29 204.48 206.7 209.63 212.32 214.2" y="0">Directories (java_home/lib/ext and user defined), finally it looks at dirs and jars in the classpath</tspan></text></g></g><g style="clip-path:url(#g)"><g style="clip-path:url(#h)"><text style="font-size:5.62;font-family:Droid Sans" transform="matrix(1 0 0 -1 36.62 612.65)"><tspan x="0 5.01 7.94 10.73 13.68 14.89 16.16 19.16 22.15 24.7 26 28.92 31.53 32.76 34.47 37.46 39.42 40.63 43.32 44.54 46.92 48.19 50.88 53.08 55.29 56.51 58.4 61.34 64.14 65.41 67.79 69.08 71.77 73.96 76.16 77.39 78.66 81.66 84.35 87.27 90.07 92.03 93.18 94.44 97.44 100.43 102.99 105.2 106.35 107.62 110.55 111.81 114.75 117.74 120.73 122.61 124.83 126.71 128.67 131.36 134.29 135.44 136.78 139.47 141.43 143.63 144.9 146.78 149.73 152.52 155.47 156.68 158.56 161.51 164.31 165.54 168.79 171.15 173.52 174.75 176.63 179.58 182.37 183.6 184.95 187.64 189.6 191.79 193.06 194.33 197.26 198.53 200.42 203.34 206.14 207.38 210.17 212.63 214.51 217.33 220.25 222.45 223.74 226.73" y="0">When looking for a class the class loader looks in bootstrap jars then the ALL the jars in the extension</tspan></text></g></g><g style="clip-path:url(#i)"><g style="clip-path:url(#j)"><text style="font-size:5.62;font-family:Droid Sans" transform="matrix(1 0 0 -1 36.62 598.99)"><tspan x="0 2.58 5.48 6.9" y="0">SPI </tspan></text></g><g style="clip-path:url(#k)"><text style="font-size:5.62;font-family:Droid Sans" transform="matrix(1 0 0 -1 44.74 598.99)"><tspan x="0" y="0">-</tspan></text></g><g style="clip-path:url(#l)"><text style="font-size:5.62;font-family:Droid Sans" transform="matrix(1 0 0 -1 47.74 598.99)"><tspan x="0 2.2 5.01 6.97 9.51 10.8 13.18 15.97 17.13 20.05 22.01 24.99 27.55 28.82 31.75 34.54 36.5 37.65 38.92 41.84 43.73 46.55 48.51 50.2 52.89 55.26 58.06 59.6 60.75 64 66.9 68.32 69.59 72.51 74.7 77.52 80.44 81.67 83.55 86.56 87.78 90.71 93.51 95.22 96.49 99.42 102.22 103.45 106.25 108.7 110.58 113.4 116.33 118.53 119.82 122.74 124.01 126.8 127.97 130.16 132.98 134.94 137.47 138.77 141.14 143.94" y="0">service provider interface: API used to define extensible services</tspan></text></g></g><g style="clip-path:url(#m)"><g style="clip-path:url(#n)"><text style="font-size:5.62;font-family:Droid Sans" transform="matrix(1 0 0 -1 36.62 592.15)"><tspan x="0 2.92 4.19 7.12" y="0">Plug</tspan></text></g><g style="clip-path:url(#o)"><text style="font-size:5.62;font-family:Droid Sans" transform="matrix(1 0 0 -1 46.39 592.15)"><tspan x="0" y="0">-</tspan></text></g><g style="clip-path:url(#p)"><text style="font-size:5.62;font-family:Droid Sans" transform="matrix(1 0 0 -1 48.1 592.15)"><tspan x="0 1.27 4.2" y="0">in </tspan></text></g><g style="clip-path:url(#q)"><text style="font-size:5.62;font-family:Droid Sans" transform="matrix(1 0 0 -1 53.59 592.15)"><tspan x="0" y="0">-</tspan></text></g><g style="clip-path:url(#r)"><text style="font-size:5.62;font-family:Droid Sans" transform="matrix(1 0 0 -1 56.52 592.15)"><tspan x="0 4.5 7.3 9.68 12.62 15.31 18.23 19.5 21.69 26.22 27.37 29.25 32.26 33.48 36.28 38.73 40.61 43.43 46.36 49.29 50.51 53.2 56.13 57.35 60.04 62.97 65.89 67.16 68.87 71.79 74.72 77.1 78.98 80.27 83.26 86.18 88.87 90.14 91.41 93.29 95.87" y="0">mechanism to extend an app functionality </tspan></text></g><g style="clip-path:url(#s)"><text style="font-size:5.62;font-family:Droid Sans" transform="matrix(1 0 0 -1 153.7 592.15)"><tspan x="0 4.02 5.31 7.19 10.14 13.12 16.05" y="0">without</tspan></text></g><g style="clip-path:url(#t)"><text style="font-size:5.62;font-family:Droid Sans" transform="matrix(1 0 0 -1 172.8 592.15)"><tspan x="0 1.96 4.76 7.13 10.12 14.62 17.55 18.82 20.09 22.78 24.66 25.95 28.94 31.87 32.97 34.31 37.25 39.44 41.34 42.57 45.5 48.06 49.33 50.6 53.59 56.28 59.21 60.48 63.4 66.02 67.25 69.62 72.55 74.74 76.65 79.64 84.14 85.3 87.67 88.95 91.64 93.83 96.04 98.84" y="0">recompilation just by loading custom classes</tspan></text></g><path d="m153.7 591.17h17.95v.38h-17.95z" style="fill-rule:evenodd"/></g><path d="m391.77 695.59h45.79v-18h-45.79z" style="fill:none;stroke:#548dd4;stroke-width:.72;stroke-linecap:round;stroke-linejoin:round;stroke-miterlimit:10"/><g style="clip-path:url(#u)" transform="translate(272.8 117.6)"><g style="clip-path:url(#v)"><text style="font-size:5.62;font-family:Droid Sans" transform="matrix(1 0 0 -1 128.18 567.74)"><tspan x="0 2.99 4.29 5.58 8.4 11.32 13.2 14.44 17.7 20.61" y="0">Client App</tspan></text></g></g><path d="m368.58 651.96h105.77v-67.13h-105.77z" style="fill:none;stroke:#548dd4;stroke-width:.72;stroke-linecap:round;stroke-linejoin:round;stroke-miterlimit:10"/><g style="clip-path:url(#w)" transform="translate(272.8 117.6)"><g style="clip-path:url(#x)"><text style="font-size:5.62;font-family:Droid Sans" transform="matrix(1 0 0 -1 100.73 526.56)"><tspan x="0 2.54 5.34 7.3 9.84 11.11 13.49 16.29 17.45 18.79 21.46" y="0">Service jar</tspan></text></g></g><path d="m372.86 640.97h87.57v-23.5h-87.57z" style="fill:none;stroke:#396;stroke-width:.72;stroke-linecap:round;stroke-linejoin:round;stroke-miterlimit:10"/><g style="clip-path:url(#y)" transform="translate(272.8 117.6)"><g style="clip-path:url(#z)"><text style="font-size:5.62;font-family:Droid Sans" transform="matrix(1 0 0 -1 109.87 512.83)"><tspan x="0 2.58 5.37 7.33 9.87 11.16 13.54 16.34 17.49 20.42 22.38 25.36 27.92 29.19 32.11 34.91 36.87 38.09 40.46 41.74 44.43 46.62" y="0">Service provider class</tspan></text></g></g><g style="clip-path:url(#A)" transform="translate(272.8 117.6)"><g style="clip-path:url(#B)"><text style="font-size:5.62;font-family:Droid Sans" transform="matrix(1 0 0 -1 109.87 505.99)"><tspan x="0 1.42 4.35 6.54 8.45 11.14 14.06 15.94 17.24 19.93 21.81 24.61 26.81 27.97 30.55 33.45 34.87 36.15 37.42 41.92 44.85 46.12 48.92 53.43 56.23 59.18 61.06 63.75 65.64 66.91 69.83 72.76" y="0">Instantiates SPI implementations</tspan></text></g></g><path d="m373.5 611.93h70.8v-23.5h-70.8z" style="fill:none;stroke:#396;stroke-width:.72;stroke-linecap:round;stroke-linejoin:round;stroke-miterlimit:10"/><g style="clip-path:url(#C)" transform="translate(272.8 117.6)"><g style="clip-path:url(#D)"><text style="font-size:5.62;font-family:Droid Sans" transform="matrix(1 0 0 -1 109.87 485.35)"><tspan x="0 2.58 5.48" y="0">SPI</tspan></text></g></g><g style="clip-path:url(#E)" transform="translate(272.8 117.6)"><g style="clip-path:url(#F)"><text style="font-size:5.62;font-family:Droid Sans" transform="matrix(1 0 0 -1 109.87 478.54)"><tspan x="0 1.7 4.63 7.43 9.14 10.42 13.34 16.14 18.35 19.58 21.77 24.59 26.55 29.09 30.38 32.75 35.55 36.71 41.21 44.01 45.91 48.84 51.83 54.76 56.95" y="0">(defines service methods)</tspan></text></g></g><path d="m414.66 677.57-.6-25.92" style="fill:none;stroke:#f60;stroke-width:.72;stroke-linecap:round;stroke-linejoin:round;stroke-miterlimit:10"/><path d="m416.61 656.52-2.55-4.87-2.35 4.99" style="fill:none;stroke:#f60;stroke-width:.72;stroke-linecap:round;stroke-linejoin:round;stroke-miterlimit:10"/><g style="clip-path:url(#G)" transform="translate(272.8 117.6)"><g style="clip-path:url(#H)"><text style="font-size:5.62;font-family:Droid Sans" transform="matrix(1 0 0 -1 146.5 549.43)"><tspan x="0 3.48 6.27 9.22 12.02 14.95 17.88 20.07 21.31 24.3" y="0">Depends on</tspan></text></g></g><path d="m307.89 571.22h172.01v-67.15h-172.01z" style="fill:none;stroke:#548dd4;stroke-width:.72;stroke-linecap:round;stroke-linejoin:round;stroke-miterlimit:10"/><g style="clip-path:url(#I)" transform="translate(272.8 117.6)"><g style="clip-path:url(#J)"><text style="font-size:5.62;font-family:Droid Sans" transform="matrix(1 0 0 -1 41.21 444.17)"><tspan x="0 2.58 5.37 7.33 9.87 11.16 13.54 16.34 17.49 18.76 23.27 26.19 27.46 30.26 34.77 37.57 40.52 42.4 45.09 46.98 48.25 51.21 54.16 55.26 56.6 59.29" y="0">Service implementation jar</tspan></text></g></g><path d="m318.52 553.39h45.79v-36.62h-45.79z" style="fill:none;stroke:#396;stroke-width:.72;stroke-linecap:round;stroke-linejoin:round;stroke-miterlimit:10"/><g style="clip-path:url(#K)" transform="translate(272.8 117.6)"><g style="clip-path:url(#L)"><text style="font-size:5.62;font-family:Droid Sans" transform="matrix(1 0 0 -1 50.35 421.27)"><tspan x="0 2.58 5.37 7.33 9.91 11.2 13.6 16.39 17.58 20.5 22.46 25.46 28.02 29.32 32.26 35.06" y="0">Service Provider</tspan></text></g></g><g style="clip-path:url(#M)" transform="translate(272.8 117.6)"><g style="clip-path:url(#N)"><text style="font-size:5.62;font-family:Droid Sans" transform="matrix(1 0 0 -1 50.35 414.43)"><tspan x="0 1.72 4.3 7.21 8.62 9.86 11.15 15.69 18.61 19.9 22.7 27.24" y="0">(SPI implem)</tspan></text></g></g><path d="m473.49 536.16-.41-2.57-1.15-2.49-1.92-2.43-2.67-2.3-3.24-2.14-3.98-1.97-4.49-1.72-5.04-1.52-5.4-1.24-5.76-.92-5.97-.64-6.12-.32h-6.2l-6.12.32-5.97.64-5.76.92-5.4 1.24-5.07 1.52-4.48 1.72-3.96 1.97-3.27 2.14-2.64 2.3-1.92 2.43-1.17 2.49-.39 2.57.39 2.54 1.17 2.5 1.92 2.42 2.64 2.31 3.27 2.13 3.96 2 4.48 1.72 5.07 1.52 5.4 1.22 5.76.94 5.97.64 6.12.32h6.2l6.12-.32 5.97-.64 5.76-.94 5.4-1.22 5.04-1.52 4.49-1.72 3.98-2 3.24-2.13 2.67-2.31 1.92-2.42 1.15-2.5z" style="fill:none;stroke:#0f0;stroke-width:.72;stroke-linecap:round;stroke-linejoin:round;stroke-miterlimit:10"/><g style="clip-path:url(#O)" transform="translate(272.8 117.6)"><g style="clip-path:url(#P)"><text style="font-size:5.62;font-family:Droid Sans" transform="matrix(1 0 0 -1 119.04 421.27)"><tspan x="0 4.8 7.54 10.27" y="0">META</tspan></text></g><g style="clip-path:url(#Q)"><text style="font-size:5.62;font-family:Droid Sans" transform="matrix(1 0 0 -1 132.58 421.27)"><tspan x="0" y="0">-</tspan></text></g><g style="clip-path:url(#R)"><text style="font-size:5.62;font-family:Droid Sans" transform="matrix(1 0 0 -1 134.28 421.27)"><tspan x="0 1.39 4.99 7.54 9.7 11.9 14.7 16.66 19.2 20.49 22.86 25.66" y="0">INF/services</tspan></text></g></g><g style="clip-path:url(#S)" transform="translate(272.8 117.6)"><g style="clip-path:url(#T)"><text style="font-size:5.62;font-family:Droid Sans" transform="matrix(1 0 0 -1 119.04 414.43)"><tspan x="0 2.98 5.94 8.88 10.77 13.42 14.69 17.61 19.81 21 22.71 23.97 25.24 28.04 29.25 32.18 34.84 39.35 42.14 45.09 46.28 48.94 50.66 52.52 55.32 57.28 58.47 60.67 63.47 65.43 67.96 69.23 71.6" y="0">Contains file named after service</tspan></text></g></g><g style="clip-path:url(#U)" transform="translate(272.8 117.6)"><g style="clip-path:url(#V)"><text style="font-size:5.62;font-family:Droid Sans" transform="matrix(1 0 0 -1 119.04 407.62)"><tspan x="0 3.48 6.44 7.73 10.66 11.93 14.85 17.47 18.74 20.02 24.52 27.45 28.71 31.51 36.03 37.18 39.55 40.83 43.49 45.69" y="0">Holding implem class</tspan></text></g></g><path d="m492.5 571.7h67.75v-68.66h-67.75z" style="fill:none;stroke:#548dd4;stroke-width:.72;stroke-linecap:round;stroke-linejoin:round;stroke-miterlimit:10"/><g style="clip-path:url(#W)" transform="translate(272.8 117.6)"><g style="clip-path:url(#X)"><text style="font-size:5.62;font-family:Droid Sans" transform="matrix(1 0 0 -1 224.33 439.58)"><tspan x="0 3.25 6.17 9.16 11.04 13.99 16.79 18.75 19.96 22.16 24.95 26.91 29.45 30.74 33.12 35.91 37.07 38.34 42.84 45.77 47.04 49.84" y="0">Another service implem</tspan></text></g></g><g style="fill:none;stroke-width:.72;stroke-linecap:round;stroke-linejoin:round;stroke-miterlimit:10"><path d="m547.43 544.22-.17-1.15-.55-1.13-.89-1.08-1.22-1.03-1.51-.98-1.85-.89-2.09-.79-2.35-.67-2.52-.56-2.66-.4-2.79-.29-2.83-.15h-2.88l-2.86.15-2.78.29-2.66.4-2.52.56-2.36.67-2.08.79-1.85.89-1.51.98-1.23 1.03-.89 1.08-.55 1.13-.17 1.15.17 1.16.55 1.12.89 1.11 1.23 1.03 1.51.98 1.85.89 2.08.77 2.36.67 2.52.58 2.66.41 2.78.28 2.86.17h2.88l2.83-.17 2.79-.28 2.66-.41 2.52-.58 2.35-.67 2.09-.77 1.85-.89 1.51-.98 1.22-1.03.89-1.11.55-1.12z" style="stroke:#0f0"/><path d="m501.66 525.94h45.77v-18.32h-45.77z" style="stroke:#396"/><path d="m334.38 553.39v50.04h39.12" style="stroke:#f60"/><path d="m368.58 605.9 4.92-2.47-4.92-2.45" style="stroke:#f60"/><g style="stroke:#f00"><path d="m453.42 617.47-6.09-63.45"/><path d="m450.26 558.7-2.93-4.68-1.97 5.13"/><path d="m457.07 617.47 48.82-67.92"/><path d="m505.02 554.95.87-5.4-4.87 2.55"/></g></g><g style="clip-path:url(#Y)" transform="translate(272.8 117.6)"><g style="clip-path:url(#Z)"><text style="font-size:5.59;font-family:Droid Sans" transform="matrix(1 0 0 -1 210.6 467.04)"><tspan x="0 2.37 5.34 7.71 10.4 12.29 15.09 17.28 18.36 20.55 23.35 25.3 27.85 29.14 31.51 34.31 35.46 38.39 40.35 43.29 45.87 47.16 50.07 52.87 54.82" y="0">Locates service providers</tspan></text></g></g></g></svg>