<svg height="739.02" viewBox="0 0 1280 739.02" width="1280" xml:space="preserve" xmlns="http://www.w3.org/2000/svg" xmlns:xlink="http://www.w3.org/1999/xlink"><clipPath id="a"><path d="m280.06 762.05h65.81v6.89h-65.81z" style="clip-rule:evenodd"/></clipPath><clipPath id="b"><path d="m280.06 762.1h65.81v6.84h-65.81z" style="clip-rule:evenodd"/></clipPath><clipPath id="c"><path d="m293.78 741.55h239.83v6.89h-239.83z" style="clip-rule:evenodd"/></clipPath><clipPath id="d"><path d="m293.78 741.62h239.83v6.82h-239.83z" style="clip-rule:evenodd"/></clipPath><clipPath id="e"><path d="m293.78 741.62h239.83v6.82h-239.83z" style="clip-rule:evenodd"/></clipPath><clipPath id="f"><path d="m280.06 748.39h250.75v6.89h-250.75z" style="clip-rule:evenodd"/></clipPath><clipPath id="g"><path d="m280.06 748.44h250.75v6.84h-250.75z" style="clip-rule:evenodd"/></clipPath><clipPath id="h"><path d="m280.06 748.44h250.75v6.84h-250.75z" style="clip-rule:evenodd"/></clipPath><clipPath id="i"><path d="m280.06 748.44h250.75v6.84h-250.75z" style="clip-rule:evenodd"/></clipPath><clipPath id="j"><path d="m280.06 734.71h239.95v6.91h-239.95z" style="clip-rule:evenodd"/></clipPath><clipPath id="k"><path d="m280.06 734.78h239.95v6.84h-239.95z" style="clip-rule:evenodd"/></clipPath><clipPath id="l"><path d="m280.06 734.78h239.95v6.84h-239.95z" style="clip-rule:evenodd"/></clipPath><clipPath id="m"><path d="m280.06 734.78h239.95v6.84h-239.95z" style="clip-rule:evenodd"/></clipPath><clipPath id="n"><path d="m280.06 727.9h221.28v6.89h-221.28z" style="clip-rule:evenodd"/></clipPath><clipPath id="o"><path d="m280.06 727.94h221.28v6.84h-221.28z" style="clip-rule:evenodd"/></clipPath><clipPath id="p"><path d="m280.06 727.94h221.28v6.84h-221.28z" style="clip-rule:evenodd"/></clipPath><clipPath id="q"><path d="m280.06 727.94h221.28v6.84h-221.28z" style="clip-rule:evenodd"/></clipPath><clipPath id="r"><path d="m293.78 707.4h237.02v6.91h-237.02z" style="clip-rule:evenodd"/></clipPath><clipPath id="s"><path d="m293.78 707.47h237.02v6.84h-237.02z" style="clip-rule:evenodd"/></clipPath><clipPath id="t"><path d="m293.78 700.58h199.92v6.89h-199.92z" style="clip-rule:evenodd"/></clipPath><clipPath id="u"><path d="m293.78 700.63h199.92v6.84h-199.92z" style="clip-rule:evenodd"/></clipPath><clipPath id="v"><path d="m280.06 714.24h251.93v6.89h-251.93z" style="clip-rule:evenodd"/></clipPath><clipPath id="w"><path d="m280.06 714.29h251.93v6.84h-251.93z" style="clip-rule:evenodd"/></clipPath><clipPath id="x"><path d="m280.06 714.29h251.93v6.84h-251.93z" style="clip-rule:evenodd"/></clipPath><clipPath id="y"><path d="m280.06 714.29h251.93v6.84h-251.93z" style="clip-rule:evenodd"/></clipPath><clipPath id="z"><path d="m293.78 680.09h169.58v6.89h-169.58z" style="clip-rule:evenodd"/></clipPath><clipPath id="A"><path d="m293.78 680.14h169.58v6.84h-169.58z" style="clip-rule:evenodd"/></clipPath><clipPath id="B"><path d="m293.78 673.25h102.55v6.91h-102.55z" style="clip-rule:evenodd"/></clipPath><clipPath id="C"><path d="m293.78 673.32h102.55v6.84h-102.55z" style="clip-rule:evenodd"/></clipPath><clipPath id="D"><path d="m307.54 659.59h223.27v6.91h-223.27z" style="clip-rule:evenodd"/></clipPath><clipPath id="E"><path d="m307.54 659.66h223.27v6.84h-223.27z" style="clip-rule:evenodd"/></clipPath><clipPath id="F"><path d="m307.54 652.78h136.49v6.89h-136.49z" style="clip-rule:evenodd"/></clipPath><clipPath id="G"><path d="m307.54 652.82h136.49v6.84h-136.49z" style="clip-rule:evenodd"/></clipPath><clipPath id="H"><path d="m293.78 666.43h237.02v6.89h-237.02z" style="clip-rule:evenodd"/></clipPath><clipPath id="I"><path d="m293.78 666.48h237.02v6.84h-237.02z" style="clip-rule:evenodd"/></clipPath><clipPath id="J"><path d="m293.78 666.48h237.02v6.84h-237.02z" style="clip-rule:evenodd"/></clipPath><clipPath id="K"><path d="m293.78 666.48h237.02v6.84h-237.02z" style="clip-rule:evenodd"/></clipPath><clipPath id="L"><path d="m293.78 666.48h237.02v6.84h-237.02z" style="clip-rule:evenodd"/></clipPath><clipPath id="M"><path d="m293.78 666.48h237.02v6.84h-237.02z" style="clip-rule:evenodd"/></clipPath><clipPath id="N"><path d="m280.06 686.9h212.5v6.91h-212.5z" style="clip-rule:evenodd"/></clipPath><clipPath id="O"><path d="m280.06 686.98h212.5v6.84h-212.5z" style="clip-rule:evenodd"/></clipPath><clipPath id="P"><path d="m312.1 615.55h62.69v6.91h-62.69z" style="clip-rule:evenodd"/></clipPath><clipPath id="Q"><path d="m312.1 615.62h62.69v6.84h-62.69z" style="clip-rule:evenodd"/></clipPath><clipPath id="R"><path d="m334.99 633.86h148.99v6.91h-148.99z" style="clip-rule:evenodd"/></clipPath><clipPath id="S"><path d="m334.99 633.94h148.99v6.84h-148.99z" style="clip-rule:evenodd"/></clipPath><clipPath id="T"><path d="m293.78 557.02h60.14v6.89h-60.14z" style="clip-rule:evenodd"/></clipPath><clipPath id="U"><path d="m293.78 557.06h60.14v6.84h-60.14z" style="clip-rule:evenodd"/></clipPath><clipPath id="V"><path d="m440.28 557.02h55.92v6.89h-55.92z" style="clip-rule:evenodd"/></clipPath><clipPath id="W"><path d="m440.28 557.06h55.92v6.84h-55.92z" style="clip-rule:evenodd"/></clipPath><clipPath id="X"><path d="m481.49 615.55h62.88v6.91h-62.88z" style="clip-rule:evenodd"/></clipPath><clipPath id="Y"><path d="m481.49 615.62h62.88v6.84h-62.88z" style="clip-rule:evenodd"/></clipPath><clipPath id="Z"><path d="m362.47 550.18h59.14v6.91h-59.14z" style="clip-rule:evenodd"/></clipPath><clipPath id="aa"><path d="m362.47 550.25h59.14v6.84h-59.14z" style="clip-rule:evenodd"/></clipPath><clipPath id="ab"><path d="m312.72 523.15h86.11v6.89h-86.11z" style="clip-rule:evenodd"/></clipPath><clipPath id="ac"><path d="m312.72 523.2h86.11v6.84h-86.11z" style="clip-rule:evenodd"/></clipPath><clipPath id="ad"><path d="m482.09 523.15h62.88v6.89h-62.88z" style="clip-rule:evenodd"/></clipPath><clipPath id="ae"><path d="m482.09 523.2h62.88v6.84h-62.88z" style="clip-rule:evenodd"/></clipPath><clipPath id="af"><path d="m490.66 538.7h62.98v6.89h-62.98z" style="clip-rule:evenodd"/></clipPath><clipPath id="ag"><path d="m490.66 538.75h62.98v6.84h-62.98z" style="clip-rule:evenodd"/></clipPath><clipPath id="ah"><path d="m312.1 451.73h56.47v6.89h-56.47z" style="clip-rule:evenodd"/></clipPath><clipPath id="ai"><path d="m312.1 451.78h56.47v6.84h-56.47z" style="clip-rule:evenodd"/></clipPath><clipPath id="aj"><path d="m312.1 444.89h63.24v6.91h-63.24z" style="clip-rule:evenodd"/></clipPath><clipPath id="ak"><path d="m312.1 444.96h63.24v6.84h-63.24z" style="clip-rule:evenodd"/></clipPath><clipPath id="al"><path d="m312.1 444.96h63.24v6.84h-63.24z" style="clip-rule:evenodd"/></clipPath><clipPath id="am"><path d="m312.1 444.96h63.24v6.84h-63.24z" style="clip-rule:evenodd"/></clipPath><clipPath id="an"><path d="m412.82 465.46h51.22v6.89h-51.22z" style="clip-rule:evenodd"/></clipPath><clipPath id="ao"><path d="m412.82 465.53h51.22v6.82h-51.22z" style="clip-rule:evenodd"/></clipPath><clipPath id="ap"><path d="m353.3 321.29h82.7v13.75h-82.7z" style="clip-rule:evenodd"/></clipPath><clipPath id="aq"><path d="m353.3 328.2h82.7v6.84h-82.7z" style="clip-rule:evenodd"/></clipPath><clipPath id="ar"><path d="m353.3 321.36h82.7v6.84h-82.7z" style="clip-rule:evenodd"/></clipPath><clipPath id="as"><path d="m490.34 441.53h45.24v12.77h-45.24z" style="clip-rule:evenodd"/></clipPath><clipPath id="at"><path d="m490.34 444.1h45.24v8.11h-45.24z" style="clip-rule:evenodd"/></clipPath><g transform="matrix(2.28 0 0 -2.28 -70.64 1455.48)"><g style="clip-path:url(#a)" transform="translate(-252.8 -189.6)"><g style="clip-path:url(#b)"><text style="font-weight:bold;font-size:5.62;font-family:Droid Sans" transform="matrix(1 0 0 -1 283.85 763.63)"><tspan x="0 3.59 6.33 8.34 11.32 14.05 16.74 19.54 20.77 23.14 26.11 27.5 28.89 31.7 34.07 36.02 37.4 40.38" y="0">Garbage collection</tspan></text></g></g><g style="clip-path:url(#c)" transform="translate(-252.8 -189.6)"><g style="clip-path:url(#d)"><text style="font-size:5.62;font-family:Droid Sans" transform="matrix(1 0 0 -1 297.58 743.14)"><tspan x="0 2.58 7.06 9.75 11.05 12.31 13.53 15.91 18.9 23.41 26.33 29.02 30.97 33.76 36.71 37.85 39.73 42.74 43.97 45.85 48.67 51.59 54.52 56.48 59.28 62.2 63.43 66.04 68.84 71.79 73.17" y="0">Small compared to tenured gen. </tspan></text></g><g style="clip-path:url(#e)"><text style="font-size:5.62;font-family:Droid Sans" transform="matrix(1 0 0 -1 372.1 743.14)"><tspan x="0 3.72 6.65 7.99 10.79 13.16 15.07 17.26 18.43 21.12 23.06 25.86 27.09 29.29 32.24 35.16 38.08 41.08 43.27 46.08 49.01 50.24 52.12 55.13 56.35 59.28 60.55 63.34 64.58 67.5 70.43 71.7 74.08 76.63 77.92 80.48 81.75 84.44 87.36 90.29 91.51 94.44 97.43 99.31 100.55 103.48 106.28 107.55 109.51 112.3 114.02 116.81 118.77 121.57 124.52 126.89 129.69 132.62 133.77 136.69 139.25 140.48 143.47 144.74 147.67 148.94 151.55 154.35" y="0">Objects are supposed to die quickly and not be referenced by old gen</tspan></text></g><path d="m372.1 742.15h157.44v.38h-157.44z" style="fill-rule:evenodd"/></g><g style="clip-path:url(#f)" transform="translate(-252.8 -189.6)"><g style="clip-path:url(#g)"><text style="font-size:5.62;font-family:Droid Sans" transform="matrix(1 0 0 -1 283.85 749.98)"><tspan x="0 2.73 5.71 8.63 11.56 14.17 15.4 18.02 20.81 23.76 26.56 28.52 31.21 33.09 34.36 37.32 40.27" y="0">Young generation </tspan></text></g><g style="clip-path:url(#h)"><text style="font-size:5.62;font-family:Droid Sans" transform="matrix(1 0 0 -1 325.42 749.98)"><tspan x="0" y="0">-</tspan></text></g><g style="clip-path:url(#i)"><text style="font-size:5.62;font-family:Droid Sans" transform="matrix(1 0 0 -1 328.34 749.98)"><tspan x="0 1.27 4.2 5.46 8.08 10.77 12.71 15.64 18.33 20.94 23.74 25.01 27.38 30.37 31.63 32.9 35.7 38.08 39.98 41.25 44.21 47.16 48.26 50.14 53.09 55.88 57.15 59.11 61.91 64.53 65.8 68.76 71.71 72.92 75.88 77.6 78.83 80.71 83.66 86.45 87.68 90.61 93.41 96.1 99.04 100.26 104.27 107.22 110.02 111.98 114.77 116 118.92 121.49 124.41 127.1 131.61 132.87 135.25 137.94 139.21 140.48 143.04 144.19 146.88 148.15 149.42 152.38 154.75 157.44 159.35 162.15 165.09 166.23 169.19 172.14 173.48 176.28 178.66 180.55 182.75 183.89 185.85 188.65 190.84 192.1 195.03" y="0">in garbage collection the region of the heap where dynamically allocated objects reside</tspan></text></g></g><g style="clip-path:url(#j)" transform="translate(-252.8 -189.6)"><g style="clip-path:url(#k)"><text style="font-size:5.62;font-family:Droid Sans" transform="matrix(1 0 0 -1 283.85 736.32)"><tspan x="0 2.73 5.53 8.48 11.4 13.36 16.16 19.08 20.31 22.92 25.72 28.67 31.47 33.43 36.12 38 39.27 42.23 45.18" y="0">Tenured generation </tspan></text></g><g style="clip-path:url(#l)"><text style="font-size:5.62;font-family:Droid Sans" transform="matrix(1 0 0 -1 330.24 736.32)"><tspan x="0" y="0">-</tspan></text></g><g style="clip-path:url(#m)"><text style="font-size:5.62;font-family:Droid Sans" transform="matrix(1 0 0 -1 333.22 736.32)"><tspan x="0 2.96 5.91 7.25 10.05 12.42 14.32 16.52 17.66 19.85 22.77 24.73 27.27 28.56 31.11 32.38 35.31 37.92 39.15 41.34 44.14 46.7 49.5 51.46 54.15 55.41 56.56 60.11 63.07 64.34 67.27 69.96 72.15 74.32 77.12 79.31 80.54 83.23 86.16 89.11 91.02 93.95 96.75 98.71 99.85 102.78 105.58 108.27 111.21 112.48 114.42 117.22 119.85 121.11 124.07 127.02 128.24 129.51 131.71 132.92 135.85 138.64 141.59 142.85 145.23 147.92 149.8 152.61 155.54 156.77 158.48 161.44 163.4 164.61 165.88" y="0">objects surviving several GC passes another heap region is dedicated for it</tspan></text></g></g><g style="clip-path:url(#n)" transform="translate(-252.8 -189.6)"><g style="clip-path:url(#o)"><text style="font-size:5.62;font-family:Droid Sans" transform="matrix(1 0 0 -1 283.85 729.48)"><tspan x="0 2.92 5.72 7.68 12.18 14.87 17.8 20.59 23.54 25.42 26.54 29.15 31.95 34.9 37.69 39.65 42.34 44.23 45.5 48.45 51.4" y="0">Permanent generation </tspan></text></g><g style="clip-path:url(#p)"><text style="font-size:5.62;font-family:Droid Sans" transform="matrix(1 0 0 -1 336.53 729.48)"><tspan x="0" y="0">-</tspan></text></g><g style="clip-path:url(#q)"><text style="font-size:5.62;font-family:Droid Sans" transform="matrix(1 0 0 -1 339.5 729.48)"><tspan x="0 2.96 5.91 7.25 10.05 12.42 14.32 16.52 17.66 20.58 23.38 26.19 29.12 31.92 34.86 36.08 39 41.56 42.79 44.58 47.73 52.55 53.77 55.47 56.75 58.02 60.57 63.39 64.61 66.99 68.26 70.95 73.15 75.32 78.11 80.31 82.01 83.41 84.63 85.9 87.78 89.02 90.29 92.48 93.75 96.36 99.05 100.99 103.92 106.61 109.22 112.02 113.25 115.63 118.59 119.88 121.15 123.95 126.32 128.22 131.02 133.97 135.11 136.99 139.98" y="0">objects needed by JVM (like classes), it is garbage collected too</tspan></text></g></g><g style="clip-path:url(#r)" transform="translate(-252.8 -189.6)"><g style="clip-path:url(#s)"><text style="font-size:5.62;font-family:Droid Sans" transform="matrix(1 0 0 -1 297.58 708.98)"><tspan x="0 2.58 4.51 7.5 12.01 13.16 15.85 18.22 20.11 21.4 23.95 26.75 27.91 29.79 32.8 34.03 35.3 38.22 40.91 43.29 45.17 46.46 49.02 51.81 53.22 54.37 56.25 59.2 62 64.94 66.21 68.41 72.42 75.11 78.06 80.26 81.49 84.41 87.1 89.05 90.93 92.22 94.1 95.39 98.38 101.3 102.53 105.32 108.14 109.36 112.29 115.08 116.8 118.76 121.45 124.05 126.24 127.48 130.17 132.05 133.28 135.17 138.11 140.91 142.18 144.39 147.08 151.59 154.38 155.55 157.43 158.72 163.22 166.02 167.18 170.11 173.03 174.92 176.2 179.12 181.92 184.73 187.66 189.85 191.09 194.02 197.01 199.94 202.86 204.13 206.93 208.16 212.67 215.46 219.98 222.97 224.93" y="0">From active to inactive, then swaps partition =&gt; defrags at the same time but needs double memory</tspan></text></g></g><g style="clip-path:url(#t)" transform="translate(-252.8 -189.6)"><g style="clip-path:url(#u)"><text style="font-size:5.62;font-family:Droid Sans" transform="matrix(1 0 0 -1 297.58 702.17)"><tspan x="0 2.58 5.37 7.94 10.74 12.7 15.39 16.65 17.8 20.36 23.05 25 26.27 28.96 30.84 32.13 35.12 38.04 40.24 41.4 43.1 45.3 48.12 50.08 51.34 54.03 55.3 56.7 57.91 60.11 62.32 63.54 64.93 66.32 67.72 69.42 70.69 73.69 75.4 76.61 78.49 81.44 84.24 85.47 87.85 90.84 93.76 96.33 97.48 99.85 102.85 104.12 105.38 108.18 110.56 112.46 115.45 117.41 118.55 121.24 123.18 125.98 127.21 130.14 132.34 135.15 138.07 139.3 140.57 143.49 144.76 146.66 149.58 152.38 153.61 156.18 159.17 162.09 165.02 167.64 168.91 171.52 174.32" y="0">Several variations (serial, // ...) of the copy collector are used in the young gen</tspan></text></g></g><g style="clip-path:url(#v)" transform="translate(-252.8 -189.6)"><g style="clip-path:url(#w)"><text style="font-size:5.62;font-family:Droid Sans" transform="matrix(1 0 0 -1 283.85 715.82)"><tspan x="0 2.98 5.94 8.88 11.45 12.67 15.05 18 19.3 20.57 23.36 25.74 27.64 30.6 32.56" y="0">Copy collector </tspan></text></g><g style="clip-path:url(#x)"><text style="font-size:5.62;font-family:Droid Sans" transform="matrix(1 0 0 -1 317.59 715.82)"><tspan x="0" y="0">-</tspan></text></g><g style="clip-path:url(#y)"><text style="font-size:5.62;font-family:Droid Sans" transform="matrix(1 0 0 -1 320.59 715.82)"><tspan x="0 2.93 4.2 6.76 8.03 10.95 13.75 15.94 17.17 20.09 22.89 25.58 28.53 29.74 31.01 33.94 35.21 37.9 40.27 42.15 43.45 46.01 48.8 50.99 52.26 55.19 57.88 60.25 62.14 63.43 65.98 68.78 69.82 72.75 75.44 77.38 79.26 80.56 82.44 83.73 86.69 89.64 91.8 93.03 95.83 98.52 100.89 103.84 105.05 108.6 111.56 112.78 114.98 116.86 119.83 122.75 124.95 126.16 128.04 130.99 133.79 135.02 137.71 140.64 143.56 144.83 147.52 150.45 153.37 154.64 157.02 159.99 162.91 164.18 166.98 169.18 170.4 173.36 176.31 177.58 180.14 181.29 182.56 183.83 186.39 189.19 190.42 193.38 196.33 197.67 200.47 202.84 204.74" y="0">divides heap in active/inactive partitions each GC stops the app and copies only live objects</tspan></text></g></g><g style="clip-path:url(#z)" transform="translate(-252.8 -189.6)"><g style="clip-path:url(#A)"><text style="font-size:5.62;font-family:Droid Sans" transform="matrix(1 0 0 -1 297.58 681.67)"><tspan x="0 2.58 5.37 7.33 8.59 11.28 12.55 13.78 15.31 16.58 18.77 20.07 24.57 27.5 28.77 31.56 32.97 34.12 37.04 39 41.8 44 46.8 48.76 51.3 54.12 55.27 57.23 60.02 62.22 65.22 68.15 70.11 72.49 75.28 77.48 78.64 80.35 83.34 85.3 86.51 89.5 91.38 94.33 97.13 99.09 100.23 103.15 105.11 108.09 110.47 113.26 115.48 117.67 118.91 121.83 124.63 126.84 128.11 131.04 133.83 136.05 137.27 139.06 142.21" y="0">Serial : simple, preserve resources for other process besides JVM</tspan></text></g></g><g style="clip-path:url(#B)" transform="translate(-252.8 -189.6)"><g style="clip-path:url(#C)"><text style="font-size:5.62;font-family:Droid Sans" transform="matrix(1 0 0 -1 297.58 674.83)"><tspan x="0 2.92 5.61 7.55 10.24 11.51 12.78 15.58 16.87 18.08 19.62 20.84 22.55 25.24 27.44 29.32 32.14 34.1 35.31 38.85 41.84 43.09 44.79 46.98 51.5 54.19 55.46 56.73 59.53 61.49 62.64 65.56 68.25 71.18 73.37 76.19 78.38" y="0">Parallel : faster GC (smaller pauses)</tspan></text></g></g><g style="clip-path:url(#D)" transform="translate(-252.8 -189.6)"><g style="clip-path:url(#E)"><text style="font-size:5.62;font-family:Droid Sans" transform="matrix(1 0 0 -1 311.3 661.18)"><tspan x="0 3.25 5.8 8.79 10.09 13.03 15.23 16.45 17.74 20.74 23.67 26.31 27.53 30.46 33.15 36.07 38.27 41.08 43.28 44.51 46.23 49.21 51.17 52.4 54.96 57.76 59.73 62.29 63.47 64.76 67.45 69.41 72.05 74.85 76.16 79.08 81.88 84.57 87.52 89.72 90.94 93.87 96.79 98.67 99.98 102.9 105.59 107.79 109.09 111.78 113.01 115.93 117.22 119.87 122.79 125.59 127.56 128.85 131.85 134.78 138.38 139.6 142.6 145.16 147.95 149.92 152.85 155.65 158.34 161.29 162.45 164.15 167.03 168.25 172.75 175.75 177.71 180.52 181.69 183.88 185.79 188.59 191.53 192.75 194.04 196.99 198.19 202.7 205.39 207.35" y="0">Avoids long pauses for very large heaps but has a higher CPU overhead (1 more step in mark</tspan></text></g></g><g style="clip-path:url(#F)" transform="translate(-252.8 -189.6)"><g style="clip-path:url(#G)"><text style="font-size:5.62;font-family:Droid Sans" transform="matrix(1 0 0 -1 311.3 654.36)"><tspan x="0 3.25 6.17 9.09 10.38 12.58 16.62 19.41 22.23 25.15 26.38 29.18 30.41 33.34 36.33 37.55 39.93 42.92 47.43 50.35 53.04 55.42 57.3 58.6 61.6 64.52 65.63 67.82 70.83 72.05 73.34 76.34 79.27 81.91 84.71 86.67 87.91 90.6 91.89 93.18 96.18 98.56 101.25 103.13 104.43 107.42 110.35 112.54" y="0">And sweep + no compaction so longer allocations)</tspan></text></g></g><g style="clip-path:url(#H)" transform="translate(-252.8 -189.6)"><g style="clip-path:url(#I)"><text style="font-size:5.62;font-family:Droid Sans" transform="matrix(1 0 0 -1 297.58 668.02)"><tspan x="0 2.99 5.99 8.92 11.29 14.22 16.18 18.11 20.9 23.85 25.73 26.89 28.42 29.69 33.24 36.24 37.46 40.39 43.08 46.01 48.93 51.73 54.68 56.87 58.14 60.52 63.52 66.44 68.82 71.74 73.7 75.63 78.43 81.38 83.26 84.55 87.09 88.26 92.27 93.56 95.44 98.39 99.61 101.57 104.48 107.41 110.33 111.6 114.53 117.14 118.41 121.1 124.03 126.96 128.22 130.6 133.6 136.52 139.32 140.56 142.26 144.63 147.63 150.56 152.44 154.4 157.09 159.03 161.59 162.75 164.63 167.64 168.79 170.98 172.89 175.88" y="0">Concurrent : GC happens concurrently with running app code (contrary to stop</tspan></text></g><g style="clip-path:url(#J)"><text style="font-size:5.62;font-family:Droid Sans" transform="matrix(1 0 0 -1 476.54 668.02)"><tspan x="0" y="0">-</tspan></text></g><g style="clip-path:url(#K)"><text style="font-size:5.62;font-family:Droid Sans" transform="matrix(1 0 0 -1 478.25 668.02)"><tspan x="0 1.88 4.83" y="0">the</tspan></text></g><g style="clip-path:url(#L)"><text style="font-size:5.62;font-family:Droid Sans" transform="matrix(1 0 0 -1 485.88 668.02)"><tspan x="0" y="0">-</tspan></text></g><g style="clip-path:url(#M)"><text style="font-size:5.62;font-family:Droid Sans" transform="matrix(1 0 0 -1 487.61 668.02)"><tspan x="0 4.02 7.03 8.99 10.24 13.17 14.32 16.2 19.02 21.4 24.32 26.52" y="0">world techs)</tspan></text></g></g><g style="clip-path:url(#N)" transform="translate(-252.8 -189.6)"><g style="clip-path:url(#O)"><text style="font-size:5.62;font-family:Droid Sans" transform="matrix(1 0 0 -1 283.85 688.51)"><tspan x="0 2.98 5.9 8.59 10.54 13.23 15.6 17.48 20.3 22.26 23.51 25.71 27.59 28.87 31.24 33.44 34.58 37.54 39.25 40.48 44.02 46.98 48.21 49.71 50.94 53.87 56.67 59.61 62.41 65.34 68.27 69.54 72.46 75.08 76.35 79.32 82.25 83.52 85.41 88.33 91.13 92.37 94.98 97.78 100.73 103.53 105.49 108.18 110.06 111.33 114.29 117.23 118.38 121.31 122.57 124.29 125.98 128.78 130.74 133.54 136.49 138.37 139.59 143.13 146.09 147.36 149.26 151.82 154.74 157.54 159.74 160.89 165.39 168.08 170.64 171.79 174.72 177.52 178.79 181.73 183.91 186.71" y="0">Characteristics of GC : depending on the generation different GC types may be used</tspan></text></g></g><path d="m311.26 622.51h155.64v-45.79h-155.64z" style="fill:none;stroke:#548dd4;stroke-width:.72;stroke-linecap:round;stroke-linejoin:round;stroke-miterlimit:10"/><g style="clip-path:url(#P)"><g style="clip-path:url(#Q)"><text style="font-size:5.62;font-family:Droid Sans" transform="matrix(1 0 0 -1 315.89 617.14)"><tspan x="0 2.73 5.73 8.65 11.58 14.2 15.42 18.04 20.84 23.78 26.58 28.54 31.23 33.11 34.38 37.37" y="0">Young generation</tspan></text></g></g><path d="m311.26 613.34h155.64v-17.9h-155.64z" style="fill:none;stroke:#548dd4;stroke-width:.72;stroke-linecap:round;stroke-linejoin:round;stroke-miterlimit:10"/><path d="m311.57 595.34h82.1v-18.62h-82.1z" style="fill:none;stroke:#548dd4;stroke-width:.72;stroke-linecap:round;stroke-linejoin:round;stroke-miterlimit:10"/><g style="clip-path:url(#R)"><g style="clip-path:url(#S)"><text style="font-size:5.62;font-family:Droid Sans" transform="matrix(1 0 0 -1 338.78 635.45)"><tspan x="0 2.74 5.67 8.46 11.41 12.92 14.14 16.83 18.1 19.37 20.64 23.57 26.37 30.41 31.67 34.24 35.39 38.08 39.35 40.61 43.57 45.95 48.64 50.54 53.34 56.29 57.43 60.39 63.34 64.68 67.48 69.85 71.75 72.97 75.59 78.55 79.79 82.72 85.51 87.47 90.27 91.5 93.2 96.13 99.06 100.33 103.13 105.32 107.52 108.73 110.61 113.6 116.56 117.73 120.65 121.92 124.54" y="0">Eden: all newly allocated object go here (unless too big)</tspan></text></g></g><g style="clip-path:url(#T)"><g style="clip-path:url(#U)"><text style="font-size:5.62;font-family:Droid Sans" transform="matrix(1 0 0 -1 297.58 558.6)"><tspan x="0 2.58 5.5 7.46 10 11.29 13.84 16.84 18.8 19.93 21.2 24.13 26.82 29.19 31.07 32.37 34.92" y="0">Survivor inactive</tspan></text></g></g><g style="clip-path:url(#V)"><g style="clip-path:url(#W)"><text style="font-size:5.62;font-family:Droid Sans" transform="matrix(1 0 0 -1 444.07 558.6)"><tspan x="0 2.58 5.5 7.46 10.03 11.32 13.89 16.88 18.84 20 22.69 25.07 26.95 28.25 30.81" y="0">Survivor active</tspan></text></g></g><g style="fill:none;stroke-width:.72;stroke-linecap:round;stroke-linejoin:round;stroke-miterlimit:10"><g style="stroke:#548dd4"><path d="m311.26 563.98 9.16 9.14"/><path d="m315.19 571.39 5.23 1.73-1.75-5.23"/><path d="m411.98 631.66-7.34-18.32"/><path d="m408.74 617.02-4.1-3.68-.46 5.52"/><path d="m444.65 562.13-14.38 10.99"/><path d="m432.7 568.18-2.43 4.94 5.4-1.03"/></g><g style="stroke:#396"><path d="m319.8 610.61h20.45v-10.37h-20.45z"/><path d="m345.86 610.25h20.45v-10.37h-20.45z"/><path d="m400.01 590.71h20.42v-10.37h-20.42z"/><path d="m425.76 590.71h14.04v-10.37h-14.04z"/><path d="m373.3 609.65h30.52v-10.37h-30.52z"/><path d="m409.37 609.02h13.44v-10.36h-13.44z"/></g><path d="m478.8 624.34h113.83v-45.17h-113.83z" style="stroke:#f90"/></g><g style="clip-path:url(#X)"><g style="clip-path:url(#Y)"><text style="font-size:5.62;font-family:Droid Sans" transform="matrix(1 0 0 -1 485.28 617.14)"><tspan x="0 3.72 4.99 7.92 9.19 10.89 12.79 15.58 18.53 21.45 23.41 26.21 29.14 30.84 31.99 34.61 37.41" y="0">Old (tenured) gen</tspan></text></g></g><path d="m486.46 611.14h30.5v-10.35h-30.5z" style="fill:none;stroke:#396;stroke-width:.72;stroke-linecap:round;stroke-linejoin:round;stroke-miterlimit:10"/><g style="clip-path:url(#Z)"><g style="clip-path:url(#aa)"><text style="font-size:5.62;font-family:Droid Sans" transform="matrix(1 0 0 -1 366.24 551.76)"><tspan x="0 2.75 5.75 8.67 11.6 14.24 15.46 18.11 20.9 23.85 25.12 27.53 30.52 31.81 33.11 35.92 38.31 40.19 41.5 44.49" y="0">Young gen collection</tspan></text></g></g><path d="m311.86 530.09h155.66v-45.77h-155.66z" style="fill:none;stroke:#548dd4;stroke-width:.72;stroke-linecap:round;stroke-linejoin:round;stroke-miterlimit:10"/><g style="clip-path:url(#ab)"><g style="clip-path:url(#ac)"><text style="font-size:5.62;font-family:Droid Sans" transform="matrix(1 0 0 -1 316.49 524.74)"><tspan x="0 2.75 5.75 8.67 11.6 14.24 15.46 18.11 20.9 23.85 26.65 28.61 31.3 33.19 34.48 37.48 40.41 41.63 43.33 46.02 47.74 49.62 52.43 54.39 55.57 59.11 62.11" y="0">Young generation (after GC)</tspan></text></g></g><g style="fill:none;stroke-width:.72;stroke-linecap:round;stroke-linejoin:round;stroke-miterlimit:10"><path d="m311.86 520.94h155.66v-17.9h-155.66z" style="stroke:#548dd4"/><path d="m312.17 502.92h82.1v-18.6h-82.1z" style="stroke:#548dd4"/><g style="stroke:#396"><path d="m341.88 499.22h20.45v-10.36h-20.45z"/><path d="m318.82 498.91h20.44v-10.37h-20.44z"/><path d="m366.34 498.91h13.41v-10.37h-13.41z"/></g><path d="m479.42 531.91h113.86v-45.17h-113.86z" style="stroke:#f90"/></g><g style="clip-path:url(#ad)"><g style="clip-path:url(#ae)"><text style="font-size:5.62;font-family:Droid Sans" transform="matrix(1 0 0 -1 485.88 524.74)"><tspan x="0 3.72 5.01 7.96 9.23 10.93 12.83 15.63 18.58 21.5 23.46 26.27 29.19 30.89 32.05 34.67 37.46" y="0">Old (tenured) gen</tspan></text></g></g><g style="fill:none;stroke-linecap:round;stroke-linejoin:round;stroke-miterlimit:10"><g style="stroke-width:.72"><g style="stroke:#396"><path d="m487.06 518.74h30.5v-10.35h-30.5z"/><path d="m492.48 595.27h19.85v-10.34h-19.85z"/><path d="m488.64 501.62h19.85v-10.34h-19.85z"/></g><g style="stroke:#548dd4"><path d="m443.11 560.3-59.54-56.47"/><path d="m388.85 505.44-5.26-1.61 1.87 5.19"/></g></g><path d="m418.7 570.05-.26-34.78" style="stroke:#262626;stroke-width:5.04"/><path d="m424.85 547.87-6.41-12.6-6.24 12.7" style="stroke:#262626;stroke-width:5.04"/><g style="stroke-width:.72"><path d="m523.63 519.05h14.04v-10.37h-14.04z" style="stroke:#396"/><g style="stroke:#ed1c24"><path d="m439.8 585.53 84.48-64.03"/><path d="m521.86 526.42 2.47-4.92-5.45 1.03"/></g></g></g><g style="clip-path:url(#af)"><g style="clip-path:url(#ag)"><text style="font-size:5.62;font-family:Droid Sans" transform="matrix(1 0 0 -1 494.42 540.29)"><tspan x="0 3.74 6.67 8.01 10.81 13.21 15.1 16.34 19.26 21.22 24.23 28.76 31.75 33.63 34.94 37.93" y="0">Object promotion</tspan></text></g></g><path d="m311.26 463.27h226.77v-148.01h-226.77z" style="fill:none;stroke:#f90;stroke-width:.72;stroke-linecap:round;stroke-linejoin:round;stroke-miterlimit:10"/><g style="clip-path:url(#ah)"><g style="clip-path:url(#ai)"><text style="font-size:5.62;font-family:Droid Sans" transform="matrix(1 0 0 -1 315.89 453.31)"><tspan x="0 3.72 4.99 7.92 9.19 11.8 14.6 17.55 20.35 22.31 25 26.88 28.15 31.14" y="0">Old generation</tspan></text></g></g><g style="clip-path:url(#aj)"><g style="clip-path:url(#ak)"><text style="font-size:5.62;font-family:Droid Sans" transform="matrix(1 0 0 -1 315.89 446.5)"><tspan x="0" y="0">(</tspan></text></g><g style="clip-path:url(#al)"><text style="font-size:5.62;font-family:Droid Sans" transform="matrix(1 0 0 -1 317.59 446.5)"><tspan x="0 4.5 7.19 9.14" y="0">mark</tspan></text></g><g style="clip-path:url(#am)"><text style="font-size:5.62;font-family:Droid Sans" transform="matrix(1 0 0 -1 330.48 446.5)"><tspan x="0 2.69 5.62 8.54 9.81 12.01 16.05 18.85 21.66 24.59" y="0">and sweep)</tspan></text></g><path d="m317.59 445.51h11.74v.36h-11.74z" style="fill-rule:evenodd"/></g><g style="fill:none;stroke-width:.72;stroke-linecap:round;stroke-linejoin:round;stroke-miterlimit:10"><g style="stroke:#f00"><path d="m368.64 451.34h21.05v-10.99h-21.05z"/><path d="m412.7 450.98h21.05v-10.96h-21.05z"/><path d="m458.28 451.9h21.07v-10.97h-21.07z"/></g><g style="stroke:#396"><path d="m370.54 423.53h13.44v-10.37h-13.44z"/><path d="m341.45 422.9h13.44v-10.36h-13.44z"/><path d="m367.9 395.45h13.44v-10.35h-13.44z"/><path d="m339.14 392.4h13.44v-10.37h-13.44z"/><path d="m339.1 368.28h13.41v-10.34h-13.41z"/><path d="m328.99 345.38h13.44v-10.34h-13.44z"/><path d="m411.43 372.94h13.44v-10.37h-13.44z"/><path d="m441.55 374.76h13.42v-10.37h-13.42z"/><path d="m386.04 371.09h13.42v-10.37h-13.42z"/><path d="m471.46 374.14h13.41v-10.37h-13.41z"/><path d="m411.43 427.87h13.44v-10.37h-13.44z"/><path d="m456.82 426.62h13.41v-10.36h-13.41z"/><path d="m411.07 401.62h13.44v-10.37h-13.44z"/><path d="m455.57 401.3h13.44v-10.36h-13.44z"/></g><g style="stroke:#9c0"><path d="m374.45 440.06-26.28-17.13"/><path d="m353.62 423.55-5.45-.62 2.76 4.73"/><path d="m379.18 440.38-1.92-16.83"/><path d="m380.26 428.14-3-4.59-1.9 5.16"/><path d="m350.02 412.58 21.07-17.68"/><path d="m368.88 399.94 2.21-5.04-5.35 1.27"/><path d="m345.86 382.03-.07-13.73"/><path d="m348.31 373.2-2.49-4.9-2.45 4.92"/><path d="m345.82 357.94-7.08-13.68"/><path d="m343.18 347.5-4.44-3.24.04 5.47"/><path d="m328.99 345.41v43.05h9.15"/><path d="m333.19 390.96 4.92-2.47-4.92-2.45"/><path d="m423.24 440.02-5.09-12.15"/><path d="m422.33 431.45-4.18-3.58-.38 5.47"/><path d="m416.54 417.17 1.25-15.55"/><path d="m419.83 406.7-2.04-5.08-2.85 4.72"/><path d="m417.79 391.25.36-18.31"/><path d="m420.5 377.88-2.35-4.94-2.57 4.84"/><path d="m424.87 362.57 31.95 58.89"/><path d="m452.28 418.3 4.54 3.16-.2-5.52"/><path d="m475.15 440.93v-44.52h-9.17"/><path d="m470.9 393.96-4.92 2.47 4.92 2.47"/></g><g style="stroke:#ed1c24"><path d="m430.58 463.87 28.4-14.95"/><path d="m455.78 453.38 3.2-4.48-5.5.12"/></g></g><g style="clip-path:url(#an)"><g style="clip-path:url(#ao)"><text style="font-size:5.59;font-family:Droid Sans" transform="matrix(1 0 0 -1 416.62 467.04)"><tspan x="0 2.54 5.35 8.15 11.08 12.27 15.24 18.18 19.52 22.32 24.68 26.56" y="0">Seed objects</tspan></text></g></g><path d="m364.63 362.54-.19-4.6-.55-4.52-.94-4.36-1.29-4.16-1.56-3.86-1.92-3.58-2.19-3.12-2.42-2.71-2.62-2.23-2.78-1.68-2.88-1.18-2.98-.57h-2.97l-2.98.57-2.88 1.18-2.78 1.68-2.62 2.23-2.42 2.71-2.19 3.12-1.92 3.58-1.56 3.86-1.29 4.16-.94 4.36-.58 4.52-.16 4.6.16 4.64.58 4.48.94 4.4 1.29 4.12 1.56 3.87 1.92 3.57 2.19 3.12 2.42 2.72 2.62 2.23 2.78 1.68 2.88 1.15 2.98.6h2.97l2.98-.6 2.88-1.15 2.78-1.68 2.62-2.23 2.42-2.72 2.19-3.12 1.92-3.57 1.56-3.87 1.29-4.12.94-4.4.55-4.48z" style="fill:none;stroke:#9436b8;stroke-width:.72;stroke-linecap:round;stroke-linejoin:round;stroke-miterlimit:10"/><g style="clip-path:url(#ap)"><g style="clip-path:url(#aq)"><text style="font-size:5.62;font-family:Droid Sans" transform="matrix(1 0 0 -1 357.1 329.71)"><tspan x="0 3.61 6.53 8.49 11.28 13.97 16.35 19.27 21.96 24.88 26.15 28.95 30.19 31.9 33.84 36.8 41.32 42.47 44.66 47.46 50.26 53.21 54.42 57.22 59.79 62.58 65.53 66.67 67.94 69.66" y="0">Unreachable from seed even if </tspan></text></g><g style="clip-path:url(#ar)"><text style="font-size:5.62;font-family:Droid Sans" transform="matrix(1 0 0 -1 357.1 322.9)"><tspan x="0 1.96 4.76 6.47 9.27 11.21 14.01 16.95 19.33 22.13 25.06 26.21 29.14 31.7 32.92 35.88 37.79 40.72 43.51 45.47 46.69 49.65 52.6 53.94 56.74 59.11 61.01" y="0">referenced by other objects</tspan></text></g></g><g style="fill:none;stroke-width:.72;stroke-linecap:round;stroke-linejoin:round;stroke-miterlimit:10"><g style="stroke:#ed1c24"><path d="m430.58 463.87-6.69-14.97"/><path d="m428.14 452.38-4.25-3.48-.24 5.49"/><path d="m430.27 463.25-40.87-14.35"/><path d="m394.85 448.22-5.47.68 3.84 3.96"/></g><path d="m455.02 371.09 16.41-2.11" style="stroke:#9c0"/><path d="m466.87 372.05 4.56-3.07-5.21-1.83" style="stroke:#9c0"/><g style="stroke:#177d36"><path d="m458.98 398.26v-.32-.31-.29-.31-.31l.31-.31v-.31h.31v-.29-.31-.32h.29.31v-.28h.29v-.32.32h.33v.28l.32.63v.29h.28v.31.31h.32v.31h.28v.31l.32.29h.31v.31.32h.31v.28h.29v.32h.31.29v.31h.33"/><path d="m460.13 423.58v-.32-.31-.29-.31h.33v-.29l.32-.31v-.31-.31h.28v-.31-.29-.31-.32h.32.28.32v.32.31h.31v.29h.31v.31.31h.29v.31h.31v.31h.29v.29h.33v.31h.29.31v.29h.32v.31h.28v.32h.32.31.29l.31.31h.31.29v.29"/><path d="m414.36 424.18v-.29-.31-.32l.31-.28v-.32h.31v-.31l.29-.29v-.31-.31l.31-.31v-.31l.32-.29v-.31-.32-.28h.28v.28.32.31.29.31.31h.32v.31.31.29h.31v.31.32h.31l.31.28.29.32.31.31h.29v.29h.31.31v.31h.32.28.32.28.34"/><path d="m374.45 422.09v-.67h.29l.31-.72v-.68l.33-.72.29-1.36h.31l.29-1.37v-.72l.31-.7v-.69h.32.31v.69.7h.29.31l.29 1.41v.68h.31l.31.67v.69l.31.72h.31.29.31.29v.68h.31v.72h.32.31.29"/><path d="m344.23 419.57.29-.63v-.64h.31v-.65l.31-.65v-.62-.65h.29.34v-.63h.29.31.31l.29.63h.31v.65h.31l.29.62h.31v.65h.31v.65.64h.29.31.32v.63h.31v.65h.29v.62h.31.31v.65"/><path d="m414.74 397.94v-.31-.29-.31l.32-.31.28-.31v-.31-.29h.32v-.31l.28-.32.32-.28v-.32-.31l.31.31v.32h.31v.28.32l.31.6v.31.31h.29v.31.31h.31v.29h.29l.31.31h.31v.32.28h.32.28.32v.32.31h.31.31.31.29.31v.29h.29"/><path d="m371.4 391.87v-.29-.31-.29h.29v-.33-.31l.31-.29h.29l.31-.6v-.31l.34-.32.28-.31v-.29h.32.28v.29l.32.63h.62v.31.6h.29l.31.29v.31h.29v.33.29h.31v.31h.31l.31.29.32.31v.32h.28l.32.31h.31v.29h.29v.31h.31.31.29.31"/></g></g><g style="clip-path:url(#as)"><g style="clip-path:url(#at)"><text style="font-size:5.62;font-family:Droid Sans" transform="matrix(1 0 0 -1 504.82 446.11)"><tspan x="0 2.37 3.64 6.2 9 10.16 13.12 16.07 17.41 20.21 22.58 24.48" y="0">Live objects</tspan></text></g></g><g style="fill:none;stroke-width:.72;stroke-linecap:round;stroke-linejoin:round;stroke-miterlimit:10"><path d="m494.11 449.83v-.31-.34-.28-.92l.29-.28.31-.63v-.31l.29-.89.31-.65.31-.6v-.28h.32v-.32-.31.31.32l.28.6.32.6v.33.29l.28.31h.32v.89l.33.34v.6l.29.6.31.28v.34.31h.29v.29h.31l.29.31.34.29h.31.29v.31h.31l.29.31.31.32h.31.31.29.31l.29.28h.31l.34.32h.29.31.29.31.29.33" style="stroke:#177d36"/><path d="m415.03 370.18v-.32h.31v-.28l.29-.34v-.29h.31v-.31-.31l.32-.29h.28v-.31-.31h.34v-.29-.31-.32-.28h.29v-.32-.31.31h.31v.32.28.32.31l.31.29v.31l.29.31.31.29v.31l.31.31.29.29h.31v.34h.32.28v.28h.32.31v.32h.31.31.29.31v.28" style="stroke:#177d36"/><g style="stroke:#9c0"><path d="m383.98 413.16 27.09-16.73"/><path d="m408.17 401.09 2.9-4.66-5.49.48"/><path d="m455.62 394.9-29.91.6"/><path d="m430.58 392.95-4.87 2.55 4.97 2.37"/></g></g></g></svg>