<svg height="146.5mm" viewBox="0 0 809.22 519.1" width="228.38mm" xmlns="http://www.w3.org/2000/svg" xmlns:xlink="http://www.w3.org/1999/xlink"><marker id="a" orient="auto" refX="0" refY="0" style="overflow:visible"><path d="m2.31 0-3.46 2v-4z" style="fill:#808080;fill-rule:evenodd;stroke:#808080;stroke-width:.4pt"/></marker><marker id="b" orient="auto" refX="0" refY="0" style="overflow:visible"><path d="m2.31 0-3.46 2v-4z" style="fill:#808080;fill-rule:evenodd;stroke:#808080;stroke-width:.4pt"/></marker><marker id="c" orient="auto" refX="0" refY="0" style="overflow:visible"><path d="m2.31 0-3.46 2v-4z" style="fill:#808080;fill-rule:evenodd;stroke:#808080;stroke-width:.4pt"/></marker><marker id="d" orient="auto" refX="0" refY="0" style="overflow:visible"><path d="m2.31 0-3.46 2v-4z" style="fill:#808080;fill-rule:evenodd;stroke:#808080;stroke-width:.4pt"/></marker><marker id="e" orient="auto" refX="0" refY="0" style="overflow:visible"><path d="m2.31 0-3.46 2v-4z" style="fill:#f00;fill-rule:evenodd;stroke:#f00;stroke-width:.4pt"/></marker><marker id="f" orient="auto" refX="0" refY="0" style="overflow:visible"><path d="m2.31 0-3.46 2v-4z" style="fill:#f00;fill-rule:evenodd;stroke:#f00;stroke-width:.4pt"/></marker><marker id="g" orient="auto" refX="0" refY="0" style="overflow:visible"><path d="m2.31 0-3.46 2v-4z" style="fill:#ffa500;fill-rule:evenodd;stroke:#ffa500;stroke-width:.4pt"/></marker><marker id="h" orient="auto" refX="0" refY="0" style="overflow:visible"><path d="m2.31 0-3.46 2v-4z" style="fill:#ffa500;fill-rule:evenodd;stroke:#ffa500;stroke-width:.4pt"/></marker><marker id="i" orient="auto" refX="0" refY="0" style="overflow:visible"><path d="m2.31 0-3.46 2v-4z" style="fill:#ffa500;fill-rule:evenodd;stroke:#ffa500;stroke-width:.4pt"/></marker><marker id="j" orient="auto" refX="0" refY="0" style="overflow:visible"><path d="m2.31 0-3.46 2v-4z" style="fill:#f00;fill-rule:evenodd;stroke:#f00;stroke-width:.4pt"/></marker><text x="358.54" y="423.64"><tspan x="358.54" y="423.64"/></text><text x="-167.03" y="342.65"><tspan x="-167.03" y="342.65"/></text><path d="m78.95 325.26h391.12v158.07h-391.12z" style="fill:none;stroke:#daa520;stroke-width:1.1;stroke-dasharray:6.6 2.2"/><path d="m296.06 56.1h167.1v42.23h-167.1z" style="fill:none;stroke:#32cd32;stroke-width:1.1"/><text x="192.42" y="307.91"><tspan x="192.42" y="307.91"/></text><path d="m261.34 137.43-33.92 192.07" style="fill:#808080;fill-rule:evenodd;stroke:#808080;marker-end:url(#c)"/><g style="fill:none;stroke:#006400;stroke-width:1.32;stroke-miterlimit:10" transform="matrix(.73 0 0 .92 44.49 -60.35)"><ellipse cx="461.35" cy="99.25" rx="136.03" ry="13.54"/><path d="m596.66 286.22c0 10.54-60.9 19.09-136.03 19.09s-136.03-8.55-136.03-19.09"/><path d="m325.32 288.89v-188.49m270.61 0v188.49"/></g><text style="font-size:10;font-family:Droid Sans;letter-spacing:-.5;word-spacing:0" x="351.37" y="29.71"><tspan style="font-weight:bold" x="351.37" y="29.71">SSD 240 Go</tspan><tspan x="351.37" y="39.71">- scheduler noop</tspan></text><text style="font-size:10;font-family:Droid Sans;letter-spacing:-.5;word-spacing:0" x="301.74" y="69.41"><tspan style="font-weight:bold" x="301.74" y="69.41">Lenneth 32 Go</tspan><tspan x="301.74" y="79.41">- ext4 : noatime, discard</tspan><tspan x="301.74" y="89.41">- system root partition</tspan></text><path d="m296.61 105.87h165.78v42.23h-165.78z" style="fill:none;stroke:#32cd32;stroke-width:1.1"/><text style="font-size:10;font-family:Droid Sans;letter-spacing:-.5;word-spacing:0" x="300.42" y="119.04"><tspan style="font-weight:bold" x="300.42" y="119.04">Lucian 16 Go</tspan><tspan x="300.42" y="129.04">- Btrfs : noatime, trim, ssd, autodefrag</tspan><tspan x="300.42" y="139.04">- Home partition</tspan></text><g style="fill:none;stroke:#006400;stroke-width:1.02;stroke-miterlimit:10" transform="matrix(1 0 0 1.11 -66.17 -121.82)"><ellipse cx="237.16" cy="301.46" rx="99.08" ry="16.89"/><path d="m335.71 534.65c0 13.15-44.36 23.8-99.08 23.8s-99.08-10.66-99.08-23.8"/><path d="m138.08 537.98v-235.08m197.11 0v235.08"/></g><g transform="matrix(1 0 0 .75 -128.37 78.65)"><text x="479.08" y="324.9"><tspan x="479.08" y="324.9"/></text><g style="fill:none;stroke:#006400;stroke-width:1.24;stroke-miterlimit:10"><ellipse cx="506.48" cy="301.46" rx="99.08" ry="16.89"/><path d="m605.03 534.65c0 13.15-44.36 23.8-99.08 23.8s-99.08-10.66-99.08-23.8"/><path d="m407.39 537.98v-235.08m197.11 0v235.08"/></g></g><g style="font-size:10;font-family:Droid Sans;letter-spacing:-.5;word-spacing:0"><text x="348.06" y="309.62"><tspan style="font-weight:bold" x="348.06" y="309.62">Hard disk 2To</tspan></text><text x="140.41" y="217.01"><tspan style="font-weight:bold" x="140.41" y="217.01">Hard disk 3To</tspan></text><text x="303.73" y="173.3"><tspan style="font-weight:bold" x="303.73" y="173.3">Badrach 170 Go</tspan><tspan x="303.73" y="183.3">- windows partition</tspan></text></g><path d="m296.28 158.14h165.78v42.23h-165.78z" style="fill:none;stroke:#32cd32;stroke-width:1.1"/><g style="font-size:10;font-family:Droid Sans;letter-spacing:-.5;word-spacing:0"><text x="92.64" xml:space="preserve" y="447.92"><tspan x="92.64" y="447.92"><tspan style="font-weight:bold"> Aelia</tspan></tspan><tspan x="92.64" y="457.92">- noatime, autodefrag, noexec</tspan><tspan x="92.64" y="467.92">- Important docs/data</tspan></text><text x="91.32" y="397.63"><tspan style="font-weight:bold" x="91.32" y="397.63">Belenus</tspan><tspan x="91.32" y="407.63">- noatime</tspan><tspan x="91.32" y="417.63">- Important projects</tspan></text><text x="91.98" y="344.69"><tspan style="font-weight:bold" x="91.98" y="344.69">Kashell</tspan><tspan x="91.98" y="354.69">- noatime, autodefrag, noexec</tspan><tspan x="91.98" y="364.69">- Important but not backed-up</tspan></text><text x="90.06" y="256.18"><tspan style="font-weight:bold" x="90.06" y="256.18">Gandar 1To</tspan><tspan x="90.06" y="266.18">- ext4 : noatime, data=writeback</tspan><tspan x="90.06" y="276.18">- Temp data/binaries</tspan></text></g><g style="fill:none;stroke:#32cd32;stroke-width:1.1"><path d="m85.91 242.34h165.78v42.23h-165.78z"/><path d="m86.51 331.51h240.55v42.23h-240.55z"/><path d="m86.18 383.79h240.55v42.23h-240.55z"/><path d="m86.84 434.74h240.55v42.23h-240.55z"/></g><g style="font-size:10;font-family:Droid Sans;letter-spacing:-.5;word-spacing:0"><text x="362.62" y="408.88"><tspan x="362.62" y="408.88">Belenus_snapshot</tspan></text><text x="365.27" y="457.84"><tspan x="365.27" y="457.84">Aelia_snapshot</tspan></text><text x="365.27" y="353.95"><tspan x="365.27" y="353.95">Lucian_snapshot</tspan></text></g><g style="fill:none;stroke:#32cd32;stroke-width:1.1"><path d="m335.65 339.45h128.72v23.71h-128.72z"/><path d="m335.98 393.71h128.72v23.71h-128.72z"/><path d="m335.98 442.02h128.72v23.71h-128.72z"/></g><text style="font-size:10;letter-spacing:-.5;word-spacing:0;font-family:Droid Sans" x="82.18" y="310.75"><tspan style="font-weight:bold;fill:#f00" x="82.18" y="310.75">Btrfs RAID1 (mirrored)</tspan><tspan x="82.18" y="320.75">- Composed of subvolumes</tspan></text><g style="stroke:#808080"><path d="m261.3 138.13-21.35 243.69" style="fill:#808080;fill-rule:evenodd;marker-end:url(#b)"/><path d="m260.64 138.79-1.5 293.98" style="fill:#808080;fill-rule:evenodd;marker-end:url(#a)"/><path d="m295.71 120.93-34.64 17.22-31.3 101.49" style="fill:none;marker-end:url(#d)"/></g><text style="font-size:10;font-family:Droid Sans;letter-spacing:-.5;word-spacing:0" x="230.94" y="131.62"><tspan x="230.94" y="131.62">symbolic</tspan><tspan x="230.94" y="141.62">links</tspan></text><path d="m462.47 126.22 10.87 25.28-19.64 185.32" style="fill:none;stroke:#f00;marker-end:url(#j)"/><text style="font-size:10;font-family:Droid Sans;letter-spacing:-.5;word-spacing:0" x="417.54" y="258"><tspan x="417.54" y="258">btrfs: send/recieve</tspan></text><ellipse cx="637.57" cy="420.79" rx="100.25" ry="67.5" style="fill:none;stroke:#00ced1;stroke-width:1.08;stroke-linejoin:bevel;stroke-miterlimit:10"/><text style="font-size:10;font-family:Droid Sans;letter-spacing:-.5;word-spacing:0" x="601.5" y="370.5"><tspan style="font-weight:bold" x="601.5" y="370.5">Amazon Glacier</tspan></text><path d="m569.56 383.79h131.62v48.19h-131.62z" style="fill:none;stroke:#008b8b;stroke-width:1.1"/><text style="font-size:10;font-family:Droid Sans;letter-spacing:-.5;word-spacing:0" x="573.05" y="394.98"><tspan style="font-weight:bold" x="573.05" y="394.98">Current Vault</tspan></text><path d="m577.51 402.32h61.89v23.04h-61.89z" style="fill:none;stroke:#008b8b;stroke-width:1.1"/><text style="font-size:10;font-family:Droid Sans;letter-spacing:-.5;word-spacing:0" x="582.31" y="416.15"><tspan x="582.31" y="416.15">Primal copy</tspan></text><g transform="translate(-75.46 121.74)"><path d="m727.38 276.32h33.44v23.04h-33.44z" style="fill:none;stroke:#008b8b;stroke-width:1.1"/><text style="font-size:10;font-family:Droid Sans;letter-spacing:-.5;word-spacing:0" x="733.18" y="290.49"><tspan x="733.18" y="290.49">Delta</tspan></text><g style="fill:none;stroke:#008b8b;stroke-width:1.1"><path d="m761.14 278.97h2.33v23.04h-33.44v-2.26"/><path d="m763.79 281.78h2.33v23.04h-33.44v-2.26"/></g></g><text style="font-size:10;font-family:Droid Sans;letter-spacing:-.5;word-spacing:0" x="600.75" y="456.8"><tspan style="font-weight:bold" x="600.75" y="456.8">Backup Vault</tspan></text><g style="fill:none"><path d="m595.78 442.65h76.86v28.66h-76.86z" style="stroke:#008b8b;stroke-width:1.1"/><g style="stroke:#f00"><path d="m464.64 405.64 102.78-.63" style="marker-end:url(#f)"/><path d="m464.67 452.5 102.12-37.02" style="marker-end:url(#e)"/></g></g><text style="font-size:10;font-family:Droid Sans;letter-spacing:-.5;word-spacing:0" x="487.69" y="424.09"><tspan style="font-weight:bold;fill:#f00" x="487.69" y="424.09">btrfs send</tspan></text><path d="m565.91 214.32-93.86 117.25" style="fill:none;stroke:#ffa500;marker-end:url(#i)"/><text style="font-size:10;font-family:Droid Sans;letter-spacing:-.5;word-spacing:0" x="568.02" y="212.54"><tspan x="568.02" y="212.54">Hide partitions using grub</tspan><tspan x="568.02" y="222.54">when booting windows</tspan></text><g style="fill:none;stroke:#ffa500"><path d="m565.94 214.03-102.24-140.59" style="marker-end:url(#g)"/><path d="m565.34 214.03-102.24-86.11" style="marker-end:url(#h)"/></g></svg>