<svg height="200" width="800" viewBox="0 0 393.64 160.95" xmlns="http://www.w3.org/2000/svg" xmlns:xlink="http://www.w3.org/1999/xlink"><clipPath id="a"><path d="m448.06 594.43h37.03v7.08h-37.03z" style="clip-rule:evenodd"/></clipPath><clipPath id="b"><path d="m448.06 594.48h37.03v7.03h-37.03z" style="clip-rule:evenodd"/></clipPath><clipPath id="c"><path d="m312.17 591.91h37.03v7.1h-37.03z" style="clip-rule:evenodd"/></clipPath><clipPath id="d"><path d="m312.17 591.98h37.03v7.03h-37.03z" style="clip-rule:evenodd"/></clipPath><clipPath id="e"><path d="m383.71 521.3h38.18v7.1h-38.18z" style="clip-rule:evenodd"/></clipPath><clipPath id="f"><path d="m383.71 521.38h38.18v7.03h-38.18z" style="clip-rule:evenodd"/></clipPath><clipPath id="g"><path d="m383.71 514.27h44.71v7.1h-44.71z" style="clip-rule:evenodd"/></clipPath><clipPath id="h"><path d="m383.71 514.34h44.71v7.03h-44.71z" style="clip-rule:evenodd"/></clipPath><clipPath id="i"><path d="m359.54 545.47h41.06v7.08h-41.06z" style="clip-rule:evenodd"/></clipPath><clipPath id="j"><path d="m359.54 545.54h41.06v7.01h-41.06z" style="clip-rule:evenodd"/></clipPath><clipPath id="k"><path d="m359.54 538.44h43.25v7.1h-43.25z" style="clip-rule:evenodd"/></clipPath><clipPath id="l"><path d="m359.54 538.51h43.25v7.03h-43.25z" style="clip-rule:evenodd"/></clipPath><clipPath id="m"><path d="m325.03 567.43h41.04v7.1h-41.04z" style="clip-rule:evenodd"/></clipPath><clipPath id="n"><path d="m325.03 567.5h41.04v7.03h-41.04z" style="clip-rule:evenodd"/></clipPath><clipPath id="o"><path d="m325.03 560.42h44.69v7.08h-44.69z" style="clip-rule:evenodd"/></clipPath><clipPath id="p"><path d="m325.03 560.47h44.69v7.03h-44.69z" style="clip-rule:evenodd"/></clipPath><clipPath id="q"><path d="m266.02 522.55h38.18v7.1h-38.18z" style="clip-rule:evenodd"/></clipPath><clipPath id="r"><path d="m266.02 522.62h38.18v7.03h-38.18z" style="clip-rule:evenodd"/></clipPath><clipPath id="s"><path d="m266.02 515.54h44.71v7.08h-44.71z" style="clip-rule:evenodd"/></clipPath><clipPath id="t"><path d="m266.02 515.59h44.71v7.03h-44.71z" style="clip-rule:evenodd"/></clipPath><clipPath id="u"><path d="m264.46 595.37h56.88v7.08h-56.88z" style="clip-rule:evenodd"/></clipPath><clipPath id="v"><path d="m264.46 595.44h56.88v7.01h-56.88z" style="clip-rule:evenodd"/></clipPath><clipPath id="w"><path d="m442.42 546.72h38.16v7.1h-38.16z" style="clip-rule:evenodd"/></clipPath><clipPath id="x"><path d="m442.42 546.79h38.16v7.03h-38.16z" style="clip-rule:evenodd"/></clipPath><clipPath id="y"><path d="m442.42 539.71h41.81v7.08h-41.81z" style="clip-rule:evenodd"/></clipPath><clipPath id="z"><path d="m442.42 539.76h41.81v7.03h-41.81z" style="clip-rule:evenodd"/></clipPath><clipPath id="A"><path d="m406.63 484.58h55.87v7.1h-55.87z" style="clip-rule:evenodd"/></clipPath><clipPath id="B"><path d="m406.63 484.66h55.87v7.03h-55.87z" style="clip-rule:evenodd"/></clipPath><clipPath id="C"><path d="m340.73 595.37h61.75v7.08h-61.75z" style="clip-rule:evenodd"/></clipPath><clipPath id="D"><path d="m340.73 595.44h61.75v7.01h-61.75z" style="clip-rule:evenodd"/></clipPath><clipPath id="E"><path d="m340.73 588.34h44.69v7.1h-44.69z" style="clip-rule:evenodd"/></clipPath><clipPath id="F"><path d="m340.73 588.41h44.69v7.03h-44.69z" style="clip-rule:evenodd"/></clipPath><clipPath id="G"><path d="m361.44 569.95h61.78v7.08h-61.78z" style="clip-rule:evenodd"/></clipPath><clipPath id="H"><path d="m361.44 570h61.78v7.03h-61.78z" style="clip-rule:evenodd"/></clipPath><clipPath id="I"><path d="m361.44 562.92h61.78v7.1h-61.78z" style="clip-rule:evenodd"/></clipPath><clipPath id="J"><path d="m361.44 562.99h61.78v7.03h-61.78z" style="clip-rule:evenodd"/></clipPath><clipPath id="K"><path d="m432.05 516.91h105.26v7.1h-105.26z" style="clip-rule:evenodd"/></clipPath><clipPath id="L"><path d="m432.05 516.98h105.26v7.03h-105.26z" style="clip-rule:evenodd"/></clipPath><clipPath id="M"><path d="m432.05 509.88h68.93v7.1h-68.93z" style="clip-rule:evenodd"/></clipPath><clipPath id="N"><path d="m432.05 509.95h68.93v7.03h-68.93z" style="clip-rule:evenodd"/></clipPath><g transform="matrix(1.25 0 0 -1.25 -305.14 759.05)"><g style="fill:none;stroke-width:.74;stroke-linecap:round;stroke-linejoin:round;stroke-miterlimit:10"><g style="stroke:#3165bb"><path d="m309.41 605.62h81.86v-20.07h-81.86z"/><path d="m446.54 606.86h67.16v-20.06h-67.16z"/><path d="m406.39 498.91h41.71v-20.06h-41.71z"/></g><path d="m290.54 553.25h25.44v-15.03h-25.44z" style="stroke:#ed1c24"/><path d="m326.64 574.61h25.42v-13.8h-25.42z" style="stroke:#000"/><path d="m360.46 552.96h25.39v-15.05h-25.39z" style="stroke:#ed1c24"/><g style="stroke:#000"><path d="m268.49 530.06h25.39v-15.02h-25.39z"/><path d="m305.83 529.75h25.42v-13.8h-25.42z"/><path d="m342.24 602.26h44.23v-13.8h-44.23z"/><path d="m385.22 528.48h25.44v-13.75h-25.44z"/></g><path d="m443.93 554.23h25.41v-15.02h-25.41z" style="stroke:#ed1c24"/><g style="stroke:#000"><path d="m480.02 575.57h25.42v-13.78h-25.42z"/><path d="m326.66 564.86-19.15-12.26"/><path d="m352.06 564.86 23.08-11.92"/><path d="m290.54 540.7-7.36-10.64"/><path d="m315.98 543.53 4.54-13.78"/><path d="m364.66 537.91-4.42-10.08"/><path d="m382.51 537.91 9.75-9.43"/><path d="m480.02 564.24-17.78-10.01"/></g></g><g style="clip-path:url(#a)"><g style="clip-path:url(#b)"><text style="font-size:5.76;font-family:Droid Sans" transform="matrix(1 0 0 -1 451.94 596.06)"><tspan x="0 3.09 6.11 9.83 11.1" y="0">CPU 2</tspan></text></g></g><g style="clip-path:url(#c)"><g style="clip-path:url(#d)"><text style="font-size:5.78;font-family:Droid Sans" transform="matrix(1 0 0 -1 316.06 593.54)"><tspan x="0 3.08 6.07 9.77 11.02" y="0">CPU 1</tspan></text></g></g><g style="clip-path:url(#e)"><g style="clip-path:url(#f)"><text style="font-size:5.78;font-family:Droid Sans" transform="matrix(1 0 0 -1 387.62 522.94)"><tspan x="0 2.99 4.45 8.01 9.27 12.2" y="0">PID 66</tspan></text></g></g><g style="clip-path:url(#g)"><g style="clip-path:url(#h)"><text style="font-size:5.78;font-family:Droid Sans" transform="matrix(1 0 0 -1 387.62 515.9)"><tspan x="0 2.82 4.11 8.73 11.61 12.79 15.73 18.66" y="0">Time 999</tspan></text></g></g><g style="clip-path:url(#i)"><g style="clip-path:url(#j)"><text style="font-size:5.76;font-family:Droid Sans" transform="matrix(1 0 0 -1 363.46 547.1)"><tspan x="0 3 4.45 8.01 9.26 12.18 15.1" y="0">PID 124</tspan></text></g></g><g style="clip-path:url(#k)"><g style="clip-path:url(#l)"><text style="font-size:5.78;font-family:Droid Sans" transform="matrix(1 0 0 -1 363.46 540.07)"><tspan x="0 2.82 4.11 8.73 11.61 12.79 15.73 18.66" y="0">Time 900</tspan></text></g></g><g style="clip-path:url(#m)"><g style="clip-path:url(#n)"><text style="font-size:5.78;font-family:Droid Sans" transform="matrix(1 0 0 -1 328.92 569.06)"><tspan x="0 3.02 4.46 8.03 9.28 12.22 15.17" y="0">PID 159</tspan></text></g></g><g style="clip-path:url(#o)"><g style="clip-path:url(#p)"><text style="font-size:5.76;font-family:Droid Sans" transform="matrix(1 0 0 -1 328.92 562.06)"><tspan x="0 2.83 4.15 8.8 11.66 12.87 15.82 18.77" y="0">Time 542</tspan></text></g></g><g style="clip-path:url(#q)"><g style="clip-path:url(#r)"><text style="font-size:5.78;font-family:Droid Sans" transform="matrix(1 0 0 -1 269.93 524.18)"><tspan x="0 2.99 4.45 8.01 9.27 12.2" y="0">PID 64</tspan></text></g></g><g style="clip-path:url(#s)"><g style="clip-path:url(#t)"><text style="font-size:5.76;font-family:Droid Sans" transform="matrix(1 0 0 -1 269.93 517.18)"><tspan x="0 2.81 4.11 8.73 11.6 12.79 15.71 18.63" y="0">Time 159</tspan></text></g></g><path d="m272.69 530.06v65.52h36.72" style="fill:none;stroke:#3165bb;stroke-width:.74;stroke-linecap:round;stroke-linejoin:round;stroke-miterlimit:10"/><path d="m304.34 598.1 5.04-2.52-5.04-2.52" style="fill:none;stroke:#3165bb;stroke-width:.74;stroke-linecap:round;stroke-linejoin:round;stroke-miterlimit:10"/><g style="clip-path:url(#u)"><g style="clip-path:url(#v)"><text style="font-size:5.76;font-family:Droid Sans" transform="matrix(1 0 0 -1 268.34 597)"><tspan x="0 3.7 6.57 9.1 11.02 12.29 14.22 17.3 18.55 21.57 24.44 25.7 27.71 30.74" y="0">Next to be run</tspan></text></g></g><g style="clip-path:url(#w)"><g style="clip-path:url(#x)"><text style="font-size:5.78;font-family:Droid Sans" transform="matrix(1 0 0 -1 446.3 548.35)"><tspan x="0 3.02 4.46 8.03 9.28 12.22" y="0">PID 78</tspan></text></g></g><g style="clip-path:url(#y)"><g style="clip-path:url(#z)"><text style="font-size:5.76;font-family:Droid Sans" transform="matrix(1 0 0 -1 446.3 541.34)"><tspan x="0 2.83 4.15 8.8 11.66 12.87 15.82" y="0">Time 52</tspan></text></g></g><g style="clip-path:url(#A)"><g style="clip-path:url(#B)"><text style="font-size:5.78;font-family:Droid Sans" transform="matrix(1 0 0 -1 410.52 486.22)"><tspan x="0 2.44 5.51 8.28 11.29 12.54 15.69 18.46 19.76 22.53 25.55 27.99 30.87" y="0">Load Balancer</tspan></text></g></g><g style="clip-path:url(#C)"><g style="clip-path:url(#D)"><text style="font-size:5.76;font-family:Droid Sans" transform="matrix(1 0 0 -1 344.62 597)"><tspan x="0 3.07 6.07 8.08 10.09 12.98 15.98 17.91 19.23 21.88 23.13 25.14 28.14 31.14 34.15 35.47 38.47" y="0">Currently running</tspan></text></g></g><g style="clip-path:url(#E)"><g style="clip-path:url(#F)"><text style="font-size:5.78;font-family:Droid Sans" transform="matrix(1 0 0 -1 344.62 589.97)"><tspan x="0 2.82 4.15 8.77 11.65 12.86 15.81 18.75" y="0">Time 750</tspan></text></g></g><g style="fill:none;stroke-width:.74;stroke-linecap:round;stroke-linejoin:round;stroke-miterlimit:10"><path d="m344.45 528.48h25.39v-13.75h-25.39z" style="stroke:#000"/><g style="stroke:#3165bb"><path d="m367.8 588.46-16.97-60"/><path d="m354.65 532.63-3.82-4.17-1.05 5.54"/></g></g><g style="clip-path:url(#G)"><g style="clip-path:url(#H)"><text style="font-size:5.76;font-family:Droid Sans" transform="matrix(1 0 0 -1 365.33 571.58)"><tspan x="0 3.84 6.86 9.3 12.18 13.43 15.19 16.51 19.54 20.86 23.11 26.14 29.01 32.03 33.34 36.37 39.39" y="0">Once finished put</tspan></text></g></g><g style="clip-path:url(#I)"><g style="clip-path:url(#J)"><text style="font-size:5.78;font-family:Droid Sans" transform="matrix(1 0 0 -1 365.33 564.55)"><tspan x="0 1.44 3.38 4.7 7.73 10.48 12.93 15.56 16.81 18.75 21.82 23.02 24.96 27.99 30.87 32.18 34.12 36.14 39.02" y="0">It back to the tree</tspan></text></g></g><g style="fill:none;stroke-width:.74;stroke-linecap:round;stroke-linejoin:round;stroke-miterlimit:10"><path d="m479.71 603.79h25.42v-13.77h-25.42z" style="stroke:#ed1c24"/><g style="stroke:#f60"><path d="m405.43 514.34 15.07-16.03"/><path d="m418.9 503.76 1.63-5.45-5.33 1.97"/><path d="m442.49 498.91 71.88 41.21"/><path d="m508.73 539.83 5.64.29-3.17-4.7"/></g><g style="stroke:#000"><path d="m509.23 553.9h25.42v-13.78h-25.42z"/><path d="m505.32 566.04 23.09-11.9"/></g></g><g style="clip-path:url(#K)"><g style="clip-path:url(#L)"><text style="font-size:5.78;font-family:Droid Sans" transform="matrix(1 0 0 -1 435.94 518.54)"><tspan x="0 2.82 5.61 8.24 11.15 12.42 15.46 17.48 20.56 23 25.9 28.17 30.45 33.34 35.62 36.77 38.53 40.55 43.65 48.3 49.5 52.58 55.61 59.33 62.28 63.55 65.52 68.6 69.88 72.96 75.99 79.7" y="0">Take processes from CPU1 to CPU2</tspan></text></g></g><g style="clip-path:url(#M)"><g style="clip-path:url(#N)"><text style="font-size:5.78;font-family:Droid Sans" transform="matrix(1 0 0 -1 435.94 511.51)"><tspan x="0 2.82 5.92 7.2 10.23 13 14.33 17.1 20.14 22.59 25.47 26.76 28.72 31.75 34.63 35.92 37.25 40.33 43.1" y="0">To balance the load</tspan></text></g></g></g></svg>
