<svg height="250" width="800" viewBox="0 0 365.41 184.09" xml:space="preserve" xmlns="http://www.w3.org/2000/svg" xmlns:xlink="http://www.w3.org/1999/xlink"><clipPath id="a"><path d="m272.3 754.46h57.24v7.1h-57.24z" style="clip-rule:evenodd"/></clipPath><clipPath id="b"><path d="m272.3 754.54h57.24v7.03h-57.24z" style="clip-rule:evenodd"/></clipPath><clipPath id="c"><path d="m325.03 757.61h38.11v7.1h-38.11z" style="clip-rule:evenodd"/></clipPath><clipPath id="d"><path d="m325.03 757.68h38.09v7.03h-38.09z" style="clip-rule:evenodd"/></clipPath><clipPath id="e"><path d="m325.03 750.6h49.7v7.08h-49.7z" style="clip-rule:evenodd"/></clipPath><clipPath id="f"><path d="m325.03 750.65h49.7v7.03h-49.7z" style="clip-rule:evenodd"/></clipPath><clipPath id="g"><path d="m304.32 697.68h36.65v7.08h-36.65z" style="clip-rule:evenodd"/></clipPath><clipPath id="h"><path d="m304.32 697.73h36.65v7.03h-36.65z" style="clip-rule:evenodd"/></clipPath><clipPath id="i"><path d="m304.32 690.65h44.18v7.1h-44.18z" style="clip-rule:evenodd"/></clipPath><clipPath id="j"><path d="m304.32 690.72h44.18v7.03h-44.18z" style="clip-rule:evenodd"/></clipPath><clipPath id="k"><path d="m376.82 757.3h38.09v7.1h-38.09z" style="clip-rule:evenodd"/></clipPath><clipPath id="l"><path d="m376.82 757.37h38.09v7.03h-38.09z" style="clip-rule:evenodd"/></clipPath><clipPath id="m"><path d="m376.82 750.26h46.25v7.1h-46.25z" style="clip-rule:evenodd"/></clipPath><clipPath id="n"><path d="m376.82 750.34h46.25v7.03h-46.25z" style="clip-rule:evenodd"/></clipPath><clipPath id="o"><path d="m422.95 756.98h38.11v7.08h-38.11z" style="clip-rule:evenodd"/></clipPath><clipPath id="p"><path d="m422.95 757.06h38.11v7.01h-38.11z" style="clip-rule:evenodd"/></clipPath><clipPath id="q"><path d="m422.95 749.95h50.86v7.1h-50.86z" style="clip-rule:evenodd"/></clipPath><clipPath id="r"><path d="m422.95 750.02h50.86v7.03h-50.86z" style="clip-rule:evenodd"/></clipPath><clipPath id="s"><path d="m476.3 754.46h57.26v7.1h-57.26z" style="clip-rule:evenodd"/></clipPath><clipPath id="t"><path d="m476.3 754.54h57.26v7.03h-57.26z" style="clip-rule:evenodd"/></clipPath><clipPath id="u"><path d="m294.89 732.82h47.52v7.1h-47.52z" style="clip-rule:evenodd"/></clipPath><clipPath id="v"><path d="m294.91 732.89h47.5v7.03h-47.5z" style="clip-rule:evenodd"/></clipPath><clipPath id="w"><path d="m342.29 734.71h70.06v7.08h-70.06z" style="clip-rule:evenodd"/></clipPath><clipPath id="x"><path d="m342.29 734.76h70.06v7.03h-70.06z" style="clip-rule:evenodd"/></clipPath><clipPath id="y"><path d="m342.29 727.68h32.45v7.08h-32.45z" style="clip-rule:evenodd"/></clipPath><clipPath id="z"><path d="m342.29 727.75h32.45v7.01h-32.45z" style="clip-rule:evenodd"/></clipPath><clipPath id="A"><path d="m346.37 718.39h58.82v7.08h-58.82z" style="clip-rule:evenodd"/></clipPath><clipPath id="B"><path d="m346.37 718.44h58.82v7.03h-58.82z" style="clip-rule:evenodd"/></clipPath><clipPath id="C"><path d="m346.37 711.36h40.25v7.1h-40.25z" style="clip-rule:evenodd"/></clipPath><clipPath id="D"><path d="m346.37 711.43h40.25v7.03h-40.25z" style="clip-rule:evenodd"/></clipPath><clipPath id="E"><path d="m444.29 702.07h64.92v7.08h-64.92z" style="clip-rule:evenodd"/></clipPath><clipPath id="F"><path d="m444.29 702.12h64.92v7.03h-64.92z" style="clip-rule:evenodd"/></clipPath><clipPath id="G"><path d="m444.29 695.04h31.66v7.1h-31.66z" style="clip-rule:evenodd"/></clipPath><clipPath id="H"><path d="m444.29 695.11h31.66v7.03h-31.66z" style="clip-rule:evenodd"/></clipPath><clipPath id="I"><path d="m443.98 683.23h49.42v7.1h-49.42z" style="clip-rule:evenodd"/></clipPath><clipPath id="J"><path d="m443.98 683.3h49.42v7.03h-49.42z" style="clip-rule:evenodd"/></clipPath><clipPath id="K"><path d="m399.41 678.22h43.9v7.08h-43.9z" style="clip-rule:evenodd"/></clipPath><clipPath id="L"><path d="m399.41 678.29h43.87v7.01h-43.87z" style="clip-rule:evenodd"/></clipPath><clipPath id="M"><path d="m347.95 677.59h62.69v7.08h-62.69z" style="clip-rule:evenodd"/></clipPath><clipPath id="N"><path d="m347.95 677.64h62.69v7.03h-62.69z" style="clip-rule:evenodd"/></clipPath><clipPath id="O"><path d="m347.95 670.56h55.92v7.1h-55.92z" style="clip-rule:evenodd"/></clipPath><clipPath id="P"><path d="m347.95 670.63h55.92v7.03h-55.92z" style="clip-rule:evenodd"/></clipPath><clipPath id="Q"><path d="m346.06 660.34h60.34v7.08h-60.34z" style="clip-rule:evenodd"/></clipPath><clipPath id="R"><path d="m346.06 660.38h60.34v7.03h-60.34z" style="clip-rule:evenodd"/></clipPath><clipPath id="S"><path d="m346.06 653.3h32.76v7.1h-32.76z" style="clip-rule:evenodd"/></clipPath><clipPath id="T"><path d="m346.06 653.38h32.76v7.03h-32.76z" style="clip-rule:evenodd"/></clipPath><clipPath id="U"><path d="m345.43 642.12h45.14v7.1h-45.14z" style="clip-rule:evenodd"/></clipPath><clipPath id="V"><path d="m345.43 642.19h45.12v7.03h-45.12z" style="clip-rule:evenodd"/></clipPath><clipPath id="W"><path d="m396.91 638.04h85.99v7.1h-85.99z" style="clip-rule:evenodd"/></clipPath><clipPath id="X"><path d="m396.91 638.11h85.99v7.03h-85.99z" style="clip-rule:evenodd"/></clipPath><clipPath id="Y"><path d="m396.91 638.11h85.99v7.03h-85.99z" style="clip-rule:evenodd"/></clipPath><clipPath id="Z"><path d="m417.62 622.68h40.68v7.08h-40.68z" style="clip-rule:evenodd"/></clipPath><clipPath id="aa"><path d="m417.62 622.73h40.68v7.03h-40.68z" style="clip-rule:evenodd"/></clipPath><clipPath id="ab"><path d="m344.5 632.09h45.38v7.08h-45.38z" style="clip-rule:evenodd"/></clipPath><clipPath id="ac"><path d="m344.5 632.14h45.38v7.03h-45.38z" style="clip-rule:evenodd"/></clipPath><clipPath id="ad"><path d="m344.5 625.06h57.31v7.1h-57.31z" style="clip-rule:evenodd"/></clipPath><clipPath id="ae"><path d="m344.5 625.13h57.31v7.03h-57.31z" style="clip-rule:evenodd"/></clipPath><g transform="matrix(1.25 0 0 -1.25 -311.17 959.93)"><g style="fill:none;stroke-width:.74;stroke-linecap:round;stroke-linejoin:round;stroke-miterlimit:10"><path d="m273.31 767.57h39.55v-18.82h-39.55z" style="stroke:#548dd4"/><path d="m303.31 705.43h30.43v-15.33h-30.43z" style="stroke:#ed1c24"/><path d="m325.1 767.4h37.66v-18.82h-37.66z" style="stroke:#177d36"/></g><g style="clip-path:url(#a)"><g style="clip-path:url(#b)"><text style="font-size:5.78;font-family:Droid Sans" transform="matrix(1 0 0 -1 276.19 756.1)"><tspan x="0 3.71 5.95 8.83 10.85 12.09 15.13 17.15 20.2 22.64 25.52 27.79 30.05 31.25" y="0">User process 1</tspan></text></g></g><path d="m292.13 748.75-.6-84.72" style="fill:none;stroke:#548dd4;stroke-width:.74;stroke-linecap:round;stroke-linejoin:round;stroke-miterlimit:10"/><g style="clip-path:url(#c)"><g style="clip-path:url(#d)"><text style="font-size:5.78;font-family:Droid Sans" transform="matrix(1 0 0 -1 328.92 759.24)"><tspan x="0 3.01 5.89 7.91 10.94 13.82" y="0">Kernel</tspan></text></g></g><g style="clip-path:url(#e)"><g style="clip-path:url(#f)"><text style="font-size:5.78;font-family:Droid Sans" transform="matrix(1 0 0 -1 328.92 752.23)"><tspan x="0 2.65 5.28 7.54 9.47 12.35 17.01 18.21 21.29 24.04 25.37" y="0">System Call</tspan></text></g></g><path d="m343.94 748.75-1.89-117.67" style="fill:none;stroke:#177d36;stroke-width:.74;stroke-linecap:round;stroke-linejoin:round;stroke-miterlimit:10"/><g style="clip-path:url(#g)"><g style="clip-path:url(#h)"><text style="font-size:5.76;font-family:Droid Sans" transform="matrix(1 0 0 -1 308.21 699.31)"><tspan x="0 2.83 4.15 8.77 11.64" y="0">Timer</tspan></text></g></g><g style="clip-path:url(#i)"><g style="clip-path:url(#j)"><text style="font-size:5.78;font-family:Droid Sans" transform="matrix(1 0 0 -1 308.21 692.28)"><tspan x="0 1.33 4.32 6.26 9.14 11.16 13.18 16.18 19.18" y="0">interrupt</tspan></text></g></g><g style="fill:none;stroke-width:.74;stroke-linecap:round;stroke-linejoin:round;stroke-miterlimit:10"><path d="m291.84 739.99 51.6.31" style="stroke:#548dd4"/><path d="m338.35 742.8 5.09-2.5-5.04-2.56" style="stroke:#548dd4"/><g style="stroke:#177d36"><path d="m343.44 728.69h4.73v-16.63h-4.73z"/><path d="m376.63 767.52h37.66v-18.84h-37.66z"/></g></g><g style="clip-path:url(#k)"><g style="clip-path:url(#l)"><text style="font-size:5.78;font-family:Droid Sans" transform="matrix(1 0 0 -1 380.71 758.93)"><tspan x="0 3.01 5.89 7.91 10.9 13.78" y="0">Kernel</tspan></text></g></g><g style="clip-path:url(#m)"><g style="clip-path:url(#n)"><text style="font-size:5.78;font-family:Droid Sans" transform="matrix(1 0 0 -1 380.71 751.9)"><tspan x="0 2.65 5.1 8.09 10.97 13.97 16.97 18.3 21.18" y="0">Scheduler</tspan></text></g></g><g style="fill:none;stroke-width:.74;stroke-linecap:round;stroke-linejoin:round;stroke-miterlimit:10;stroke:#177d36"><path d="m441.74 706.2h4.71v-11.28h-4.71z"/><path d="m343.8 734.95 51.91-.65"/><path d="m390.67 736.9 5.04-2.6-5.09-2.47"/><path d="m423.07 766.9h37.66v-18.82h-37.66z"/><path d="m441.91 748.25-.93-85.06"/></g><g style="clip-path:url(#o)"><g style="clip-path:url(#p)"><text style="font-size:5.76;font-family:Droid Sans" transform="matrix(1 0 0 -1 426.84 758.62)"><tspan x="0 3.02 5.89 7.91 10.93 13.8" y="0">Kernel</tspan></text></g></g><g style="clip-path:url(#q)"><g style="clip-path:url(#r)"><text style="font-size:5.78;font-family:Droid Sans" transform="matrix(1 0 0 -1 426.84 751.58)"><tspan x="0 1.44 4.58 8.47 9.72 12.76 15.51 18.54 21.56 22.89 25.77" y="0">IRQ handler</tspan></text></g></g><g style="fill:none;stroke-width:.74;stroke-linecap:round;stroke-linejoin:round;stroke-miterlimit:10"><path d="m329.5 705.12 13.94 6.94" style="stroke:#ed1c24"/><path d="m337.8 712.08 5.64-.02-3.41-4.52" style="stroke:#ed1c24"/><g style="stroke:#177d36"><path d="m343.63 706.7 97.9-.31"/><path d="m436.49 708.94 5.06-2.55-5.06-2.52"/><path d="m394.2 646.7h4.7v-11.3h-4.7z"/><path d="m441.29 692.52h4.7v-11.28h-4.7z"/><path d="m441.22 678.77-46.44-.63"/><path d="m399.82 675.67-5.09 2.45 5.01 2.62"/><path d="m394.78 670.92h-51.7"/><path d="m348.17 668.38-5.09 2.52 5.09 2.54"/><path d="m342.74 665.86h4.71v-11.31h-4.71z"/><path d="m395.83 748.39-1.68-127.34"/><path d="m342.36 651.14 51.91-.91"/><path d="m389.26 652.82 5.01-2.61-5.11-2.43"/></g><path d="m477.34 767.57h39.55v-18.84h-39.55z" style="stroke:#00f"/></g><g style="clip-path:url(#s)"><g style="clip-path:url(#t)"><text style="font-size:5.78;font-family:Droid Sans" transform="matrix(1 0 0 -1 480.19 756.1)"><tspan x="0 3.71 5.99 8.89 10.91 12.18 15.21 17.23 20.31 22.75 25.65 27.93 30.2 31.4" y="0">User process 2</tspan></text></g></g><g style="fill:none;stroke-width:.74;stroke-linecap:round;stroke-linejoin:round;stroke-miterlimit:10"><path d="m496.15 748.73-.6-123.63" style="stroke:#00f"/><g style="stroke:#177d36"><path d="m394.49 629.81h101.06"/><path d="m490.46 632.35 5.09-2.54-5.09-2.52"/></g></g><g style="clip-path:url(#u)"><g style="clip-path:url(#v)"><text style="font-size:5.78;font-family:Droid Sans" transform="matrix(1 0 0 -1 298.8 734.45)"><tspan x="0 3.08 5.83 7.16 8.47 9.77 12.41 15.29 17.28 20.28 23.16" y="0">Call kernel</tspan></text></g></g><g style="clip-path:url(#w)"><g style="clip-path:url(#x)"><text style="font-size:5.76;font-family:Droid Sans" transform="matrix(1 0 0 -1 346.18 736.34)"><tspan x="0 3.34 5.77 8.8 11.82 13.14 15.15 18.07 19.34 22.37 24.38 27.28 30.18 34.82 37.85 39.78 41.1 44.18" y="0">Acquire preemption</tspan></text></g></g><g style="clip-path:url(#y)"><g style="clip-path:url(#z)"><text style="font-size:5.76;font-family:Droid Sans" transform="matrix(1 0 0 -1 346.18 729.31)"><tspan x="0 1.32 4.39 6.83" y="0">lock</tspan></text></g></g><g style="clip-path:url(#A)"><g style="clip-path:url(#B)"><text style="font-size:5.76;font-family:Droid Sans" transform="matrix(1 0 0 -1 350.26 720.02)"><tspan x="0 3.72 6.79 9.81 11.08 13.09 16 18.89 21.92 23.85 25.87 28.63 31.66 33.59" y="0">Non reentrant </tspan></text></g></g><g style="clip-path:url(#C)"><g style="clip-path:url(#D)"><text style="font-size:5.78;font-family:Droid Sans" transform="matrix(1 0 0 -1 350.26 712.99)"><tspan x="0 2.02 5.08 8.12 10.06 11.39 14.4" y="0">routine</tspan></text></g></g><g style="clip-path:url(#E)"><g style="clip-path:url(#F)"><text style="font-size:5.76;font-family:Droid Sans" transform="matrix(1 0 0 -1 448.2 703.7)"><tspan x="0 2.62 5.48 7.43 8.68 11.68 14.55 17.44 20.44 23.3 25.32 28.18 30.44 32.88 35.88 38.75" y="0">Set need_resched</tspan></text></g></g><g style="clip-path:url(#G)"><g style="clip-path:url(#H)"><text style="font-size:5.78;font-family:Droid Sans" transform="matrix(1 0 0 -1 448.2 696.67)"><tspan x="0 1.76 3.05 5.82" y="0">flag</tspan></text></g></g><g style="clip-path:url(#I)"><g style="clip-path:url(#J)"><text style="font-size:5.78;font-family:Droid Sans" transform="matrix(1 0 0 -1 447.86 684.86)"><tspan x="0 3.57 6.35 9.36 12.4 13.7 16.6 17.91 19.38 22.52" y="0">Handle IRQ</tspan></text></g></g><g style="clip-path:url(#K)"><g style="clip-path:url(#L)"><text style="font-size:5.76;font-family:Droid Sans" transform="matrix(1 0 0 -1 403.3 679.85)"><tspan x="0 2.28 4.71 7.74 10.64 13.67 16.69 18.02" y="0">schedule</tspan></text></g></g><g style="clip-path:url(#M)"><g style="clip-path:url(#N)"><text style="font-weight:bold;font-size:5.76;font-family:Droid Sans" transform="matrix(1 0 0 -1 351.84 679.22)"><tspan x="0 3.06 5.88 8.95 12.02 15.09 17.08 18.39 20.72 23.16 26.23 29.11 32.18 35.25 36.69" y="0">Cannot schedule</tspan></text></g></g><g style="clip-path:url(#O)"><g style="clip-path:url(#P)"><text style="font-weight:bold;font-size:5.78;font-family:Droid Sans" transform="matrix(1 0 0 -1 351.84 672.19)"><tspan x="0 2.45 5.52 7.96 10.74 11.97 14.77 17.21 20.28 23.36 24.78 26.86 29.74" y="0">Lock acquired</tspan></text></g></g><g style="clip-path:url(#Q)"><g style="clip-path:url(#R)"><text style="font-size:5.76;font-family:Droid Sans" transform="matrix(1 0 0 -1 349.94 661.97)"><tspan x="0 2.64 3.97 6.99 8.32 10.57 13.59 14.9 16.91 19.82 22.72 25.74 27.67 29.7 32.46 35.48" y="0">Finish reentrant</tspan></text></g></g><g style="clip-path:url(#S)"><g style="clip-path:url(#T)"><text style="font-size:5.78;font-family:Droid Sans" transform="matrix(1 0 0 -1 349.94 654.94)"><tspan x="0 3.02 5.78 7.79" y="0">part</tspan></text></g></g><g style="clip-path:url(#U)"><g style="clip-path:url(#V)"><text style="font-size:5.78;font-family:Droid Sans" transform="matrix(1 0 0 -1 349.32 643.75)"><tspan x="0 2.82 4.15 7.03 8.36 11.38 12.63 13.96 17 19.45" y="0">Yield lock</tspan></text></g></g><g style="clip-path:url(#W)"><g style="clip-path:url(#X)"><text style="font-size:5.78;font-family:Droid Sans" transform="matrix(1 0 0 -1 400.8 639.67)"><tspan x="0 2.65 5.1 8.09 10.97 13.97 16.97 18.3 21.18" y="0">Schedule </tspan></text></g><g style="clip-path:url(#Y)"><text style="font-weight:bold;font-size:5.78;font-family:Droid Sans" transform="matrix(1 0 0 -1 423.26 639.67)"><tspan x="0 1.82 4.59 7.46 9.51 12.59 15.47 16.9 18.16 21.23 23.29 26.18 29.06 33.76 36.83 38.84 41.73 44.8" y="0">(kernel preempted)</tspan></text></g></g><g style="clip-path:url(#Z)"><g style="clip-path:url(#aa)"><text style="font-size:5.78;font-family:Droid Sans" transform="matrix(1 0 0 -1 421.51 624.31)"><tspan x="0 2.02 4.9 7.16 10.15 14.77" y="0">resume</tspan></text></g></g><path d="m342.12 640.87h4.68v-16.61h-4.68z" style="fill:none;stroke:#177d36;stroke-width:.74;stroke-linecap:round;stroke-linejoin:round;stroke-miterlimit:10"/><g style="clip-path:url(#ab)"><g style="clip-path:url(#ac)"><text style="font-size:5.76;font-family:Droid Sans" transform="matrix(1 0 0 -1 348.38 633.72)"><tspan x="0 2.64 3.97 6.96 8.28 10.54 13.54 14.85 16.23 19.28" y="0">Finish job</tspan></text></g></g><g style="clip-path:url(#ad)"><g style="clip-path:url(#ae)"><text style="font-size:5.78;font-family:Droid Sans" transform="matrix(1 0 0 -1 348.38 626.69)"><tspan x="0 1.75 4.75 7.82 9.76 11.01 13.89 16.4 19.28 21.72 24.72 26.65 29.53 32.54" y="0">(not executed)</tspan></text></g></g></g></svg>
