<svg height="135.53mm" viewBox="0 0 823.26 480.24" width="232.34mm" xmlns="http://www.w3.org/2000/svg" xmlns:xlink="http://www.w3.org/1999/xlink"><marker id="a" orient="auto" refX="0" refY="0" style="overflow:visible"><path d="m2.31 0-3.46 2v-4z" style="fill:#c00;fill-rule:evenodd;stroke:#c00;stroke-width:.4pt"/></marker><marker id="b" orient="auto" refX="0" refY="0" style="overflow:visible"><path d="m2.31 0-3.46 2v-4z" style="fill:#c00;fill-rule:evenodd;stroke:#c00;stroke-width:.4pt"/></marker><marker id="c" orient="auto" refX="0" refY="0" style="overflow:visible"><path d="m2.31 0-3.46 2v-4z" style="fill:#c00;fill-rule:evenodd;stroke:#c00;stroke-width:.4pt"/></marker><marker id="d" orient="auto" refX="0" refY="0" style="overflow:visible"><path d="m2.31 0-3.46 2v-4z" style="fill:#c00;fill-rule:evenodd;stroke:#c00;stroke-width:.4pt"/></marker><marker id="e" orient="auto" refX="0" refY="0" style="overflow:visible"><path d="m2.31 0-3.46 2v-4z" style="fill:#c00;fill-rule:evenodd;stroke:#c00;stroke-width:.4pt"/></marker><marker id="f" orient="auto" refX="0" refY="0" style="overflow:visible"><path d="m2.31 0-3.46 2v-4z" style="fill:#c00;fill-rule:evenodd;stroke:#c00;stroke-width:.4pt"/></marker><marker id="g" orient="auto" refX="0" refY="0" style="overflow:visible"><path d="m2.31 0-3.46 2v-4z" style="fill:#c00;fill-rule:evenodd;stroke:#c00;stroke-width:.4pt"/></marker><g transform="translate(173.88 -251.66)"><g style="fill:none"><ellipse cx="134.15" cy="363.39" rx="37.88" ry="18.53" style="stroke:#ff8c00;stroke-width:.78"/><g style="stroke:#73d216;stroke-width:1.1"><ellipse cx="105.76" cy="697.65" rx="49.63" ry="23.75"/><path d="m154.34 689.53c2.36 2.92 3.66 6.12 3.66 9.47 0 14.01-22.78 25.38-50.87 25.38-16.67 0-31.46-4-40.74-10.17"/><path d="m157.43 691.85c2.38 3.02 3.69 6.32 3.69 9.77 0 14.46-22.96 26.19-51.29 26.19-16.8 0-31.71-4.12-41.07-10.5"/></g><g style="stroke:#3465a4;stroke-width:1.22" transform="matrix(1 0 0 .81 -142.66 212.47)"><path d="m203.41 269.18h95v65.77h-95z"/><path d="m300.09 273.02h1.9v65.77h-95v-2.51"/><path d="m303.44 276.75h1.9v65.77h-95v-2.51"/></g><path d="m65.82 303.63s12.22-.78 14.8 3.59c2.76 4.67-7.28 11.24-4.29 15.7 2.98 4.45 12.47-2.46 15.78 1.95 3.3 4.41-4.08 11.98-2.77 16.95 1.31 4.98 8.56 10.68 8.56 10.68" style="stroke:#c00;marker-end:url(#a)"/></g><g style="font-size:10;font-family:Droid Sans;word-spacing:0"><text style="letter-spacing:-.5" x="75.19" y="458.48"><tspan x="75.19" y="458.48">Other processes</tspan><tspan x="75.19" y="468.48">from user</tspan></text><g style="letter-spacing:0"><text x="-29.18" xml:space="preserve" y="298.75"><tspan x="-29.18" y="298.75">Signal to <tspan style="font-weight:bold">pid -1</tspan> delivers </tspan><tspan x="-29.18" y="308.75">to all user processes</tspan></text><text x="125.79" y="367.06"><tspan x="125.79" y="367.06">UID</tspan></text></g></g><g style="fill:none"><path d="m135.15 382.14-20.8 49.91" style="stroke:#f57900"/><path d="m171.36 367.19 55.89-.1" style="stroke:#f57900"/><g style="stroke:#3465a4"><path d="m235.45 294.64h88.6v22.93h-88.6z"/><g style="stroke-width:1.64" transform="matrix(.72 0 0 .63 96.15 238.97)"><path d="m203.41 269.18h95v65.77h-95z"/><path d="m300.09 273.02h1.9v65.77h-95v-2.51"/><path d="m303.44 276.75h1.9v65.77h-95v-2.51"/></g></g></g><text style="font-size:10;font-family:Droid Sans;letter-spacing:0;word-spacing:0" x="245.67" y="387.42"><tspan x="245.67" y="387.42">Process group</tspan><tspan x="245.67" y="397.42">(setpgid)</tspan></text><text style="font-size:10;font-family:Droid Sans;letter-spacing:0;word-spacing:0" x="247.15" y="308.51"><tspan x="247.15" y="308.51">Parent process</tspan></text><path d="m193.36 293.49s12.22-.78 14.8 3.59c2.76 4.67-7.28 11.24-4.29 15.7 2.98 4.45 12.47-2.46 15.78 1.95 3.3 4.41-4.08 11.98-2.77 16.95 1.31 4.98 8.56 10.68 8.56 10.68" style="fill:none;stroke:#c00;marker-end:url(#b)"/><text style="font-size:10;font-family:Droid Sans;letter-spacing:0;word-spacing:0" x="93.61" xml:space="preserve" y="290"><tspan x="93.61" y="290">Signal to <tspan style="font-weight:bold">pid 0</tspan> delivers </tspan><tspan x="93.61" y="300">to all in process group</tspan></text><g style="fill:none"><path d="m239.9 340.58h76.74v33.3h-76.74z" style="stroke:#3465a4"/><path d="m227.89 334.82h100.4v126.7h-100.4z" style="stroke:#729fcf;stroke-dasharray:6 2"/><path d="m280.49 317.88.02 23.12" style="stroke:#3465a4"/><path d="m358.74 258.29s-12.22-.78-14.8 3.59c-2.76 4.67 7.28 11.24 4.29 15.7-2.98 4.45-12.47-2.46-15.78 1.95-3.3 4.41 4.08 11.98 2.77 16.95-1.31 4.98-8.56 10.68-8.56 10.68" style="stroke:#c00;marker-end:url(#c)"/></g><text style="font-size:10;font-family:Droid Sans;letter-spacing:0;word-spacing:0" x="359.41" y="262.57"><tspan x="359.41" y="262.57">Receives SIGCHLD</tspan><tspan x="359.41" y="272.57">When child dies</tspan></text><ellipse cx="279.83" cy="547.6" rx="100.77" ry="38.53" style="fill:none;stroke:#73d216"/><text style="font-size:10;font-family:Droid Sans;letter-spacing:0;word-spacing:0" x="246.49" y="522.41"><tspan x="246.49" y="522.41">Session (setsid)</tspan></text><g style="fill:none;stroke:#3465a4;stroke-width:1.11;stroke-dasharray:6.65 1.11" transform="matrix(1 0 0 .81 -146.44 353.75)"><path d="m203.41 269.18h95v65.77h-95z"/><path d="m300.09 273.02h1.9v65.77h-95v-2.51"/><path d="m303.44 276.75h1.9v65.77h-95v-2.51"/></g><text style="font-size:10;font-family:Droid Sans;letter-spacing:-.5;word-spacing:0" x="77.7" y="599.02"><tspan x="77.7" y="599.02">Other groups</tspan><tspan x="77.7" y="609.02">in session</tspan></text><path d="m142.43 572.36 36.95-28.02" style="fill:none;stroke:#73d216"/><path d="m275.55 509.15-.11-47.83" style="fill:none;stroke:#73d216"/><text style="font-size:10;font-family:Droid Sans;letter-spacing:0;word-spacing:0" x="278.64" xml:space="preserve" y="472.26"><tspan x="278.64" y="472.26">Foreground group (<tspan style="font-weight:bold">only 1</tspan> per session)</tspan></text><path d="m204.78 530.58h154.55v35.9h-154.55z" style="fill:none;stroke:#3465a4"/><text style="font-size:10;font-family:Droid Sans;letter-spacing:0;word-spacing:0" x="208.7" y="541.67"><tspan x="208.7" y="541.67">Session leader</tspan><tspan x="208.7" y="551.67">(the one that creates the session,</tspan><tspan x="208.7" y="561.67">normally bash)</tspan></text><path d="m22.65 557.03s12.22-.78 14.8 3.59c2.76 4.67-7.28 11.24-4.29 15.7 2.98 4.45 12.47-2.46 15.78 1.95 3.3 4.41-4.08 11.98-2.77 16.95 1.31 4.98 8.56 10.68 8.56 10.68" style="fill:none;stroke:#c00;marker-end:url(#d)"/><text style="font-size:10;font-family:Droid Sans;letter-spacing:0;word-spacing:0" x="-67.67" y="551.68"><tspan x="-67.67" y="551.68">SIGTTIN to block process</tspan><tspan x="-67.67" y="561.68">when reading stdin</tspan></text><path d="m362.45 339.43s-12.22-.78-14.8 3.59c-2.76 4.67 7.28 11.24 4.29 15.7-2.98 4.45-12.47-2.46-15.78 1.95-3.3 4.41 4.08 11.98 2.77 16.95-1.31 4.98-8.56 10.68-8.56 10.68" style="fill:none;stroke:#c00;marker-end:url(#e)"/><text style="font-size:10;font-family:Droid Sans;letter-spacing:0;word-spacing:0" x="362.74" y="337.41"><tspan x="362.74" y="337.41">Receives keyboard interrupts</tspan><tspan x="362.74" y="347.41">from the terminal (ex SIGINT, SIGQUIT)</tspan></text><ellipse cx="277.06" cy="646.52" rx="57.61" ry="20.38" style="fill:none;stroke:#4e9a06"/><text style="font-size:10;font-family:Droid Sans;letter-spacing:0;word-spacing:0" x="256.12" y="650.22"><tspan x="256.12" y="650.22">TTY / PTS</tspan></text><path d="m276.19 626.53-.12-40.78" style="fill:none;stroke:#4e9a06"/><text style="font-size:10;font-family:Droid Sans;letter-spacing:0;word-spacing:0" x="278.35" xml:space="preserve" y="598.36"><tspan x="278.35" y="598.36">Controlling ternimal (<tspan style="font-weight:bold">only 1</tspan> per session)</tspan><tspan x="278.35" y="608.36">And a terminal can only drive 1 session</tspan></text><text style="font-size:10;font-family:Droid Sans;letter-spacing:0;word-spacing:0" x="74.22" y="701.72"><tspan x="74.22" y="701.72">Other sessions</tspan></text><path d="m219.89 650.25-66.47 40.34" style="fill:none;stroke:#4e9a06"/><path d="m393.94 497.99s-12.22-.78-14.8 3.59c-2.76 4.67 7.28 11.24 4.29 15.7-2.98 4.45-12.47-2.46-15.78 1.95-3.3 4.41 4.08 11.98 2.77 16.95-1.31 4.98-8.56 10.68-8.56 10.68" style="fill:none;stroke:#c00;marker-end:url(#f)"/><text style="font-size:10;font-family:Droid Sans;letter-spacing:0;word-spacing:0" x="393.86" y="494.12"><tspan x="393.86" y="494.12">Receives SIGHUP in case</tspan><tspan x="393.86" y="504.12">of terminal disconnection</tspan><tspan x="393.86" y="514.12">or closing terminal emulator</tspan></text><path d="m361.7 546.02s17.84-.44 21.61 2.02c4.02 2.62-10.63 6.31-6.27 8.82 4.36 2.5 18.21-1.38 23.04 1.1s-5.95 6.73-4.05 9.52c1.91 2.79 12.5 6 12.5 6" style="fill:none;stroke:#c00;marker-end:url(#g)"/><text style="font-size:10;font-family:Droid Sans;letter-spacing:0;word-spacing:0" x="410.53" y="570.07"><tspan x="410.53" y="570.07">Bash will forward the SIGHUP</tspan><tspan x="410.53" y="580.07">signal to its child processes</tspan></text></g></svg>