<svg height="210.69" viewBox="0 0 465.48 210.69" width="465.48" xml:space="preserve" xmlns="http://www.w3.org/2000/svg" xmlns:xlink="http://www.w3.org/1999/xlink"><clipPath id="a"><path d="m288.41 740.18h81.84v7.3h-81.84z" style="clip-rule:evenodd"/></clipPath><clipPath id="b"><path d="m288.41 740.26h81.84v7.22h-81.84z" style="clip-rule:evenodd"/></clipPath><clipPath id="c"><path d="m288.41 740.26h81.84v7.22h-81.84z" style="clip-rule:evenodd"/></clipPath><clipPath id="d"><path d="m288.41 740.26h81.84v7.22h-81.84z" style="clip-rule:evenodd"/></clipPath><clipPath id="e"><path d="m295.82 720.82h75.26v7.3h-75.26z" style="clip-rule:evenodd"/></clipPath><clipPath id="f"><path d="m295.82 720.89h75.26v7.22h-75.26z" style="clip-rule:evenodd"/></clipPath><clipPath id="g"><path d="m294.53 705.65h73.92v7.3h-73.92z" style="clip-rule:evenodd"/></clipPath><clipPath id="h"><path d="m294.53 705.72h73.92v7.22h-73.92z" style="clip-rule:evenodd"/></clipPath><clipPath id="i"><path d="m294.53 698.42h48.94v7.3h-48.94z" style="clip-rule:evenodd"/></clipPath><clipPath id="j"><path d="m294.53 698.5h48.94v7.22h-48.94z" style="clip-rule:evenodd"/></clipPath><clipPath id="k"><path d="m410.02 696.98h41.38v7.3h-41.38z" style="clip-rule:evenodd"/></clipPath><clipPath id="l"><path d="m410.02 697.06h41.38v7.22h-41.38z" style="clip-rule:evenodd"/></clipPath><clipPath id="m"><path d="m406.46 706.99h37.63v7.3h-37.63z" style="clip-rule:evenodd"/></clipPath><clipPath id="n"><path d="m406.46 707.06h37.63v7.22h-37.63z" style="clip-rule:evenodd"/></clipPath><clipPath id="o"><path d="m407.42 754.1h41.38v7.3h-41.38z" style="clip-rule:evenodd"/></clipPath><clipPath id="p"><path d="m407.42 754.18h41.38v7.22h-41.38z" style="clip-rule:evenodd"/></clipPath><clipPath id="q"><path d="m404.9 763.73h37.63v7.3h-37.63z" style="clip-rule:evenodd"/></clipPath><clipPath id="r"><path d="m404.9 763.8h37.63v7.22h-37.63z" style="clip-rule:evenodd"/></clipPath><clipPath id="s"><path d="m531.1 769.22h53.38v7.3h-53.38z" style="clip-rule:evenodd"/></clipPath><clipPath id="t"><path d="m531.1 769.3h53.38v7.22h-53.38z" style="clip-rule:evenodd"/></clipPath><clipPath id="u"><path d="m315.5 633.7h48.55v7.3h-48.55z" style="clip-rule:evenodd"/></clipPath><clipPath id="v"><path d="m315.5 633.74h48.55v7.25h-48.55z" style="clip-rule:evenodd"/></clipPath><clipPath id="w"><path d="m315.5 626.47h30.29v7.3h-30.29z" style="clip-rule:evenodd"/></clipPath><clipPath id="x"><path d="m315.5 626.52h30.29v7.25h-30.29z" style="clip-rule:evenodd"/></clipPath><clipPath id="y"><path d="m314.54 669.19h48.53v7.3h-48.53z" style="clip-rule:evenodd"/></clipPath><clipPath id="z"><path d="m314.54 669.24h48.53v7.25h-48.53z" style="clip-rule:evenodd"/></clipPath><clipPath id="A"><path d="m314.54 661.97h30.53v7.3h-30.53z" style="clip-rule:evenodd"/></clipPath><clipPath id="B"><path d="m314.54 662.04h30.53v7.22h-30.53z" style="clip-rule:evenodd"/></clipPath><clipPath id="C"><path d="m329.06 762.46h51.58v7.27h-51.58z" style="clip-rule:evenodd"/></clipPath><clipPath id="D"><path d="m329.06 762.5h51.58v7.22h-51.58z" style="clip-rule:evenodd"/></clipPath><clipPath id="E"><path d="m264.84 765.02h64.61v7.3h-64.61z" style="clip-rule:evenodd"/></clipPath><clipPath id="F"><path d="m264.84 765.1h64.61v7.22h-64.61z" style="clip-rule:evenodd"/></clipPath><clipPath id="G"><path d="m264.84 757.8h41.26v7.3h-41.26z" style="clip-rule:evenodd"/></clipPath><clipPath id="H"><path d="m264.84 757.87h41.26v7.22h-41.26z" style="clip-rule:evenodd"/></clipPath><g transform="matrix(1.25 0 0 -1.25 -306.44 973.25)"><path d="m290.09 749.78h89.42v-57.48h-89.42z" style="fill:none;stroke:#3165bb;stroke-width:.77;stroke-linecap:round;stroke-linejoin:round;stroke-miterlimit:10"/><path d="m314.9 679.56h42.89v-20.64h-42.89z" style="fill:none;stroke:#3165bb;stroke-width:.77;stroke-linecap:round;stroke-linejoin:round;stroke-miterlimit:10"/><g style="clip-path:url(#a)"><g style="clip-path:url(#b)"><text style="font-size:5.95;font-family:Droid Sans" transform="matrix(1 0 0 -1 292.39 741.79)"><tspan x="0 3.17 6.02 8.54 11.64 14.61 15.92 19.08 20.89 22.2 25.36 28.45 29.87 32.84 35.35 37.37 39.7" y="0">Cache of objects </tspan></text></g><g style="clip-path:url(#c)"><text style="font-size:5.95;font-family:Droid Sans" transform="matrix(1 0 0 -1 333.26 741.79)"><tspan x="0" y="0">-</tspan></text></g><g style="clip-path:url(#d)"><text style="font-size:5.95;font-family:Droid Sans" transform="matrix(1 0 0 -1 336.43 741.79)"><tspan x="0 2.33 3.7 6.02 8.99 10.3" y="0">size N</tspan></text></g></g><path d="m296.02 731.81h64.51v-14.23h-64.51z" style="fill:none;stroke:#3165bb;stroke-width:.77;stroke-linecap:round;stroke-linejoin:round;stroke-miterlimit:10"/><path d="m296.14 714.02h64.51v-17.47h-64.51z" style="fill:none;stroke:#3165bb;stroke-width:.77;stroke-linecap:round;stroke-linejoin:round;stroke-miterlimit:10"/><g style="clip-path:url(#e)"><g style="clip-path:url(#f)"><text style="font-size:5.93;font-family:Droid Sans" transform="matrix(1 0 0 -1 299.83 722.42)"><tspan x="0 2.51 3.86 6.18 8.16 9.43 12.56 14.37 15.63 18.72 20.71 22.78 24.05 26.04 29.18 30.4 32.21 35.3 36.64 37.99 39.33 41.64 42.98 45.82 48.91" y="0">List of Ptr to full slabs</tspan></text></g></g><g style="clip-path:url(#g)"><g style="clip-path:url(#h)"><text style="font-size:5.93;font-family:Droid Sans" transform="matrix(1 0 0 -1 298.54 707.26)"><tspan x="0 2.51 3.86 6.18 8.16 9.47 12.63 14.44 15.73 18.82 20.8 22.87 24.17 26.15 29.32 30.54 33.65 36.47 38.54 40.52 41.87 44.71 46.04 47.39" y="0">List of Ptr to partially</tspan></text></g></g><g style="clip-path:url(#i)"><g style="clip-path:url(#j)"><text style="font-size:5.93;font-family:Droid Sans" transform="matrix(1 0 0 -1 298.54 700.03)"><tspan x="0 1.81 3.14 4.49 5.83 8.8 11.92 13.26 15.57 16.91 19.75 22.84" y="0">filled slabs</tspan></text></g></g><path d="m407.52 715.18h70.03v-38.72h-70.03z" style="fill:none;stroke:#3165bb;stroke-width:.77;stroke-linecap:round;stroke-linejoin:round;stroke-miterlimit:10"/><path d="m411.7 690.1h9.69v-9.68h-9.69z" style="fill:none;stroke:#008000;stroke-width:.77;stroke-linecap:round;stroke-linejoin:round;stroke-miterlimit:10"/><g style="clip-path:url(#k)"><g style="clip-path:url(#l)"><text style="font-size:5.93;font-family:Droid Sans" transform="matrix(1 0 0 -1 414.02 698.62)"><tspan x="0 2.72 4.79 7.74 10.69 12.02 13.37 15.69" y="0">Freelist</tspan></text></g></g><path d="m410.4 705.96h62.98v-11.98h-62.98z" style="fill:none;stroke:#3165bb;stroke-width:.77;stroke-linecap:round;stroke-linejoin:round;stroke-miterlimit:10"/><g style="clip-path:url(#m)"><g style="clip-path:url(#n)"><text style="font-size:5.93;font-family:Droid Sans" transform="matrix(1 0 0 -1 410.47 708.62)"><tspan x="0 3.09 5.93 8.68 11.63" y="0">Pages</tspan></text></g></g><g style="fill:none;stroke-width:.77;stroke-linecap:round;stroke-linejoin:round;stroke-miterlimit:10"><g style="stroke:#008000"><path d="m425.33 690.72h9.67v-9.67h-9.67z"/><path d="m451.44 690.07h9.7v-9.67h-9.7z"/><path d="m461.21 747.22h9.67v-9.7h-9.67z"/></g><g style="stroke:#3165bb"><path d="m480.77 712.08v-38.71h-67.78"/><path d="m483.72 708.79v-38.71h-67.78"/><path d="m404.93 772.3h70.03v-38.74h-70.03z"/></g><path d="m409.1 747.22h9.7v-9.7h-9.7z" style="stroke:#008000"/></g><g style="clip-path:url(#o)"><g style="clip-path:url(#p)"><text style="font-size:5.93;font-family:Droid Sans" transform="matrix(1 0 0 -1 411.43 755.74)"><tspan x="0 2.72 4.79 7.74 10.72 12.07 13.42 15.73" y="0">Freelist</tspan></text></g></g><path d="m407.81 763.08h63.62v-11.98h-63.62z" style="fill:none;stroke:#3165bb;stroke-width:.77;stroke-linecap:round;stroke-linejoin:round;stroke-miterlimit:10"/><g style="clip-path:url(#q)"><g style="clip-path:url(#r)"><text style="font-size:5.93;font-family:Droid Sans" transform="matrix(1 0 0 -1 408.91 765.36)"><tspan x="0 3.09 5.93 8.68 11.65" y="0">Pages</tspan></text></g></g><g style="fill:none;stroke-linecap:round;stroke-linejoin:round;stroke-miterlimit:10"><g style="stroke-width:.77"><path d="m422.74 747.84h9.67v-9.67h-9.67z" style="stroke:#008000"/><path d="m448.87 747.19h9.7v-9.67h-9.7z" style="stroke:#008000"/><path d="m478.18 769.2v-38.71h-67.78" style="stroke:#3165bb"/><path d="m481.15 765.94v-38.74h-67.77" style="stroke:#3165bb"/><path d="m435.31 747.53h9.7v-9.7h-9.7z" style="stroke:#008000"/><g style="stroke:#3165bb"><path d="m360.55 732.12 44.43 17.98"/><path d="m399.19 750.58 5.79-.46-3.84-4.37"/><path d="m360.67 712.7 46.9-16.46"/><path d="m403.51 700.39 4.03-4.15-5.76-.74"/></g></g><g style="stroke:#9436b8;stroke-width:.74"><path d="m532.1 778.22h60.99v-18.72h-60.99z"/><path d="m532.15 759.48h61.01v-18.72h-61.01z"/><path d="m532.1 741.12h60.99v-18.72h-60.99z"/><path d="m532.15 722.35h60.96v-18.72h-60.96z"/><path d="m532.1 703.7h60.99v-18.72h-60.99z"/><path d="m532.15 684.91h61.01v-18.72h-61.01z"/><path d="m532.1 666.58h60.99v-18.72h-60.99z"/><path d="m532.15 647.81h60.96v-18.72h-60.96z"/><path d="m532.1 629.14h60.99v-18.72h-60.99z"/></g></g><g style="clip-path:url(#s)"><g style="clip-path:url(#t)"><text style="font-size:5.95;font-family:Droid Sans" transform="matrix(1 0 0 -1 535.1 770.83)"><tspan x="0 3.09 5.92 8.68 11.65 12.93 14.75 16.8 19.63 24.4 27.36" y="0">Page frames</tspan></text></g></g><g style="fill:none;stroke-linecap:round;stroke-linejoin:round;stroke-miterlimit:10;stroke:#9436b8;stroke-width:.74"><path d="m474.7 750.12 57.45-65.21"/><path d="m530.69 690.55 1.46-5.64-5.4 2.21"/><path d="m474.36 750.12 57.77-27.77"/><path d="m528.55 726.96 3.58-4.61-5.81-.12"/><path d="m480.74 692.71 51.41 29.33"/><path d="m526.32 721.7 5.83.34-3.24-4.85"/><path d="m480.82 692.66 51.24 66.84"/><path d="m526.87 756.98 5.23 2.55-1.12-5.74"/></g><g style="clip-path:url(#u)"><g style="clip-path:url(#v)"><text style="font-size:5.95;font-family:Droid Sans" transform="matrix(1 0 0 -1 319.51 635.3)"><tspan x="0 3.17 6 8.52 11.62 14.58 15.89 18.22 19.56 21.89" y="0">Cache size</tspan></text></g></g><g style="clip-path:url(#w)"><g style="clip-path:url(#x)"><text style="font-size:5.95;font-family:Droid Sans" transform="matrix(1 0 0 -1 319.51 628.08)"><tspan x="0 2.78" y="0">?N</tspan></text></g></g><g style="clip-path:url(#y)"><g style="clip-path:url(#z)"><text style="font-size:5.95;font-family:Droid Sans" transform="matrix(1 0 0 -1 318.55 670.8)"><tspan x="0 3.14 5.98 8.47 11.56 14.53 15.79 18.09 19.44 21.74" y="0">Cache size</tspan></text></g></g><g style="clip-path:url(#A)"><g style="clip-path:url(#B)"><text style="font-size:5.95;font-family:Droid Sans" transform="matrix(1 0 0 -1 318.55 663.58)"><tspan x="0 3.02" y="0">2N</tspan></text></g></g><path d="m314.28 644.23h42.91v-20.64h-42.91z" style="fill:none;stroke:#3165bb;stroke-width:.77;stroke-linecap:round;stroke-linejoin:round;stroke-miterlimit:10"/><path d="m329.14 772.97h42.91v-14.5h-42.91z" style="fill:none;stroke:#3165bb;stroke-width:.77;stroke-linecap:round;stroke-linejoin:round;stroke-miterlimit:10"/><g style="clip-path:url(#C)"><g style="clip-path:url(#D)"><text style="font-size:5.93;font-family:Droid Sans" transform="matrix(1 0 0 -1 333.07 764.06)"><tspan x="0 3.16 5.98 8.48 11.6 14.55 15.82 18.93 21.88 24.7" y="0">Cache head</tspan></text></g></g><g style="clip-path:url(#E)"><g style="clip-path:url(#F)"><text style="font-size:5.93;font-family:Droid Sans" transform="matrix(1 0 0 -1 268.85 766.63)"><tspan x="0 5.08 7.92 9.25 10.6 13.74 16.24 17.48 20.64 21.97 23.31 26.27 29.38 31.37 32.63 35.14 37.97 39.34" y="0">Malloc Client call</tspan></text></g></g><g style="clip-path:url(#G)"><g style="clip-path:url(#H)"><text style="font-size:5.93;font-family:Droid Sans" transform="matrix(1 0 0 -1 268.85 759.41)"><tspan x="0 2.72 4.05 6.4 9.35 10.69 13.69" y="0">Size 2N</tspan></text></g></g><g style="fill:none;stroke-linecap:round;stroke-linejoin:round;stroke-miterlimit:10"><g style="stroke-width:.77"><g style="stroke:#ed1c24"><path d="m299.78 766.9 29.33-1.18"/><path d="m324.02 768.53 5.09-2.81-5.28-2.4"/><path d="m350.59 758.47.22-9.67"/><path d="m353.28 754.06-2.47-5.26-2.74 5.14"/><path d="m334.8 692.3 1.56-12.74"/><path d="m338.3 685.03-1.94-5.47-3.22 4.85"/></g><g style="stroke:#3165bb"><path d="m336.36 658.92-.62-14.69"/><path d="m338.54 649.3-2.8-5.07-2.38 5.31"/><path d="m406.27 659.95h70.03v-38.73h-70.03z"/></g><g style="stroke:#008000"><path d="m410.47 634.87h9.67v-9.69h-9.67z"/><path d="m424.08 635.5h9.67v-9.68h-9.67z"/><path d="m450.22 634.85h9.67v-9.67h-9.67z"/><path d="m423.77 649.68h9.67v-9.67h-9.67z"/></g><g style="stroke:#ed1c24"><path d="m410.52 649.37h9.7v-9.67h-9.7z"/><path d="m357.22 668.14 53.3-23.64"/><path d="m406.82 648.98 3.7-4.48-5.81-.27"/></g><g style="stroke:#008000"><path d="m438.89 698.47 6.12-18.72"/><path d="m445.85 685.51-.84-5.76-4.08 4.13"/><path d="m464.38 699.12 4.51-15.82"/><path d="m469.94 689.04-1.05-5.74-3.96 4.3"/></g></g><g style="stroke:#9436b8;stroke-width:.74"><path d="m476.3 644.26 55.85 21.96"/><path d="m526.37 666.7 5.78-.51-3.91-4.32"/><path d="m476.3 643.94 55.85-31.96"/><path d="m528.91 616.82 3.24-4.84-5.83.33"/></g></g></g></svg>