<svg height="250" viewBox="0 0 442.14 210.13" width="800" xml:space="preserve" xmlns="http://www.w3.org/2000/svg" xmlns:xlink="http://www.w3.org/1999/xlink">
<clipPath id="a">
<path d="m358.87 740.3h31.25v6.84h-31.25z" style="clip-rule:evenodd"/>
</clipPath>
<clipPath id="b">
<path d="m358.87 740.38h31.22v6.77h-31.22z" style="clip-rule:evenodd"/>
</clipPath>
<clipPath id="c">
<path d="m355.85 710.95h39.41v6.84h-39.41z" style="clip-rule:evenodd"/>
</clipPath>
<clipPath id="d">
<path d="m355.85 711h39.41v6.79h-39.41z" style="clip-rule:evenodd"/>
</clipPath>
<clipPath id="e">
<path d="m355.85 725.16h39.41v6.84h-39.41z" style="clip-rule:evenodd"/>
</clipPath>
<clipPath id="f">
<path d="m355.85 725.23h39.41v6.77h-39.41z" style="clip-rule:evenodd"/>
</clipPath>
<clipPath id="g">
<path d="m303.17 743.33h44.09v6.84h-44.09z" style="clip-rule:evenodd"/>
</clipPath>
<clipPath id="h">
<path d="m303.17 743.4h44.09v6.77h-44.09z" style="clip-rule:evenodd"/>
</clipPath>
<clipPath id="i">
<path d="m303.17 736.56h68.23v6.84h-68.23z" style="clip-rule:evenodd"/>
</clipPath>
<clipPath id="j">
<path d="m303.17 736.61h68.23v6.79h-68.23z" style="clip-rule:evenodd"/>
</clipPath>
<clipPath id="k">
<path d="m301.97 728.5h44.06v6.84h-44.06z" style="clip-rule:evenodd"/>
</clipPath>
<clipPath id="l">
<path d="m301.97 728.57h44.06v6.77h-44.06z" style="clip-rule:evenodd"/>
</clipPath>
<clipPath id="m">
<path d="m301.97 721.73h70.46v6.84h-70.46z" style="clip-rule:evenodd"/>
</clipPath>
<clipPath id="n">
<path d="m301.97 721.8h70.46v6.77h-70.46z" style="clip-rule:evenodd"/>
</clipPath>
<clipPath id="o">
<path d="m302.28 714.29h44.06v6.84h-44.06z" style="clip-rule:evenodd"/>
</clipPath>
<clipPath id="p">
<path d="m302.28 714.34h44.06v6.79h-44.06z" style="clip-rule:evenodd"/>
</clipPath>
<clipPath id="q">
<path d="m302.28 707.5h70.46v6.84h-70.46z" style="clip-rule:evenodd"/>
</clipPath>
<clipPath id="r">
<path d="m302.28 707.57h70.46v6.77h-70.46z" style="clip-rule:evenodd"/>
</clipPath>
<clipPath id="s">
<path d="m304.68 759.98h70.73v6.84h-70.73z" style="clip-rule:evenodd"/>
</clipPath>
<clipPath id="t">
<path d="m304.68 760.03h70.73v6.79h-70.73z" style="clip-rule:evenodd"/>
</clipPath>
<clipPath id="u">
<path d="m304.68 753.19h35.42v6.84h-35.42z" style="clip-rule:evenodd"/>
</clipPath>
<clipPath id="v">
<path d="m304.68 753.26h35.42v6.77h-35.42z" style="clip-rule:evenodd"/>
</clipPath>
<clipPath id="w">
<path d="m288.53 783.62h76.2v6.84h-76.2z" style="clip-rule:evenodd"/>
</clipPath>
<clipPath id="x">
<path d="m288.53 783.7h76.2v6.77h-76.2z" style="clip-rule:evenodd"/>
</clipPath>
<clipPath id="y">
<path d="m288.53 776.86h34.37v6.84h-34.37z" style="clip-rule:evenodd"/>
</clipPath>
<clipPath id="z">
<path d="m288.53 776.9h34.37v6.79h-34.37z" style="clip-rule:evenodd"/>
</clipPath>
<clipPath id="A">
<path d="m395.5 743.93h70.22v6.84h-70.22z" style="clip-rule:evenodd"/>
</clipPath>
<clipPath id="B">
<path d="m395.5 744h70.22v6.77h-70.22z" style="clip-rule:evenodd"/>
</clipPath>
<clipPath id="C">
<path d="m395.5 737.16h35.47v6.84h-35.47z" style="clip-rule:evenodd"/>
</clipPath>
<clipPath id="D">
<path d="m395.5 737.23h35.47v6.77h-35.47z" style="clip-rule:evenodd"/>
</clipPath>
<clipPath id="E">
<path d="m463.75 762.84h72.02v6.84h-72.02z" style="clip-rule:evenodd"/>
</clipPath>
<clipPath id="F">
<path d="m463.75 762.89h72.02v6.79h-72.02z" style="clip-rule:evenodd"/>
</clipPath>
<clipPath id="G">
<path d="m463.75 756.05h36.62v6.84h-36.62z" style="clip-rule:evenodd"/>
</clipPath>
<clipPath id="H">
<path d="m463.75 756.12h36.62v6.77h-36.62z" style="clip-rule:evenodd"/>
</clipPath>
<clipPath id="I">
<path d="m465.86 726.5h72.05v6.84h-72.05z" style="clip-rule:evenodd"/>
</clipPath>
<clipPath id="J">
<path d="m465.86 726.58h72.02v6.77h-72.02z" style="clip-rule:evenodd"/>
</clipPath>
<clipPath id="K">
<path d="m465.86 719.74h36.62v6.84h-36.62z" style="clip-rule:evenodd"/>
</clipPath>
<clipPath id="L">
<path d="m465.86 719.81h36.62v6.77h-36.62z" style="clip-rule:evenodd"/>
</clipPath>
<clipPath id="M">
<path d="m377.64 789.65h71.26v6.84h-71.26z" style="clip-rule:evenodd"/>
</clipPath>
<clipPath id="N">
<path d="m377.64 789.7h71.26v6.79h-71.26z" style="clip-rule:evenodd"/>
</clipPath>
<clipPath id="O">
<path d="m377.64 782.86h71.06v6.84h-71.06z" style="clip-rule:evenodd"/>
</clipPath>
<clipPath id="P">
<path d="m377.64 782.93h71.06v6.77h-71.06z" style="clip-rule:evenodd"/>
</clipPath>
<clipPath id="Q">
<path d="m541.1 762.41h54.48v6.84h-54.48z" style="clip-rule:evenodd"/>
</clipPath>
<clipPath id="R">
<path d="m541.1 762.46h54.48v6.79h-54.48z" style="clip-rule:evenodd"/>
</clipPath>
<clipPath id="S">
<path d="m299.86 674.02h73.06v6.84h-73.06z" style="clip-rule:evenodd"/>
</clipPath>
<clipPath id="T">
<path d="m299.86 674.09h73.06v6.77h-73.06z" style="clip-rule:evenodd"/>
</clipPath>
<clipPath id="U">
<path d="m368.57 682.99h69.36v13.61h-69.36z" style="clip-rule:evenodd"/>
</clipPath>
<clipPath id="V">
<path d="m368.57 689.83h69.36v6.77h-69.36z" style="clip-rule:evenodd"/>
</clipPath>
<clipPath id="W">
<path d="m368.57 683.04h69.36v6.79h-69.36z" style="clip-rule:evenodd"/>
</clipPath>
<clipPath id="X">
<path d="m295.92 662.52h31.22v6.84h-31.22z" style="clip-rule:evenodd"/>
</clipPath>
<clipPath id="Y">
<path d="m295.92 662.59h31.22v6.77h-31.22z" style="clip-rule:evenodd"/>
</clipPath>
<clipPath id="Z">
<path d="m349.18 666.17h45v6.84h-45z" style="clip-rule:evenodd"/>
</clipPath>
<clipPath id="aa">
<path d="m349.18 666.22h45v6.79h-45z" style="clip-rule:evenodd"/>
</clipPath>
<clipPath id="ab">
<path d="m349.18 659.4h51.05v6.84h-51.05z" style="clip-rule:evenodd"/>
</clipPath>
<clipPath id="ac">
<path d="m349.18 659.45h51.05v6.79h-51.05z" style="clip-rule:evenodd"/>
</clipPath>
<clipPath id="ad">
<path d="m383.69 666.14h48.5v6.84h-48.5z" style="clip-rule:evenodd"/>
</clipPath>
<clipPath id="ae">
<path d="m383.69 666.22h48.5v6.77h-48.5z" style="clip-rule:evenodd"/>
</clipPath>
<clipPath id="af">
<path d="m383.69 659.38h47.04v6.84h-47.04z" style="clip-rule:evenodd"/>
</clipPath>
<clipPath id="ag">
<path d="m383.69 659.45h47.04v6.77h-47.04z" style="clip-rule:evenodd"/>
</clipPath>
<clipPath id="ah">
<path d="m417 666.14h49.32v6.84h-49.32z" style="clip-rule:evenodd"/>
</clipPath>
<clipPath id="ai">
<path d="m417 666.22h49.32v6.77h-49.32z" style="clip-rule:evenodd"/>
</clipPath>
<clipPath id="aj">
<path d="m417 659.38h47.02v6.84h-47.02z" style="clip-rule:evenodd"/>
</clipPath>
<clipPath id="ak">
<path d="m417 659.45h47.02v6.77h-47.02z" style="clip-rule:evenodd"/>
</clipPath>
<clipPath id="al">
<path d="m451.8 665.86h33.24v6.84h-33.24z" style="clip-rule:evenodd"/>
</clipPath>
<clipPath id="am">
<path d="m451.8 665.9h33.24v6.79h-33.24z" style="clip-rule:evenodd"/>
</clipPath>
<clipPath id="an">
<path d="m451.8 659.09h31.37v6.84h-31.37z" style="clip-rule:evenodd"/>
</clipPath>
<clipPath id="ao">
<path d="m451.8 659.14h31.34v6.79h-31.34z" style="clip-rule:evenodd"/>
</clipPath>
<clipPath id="ap">
<path d="m318.31 666.17h33.53v6.84h-33.53z" style="clip-rule:evenodd"/>
</clipPath>
<clipPath id="aq">
<path d="m318.31 666.22h33.53v6.79h-33.53z" style="clip-rule:evenodd"/>
</clipPath>
<clipPath id="ar">
<path d="m318.31 659.4h43.66v6.84h-43.66z" style="clip-rule:evenodd"/>
</clipPath>
<clipPath id="as">
<path d="m318.31 659.45h43.66v6.79h-43.66z" style="clip-rule:evenodd"/>
</clipPath>
<clipPath id="at">
<path d="m299.86 642.6h43.9v6.84h-43.9z" style="clip-rule:evenodd"/>
</clipPath>
<clipPath id="au">
<path d="m299.86 642.67h43.9v6.77h-43.9z" style="clip-rule:evenodd"/>
</clipPath>
<clipPath id="av">
<path d="m295.92 631.1h31.85v6.84h-31.85z" style="clip-rule:evenodd"/>
</clipPath>
<clipPath id="aw">
<path d="m295.92 631.15h31.85v6.79h-31.85z" style="clip-rule:evenodd"/>
</clipPath>
<clipPath id="ax">
<path d="m383.71 634.73h48.48v6.84h-48.48z" style="clip-rule:evenodd"/>
</clipPath>
<clipPath id="ay">
<path d="m383.71 634.8h48.48v6.77h-48.48z" style="clip-rule:evenodd"/>
</clipPath>
<clipPath id="az">
<path d="m383.71 627.96h47.04v6.84h-47.04z" style="clip-rule:evenodd"/>
</clipPath>
<clipPath id="aA">
<path d="m383.71 628.03h47.02v6.77h-47.02z" style="clip-rule:evenodd"/>
</clipPath>
<clipPath id="aB">
<path d="m417 634.73h49.34v6.84h-49.34z" style="clip-rule:evenodd"/>
</clipPath>
<clipPath id="aC">
<path d="m417 634.8h49.34v6.77h-49.34z" style="clip-rule:evenodd"/>
</clipPath>
<clipPath id="aD">
<path d="m417 627.96h47.04v6.84h-47.04z" style="clip-rule:evenodd"/>
</clipPath>
<clipPath id="aE">
<path d="m417 628.03h47.04v6.77h-47.04z" style="clip-rule:evenodd"/>
</clipPath>
<clipPath id="aF">
<path d="m451.8 634.44h33.24v6.84h-33.24z" style="clip-rule:evenodd"/>
</clipPath>
<clipPath id="aG">
<path d="m451.8 634.49h33.24v6.79h-33.24z" style="clip-rule:evenodd"/>
</clipPath>
<clipPath id="aH">
<path d="m451.8 627.65h31.37v6.84h-31.37z" style="clip-rule:evenodd"/>
</clipPath>
<clipPath id="aI">
<path d="m451.8 627.72h31.37v6.77h-31.37z" style="clip-rule:evenodd"/>
</clipPath>
<clipPath id="aJ">
<path d="m323.16 631.42h31.25v6.84h-31.25z" style="clip-rule:evenodd"/>
</clipPath>
<clipPath id="aK">
<path d="m323.16 631.49h31.25v6.77h-31.25z" style="clip-rule:evenodd"/>
</clipPath>
<clipPath id="aL">
<path d="m351.62 634.44h33.53v6.84h-33.53z" style="clip-rule:evenodd"/>
</clipPath>
<clipPath id="aM">
<path d="m351.62 634.49h33.53v6.79h-33.53z" style="clip-rule:evenodd"/>
</clipPath>
<clipPath id="aN">
<path d="m351.62 627.65h43.63v6.84h-43.63z" style="clip-rule:evenodd"/>
</clipPath>
<clipPath id="aO">
<path d="m351.62 627.72h43.63v6.77h-43.63z" style="clip-rule:evenodd"/>
</clipPath>
<g transform="matrix(1.25 0 0 -1.25 -329.91 994.24)">
<g style="clip-path:url(#a)">
<g style="clip-path:url(#b)">
<text style="font-size:5.57;font-family:Droid Sans" transform="matrix(1 0 0 -1 362.62 741.82)">
<tspan x="0 2.9 5.46" y="0">PFN</tspan>
</text>
</g>
</g>
<g style="clip-path:url(#c)">
<g style="clip-path:url(#d)">
<text style="font-size:5.57;font-family:Droid Sans" transform="matrix(1 0 0 -1 359.59 712.46)">
<tspan x="0 2.77 5.93 9.62 11.02 14.47" y="0">&lt;VOID&gt;</tspan>
</text>
</g>
</g>
<g style="clip-path:url(#e)">
<g style="clip-path:url(#f)">
<text style="font-size:5.57;font-family:Droid Sans" transform="matrix(1 0 0 -1 359.59 726.7)">
<tspan x="0 2.77 5.93 9.62 11.02 14.47" y="0">&lt;VOID&gt;</tspan>
</text>
</g>
</g>
<g style="clip-path:url(#g)">
<g style="clip-path:url(#h)">
<text style="font-size:5.57;font-family:Droid Sans" transform="matrix(1 0 0 -1 306.94 744.84)">
<tspan x="0 3.16 6.04 9.63 10.82 12.51 14.43 17.37" y="0">VPN from</tspan>
</text>
</g>
</g>
<g style="clip-path:url(#i)">
<g style="clip-path:url(#j)">
<text style="font-size:5.57;font-family:Droid Sans" transform="matrix(1 0 0 -1 306.94 738.07)">
<tspan x="0 2.82 5.25 6.93 8.61 11.02 13.46 15.87 18.3 19.45 21.32 24.27 25.42 28.25 30.67 33.5 36.33 38.74 41.18 43.59" y="0">0xffxxxx to 0x08xxxx</tspan>
</text>
</g>
</g>
<g style="clip-path:url(#k)">
<g style="clip-path:url(#l)">
<text style="font-size:5.57;font-family:Droid Sans" transform="matrix(1 0 0 -1 305.71 730.01)">
<tspan x="0 3.16 6.04 9.63 10.85 12.54 14.49 17.47" y="0">VPN from</tspan>
</text>
</g>
</g>
<g style="clip-path:url(#m)">
<g style="clip-path:url(#n)">
<text style="font-size:5.57;font-family:Droid Sans" transform="matrix(1 0 0 -1 305.71 723.24)">
<tspan x="0 2.85 5.26 8.12 10.97 13.39 15.82 18.23 20.66 21.77 23.63 26.61 27.76 30.61 33.02 35.89 38.74 41.15 43.58 45.99" y="0">0x08xxxx to 0x04xxxx</tspan>
</text>
</g>
</g>
<g style="clip-path:url(#o)">
<g style="clip-path:url(#p)">
<text style="font-size:5.57;font-family:Droid Sans" transform="matrix(1 0 0 -1 306.02 715.8)">
<tspan x="0 3.16 6.04 9.63 10.82 12.52 14.47 17.42" y="0">VPN from</tspan>
</text>
</g>
</g>
<g style="clip-path:url(#q)">
<g style="clip-path:url(#r)">
<text style="font-size:5.57;font-family:Droid Sans" transform="matrix(1 0 0 -1 306.02 709.01)">
<tspan x="0 2.83 5.25 8.08 10.92 13.34 15.76 18.18 20.61 21.69 23.56 26.51 27.66 30.5 32.92 35.75 38.58 41 43.42 45.84" y="0">0x04xxxx to 0x00xxxx</tspan>
</text>
</g>
</g>
<g style="clip-path:url(#s)">
<g style="clip-path:url(#t)">
<text style="font-size:5.57;font-family:Droid Sans" transform="matrix(1 0 0 -1 308.45 761.5)">
<tspan x="0 3.51 4.78 7.72 10.63 13.3 14.58 15.76 18.67 21.34 23.93 26.7 27.97 30.88 32.16 34.07 36.84 39.2 41.06 44.03 45.95" y="0">Global page directory</tspan>
</text>
</g>
</g>
<g style="clip-path:url(#u)">
<g style="clip-path:url(#v)">
<text style="font-size:5.57;font-family:Droid Sans" transform="matrix(1 0 0 -1 308.45 754.73)">
<tspan x="0 1.69 4.58 8.09 11.53" y="0">(PGD)</tspan>
</text>
</g>
</g>
<g style="clip-path:url(#w)">
<g style="clip-path:url(#x)">
<text style="font-size:5.57;font-family:Droid Sans" transform="matrix(1 0 0 -1 292.27 785.14)">
<tspan x="0 2.9 5.57 8.16 10.93 12.14 14.01 16.68 19.6 20.86 23.63 24.84 27.75 30.42 32.6 35.37 36.58 38.52 41.3 43.9 45.18 47.36 49.23 52" y="0">Page table base register</tspan>
</text>
</g>
</g>
<g style="clip-path:url(#y)">
<g style="clip-path:url(#z)">
<text style="font-size:5.57;font-family:Droid Sans" transform="matrix(1 0 0 -1 292.27 778.37)">
<tspan x="0 1.7 4.67 7.69 10.51" y="0">(CR3)</tspan>
</text>
</g>
</g>
<g style="clip-path:url(#A)">
<g style="clip-path:url(#B)">
<text style="font-size:5.57;font-family:Droid Sans" transform="matrix(1 0 0 -1 399.24 745.44)">
<tspan x="0 3.57 6.5 9.42 12.21 14.15 15.38 18.3 20.97 23.59 26.36 27.64 30.56 31.84 33.79 36.56 38.94 40.83 43.8 45.74" y="0">Upper page directory</tspan>
</text>
</g>
</g>
<g style="clip-path:url(#C)">
<g style="clip-path:url(#D)">
<text style="font-size:5.57;font-family:Droid Sans" transform="matrix(1 0 0 -1 399.24 738.67)">
<tspan x="0 1.7 4.62 8.2 11.65" y="0">(PUD)</tspan>
</text>
</g>
</g>
<g style="clip-path:url(#E)">
<g style="clip-path:url(#F)">
<text style="font-size:5.57;font-family:Droid Sans" transform="matrix(1 0 0 -1 467.5 764.35)">
<tspan x="0 4.76 6.04 8.96 11.85 13.13 15.91 17.11 20.02 22.68 25.27 28.05 29.32 32.23 33.51 35.45 38.22 40.58 42.44 45.4 47.34" y="0">Middle page directory</tspan>
</text>
</g>
</g>
<g style="clip-path:url(#G)">
<g style="clip-path:url(#H)">
<text style="font-size:5.57;font-family:Droid Sans" transform="matrix(1 0 0 -1 467.5 757.56)">
<tspan x="0 1.7 4.6 9.36 12.82" y="0">(PMD)</tspan>
</text>
</g>
</g>
<g style="clip-path:url(#I)">
<g style="clip-path:url(#J)">
<text style="font-size:5.57;font-family:Droid Sans" transform="matrix(1 0 0 -1 469.61 728.02)">
<tspan x="0 4.76 6.04 8.96 11.85 13.13 15.91 17.13 20.04 22.71 25.33 28.1 29.36 32.28 33.56 35.51 38.28 40.65 42.52 45.5 47.44" y="0">Middle page directory</tspan>
</text>
</g>
</g>
<g style="clip-path:url(#K)">
<g style="clip-path:url(#L)">
<text style="font-size:5.57;font-family:Droid Sans" transform="matrix(1 0 0 -1 469.61 721.25)">
<tspan x="0 1.7 4.6 9.36 12.82" y="0">(PMD)</tspan>
</text>
</g>
</g>
<g style="clip-path:url(#M)">
<g style="clip-path:url(#N)">
<text style="font-weight:bold;font-size:5.57;font-family:Droid Sans;fill:#f00" transform="matrix(1 0 0 -1 381.38 791.16)">
<tspan x="0 2.73 5.48 7.83 10.82 12.03 15.02 17.98 20.97 23.74 25.08 26.46 29.45 30.66 32.6 35.59 38.37 39.63 41.58 43.59 46.38" y="0">Each node in the tree</tspan>
</text>
</g>
</g>
<g style="clip-path:url(#O)">
<g style="clip-path:url(#P)">
<text style="font-weight:bold;font-size:5.57;font-family:Droid Sans;fill:#f00" transform="matrix(1 0 0 -1 381.38 784.37)">
<tspan x="0 2.56 3.93 5.32 6.71 8.96 10.11 12.9 15.45 18.17 20.55 22.48 23.88 26.53 27.68 30.66 33.65 36.41 37.75 40.74 43.46 46.12" y="0">Fills exactly one page</tspan>
</text>
</g>
</g>
<g style="clip-path:url(#Q)">
<g style="clip-path:url(#R)">
<text style="font-size:5.57;font-family:Droid Sans" transform="matrix(1 0 0 -1 544.85 763.92)">
<tspan x="0 2.9 5.57 8.16 10.93 12.14 14.01 16.68 19.6 20.86 23.63 24.84 27.62 30.54 32.41 34.35 35.63 38.4" y="0">Page table entries</tspan>
</text>
</g>
</g>
<g style="clip-path:url(#S)">
<g style="clip-path:url(#T)">
<text style="font-weight:bold;font-size:5.57;font-family:Droid Sans" transform="matrix(1 0 0 -1 303.6 675.53)">
<tspan x="0 2.96 5.71 8.37 11.15 12.36 14.29 17.04 20.01 21.4 24.18 25.44 28.24 31.21 33.15 35.15 37.8 39 40.74 43.73 46.5 49.23" y="0">Page table entry (PTE)</tspan>
</text>
</g>
</g>
<g style="clip-path:url(#U)">
<g style="clip-path:url(#V)">
<text style="font-size:5.57;font-family:Droid Sans" transform="matrix(1 0 0 -1 372.31 691.27)">
<tspan x="0 3.57 6.54 8.41 11.19 12.39 14.26 17.18 19.96 21.9 24.67 25.84 27.12 29.29 30.55 33.47 36.44 37.64 40.8 43.68 47.27 48.46 49.74 52.64 53.9 55.78 58.69 61.46" y="0">Note there is no VPN in the </tspan>
</text>
</g>
<g style="clip-path:url(#W)">
<text style="font-size:5.57;font-family:Droid Sans" transform="matrix(1 0 0 -1 372.31 684.5)">
<tspan x="0 2.9 5.61 8.33 9.48 12.25 15.04 16.3 17.58 22.07 24.97 26.25 27.52 29.87 31.15 33.02 34.17 35.45 38.34 41.25 44.02" y="0">PTE =&gt; implicit index</tspan>
</text>
</g>
</g>
<g style="clip-path:url(#X)">
<g style="clip-path:url(#Y)">
<text style="font-size:5.57;font-family:Droid Sans" transform="matrix(1 0 0 -1 299.66 664.03)">
<tspan x="0 2.9 5.46" y="0">PFN</tspan>
</text>
</g>
</g>
<g style="clip-path:url(#Z)">
<g style="clip-path:url(#aa)">
<text style="font-size:5.57;font-family:Droid Sans" transform="matrix(1 0 0 -1 352.94 667.68)">
<tspan x="0 2.9 4.82 7.59 9.78 12.56 15.48 17.34 18.5 19.78" y="0">Present in</tspan>
</text>
</g>
</g>
<g style="clip-path:url(#ab)">
<g style="clip-path:url(#ac)">
<text style="font-size:5.57;font-family:Droid Sans" transform="matrix(1 0 0 -1 352.94 660.91)">
<tspan x="0 4.76 7.56 12 14.97 16.89 19.43 20.51 22.19 23.47 26.14" y="0">Memory flag</tspan>
</text>
</g>
</g>
<g style="clip-path:url(#ad)">
<g style="clip-path:url(#ae)">
<text style="font-size:5.57;font-family:Droid Sans" transform="matrix(1 0 0 -1 387.46 667.66)">
<tspan x="0 3.02 5.8 8.46 11.39 13.54 18.49 20.4 21.68 23.55" y="0">Read/Write</tspan>
</text>
</g>
</g>
<g style="clip-path:url(#af)">
<g style="clip-path:url(#ag)">
<text style="font-size:5.57;font-family:Droid Sans" transform="matrix(1 0 0 -1 387.46 660.89)">
<tspan x="0 2.91 5.68 7.62 12.07 13.35 15.51 17.67 18.95 21.88" y="0">permission</tspan>
</text>
</g>
</g>
<g style="clip-path:url(#ah)">
<g style="clip-path:url(#ai)">
<text style="font-size:5.57;font-family:Droid Sans" transform="matrix(1 0 0 -1 420.74 667.66)">
<tspan x="0 3.57 5.75 8.54 10.48 12.66 15.55 18.34 20.28 23.19 25.96" y="0">User/Kernel</tspan>
</text>
</g>
</g>
<g style="clip-path:url(#aj)">
<g style="clip-path:url(#ak)">
<text style="font-size:5.57;font-family:Droid Sans" transform="matrix(1 0 0 -1 420.74 660.89)">
<tspan x="0 2.91 5.68 7.62 12.12 13.4 15.57 17.75 19.03 21.97" y="0">permission</tspan>
</text>
</g>
</g>
<g style="clip-path:url(#al)">
<g style="clip-path:url(#am)">
<text style="font-size:5.57;font-family:Droid Sans" transform="matrix(1 0 0 -1 455.54 667.37)">
<tspan x="0 3.45 4.73 6.68 8.54" y="0">Dirty</tspan>
</text>
</g>
</g>
<g style="clip-path:url(#an)">
<g style="clip-path:url(#ao)">
<text style="font-size:5.57;font-family:Droid Sans" transform="matrix(1 0 0 -1 455.54 660.6)">
<tspan x="0 2.54 3.81 6.47" y="0">Flag</tspan>
</text>
</g>
</g>
<g style="clip-path:url(#ap)">
<g style="clip-path:url(#aq)">
<text style="font-size:5.57;font-family:Droid Sans" transform="matrix(1 0 0 -1 322.06 667.68)">
<tspan x="0 3.14 5.8 7.07 8.34" y="0">Valid</tspan>
</text>
</g>
</g>
<g style="clip-path:url(#ar)">
<g style="clip-path:url(#as)">
<text style="font-size:5.57;font-family:Droid Sans" transform="matrix(1 0 0 -1 322.06 660.91)">
<tspan x="0 2.73 5.63 7.53 9.47 12.01 13.24 14.93 16.21 18.88" y="0">Entry flag</tspan>
</text>
</g>
</g>
<g style="clip-path:url(#at)">
<g style="clip-path:url(#au)">
<text style="font-weight:bold;font-size:5.57;font-family:Droid Sans" transform="matrix(1 0 0 -1 303.6 644.11)">
<tspan x="0 2.78 5.15 8.31 9.47 12.19 15.18 17.12 19.13" y="0">TLB Entry</tspan>
</text>
</g>
</g>
<g style="clip-path:url(#av)">
<g style="clip-path:url(#aw)">
<text style="font-size:5.57;font-family:Droid Sans" transform="matrix(1 0 0 -1 299.66 632.62)">
<tspan x="0 3.16 6.07" y="0">VPN</tspan>
</text>
</g>
</g>
<g style="clip-path:url(#ax)">
<g style="clip-path:url(#ay)">
<text style="font-size:5.57;font-family:Droid Sans" transform="matrix(1 0 0 -1 387.46 636.24)">
<tspan x="0 3.02 5.8 8.46 11.39 13.55 18.51 20.45 21.73 23.6" y="0">Read/Write</tspan>
</text>
</g>
</g>
<g style="clip-path:url(#az)">
<g style="clip-path:url(#aA)">
<text style="font-size:5.57;font-family:Droid Sans" transform="matrix(1 0 0 -1 387.46 629.47)">
<tspan x="0 2.91 5.68 7.62 12.12 13.4 15.57 17.75 19.03 22" y="0">permission</tspan>
</text>
</g>
</g>
<g style="clip-path:url(#aB)">
<g style="clip-path:url(#aC)">
<text style="font-size:5.57;font-family:Droid Sans" transform="matrix(1 0 0 -1 420.74 636.24)">
<tspan x="0 3.57 5.75 8.54 10.48 12.66 15.55 18.34 20.28 23.19 25.96" y="0">User/Kernel</tspan>
</text>
</g>
</g>
<g style="clip-path:url(#aD)">
<g style="clip-path:url(#aE)">
<text style="font-size:5.57;font-family:Droid Sans" transform="matrix(1 0 0 -1 420.74 629.47)">
<tspan x="0 2.91 5.68 7.62 12.12 13.4 15.57 17.75 19.03 22" y="0">permission</tspan>
</text>
</g>
</g>
<g style="clip-path:url(#aF)">
<g style="clip-path:url(#aG)">
<text style="font-size:5.57;font-family:Droid Sans" transform="matrix(1 0 0 -1 455.57 635.95)">
<tspan x="0 3.42 4.7 6.63 8.49" y="0">Dirty</tspan>
</text>
</g>
</g>
<g style="clip-path:url(#aH)">
<g style="clip-path:url(#aI)">
<text style="font-size:5.57;font-family:Droid Sans" transform="matrix(1 0 0 -1 455.57 629.16)">
<tspan x="0 2.54 3.81 6.47" y="0">Flag</tspan>
</text>
</g>
</g>
<g style="clip-path:url(#aJ)">
<g style="clip-path:url(#aK)">
<text style="font-size:5.57;font-family:Droid Sans" transform="matrix(1 0 0 -1 326.93 632.93)">
<tspan x="0 2.9 5.42" y="0">PFN</tspan>
</text>
</g>
</g>
<g style="clip-path:url(#aL)">
<g style="clip-path:url(#aM)">
<text style="font-size:5.57;font-family:Droid Sans" transform="matrix(1 0 0 -1 355.37 635.95)">
<tspan x="0 3.14 5.8 7.07 8.34" y="0">Valid</tspan>
</text>
</g>
</g>
<g style="clip-path:url(#aN)">
<g style="clip-path:url(#aO)">
<text style="font-size:5.57;font-family:Droid Sans" transform="matrix(1 0 0 -1 355.37 629.16)">
<tspan x="0 2.73 5.63 7.5 9.44 11.99 13.19 14.89 16.17 18.84" y="0">Entry flag</tspan>
</text>
</g>
</g>
<g style="fill:none;stroke-width:.72;stroke-linecap:round;stroke-linejoin:round;stroke-miterlimit:10">
<path d="m288.29 791.42h61.73v-15.43h-61.73z" style="stroke:#f60"/>
<g style="stroke:#008000">
<path d="m303.55 751.13h52.66v-14.52h-52.66z"/>
<path d="m356.14 751.08h23.32v-14.52h-23.32z"/>
<path d="m303.48 736.25h52.68v-14.52h-52.68z"/>
<path d="m303.48 722.02h52.68v-14.52h-52.68z"/>
<path d="m356.35 736.25h23.33v-14.52h-23.33z"/>
<path d="m356.35 722.02h23.33v-14.52h-23.33z"/>
<path d="m396.7 753.07h53.56v-16.65h-53.56z"/>
</g>
<path d="m288.29 775.99v-68.13h15.55" style="stroke:#f60"/>
<path d="m298.97 710.3 4.87-2.44-4.87-2.43" style="stroke:#f60"/>
<g style="stroke:#008000">
<path d="m539.71 774.1h53.57v-16.66h-53.57z"/>
<path d="m464.93 771.96h53.57v-16.66h-53.57z"/>
<path d="m467.06 735.62h53.57v-16.63h-53.57z"/>
<path d="m379.46 743.81 17.93-7.51"/>
<path d="m393.82 740.45 3.57-4.15-5.45-.36"/>
<path d="m450.05 747.5 15.12 7.85"/>
<path d="m459.74 755.28 5.43.1-3.19-4.42"/>
<path d="m450.26 736.42 17.04-17.67"/>
<path d="m465.67 723.96 1.63-5.21-5.13 1.8"/>
</g>
<g style="stroke:#ed1c24">
<path d="m409.46 782.62-41.66-31.54"/>
<path d="m373.15 752.09-5.35-1.01 2.4 4.87"/>
<path d="m409.46 783.22 8.81-30.58"/>
<path d="m419.26 758.02-.99-5.38-3.69 4.03"/>
<path d="m408.86 782.93 56.02-16.97"/>
<path d="m460.92 769.7 3.96-3.74-5.38-.91"/>
</g>
<g style="stroke:#008000">
<path d="m518.47 764.14 21.19-6.68"/>
<path d="m535.73 761.28 3.93-3.79-5.4-.87"/>
<path d="m293.09 673.58h23.33v-14.52h-23.33z"/>
<path d="m316.39 673.58h33.31v-14.52h-33.31z"/>
<path d="m350.06 673.58h33.32v-14.52h-33.32z"/>
<path d="m383.35 673.58h33.31v-14.52h-33.31z"/>
<path d="m450.19 673.58h23.31v-14.52h-23.31z"/>
<path d="m416.64 673.58h33.31v-14.52h-33.31z"/>
</g>
<path d="m293.09 642.19h23.33v-14.54h-23.33z" style="stroke:#f00"/>
<g style="stroke:#008000">
<path d="m316.42 642.19h33.31v-14.54h-33.31z"/>
<path d="m350.06 642.19h33.32v-14.54h-33.32z"/>
<path d="m383.38 642.19h33.28v-14.54h-33.28z"/>
<path d="m450.19 642.19h23.33v-14.54h-23.33z"/>
<path d="m416.66 642.19h33.32v-14.54h-33.32z"/>
</g>
<g style="stroke:#f00">
<path d="m371.95 690.6h-72.65v-16.94"/>
<path d="m301.75 678.53-2.45-4.9-2.44 4.9"/>
</g>
</g>
</g>
</svg>