<svg height="400" width="750" viewBox="0 0 368.08 373.3" xmlns="http://www.w3.org/2000/svg" xmlns:xlink="http://www.w3.org/1999/xlink"><clipPath id="a"><path d="m356.76 608.35h92.3v6.84h-92.3z" style="clip-rule:evenodd"/></clipPath><clipPath id="b"><path d="m356.76 608.4h92.3v6.79h-92.3z" style="clip-rule:evenodd"/></clipPath><clipPath id="c"><path d="m379.32 587.62h48.72v6.84h-48.72z" style="clip-rule:evenodd"/></clipPath><clipPath id="d"><path d="m379.32 587.66h48.72v6.79h-48.72z" style="clip-rule:evenodd"/></clipPath><clipPath id="e"><path d="m379.32 587.66h48.72v6.79h-48.72z" style="clip-rule:evenodd"/></clipPath><clipPath id="f"><path d="m379.32 587.66h48.72v6.79h-48.72z" style="clip-rule:evenodd"/></clipPath><clipPath id="g"><path d="m384.29 560.52h41.95v6.84h-41.95z" style="clip-rule:evenodd"/></clipPath><clipPath id="h"><path d="m384.29 560.59h41.95v6.77h-41.95z" style="clip-rule:evenodd"/></clipPath><clipPath id="i"><path d="m302.57 525.72h57.58v6.84h-57.58z" style="clip-rule:evenodd"/></clipPath><clipPath id="j"><path d="m302.57 525.79h57.58v6.77h-57.58z" style="clip-rule:evenodd"/></clipPath><clipPath id="k"><path d="m461.18 487.3h47.52v6.84h-47.52z" style="clip-rule:evenodd"/></clipPath><clipPath id="l"><path d="m461.18 487.37h47.52v6.77h-47.52z" style="clip-rule:evenodd"/></clipPath><clipPath id="m"><path d="m461.18 480.53h42.62v6.84h-42.62z" style="clip-rule:evenodd"/></clipPath><clipPath id="n"><path d="m461.18 480.58h42.62v6.79h-42.62z" style="clip-rule:evenodd"/></clipPath><clipPath id="o"><path d="m461.18 480.58h42.62v6.79h-42.62z" style="clip-rule:evenodd"/></clipPath><clipPath id="p"><path d="m461.18 480.58h42.62v6.79h-42.62z" style="clip-rule:evenodd"/></clipPath><clipPath id="q"><path d="m312.55 490.01h41.9v6.84h-41.9z" style="clip-rule:evenodd"/></clipPath><clipPath id="r"><path d="m312.55 490.08h41.9v6.77h-41.9z" style="clip-rule:evenodd"/></clipPath><clipPath id="s"><path d="m312.55 483.24h38.4v6.84h-38.4z" style="clip-rule:evenodd"/></clipPath><clipPath id="t"><path d="m312.55 483.29h38.4v6.79h-38.4z" style="clip-rule:evenodd"/></clipPath><clipPath id="u"><path d="m306.19 454.61h49.94v6.84h-49.94z" style="clip-rule:evenodd"/></clipPath><clipPath id="v"><path d="m306.19 454.66h49.94v6.79h-49.94z" style="clip-rule:evenodd"/></clipPath><clipPath id="w"><path d="m306.19 447.82h30.34v6.84h-30.34z" style="clip-rule:evenodd"/></clipPath><clipPath id="x"><path d="m306.19 447.89h30.34v6.77h-30.34z" style="clip-rule:evenodd"/></clipPath><clipPath id="y"><path d="m382.18 527.54h48.98v6.84h-48.98z" style="clip-rule:evenodd"/></clipPath><clipPath id="z"><path d="m382.18 527.59h48.98v6.79h-48.98z" style="clip-rule:evenodd"/></clipPath><clipPath id="A"><path d="m382.18 520.78h36.46v6.84h-36.46z" style="clip-rule:evenodd"/></clipPath><clipPath id="B"><path d="m382.18 520.82h36.46v6.79h-36.46z" style="clip-rule:evenodd"/></clipPath><clipPath id="C"><path d="m383.69 489.1h48.5v6.84h-48.5z" style="clip-rule:evenodd"/></clipPath><clipPath id="D"><path d="m383.69 489.17h48.5v6.77h-48.5z" style="clip-rule:evenodd"/></clipPath><clipPath id="E"><path d="m383.69 482.33h32.28v6.84h-32.28z" style="clip-rule:evenodd"/></clipPath><clipPath id="F"><path d="m383.69 482.4h32.28v6.77h-32.28z" style="clip-rule:evenodd"/></clipPath><clipPath id="G"><path d="m459.91 528.77h45.89v6.84h-45.89z" style="clip-rule:evenodd"/></clipPath><clipPath id="H"><path d="m459.91 528.84h45.89v6.77h-45.89z" style="clip-rule:evenodd"/></clipPath><clipPath id="I"><path d="m459.91 522h39.65v6.84h-39.65z" style="clip-rule:evenodd"/></clipPath><clipPath id="J"><path d="m459.91 522.07h39.65v6.77h-39.65z" style="clip-rule:evenodd"/></clipPath><clipPath id="K"><path d="m459.91 522.07h39.65v6.77h-39.65z" style="clip-rule:evenodd"/></clipPath><clipPath id="L"><path d="m459.91 522.07h39.65v6.77h-39.65z" style="clip-rule:evenodd"/></clipPath><clipPath id="M"><path d="m381.58 454.61h50.42v6.84h-50.42z" style="clip-rule:evenodd"/></clipPath><clipPath id="N"><path d="m381.58 454.66h50.42v6.79h-50.42z" style="clip-rule:evenodd"/></clipPath><clipPath id="O"><path d="m381.58 447.82h32.62v6.84h-32.62z" style="clip-rule:evenodd"/></clipPath><clipPath id="P"><path d="m381.58 447.89h32.62v6.77h-32.62z" style="clip-rule:evenodd"/></clipPath><clipPath id="Q"><path d="m382.49 380.76h53.02v6.84h-53.02z" style="clip-rule:evenodd"/></clipPath><clipPath id="R"><path d="m382.49 380.81h53.02v6.79h-53.02z" style="clip-rule:evenodd"/></clipPath><clipPath id="S"><path d="m463.9 384.67h53.76v6.84h-53.76z" style="clip-rule:evenodd"/></clipPath><clipPath id="T"><path d="m463.9 384.72h53.76v6.79h-53.76z" style="clip-rule:evenodd"/></clipPath><clipPath id="U"><path d="m463.9 377.88h39.67v6.84h-39.67z" style="clip-rule:evenodd"/></clipPath><clipPath id="V"><path d="m463.9 377.95h39.65v6.77h-39.65z" style="clip-rule:evenodd"/></clipPath><clipPath id="W"><path d="m463.9 377.95h39.65v6.77h-39.65z" style="clip-rule:evenodd"/></clipPath><clipPath id="X"><path d="m463.9 377.95h39.65v6.77h-39.65z" style="clip-rule:evenodd"/></clipPath><clipPath id="Y"><path d="m305.9 380.76h91.78v6.84h-91.78z" style="clip-rule:evenodd"/></clipPath><clipPath id="Z"><path d="m305.9 380.81h91.78v6.79h-91.78z" style="clip-rule:evenodd"/></clipPath><clipPath id="aa"><path d="m305.9 373.97h113.38v6.84h-113.38z" style="clip-rule:evenodd"/></clipPath><clipPath id="ab"><path d="m305.9 374.04h113.38v6.77h-113.38z" style="clip-rule:evenodd"/></clipPath><clipPath id="ac"><path d="m384.94 420.96h48.96v6.84h-48.96z" style="clip-rule:evenodd"/></clipPath><clipPath id="ad"><path d="m384.94 421.03h48.96v6.77h-48.96z" style="clip-rule:evenodd"/></clipPath><clipPath id="ae"><path d="m384.94 414.19h36.43v6.84h-36.43z" style="clip-rule:evenodd"/></clipPath><clipPath id="af"><path d="m384.94 414.26h36.43v6.77h-36.43z" style="clip-rule:evenodd"/></clipPath><clipPath id="ag"><path d="m384.91 351.38h52.73v6.84h-52.73z" style="clip-rule:evenodd"/></clipPath><clipPath id="ah"><path d="m384.91 351.46h52.73v6.77h-52.73z" style="clip-rule:evenodd"/></clipPath><clipPath id="ai"><path d="m384.91 344.62h35.71v6.84h-35.71z" style="clip-rule:evenodd"/></clipPath><clipPath id="aj"><path d="m384.91 344.69h35.71v6.77h-35.71z" style="clip-rule:evenodd"/></clipPath><clipPath id="ak"><path d="m385.51 322.34h46.85v6.84h-46.85z" style="clip-rule:evenodd"/></clipPath><clipPath id="al"><path d="m385.51 322.39h46.85v6.79h-46.85z" style="clip-rule:evenodd"/></clipPath><clipPath id="am"><path d="m385.51 315.58h45.89v6.84h-45.89z" style="clip-rule:evenodd"/></clipPath><clipPath id="an"><path d="m385.51 315.62h45.89v6.79h-45.89z" style="clip-rule:evenodd"/></clipPath><clipPath id="ao"><path d="m421.82 354.41h71.98v6.84h-71.98z" style="clip-rule:evenodd"/></clipPath><clipPath id="ap"><path d="m421.82 354.48h71.98v6.77h-71.98z" style="clip-rule:evenodd"/></clipPath><clipPath id="aq"><path d="m421.82 347.64h101.47v6.84h-101.47z" style="clip-rule:evenodd"/></clipPath><clipPath id="ar"><path d="m421.82 347.71h101.47v6.77h-101.47z" style="clip-rule:evenodd"/></clipPath><clipPath id="as"><path d="m421.82 340.87h69.74v6.84h-69.74z" style="clip-rule:evenodd"/></clipPath><clipPath id="at"><path d="m421.82 340.94h69.74v6.77h-69.74z" style="clip-rule:evenodd"/></clipPath><g transform="matrix(1.25 0 0 -1.25 -313.87 767.37)"><g style="clip-path:url(#a)"><g style="clip-path:url(#b)"><text style="font-weight:bold;font-size:5.57;font-family:Droid Sans" transform="matrix(1 0 0 -1 360.5 609.86)"><tspan x="0 3.57 6.35 8.29 9.52 14.05 16.85 21.38 24.35 26.33 29 30.16 32.91 34.84 36.1 39.39 42.35 46.04 47.26 50.03 52.53 55.38 57.94 61.01 64.12 67.21" y="0">Get memory at VPN = 0xXXXX</tspan></text></g></g><g style="clip-path:url(#c)"><g style="clip-path:url(#d)"><text style="font-size:5.57;font-family:Droid Sans" transform="matrix(1 0 0 -1 383.06 589.13)"><tspan x="0 2.73 5.07 8.1 9.3 10.58 13.55 16.51" y="0">TLB look</tspan></text></g><g style="clip-path:url(#e)"><text style="font-size:5.57;font-family:Droid Sans" transform="matrix(1 0 0 -1 402.14 589.13)"><tspan x="0" y="0">-</tspan></text></g><g style="clip-path:url(#f)"><text style="font-size:5.57;font-family:Droid Sans" transform="matrix(1 0 0 -1 403.82 589.13)"><tspan x="0 2.9" y="0">up</tspan></text></g></g><g style="clip-path:url(#g)"><g style="clip-path:url(#h)"><text style="font-size:5.57;font-family:Droid Sans" transform="matrix(1 0 0 -1 388.06 562.03)"><tspan x="0 2.71 5.05 8.08 9.29 12.76 14.01 15.88 17.09" y="0">TLB Hit ?</tspan></text></g></g><g style="clip-path:url(#i)"><g style="clip-path:url(#j)"><text style="font-size:5.57;font-family:Droid Sans" transform="matrix(1 0 0 -1 306.34 527.23)"><tspan x="0 2.9 5.54 8.13 10.91 12.12 13.99 16.63 19.54 20.79 23.56 24.77 28.75 31.4 32.65" y="0">Page table walk</tspan></text></g></g><g style="clip-path:url(#k)"><g style="clip-path:url(#l)"><text style="font-size:5.57;font-family:Droid Sans" transform="matrix(1 0 0 -1 464.93 488.81)"><tspan x="0 2.73 4.67 7.34 10.24 12.42 13.7 16.36 18.23 19.51 22.47" y="0">Translation</tspan></text></g></g><g style="clip-path:url(#m)"><g style="clip-path:url(#n)"><text style="font-size:5.57;font-family:Droid Sans" transform="matrix(1 0 0 -1 464.93 482.04)"><tspan x="0 2.56 5.51 8.42 11.33 14.23 15.49" y="0">Found :</tspan></text></g><g style="clip-path:url(#o)"><text style="font-size:5.57;font-family:Droid Sans" transform="matrix(1 0 0 -1 481.94 482.04)"><tspan x="0" y="0">-</tspan></text></g><g style="clip-path:url(#p)"><text style="font-size:5.57;font-family:Droid Sans" transform="matrix(1 0 0 -1 483.65 482.04)"><tspan x="0" y="0">)</tspan></text></g></g><g style="clip-path:url(#q)"><g style="clip-path:url(#r)"><text style="font-size:5.57;font-family:Droid Sans" transform="matrix(1 0 0 -1 316.32 491.52)"><tspan x="0 2.56 5.49 8.41 11.3 14.21 15.47 16.75" y="0">Found in</tspan></text></g></g><g style="clip-path:url(#s)"><g style="clip-path:url(#t)"><text style="font-size:5.57;font-family:Droid Sans" transform="matrix(1 0 0 -1 316.32 484.75)"><tspan x="0 2.71 5.38 8.28 9.56 12.33 13.54" y="0">Table ?</tspan></text></g></g><g style="clip-path:url(#u)"><g style="clip-path:url(#v)"><text style="font-size:5.57;font-family:Droid Sans" transform="matrix(1 0 0 -1 309.96 456.12)"><tspan x="0 3.22 6.12 9.03 10.28 13.07 15.98 17.85 19.79 22.33 23.54 24.82" y="0">Add entry in</tspan></text></g></g><g style="clip-path:url(#w)"><g style="clip-path:url(#x)"><text style="font-size:5.57;font-family:Droid Sans" transform="matrix(1 0 0 -1 309.96 449.33)"><tspan x="0 2.71 5.05" y="0">TLB</tspan></text></g></g><g style="clip-path:url(#y)"><g style="clip-path:url(#z)"><text style="font-size:5.57;font-family:Droid Sans" transform="matrix(1 0 0 -1 385.94 529.06)"><tspan x="0 2.9 5.68 7.61 10.51 13.29 14.54 15.75 18.65 21.29 23.89" y="0">Kernel page</tspan></text></g></g><g style="clip-path:url(#A)"><g style="clip-path:url(#B)"><text style="font-size:5.57;font-family:Droid Sans" transform="matrix(1 0 0 -1 385.94 522.29)"><tspan x="0 3.69 6.58 7.82 10.35 11.54" y="0">Only ?</tspan></text></g></g><g style="clip-path:url(#C)"><g style="clip-path:url(#D)"><text style="font-size:5.57;font-family:Droid Sans" transform="matrix(1 0 0 -1 387.46 490.61)"><tspan x="0 3.02 5.8 8.46 11.39 13.54 18.49 20.4 21.68 23.55" y="0">Read/Write</tspan></text></g></g><g style="clip-path:url(#E)"><g style="clip-path:url(#F)"><text style="font-size:5.57;font-family:Droid Sans" transform="matrix(1 0 0 -1 387.46 483.84)"><tspan x="0 3.69 6.22 7.42" y="0">Ok ?</tspan></text></g></g><g style="clip-path:url(#G)"><g style="clip-path:url(#H)"><text style="font-size:5.57;font-family:Droid Sans" transform="matrix(1 0 0 -1 463.66 530.3)"><tspan x="0 2.92 4.87 7.84 9.73 12.51 14.89 16.78 18.06 21.02" y="0">Protection</tspan></text></g></g><g style="clip-path:url(#I)"><g style="clip-path:url(#J)"><text style="font-size:5.57;font-family:Droid Sans" transform="matrix(1 0 0 -1 463.66 523.51)"><tspan x="0 2.56 5.22 8.15 9.41 11.3 12.56" y="0">Fault :</tspan></text></g><g style="clip-path:url(#K)"><text style="font-size:5.57;font-family:Droid Sans" transform="matrix(1 0 0 -1 477.72 523.51)"><tspan x="0" y="0">-</tspan></text></g><g style="clip-path:url(#L)"><text style="font-size:5.57;font-family:Droid Sans" transform="matrix(1 0 0 -1 479.4 523.51)"><tspan x="0" y="0">(</tspan></text></g></g><g style="clip-path:url(#M)"><g style="clip-path:url(#N)"><text style="font-size:5.57;font-family:Droid Sans" transform="matrix(1 0 0 -1 385.32 456.12)"><tspan x="0 3.47 6.14 9.03 11.93 13.21 15.99 17.24 20.17 22.83 25.46" y="0">Handle page</tspan></text></g></g><g style="clip-path:url(#O)"><g style="clip-path:url(#P)"><text style="font-size:5.57;font-family:Droid Sans" transform="matrix(1 0 0 -1 385.32 449.33)"><tspan x="0 1.7 4.37 7.29 8.54" y="0">fault</tspan></text></g></g><g style="clip-path:url(#Q)"><g style="clip-path:url(#R)"><text style="font-size:5.57;font-family:Droid Sans" transform="matrix(1 0 0 -1 386.23 382.27)"><tspan x="0 3.16 5.82 7.08 8.36 11.26 12.52 15.18 17.54 19.89 22.67 24.86 27.04 28.2" y="0">Valid access ?</tspan></text></g></g><g style="clip-path:url(#S)"><g style="clip-path:url(#T)"><text style="font-size:5.57;font-family:Droid Sans" transform="matrix(1 0 0 -1 467.66 386.18)"><tspan x="0 2.56 5.33 7.92 12.37 15.16 18.07 19.93 22.6 24.47 25.75 28.69" y="0">Segmentation</tspan></text></g></g><g style="clip-path:url(#U)"><g style="clip-path:url(#V)"><text style="font-size:5.57;font-family:Droid Sans" transform="matrix(1 0 0 -1 467.66 379.39)"><tspan x="0 2.56 5.22 8.11 9.39 11.26 12.52" y="0">Fault :</tspan></text></g><g style="clip-path:url(#W)"><text style="font-size:5.57;font-family:Droid Sans" transform="matrix(1 0 0 -1 481.7 379.39)"><tspan x="0" y="0">-</tspan></text></g><g style="clip-path:url(#X)"><text style="font-size:5.57;font-family:Droid Sans" transform="matrix(1 0 0 -1 483.41 379.39)"><tspan x="0" y="0">(</tspan></text></g></g><g style="clip-path:url(#Y)" transform="translate(-12.69 -2.12)"><g style="clip-path:url(#Z)"><text style="font-size:5.57;font-family:Droid Sans" transform="matrix(1 0 0 -1 309.65 382.27)"><tspan x="0 4.76 7.56 12.04 15.01 16.95 19.49 20.59 23.26 24.54 25.8 28.76 31.14 33.8 35.67 38.44 41.36 42.51 45.42 47.36 50.13 52.68 53.97 56.93 59.83 62.01 63.29 65.83 66.98" y="0">Memory allocated previously ?</tspan></text></g></g><g style="clip-path:url(#aa)" transform="translate(-12.69 -2.12)"><g style="clip-path:url(#ab)"><text style="font-size:5.57;font-family:Droid Sans" transform="matrix(1 0 0 -1 309.65 375.48)"><tspan x="0 4.96 6.9 8.18 10.04 11.33 14.25 16.85 18.07 20.74 22 23.94 26.73 29.4 32.3 33.52 36.49 39.4 40.68 43.2 44.44 46.62 49.4 51.77 53.64 54.92 57.88 60.79 61.94 63.64 65.82 68.74 71.41 73.35 76.13 79.03 80.25 81.53 82.8 85.7 87.4 88.66" y="0">Writing a read only section (shared lib) ?</tspan></text></g></g><g style="clip-path:url(#ac)"><g style="clip-path:url(#ad)"><text style="font-size:5.57;font-family:Droid Sans" transform="matrix(1 0 0 -1 388.68 422.5)"><tspan x="0 2.9 5.68 7.63 10.53 13.31 14.59 15.79 18.7 21.36 23.95" y="0">Kernel page</tspan></text></g></g><g style="clip-path:url(#ae)"><g style="clip-path:url(#af)"><text style="font-size:5.57;font-family:Droid Sans" transform="matrix(1 0 0 -1 388.68 415.7)"><tspan x="0 3.69 6.61 7.87 10.41 11.61" y="0">Only ?</tspan></text></g></g><g style="clip-path:url(#ag)"><g style="clip-path:url(#ah)"><text style="font-size:5.57;font-family:Droid Sans" transform="matrix(1 0 0 -1 388.66 352.9)"><tspan x="0 3.22 4.5 5.76 8.73 11.08 13.75 15.61 18.39 19.55 22.46 25.12 27.71" y="0">Allocate page</tspan></text></g></g><g style="clip-path:url(#ai)"><g style="clip-path:url(#aj)"><text style="font-size:5.57;font-family:Droid Sans" transform="matrix(1 0 0 -1 388.66 346.13)"><tspan x="0 1.7 3.64 6.31 10.8" y="0">frame</tspan></text></g></g><g style="clip-path:url(#ak)"><g style="clip-path:url(#al)"><text style="font-size:5.57;font-family:Droid Sans" transform="matrix(1 0 0 -1 389.26 323.86)"><tspan x="0 3.22 6.12 9.03 10.28 13.2 15.92 18.65 19.88 21.74" y="0">Add PTE to</tspan></text></g></g><g style="clip-path:url(#am)"><g style="clip-path:url(#an)"><text style="font-size:5.57;font-family:Droid Sans" transform="matrix(1 0 0 -1 389.26 317.09)"><tspan x="0 2.9 5.57 8.19 10.96 12.19 14.05 16.72 19.64 20.9" y="0">Page table</tspan></text></g></g><g style="clip-path:url(#ao)"><g style="clip-path:url(#ap)"><text style="font-size:5.57;font-family:Droid Sans" transform="matrix(1 0 0 -1 425.59 355.94)"><tspan x="0 3.02 5.8 8.46 11.39 12.58 15.48 18.15 20.74 23.51 24.79 26.47 28.39 31.34 35.79 36.95 39.86 41.14 43.29 45.82 47.03" y="0">Read page from disk ?</tspan></text></g></g><g style="clip-path:url(#aq)"><g style="clip-path:url(#ar)"><text style="font-size:5.57;font-family:Droid Sans" transform="matrix(1 0 0 -1 425.59 349.15)"><tspan x="0 3.57 6.35 9.14 12.04 13.25 15.11 18.06 19.27 22.04 24.59 25.87 28.22 30.09 31.24 34.14 36.81 39.4 42.17 43.45 45.31 48.26 49.47 53.91 56.58 59.13 61.91 63.07 64.99 67.94 70.88 75.33 76.43" y="0">Need to evict page to make room ?</tspan></text></g></g><g style="clip-path:url(#as)"><g style="clip-path:url(#at)"><text style="font-size:5.57;font-family:Droid Sans" transform="matrix(1 0 0 -1 425.59 342.38)"><tspan x="0 2.97 5.9 8.81 11.35 12.55 15.5 18.4 19.6 23.59 25.51 26.79 28.65 31.43 32.59 35.5 38.16 40.75 43.53 44.8" y="0">Copy on write page ?</tspan></text></g></g><g style="fill:none;stroke-width:.72;stroke-linecap:round;stroke-linejoin:round;stroke-miterlimit:10"><path d="m381.65 462.7h37.82v-14.52h-37.82z" style="stroke:#3165bb"/><path d="m377.93 597.77h39.65v-13.2h-39.65z" style="stroke:#008000"/><path d="m397.42 573.17 23.61-9.53-23.61-9.53-23.62 9.53z" style="stroke:#008000"/><path d="m401.06 395.76 22.11-11.81-22.11-11.78-22.08 11.78z" style="stroke:#3165bb"/><path d="m303.5 535.39h39.65v-13.22h-39.65z" style="stroke:#008000"/><path d="m499.39 487.82-.19-1.12-.53-1.11-.91-1.13-1.2-1-1.49-.96-1.85-.87-2.06-.79-2.3-.7-2.52-.52-2.64-.44-2.76-.28-2.84-.12h-2.83l-2.83.12-2.76.28-2.64.44-2.52.52-2.3.7-2.09.79-1.83.87-1.48.96-1.2 1-.92 1.13-.52 1.11-.2 1.12.2 1.16.52 1.1.92 1.08 1.2 1.06 1.48.96 1.83.86 2.09.79 2.3.65 2.52.58 2.64.4 2.76.29 2.83.15h2.83l2.84-.15 2.76-.29 2.64-.4 2.52-.58 2.3-.65 2.06-.79 1.85-.86 1.49-.96 1.2-1.06.91-1.08.53-1.1z" style="stroke:#9c0"/><g style="stroke:#008000"><path d="m324.26 500.59 26.21-10.56-26.21-10.61-26.2 10.61z"/><path d="m304.1 462.74h39.65v-15.93h-39.65z"/><path d="m397.99 539.93 28.2-11.95-28.2-11.93-28.17 11.93z"/><path d="m398.62 501.14 28.2-11.92-28.2-11.96-28.18 11.96z"/></g><path d="m496.68 528.41-.22-1.18-.5-1.1-.89-1.08-1.25-1.03-1.48-.96-1.8-.89-2.12-.77-2.3-.67-2.52-.55-2.64-.41-2.74-.31-2.83-.15h-2.85l-2.84.15-2.76.31-2.64.41-2.49.55-2.33.67-2.06.77-1.85.89-1.49.96-1.2 1.03-.91 1.08-.53 1.1-.19 1.18.19 1.13.53 1.1.91 1.08 1.2 1.03 1.49.96 1.85.89 2.06.79 2.33.65 2.49.58 2.64.38 2.76.31 2.84.15h2.85l2.83-.15 2.74-.31 2.64-.38 2.52-.58 2.3-.65 2.12-.79 1.8-.89 1.48-.96 1.25-1.03.89-1.08.5-1.1z" style="stroke:#ed1c24"/><path d="m505.2 384.14-.19-1.17-.55-1.13-.89-1.1-1.25-1.06-1.56-.96-1.82-.91-2.14-.79-2.38-.7-2.54-.58-2.69-.4-2.81-.29-2.9-.15h-2.9l-2.88.15-2.79.29-2.71.4-2.54.58-2.38.7-2.14.79-1.84.91-1.54.96-1.22 1.06-.92 1.1-.57 1.13-.17 1.17.17 1.18.57 1.13.92 1.13 1.22 1.03 1.54.96 1.84.91 2.14.82 2.38.67 2.54.55 2.71.46 2.79.26 2.88.14h2.9l2.9-.14 2.81-.26 2.69-.46 2.54-.55 2.38-.67 2.14-.82 1.82-.91 1.56-.96 1.25-1.03.89-1.13.55-1.13z" style="stroke:#ed1c24"/><g style="stroke:#3165bb"><path d="m400.75 433.37 28.18-11.95-28.18-11.96-28.17 11.96z"/><path d="m384.91 359.52h37.85v-14.54h-37.85z"/><path d="m384.62 330.14h37.83v-14.52h-37.83z"/></g><g style="stroke:#008000"><path d="m396.79 584.38.91-12.12"/><path d="m399.74 577.32-2.06-5.04-2.78 4.68"/><path d="m397.68 554.09.55-14.16"/><path d="m400.46 544.9-2.23-4.97-2.64 4.8"/><path d="m374.02 563.64h-50.69v-28.25"/><path d="m325.75 540.29-2.45-4.9-2.42 4.9"/><path d="m397.7 516.26 1.16-15.12"/><path d="m400.9 506.21-2.04-5.07-2.81 4.68"/><path d="m322.61 522.31 1.85-21.69"/><path d="m326.5 505.68-2.04-5.06-2.84 4.63"/><path d="m324.46 479.42-.53-16.68"/><path d="m326.54 467.54-2.61-4.8-2.26 4.97"/><path d="m303.86 453.31h-9.09v137.71"/><path d="m294.77 591.02 83.13.15"/><path d="m373.03 593.62 4.9-2.45-4.87-2.45"/><path d="m350.16 489.94 31.49-27.24"/><path d="m379.54 467.74 2.11-5.04-5.31 1.34"/><path d="m398.59 477.24v-15.14"/><path d="m401.04 466.99-2.45-4.89-2.42 4.89"/><path d="m426.74 489.34 27.24-1.52"/><path d="m449.26 490.54 4.72-2.72-5.01-2.16"/><path d="m425.83 527.78 25.42.63"/><path d="m446.3 530.71 4.95-2.3-4.8-2.57"/></g><g style="stroke:#3165bb"><path d="m399.82 448.18 1.17-14.81"/><path d="m403.03 438.41-2.04-5.07-2.83 4.68"/><path d="m428.57 421.54 23.9 103.51"/><path d="m448.99 520.85 3.46 4.2 1.29-5.28"/><path d="m400.99 409.46.27-13.7"/><path d="m403.58 400.7-2.32-4.92-2.55 4.8"/><path d="m423.36 383.98 35.52.16"/><path d="m453.98 386.57 4.9-2.4-4.87-2.47"/><path d="m401.33 371.9.29-12.69"/><path d="m403.94 364.13-2.32-4.92-2.55 4.8"/><path d="m402.82 344.66.33-14.52"/><path d="m405.46 335.06-2.31-4.92-2.54 4.83"/><path d="m384.62 322.87h-93.16v270.87"/><path d="m291.46 593.45 86.25-.31"/><path d="m372.86 595.63 4.88-2.45-4.9-2.44"/></g><g style="stroke:#008000"><path d="m396.48 611.3-.05-12.96"/><path d="m398.9 603.22-2.47-4.88-2.42 4.9"/></g></g></g></svg>
