<svg height="500" viewBox="0 0 831.5 550.52" width="900" xmlns="http://www.w3.org/2000/svg" xmlns:xlink="http://www.w3.org/1999/xlink">
<marker id="a" orient="auto" refX="0" refY="0" style="overflow:visible">
<path d="m2.31 0-3.46 2v-4z" style="fill:#00bfff;fill-rule:evenodd;stroke:#00bfff;stroke-width:.4pt"/>
</marker>
<marker id="b" orient="auto" refX="0" refY="0" style="overflow:visible">
<path d="m2.31 0-3.46 2v-4z" style="fill:#f00;fill-rule:evenodd;stroke:#f00;stroke-width:.4pt"/>
</marker>
<marker id="c" orient="auto" refX="0" refY="0" style="overflow:visible">
<path d="m2.31 0-3.46 2v-4z" style="fill:#f00;fill-rule:evenodd;stroke:#f00;stroke-width:.4pt"/>
</marker>
<marker id="d" orient="auto" refX="0" refY="0" style="overflow:visible">
<path d="m4.62 0-6.92 4v-8z" style="fill:#00bfff;fill-rule:evenodd;stroke:#00bfff;stroke-width:.8pt"/>
</marker>
<marker id="e" orient="auto" refX="0" refY="0" style="overflow:visible">
<path d="m4.62 0-6.92 4v-8z" style="fill:#00bfff;fill-rule:evenodd;stroke:#00bfff;stroke-width:.8pt"/>
</marker>
<marker id="f" orient="auto" refX="0" refY="0" style="overflow:visible">
<path d="m4.62 0-6.92 4v-8z" style="fill:#9400d3;fill-rule:evenodd;stroke:#9400d3;stroke-width:.8pt"/>
</marker>
<marker id="g" orient="auto" refX="0" refY="0" style="overflow:visible">
<path d="m4.62 0-6.92 4v-8z" style="fill:#00bfff;fill-rule:evenodd;stroke:#00bfff;stroke-width:.8pt"/>
</marker>
<marker id="h" orient="auto" refX="0" refY="0" style="overflow:visible">
<path d="m4.62 0-6.92 4v-8z" style="fill:#00bfff;fill-rule:evenodd;stroke:#00bfff;stroke-width:.8pt"/>
</marker>
<marker id="i" orient="auto" refX="0" refY="0" style="overflow:visible">
<path d="m4.62 0-6.92 4v-8z" style="fill:#0000cd;fill-rule:evenodd;stroke:#0000cd;stroke-width:.8pt"/>
</marker>
<marker id="j" orient="auto" refX="0" refY="0" style="overflow:visible">
<path d="m4.62 0-6.92 4v-8z" style="fill:#0000cd;fill-rule:evenodd;stroke:#0000cd;stroke-width:.8pt"/>
</marker>
<marker id="k" orient="auto" refX="0" refY="0" style="overflow:visible">
<path d="m4.62 0-6.92 4v-8z" style="fill:#00bfff;fill-rule:evenodd;stroke:#00bfff;stroke-width:.8pt"/>
</marker>
<marker id="l" orient="auto" refX="0" refY="0" style="overflow:visible">
<path d="m2.31 0-3.46 2v-4z" style="fill:#f00;fill-rule:evenodd;stroke:#f00;stroke-width:.4pt"/>
</marker>
<path d="m357.23 372.25-22.94.14v-119.97l12.81-.18" style="fill:none;stroke:#00bfff;marker-end:url(#d)"/>
<path d="m352.63 153.52h100.95v27.57h-100.95z" style="fill:none;stroke:#00f;stroke-width:1.1"/>
<text style="font-family:Droid Sans;letter-spacing:-.5;word-spacing:0" x="357.51" y="166.3">
<tspan style="font-weight:bold;font-size:10" x="357.51" y="166.3">Grub core.img</tspan>
<tspan style="font-size:10" x="357.51" y="176.3">- RAID and FS modules</tspan>
</text>
<path d="m345.33 129.94h156.51v57.3h-156.51z" style="fill:none;stroke:#006400;stroke-width:1.1"/>
<text style="font-family:Droid Sans;letter-spacing:-.5;word-spacing:0" x="351.39" y="144.58">
<tspan style="font-weight:bold;font-size:10" x="351.39" y="144.58">UEFI partition</tspan>
</text>
<g transform="translate(459.81 -242.19)">
<path d="m60.57 375.72h106.01v28.04h-106.01z" style="fill:none;stroke:#9400d3;stroke-width:1.1"/>
<text style="font-family:Droid Sans;letter-spacing:-.5;word-spacing:0" x="65.05" xml:space="preserve" y="387.2">
<tspan style="font-weight:bold;font-size:10" x="65.05" y="387.2">UEFI Boot manager</tspan>
<tspan style="font-size:10" x="65.05" y="397.2">-<tspan style="fill:#f00"> Cannot recognize RAID</tspan>
</tspan>
</text>
</g>
<path d="m360.63 301.57h65.65v20.33h-65.65z" style="fill:none;stroke:#00f;stroke-width:1.1"/>
<text style="font-family:Droid Sans;letter-spacing:-.5;word-spacing:0" x="366.11" y="314.97">
<tspan style="font-weight:bold;font-size:10" x="366.11" y="314.97">Grub install</tspan>
</text>
<g transform="translate(214.07 12.74)">
<path d="m142.83 335.07h164.11v47.64h-164.11z" style="fill:none;stroke:#00bfff;stroke-width:1.1"/>
<text style="font-family:Droid Sans;letter-spacing:-.5;word-spacing:0" x="147.09" y="346.62">
<tspan style="font-weight:bold;font-size:10" x="147.09" y="346.62">Linux image</tspan>
<tspan style="font-size:10" x="147.09" y="356.62">Kernel can either auto-detect RAID</tspan>
<tspan style="font-size:10" x="147.09" y="366.62">arrays scanning superblocks or</tspan>
<tspan style="font-size:10" x="147.09" y="376.62">delegate to mdadm in early user space</tspan>
</text>
</g>
<text x="530.94" y="491.19">
<tspan x="530.94" y="491.19"/>
</text>
<text x="5.37" y="410.19">
<tspan x="5.37" y="410.19"/>
</text>
<g style="fill:none">
<path d="m476.51 347.31 53.31-33.34" style="stroke:#00bfff;marker-end:url(#k)"/>
<path d="m453.01 167.02 14.24-.23v144.91l-36.12-.04" style="stroke:#0000cd;marker-end:url(#j)"/>
<g style="stroke:#006400;stroke-width:.95;stroke-miterlimit:10" transform="matrix(1 0 0 1.29 233.39 -98.62)">
<ellipse cx="-28.01" cy="116.85" rx="80.46" ry="24.65"/>
<path d="m52.02 457.46c0 13.78-36.02 24.95-80.46 24.95s-80.46-11.17-80.46-24.95"/>
<path d="m-108.47 462.06v-343.1m160.05 0v343.1"/>
</g>
<g style="stroke-width:1.1">
<path d="m134.23 195.62h538.68v295.7h-538.68z" style="stroke:#9acd32;stroke-dasharray:6.6 2.2"/>
<path d="m343.71 202.69h322.79v282.8h-322.79z" style="stroke:#006400"/>
</g>
</g>
<text style="font-family:Droid Sans;letter-spacing:-.5;word-spacing:0" x="547.94" xml:space="preserve" y="100">
<tspan style="font-size:10" x="547.94" y="100">If you do not partition</tspan>
<tspan style="font-size:10" x="547.94" y="110">the RAID superblock may </tspan>
<tspan style="font-size:10" x="547.94" y="120">overwrite the partition table !!</tspan>
</text>
<path d="m351.41 225.22h306.36v39.92h-306.36z" style="fill:none;stroke:#ff4500;stroke-width:1.1"/>
<g style="font-family:Droid Sans;letter-spacing:-.5;word-spacing:0">
<text x="359.57" y="238.68">
<tspan style="font-weight:bold;font-size:10" x="359.57" y="238.68">RAID superblock</tspan>
<tspan style="font-size:10" x="359.57" y="248.68">- array UUID</tspan>
<tspan style="font-size:10" x="359.57" y="258.68">- RAID level</tspan>
</text>
<text x="348.3" y="216.15">
<tspan style="font-weight:bold;font-size:10" x="348.3" y="216.15">Partition</tspan>
</text>
<text x="354.37" y="288.95">
<tspan style="font-weight:bold;font-size:10" x="354.37" y="288.95">Filesystem</tspan>
</text>
<text x="516.14" y="428.23">
<tspan style="font-weight:bold;font-size:10" x="516.14" y="428.23">/etc/fstab</tspan>
<tspan style="font-size:10" x="516.14" y="438.23">- Filesystems on top of arrays</tspan>
</text>
</g>
<path d="m510.03 414.93h133.01v30.89h-133.01z" style="fill:none;stroke:#b8860b;stroke-width:1.1"/>
<path d="m351.08 275.49h307.9v178.47h-307.9z" style="fill:none;stroke:#006400;stroke-width:1.1"/>
<g transform="translate(-439.2 158.59)">
<text style="font-family:Droid Sans;letter-spacing:-.5;word-spacing:0" x="980.61" y="154.26">
<tspan style="font-weight:bold;font-size:10" x="980.61" y="154.26">Ram disk image</tspan>
</text>
<path d="m974.09 141.77h118v94.95h-118z" style="fill:none;stroke:#00bfff;stroke-width:1.1"/>
<path d="m981.68 162.6h102.69v29.34h-102.69z" style="fill:none;stroke:#00bfff;stroke-width:1.1"/>
<text style="font-family:Droid Sans;letter-spacing:-.5;word-spacing:0" x="986.31" y="175.88">
<tspan style="font-size:10" x="986.31" y="175.88">mdadm (user-space)</tspan>
<tspan style="font-size:10" x="986.31" y="185.88">RAID (kernel modules)</tspan>
</text>
<text style="font-family:Droid Sans;letter-spacing:-.5;word-spacing:0" x="986.31" y="213.14">
<tspan style="font-weight:bold;font-size:10" x="986.31" y="213.14">/etc/mdadm.conf</tspan>
<tspan style="font-size:10" x="986.31" y="223.14">- Array conf/devices</tspan>
</text>
<path d="m979.98 200.98h103.04v29.52h-103.04z" style="fill:none;stroke:#ff4500;stroke-width:1.1"/>
</g>
<text style="font-family:Droid Sans;letter-spacing:-.5;word-spacing:0" x="390.56" y="433.06">
<tspan style="font-weight:bold;font-size:10" x="390.56" y="433.06">init (PID 1)</tspan>
</text>
<g style="fill:none">
<path d="m380.51 417.52h70.96v26.19h-70.96z" style="stroke:#00bfff;stroke-width:1.1"/>
<path d="m351.06 462.74h308.2v12.96h-308.2z" style="stroke:#ff4500;stroke-width:1.1"/>
<path d="m388.99 322.66-.62 20.81" style="stroke:#0000cd;marker-end:url(#i)"/>
<path d="m403.08 396.92-.62 17.43" style="stroke:#00bfff;marker-end:url(#h)"/>
<path d="m450.01 429.6 54.75-.86" style="stroke:#00bfff;marker-end:url(#g)"/>
<path d="m545.99 106.5-48.94-17.01" style="stroke:#f00;marker-end:url(#l)"/>
<path d="m520.56 155.66-62.91-.21" style="stroke:#9400d3;marker-end:url(#f)"/>
</g>
<text style="font-family:Droid Sans;letter-spacing:-.5;word-spacing:0" x="586.66" y="177.52">
<tspan style="font-size:10" x="586.66" y="177.52">Metadata blocks location</tspan>
<tspan style="font-size:10" x="586.66" y="187.52">varies with mdadm version</tspan>
</text>
<path d="m678.56 190.46-44.94 45.13" style="fill:none;stroke:#f00;marker-end:url(#c)"/>
<path d="m679.17 189.36-.21 245.4-33.7 32.58" style="fill:none;stroke:#f00;marker-end:url(#b)"/>
<text x="364.82" y="375.46">
<tspan x="364.82" y="375.46"/>
</text>
<text style="font-family:Droid Sans;letter-spacing:-.5;word-spacing:0" x="406.5" xml:space="preserve" y="509.05">
<tspan style="font-size:10" x="406.5" y="509.05">Arrays must be configured</tspan>
<tspan style="font-size:10" x="406.5" y="519.05">
<tspan style="font-weight:bold">before</tspan> filesystems are mounted</tspan>
</text>
<g style="fill:none">
<path d="m441.02 501.42-34.58-62.69" style="stroke:#00bfff;marker-end:url(#a)"/>
<g style="stroke:#006400">
<path d="m147.05 229.77h121.78v252.77h-121.78z" style="stroke-width:1.1"/>
<g style="stroke-width:.6;stroke-miterlimit:10" transform="matrix(2.38 0 0 1.35 581.84 -120.98)">
<ellipse cx="-28.01" cy="116.85" rx="80.46" ry="24.65"/>
<path d="m52.02 457.46c0 13.78-36.02 24.95-80.46 24.95s-80.46-11.17-80.46-24.95"/>
<path d="m-108.47 462.06v-343.1m160.05 0v343.1"/>
</g>
</g>
</g>
<text style="font-family:Droid Sans;letter-spacing:-.5;word-spacing:0" x="139.92" y="211.22">
<tspan style="font-weight:bold;font-size:12.5;font-family:Droid Sans" x="139.92" y="211.22">RAID array</tspan>
</text>
<text style="font-family:Droid Sans;letter-spacing:-.5;word-spacing:0" x="152.17" y="243.09">
<tspan style="font-weight:bold;font-size:10" x="152.17" y="243.09">Another array's device</tspan>
</text>
<path d="m152.23 251.33h110.49v19.41h-110.49z" style="fill:none;stroke:#ff4500;stroke-width:1.1"/>
<text style="font-family:Droid Sans;letter-spacing:-.5;word-spacing:0" x="166.99" y="263.72">
<tspan style="font-size:10" x="166.99" y="263.72">
<tspan style="font-weight:bold">RAID superblock</tspan>
</tspan>
</text>
<path d="m333.84 259.81-66.23.19" style="fill:none;stroke:#00bfff;marker-end:url(#e)"/>
<g transform="translate(-381.19 -107.25)">
<text style="font-family:Droid Sans;letter-spacing:-.5;word-spacing:0" x="757.43" y="199.03">
<tspan style="font-weight:bold;font-size:10" x="757.43" y="199.03">GPT partition table</tspan>
<tspan x="757.43" y="209.03"/>
<tspan x="757.43" y="219.03"/>
<tspan x="757.43" y="229.03"/>
</text>
<path d="m726.54 185.66h156.51v21.72h-156.51z" style="fill:none;stroke:#006400;stroke-width:1.1"/>
<path d="m726.53 207.58h156.51v21.72h-156.51z" style="fill:none;stroke:#006400;stroke-width:1.1"/>
<text style="font-family:Droid Sans;letter-spacing:-.5;word-spacing:0" x="738.72" y="221.59">
<tspan style="font-size:10" x="738.72" y="221.59">Partition type flag : Linux_RAID</tspan>
</text>
</g>
</svg>