<svg height="450" viewBox="0 0 1280 439.16" width="1280" xmlns="http://www.w3.org/2000/svg" xmlns:xlink="http://www.w3.org/1999/xlink">
<clipPath id="a">
<path d="m33.77 453.22h73.82v7.08h-73.82z" style="clip-rule:evenodd"/>
</clipPath>
<clipPath id="b">
<path d="m33.77 453.26h73.82v7.03h-73.82z" style="clip-rule:evenodd"/>
</clipPath>
<clipPath id="c">
<path d="m47.9 432.14h200.3v7.08h-200.3z" style="clip-rule:evenodd"/>
</clipPath>
<clipPath id="d">
<path d="m47.9 432.19h200.3v7.03h-200.3z" style="clip-rule:evenodd"/>
</clipPath>
<clipPath id="e">
<path d="m33.77 439.15h214.44v7.1h-214.44z" style="clip-rule:evenodd"/>
</clipPath>
<clipPath id="f">
<path d="m33.77 439.22h214.44v7.03h-214.44z" style="clip-rule:evenodd"/>
</clipPath>
<clipPath id="g">
<path d="m267.43 449.69h45.07v7.08h-45.07z" style="clip-rule:evenodd"/>
</clipPath>
<clipPath id="h">
<path d="m267.43 449.74h45.07v7.03h-45.07z" style="clip-rule:evenodd"/>
</clipPath>
<clipPath id="i">
<path d="m395.64 452.54h38.11v7.08h-38.11z" style="clip-rule:evenodd"/>
</clipPath>
<clipPath id="j">
<path d="m395.64 452.59h38.11v7.03h-38.11z" style="clip-rule:evenodd"/>
</clipPath>
<clipPath id="k">
<path d="m395.64 445.51h49.73v7.08h-49.73z" style="clip-rule:evenodd"/>
</clipPath>
<clipPath id="l">
<path d="m395.64 445.58h49.7v7.01h-49.7z" style="clip-rule:evenodd"/>
</clipPath>
<clipPath id="m">
<path d="m526.54 388.25h44.81v7.08h-44.81z" style="clip-rule:evenodd"/>
</clipPath>
<clipPath id="n">
<path d="m526.54 388.32h44.81v7.01h-44.81z" style="clip-rule:evenodd"/>
</clipPath>
<clipPath id="o">
<path d="m526.54 381.22h34.32v7.1h-34.32z" style="clip-rule:evenodd"/>
</clipPath>
<clipPath id="p">
<path d="m526.54 381.29h34.32v7.03h-34.32z" style="clip-rule:evenodd"/>
</clipPath>
<clipPath id="q">
<path d="m447.43 452.23h38.09v7.08h-38.09z" style="clip-rule:evenodd"/>
</clipPath>
<clipPath id="r">
<path d="m447.43 452.28h38.09v7.03h-38.09z" style="clip-rule:evenodd"/>
</clipPath>
<clipPath id="s">
<path d="m447.43 445.2h46.25v7.08h-46.25z" style="clip-rule:evenodd"/>
</clipPath>
<clipPath id="t">
<path d="m447.43 445.27h46.25v7.01h-46.25z" style="clip-rule:evenodd"/>
</clipPath>
<clipPath id="u">
<path d="m493.56 451.9h38.11v7.1h-38.11z" style="clip-rule:evenodd"/>
</clipPath>
<clipPath id="v">
<path d="m493.56 451.97h38.11v7.03h-38.11z" style="clip-rule:evenodd"/>
</clipPath>
<clipPath id="w">
<path d="m493.56 444.89h50.86v7.08h-50.86z" style="clip-rule:evenodd"/>
</clipPath>
<clipPath id="x">
<path d="m493.56 444.94h50.86v7.03h-50.86z" style="clip-rule:evenodd"/>
</clipPath>
<clipPath id="y">
<path d="m414.17 430.3h75.89v7.1h-75.89z" style="clip-rule:evenodd"/>
</clipPath>
<clipPath id="z">
<path d="m414.17 430.37h75.89v7.03h-75.89z" style="clip-rule:evenodd"/>
</clipPath>
<clipPath id="A">
<path d="m416.04 337.06h45.14v7.08h-45.14z" style="clip-rule:evenodd"/>
</clipPath>
<clipPath id="B">
<path d="m416.04 337.1h45.14v7.03h-45.14z" style="clip-rule:evenodd"/>
</clipPath>
<clipPath id="C">
<path d="m310.63 449.69h45.07v7.1h-45.07z" style="clip-rule:evenodd"/>
</clipPath>
<clipPath id="D">
<path d="m310.63 449.76h45.07v7.03h-45.07z" style="clip-rule:evenodd"/>
</clipPath>
<clipPath id="E">
<path d="m352.37 449.38h45.07v7.1h-45.07z" style="clip-rule:evenodd"/>
</clipPath>
<clipPath id="F">
<path d="m352.37 449.45h45.07v7.03h-45.07z" style="clip-rule:evenodd"/>
</clipPath>
<clipPath id="G">
<path d="m414.17 401.11h45.46v7.1h-45.46z" style="clip-rule:evenodd"/>
</clipPath>
<clipPath id="H">
<path d="m414.17 401.18h45.46v7.03h-45.46z" style="clip-rule:evenodd"/>
</clipPath>
<clipPath id="I">
<path d="m417 419.3h57.67v7.1h-57.67z" style="clip-rule:evenodd"/>
</clipPath>
<clipPath id="J">
<path d="m417 419.38h57.67v7.03h-57.67z" style="clip-rule:evenodd"/>
</clipPath>
<clipPath id="K">
<path d="m417 412.3h53.35v7.08h-53.35z" style="clip-rule:evenodd"/>
</clipPath>
<clipPath id="L">
<path d="m417 412.34h53.35v7.03h-53.35z" style="clip-rule:evenodd"/>
</clipPath>
<clipPath id="M">
<path d="m336.34 392.02h84.36v7.08h-84.36z" style="clip-rule:evenodd"/>
</clipPath>
<clipPath id="N">
<path d="m336.34 392.06h84.36v7.03h-84.36z" style="clip-rule:evenodd"/>
</clipPath>
<clipPath id="O">
<path d="m470.35 373.49h43.87v7.1h-43.87z" style="clip-rule:evenodd"/>
</clipPath>
<clipPath id="P">
<path d="m470.35 373.56h43.87v7.03h-43.87z" style="clip-rule:evenodd"/>
</clipPath>
<clipPath id="Q">
<path d="m374.93 376.94h106.22v7.1h-106.22z" style="clip-rule:evenodd"/>
</clipPath>
<clipPath id="R">
<path d="m374.93 377.02h106.22v7.03h-106.22z" style="clip-rule:evenodd"/>
</clipPath>
<clipPath id="S">
<path d="m374.93 369.94h85.18v7.08h-85.18z" style="clip-rule:evenodd"/>
</clipPath>
<clipPath id="T">
<path d="m374.93 369.98h85.18v7.03h-85.18z" style="clip-rule:evenodd"/>
</clipPath>
<clipPath id="U">
<path d="m527.16 359.06h44.69v7.08h-44.69z" style="clip-rule:evenodd"/>
</clipPath>
<clipPath id="V">
<path d="m527.16 359.14h44.69v7.01h-44.69z" style="clip-rule:evenodd"/>
</clipPath>
<clipPath id="W">
<path d="m527.16 352.03h44.38v7.1h-44.38z" style="clip-rule:evenodd"/>
</clipPath>
<clipPath id="X">
<path d="m527.16 352.1h44.38v7.03h-44.38z" style="clip-rule:evenodd"/>
</clipPath>
<clipPath id="Y">
<path d="m515.54 323.9h79.9v7.1h-79.9z" style="clip-rule:evenodd"/>
</clipPath>
<clipPath id="Z">
<path d="m515.54 323.98h79.9v7.03h-79.9z" style="clip-rule:evenodd"/>
</clipPath>
<clipPath id="aa">
<path d="m515.54 316.9h78.41v7.08h-78.41z" style="clip-rule:evenodd"/>
</clipPath>
<clipPath id="ab">
<path d="m515.54 316.94h78.41v7.03h-78.41z" style="clip-rule:evenodd"/>
</clipPath>
<clipPath id="ac">
<path d="m514.92 342.43h80.66v7.08h-80.66z" style="clip-rule:evenodd"/>
</clipPath>
<clipPath id="ad">
<path d="m514.92 342.5h80.66v7.01h-80.66z" style="clip-rule:evenodd"/>
</clipPath>
<clipPath id="ae">
<path d="m514.92 335.4h55.37v7.1h-55.37z" style="clip-rule:evenodd"/>
</clipPath>
<clipPath id="af">
<path d="m514.92 335.47h55.37v7.03h-55.37z" style="clip-rule:evenodd"/>
</clipPath>
<clipPath id="ag">
<path d="m471.6 315.74h43.87v7.1h-43.87z" style="clip-rule:evenodd"/>
</clipPath>
<clipPath id="ah">
<path d="m471.6 315.82h43.87v7.03h-43.87z" style="clip-rule:evenodd"/>
</clipPath>
<clipPath id="ai">
<path d="m411.65 312.62h72v7.08h-72z" style="clip-rule:evenodd"/>
</clipPath>
<clipPath id="aj">
<path d="m411.65 312.67h72v7.03h-72z" style="clip-rule:evenodd"/>
</clipPath>
<clipPath id="ak">
<path d="m416.35 302.26h45.77v7.1h-45.77z" style="clip-rule:evenodd"/>
</clipPath>
<clipPath id="al">
<path d="m416.35 302.33h45.77v7.03h-45.77z" style="clip-rule:evenodd"/>
</clipPath>
<clipPath id="am">
<path d="m416.35 295.25h60.02v7.08h-60.02z" style="clip-rule:evenodd"/>
</clipPath>
<clipPath id="an">
<path d="m416.35 295.3h60.02v7.03h-60.02z" style="clip-rule:evenodd"/>
</clipPath>
<clipPath id="ao">
<path d="m292.7 340.22h48.41v7.1h-48.41z" style="clip-rule:evenodd"/>
</clipPath>
<clipPath id="ap">
<path d="m292.7 340.3h48.38v7.03h-48.38z" style="clip-rule:evenodd"/>
</clipPath>
<clipPath id="aq">
<path d="m292.7 333.22h69.05v7.08h-69.05z" style="clip-rule:evenodd"/>
</clipPath>
<clipPath id="ar">
<path d="m292.7 333.26h69.05v7.03h-69.05z" style="clip-rule:evenodd"/>
</clipPath>
<clipPath id="as">
<path d="m286.1 431.86h60.22v7.1h-60.22z" style="clip-rule:evenodd"/>
</clipPath>
<clipPath id="at">
<path d="m286.1 431.93h60.22v7.03h-60.22z" style="clip-rule:evenodd"/>
</clipPath>
<clipPath id="au">
<path d="m346.99 309.17h66.86v7.08h-66.86z" style="clip-rule:evenodd"/>
</clipPath>
<clipPath id="av">
<path d="m346.99 309.22h66.86v7.03h-66.86z" style="clip-rule:evenodd"/>
</clipPath>
<clipPath id="aw">
<path d="m346.99 302.14h64.73v7.1h-64.73z" style="clip-rule:evenodd"/>
</clipPath>
<clipPath id="ax">
<path d="m346.99 302.21h64.73v7.03h-64.73z" style="clip-rule:evenodd"/>
</clipPath>
<g transform="matrix(2.39 0 0 -2.39 -133.36 1107.55)">
<g style="clip-path:url(#a)" transform="translate(17.6 -40.8)">
<g style="clip-path:url(#b)">
<text style="font-weight:bold;font-size:5.76;font-family:Droid Sans" transform="matrix(1 0 0 -1 37.66 454.85)">
<tspan x="0 3.63 6.73 11.06 12.33 15.18 16.48 19.57 21.64 24.71 27.15 30.05 32.38 34.7 35.9 38.22 39.65 42.55 45.45 48.54" y="0">How a process sleeps</tspan>
</text>
</g>
</g>
<g style="clip-path:url(#c)" transform="translate(17.6 -40.8)">
<g style="clip-path:url(#d)">
<text style="font-size:5.76;font-family:Droid Sans" transform="matrix(1 0 0 -1 51.79 433.78)">
<tspan x="0 3.31 4.63 6.55 9.31 11.58 14.21 15.46 17.9 20.66 23.68 26.67 29.73 31.66 32.86 35.86 38.72 40.05 44.17 47.24 49.88 52.74 55.77 56.93 59.93 62.93 64.25 67.25 69.88 71.13 73.38 74.71 77.39 80.39 83.15 84.48 86.73 88.18 89.48 92.63 95.69 97.62 100.64 101.88 104.95 106.7 107.95 109.88 112.9 115.77 120.4 121.57 124.33 126.34 129.21 130.51 133.53 136.4 139.03 141.9 143.91 145.08 147.34 149.77 152.8 155.66 158.66 161.67 162.99 165.86 168.87 170.12 172.05 175.13 176.38 178.37 181.37" y="0">A task cannot be woken up by signals. Both of them are never scheduled to run</tspan>
</text>
</g>
</g>
<g style="clip-path:url(#e)" transform="translate(17.6 -40.8)">
<g style="clip-path:url(#f)">
<text style="font-size:5.78;font-family:Droid Sans" transform="matrix(1 0 0 -1 37.66 440.78)">
<tspan x="0 3.57 4.9 6.66 8.43 11.34 13.36 16.25 19.29 21.23 22.42 26.55 29.32 30.66 32.59 33.87 38.52 41.58 44.62 47.5 49.76 50.96 52.29 53.6 56.23 59.14 60.41 63.23 66.58 69.23 72.24 75.15 76.59 80.32 83.14 85.96 89.1 92.24 95.97 98.99 101.81 103.27 106.41 108.84 111.62 112.75 115.52 118.53 121.57 122.88 125.69 129.04 131.7 134.7 137.61 141.32 145.06 146.49 150.22 153.04 155.86 159 162.14 165.87 168.89 171.71 173.17 176.31 178.74 181.58 182.66 186.8 189.84 192.74 194.76" y="0">Different wait modes like TASK_INTERRUPTIBLE and TASK_UNINTERRUPTIBLE where</tspan>
</text>
</g>
</g>
<g style="fill:none;stroke-width:.74;stroke-linecap:round;stroke-linejoin:round;stroke-miterlimit:10">
<path d="m268.44 462.79h36.1v-18.84h-36.1z" style="stroke:#548dd4"/>
<path d="m527.57 396.58h30.41v-15.36h-30.41z" style="stroke:#ed1c24"/>
<path d="m395.71 462.34h37.66v-18.84h-37.66z" style="stroke:#177d36"/>
</g>
<g style="clip-path:url(#g)">
<g style="clip-path:url(#h)">
<text style="font-size:5.76;font-family:Droid Sans" transform="matrix(1 0 0 -1 271.32 451.32)">
<tspan x="0 3 5.01 8.08 10.51 13.4 15.65 17.9 19.04" y="0">Process 1</tspan>
</text>
</g>
</g>
<path d="m287.28 443.95-.79-162.79" style="fill:none;stroke:#548dd4;stroke-width:.74;stroke-linecap:round;stroke-linejoin:round;stroke-miterlimit:10"/>
<g style="clip-path:url(#i)">
<g style="clip-path:url(#j)">
<text style="font-size:5.76;font-family:Droid Sans" transform="matrix(1 0 0 -1 399.53 454.18)">
<tspan x="0 3.02 5.89 7.91 10.93 13.8" y="0">Kernel</tspan>
</text>
</g>
</g>
<g style="clip-path:url(#k)">
<g style="clip-path:url(#l)">
<text style="font-size:5.76;font-family:Droid Sans" transform="matrix(1 0 0 -1 399.53 447.14)">
<tspan x="0 2.64 5.28 7.53 9.47 12.34 17 18.2 21.27 24.02 25.35" y="0">System Call</tspan>
</text>
</g>
</g>
<path d="m414.55 443.66-1.56-163.75" style="fill:none;stroke:#177d36;stroke-width:.74;stroke-linecap:round;stroke-linejoin:round;stroke-miterlimit:10"/>
<g style="clip-path:url(#m)">
<g style="clip-path:url(#n)">
<text style="font-size:5.76;font-family:Droid Sans" transform="matrix(1 0 0 -1 530.42 389.88)">
<tspan x="0 2.81 4.13 8.76 11.62 13.88 15.2 16.53 18.97" y="0">Timeslice</tspan>
</text>
</g>
</g>
<g style="clip-path:url(#o)">
<g style="clip-path:url(#p)">
<text style="font-size:5.78;font-family:Droid Sans" transform="matrix(1 0 0 -1 530.42 382.85)">
<tspan x="0 3.83 6.44 9.32" y="0">Over</tspan>
</text>
</g>
</g>
<path d="m414.38 424.87h4.68v-10.99h-4.68z" style="fill:none;stroke:#177d36;stroke-width:.74;stroke-linecap:round;stroke-linejoin:round;stroke-miterlimit:10"/>
<path d="m447.24 462.46h37.68v-18.84h-37.68z" style="fill:none;stroke:#177d36;stroke-width:.74;stroke-linecap:round;stroke-linejoin:round;stroke-miterlimit:10"/>
<g style="clip-path:url(#q)">
<g style="clip-path:url(#r)">
<text style="font-size:5.78;font-family:Droid Sans" transform="matrix(1 0 0 -1 451.32 453.86)">
<tspan x="0 3.01 5.89 7.91 10.9 13.78" y="0">Kernel</tspan>
</text>
</g>
</g>
<g style="clip-path:url(#s)">
<g style="clip-path:url(#t)">
<text style="font-size:5.76;font-family:Droid Sans" transform="matrix(1 0 0 -1 451.32 446.83)">
<tspan x="0 2.64 5.08 8.1 10.97 13.97 16.97 18.29 21.16" y="0">Scheduler</tspan>
</text>
</g>
</g>
<g style="fill:none;stroke-width:.74;stroke-linecap:round;stroke-linejoin:round;stroke-miterlimit:10;stroke:#177d36">
<path d="m413.52 307.73h4.68v-11.31h-4.68z"/>
<path d="m414.41 429.86 98.06-.28"/>
<path d="m507.43 432.12 5.07-2.52-5.09-2.52"/>
<path d="m493.7 461.83h37.68v-18.84h-37.68z"/>
<path d="m512.52 443.18-.96-127.8"/>
</g>
<g style="clip-path:url(#u)">
<g style="clip-path:url(#v)">
<text style="font-size:5.78;font-family:Droid Sans" transform="matrix(1 0 0 -1 497.45 453.53)">
<tspan x="0 3.01 5.92 7.94 10.98 13.86" y="0">Kernel</tspan>
</text>
</g>
</g>
<g style="clip-path:url(#w)">
<g style="clip-path:url(#x)">
<text style="font-size:5.76;font-family:Droid Sans" transform="matrix(1 0 0 -1 497.45 446.52)">
<tspan x="0 1.45 4.58 8.46 9.76 12.78 15.54 18.56 21.59 22.91 25.79" y="0">IRQ handler</tspan>
</text>
</g>
</g>
<g style="fill:none;stroke-width:.74;stroke-linecap:round;stroke-linejoin:round;stroke-miterlimit:10">
<path d="m527.23 385.01-15.36-5.31" style="stroke:#ed1c24"/>
<path d="m517.49 378.96-5.62.74 3.94 4.04" style="stroke:#ed1c24"/>
<g style="stroke:#177d36">
<path d="m414.24 401.33h52.08"/>
<path d="m461.26 403.85 5.08-2.52-5.08-2.55"/>
<path d="m511.9 348.84h4.7v-11.28h-4.7z"/>
<path d="m465.7 391.61-135.87.02"/>
<path d="m334.87 389.09-5.06 2.54 5.06 2.55"/>
<path d="m511.54 374.38-46.16-.34"/>
<path d="m470.47 371.57-5.09 2.47 5.07 2.57"/>
<path d="m413.35 360.77h4.68v-11.31h-4.68z"/>
<path d="m466.46 443.3-1.05-148.94"/>
<path d="m412.99 346.08 51.89-.94"/>
<path d="m459.89 347.76 5.01-2.64-5.13-2.42"/>
</g>
</g>
<g style="clip-path:url(#y)">
<g style="clip-path:url(#z)">
<text style="font-size:5.78;font-family:Droid Sans" transform="matrix(1 0 0 -1 418.06 431.93)">
<tspan x="0 3.14 6.02 8.75 10.06 12.32 14.26 17.14 19.16 20.35 22.29 25.36 26.61 30.75 33.52 34.85 36.79 38.04 41.07 44.09 46.97 50" y="0">Register to wait queue</tspan>
</text>
</g>
</g>
<g style="clip-path:url(#A)">
<g style="clip-path:url(#B)">
<text style="font-size:5.76;font-family:Droid Sans" transform="matrix(1 0 0 -1 419.93 338.69)">
<tspan x="0 2.83 4.15 7.02 8.35 11.37 12.62 13.94 17.01 19.45" y="0">Yield lock</tspan>
</text>
</g>
</g>
<path d="m311.66 462.82h36.08v-18.84h-36.08z" style="fill:none;stroke:#548dd4;stroke-width:.74;stroke-linecap:round;stroke-linejoin:round;stroke-miterlimit:10"/>
<g style="clip-path:url(#C)">
<g style="clip-path:url(#D)">
<text style="font-size:5.78;font-family:Droid Sans" transform="matrix(1 0 0 -1 314.52 451.32)">
<tspan x="0 3.02 5.04 8.1 10.55 13.45 15.71 17.97 19.09" y="0">Process 2</tspan>
</text>
</g>
</g>
<path d="m329.18 395.09v-29.52" style="fill:none;stroke:#548dd4;stroke-width:.74;stroke-linecap:round;stroke-linejoin:round;stroke-miterlimit:10"/>
<path d="m353.4 462.5h36.1v-18.84h-36.1z" style="fill:none;stroke:#548dd4;stroke-width:.74;stroke-linecap:round;stroke-linejoin:round;stroke-miterlimit:10"/>
<g style="clip-path:url(#E)">
<g style="clip-path:url(#F)">
<text style="font-size:5.78;font-family:Droid Sans" transform="matrix(1 0 0 -1 356.28 451.01)">
<tspan x="0 2.99 5.01 8.06 10.5 13.38 15.65 17.91 19.03" y="0">Process 3</tspan>
</text>
</g>
</g>
<g style="fill:none;stroke-width:.74;stroke-linecap:round;stroke-linejoin:round;stroke-miterlimit:10;stroke:#548dd4">
<path d="m370.3 371.54-.34-56.49"/>
<path d="m287.14 439.94 127.1-.91"/>
<path d="m409.2 441.58 5.04-2.57-5.06-2.5"/>
</g>
<g style="clip-path:url(#G)">
<g style="clip-path:url(#H)">
<text style="font-size:5.78;font-family:Droid Sans" transform="matrix(1 0 0 -1 418.06 402.74)">
<tspan x="0 2.82 4.15 7.03 8.36 11.38 12.63 15.71 18.72" y="0">Yield CPU</tspan>
</text>
</g>
</g>
<g style="clip-path:url(#I)">
<g style="clip-path:url(#J)">
<text style="font-size:5.78;font-family:Droid Sans" transform="matrix(1 0 0 -1 420.89 420.94)">
<tspan x="0 2.65 6.77 8.1 10.04 12.48 15.48 16.73 19.73 21.72 24.78 27.23 30.11 32.37" y="0">Switch process</tspan>
</text>
</g>
</g>
<g style="clip-path:url(#K)">
<g style="clip-path:url(#L)">
<text style="font-size:5.76;font-family:Droid Sans" transform="matrix(1 0 0 -1 420.89 413.93)">
<tspan x="0 2.81 5.88 7.13 11.24 14 15.33 17.27 18.52 20.77 22.71 25.47 27.4" y="0">To wait state</tspan>
</text>
</g>
</g>
<g style="clip-path:url(#M)">
<g style="clip-path:url(#N)">
<text style="font-size:5.76;font-family:Droid Sans" transform="matrix(1 0 0 -1 340.22 393.65)">
<tspan x="0 3.13 6.02 8.27 11.28 15.9 18.77 19.98 22.98 24.31 26.99 29.99 32.86 34.88 36.2 39.2 41.21 42.53 45.6 46.85 49.85 51.86 54.93 57.37 60.26 62.51" y="0">Resume higher prio process</tspan>
</text>
</g>
</g>
<g style="clip-path:url(#O)">
<g style="clip-path:url(#P)">
<text style="font-size:5.78;font-family:Droid Sans" transform="matrix(1 0 0 -1 474.24 375.12)">
<tspan x="0 2.26 4.71 7.7 10.58 13.59 16.59 17.92" y="0">schedule</tspan>
</text>
</g>
</g>
<path d="m465.43 369.55-95.13-.19" style="fill:none;stroke:#177d36;stroke-width:.74;stroke-linecap:round;stroke-linejoin:round;stroke-miterlimit:10"/>
<path d="m375.38 366.82-5.08 2.52 5.08 2.54" style="fill:none;stroke:#177d36;stroke-width:.74;stroke-linecap:round;stroke-linejoin:round;stroke-miterlimit:10"/>
<g style="clip-path:url(#Q)">
<g style="clip-path:url(#R)">
<text style="font-weight:bold;font-size:5.78;font-family:Droid Sans" transform="matrix(1 0 0 -1 378.82 378.58)">
<tspan x="0 3.26 6.17 8.49 11.6 16.3 19.21 20.49 22.31 25.41 28.5 29.81 32.92 36.03 38.04 39.34 41.8 44.91 47.99 50.31 51.77 54.87 57.78 59.85 61.04 64.15 66.22 69.33 71.75 74.66 76.99 79.31 80.58" y="0">Resume (do not consider process 1</tspan>
</text>
</g>
</g>
<g style="clip-path:url(#S)">
<g style="clip-path:url(#T)">
<text style="font-weight:bold;font-size:5.76;font-family:Droid Sans" transform="matrix(1 0 0 -1 378.82 371.57)">
<tspan x="0 2.72 4.17 7.26 9.71 12.61 13.89 15.34 17.35 18.63 20.09 22.41 23.68 25.14 28.23 29.5 32.03 34.35 35.8 38.7 41.6 44.69 47.21 48.55 50.87 52.88 55.72 57.72 60.62" y="0">Since it is in "sleep" state)</tspan>
</text>
</g>
</g>
<path d="m528.12 367.18h30.46v-15.36h-30.46z" style="fill:none;stroke:#ed1c24;stroke-width:.74;stroke-linecap:round;stroke-linejoin:round;stroke-miterlimit:10"/>
<g style="clip-path:url(#U)">
<g style="clip-path:url(#V)">
<text style="font-size:5.76;font-family:Droid Sans" transform="matrix(1 0 0 -1 531.05 360.7)">
<tspan x="0 3.13 6.02 8.27 11.34 14.34 16.35 18.8" y="0">Resource</tspan>
</text>
</g>
</g>
<g style="clip-path:url(#W)">
<g style="clip-path:url(#X)">
<text style="font-size:5.78;font-family:Droid Sans" transform="matrix(1 0 0 -1 531.05 353.66)">
<tspan x="0 3.31 5.95 8.72 10.02 11.35 14.1 17.1 18.43" y="0">Available</tspan>
</text>
</g>
</g>
<path d="m527.93 358.92-15.41-5.35" style="fill:none;stroke:#ed1c24;stroke-width:.74;stroke-linecap:round;stroke-linejoin:round;stroke-miterlimit:10"/>
<path d="m518.16 352.85-5.64.72 3.96 4.05" style="fill:none;stroke:#ed1c24;stroke-width:.74;stroke-linecap:round;stroke-linejoin:round;stroke-miterlimit:10"/>
<g style="clip-path:url(#Y)">
<g style="clip-path:url(#Z)">
<text style="font-size:5.78;font-family:Droid Sans" transform="matrix(1 0 0 -1 519.43 325.54)">
<tspan x="0 1.44 3.2 4.51 7.55 9.57 12.61 15.06 16.32 19.27 20.52 23.55 26.3 28.56 29.87 32.91 34.24 36.91 39.94 42.82 44.84 46.08 49.11 51.13 52.44 55.5 56.81 58.76 61.8 64.54 67.58 68.82" y="0">If proc 1 has higher prio than 2</tspan>
</text>
</g>
</g>
<g style="clip-path:url(#aa)">
<g style="clip-path:url(#ab)">
<text style="font-size:5.76;font-family:Droid Sans" transform="matrix(1 0 0 -1 519.43 318.53)">
<tspan x="0 2.83 5.85 8.72 11.74 13.01 15.26 18.13 20.08 21.33 24.35 27.22 30.11 33.13 36 38.25 40.71 43.74 46.6 49.63 50.89 52.65 53.97 56.73" y="0">Then set need_sched flag</tspan>
</text>
</g>
</g>
<g style="clip-path:url(#ac)">
<g style="clip-path:url(#ad)">
<text style="font-size:5.76;font-family:Droid Sans" transform="matrix(1 0 0 -1 518.81 344.06)">
<tspan x="0 2.64 6.76 8.09 10.02 12.48 15.48 16.73 19.49 20.81 22.14 23.44 26.46 28.47 31.53 33.97 35.23 36.55 39.55 40.86 43.86 46.86 49.73 52.76 55.62 56.87 58.8" y="0">Switch all proc in queue to</tspan>
</text>
</g>
</g>
<g style="clip-path:url(#ae)">
<g style="clip-path:url(#af)">
<text style="font-size:5.78;font-family:Droid Sans" transform="matrix(1 0 0 -1 518.81 337.03)">
<tspan x="0 3.14 6.14 9.14 12.15 13.48 16.47 19.16 20.46 22.73 24.66 27.43 29.37" y="0">Running state</tspan>
</text>
</g>
</g>
<g style="fill:none;stroke-width:.74;stroke-linecap:round;stroke-linejoin:round;stroke-miterlimit:10;stroke:#177d36">
<path d="m511.61 329.76h4.7v-11.33h-4.7z"/>
<path d="m511.61 316.2-46.15-.31"/>
<path d="m470.54 313.39-5.08 2.5 5.06 2.54"/>
</g>
<g style="clip-path:url(#ag)">
<g style="clip-path:url(#ah)">
<text style="font-size:5.78;font-family:Droid Sans" transform="matrix(1 0 0 -1 475.49 317.38)">
<tspan x="0 2.26 4.7 7.73 10.6 13.63 16.67 17.99" y="0">schedule</tspan>
</text>
</g>
</g>
<path d="m465.53 312.24h-52.23" style="fill:none;stroke:#177d36;stroke-width:.74;stroke-linecap:round;stroke-linejoin:round;stroke-miterlimit:10"/>
<path d="m418.37 309.72-5.07 2.52 5.04 2.52" style="fill:none;stroke:#177d36;stroke-width:.74;stroke-linecap:round;stroke-linejoin:round;stroke-miterlimit:10"/>
<g style="clip-path:url(#ai)">
<g style="clip-path:url(#aj)">
<text style="font-size:5.76;font-family:Droid Sans" transform="matrix(1 0 0 -1 415.54 314.26)">
<tspan x="0 3.13 6.04 8.32 11.34 15.99 18.89 20.09 21.85 23.86 26.96 31.61 32.81 35.08 37.72 39.99 41.26 43.7 46.49 47.81" y="0">Resume from sys call</tspan>
</text>
</g>
</g>
<g style="clip-path:url(#ak)">
<g style="clip-path:url(#al)">
<text style="font-size:5.78;font-family:Droid Sans" transform="matrix(1 0 0 -1 420.26 303.89)">
<tspan x="0 2.61 3.91 6.91 8.21 10.47 13.47 14.77 17.22 19.97 21.26" y="0">Finish call</tspan>
</text>
</g>
</g>
<g style="clip-path:url(#am)">
<g style="clip-path:url(#an)">
<text style="font-size:5.78;font-family:Droid Sans" transform="matrix(1 0 0 -1 420.26 296.88)">
<tspan x="0 1.75 4.63 7.14 8.38 10.82 13.89 16.89 19.51 20.68 23.69 26.69 28.45 30.19 33.07 35.06" y="0">(ex copy buffer)</tspan>
</text>
</g>
</g>
<g style="fill:none;stroke-width:.74;stroke-linecap:round;stroke-linejoin:round;stroke-miterlimit:10">
<path d="m412.68 291.5h-126.48" style="stroke:#177d36"/>
<path d="m291.24 288.98-5.04 2.55 5.04 2.52" style="stroke:#177d36"/>
<g style="stroke:#00f">
<path d="m294.36 394.44-.62-86.28"/>
<path d="m296.3 313.15-2.56-4.99-2.5 5.06"/>
<path d="m291.82 389.4 2.54 5.06 2.5-5.11"/>
</g>
</g>
<g style="clip-path:url(#ao)">
<g style="clip-path:url(#ap)">
<text style="font-weight:bold;font-size:5.78;font-family:Droid Sans" transform="matrix(1 0 0 -1 296.59 341.86)">
<tspan x="0 2.71 4.14 7.04 9.91 12.99 14.29 16.32 17.74 22.45" y="0">Sleep time</tspan>
</text>
</g>
</g>
<g style="clip-path:url(#aq)">
<g style="clip-path:url(#ar)">
<text style="font-weight:bold;font-size:5.76;font-family:Droid Sans" transform="matrix(1 0 0 -1 296.59 334.85)">
<tspan x="0 3.06 6.13 9.89 11.15 13.21 16.09 18.41 21.48 24.55 26.61 29.05 31.93 33.13 34.95 37.01 39.89 42.77" y="0">CPU resource freed</tspan>
</text>
</g>
</g>
<g style="clip-path:url(#as)">
<g style="clip-path:url(#at)">
<text style="font-size:5.78;font-family:Droid Sans" transform="matrix(1 0 0 -1 290.02 433.49)">
<tspan x="0 3.12 4.41 7.48 9.93 12.56 13.84 16.84 19.53 20.78 23.04 25.66 27.93 29.16 31.6 34.37 35.66" y="0">Blocking sys call</tspan>
</text>
</g>
</g>
<path d="m329.18 443.71v-48.65" style="fill:none;stroke:#a5a5a5;stroke-width:.74;stroke-linecap:round;stroke-linejoin:round;stroke-miterlimit:10"/>
<path d="m370.3 371.54 1.12 72.12" style="fill:none;stroke:#a5a5a5;stroke-width:.74;stroke-linecap:round;stroke-linejoin:round;stroke-miterlimit:10"/>
<g style="clip-path:url(#au)">
<g style="clip-path:url(#av)">
<text style="font-weight:bold;font-size:5.76;font-family:Droid Sans" transform="matrix(1 0 0 -1 350.9 310.8)">
<tspan x="0 3.06 5.13 8.01 10.89 15.59 18.66 20.66 23.54 26.61 27.86 30.93 33.81 35.61 38.68 40.73" y="0">Preempted before</tspan>
</text>
</g>
</g>
<g style="clip-path:url(#aw)">
<g style="clip-path:url(#ax)">
<text style="font-weight:bold;font-size:5.78;font-family:Droid Sans" transform="matrix(1 0 0 -1 350.9 303.77)">
<tspan x="0 2.86 4.31 9.02 11.9 14.21 15.63 17.07 19.52 22.4 23.45 26.33 28.95 32.02 33.44 35.52 38.4" y="0">Timeslice expired</tspan>
</text>
</g>
</g>
</g>
</svg>