<svg height="300" viewBox="0 0 573.97 272.71" width="1000" xmlns="http://www.w3.org/2000/svg" xmlns:xlink="http://www.w3.org/1999/xlink">
<marker id="a" orient="auto" refX="0" refY="0" style="overflow:visible">
<path d="m2.31 0-3.46 2v-4z" style="fill:#008000;fill-rule:evenodd;stroke:#008000;stroke-width:.4pt"/>
</marker>
<marker id="b" orient="auto" refX="0" refY="0" style="overflow:visible">
<path d="m2.31 0-3.46 2v-4z" style="fill:#ff8c00;fill-rule:evenodd;stroke:#ff8c00;stroke-width:.4pt"/>
</marker>
<marker id="c" orient="auto" refX="0" refY="0" style="overflow:visible">
<path d="m2.31 0-3.46 2v-4z" style="fill:#008000;fill-rule:evenodd;stroke:#008000;stroke-width:.4pt"/>
</marker>
<marker id="d" orient="auto" refX="0" refY="0" style="overflow:visible">
<path d="m2.31 0-3.46 2v-4z" style="fill:#008000;fill-rule:evenodd;stroke:#008000;stroke-width:.4pt"/>
</marker>
<marker id="e" orient="auto" refX="0" refY="0" style="overflow:visible">
<path d="m2.31 0-3.46 2v-4z" style="fill:#008000;fill-rule:evenodd;stroke:#008000;stroke-width:.4pt"/>
</marker>
<marker id="f" orient="auto" refX="0" refY="0" style="overflow:visible">
<path d="m2.31 0-3.46 2v-4z" style="fill:#008000;fill-rule:evenodd;stroke:#008000;stroke-width:.4pt"/>
</marker>
<marker id="g" orient="auto" refX="0" refY="0" style="overflow:visible">
<path d="m2.31 0-3.46 2v-4z" style="fill:#008000;fill-rule:evenodd;stroke:#008000;stroke-width:.4pt"/>
</marker>
<g transform="translate(27.53 -262.05)">
<g style="fill:none">
<g style="stroke:#008000;stroke-width:1.1">
<path d="m178.34 423.26h95v55.03h-95z"/>
<path d="m178.13 436.67h94.91"/>
<path d="m178.13 450.63h94.91"/>
<path d="m178.31 464.59h94.91"/>
</g>
<path d="m173.16 418.1h233.76v65.77h-233.76z" style="stroke:#ffa500;stroke-width:1.1"/>
<g style="stroke:#32cd32;stroke-width:1.08;stroke-miterlimit:10">
<ellipse cx="225.38" cy="406.21" rx="57.5" ry="7.46"/>
<path d="m283.18 495.72c0 6.55-25.74 11.86-57.5 11.86s-57.5-5.31-57.5-11.86"/>
<path d="m168.49 496.97v-89.92m114.39 0v89.92"/>
</g>
<path d="m147.13 448.18 29.59 10.68" style="stroke:#008000;marker-end:url(#a)"/>
<path d="m161.1 374.53h349.35v141.97h-349.35z" style="stroke:#9acd32;stroke-width:1.1;stroke-dasharray:6.6 2.2"/>
<g style="stroke:#008000">
<path d="m197.08 477.8v-54.22"/>
<path d="m216.17 477.68v-54.22"/>
<path d="m235.99 477.68v-54.22"/>
<path d="m254.71 478.04v-54.22"/>
<g style="stroke-width:1.1">
<path d="m307 422.86h95v55.03h-95z"/>
<path d="m306.79 436.27h94.91"/>
<path d="m306.79 450.23h94.91"/>
<path d="m306.97 464.19h94.91"/>
</g>
</g>
<g style="stroke:#32cd32;stroke-width:1.08;stroke-miterlimit:10">
<ellipse cx="354.04" cy="405.81" rx="57.5" ry="7.46"/>
<path d="m411.84 495.32c0 6.55-25.74 11.86-57.5 11.86s-57.5-5.31-57.5-11.86"/>
<path d="m297.14 496.57v-89.92m114.39 0v89.92"/>
</g>
<g style="stroke:#008000">
<path d="m325.74 477.39v-54.22"/>
<path d="m344.82 477.27v-54.22"/>
<path d="m364.65 477.27v-54.22"/>
<path d="m383.37 477.64v-54.22"/>
</g>
<g style="stroke:#32cd32;stroke-width:1.08;stroke-miterlimit:10">
<ellipse cx="464.95" cy="405.07" rx="36.27" ry="7.46"/>
<path d="m501.4 494.59c0 6.55-16.24 11.86-36.27 11.86s-36.27-5.31-36.27-11.86"/>
<path d="m429.07 495.84v-89.92m72.14 0v89.92"/>
</g>
<path d="m437.36 428.69h56.1v44.48h-56.1z" style="stroke:#008000;stroke-width:1.1"/>
</g>
<g style="font-size:10;font-family:Droid Sans;letter-spacing:-.5;word-spacing:0">
<text x="440.45" y="447.26">
<tspan x="440.45" y="447.26">Parity chunk</tspan>
<tspan x="440.45" y="457.26">(redundant)</tspan>
</text>
<text x="168.08" y="386.33">
<tspan style="font-weight:bold" x="168.08" y="386.33">RAID 5 Array</tspan>
</text>
<text x="10.39" y="503.78">
<tspan x="10.39" y="503.78">Stripe-len (block count)</tspan>
<tspan x="10.39" y="513.78">- Number of data disks * chunk size</tspan>
</text>
</g>
<path d="m105.17 500.51 65.93-19.05" style="fill:none;stroke:#ff8c00;marker-end:url(#b)"/>
<text style="font-size:10;font-family:Droid Sans;letter-spacing:-.5;word-spacing:0" x="75.21" y="409.09">
<tspan x="75.21" y="409.09">Filesystem block</tspan>
<tspan x="75.21" y="419.09">(512 or 4096 bytes)</tspan>
</text>
<path d="m142.02 407.32 42.95 23.59" style="fill:none;stroke:#008000;marker-end:url(#c)"/>
<text style="font-size:10;font-family:Droid Sans;letter-spacing:-.5;word-spacing:0" x="7.5" xml:space="preserve" y="450.82">
<tspan x="7.5" y="450.82">RAID chunk or stride (block count)</tspan>
<tspan x="7.5" y="460.82">- Files will be split in chunks </tspan>
<tspan x="7.5" y="470.82">and shuffled between the array disk's</tspan>
</text>
<g style="fill:none;stroke-width:1.08;stroke-linejoin:bevel">
<path d="m249.4 280.31h110.31v65.41h-110.31z" style="stroke:#20b2aa"/>
<g style="stroke:#008000">
<path d="m254.07 294.58h99.67v11.42h-99.67z"/>
<path d="m254.07 306h99.67v11.42h-99.67z"/>
<path d="m254.07 317.42h99.67v11.42h-99.67z"/>
<path d="m254.07 328.84h99.67v11.42h-99.67z"/>
</g>
</g>
<text style="font-size:10;font-family:Droid Sans;letter-spacing:-.5;word-spacing:0" x="252.51" y="290.69">
<tspan x="252.51" y="290.69">File</tspan>
</text>
<g style="fill:none;stroke:#008000">
<path d="m260.56 299.93.14 103.62" style="marker-end:url(#d)"/>
<path d="m306.72 310.72.14 94.31" style="marker-end:url(#e)"/>
<path d="m347.66 322.26 93.2 83.15" style="marker-end:url(#f)"/>
<path d="m269.87 334.55-.23 70.86" style="marker-end:url(#g)"/>
</g>
<text style="font-size:10;font-family:Droid Sans;letter-spacing:-.5;word-spacing:0" x="381.78" y="340.52">
<tspan style="fill:#f00" x="381.78" y="340.52">All disks contain a mix of data</tspan>
<tspan style="fill:#f00" x="381.78" y="350.52">and parity checksums</tspan>
</text>
</g>
</svg>