<svg height="200" width="900" viewBox="0 0 1449.2 376.88" xmlns="http://www.w3.org/2000/svg"><g transform="translate(75.02 -145.27)"><g style="fill:none;stroke:#32cd32;stroke-width:.38;stroke-miterlimit:10" transform="matrix(4.22 0 0 5.33 -708.01 -2077.14)"><ellipse cx="312.74" cy="424.64" rx="34.8" ry="4.13"/><path d="m347.35 477.12c0 3.91-15.58 7.07-34.8 7.07s-34.8-3.17-34.8-7.07"/><path d="m277.94 477.87v-53.6m69.23 0v53.6"/></g><path d="m209.93 164.65h213.36v73.97h-213.36z" style="fill:none;stroke:#00f;stroke-width:1.86"/><g transform="matrix(1.69 0 0 1.69 87.33 -724.23)"><path d="m237.51 563.94h143.12v48.11h-143.12z" style="fill:none;stroke:#008000;stroke-width:1.1"/><text style="font-size:10;font-family:Droid Sans;letter-spacing:-.5;word-spacing:0" x="241.17" xml:space="preserve" y="575.51"><tspan style="font-weight:bold" x="241.17" y="575.51">Grub2 distribution</tspan><tspan x="241.17" y="585.51"> - modules (filesystem, video...)</tspan><tspan x="241.17" y="595.51"> - Configuration auto-build scripts</tspan><tspan x="241.17" y="605.51"> - themes, images ...</tspan></text></g><g transform="matrix(1.69 0 0 1.69 -293.83 -602.35)"><text style="font-size:10;font-family:Droid Sans;letter-spacing:-.5;word-spacing:0" x="471.37" y="568.2"><tspan x="471.37" y="568.2">Linux kernel and ramdisk</tspan><tspan x="471.37" y="578.2">images</tspan></text><path d="m465.59 555.11h115.71v32.28h-115.71z" style="fill:none;stroke:#008000;stroke-width:1.1"/></g><g transform="matrix(1.69 0 0 1.69 355.48 -458.98)"><ellipse cx="404.68" cy="482.33" rx="72.59" ry="26.17" style="fill:none;stroke:#ff8c00;stroke-width:1.1"/><text style="font-size:10;font-family:Droid Sans;letter-spacing:-.5;word-spacing:0" x="342.87" xml:space="preserve" y="479.29"><tspan x="342.87" y="479.29"><tspan style="font-weight:bold">grub.cfg</tspan> (generated)</tspan><tspan x="342.87" y="489.29"> - menu entries for detected OS</tspan></text></g><text style="font-size:16.87;font-family:Droid Sans;letter-spacing:-.84350121;word-spacing:0" x="221.53" xml:space="preserve" y="188.28"><tspan style="font-weight:bold" x="221.53" y="188.28">grub2-install</tspan><tspan x="221.53" y="205.15"> - selects modules for image</tspan><tspan x="221.53" y="222.02"> - builds core.img or efi.app</tspan></text><g transform="matrix(1.69 0 0 1.69 42.13 -369.6)"><ellipse cx="119.97" cy="425.7" rx="62.85" ry="26.17" style="fill:none;stroke:#ff8c00;stroke-width:1.1"/><text style="font-size:10;font-family:Droid Sans;letter-spacing:-.5;word-spacing:0" x="74.91" y="422.04"><tspan x="74.91" y="422.04">core.img for MBR/Bios</tspan><tspan x="74.91" y="432.04">efi.img for GPT/UEFI</tspan></text></g><g transform="matrix(1.69 0 0 1.69 -90.41 -704.53)"><text style="font-size:10;font-family:Droid Sans;letter-spacing:-.5;word-spacing:0" x="541.41" xml:space="preserve" y="531.05"><tspan style="font-weight:bold" x="541.41" y="531.05">grub2-mkconfig</tspan><tspan x="541.41" y="541.05"> - scans for linux images</tspan><tspan x="541.41" y="551.05"> - other OSes</tspan><tspan x="541.41" y="561.05"> - Customize in /etc/grub.d/40_custom.sh</tspan></text><path d="m537.14 518.87h173.57v49.94h-173.57z" style="fill:none;stroke:#00f;stroke-width:1.1"/></g><g style="fill:none;stroke:#0000cd;stroke-width:1.69"><path d="m422.65 217.04 65.07 59.59"/><path d="m278.39 304.06 41.12-65.75"/><path d="m837.49 256.2-151.38 109.58"/><path d="m990.38 311.25-52.37-55.48"/></g><text style="font-size:16.87;font-family:Droid Sans;letter-spacing:-.84350121;word-spacing:0" x="543.44" y="422.48"><tspan x="543.44" y="422.48">- Configuration generation</tspan><tspan x="543.44" y="439.35">/etc/grub.d</tspan><tspan x="543.44" y="456.22">- General options in</tspan><tspan x="543.44" y="473.09">/etc/default/grub</tspan></text><g style="fill:none"><path d="m533.68 400.39h195.2v81.67h-195.2z" style="stroke:#008000;stroke-width:1.86"/><path d="m837.16 256.47-130.1 143.61" style="stroke:#0000cd;stroke-width:1.69"/></g></g></svg>
