<svg height="256.3" viewBox="0 0 431.46 256.3" width="431.46" xml:space="preserve" xmlns="http://www.w3.org/2000/svg" xmlns:xlink="http://www.w3.org/1999/xlink"><clipPath id="a"><path d="m297.07 682.78h40.2v7.49h-40.2z" style="clip-rule:evenodd"/></clipPath><clipPath id="b"><path d="m297.07 682.82h40.2v7.44h-40.2z" style="clip-rule:evenodd"/></clipPath><clipPath id="c"><path d="m303.91 668.93h44.45v7.46h-44.45z" style="clip-rule:evenodd"/></clipPath><clipPath id="d"><path d="m303.91 668.98h44.45v7.42h-44.45z" style="clip-rule:evenodd"/></clipPath><clipPath id="e"><path d="m311.86 657h87.05v7.49h-87.05z" style="clip-rule:evenodd"/></clipPath><clipPath id="f"><path d="m311.86 657.07h87.05v7.42h-87.05z" style="clip-rule:evenodd"/></clipPath><clipPath id="g"><path d="m311.86 657.07h87.05v7.42h-87.05z" style="clip-rule:evenodd"/></clipPath><clipPath id="h"><path d="m311.86 657.07h87.05v7.42h-87.05z" style="clip-rule:evenodd"/></clipPath><clipPath id="i"><path d="m311.86 649.58h126.07v7.49h-126.07z" style="clip-rule:evenodd"/></clipPath><clipPath id="j"><path d="m311.86 649.66h126.07v7.42h-126.07z" style="clip-rule:evenodd"/></clipPath><clipPath id="k"><path d="m342.12 736.66h63.38v7.49h-63.38z" style="clip-rule:evenodd"/></clipPath><clipPath id="l"><path d="m342.12 736.73h63.38v7.42h-63.38z" style="clip-rule:evenodd"/></clipPath><clipPath id="m"><path d="m312.31 556.58h89.02v7.49h-89.02z" style="clip-rule:evenodd"/></clipPath><clipPath id="n"><path d="m312.31 556.66h89.02v7.42h-89.02z" style="clip-rule:evenodd"/></clipPath><clipPath id="o"><path d="m312.31 549.19h75.38v7.46h-75.38z" style="clip-rule:evenodd"/></clipPath><clipPath id="p"><path d="m312.31 549.24h75.38v7.42h-75.38z" style="clip-rule:evenodd"/></clipPath><clipPath id="q"><path d="m311.3 608.59h43.13v7.49h-43.13z" style="clip-rule:evenodd"/></clipPath><clipPath id="r"><path d="m311.3 608.66h43.13v7.42h-43.13z" style="clip-rule:evenodd"/></clipPath><clipPath id="s"><path d="m311.3 601.18h34.44v7.49h-34.44z" style="clip-rule:evenodd"/></clipPath><clipPath id="t"><path d="m311.3 601.25h34.44v7.42h-34.44z" style="clip-rule:evenodd"/></clipPath><clipPath id="u"><path d="m343.1 609.24h45.43v7.49h-45.43z" style="clip-rule:evenodd"/></clipPath><clipPath id="v"><path d="m343.1 609.31h45.43v7.42h-45.43z" style="clip-rule:evenodd"/></clipPath><clipPath id="w"><path d="m343.1 601.85h34.44v7.46h-34.44z" style="clip-rule:evenodd"/></clipPath><clipPath id="x"><path d="m343.1 601.9h34.44v7.42h-34.44z" style="clip-rule:evenodd"/></clipPath><clipPath id="y"><path d="m374.9 608.26h45.7v7.49h-45.7z" style="clip-rule:evenodd"/></clipPath><clipPath id="z"><path d="m374.9 608.33h45.7v7.42h-45.7z" style="clip-rule:evenodd"/></clipPath><clipPath id="A"><path d="m374.9 600.84h37.42v7.49h-37.42z" style="clip-rule:evenodd"/></clipPath><clipPath id="B"><path d="m374.9 600.91h37.42v7.42h-37.42z" style="clip-rule:evenodd"/></clipPath><clipPath id="C"><path d="m407.04 621.5h81.53v7.49h-81.53z" style="clip-rule:evenodd"/></clipPath><clipPath id="D"><path d="m407.04 621.58h81.53v7.42h-81.53z" style="clip-rule:evenodd"/></clipPath><clipPath id="E"><path d="m407.04 621.58h81.53v7.42h-81.53z" style="clip-rule:evenodd"/></clipPath><clipPath id="F"><path d="m407.04 621.58h81.53v7.42h-81.53z" style="clip-rule:evenodd"/></clipPath><clipPath id="G"><path d="m407.04 614.09h87.89v7.49h-87.89z" style="clip-rule:evenodd"/></clipPath><clipPath id="H"><path d="m407.04 614.16h87.89v7.42h-87.89z" style="clip-rule:evenodd"/></clipPath><clipPath id="I"><path d="m410.35 587.06h37.75v7.49h-37.75z" style="clip-rule:evenodd"/></clipPath><clipPath id="J"><path d="m410.35 587.14h37.75v7.42h-37.75z" style="clip-rule:evenodd"/></clipPath><clipPath id="K"><path d="m410.35 579.65h46.42v7.49h-46.42z" style="clip-rule:evenodd"/></clipPath><clipPath id="L"><path d="m410.35 579.72h46.42v7.42h-46.42z" style="clip-rule:evenodd"/></clipPath><clipPath id="M"><path d="m398.76 558.91h91.66v7.49h-91.66z" style="clip-rule:evenodd"/></clipPath><clipPath id="N"><path d="m398.76 558.98h91.66v7.42h-91.66z" style="clip-rule:evenodd"/></clipPath><clipPath id="O"><path d="m398.76 551.5h60.6v7.49h-60.6z" style="clip-rule:evenodd"/></clipPath><clipPath id="P"><path d="m398.76 551.57h60.6v7.42h-60.6z" style="clip-rule:evenodd"/></clipPath><clipPath id="Q"><path d="m398.76 551.57h60.6v7.42h-60.6z" style="clip-rule:evenodd"/></clipPath><clipPath id="R"><path d="m398.76 551.57h60.6v7.42h-60.6z" style="clip-rule:evenodd"/></clipPath><clipPath id="S"><path d="m544.15 594.26h51.46v7.46h-51.46z" style="clip-rule:evenodd"/></clipPath><clipPath id="T"><path d="m544.15 594.31h51.46v7.42h-51.46z" style="clip-rule:evenodd"/></clipPath><clipPath id="U"><path d="m544.15 586.85h42.46v7.49h-42.46z" style="clip-rule:evenodd"/></clipPath><clipPath id="V"><path d="m544.15 586.92h42.46v7.42h-42.46z" style="clip-rule:evenodd"/></clipPath><clipPath id="W"><path d="m488.83 556.58h39.48v7.49h-39.48z" style="clip-rule:evenodd"/></clipPath><clipPath id="X"><path d="m488.83 556.66h39.48v7.42h-39.48z" style="clip-rule:evenodd"/></clipPath><clipPath id="Y"><path d="m540.84 636.31h54.77v7.49h-54.77z" style="clip-rule:evenodd"/></clipPath><clipPath id="Z"><path d="m540.84 636.38h54.77v7.42h-54.77z" style="clip-rule:evenodd"/></clipPath><clipPath id="aa"><path d="m540.84 628.9h53.64v7.49h-53.64z" style="clip-rule:evenodd"/></clipPath><clipPath id="ab"><path d="m540.84 628.97h53.64v7.42h-53.64z" style="clip-rule:evenodd"/></clipPath><clipPath id="ac"><path d="m489.84 584.09h54.65v7.49h-54.65z" style="clip-rule:evenodd"/></clipPath><clipPath id="ad"><path d="m489.84 584.14h54.65v7.44h-54.65z" style="clip-rule:evenodd"/></clipPath><clipPath id="ae"><path d="m486.19 639.72h55.7v7.49h-55.7z" style="clip-rule:evenodd"/></clipPath><clipPath id="af"><path d="m486.19 639.79h55.7v7.42h-55.7z" style="clip-rule:evenodd"/></clipPath><clipPath id="ag"><path d="m486.19 632.3h43.18v7.49h-43.18z" style="clip-rule:evenodd"/></clipPath><clipPath id="ah"><path d="m486.19 632.38h43.18v7.42h-43.18z" style="clip-rule:evenodd"/></clipPath><clipPath id="ai"><path d="m374.57 712.8h81.6v7.49h-81.6z" style="clip-rule:evenodd"/></clipPath><clipPath id="aj"><path d="m374.57 712.87h81.6v7.42h-81.6z" style="clip-rule:evenodd"/></clipPath><clipPath id="ak"><path d="m374.57 705.41h81.07v7.49h-81.07z" style="clip-rule:evenodd"/></clipPath><clipPath id="al"><path d="m374.57 705.46h81.07v7.44h-81.07z" style="clip-rule:evenodd"/></clipPath><clipPath id="am"><path d="m424.92 653.21h54.24v7.49h-54.24z" style="clip-rule:evenodd"/></clipPath><clipPath id="an"><path d="m424.92 653.28h54.24v7.42h-54.24z" style="clip-rule:evenodd"/></clipPath><g transform="matrix(1.25 0 0 -1.25 -340.12 928.68)"><g style="fill:none;stroke-width:.79;stroke-linecap:round;stroke-linejoin:round;stroke-miterlimit:10"><path d="m296.5 693.29h296.37v-154.99h-296.37z" style="stroke:#3165bb"/><path d="m305.33 678.43h175.51v-135.77h-175.51z" style="stroke:#ed1c24"/><path d="m393.74 570.48h79.16v-22.51h-79.16z" style="stroke:#0f0"/><path d="m539.71 650.83h47.02v-107.95h-47.02z" style="stroke:#396"/><path d="m311.28 625.78h28.15v-50.98h-28.15z" style="stroke:#a5a5a5"/><path d="m311.62 666.86h107.64v-19.87h-107.64z" style="stroke:#f60"/><path d="m311.59 570.82h76.54v-23.86h-76.54z" style="stroke:#f0f"/></g><g style="clip-path:url(#a)"><g style="clip-path:url(#b)"><text style="font-size:6.1;font-family:Droid Sans" transform="matrix(1 0 0 -1 301.18 684.43)"><tspan x="0 3.17 6.21 8.33 11.5 14.53" y="0">Kernel</tspan></text></g></g><g style="clip-path:url(#c)"><g style="clip-path:url(#d)"><text style="font-size:6.07;font-family:Droid Sans" transform="matrix(1 0 0 -1 308.02 670.58)"><tspan x="0 3.44 8.34 9.74 11.14 14.32 17.51" y="0">Vmlinux</tspan></text></g></g><g style="clip-path:url(#e)"><g style="clip-path:url(#f)"><text style="font-size:6.1;font-family:Droid Sans" transform="matrix(1 0 0 -1 315.96 658.66)"><tspan x="0 2.8 6.05 7.58" y="0">SCI </tspan></text></g><g style="clip-path:url(#g)"><text style="font-size:6.1;font-family:Droid Sans" transform="matrix(1 0 0 -1 324.91 658.66)"><tspan x="0" y="0">-</tspan></text></g><g style="clip-path:url(#h)"><text style="font-size:6.1;font-family:Droid Sans" transform="matrix(1 0 0 -1 328.15 658.66)"><tspan x="0 2.38 5.18 7.56 9.63 12.67 17.59 18.79 21.37 24.31 25.71 27.1 28.44 29.84 33.02 35.08 38.12 40.26 42.12 45.05 47.63" y="0">system call interface</tspan></text></g></g><g style="clip-path:url(#i)"><g style="clip-path:url(#j)"><text style="font-size:6.1;font-family:Droid Sans" transform="matrix(1 0 0 -1 315.96 651.24)"><tspan x="0 5.22 8.42 9.81 11.87 13.27 16.45 17.86 20.89 23.55 26.58 28.72 30 33.2 36.12 38.5 41.56 44.76 46.1 49.35 52.55 53.93 56.33 59.11 61.5 63.57 66.6 71.53 72.73 75.31 78.25 79.65 81.03 82.41 85.61 88.81 93.73 96.93 99.96" y="0">Multiplexer based on system call number</tspan></text></g></g><g style="fill:none;stroke-width:.79;stroke-linecap:round;stroke-linejoin:round;stroke-miterlimit:10;stroke:#00f"><path d="m359.42 738.24v-70.54"/><path d="m362.09 673.03-2.67-5.35-2.68 5.35"/><path d="m388.32 704.45.29-37.11"/><path d="m391.27 672.7-2.64-5.36-2.73 5.33"/></g><g style="clip-path:url(#k)"><g style="clip-path:url(#l)"><text style="font-size:6.1;font-family:Droid Sans" transform="matrix(1 0 0 -1 346.22 738.31)"><tspan x="0 3.91 6.3 9.33 11.46 12.77 17.65 20.88 24.05 27.09 28.35 30.93 33.83 35.23 36.61" y="0">User mode calls</tspan></text></g></g><g style="clip-path:url(#m)"><g style="clip-path:url(#n)"><text style="font-size:6.1;font-family:Droid Sans" transform="matrix(1 0 0 -1 316.42 558.24)"><tspan x="0 3.15 5.28 8.52 11.09 14.13 16.51 18.9 22.11 24.24 25.41 28.33 30.43 33.01 36.17 37.49 40.66 43.7 46.88 49.91 53.1 56.27 59.3 62.48" y="0">Processor arch dependent</tspan></text></g></g><g style="clip-path:url(#o)"><g style="clip-path:url(#p)"><text style="font-size:6.07;font-family:Droid Sans" transform="matrix(1 0 0 -1 316.42 550.85)"><tspan x="0 3.16 6.21 8.33 11.49 14.54 15.93 17.25 19.09 22.14 25.31 27.43 30.65 33.22 34.46 37.63 39.75 41.15 43.92 46.96 49.08" y="0">Kernel (~proc driver)</tspan></text></g></g><g style="clip-path:url(#q)"><g style="clip-path:url(#r)"><text style="font-size:6.1;font-family:Droid Sans" transform="matrix(1 0 0 -1 315.41 610.25)"><tspan x="0 3.19 5.32 8.58 11.16 14.22 16.6" y="0">Process</tspan></text></g></g><g style="clip-path:url(#s)"><g style="clip-path:url(#t)"><text style="font-size:6.1;font-family:Droid Sans" transform="matrix(1 0 0 -1 315.41 602.83)"><tspan x="0 5.22 8.1" y="0">Mgt</tspan></text></g></g><g style="clip-path:url(#u)"><g style="clip-path:url(#v)"><text style="font-size:6.1;font-family:Droid Sans" transform="matrix(1 0 0 -1 347.21 610.9)"><tspan x="0 5.22 8.26 13.16 16.39 18.52" y="0">Memory</tspan></text></g></g><g style="clip-path:url(#w)"><g style="clip-path:url(#x)"><text style="font-size:6.07;font-family:Droid Sans" transform="matrix(1 0 0 -1 347.21 603.5)"><tspan x="0 5.23 8.09" y="0">Mgt</tspan></text></g></g><path d="m342.67 626.06h28.18v-50.66h-28.18z" style="fill:none;stroke:#a5a5a5;stroke-width:.79;stroke-linecap:round;stroke-linejoin:round;stroke-miterlimit:10"/><path d="m375.14 626.74h28.16v-50.67h-28.16z" style="fill:none;stroke:#a5a5a5;stroke-width:.79;stroke-linecap:round;stroke-linejoin:round;stroke-miterlimit:10"/><g style="clip-path:url(#y)"><g style="clip-path:url(#z)"><text style="font-size:6.1;font-family:Droid Sans" transform="matrix(1 0 0 -1 379.01 609.91)"><tspan x="0 3.91 6.95 9.02 13.38 16.62 18.75" y="0">Network</tspan></text></g></g><g style="clip-path:url(#A)"><g style="clip-path:url(#B)"><text style="font-size:6.1;font-family:Droid Sans" transform="matrix(1 0 0 -1 379.01 602.5)"><tspan x="0 2.8 4.84 7.76 10.34" y="0">Stack</tspan></text></g></g><path d="m406.78 633.19h70.22v-22.01h-70.22z" style="fill:none;stroke:#a5a5a5;stroke-width:.79;stroke-linecap:round;stroke-linejoin:round;stroke-miterlimit:10"/><g style="clip-path:url(#C)"><g style="clip-path:url(#D)"><text style="font-size:6.1;font-family:Droid Sans" transform="matrix(1 0 0 -1 411.14 623.16)"><tspan x="0 3.43 6.23 9" y="0">VFS </tspan></text></g><g style="clip-path:url(#E)"><text style="font-size:6.1;font-family:Droid Sans" transform="matrix(1 0 0 -1 421.54 623.16)"><tspan x="0" y="0">-</tspan></text></g><g style="clip-path:url(#F)"><text style="font-size:6.1;font-family:Droid Sans" transform="matrix(1 0 0 -1 424.78 623.16)"><tspan x="0 2.78 4.18 6.28 8.33 11.49 14.41 15.79 17.11 18.97 20.35 21.75 24.79 26.11 28.49 31.25 33.64 35.68 38.72" y="0">virtual file system</tspan></text></g></g><g style="clip-path:url(#G)"><g style="clip-path:url(#H)"><text style="font-size:6.1;font-family:Droid Sans" transform="matrix(1 0 0 -1 411.14 615.74)"><tspan x="0 3.31 6.55 9.72 11.76 14.79 17.18 18.43 20.47 23.7 25.02 28.06 30.98 33.56 36.71 38.03 40.83 43.19 44.57 49.47 52.7 55.87 59.04 60.44" y="0">Routes to each Fs module</tspan></text></g></g><g style="fill:none;stroke-width:.79;stroke-linecap:round;stroke-linejoin:round;stroke-miterlimit:10"><path d="m411.19 597.58h31.8v-19.88h-31.8z" style="stroke:#a5a5a5"/><path d="m489.7 569.98h40.75v-22.54h-40.75z" style="stroke:#0f0"/><path d="m542.9 611.74h39.75v-33.75h-39.75z" style="stroke:#a5a5a5"/><g style="stroke:#f60"><path d="m364.06 646.61-37.76-21.63"/><path d="m332.26 625.3-5.96-.32 3.29 4.97"/><path d="m392.54 646.99 46.04-14.4"/><path d="m434.26 636.74 4.32-4.15-5.91-.96"/></g><g style="stroke:#a5a5a5"><path d="m428.64 610.49-4.56-12.91"/><path d="m428.38 601.73-4.3-4.15-.74 5.92"/></g></g><g style="clip-path:url(#I)"><g style="clip-path:url(#J)"><text style="font-size:6.1;font-family:Droid Sans" transform="matrix(1 0 0 -1 414.46 588.72)"><tspan x="0 2.37 5.54 7.67 10.88" y="0">/proc</tspan></text></g></g><g style="clip-path:url(#K)"><g style="clip-path:url(#L)"><text style="font-size:6.1;font-family:Droid Sans" transform="matrix(1 0 0 -1 414.46 581.3)"><tspan x="0 3.43 4.83 6.94 8.98 12.14 15.06 16.44 17.82 19.68" y="0">Virtual fs</tspan></text></g></g><g style="clip-path:url(#M)"><g style="clip-path:url(#N)"><text style="font-size:6.1;font-family:Droid Sans" transform="matrix(1 0 0 -1 402.86 560.57)"><tspan x="0 3.76 6.8 9.59 10.99 13.55 16.59 17.85 21.02 23.15 24.52 27.3 30.34 32.47 34.85 36.09 38.67 41.88 46.79 49.96 51.36 52.74 55.78 58.96 60.21 61.61 64.77" y="0">Device drivers compiled in </tspan></text></g></g><g style="clip-path:url(#O)"><g style="clip-path:url(#P)"><text style="font-size:6.1;font-family:Droid Sans" transform="matrix(1 0 0 -1 402.86 553.15)"><tspan x="0 3.17 6.21 8.33 11.5 14.53 15.93 17.26" y="0">Kernel (</tspan></text></g><g style="clip-path:url(#Q)"><text style="font-weight:bold;font-size:6.1;font-family:Droid Sans" transform="matrix(1 0 0 -1 421.99 553.15)"><tspan x="0 3.05 5.85 7.15 10.39 13.62" y="0">ex PCI</tspan></text></g><g style="clip-path:url(#R)"><text style="font-size:6.1;font-family:Droid Sans" transform="matrix(1 0 0 -1 437.3 553.15)"><tspan x="0" y="0">)</tspan></text></g></g><g style="clip-path:url(#S)"><g style="clip-path:url(#T)"><text style="font-size:6.07;font-family:Droid Sans" transform="matrix(1 0 0 -1 548.26 595.92)"><tspan x="0 1.53 4.83 8.91 10.25 12.62 15.67 17.78 20.55 21.95 24.53 25.93 29.09" y="0">IRQ servicing</tspan></text></g></g><g style="clip-path:url(#U)"><g style="clip-path:url(#V)"><text style="font-size:6.1;font-family:Droid Sans" transform="matrix(1 0 0 -1 548.26 588.5)"><tspan x="0 2.13 5.34 8.52 10.56 11.97 15.12" y="0">routine</tspan></text></g></g><g style="clip-path:url(#W)"><g style="clip-path:url(#X)"><text style="font-size:6.1;font-family:Droid Sans" transform="matrix(1 0 0 -1 492.94 558.24)"><tspan x="0 3.79 5.91 7.32 10.09 13.12" y="0">Driver</tspan></text></g></g><g style="clip-path:url(#Y)"><g style="clip-path:url(#Z)"><text style="font-size:6.1;font-family:Droid Sans" transform="matrix(1 0 0 -1 544.94 637.97)"><tspan x="0 5.22 8.46 11.63 14.79 16.2 19.23 20.48 24.84 26.24 28.29" y="0">Module with</tspan></text></g></g><g style="clip-path:url(#aa)"><g style="clip-path:url(#ab)"><text style="font-size:6.1;font-family:Droid Sans" transform="matrix(1 0 0 -1 544.94 630.55)"><tspan x="0 1.51 4.82 8.92 10.25 13.42 16.34 19.49 22.66 24.06 27.1" y="0">IRQ handler</tspan></text></g></g><path d="m486.46 651.17h48v-108.29h-48z" style="fill:none;stroke:#396;stroke-width:.79;stroke-linecap:round;stroke-linejoin:round;stroke-miterlimit:10"/><path d="m490.56 598.18h39.41v-19.9h-39.41z" style="fill:none;stroke:#a5a5a5;stroke-width:.79;stroke-linecap:round;stroke-linejoin:round;stroke-miterlimit:10"/><g style="clip-path:url(#ac)"><g style="clip-path:url(#ad)"><text style="font-size:6.1;font-family:Droid Sans" transform="matrix(1 0 0 -1 493.94 585.74)"><tspan x="0 2.37 5.54 8.58 11.37 13.74 18.63 21.86 25.03 27.41" y="0">/dev/mouse</tspan></text></g></g><g style="clip-path:url(#ae)"><g style="clip-path:url(#af)"><text style="font-size:6.1;font-family:Droid Sans" transform="matrix(1 0 0 -1 490.3 641.38)"><tspan x="0 5.22 8.46 11.63 14.01 17.04 18.29 19.7 22.85 26.02 29.19" y="0">Mouse input</tspan></text></g></g><g style="clip-path:url(#ag)"><g style="clip-path:url(#ah)"><text style="font-size:6.1;font-family:Droid Sans" transform="matrix(1 0 0 -1 490.3 633.96)"><tspan x="0 4.89 8.12 11.29 14.46 15.86" y="0">module</tspan></text></g></g><g style="fill:none;stroke-width:.79;stroke-linecap:round;stroke-linejoin:round;stroke-miterlimit:10"><path d="m477 613.82h20.52v-15.64" style="stroke:#a5a5a5"/><path d="m500.21 603.53-2.69-5.35-2.66 5.35" style="stroke:#a5a5a5"/><g style="stroke:#00f"><path d="m375.98 723h64.59v-19.85h-64.59z"/><path d="m372.65 738.24 9.26-13.99"/><path d="m381.17 730.15.74-5.9-5.18 2.97"/></g></g><g style="clip-path:url(#ai)"><g style="clip-path:url(#aj)"><text style="font-size:6.1;font-family:Droid Sans" transform="matrix(1 0 0 -1 378.67 714.48)"><tspan x="0 3.85 5.25 6.63 9.83 12.41 13.8 17 19.12 22.36 25.14 26.54 29.72 32.76 35.17 36.44 40.8 42.93 45.87 49.07 52.27 55.3" y="0">Glibc provides wrapper</tspan></text></g></g><g style="clip-path:url(#ak)"><g style="clip-path:url(#al)"><text style="font-size:6.1;font-family:Droid Sans" transform="matrix(1 0 0 -1 378.67 707.06)"><tspan x="0 1.86 5.04 8.24 10.82 12.88 14.28 17.5 20.7 23.1 24.42 27.65 30.43 33.47 35.61 36.88 39.68 42.44 44.84 46.17 48.74 51.68 53.08 54.47" y="0">functions over Sys calls</tspan></text></g></g><path d="m542.98 568.9h40.72v-22.54h-40.72z" style="fill:none;stroke:#0f0;stroke-width:.79;stroke-linecap:round;stroke-linejoin:round;stroke-miterlimit:10"/><path d="m423.67 666.86h49.01v-19.53h-49.01z" style="fill:none;stroke:#f60;stroke-width:.79;stroke-linecap:round;stroke-linejoin:round;stroke-miterlimit:10"/><g style="clip-path:url(#am)"><g style="clip-path:url(#an)"><text style="font-size:6.1;font-family:Droid Sans" transform="matrix(1 0 0 -1 429.02 654.86)"><tspan x="0 1.51 4.82 8.92 10.25 14.01 16.93 20.09 23.26 24.66 27.69" y="0">IRQ Handler</tspan></text></g></g><g style="fill:none;stroke-width:.79;stroke-linecap:round;stroke-linejoin:round;stroke-miterlimit:10;stroke:#f60"><path d="m472.68 657.14h86.33v-45.4"/><path d="m561.67 617.09-2.66-5.35-2.67 5.35"/><path d="m428.64 647.5-39.41-20.76"/><path d="m395.18 626.86-5.97-.12 3.5 4.84"/></g></g></svg>