<svg height="322.56" viewBox="0 0 510.69 322.56" width="510.69" xml:space="preserve" xmlns="http://www.w3.org/2000/svg" xmlns:xlink="http://www.w3.org/1999/xlink"><clipPath id="a"><path d="m325.75 790.01h66.82v7.99h-66.82z" style="clip-rule:evenodd"/></clipPath><clipPath id="b"><path d="m325.75 790.08h66.82v7.92h-66.82z" style="clip-rule:evenodd"/></clipPath><clipPath id="c"><path d="m341.66 760.68h68.52v7.97h-68.52z" style="clip-rule:evenodd"/></clipPath><clipPath id="d"><path d="m341.66 760.75h68.52v7.9h-68.52z" style="clip-rule:evenodd"/></clipPath><clipPath id="e"><path d="m337.78 774.82h40.22v7.99h-40.22z" style="clip-rule:evenodd"/></clipPath><clipPath id="f"><path d="m337.78 774.89h40.22v7.92h-40.22z" style="clip-rule:evenodd"/></clipPath><clipPath id="g"><path d="m416.98 760.32h68.52v7.99h-68.52z" style="clip-rule:evenodd"/></clipPath><clipPath id="h"><path d="m416.98 760.39h68.52v7.92h-68.52z" style="clip-rule:evenodd"/></clipPath><clipPath id="i"><path d="m413.09 774.46h40.22v7.99h-40.22z" style="clip-rule:evenodd"/></clipPath><clipPath id="j"><path d="m413.09 774.53h40.22v7.92h-40.22z" style="clip-rule:evenodd"/></clipPath><clipPath id="k"><path d="m392.28 713.42h42.94v7.99h-42.94z" style="clip-rule:evenodd"/></clipPath><clipPath id="l"><path d="m392.28 713.5h42.94v7.92h-42.94z" style="clip-rule:evenodd"/></clipPath><clipPath id="m"><path d="m396.89 674.21h53.02v7.97h-53.02z" style="clip-rule:evenodd"/></clipPath><clipPath id="n"><path d="m396.89 674.28h53.02v7.9h-53.02z" style="clip-rule:evenodd"/></clipPath><clipPath id="o"><path d="m397.92 695.33h71.76v7.99h-71.76z" style="clip-rule:evenodd"/></clipPath><clipPath id="p"><path d="m397.92 695.4h71.76v7.92h-71.76z" style="clip-rule:evenodd"/></clipPath><clipPath id="q"><path d="m397.92 695.4h71.76v7.92h-71.76z" style="clip-rule:evenodd"/></clipPath><clipPath id="r"><path d="m397.92 695.4h71.76v7.92h-71.76z" style="clip-rule:evenodd"/></clipPath><clipPath id="s"><path d="m277.39 700.37h69.98v7.97h-69.98z" style="clip-rule:evenodd"/></clipPath><clipPath id="t"><path d="m277.39 700.44h69.98v7.9h-69.98z" style="clip-rule:evenodd"/></clipPath><clipPath id="u"><path d="m482.06 699.84h74.33v7.99h-74.33z" style="clip-rule:evenodd"/></clipPath><clipPath id="v"><path d="m482.06 699.91h74.33v7.92h-74.33z" style="clip-rule:evenodd"/></clipPath><clipPath id="w"><path d="m487.37 686.04h57v7.99h-57z" style="clip-rule:evenodd"/></clipPath><clipPath id="x"><path d="m487.37 686.11h57v7.92h-57z" style="clip-rule:evenodd"/></clipPath><clipPath id="y"><path d="m487.37 670.22h37.97v7.99h-37.97z" style="clip-rule:evenodd"/></clipPath><clipPath id="z"><path d="m487.37 670.3h37.97v7.92h-37.97z" style="clip-rule:evenodd"/></clipPath><clipPath id="A"><path d="m482.78 612.7h62.52v7.99h-62.52z" style="clip-rule:evenodd"/></clipPath><clipPath id="B"><path d="m482.78 612.77h62.52v7.92h-62.52z" style="clip-rule:evenodd"/></clipPath><clipPath id="C"><path d="m486.29 599.3h86.9v7.99h-86.9z" style="clip-rule:evenodd"/></clipPath><clipPath id="D"><path d="m486.29 599.38h86.9v7.92h-86.9z" style="clip-rule:evenodd"/></clipPath><clipPath id="E"><path d="m492.67 586.94h75.14v7.99h-75.14z" style="clip-rule:evenodd"/></clipPath><clipPath id="F"><path d="m492.67 587.02h75.14v7.92h-75.14z" style="clip-rule:evenodd"/></clipPath><clipPath id="G"><path d="m492.67 587.02h75.14v7.92h-75.14z" style="clip-rule:evenodd"/></clipPath><clipPath id="H"><path d="m492.67 587.02h75.14v7.92h-75.14z" style="clip-rule:evenodd"/></clipPath><clipPath id="I"><path d="m492.24 569.86h63v7.99h-63z" style="clip-rule:evenodd"/></clipPath><clipPath id="J"><path d="m492.24 569.93h63v7.92h-63z" style="clip-rule:evenodd"/></clipPath><clipPath id="K"><path d="m492.24 569.93h63v7.92h-63z" style="clip-rule:evenodd"/></clipPath><clipPath id="L"><path d="m492.24 569.93h63v7.92h-63z" style="clip-rule:evenodd"/></clipPath><clipPath id="M"><path d="m491.18 553.61h77.86v7.99h-77.86z" style="clip-rule:evenodd"/></clipPath><clipPath id="N"><path d="m491.18 553.68h77.86v7.92h-77.86z" style="clip-rule:evenodd"/></clipPath><clipPath id="O"><path d="m491.18 553.68h77.86v7.92h-77.86z" style="clip-rule:evenodd"/></clipPath><clipPath id="P"><path d="m491.18 553.68h77.86v7.92h-77.86z" style="clip-rule:evenodd"/></clipPath><clipPath id="Q"><path d="m489.5 645.41h38.33v7.97h-38.33z" style="clip-rule:evenodd"/></clipPath><clipPath id="R"><path d="m489.5 645.48h38.33v7.9h-38.33z" style="clip-rule:evenodd"/></clipPath><clipPath id="S"><path d="m339.6 672.43h65.98v7.99h-65.98z" style="clip-rule:evenodd"/></clipPath><clipPath id="T"><path d="m339.6 672.5h65.98v7.92h-65.98z" style="clip-rule:evenodd"/></clipPath><clipPath id="U"><path d="m339.6 664.51h57.36v7.99h-57.36z" style="clip-rule:evenodd"/></clipPath><clipPath id="V"><path d="m339.6 664.58h57.36v7.92h-57.36z" style="clip-rule:evenodd"/></clipPath><clipPath id="W"><path d="m339.96 648.74h58.34v7.99h-58.34z" style="clip-rule:evenodd"/></clipPath><clipPath id="X"><path d="m339.96 648.82h58.34v7.92h-58.34z" style="clip-rule:evenodd"/></clipPath><clipPath id="Y"><path d="m340.32 697.87h68.09v7.99h-68.09z" style="clip-rule:evenodd"/></clipPath><clipPath id="Z"><path d="m340.32 697.94h68.09v7.92h-68.09z" style="clip-rule:evenodd"/></clipPath><clipPath id="aa"><path d="m340.32 689.98h58.46v7.99h-58.46z" style="clip-rule:evenodd"/></clipPath><clipPath id="ab"><path d="m340.32 690.05h58.46v7.92h-58.46z" style="clip-rule:evenodd"/></clipPath><clipPath id="ac"><path d="m342.07 634.61h50.42v7.99h-50.42z" style="clip-rule:evenodd"/></clipPath><clipPath id="ad"><path d="m342.1 634.68h50.4v7.92h-50.4z" style="clip-rule:evenodd"/></clipPath><clipPath id="ae"><path d="m342.07 626.69h46.1v7.99h-46.1z" style="clip-rule:evenodd"/></clipPath><clipPath id="af"><path d="m342.1 626.76h46.08v7.92h-46.08z" style="clip-rule:evenodd"/></clipPath><clipPath id="ag"><path d="m306.02 722.62h92.47v7.99h-92.47z" style="clip-rule:evenodd"/></clipPath><clipPath id="ah"><path d="m306.02 722.69h92.47v7.92h-92.47z" style="clip-rule:evenodd"/></clipPath><clipPath id="ai"><path d="m306.02 714.72h63.91v7.99h-63.91z" style="clip-rule:evenodd"/></clipPath><clipPath id="aj"><path d="m306.02 714.79h63.91v7.92h-63.91z" style="clip-rule:evenodd"/></clipPath><clipPath id="ak"><path d="m504 737.76h91.42v31.75h-91.42z" style="clip-rule:evenodd"/></clipPath><clipPath id="al"><path d="m504 761.59h91.42v7.92h-91.42z" style="clip-rule:evenodd"/></clipPath><clipPath id="am"><path d="m504 753.67h91.42v7.92h-91.42z" style="clip-rule:evenodd"/></clipPath><clipPath id="an"><path d="m504 745.75h91.42v7.92h-91.42z" style="clip-rule:evenodd"/></clipPath><clipPath id="ao"><path d="m504 737.83h91.42v7.92h-91.42z" style="clip-rule:evenodd"/></clipPath><g transform="matrix(1.25 0 0 -1.25 -287.62 1000.76)"><g style="fill:none;stroke-width:.84;stroke-linecap:round;stroke-linejoin:round;stroke-miterlimit:10"><path d="m278.52 711.24h59.38v-79.9h-59.38z" style="stroke:#3165bb"/><path d="m482.95 711h76.68v-76.01h-76.68z" style="stroke:#3165bb"/><path d="m325.85 800.18h163.7v-53.04h-163.7z" style="stroke:#008000"/><path d="m335.81 785.62h68.59v-33.51h-68.59z" style="stroke:#008000"/><path d="m341.18 771.89h56.21v-14.83h-56.21z" style="stroke:#f60"/><path d="m392.06 726.07h68.98v-105.29h-68.98z" style="stroke:#ed1c24"/><path d="m483.24 621.43h77.78v-78.45h-77.78z" style="stroke:#f0f"/></g><g style="clip-path:url(#a)"><g style="clip-path:url(#b)"><text style="font-size:6.5;font-family:Droid Sans" transform="matrix(1 0 0 -1 330.14 791.86)"><tspan x="0 4.03 7.15 9.42 12.79 17.44 20.56 22.83 26.07 27.48 29.45 32.27 35.58 38.88" y="0">Hardware (x86)</tspan></text></g></g><g style="clip-path:url(#c)"><g style="clip-path:url(#d)"><text style="font-size:6.5;font-family:Droid Sans" transform="matrix(1 0 0 -1 346.06 762.5)"><tspan x="0 4.03 7.26 10.65 14.03 17.05 18.47 22 25.24 28.27 29.76 32.31 34.48 37.72 39.99" y="0">Debug Registers</tspan></text></g></g><g style="clip-path:url(#e)"><g style="clip-path:url(#f)"><text style="font-size:6.5;font-family:Droid Sans" transform="matrix(1 0 0 -1 342.17 776.64)"><tspan x="0 3.47 6.83 11" y="0">CPU1</tspan></text></g></g><path d="m411.12 785.26h68.59v-33.48h-68.59z" style="fill:none;stroke:#008000;stroke-width:.84;stroke-linecap:round;stroke-linejoin:round;stroke-miterlimit:10"/><path d="m416.5 771.53h56.18v-14.83h-56.18z" style="fill:none;stroke:#f60;stroke-width:.84;stroke-linecap:round;stroke-linejoin:round;stroke-miterlimit:10"/><g style="clip-path:url(#g)"><g style="clip-path:url(#h)"><text style="font-size:6.5;font-family:Droid Sans" transform="matrix(1 0 0 -1 421.34 762.14)"><tspan x="0 4.03 7.28 10.7 14.11 17.15 18.57 22.11 25.37 28.44 29.91 32.45 34.65 37.91 40.18" y="0">Debug Registers</tspan></text></g></g><g style="clip-path:url(#i)"><g style="clip-path:url(#j)"><text style="font-size:6.5;font-family:Droid Sans" transform="matrix(1 0 0 -1 417.46 776.3)"><tspan x="0 3.47 6.88 11.06" y="0">CPU2</tspan></text></g></g><g style="clip-path:url(#k)"><g style="clip-path:url(#l)"><text style="font-size:6.5;font-family:Droid Sans" transform="matrix(1 0 0 -1 396.67 715.27)"><tspan x="0 3.38 6.62 8.89 12.27 15.51" y="0">Kernel</tspan></text></g></g><path d="m397.54 684.19h58v-59.59h-58z" style="fill:none;stroke:#ed1c24;stroke-width:.84;stroke-linecap:round;stroke-linejoin:round;stroke-miterlimit:10"/><g style="clip-path:url(#m)"><g style="clip-path:url(#n)"><text style="font-size:6.5;font-family:Droid Sans" transform="matrix(1 0 0 -1 401.26 676.03)"><tspan x="0 3.4 5.6 7.87 10.99 13.76 17.01 18.36 22.13 25.53" y="0">Ptrace API</tspan></text></g></g><path d="m397.87 709.2h58.01v-20.38h-58.01z" style="fill:none;stroke:#ed1c24;stroke-width:.84;stroke-linecap:round;stroke-linejoin:round;stroke-miterlimit:10"/><g style="clip-path:url(#o)"><g style="clip-path:url(#p)"><text style="font-size:6.5;font-family:Droid Sans" transform="matrix(1 0 0 -1 402.31 697.15)"><tspan x="0 4.03" y="0">Hw</tspan></text></g><g style="clip-path:url(#q)"><text style="font-size:6.5;font-family:Droid Sans" transform="matrix(1 0 0 -1 411 697.15)"><tspan x="0" y="0">-</tspan></text></g><g style="clip-path:url(#r)"><text style="font-size:6.5;font-family:Droid Sans" transform="matrix(1 0 0 -1 412.97 697.15)"><tspan x="0 3.38 5.65 8.89 11.97 14.93 18.31 21.76 23.22 26.6 28.78 30.13 33.87 37.25" y="0">breakpoint API</tspan></text></g></g><g style="clip-path:url(#s)"><g style="clip-path:url(#t)"><text style="font-size:6.5;font-family:Droid Sans" transform="matrix(1 0 0 -1 281.76 702.19)"><tspan x="0 4.03 7.28 10.7 14.11 17.15 20.21 23.45 25.74 27.15 30.57 32.84 36.32 39.07 42.33 44.88" y="0">Debugger process</tspan></text></g></g><g style="clip-path:url(#u)"><g style="clip-path:url(#v)"><text style="font-size:6.5;font-family:Droid Sans" transform="matrix(1 0 0 -1 486.46 701.66)"><tspan x="0 4.03 7.28 10.67 14.05 17.11 20.14 23.4 26.78 28.2 31.58 33.85 37.28 40.05 43.31 45.85" y="0">Debugged process</tspan></text></g></g><path d="m487.99 696h65.76v-37.13h-65.76z" style="fill:none;stroke:#3165bb;stroke-width:.84;stroke-linecap:round;stroke-linejoin:round;stroke-miterlimit:10"/><g style="clip-path:url(#w)"><g style="clip-path:url(#x)"><text style="font-size:6.5;font-family:Droid Sans" transform="matrix(1 0 0 -1 491.76 687.89)"><tspan x="0 1.5 4.87 7.41 9.59 11.86 15.24 17.99 20.17 21.66 25.12 28.5" y="0">instructions</tspan></text></g></g><g style="clip-path:url(#y)"><g style="clip-path:url(#z)"><text style="font-size:6.5;font-family:Droid Sans" transform="matrix(1 0 0 -1 491.76 672.07)"><tspan x="0 1.64 5.01 7.19 8.68" y="0">Int 3</tspan></text></g></g><g style="clip-path:url(#A)"><g style="clip-path:url(#B)"><text style="font-size:6.5;font-family:Droid Sans" transform="matrix(1 0 0 -1 487.18 614.52)"><tspan x="0 3.17 5.94 8.93 10.33 13.78 17.16 18.72 21.96 24.71 26.9 28.25 30.23 31.7 33.2" y="0">ELF object file</tspan></text></g></g><path d="m487.27 609.77h69.63v-61.87h-69.63z" style="fill:none;stroke:#f0f;stroke-width:.84;stroke-linecap:round;stroke-linejoin:round;stroke-miterlimit:10"/><g style="clip-path:url(#C)"><g style="clip-path:url(#D)"><text style="font-size:6.5;font-family:Droid Sans" transform="matrix(1 0 0 -1 490.68 601.15)"><tspan x="0 4.03 9.81 13.58 17.11 20.1 21.5 24.88 28.14 31.52 34.9 37.96 39.43 41.98 45.24 47.99 50.17 51.66 55.11 58.5" y="0">DWARF debug sections</tspan></text></g></g><path d="m492.12 597.79h58.01v-13.08h-58.01z" style="fill:none;stroke:#f0f;stroke-width:.84;stroke-linecap:round;stroke-linejoin:round;stroke-miterlimit:10"/><g style="clip-path:url(#E)"><g style="clip-path:url(#F)"><text style="font-size:6.5;font-family:Droid Sans" transform="matrix(1 0 0 -1 497.04 588.77)"><tspan x="0 2.99 6.4 9.8 12.55 14.76 16.25 19.72" y="0">Function</tspan></text></g><g style="clip-path:url(#G)"><text style="font-size:6.5;font-family:Droid Sans" transform="matrix(1 0 0 -1 520.1 588.77)"><tspan x="0" y="0">-</tspan></text></g><g style="clip-path:url(#H)"><text style="font-size:6.5;font-family:Droid Sans" transform="matrix(1 0 0 -1 522.07 588.77)"><tspan x="0 3.26 4.75 8.17 10.71 12.89 14.32 17.44 20.85" y="0">&gt;inst add</tspan></text></g></g><path d="m491.74 580.73h57.96v-13.08h-57.96z" style="fill:none;stroke:#f0f;stroke-width:.84;stroke-linecap:round;stroke-linejoin:round;stroke-miterlimit:10"/><g style="clip-path:url(#I)"><g style="clip-path:url(#J)"><text style="font-size:6.5;font-family:Droid Sans" transform="matrix(1 0 0 -1 496.63 571.7)"><tspan x="0 2.75 4.25 7.62" y="0">Line</tspan></text></g><g style="clip-path:url(#K)"><text style="font-size:6.5;font-family:Droid Sans" transform="matrix(1 0 0 -1 507.53 571.7)"><tspan x="0" y="0">-</tspan></text></g><g style="clip-path:url(#L)"><text style="font-size:6.5;font-family:Droid Sans" transform="matrix(1 0 0 -1 509.5 571.7)"><tspan x="0 3.26 4.75 8.13 10.67 12.85 14.28 17.39 20.78" y="0">&gt;inst add</tspan></text></g></g><path d="m491.74 564.46h57.96v-13.08h-57.96z" style="fill:none;stroke:#f0f;stroke-width:.84;stroke-linecap:round;stroke-linejoin:round;stroke-miterlimit:10"/><g style="clip-path:url(#M)"><g style="clip-path:url(#N)"><text style="font-size:6.5;font-family:Droid Sans" transform="matrix(1 0 0 -1 495.58 555.43)"><tspan x="0 3.69 6.77 9.04 10.52 13.63 16.99 18.49" y="0">Variable</tspan></text></g><g style="clip-path:url(#O)"><text style="font-size:6.5;font-family:Droid Sans" transform="matrix(1 0 0 -1 517.34 555.43)"><tspan x="0" y="0">-</tspan></text></g><g style="clip-path:url(#P)"><text style="font-size:6.5;font-family:Droid Sans" transform="matrix(1 0 0 -1 519.34 555.43)"><tspan x="0 3.24 5.78 7.96 11.08 13.83 16.79 18.15 21.26 24.62" y="0">&gt;stack add</tspan></text></g></g><path d="m488.35 653.71h65.74v-14.16h-65.74z" style="fill:none;stroke:#3165bb;stroke-width:.84;stroke-linecap:round;stroke-linejoin:round;stroke-miterlimit:10"/><g style="clip-path:url(#Q)"><g style="clip-path:url(#R)"><text style="font-size:6.5;font-family:Droid Sans" transform="matrix(1 0 0 -1 493.87 647.23)"><tspan x="0 4.03 7.14 9.35" y="0">Data</tspan></text></g></g><path d="m337.92 672.34h59.76" style="fill:none;stroke:#3165bb;stroke-width:.84;stroke-linecap:round;stroke-linejoin:round;stroke-miterlimit:10"/><path d="m391.99 675.19 5.69-2.85-5.69-2.86" style="fill:none;stroke:#3165bb;stroke-width:.84;stroke-linecap:round;stroke-linejoin:round;stroke-miterlimit:10"/><g style="clip-path:url(#S)"><g style="clip-path:url(#T)"><text style="font-size:6.5;font-family:Droid Sans" transform="matrix(1 0 0 -1 343.99 674.28)"><tspan x="0 1.64 5.01 7.56 10.82 13.09 15.26 16.67 19.21 22.67 24.65 26.83 31.48 34.59 36.86" y="0">Insert software</tspan></text></g></g><g style="clip-path:url(#U)"><g style="clip-path:url(#V)"><text style="font-size:6.5;font-family:Droid Sans" transform="matrix(1 0 0 -1 343.99 666.36)"><tspan x="0 3.38 5.65 8.89 12.01 14.99 18.37 21.82 23.32 26.69 28.87" y="0">breakpoints</tspan></text></g></g><g style="clip-path:url(#W)"><g style="clip-path:url(#X)"><text style="font-size:6.5;font-family:Droid Sans" transform="matrix(1 0 0 -1 344.35 650.59)"><tspan x="0 1.61 4.99 7.53 10.91 14.15 16.9 19.08 20.51 23.9 27.01 29.19" y="0">Inspect data</tspan></text></g></g><g style="clip-path:url(#Y)"><g style="clip-path:url(#Z)"><text style="font-size:6.5;font-family:Droid Sans" transform="matrix(1 0 0 -1 344.69 699.72)"><tspan x="0 1.64 5.05 7.6 10.84 13.12 15.32 16.73 20.15 23.26 25.53 28.95 33.63 36.74 39.01" y="0">Insert hardware</tspan></text></g></g><g style="clip-path:url(#aa)"><g style="clip-path:url(#ab)"><text style="font-size:6.5;font-family:Droid Sans" transform="matrix(1 0 0 -1 344.69 691.8)"><tspan x="0 4.68 7.79 10 12.75 16.16 19.58 23.04 24.54 27.95 30.13" y="0">watchpoints</tspan></text></g></g><g style="clip-path:url(#ac)"><g style="clip-path:url(#ad)"><text style="font-size:6.5;font-family:Droid Sans" transform="matrix(1 0 0 -1 346.46 636.46)"><tspan x="0 3.75 5.93 8.1 11.22 13.99 17.4 18.82 20.99" y="0">Attach to</tspan></text></g></g><g style="clip-path:url(#ae)"><g style="clip-path:url(#af)"><text style="font-size:6.5;font-family:Droid Sans" transform="matrix(1 0 0 -1 346.46 628.54)"><tspan x="0 3.41 5.66 9.11 11.86 15.13 17.67" y="0">process</tspan></text></g></g><g style="fill:none;stroke-width:.84;stroke-linecap:round;stroke-linejoin:round;stroke-miterlimit:10"><g style="stroke:#3165bb"><path d="m337.63 648.94h59.76"/><path d="m391.7 651.79 5.69-2.85-5.69-2.86"/><path d="m338.35 697.37h59.76"/><path d="m392.42 700.2 5.69-2.83-5.69-2.86"/><path d="m337.99 635.5h59.76"/><path d="m392.06 638.35 5.69-2.85-5.69-2.84"/></g><g style="stroke:#ed1c24"><path d="m455.3 672.7h32.88"/><path d="m482.47 675.55 5.71-2.85-5.71-2.84"/><path d="m455.54 647.62h32.98"/><path d="m482.83 650.45 5.69-2.83-5.69-2.88"/><path d="m392.02 722.54h-88.73v-10.6"/><path d="m306.12 717.65-2.83-5.71-2.86 5.71"/></g></g><g style="clip-path:url(#ag)"><g style="clip-path:url(#ah)"><text style="font-size:6.5;font-family:Droid Sans" transform="matrix(1 0 0 -1 310.42 724.46)"><tspan x="0 2.95 4.42 7.44 10.82 13.94 15.38 16.85 19.94 22.12 23.52 26.76 29.87 32.59 35.97 37.44 40.82 43.09 46.33 49.41 52.37 55.75 59.19 60.66 64.04" y="0">Signal at each breakpoint</tspan></text></g></g><g style="clip-path:url(#ai)"><g style="clip-path:url(#aj)"><text style="font-size:6.5;font-family:Droid Sans" transform="matrix(1 0 0 -1 310.42 716.54)"><tspan x="0 4.31 6.55 7.94 12.59 15.71 17.89 20.61 23.99 27.38 30.82 32.29 35.67" y="0">Or watchpoint</tspan></text></g></g><g style="fill:none;stroke-width:.84;stroke-linecap:round;stroke-linejoin:round;stroke-miterlimit:10"><g style="stroke:#ed1c24"><path d="m428.78 709.1-31.32 47.93"/><path d="m398.21 750.72-.75 6.31 5.52-3.19"/><path d="m436.92 709.2 16.58 47.5"/><path d="m448.94 752.26 4.59 4.44.81-6.32"/></g><path d="m487.82 582.91h-174.98v48.43" style="stroke:#3165bb"/><path d="m309.98 625.63 2.84 5.69 2.85-5.69" style="stroke:#3165bb"/><path d="m472.66 764.98 36.38-12.41" style="stroke:#f60"/></g><g style="clip-path:url(#ak)"><g style="clip-path:url(#al)"><text style="font-size:6.5;font-family:Droid Sans" transform="matrix(1 0 0 -1 508.39 763.34)"><tspan x="0 2.95 5.7 8.82 11.06 13.81 17.05 18.48 20.75 23.99 26.53 29.96 33.37 35.62 38.37 41.61 42.96 44.93 48.23 49.66 54.31 57.42 59.6 62.35 65.74 69.12 72.57 74.06 77.44 79.62 82.16" y="0">Scarce resource (4 watchpoints </tspan></text></g><g style="clip-path:url(#am)"><text style="font-size:6.5;font-family:Droid Sans" transform="matrix(1 0 0 -1 508.39 755.42)"><tspan x="0 3.38 6.62 8.89 10.3 13.76 17.13 21.3 22.72 24.22 27.6 29.07 31.91 35.21 38.52 40.49 41.83 44.38 47.76 50.87 53.11 56.35 59.73 61.2 64.62 67.56 68.97 72.09 73.56 75.06" y="0">per CPU in x86) shared by all </tspan></text></g><g style="clip-path:url(#an)"><text style="font-size:6.5;font-family:Droid Sans" transform="matrix(1 0 0 -1 508.39 747.5)"><tspan x="0 3.38 5.65 9.08 11.85 15.09 17.63 20.18 23.41 25.96 27.3 30.54 33.78 35.2 38.58 41.82 44.09 47.47 50.71 52.2 53.54 56.92 60.16 63.4 66.79 69.33 70.8 73 76.45" y="0">processes =&gt; Kernel needs to </tspan></text></g><g style="clip-path:url(#ao)"><text style="font-size:6.5;font-family:Droid Sans" transform="matrix(1 0 0 -1 508.39 739.58)"><tspan x="0 2.75 6.21 9.59 11.77 14.04 17.48 18.98 20.31 23.43 26.18 28.93 32.17 34.71" y="0">control access</tspan></text></g></g></g></svg>