<svg height="500" viewBox="0 0 927.86 348.65" width="1500" xmlns="http://www.w3.org/2000/svg" xmlns:xlink="http://www.w3.org/1999/xlink">
<marker id="a" orient="auto" refX="0" refY="0" style="overflow:visible">
<path d="m2.31 0-3.46 2v-4z" style="fill:#007d00;fill-rule:evenodd;stroke:#007d00;stroke-width:.4pt"/>
</marker>
<marker id="b" orient="auto" refX="0" refY="0" style="overflow:visible">
<path d="m2.31 0-3.46 2v-4z" style="fill:#007d00;fill-rule:evenodd;stroke:#007d00;stroke-width:.4pt"/>
</marker>
<marker id="c" orient="auto" refX="0" refY="0" style="overflow:visible">
<path d="m2.31 0-3.46 2v-4z" style="fill:#007d00;fill-rule:evenodd;stroke:#007d00;stroke-width:.4pt"/>
</marker>
<marker id="d" orient="auto" refX="0" refY="0" style="overflow:visible">
<path d="m2.31 0-3.46 2v-4z" style="fill:#ff7d00;fill-rule:evenodd;stroke:#ff7d00;stroke-width:.4pt"/>
</marker>
<marker id="e" orient="auto" refX="0" refY="0" style="overflow:visible">
<path d="m2.31 0-3.46 2v-4z" style="fill:#ff7d00;fill-rule:evenodd;stroke:#ff7d00;stroke-width:.4pt"/>
</marker>
<marker id="f" orient="auto" refX="0" refY="0" style="overflow:visible">
<path d="m2.31 0-3.46 2v-4z" style="fill:#ff7d00;fill-rule:evenodd;stroke:#ff7d00;stroke-width:.4pt"/>
</marker>
<marker id="g" orient="auto" refX="0" refY="0" style="overflow:visible">
<path d="m2.31 0-3.46 2v-4z" style="fill:#ff7d00;fill-rule:evenodd;stroke:#ff7d00;stroke-width:.4pt"/>
</marker>
<marker id="h" orient="auto" refX="0" refY="0" style="overflow:visible">
<path d="m2.31 0-3.46 2v-4z" style="fill:#ff7d00;fill-rule:evenodd;stroke:#ff7d00;stroke-width:.4pt"/>
</marker>
<marker id="i" orient="auto" refX="0" refY="0" style="overflow:visible">
<path d="m2.31 0-3.46 2v-4z" style="fill:#f00;fill-rule:evenodd;stroke:#f00;stroke-width:.4pt"/>
</marker>
<marker id="j" orient="auto" refX="0" refY="0" style="overflow:visible">
<path d="m2.31 0-3.46 2v-4z" style="fill:#f00;fill-rule:evenodd;stroke:#f00;stroke-width:.4pt"/>
</marker>
<marker id="k" orient="auto" refX="0" refY="0" style="overflow:visible">
<path d="m2.31 0-3.46 2v-4z" style="fill:#3465a4;fill-rule:evenodd;stroke:#3465a4;stroke-width:.4pt"/>
</marker>
<marker id="l" orient="auto" refX="0" refY="0" style="overflow:visible">
<path d="m2.31 0-3.46 2v-4z" style="fill:#3465a4;fill-rule:evenodd;stroke:#3465a4;stroke-width:.4pt"/>
</marker>
<g style="fill:#007d00;fill-rule:evenodd;stroke:#007d00;stroke-dasharray:1 6">
<path d="m150.65 261.61 144.34 17.53"/>
<path d="m150.65 251.78 144.71-31.45"/>
<path d="m150.83 272.74 113.92-64.47"/>
<path d="m300.99 219.15 144.34-.05"/>
</g>
<g style="fill:none">
<path d="m724.6 54.45h95v26.94h-95z" style="stroke:#3465a4;stroke-width:1.1"/>
<path d="m610.72 348.65v-348.65" style="stroke:#696969;stroke-width:2;stroke-dasharray:6 6"/>
<path d="m.92 136.74h124.32v42.03h-124.32z" style="stroke:#007d00;stroke-width:1.1"/>
</g>
<g style="font-size:10;font-family:Droid Sans;letter-spacing:-.25;word-spacing:0" transform="translate(127.46 396.35)">
<text x="-116.09" y="-245.82">
<tspan x="-116.09" y="-245.82">Customisation</tspan>
<tspan x="-116.09" y="-235.82">~/.asoundrc</tspan>
<tspan x="-116.09" y="-225.82">/etc/asound.conf</tspan>
</text>
<text x="-121.15" y="-187.84">
<tspan x="-121.15" y="-187.84">Standard config</tspan>
<tspan x="-121.15" y="-177.84">/usr/share/alsa/alsa.conf</tspan>
<tspan x="-121.15" y="-167.84">/usr/share/alsa/alsa.conf.d</tspan>
</text>
<text x="-105.68" y="-103.47">
<tspan x="-105.68" y="-103.47">PCM defintions</tspan>
<tspan x="-105.68" y="-93.47"/>
</text>
<text x="-116.07" y="-132.78">
<tspan x="-116.07" y="-132.78">Sound card definitions</tspan>
</text>
</g>
<g style="stroke:#007d00">
<g style="fill:none;stroke-width:1.1">
<path d="m.55 194.63h124.69v42.03h-124.69z"/>
<path d="m.55 251.4h124.69v15.68h-124.69z"/>
<path d="m.55 281.27h124.69v15.68h-124.69z"/>
</g>
<g style="fill:#007d00;fill-rule:evenodd">
<path d="m58.72 267.21v11.18" style="marker-end:url(#a)"/>
<path d="m58.95 237.02v11.18" style="marker-end:url(#b)"/>
<path d="m59.48 179.17v12.33" style="marker-end:url(#c)"/>
</g>
</g>
<path d="m174.95 90.45v18.13" style="fill:#ff7d00;fill-rule:evenodd;stroke:#ff7d00;marker-end:url(#d)"/>
<text style="font-size:10;font-family:Droid Sans;letter-spacing:-.25;word-spacing:0" x="731.95" y="70.57">
<tspan x="731.95" y="70.57">Sound applications</tspan>
</text>
<g transform="translate(93.69 396.72)">
<path d="m57.51-285.21h144.35v76.9h-144.35z" style="fill:none;stroke:#ff7d00;stroke-width:1.1"/>
<text style="font-size:10;font-family:Droid Sans Mono;letter-spacing:-.25;word-spacing:0" x="61.99" xml:space="preserve" y="-274.16">
<tspan style="font-size:10;font-family:Droid Sans Mono" x="61.99" y="-274.16">Standard mixing PCM</tspan>
<tspan style="font-size:10;font-family:Droid Sans Mono" x="61.99" y="-264.16">pcm.dmix {</tspan>
<tspan style="font-size:10;font-family:Droid Sans Mono" x="61.99" y="-254.16">  @ARGS [ CARD DEV ]</tspan>
<tspan style="font-size:10;font-family:Droid Sans Mono" x="61.99" y="-244.16">  type dmix</tspan>
<tspan style="font-size:10;font-family:Droid Sans Mono" x="61.99" y="-234.16">  rate $RATE</tspan>
<tspan style="font-size:10;font-family:Droid Sans Mono" x="61.99" y="-224.16">  format $FORMAT</tspan>
<tspan style="font-size:10;font-family:Droid Sans Mono" x="61.99" y="-214.16">}</tspan>
</text>
</g>
<g transform="translate(160.85 396.35)">
<path d="m211.31-285.58h144.35v56.87h-144.35z" style="fill:none;stroke:#ff7d00;stroke-width:1.1"/>
<text style="font-size:10;font-family:Droid Sans Mono;letter-spacing:-.25;word-spacing:0" x="215.79" xml:space="preserve" y="-274.53">
<tspan style="font-size:10;font-family:Droid Sans Mono" x="215.79" y="-274.53">Standard IEC958 PCM</tspan>
<tspan style="font-size:10;font-family:Droid Sans Mono" x="215.79" y="-264.53">pcm.iec958 {</tspan>
<tspan style="font-size:10;font-family:Droid Sans Mono" x="215.79" y="-254.53">  @ARGS [ CARD DEV ]</tspan>
<tspan style="font-size:10;font-family:Droid Sans Mono" x="215.79" y="-244.53">  type empty</tspan>
<tspan style="font-size:10;font-family:Droid Sans Mono" x="215.79" y="-234.53">}</tspan>
</text>
</g>
<g transform="translate(242.11 387.82)">
<path d="m211.68-190.96h144.35v47.59h-144.35z" style="fill:none;stroke:#ff7d00;stroke-width:1.1"/>
<text style="font-size:10;font-family:Droid Sans Mono;letter-spacing:-.25;word-spacing:0" x="218.39" xml:space="preserve" y="-179.13">
<tspan style="font-size:10;font-family:Droid Sans Mono" x="218.39" y="-179.13">SoundCard IEC958 PCM</tspan>
<tspan style="font-size:10;font-family:Droid Sans Mono" x="218.39" y="-169.13">USB-Audio.pcm.iec958 {</tspan>
<tspan style="font-size:10;font-family:Droid Sans Mono" x="218.39" y="-159.13">  @ARGS [ CARD DEV ]</tspan>
<tspan style="font-size:10;font-family:Droid Sans Mono" x="218.39" y="-149.13">}</tspan>
</text>
</g>
<g transform="translate(98.52 388.56)">
<text style="font-size:10;font-family:Droid Sans Mono;letter-spacing:-.25;word-spacing:0" x="58.19" xml:space="preserve" y="-344.09">
<tspan style="font-size:10;font-family:Droid Sans Mono" x="58.19" y="-344.09">Converter PCM</tspan>
<tspan style="font-size:10;font-family:Droid Sans Mono" x="58.19" y="-334.09">pcm.myplug {</tspan>
<tspan style="font-size:10;font-family:Droid Sans Mono" x="58.19" y="-324.09">  @ARGS [ CARD DEV ]</tspan>
<tspan style="font-size:10;font-family:Droid Sans Mono" x="58.19" y="-314.09">  converter "algorithm"</tspan>
<tspan style="font-size:10;font-family:Droid Sans Mono" x="58.19" y="-304.09">}</tspan>
</text>
<path d="m52.87-355.34h144.35v57.61h-144.35z" style="fill:none;stroke:#ff7d00;stroke-width:1.1"/>
</g>
<g transform="translate(248.42 392.64)">
<text style="font-size:10;font-family:Droid Sans Mono;letter-spacing:-.25;word-spacing:0" x="62.27" y="-177.47">
<tspan style="font-size:10;font-family:Droid Sans Mono" x="62.27" y="-177.47">Quirks for special</tspan>
<tspan style="font-size:10;font-family:Droid Sans Mono" x="62.27" y="-167.47">USB audio card</tspan>
<tspan style="font-size:10;font-family:Droid Sans Mono" x="62.27" y="-157.47">{ ... }</tspan>
</text>
<path d="m52.87-190.59h144.35v39.06h-144.35z" style="fill:none;stroke:#ff7d00;stroke-width:1.1"/>
</g>
<g transform="translate(169.76 375.95)">
<text style="font-size:10;font-family:Droid Sans Mono;letter-spacing:-.25;word-spacing:0" x="288.84" xml:space="preserve" y="-101.39">
<tspan style="font-size:10;font-family:Droid Sans Mono" x="288.84" y="-101.39">Generic USB-Audio PCM</tspan>
<tspan style="font-size:10;font-family:Droid Sans Mono" x="288.84" y="-91.39">{</tspan>
<tspan style="font-size:10;font-family:Droid Sans Mono" x="288.84" y="-81.39">  @ARGS [ CARD DEV ]</tspan>
<tspan style="font-size:10;font-family:Droid Sans Mono" x="288.84" y="-71.39">  type hw</tspan>
<tspan style="font-size:10;font-family:Droid Sans Mono" x="288.84" y="-61.39">  card $CARD</tspan>
<tspan style="font-size:10;font-family:Droid Sans Mono" x="288.84" y="-51.39">  device $DEV</tspan>
<tspan style="font-size:10;font-family:Droid Sans Mono" x="288.84" y="-41.39">}</tspan>
</text>
<path d="m284.03-111.93h144.35v75.05h-144.35z" style="fill:none;stroke:#ff7d00;stroke-width:1.1"/>
</g>
<path d="m125.23 152.41 25.98-74.12" style="fill:#007d00;fill-rule:evenodd;stroke:#007d00"/>
<text style="font-size:10;font-family:Droid Sans Mono;letter-spacing:-.25;word-spacing:0" x="178.32" y="104.01">
<tspan x="178.32" y="104.01">slave PCM</tspan>
</text>
<text style="font-size:10;font-family:Droid Sans Mono;letter-spacing:-.25;word-spacing:0" x="185.11" y="200.47">
<tspan x="185.11" y="200.47">slave PCM</tspan>
</text>
<g style="fill-rule:evenodd;fill:#ff7d00;stroke:#ff7d00">
<path d="m180.89 187.74v18.13" style="marker-end:url(#e)"/>
<path d="m407.23 167.7-18.55 32.97" style="marker-end:url(#f)"/>
<path d="m406.94 167.43 45.27 28.52" style="marker-end:url(#g)"/>
</g>
<text style="font-size:10;font-family:Droid Sans Mono;letter-spacing:-.25;word-spacing:0" x="436.68" y="181.18">
<tspan x="436.68" y="181.18">@func refer ...</tspan>
</text>
<path d="m506.06 243.7v17.39" style="fill:#ff7d00;fill-rule:evenodd;stroke:#ff7d00;marker-end:url(#h)"/>
<g style="stroke:#007d00">
<g style="fill:#007d00;fill-rule:evenodd">
<path d="m125.23 286.47 25.97-156.12"/>
<path d="m125.23 218.57 25.23.09"/>
<path d="m124.49 287.58 26.33-14.45m114.26-64.69 106.9-60.66"/>
</g>
<path d="m124.86 257.9 26.02-5.67m144.28-31.43 5.91-1.29m144.38-.11 8.16-.01" style="fill:none"/>
<path d="m125.23 258.27 25.99 3.27m144.34 18.14 158.05 19.87" style="fill:#007d00;fill-rule:evenodd"/>
</g>
<g transform="translate(92.21 296.91)">
<text style="font-size:10;font-family:Droid Sans Mono;letter-spacing:-.25;word-spacing:0" x="64.12" xml:space="preserve" y="-78.21">
<tspan style="font-size:10;font-family:Droid Sans Mono" x="64.12" y="-78.21">Generic hardware PCM</tspan>
<tspan style="font-size:10;font-family:Droid Sans Mono" x="64.12" y="-68.21">{</tspan>
<tspan style="font-size:10;font-family:Droid Sans Mono" x="64.12" y="-58.21">  @ARGS [ CARD DEV ]</tspan>
<tspan style="font-size:10;font-family:Droid Sans Mono" x="64.12" y="-48.21">  type hw</tspan>
<tspan style="font-size:10;font-family:Droid Sans Mono" x="64.12" y="-38.21">  card $CARD</tspan>
<tspan style="font-size:10;font-family:Droid Sans Mono" x="64.12" y="-28.21">  device $DEV</tspan>
<tspan style="font-size:10;font-family:Droid Sans Mono" x="64.12" y="-18.21">}</tspan>
</text>
<path d="m58.8-88.37h144.35v75.05h-144.35z" style="fill:none;stroke:#ff7d00;stroke-width:1.1"/>
</g>
<text style="font-size:10;font-family:Droid Sans Mono;letter-spacing:-.25;word-spacing:0" x="507.41" y="256.27">
<tspan x="507.41" y="256.27">slave PCM</tspan>
</text>
<text style="font-size:10;font-family:Droid Sans;letter-spacing:-.25;word-spacing:0" x="415.48" y="13.34">
<tspan style="font-weight:bold" x="415.48" y="13.34">All devices in the configuration are</tspan>
<tspan style="font-weight:bold" x="415.48" y="23.34">templates that need runtime parameters</tspan>
</text>
<path d="m648.44 184.3v18.13" style="fill:#f00;fill-rule:evenodd;stroke:#f00;marker-end:url(#j)"/>
<path d="m624.69 205.37h144.35v56.96h-144.35z" style="fill:none;stroke:#f00;stroke-width:1.1"/>
<text style="font-size:10;font-family:Droid Sans Mono;letter-spacing:-.25;word-spacing:0" x="629.17" xml:space="preserve" y="216.42">
<tspan style="font-size:10;font-family:Droid Sans Mono" x="629.17" y="216.42">pcm.dmix {</tspan>
<tspan style="font-size:10;font-family:Droid Sans Mono" x="629.17" y="226.42">  type dmix</tspan>
<tspan style="font-size:10;font-family:Droid Sans Mono" x="629.17" y="236.42">  rate 48000Hz</tspan>
<tspan style="font-size:10;font-family:Droid Sans Mono" x="629.17" y="246.42">  format 16bit</tspan>
<tspan style="font-size:10;font-family:Droid Sans Mono" x="629.17" y="256.42">}</tspan>
</text>
<text style="font-size:10;font-family:Droid Sans Mono;letter-spacing:-.25;word-spacing:0" x="630.19" xml:space="preserve" y="159.31">
<tspan style="font-size:10;font-family:Droid Sans Mono" x="630.19" y="159.31">pcm.myplug {</tspan>
<tspan style="font-size:10;font-family:Droid Sans Mono" x="630.19" y="169.31">  converter "algorithm"</tspan>
<tspan style="font-size:10;font-family:Droid Sans Mono" x="630.19" y="179.31">}</tspan>
</text>
<path d="m624.87 148.07h144.35v36.62h-144.35z" style="fill:none;stroke:#f00;stroke-width:1.1"/>
<text style="font-size:10;font-family:Droid Sans Mono;letter-spacing:-.25;word-spacing:0" x="651.81" y="197.87">
<tspan x="651.81" y="197.87">slave PCM</tspan>
</text>
<text style="font-size:10;font-family:Droid Sans Mono;letter-spacing:-.25;word-spacing:0" x="658.6" y="274.38">
<tspan x="658.6" y="274.38">slave PCM</tspan>
</text>
<path d="m654.38 261.65v18.13" style="fill:#f00;fill-rule:evenodd;stroke:#f00;marker-end:url(#i)"/>
<text style="font-size:10;font-family:Droid Sans Mono;letter-spacing:-.25;word-spacing:0" x="629.81" xml:space="preserve" y="292.62">
<tspan style="font-size:10;font-family:Droid Sans Mono" x="629.81" y="292.62">pcm.hw {</tspan>
<tspan style="font-size:10;font-family:Droid Sans Mono" x="629.81" y="302.62">  type hw</tspan>
<tspan style="font-size:10;font-family:Droid Sans Mono" x="629.81" y="312.62">  card 2</tspan>
<tspan style="font-size:10;font-family:Droid Sans Mono" x="629.81" y="322.62">  device 0</tspan>
<tspan style="font-size:10;font-family:Droid Sans Mono" x="629.81" y="332.62">}</tspan>
</text>
<path d="m624.5 282.46h272.92v55.63h-272.92z" style="fill:none;stroke:#f00;stroke-width:1.1"/>
<text style="font-size:10;font-family:Droid Sans;letter-spacing:-.25;word-spacing:0" x="617.77" y="13.06">
<tspan style="font-weight:bold" x="617.77" y="13.06">Logical PCM view for applications</tspan>
<tspan style="font-weight:bold" x="617.77" y="23.06">runtime parameters are known</tspan>
</text>
<path d="m724.27 68.63-75.42-.22.26 77.64" style="fill:none;stroke:#3465a4;marker-end:url(#k)"/>
<path d="m778.89 81.84-.06 197.68" style="fill:none;stroke:#3465a4;marker-end:url(#l)"/>
<g style="font-size:10;font-family:Droid Sans;letter-spacing:-.25;word-spacing:0">
<text x="651.97" y="95.86">
<tspan x="651.97" y="95.86">open device</tspan>
<tspan x="651.97" y="105.86">"pcm.myplug:2,0"</tspan>
</text>
<text x="783.81" y="101.36">
<tspan x="783.81" y="101.36">open device</tspan>
<tspan x="783.81" y="111.36">"pcm.iec958:2,0"</tspan>
<tspan x="783.81" y="121.36">or</tspan>
<tspan x="783.81" y="131.36">"cards.pcm.iec958:2,0"</tspan>
<tspan x="783.81" y="141.36">or</tspan>
<tspan x="783.81" y="151.36">"cards.USB-Audio.pcm.iec958:2,0"</tspan>
</text>
</g>
</svg>
