<svg height="900" width="1100" viewBox="0 0 749.61 876.1" xmlns="http://www.w3.org/2000/svg" xmlns:xlink="http://www.w3.org/1999/xlink"><marker id="a" orient="auto" refX="0" refY="0" style="overflow:visible"><path d="m4.62 0-6.92 4v-8z" style="fill:#9400d3;fill-rule:evenodd;stroke:#9400d3;stroke-width:.8pt"/></marker><marker id="b" orient="auto" refX="0" refY="0" style="overflow:visible"><path d="m4.62 0-6.92 4v-8z" style="fill:#9400d3;fill-rule:evenodd;stroke:#9400d3;stroke-width:.8pt"/></marker><marker id="c" orient="auto" refX="0" refY="0" style="overflow:visible"><path d="m4.62 0-6.92 4v-8z" style="fill:#00bfff;fill-rule:evenodd;stroke:#00bfff;stroke-width:.8pt"/></marker><marker id="d" orient="auto" refX="0" refY="0" style="overflow:visible"><path d="m4.62 0-6.92 4v-8z" style="fill:#0000cd;fill-rule:evenodd;stroke:#0000cd;stroke-width:.8pt"/></marker><marker id="e" orient="auto" refX="0" refY="0" style="overflow:visible"><path d="m4.62 0-6.92 4v-8z" style="fill:#0000cd;fill-rule:evenodd;stroke:#0000cd;stroke-width:.8pt"/></marker><marker id="f" orient="auto" refX="0" refY="0" style="overflow:visible"><path d="m4.62 0-6.92 4v-8z" style="fill:#0000cd;fill-rule:evenodd;stroke:#0000cd;stroke-width:.8pt"/></marker><marker id="g" orient="auto" refX="0" refY="0" style="overflow:visible"><path d="m4.62 0-6.92 4v-8z" style="fill:#0000cd;fill-rule:evenodd;stroke:#0000cd;stroke-width:.8pt"/></marker><marker id="h" orient="auto" refX="0" refY="0" style="overflow:visible"><path d="m4.62 0-6.92 4v-8z" style="fill:#0000cd;fill-rule:evenodd;stroke:#0000cd;stroke-width:.8pt"/></marker><marker id="i" orient="auto" refX="0" refY="0" style="overflow:visible"><path d="m4.62 0-6.92 4v-8z" style="fill:#20b2aa;fill-rule:evenodd;stroke:#20b2aa;stroke-width:.8pt"/></marker><marker id="j" orient="auto" refX="0" refY="0" style="overflow:visible"><path d="m4.62 0-6.92 4v-8z" style="fill:#00bfff;fill-rule:evenodd;stroke:#00bfff;stroke-width:.8pt"/></marker><marker id="k" orient="auto" refX="0" refY="0" style="overflow:visible"><path d="m4.62 0-6.92 4v-8z" style="fill:#c00;fill-rule:evenodd;stroke:#c00;stroke-width:.8pt"/></marker><marker id="l" orient="auto" refX="0" refY="0" style="overflow:visible"><path d="m4.62 0-6.92 4v-8z" style="fill:#20b2aa;fill-rule:evenodd;stroke:#20b2aa;stroke-width:.8pt"/></marker><path d="m585.82 191.19v68.13l-76.13.4" style="fill:none;stroke:#9400d3;marker-end:url(#a)"/><path d="m336.13 5v285.45" style="fill:none;stroke:#696969"/><g transform="translate(152.58 -368.8)"><g style="fill:none;stroke:#008000;stroke-width:.8" transform="matrix(1.63 0 0 1.16 -137.31 126.91)"><path d="m209.41 276.35h95v55.03h-95z"/><path d="m209.2 289.76h94.91"/><path d="m209.2 303.72h94.91"/><path d="m209.38 317.68h94.91"/></g><text style="font-size:10;font-family:Droid Sans;letter-spacing:-.5;word-spacing:0" x="208.86" xml:space="preserve" y="459.38"><tspan x="208.86" y="459.38">Part UUID | Type | Flags | Start-End </tspan></text></g><g transform="translate(-142.41 -494.11)"><text style="font-size:10;font-family:Droid Sans;letter-spacing:-.5;word-spacing:0" x="505.13" xml:space="preserve" y="538.62"><tspan style="font-weight:bold" x="505.13" y="538.62">GPT partition table header</tspan><tspan x="505.13" y="548.62"> - device UUID</tspan><tspan x="505.13" y="558.62"> - start + len partition entries</tspan><tspan x="505.13" y="568.62"/><tspan x="505.13" y="578.62"/><tspan x="505.13" y="588.62"/></text><path d="m499.4 523.82h154.86v43.81h-154.86z" style="fill:none;stroke:#006400;stroke-width:1.1"/></g><g transform="translate(-6.76 -346.83)"><text style="font-size:10;font-family:Droid Sans;letter-spacing:-.5;word-spacing:0" x="369.48" y="508.47"><tspan x="369.48" y="508.47">Secondary GPT</tspan><tspan x="369.48" y="518.47">- Backup for primary GPT</tspan></text><path d="m363.11 496.04h154.86v29.17h-154.86z" style="fill:none;stroke:#006400;stroke-width:1.1"/></g><g transform="translate(-.3 -475.59)"><path d="m357.51 482.26h154.86v15.82h-154.86z" style="fill:none;stroke:#006400;stroke-width:1.1"/><text style="font-size:10;font-family:Droid Sans;letter-spacing:-.5;word-spacing:0" x="396.18" y="492.97"><tspan x="396.18" y="492.97">Empty MBR sector</tspan></text></g><g transform="translate(-209.54 -350.3)"><g style="fill:none;stroke:#008000;stroke-width:.8" transform="matrix(1.63 0 0 1.16 25.47 93.1)"><path d="m209.41 276.35h95v55.03h-95z"/><path d="m209.2 289.76h94.91"/><path d="m209.2 303.72h94.91"/><path d="m209.38 317.68h94.91"/></g><text style="font-size:10;font-family:Droid Sans;letter-spacing:-.5;word-spacing:0" x="393.17" xml:space="preserve" y="425.15"><tspan x="393.17" y="425.15">Type | Flags | Start-End </tspan></text><text style="font-size:10;font-family:Droid Sans;letter-spacing:-.5;word-spacing:0" x="372.5" y="495.77"><tspan style="font-weight:bold" x="372.5" y="495.77">MBR Boot code</tspan><tspan x="372.5" y="505.77"/><tspan x="372.5" y="515.77"/><tspan x="372.5" y="525.77"/><tspan x="372.5" y="535.77"/><tspan x="372.5" y="545.77"/></text><path d="m366.77 483.55h154.86v43.81h-154.86z" style="fill:none;stroke:#006400;stroke-width:1.1"/><path d="m379.68 502.72h124.72v16.25h-124.72z" style="fill:none;stroke:#00f;stroke-width:1.1"/><text style="font-size:10;font-family:Droid Sans;letter-spacing:-.5;word-spacing:0" x="400.49" y="513.64"><tspan x="400.49" y="513.64">GRUB stage 1 loader</tspan></text></g><path d="m163.17 203.29h141.29v48.72h-141.29z" style="fill:none;stroke:#00f;stroke-width:1.1"/><text style="font-size:10;font-family:Droid Sans;letter-spacing:-.5;word-spacing:0" x="168.04" y="216.08"><tspan style="font-weight:bold" x="168.04" y="216.08">Core.img</tspan><tspan x="168.04" y="226.08">- GRUB stage 1.5</tspan><tspan x="168.04" y="236.08">- Modules to access filesystem</tspan><tspan x="168.04" y="246.08">- Primitive shell and recovery</tspan></text><path d="m157.08 186.24h155.3v74.91h-155.3z" style="fill:none;stroke:#006400;stroke-width:1.1"/><text style="font-size:10;font-family:Droid Sans;letter-spacing:-.5;word-spacing:0" x="160.12" y="197.81"><tspan x="160.12" y="197.81">Post MBR gap (32 ko)</tspan></text><path d="m362.92 231.91h141.29v50.55h-141.29z" style="fill:none;stroke:#00f;stroke-width:1.1"/><text style="font-size:10;font-family:Droid Sans;letter-spacing:-.5;word-spacing:0" x="367.79" y="244.7"><tspan style="font-weight:bold" x="367.79" y="244.7">Core.img / Standalone.img</tspan><tspan x="367.79" y="254.7">- GRUB stage 1.5</tspan><tspan x="367.79" y="264.7">- Modules to access filesystem</tspan><tspan x="367.79" y="274.7">- Primitive shell and recovery</tspan></text><path d="m355.61 185.02h156.51v106.58h-156.51z" style="fill:none;stroke:#006400;stroke-width:1.1"/><text style="font-size:10;font-family:Droid Sans;letter-spacing:-.5;word-spacing:0" x="362.31" y="199.03"><tspan style="font-weight:bold" x="362.31" y="199.03">UEFI partition</tspan><tspan x="362.31" y="209.03">- Filesystem FAT32</tspan><tspan x="362.31" y="219.03">- Applications loaded by firmware</tspan></text><path d="m549.29 168.58h98.66v23.14h-98.66z" style="fill:none;stroke:#9400d3;stroke-width:1.1"/><text style="font-size:10;font-family:Droid Sans;letter-spacing:-.5;word-spacing:0" x="553.55" y="183.19"><tspan style="font-weight:bold" x="553.55" y="183.19">UEFI Boot manager</tspan></text><path d="m25.55 323.26h698.51v547.29h-698.51z" style="fill:none;stroke:#32cd32;stroke-width:1.1"/><text style="font-size:10;font-family:Droid Sans;letter-spacing:-.5;word-spacing:0" x="33.4" y="336.99"><tspan style="font-weight:bold" x="33.4" y="336.99">/boot partition (rootfs)</tspan></text><g transform="translate(27.97 -277.82)"><path d="m172.35 621.8h121.19v42.63h-121.19z" style="fill:none;stroke:#00f;stroke-width:1.1"/><text style="font-size:10;font-family:Droid Sans;letter-spacing:-.5;word-spacing:0" x="177.83" xml:space="preserve" y="635.19"><tspan style="font-weight:bold" x="177.83" y="635.19">Grub install</tspan><tspan x="177.83" y="645.19">- grub.cfg (menu entries)</tspan><tspan x="177.83" y="655.19">- Extra modules </tspan></text></g><g transform="translate(20.05 -260.16)"><path d="m182.09 663.82h118.15v26.19h-118.15z" style="fill:none;stroke:#00bfff;stroke-width:1.1"/><text style="font-size:10;font-family:Droid Sans;letter-spacing:-.5;word-spacing:0" x="186.96" y="679.65"><tspan style="font-weight:bold" x="186.96" y="679.65">Linux compressed image</tspan></text></g><text style="font-size:10;font-family:Droid Sans;letter-spacing:-.5;word-spacing:0" x="335.91" y="426.04"><tspan style="font-weight:bold" x="335.91" y="426.04">Ram disk compressed image</tspan><tspan x="335.91" y="436.04">- Kernel modules (ex: other fs)</tspan><tspan x="335.91" y="446.04">- Early configuration files</tspan></text><g style="fill:none"><path d="m330.03 413.56h141.29v41.19h-141.29z" style="stroke:#00bfff;stroke-width:1.1"/><path d="m227.13 579.36h489.15v283.34h-489.15z" style="stroke:#32cd32;stroke-width:1.27"/><path d="m156.06 500.33h158.38v49.8h-158.38z" style="stroke:#008b8b;stroke-width:1.1"/></g><text style="font-size:10;font-family:Droid Sans;letter-spacing:-.5;word-spacing:0" x="160.93" y="513.43"><tspan style="font-weight:bold" x="160.93" y="513.43">PID 1 Init systemd</tspan><tspan x="160.93" y="523.43">- Starts user space services</tspan><tspan x="160.93" y="533.43">- Change root to real partition</tspan><tspan x="160.93" y="543.43">- And many, many other functionality</tspan></text><text style="font-size:10;font-family:Droid Sans;letter-spacing:-.5;word-spacing:0" x="236.13" xml:space="preserve" y="593.56"><tspan style="font-weight:bold" x="236.13" y="593.56">Final &lt;root&gt; disk partition </tspan></text><text x="540.14" y="471.86"><tspan x="540.14" y="471.86"/></text><g style="font-size:10;font-family:Droid Sans;letter-spacing:-.5;word-spacing:0"><text x="250.68" y="689.64"><tspan x="250.68" y="689.64">/boot/sysctl.&lt;kernel_version&gt;</tspan><tspan x="250.68" y="699.64">/etc/sysctl.d/*</tspan><tspan x="250.68" y="709.64">/usr/lib/sysctl.d/*</tspan><tspan x="250.68" y="719.64"/></text><text x="423.9" y="626.05"><tspan style="font-weight:bold" x="423.9" y="626.05">/etc/sysconfig/*</tspan><tspan x="423.9" y="636.05">- service configuration</tspan></text><text x="246.62" xml:space="preserve" y="615.27"><tspan style="font-weight:bold" x="246.62" y="615.27">/etc/systemd/system|user/*</tspan><tspan x="246.62" y="625.27">- Describes the runlevel services</tspan><tspan x="246.62" y="635.27">- Mount points</tspan><tspan x="246.62" y="645.27">- Service dependencies </tspan></text></g><path d="m182.27 549.52-17.46 103.63" style="fill:none;stroke:#20b2aa;marker-end:url(#i)"/><text x="14.57" y="390.86"><tspan x="14.57" y="390.86"/></text><g style="fill:none;stroke:#0000cd"><path d="m252.08 251.48v86.8" style="marker-end:url(#h)"/><path d="m371.45 281.93v74.83l-44.46.1" style="marker-end:url(#g)"/><path d="m284.36 168.05v29.91" style="marker-end:url(#f)"/><path d="m321.51 366.95 39.59-.33-.01 40.69" style="marker-end:url(#e)"/><path d="m200.32 367.19-27.41-.08v50.55l24.36-.21" style="marker-end:url(#d)"/></g><text style="font-size:10;font-family:Droid Sans;letter-spacing:-.5;word-spacing:0" x="32.84" xml:space="preserve" y="364.07"><tspan x="32.84" y="364.07">- Reads grub.cfg to get bootable OS list </tspan><tspan x="32.84" y="374.07">- Uncompress linux and ramdisk</tspan><tspan x="32.84" y="384.07">- Gives the root partition to kernel</tspan></text><path d="m75.72 438.56h142.71v48.15h-142.71z" style="fill:none;stroke:#00bfff;stroke-width:1.1;stroke-dasharray:4.4 1.1"/><g style="font-size:10;font-family:Droid Sans;letter-spacing:-.5;word-spacing:0"><text x="80.61" xml:space="preserve" y="451.93"><tspan x="80.61" y="451.93"><tspan style="font-weight:bold">linuxrc/initrd</tspan> (<tspan style="fill:#c00">deprecated</tspan>)</tspan><tspan x="80.61" y="461.93">- Used in the legacy initrd system</tspan><tspan x="80.61" y="471.93">- After that process finished the</tspan><tspan x="80.61" y="481.93">  real init program was called</tspan><tspan x="80.61" y="491.93"/></text><text x="250.86" y="301.34"><tspan x="250.86" y="301.34"/><tspan x="250.86" y="311.34">- Loads grub.cfg and extra mods</tspan></text><text x="527.35" y="216.69"><tspan x="527.35" y="216.69"/><tspan x="527.35" y="226.69">- Loads boot application at</tspan><tspan x="527.35" y="236.69">/EFI/BOOT/BOOT&lt;ARCH&gt;.EFI</tspan></text></g><text x="185.98" y="544.33"><tspan x="185.98" y="544.33"/><tspan x="185.98" y="554.33"/></text><path d="m255.13 428.95v65.8" style="fill:none;stroke:#00bfff;marker-end:url(#c)"/><path d="m512.5 103.73 22.72-.11-.03 87.78-18.14-.23" style="fill:none;stroke:#9400d3;marker-end:url(#b)"/><text style="font-size:10;font-family:Droid Sans;letter-spacing:-.5;word-spacing:0" x="404.44" y="106.38"><tspan x="404.44" y="106.38">type : efi</tspan></text><text style="font-size:10;font-family:Droid Sans;letter-spacing:-.5;word-spacing:0" x="261.29" xml:space="preserve" y="469.95"><tspan style="letter-spacing:-.5;word-spacing:0" x="261.29" y="469.95">Any command line params not understood </tspan><tspan style="letter-spacing:-.5;word-spacing:0" x="261.29" y="479.95">by the kernel are passed to the init program</tspan></text><path d="m471.41 432.71 7.68-.14v86.34l-159.95-.36" style="fill:none;stroke:#00bfff;marker-end:url(#j)"/><path d="m470.18 428.03 17.22-1.19v145.33" style="fill:none;stroke:#c00;marker-end:url(#k)"/><text style="font-size:10;font-family:Droid Sans;letter-spacing:-.5;word-spacing:0" x="490.33" y="521.86"><tspan x="490.33" y="521.86">When creating initramfs configuration</tspan><tspan x="490.33" y="531.86">files will be duplicated</tspan></text><path d="m261.07 549.32 17.46 25.21" style="fill:none;stroke:#20b2aa;marker-end:url(#l)"/><g transform="translate(8.24)"><text style="font-size:10;font-family:Droid Sans;letter-spacing:-.5;word-spacing:0" x="31.97" y="675.97"><tspan style="font-weight:bold" x="31.97" y="675.97">sysclt</tspan><tspan x="31.97" y="685.97">- Configure kernel parameters at runtime</tspan></text><path d="m24.62 658.95h185.4v38.98h-185.4z" style="fill:none;stroke:#008b8b;stroke-width:1.1"/><g style="font-size:10;font-family:Droid Sans;letter-spacing:-.5;word-spacing:0"><text x="28.65" y="722.57"><tspan style="font-weight:bold" x="28.65" y="722.57">systemd-modules-load</tspan><tspan x="28.65" y="732.57">- loads kernel modules</tspan><tspan x="28.65" y="742.57">- (Not used) Prefer automatic module load</tspan></text><text x="32.54" y="776.42"><tspan style="font-weight:bold" x="32.54" y="776.42">selinux/apparmor</tspan><tspan x="32.54" y="786.42">- implements security policies</tspan></text><text x="33.19" y="819.89"><tspan style="font-weight:bold" x="33.19" y="819.89">udev</tspan><tspan x="33.19" y="829.89">- notifies/perform actions on device events</tspan><tspan x="33.19" y="839.89">- reads hwdb id-&gt;name map</tspan></text></g><g style="fill:none;stroke:#008b8b;stroke-width:1.1"><path d="m24.74 709.35h185.4v38.98h-185.4z"/><path d="m24.74 758.01h185.4v38.98h-185.4z"/><path d="m25.39 807.97h185.4v38.98h-185.4z"/></g></g><g style="fill:none;stroke-width:1.1;stroke:#f57900"><path d="m237.36 602.29h149.71v52.6h-149.71z"/><path d="m397.95 602.62h149.71v52.6h-149.71z"/><path d="m558.21 602.62h149.71v52.6h-149.71z"/></g><text style="font-size:10;font-family:Droid Sans;letter-spacing:-.5;word-spacing:0" x="568.93" xml:space="preserve" y="620.05"><tspan style="font-weight:bold" x="568.93" y="620.05">/etc/tmpfiles.d</tspan><tspan x="568.93" y="630.05">- creation, deletion and cleaning </tspan><tspan x="568.93" y="640.05">  of volatile and temporary files</tspan></text><path d="m237.69 669.45h149.71v52.6h-149.71z" style="fill:none;stroke:#f57900;stroke-width:1.1"/><text style="font-size:10;font-family:Droid Sans;letter-spacing:-.5;word-spacing:0" x="248.07" y="752.58"><tspan x="248.07" y="752.58">/etc/modules-load.d/*.conf</tspan><tspan x="248.07" y="762.58">/usr/lib/modules-load.d/*.conf</tspan><tspan x="248.07" y="772.58"/></text><path d="m237.69 729.79h149.71v52.6h-149.71z" style="fill:none;stroke:#f57900;stroke-width:1.1"/><text style="font-size:10;font-family:Droid Sans;letter-spacing:-.5;word-spacing:0" x="406.08" y="688.18"><tspan style="font-weight:bold" x="406.08" y="688.18">/etc/modprobe.d</tspan><tspan x="406.08" y="698.18">- Options when loading modules</tspan><tspan x="406.08" y="708.18">- Blacklist</tspan></text><path d="m397.95 668.8h149.71v52.6h-149.71z" style="fill:none;stroke:#f57900;stroke-width:1.1"/><text style="font-size:10;font-family:Droid Sans;letter-spacing:-.5;word-spacing:0" x="259.43" y="815.19"><tspan x="259.43" y="815.19">/etc/udev/rules.d</tspan><tspan x="259.43" y="825.19">/usr/lib/udev/hwdb.d</tspan><tspan x="259.43" y="835.19"/></text><text style="font-size:10;font-family:Droid Sans;letter-spacing:-.5;word-spacing:0" x="447.51" y="796.34"><tspan x="447.51" y="796.34">/etc/selinux/config</tspan><tspan x="447.51" y="806.34"/></text><g style="fill:none;stroke-width:1.1;stroke:#f57900"><path d="m237.69 792.72h149.71v52.6h-149.71z"/><path d="m410.28 765.47h149.71v52.6h-149.71z"/></g></svg>
