<?xml version="1.0" encoding="UTF-8" standalone="no"?>
<svg
   xmlns:dc="http://purl.org/dc/elements/1.1/"
   xmlns:cc="http://creativecommons.org/ns#"
   xmlns:rdf="http://www.w3.org/1999/02/22-rdf-syntax-ns#"
   xmlns:svg="http://www.w3.org/2000/svg"
   xmlns="http://www.w3.org/2000/svg"
   viewBox="0 0 418.75974 118.66231"
   height="200"
   width="1200"
   xml:space="preserve"
   version="1.1"
   id="svg2"><metadata
     id="metadata8"><rdf:RDF><cc:Work
         rdf:about=""><dc:format>image/svg+xml</dc:format><dc:type
           rdf:resource="http://purl.org/dc/dcmitype/StillImage" /><dc:title></dc:title></cc:Work></rdf:RDF></metadata><defs
     id="defs6"><clipPath
       clipPathUnits="userSpaceOnUse"
       id="clipPath16"><path
         d="m 34.728,759.53 70.872,0 0,7.296 -70.872,0 0,-7.296 z"
         id="path18"
         style="clip-rule:evenodd" /></clipPath><clipPath
       clipPathUnits="userSpaceOnUse"
       id="clipPath24"><path
         d="m 34.728,759.6 70.872,0 0,7.224 -70.872,0 0,-7.224 z"
         id="path26"
         style="clip-rule:evenodd" /></clipPath><clipPath
       clipPathUnits="userSpaceOnUse"
       id="clipPath36"><path
         d="m 49.248,737.88 223.54,0 0,7.296 -223.54,0 0,-7.296 z"
         id="path38"
         style="clip-rule:evenodd" /></clipPath><clipPath
       clipPathUnits="userSpaceOnUse"
       id="clipPath44"><path
         d="m 49.248,737.95 223.54,0 0,7.224 -223.54,0 0,-7.224 z"
         id="path46"
         style="clip-rule:evenodd" /></clipPath><clipPath
       clipPathUnits="userSpaceOnUse"
       id="clipPath56"><path
         d="m 49.248,730.66 88.296,0 0,7.296 -88.296,0 0,-7.296 z"
         id="path58"
         style="clip-rule:evenodd" /></clipPath><clipPath
       clipPathUnits="userSpaceOnUse"
       id="clipPath64"><path
         d="m 49.248,730.73 88.296,0 0,7.224 -88.296,0 0,-7.224 z"
         id="path66"
         style="clip-rule:evenodd" /></clipPath><clipPath
       clipPathUnits="userSpaceOnUse"
       id="clipPath76"><path
         d="m 34.728,745.1 234.24,0 0,7.296 -234.24,0 0,-7.296 z"
         id="path78"
         style="clip-rule:evenodd" /></clipPath><clipPath
       clipPathUnits="userSpaceOnUse"
       id="clipPath84"><path
         d="m 34.728,745.15 234.24,0 0,7.248 -234.24,0 0,-7.248 z"
         id="path86"
         style="clip-rule:evenodd" /></clipPath><clipPath
       clipPathUnits="userSpaceOnUse"
       id="clipPath96"><path
         d="m 34.728,745.15 234.24,0 0,7.248 -234.24,0 0,-7.248 z"
         id="path98"
         style="clip-rule:evenodd" /></clipPath><clipPath
       clipPathUnits="userSpaceOnUse"
       id="clipPath108"><path
         d="m 34.728,745.15 234.24,0 0,7.248 -234.24,0 0,-7.248 z"
         id="path110"
         style="clip-rule:evenodd" /></clipPath><clipPath
       clipPathUnits="userSpaceOnUse"
       id="clipPath120"><path
         d="m 49.248,716.21 122.71,0 0,7.296 -122.71,0 0,-7.296 z"
         id="path122"
         style="clip-rule:evenodd" /></clipPath><clipPath
       clipPathUnits="userSpaceOnUse"
       id="clipPath128"><path
         d="m 49.248,716.28 122.71,0 0,7.224 -122.71,0 0,-7.224 z"
         id="path130"
         style="clip-rule:evenodd" /></clipPath><clipPath
       clipPathUnits="userSpaceOnUse"
       id="clipPath140"><path
         d="m 34.728,723.43 237.02,0 0,7.296 -237.02,0 0,-7.296 z"
         id="path142"
         style="clip-rule:evenodd" /></clipPath><clipPath
       clipPathUnits="userSpaceOnUse"
       id="clipPath148"><path
         d="m 34.728,723.5 237.02,0 0,7.224 -237.02,0 0,-7.224 z"
         id="path150"
         style="clip-rule:evenodd" /></clipPath><clipPath
       clipPathUnits="userSpaceOnUse"
       id="clipPath160"><path
         d="m 34.728,708.98 163.44,0 0,7.296 -163.44,0 0,-7.296 z"
         id="path162"
         style="clip-rule:evenodd" /></clipPath><clipPath
       clipPathUnits="userSpaceOnUse"
       id="clipPath168"><path
         d="m 34.728,709.06 163.44,0 0,7.224 -163.44,0 0,-7.224 z"
         id="path170"
         style="clip-rule:evenodd" /></clipPath><clipPath
       clipPathUnits="userSpaceOnUse"
       id="clipPath180"><path
         d="m 34.728,709.06 163.44,0 0,7.224 -163.44,0 0,-7.224 z"
         id="path182"
         style="clip-rule:evenodd" /></clipPath><clipPath
       clipPathUnits="userSpaceOnUse"
       id="clipPath192"><path
         d="m 34.728,709.06 163.44,0 0,7.224 -163.44,0 0,-7.224 z"
         id="path194"
         style="clip-rule:evenodd" /></clipPath><clipPath
       clipPathUnits="userSpaceOnUse"
       id="clipPath210"><path
         d="m 288.41,740.18 81.84,0 0,7.296 -81.84,0 0,-7.296 z"
         id="path212"
         style="clip-rule:evenodd" /></clipPath><clipPath
       clipPathUnits="userSpaceOnUse"
       id="clipPath218"><path
         d="m 288.41,740.26 81.84,0 0,7.224 -81.84,0 0,-7.224 z"
         id="path220"
         style="clip-rule:evenodd" /></clipPath><clipPath
       clipPathUnits="userSpaceOnUse"
       id="clipPath230"><path
         d="m 288.41,740.26 81.84,0 0,7.224 -81.84,0 0,-7.224 z"
         id="path232"
         style="clip-rule:evenodd" /></clipPath><clipPath
       clipPathUnits="userSpaceOnUse"
       id="clipPath242"><path
         d="m 288.41,740.26 81.84,0 0,7.224 -81.84,0 0,-7.224 z"
         id="path244"
         style="clip-rule:evenodd" /></clipPath><clipPath
       clipPathUnits="userSpaceOnUse"
       id="clipPath260"><path
         d="m 295.82,720.82 75.264,0 0,7.296 -75.264,0 0,-7.296 z"
         id="path262"
         style="clip-rule:evenodd" /></clipPath><clipPath
       clipPathUnits="userSpaceOnUse"
       id="clipPath268"><path
         d="m 295.82,720.89 75.264,0 0,7.224 -75.264,0 0,-7.224 z"
         id="path270"
         style="clip-rule:evenodd" /></clipPath><clipPath
       clipPathUnits="userSpaceOnUse"
       id="clipPath280"><path
         d="m 294.53,705.65 73.92,0 0,7.296 -73.92,0 0,-7.296 z"
         id="path282"
         style="clip-rule:evenodd" /></clipPath><clipPath
       clipPathUnits="userSpaceOnUse"
       id="clipPath288"><path
         d="m 294.53,705.72 73.92,0 0,7.224 -73.92,0 0,-7.224 z"
         id="path290"
         style="clip-rule:evenodd" /></clipPath><clipPath
       clipPathUnits="userSpaceOnUse"
       id="clipPath300"><path
         d="m 294.53,698.42 48.936,0 0,7.296 -48.936,0 0,-7.296 z"
         id="path302"
         style="clip-rule:evenodd" /></clipPath><clipPath
       clipPathUnits="userSpaceOnUse"
       id="clipPath308"><path
         d="m 294.53,698.5 48.936,0 0,7.224 -48.936,0 0,-7.224 z"
         id="path310"
         style="clip-rule:evenodd" /></clipPath><clipPath
       clipPathUnits="userSpaceOnUse"
       id="clipPath326"><path
         d="m 410.02,696.98 41.376,0 0,7.296 -41.376,0 0,-7.296 z"
         id="path328"
         style="clip-rule:evenodd" /></clipPath><clipPath
       clipPathUnits="userSpaceOnUse"
       id="clipPath334"><path
         d="m 410.02,697.06 41.376,0 0,7.224 -41.376,0 0,-7.224 z"
         id="path336"
         style="clip-rule:evenodd" /></clipPath><clipPath
       clipPathUnits="userSpaceOnUse"
       id="clipPath350"><path
         d="m 406.46,706.99 37.632,0 0,7.296 -37.632,0 0,-7.296 z"
         id="path352"
         style="clip-rule:evenodd" /></clipPath><clipPath
       clipPathUnits="userSpaceOnUse"
       id="clipPath358"><path
         d="m 406.46,707.06 37.632,0 0,7.224 -37.632,0 0,-7.224 z"
         id="path360"
         style="clip-rule:evenodd" /></clipPath><clipPath
       clipPathUnits="userSpaceOnUse"
       id="clipPath386"><path
         d="m 407.42,754.1 41.376,0 0,7.296 -41.376,0 0,-7.296 z"
         id="path388"
         style="clip-rule:evenodd" /></clipPath><clipPath
       clipPathUnits="userSpaceOnUse"
       id="clipPath394"><path
         d="m 407.42,754.18 41.376,0 0,7.224 -41.376,0 0,-7.224 z"
         id="path396"
         style="clip-rule:evenodd" /></clipPath><clipPath
       clipPathUnits="userSpaceOnUse"
       id="clipPath410"><path
         d="m 404.9,763.73 37.632,0 0,7.296 -37.632,0 0,-7.296 z"
         id="path412"
         style="clip-rule:evenodd" /></clipPath><clipPath
       clipPathUnits="userSpaceOnUse"
       id="clipPath418"><path
         d="m 404.9,763.8 37.632,0 0,7.224 -37.632,0 0,-7.224 z"
         id="path420"
         style="clip-rule:evenodd" /></clipPath><clipPath
       clipPathUnits="userSpaceOnUse"
       id="clipPath468"><path
         d="m 531.1,769.22 53.376,0 0,7.296 -53.376,0 0,-7.296 z"
         id="path470"
         style="clip-rule:evenodd" /></clipPath><clipPath
       clipPathUnits="userSpaceOnUse"
       id="clipPath476"><path
         d="m 531.1,769.3 53.376,0 0,7.224 -53.376,0 0,-7.224 z"
         id="path478"
         style="clip-rule:evenodd" /></clipPath><clipPath
       clipPathUnits="userSpaceOnUse"
       id="clipPath506"><path
         d="m 315.5,633.7 48.552,0 0,7.296 -48.552,0 0,-7.296 z"
         id="path508"
         style="clip-rule:evenodd" /></clipPath><clipPath
       clipPathUnits="userSpaceOnUse"
       id="clipPath514"><path
         d="m 315.5,633.74 48.552,0 0,7.248 -48.552,0 0,-7.248 z"
         id="path516"
         style="clip-rule:evenodd" /></clipPath><clipPath
       clipPathUnits="userSpaceOnUse"
       id="clipPath526"><path
         d="m 315.5,626.47 30.288,0 0,7.296 -30.288,0 0,-7.296 z"
         id="path528"
         style="clip-rule:evenodd" /></clipPath><clipPath
       clipPathUnits="userSpaceOnUse"
       id="clipPath534"><path
         d="m 315.5,626.52 30.288,0 0,7.248 -30.288,0 0,-7.248 z"
         id="path536"
         style="clip-rule:evenodd" /></clipPath><clipPath
       clipPathUnits="userSpaceOnUse"
       id="clipPath546"><path
         d="m 314.54,669.19 48.528,0 0,7.296 -48.528,0 0,-7.296 z"
         id="path548"
         style="clip-rule:evenodd" /></clipPath><clipPath
       clipPathUnits="userSpaceOnUse"
       id="clipPath554"><path
         d="m 314.54,669.24 48.528,0 0,7.248 -48.528,0 0,-7.248 z"
         id="path556"
         style="clip-rule:evenodd" /></clipPath><clipPath
       clipPathUnits="userSpaceOnUse"
       id="clipPath566"><path
         d="m 314.54,661.97 30.528,0 0,7.296 -30.528,0 0,-7.296 z"
         id="path568"
         style="clip-rule:evenodd" /></clipPath><clipPath
       clipPathUnits="userSpaceOnUse"
       id="clipPath574"><path
         d="m 314.54,662.04 30.528,0 0,7.224 -30.528,0 0,-7.224 z"
         id="path576"
         style="clip-rule:evenodd" /></clipPath><clipPath
       clipPathUnits="userSpaceOnUse"
       id="clipPath592"><path
         d="m 329.06,762.46 51.576,0 0,7.272 -51.576,0 0,-7.272 z"
         id="path594"
         style="clip-rule:evenodd" /></clipPath><clipPath
       clipPathUnits="userSpaceOnUse"
       id="clipPath600"><path
         d="m 329.06,762.5 51.576,0 0,7.224 -51.576,0 0,-7.224 z"
         id="path602"
         style="clip-rule:evenodd" /></clipPath><clipPath
       clipPathUnits="userSpaceOnUse"
       id="clipPath612"><path
         d="m 264.84,765.02 64.608,0 0,7.296 -64.608,0 0,-7.296 z"
         id="path614"
         style="clip-rule:evenodd" /></clipPath><clipPath
       clipPathUnits="userSpaceOnUse"
       id="clipPath620"><path
         d="m 264.84,765.1 64.608,0 0,7.224 -64.608,0 0,-7.224 z"
         id="path622"
         style="clip-rule:evenodd" /></clipPath><clipPath
       clipPathUnits="userSpaceOnUse"
       id="clipPath632"><path
         d="m 264.84,757.8 41.256,0 0,7.296 -41.256,0 0,-7.296 z"
         id="path634"
         style="clip-rule:evenodd" /></clipPath><clipPath
       clipPathUnits="userSpaceOnUse"
       id="clipPath640"><path
         d="m 264.84,757.87 41.256,0 0,7.224 -41.256,0 0,-7.224 z"
         id="path642"
         style="clip-rule:evenodd" /></clipPath><clipPath
       clipPathUnits="userSpaceOnUse"
       id="clipPath706"><path
         d="m 509.71,534.05 68.16,0 0,7.296 -68.16,0 0,-7.296 z"
         id="path708"
         style="clip-rule:evenodd" /></clipPath><clipPath
       clipPathUnits="userSpaceOnUse"
       id="clipPath714"><path
         d="m 509.71,534.12 68.16,0 0,7.224 -68.16,0 0,-7.224 z"
         id="path716"
         style="clip-rule:evenodd" /></clipPath><clipPath
       clipPathUnits="userSpaceOnUse"
       id="clipPath726"><path
         d="m 509.71,526.82 52.92,0 0,7.296 -52.92,0 0,-7.296 z"
         id="path728"
         style="clip-rule:evenodd" /></clipPath><clipPath
       clipPathUnits="userSpaceOnUse"
       id="clipPath734"><path
         d="m 509.71,526.9 52.92,0 0,7.224 -52.92,0 0,-7.224 z"
         id="path736"
         style="clip-rule:evenodd" /></clipPath><clipPath
       clipPathUnits="userSpaceOnUse"
       id="clipPath746"><path
         d="m 470.42,589.49 62.808,0 0,7.272 -62.808,0 0,-7.272 z"
         id="path748"
         style="clip-rule:evenodd" /></clipPath><clipPath
       clipPathUnits="userSpaceOnUse"
       id="clipPath754"><path
         d="m 470.42,589.54 62.808,0 0,7.224 -62.808,0 0,-7.224 z"
         id="path756"
         style="clip-rule:evenodd" /></clipPath><clipPath
       clipPathUnits="userSpaceOnUse"
       id="clipPath766"><path
         d="m 278.06,589.15 58.872,0 0,7.296 -58.872,0 0,-7.296 z"
         id="path768"
         style="clip-rule:evenodd" /></clipPath><clipPath
       clipPathUnits="userSpaceOnUse"
       id="clipPath774"><path
         d="m 278.06,589.22 58.872,0 0,7.224 -58.872,0 0,-7.224 z"
         id="path776"
         style="clip-rule:evenodd" /></clipPath><clipPath
       clipPathUnits="userSpaceOnUse"
       id="clipPath786"><path
         d="m 278.06,581.93 65.064,0 0,7.296 -65.064,0 0,-7.296 z"
         id="path788"
         style="clip-rule:evenodd" /></clipPath><clipPath
       clipPathUnits="userSpaceOnUse"
       id="clipPath794"><path
         d="m 278.06,582 65.064,0 0,7.224 -65.064,0 0,-7.224 z"
         id="path796"
         style="clip-rule:evenodd" /></clipPath><clipPath
       clipPathUnits="userSpaceOnUse"
       id="clipPath806"><path
         d="m 420.72,588.5 49.44,0 0,7.296 -49.44,0 0,-7.296 z"
         id="path808"
         style="clip-rule:evenodd" /></clipPath><clipPath
       clipPathUnits="userSpaceOnUse"
       id="clipPath814"><path
         d="m 420.72,588.58 49.44,0 0,7.224 -49.44,0 0,-7.224 z"
         id="path816"
         style="clip-rule:evenodd" /></clipPath><clipPath
       clipPathUnits="userSpaceOnUse"
       id="clipPath848"><path
         d="m 334.87,594.96 82.944,0 0,7.296 -82.944,0 0,-7.296 z"
         id="path850"
         style="clip-rule:evenodd" /></clipPath><clipPath
       clipPathUnits="userSpaceOnUse"
       id="clipPath856"><path
         d="m 334.87,595.03 82.944,0 0,7.224 -82.944,0 0,-7.224 z"
         id="path858"
         style="clip-rule:evenodd" /></clipPath><clipPath
       clipPathUnits="userSpaceOnUse"
       id="clipPath868"><path
         d="m 334.87,595.03 82.944,0 0,7.224 -82.944,0 0,-7.224 z"
         id="path870"
         style="clip-rule:evenodd" /></clipPath><clipPath
       clipPathUnits="userSpaceOnUse"
       id="clipPath880"><path
         d="m 349.39,580.51 55.584,0 0,7.296 -55.584,0 0,-7.296 z"
         id="path882"
         style="clip-rule:evenodd" /></clipPath><clipPath
       clipPathUnits="userSpaceOnUse"
       id="clipPath888"><path
         d="m 349.39,580.58 55.584,0 0,7.224 -55.584,0 0,-7.224 z"
         id="path890"
         style="clip-rule:evenodd" /></clipPath><clipPath
       clipPathUnits="userSpaceOnUse"
       id="clipPath900"><path
         d="m 334.87,587.74 83.328,0 0,7.296 -83.328,0 0,-7.296 z"
         id="path902"
         style="clip-rule:evenodd" /></clipPath><clipPath
       clipPathUnits="userSpaceOnUse"
       id="clipPath908"><path
         d="m 334.87,587.81 83.328,0 0,7.224 -83.328,0 0,-7.224 z"
         id="path910"
         style="clip-rule:evenodd" /></clipPath><clipPath
       clipPathUnits="userSpaceOnUse"
       id="clipPath944"><path
         d="m 360.7,520.42 83.784,0 0,7.296 -83.784,0 0,-7.296 z"
         id="path946"
         style="clip-rule:evenodd" /></clipPath><clipPath
       clipPathUnits="userSpaceOnUse"
       id="clipPath952"><path
         d="m 360.7,520.49 83.784,0 0,7.224 -83.784,0 0,-7.224 z"
         id="path954"
         style="clip-rule:evenodd" /></clipPath><clipPath
       clipPathUnits="userSpaceOnUse"
       id="clipPath964"><path
         d="m 360.7,520.49 83.784,0 0,7.224 -83.784,0 0,-7.224 z"
         id="path966"
         style="clip-rule:evenodd" /></clipPath><clipPath
       clipPathUnits="userSpaceOnUse"
       id="clipPath976"><path
         d="m 360.7,513.19 85.776,0 0,7.296 -85.776,0 0,-7.296 z"
         id="path978"
         style="clip-rule:evenodd" /></clipPath><clipPath
       clipPathUnits="userSpaceOnUse"
       id="clipPath984"><path
         d="m 360.7,513.26 85.776,0 0,7.224 -85.776,0 0,-7.224 z"
         id="path986"
         style="clip-rule:evenodd" /></clipPath><clipPath
       clipPathUnits="userSpaceOnUse"
       id="clipPath996"><path
         d="m 360.7,505.97 95.016,0 0,7.296 -95.016,0 0,-7.296 z"
         id="path998"
         style="clip-rule:evenodd" /></clipPath><clipPath
       clipPathUnits="userSpaceOnUse"
       id="clipPath1004"><path
         d="m 360.7,506.04 95.016,0 0,7.224 -95.016,0 0,-7.224 z"
         id="path1006"
         style="clip-rule:evenodd" /></clipPath><clipPath
       clipPathUnits="userSpaceOnUse"
       id="clipPath1016"><path
         d="m 290.98,518.5 75.648,0 0,7.272 -75.648,0 0,-7.272 z"
         id="path1018"
         style="clip-rule:evenodd" /></clipPath><clipPath
       clipPathUnits="userSpaceOnUse"
       id="clipPath1024"><path
         d="m 290.98,518.54 75.648,0 0,7.224 -75.648,0 0,-7.224 z"
         id="path1026"
         style="clip-rule:evenodd" /></clipPath><clipPath
       clipPathUnits="userSpaceOnUse"
       id="clipPath1052"><path
         d="m 34.728,794.33 94.056,0 0,11.232 -94.056,0 0,-11.232 z"
         id="path1054"
         style="clip-rule:evenodd" /></clipPath><clipPath
       clipPathUnits="userSpaceOnUse"
       id="clipPath1060"><path
         d="m 34.728,794.4 94.056,0 0,11.16 -94.056,0 0,-11.16 z"
         id="path1062"
         style="clip-rule:evenodd" /></clipPath><clipPath
       clipPathUnits="userSpaceOnUse"
       id="clipPath1072"><path
         d="m 34.728,785.81 41.304,0 0,6.648 -41.304,0 0,-6.648 z"
         id="path1074"
         style="clip-rule:evenodd" /></clipPath><clipPath
       clipPathUnits="userSpaceOnUse"
       id="clipPath1080"><path
         d="m 34.728,785.88 41.304,0 0,6.576 -41.304,0 0,-6.576 z"
         id="path1082"
         style="clip-rule:evenodd" /></clipPath><clipPath
       clipPathUnits="userSpaceOnUse"
       id="clipPath1092"><path
         d="m 78.312,785.81 20.736,0 0,6.648 -20.736,0 0,-6.648 z"
         id="path1094"
         style="clip-rule:evenodd" /></clipPath><clipPath
       clipPathUnits="userSpaceOnUse"
       id="clipPath1100"><path
         d="m 78.312,785.88 20.736,0 0,6.576 -20.736,0 0,-6.576 z"
         id="path1102"
         style="clip-rule:evenodd" /></clipPath><clipPath
       clipPathUnits="userSpaceOnUse"
       id="clipPath1112"><path
         d="m 34.728,7.92 28.776,0 0,6.048 -28.776,0 0,-6.048 z"
         id="path1114"
         style="clip-rule:evenodd" /></clipPath><clipPath
       clipPathUnits="userSpaceOnUse"
       id="clipPath1120"><path
         d="m 34.728,8.04 28.776,0 0,5.928 -28.776,0 0,-5.928 z"
         id="path1122"
         style="clip-rule:evenodd" /></clipPath><clipPath
       clipPathUnits="userSpaceOnUse"
       id="clipPath1128"><path
         d="m 0,7.92 320.23,0 0,6.048 L 0,13.968 0,7.92 Z"
         id="path1130"
         style="clip-rule:evenodd" /></clipPath><clipPath
       clipPathUnits="userSpaceOnUse"
       id="clipPath1136"><path
         d="m 0,8.04 320.21,0 0,5.928 L 0,13.968 0,8.04 Z"
         id="path1138"
         style="clip-rule:evenodd" /></clipPath><clipPath
       clipPathUnits="userSpaceOnUse"
       id="clipPath1148"><path
         d="m 256.75,7.92 28.776,0 0,6.048 -28.776,0 0,-6.048 z"
         id="path1150"
         style="clip-rule:evenodd" /></clipPath><clipPath
       clipPathUnits="userSpaceOnUse"
       id="clipPath1156"><path
         d="m 256.75,8.04 28.776,0 0,5.928 -28.776,0 0,-5.928 z"
         id="path1158"
         style="clip-rule:evenodd" /></clipPath></defs><g
     id="g10"
     transform="matrix(1.25,0,0,-1.25,-309.04088,751.38216)"><g
       id="g648"><path
         d="M 271.61,548.81 545.9,548.5"
         style="fill:none;stroke:#3165bb;stroke-width:0.74400002;stroke-linecap:round;stroke-linejoin:round;stroke-miterlimit:10;stroke-dasharray:none;stroke-opacity:1"
         id="path698" /><path
         d="m 540.77,551.09 5.18,-2.62 -5.18,-2.59"
         style="fill:none;stroke:#3165bb;stroke-width:0.74400002;stroke-linecap:round;stroke-linejoin:round;stroke-miterlimit:10;stroke-dasharray:none;stroke-opacity:1"
         id="path700" /></g><g
       id="g702"><g
         id="g704"
         clip-path="url(#clipPath706)"><g
           id="g710"><g
             id="g712"
             clip-path="url(#clipPath714)"><text
               transform="matrix(1,0,0,-1,513.72,535.68)"
               style="font-variant:normal;font-weight:bold;font-size:5.92799997px;font-family:'Droid Sans';-inkscape-font-specification:'Droid Sans';writing-mode:lr-tb;fill:#0070c0;fill-opacity:1;fill-rule:nonzero;stroke:none"
               id="text718"><tspan
                 x="0 5.1573601 8.1095037 12.928968 16.076736 18.181175 21.014759 22.28928 25.194 28.021656 30.926376 32.384663 33.842953 36.771385 39.901367 41.359657"
                 y="0"
                 id="tspan720">Memory available</tspan></text>
</g></g></g></g><g
       id="g722"><g
         id="g724"
         clip-path="url(#clipPath726)"><g
           id="g730"><g
             id="g732"
             clip-path="url(#clipPath734)"><text
               transform="matrix(1,0,0,-1,513.72,528.46)"
               style="font-variant:normal;font-weight:bold;font-size:5.92799997px;font-family:'Droid Sans';-inkscape-font-specification:'Droid Sans';writing-mode:lr-tb;fill:#0070c0;fill-opacity:1;fill-rule:nonzero;stroke:none"
               id="text738"><tspan
                 x="0 2.93436 6.0939841 7.368504 10.273224 11.731512 13.1898 16.343496 18.833256 21.737976 23.794992 26.948689"
                 y="0"
                 id="tspan740">To allocator</tspan></text>
</g></g></g></g><g
       id="g742"><g
         id="g744"
         clip-path="url(#clipPath746)"><g
           id="g750"><g
             id="g752"
             clip-path="url(#clipPath754)"><text
               transform="matrix(1,0,0,-1,474.43,591.1)"
               style="font-variant:normal;font-weight:normal;font-size:5.92799997px;font-family:'Droid Sans';-inkscape-font-specification:'Droid Sans';writing-mode:lr-tb;fill:#000000;fill-opacity:1;fill-rule:nonzero;stroke:none"
               id="text758"><tspan
                 x="0 3.4086001 4.7542558 6.0999122 9.2358236 11.743368 14.58288 16.56876 19.520905 22.633104 23.854273 26.966473 28.294344 31.430256 33.937801 36.658752"
                 y="0"
                 id="tspan760">Allocated blocks</tspan></text>
</g></g></g></g><g
       id="g762"><g
         id="g764"
         clip-path="url(#clipPath766)"><g
           id="g770"><g
             id="g772"
             clip-path="url(#clipPath774)"><text
               transform="matrix(1,0,0,-1,282.07,590.76)"
               style="font-variant:normal;font-weight:normal;font-size:5.92799997px;font-family:'Droid Sans';-inkscape-font-specification:'Droid Sans';writing-mode:lr-tb;fill:#000000;fill-opacity:1;fill-rule:nonzero;stroke:none"
               id="text778"><tspan
                 x="0 5.080296 8.0502243 12.822264 15.981888 18.05076 20.753927 21.903959 23.972832 26.936832 29.776344 31.110144 32.455799"
                 y="0"
                 id="tspan780">Memory really</tspan></text>
</g></g></g></g><g
       id="g782"><g
         id="g784"
         clip-path="url(#clipPath786)"><g
           id="g790"><g
             id="g792"
             clip-path="url(#clipPath794)"><text
               transform="matrix(1,0,0,-1,282.07,583.54)"
               style="font-variant:normal;font-weight:normal;font-size:5.92799997px;font-family:'Droid Sans';-inkscape-font-specification:'Droid Sans';writing-mode:lr-tb;fill:#000000;fill-opacity:1;fill-rule:nonzero;stroke:none"
               id="text798"><tspan
                 x="0 3.8057759 6.1354799 9.1054077 12.217608 13.498056 16.610256 19.295641 20.635368 23.747568 25.816441 28.970137 31.762224 33.831097 36.652824"
                 y="0"
                 id="tspan800">Used by program</tspan></text>
</g></g></g></g><g
       id="g802"><g
         id="g804"
         clip-path="url(#clipPath806)"><g
           id="g810"><g
             id="g812"
             clip-path="url(#clipPath814)"><text
               transform="matrix(1,0,0,-1,424.73,590.11)"
               style="font-variant:normal;font-weight:normal;font-size:5.92799997px;font-family:'Droid Sans';-inkscape-font-specification:'Droid Sans';writing-mode:lr-tb;fill:#000000;fill-opacity:1;fill-rule:nonzero;stroke:none"
               id="text818"><tspan
                 x="0 2.720952 4.789824 7.7419682 10.694112 11.97456 14.292408 17.404608 20.24412 22.751663"
                 y="0"
                 id="tspan820">Free space</tspan></text>
</g></g></g></g><g
       id="g822"><path
         d="m 344.04,564.94 31.97,0 0,-15.17 -31.97,0 0,15.17"
         style="fill:none;stroke:#008000;stroke-width:0.76800001;stroke-linecap:round;stroke-linejoin:round;stroke-miterlimit:10;stroke-dasharray:none;stroke-opacity:1"
         id="path824" /><path
         d="m 395.66,564.96 31.97,0 0,-15.14 -31.97,0 0,15.14"
         style="fill:none;stroke:#008000;stroke-width:0.76800001;stroke-linecap:round;stroke-linejoin:round;stroke-miterlimit:10;stroke-dasharray:none;stroke-opacity:1"
         id="path826" /><path
         d="m 283.03,564.96 31.95,0 0,-15.14 -31.95,0 0,15.14"
         style="fill:none;stroke:#008000;stroke-width:0.76800001;stroke-linecap:round;stroke-linejoin:round;stroke-miterlimit:10;stroke-dasharray:none;stroke-opacity:1"
         id="path828" /><path
         d="m 455.06,564.96 59.69,0 0,-15.17 -59.69,0 0,15.17"
         style="fill:none;stroke:#008000;stroke-width:0.74400002;stroke-linecap:round;stroke-linejoin:round;stroke-miterlimit:10;stroke-dasharray:none;stroke-opacity:1"
         id="path830" /><path
         d="m 529.51,552.67 0,-9.69"
         style="fill:none;stroke:#3165bb;stroke-width:0.74400002;stroke-linecap:round;stroke-linejoin:round;stroke-miterlimit:10;stroke-dasharray:none;stroke-opacity:1"
         id="path832" /><path
         d="m 280.73,553.9 0,-9.68"
         style="fill:none;stroke:#3165bb;stroke-width:0.76800001;stroke-linecap:round;stroke-linejoin:round;stroke-miterlimit:10;stroke-dasharray:none;stroke-opacity:1"
         id="path834" /><path
         d="m 284.21,563.69 21.93,0 0,-12.6 -21.93,0 0,12.6"
         style="fill:none;stroke:#ed1c24;stroke-width:0.76800001;stroke-linecap:round;stroke-linejoin:round;stroke-miterlimit:10;stroke-dasharray:none;stroke-opacity:1"
         id="path836" /><path
         d="m 345.24,563.62 29.69,0 0,-12.6 -29.69,0 0,12.6"
         style="fill:none;stroke:#ed1c24;stroke-width:0.76800001;stroke-linecap:round;stroke-linejoin:round;stroke-miterlimit:10;stroke-dasharray:none;stroke-opacity:1"
         id="path838" /><path
         d="m 397.03,563.62 29.67,0 0,-12.6 -29.67,0 0,12.6"
         style="fill:none;stroke:#ed1c24;stroke-width:0.76800001;stroke-linecap:round;stroke-linejoin:round;stroke-miterlimit:10;stroke-dasharray:none;stroke-opacity:1"
         id="path840" /><path
         d="m 456.41,563.62 47.42,0 0,-12.6 -47.42,0 0,12.6"
         style="fill:none;stroke:#ed1c24;stroke-width:0.74400002;stroke-linecap:round;stroke-linejoin:round;stroke-miterlimit:10;stroke-dasharray:none;stroke-opacity:1"
         id="path842" /></g><g
       id="g844"><g
         id="g846"
         clip-path="url(#clipPath848)"><g
           id="g852"><g
             id="g854"
             clip-path="url(#clipPath856)"><text
               transform="matrix(1,0,0,-1,338.88,596.57)"
               style="font-variant:normal;font-weight:bold;font-size:5.92799997px;font-family:'Droid Sans';-inkscape-font-specification:'Droid Sans';writing-mode:lr-tb;fill:#ff0000;fill-opacity:1;fill-rule:nonzero;stroke:none"
               id="text860"><tspan
                 x="0 1.6005599 4.783896 6.8409119 9.7871284 11.91528 15.098616 17.985552 19.467552 20.765783 22.639032 24.767183 27.671904 30.499559 35.319023 38.277096 41.46043 43.517448 46.410313 48.467327 49.955257 53.120808 56.304146"
                 y="0"
                 id="tspan862">Internal fragmentation </tspan></text>
</g></g><g
           id="g864"><g
             id="g866"
             clip-path="url(#clipPath868)"><text
               transform="matrix(1,0,0,-1,396.46,596.57)"
               style="font-variant:normal;font-weight:normal;font-size:5.92799997px;font-family:'Droid Sans';-inkscape-font-specification:'Droid Sans';writing-mode:lr-tb;fill:#000000;fill-opacity:1;fill-rule:nonzero;stroke:none"
               id="text872"><tspan
                 x="0"
                 y="0"
                 id="tspan874">:</tspan></text>
</g></g></g></g><g
       id="g876"><g
         id="g878"
         clip-path="url(#clipPath880)"><g
           id="g884"><g
             id="g886"
             clip-path="url(#clipPath888)"><text
               transform="matrix(1,0,0,-1,353.4,582.14)"
               style="font-variant:normal;font-weight:normal;font-size:5.92799997px;font-family:'Droid Sans';-inkscape-font-specification:'Droid Sans';writing-mode:lr-tb;fill:#000000;fill-opacity:1;fill-rule:nonzero;stroke:none"
               id="text892"><tspan
                 x="0 3.4086001 5.4774718 8.5659599 9.9116163 11.897496 13.966368 16.80588 18.874752 21.560137 22.870224 25.188072 26.551512 28.86936"
                 y="0"
                 id="tspan894">Arbitrary size</tspan></text>
</g></g></g></g><g
       id="g896"><g
         id="g898"
         clip-path="url(#clipPath900)"><g
           id="g904"><g
             id="g906"
             clip-path="url(#clipPath908)"><text
               transform="matrix(1,0,0,-1,338.88,589.37)"
               style="font-variant:normal;font-weight:normal;font-size:5.92799997px;font-family:'Droid Sans';-inkscape-font-specification:'Droid Sans';writing-mode:lr-tb;fill:#000000;fill-opacity:1;fill-rule:nonzero;stroke:none"
               id="text912"><tspan
                 x="0 2.507544 5.3470559 8.4592562 11.541816 14.70144 16.687321 17.99148 20.830992 22.164791 23.510448 26.670073 29.177616 32.017128 34.00301 36.955151 38.188175 41.300377 42.628246 45.787872 48.295418 51.016369 53.334217 54.567242 57.726864"
                 y="0"
                 id="tspan914">cannot allocate blocks of</tspan></text>
</g></g></g></g><g
       id="g916"><path
         d="M 343.34,587.45 311.71,564.89"
         style="fill:none;stroke:#ed1c24;stroke-width:0.76800001;stroke-linecap:round;stroke-linejoin:round;stroke-miterlimit:10;stroke-dasharray:none;stroke-opacity:1"
         id="path918" /><path
         d="m 317.47,565.78 -5.76,-0.89 2.71,5.13"
         style="fill:none;stroke:#ed1c24;stroke-width:0.76800001;stroke-linecap:round;stroke-linejoin:round;stroke-miterlimit:10;stroke-dasharray:none;stroke-opacity:1"
         id="path920" /><path
         d="m 316.22,564.89 26.48,0 0,-14.86 -26.48,0 0,14.86"
         style="fill:none;stroke:#33cccc;stroke-width:0.76800001;stroke-linecap:round;stroke-linejoin:round;stroke-miterlimit:10;stroke-dasharray:none;stroke-opacity:1"
         id="path922" /><path
         d="m 428.93,564.82 24.53,0 0,-14.86 -24.53,0 0,14.86"
         style="fill:none;stroke:#33cccc;stroke-width:0.76800001;stroke-linecap:round;stroke-linejoin:round;stroke-miterlimit:10;stroke-dasharray:none;stroke-opacity:1"
         id="path924" /><path
         d="m 377.62,564.82 16.46,0 0,-14.86 -16.46,0 0,14.86"
         style="fill:none;stroke:#33cccc;stroke-width:0.76800001;stroke-linecap:round;stroke-linejoin:round;stroke-miterlimit:10;stroke-dasharray:none;stroke-opacity:1"
         id="path926" /><path
         d="m 444.7,588.77 -9.05,-23.95"
         style="fill:none;stroke:#33cccc;stroke-width:0.76800001;stroke-linecap:round;stroke-linejoin:round;stroke-miterlimit:10;stroke-dasharray:none;stroke-opacity:1"
         id="path928" /><path
         d="m 439.92,568.75 -4.27,-3.93 -0.6,5.78"
         style="fill:none;stroke:#33cccc;stroke-width:0.76800001;stroke-linecap:round;stroke-linejoin:round;stroke-miterlimit:10;stroke-dasharray:none;stroke-opacity:1"
         id="path930" /><path
         d="M 487.92,590.69 475.66,565.54"
         style="fill:none;stroke:#008000;stroke-width:0.76800001;stroke-linecap:round;stroke-linejoin:round;stroke-miterlimit:10;stroke-dasharray:none;stroke-opacity:1"
         id="path932" /><path
         d="m 480.26,569.06 -4.6,-3.52 -0.08,5.78"
         style="fill:none;stroke:#008000;stroke-width:0.76800001;stroke-linecap:round;stroke-linejoin:round;stroke-miterlimit:10;stroke-dasharray:none;stroke-opacity:1"
         id="path934" /><path
         d="M 305.57,582.94 294.94,563.59"
         style="fill:none;stroke:#ed1c24;stroke-width:0.76800001;stroke-linecap:round;stroke-linejoin:round;stroke-miterlimit:10;stroke-dasharray:none;stroke-opacity:1"
         id="path936" /><path
         d="m 299.71,566.88 -4.77,-3.29 0.21,5.81"
         style="fill:none;stroke:#ed1c24;stroke-width:0.76800001;stroke-linecap:round;stroke-linejoin:round;stroke-miterlimit:10;stroke-dasharray:none;stroke-opacity:1"
         id="path938" /></g><g
       id="g940"><g
         id="g942"
         clip-path="url(#clipPath944)"><g
           id="g948"><g
             id="g950"
             clip-path="url(#clipPath952)"><text
               transform="matrix(1,0,0,-1,364.7,522.02)"
               style="font-variant:normal;font-weight:bold;font-size:5.92799997px;font-family:'Droid Sans';-inkscape-font-specification:'Droid Sans';writing-mode:lr-tb;fill:#e36c09;fill-opacity:1;fill-rule:nonzero;stroke:none"
               id="text956"><tspan
                 x="0 2.892864 5.6138158 7.6708322 10.634832 12.739272 15.892968 18.797688 20.255976 21.536425 23.409672 25.514112 28.424761 31.252417 36.07188 39.029953 42.171791 44.228809 47.157242 49.214256 50.672543 53.814384"
                 y="0"
                 id="tspan958">External fragmentation</tspan></text>
</g></g><g
           id="g960"><g
             id="g962"
             clip-path="url(#clipPath964)"><text
               transform="matrix(1,0,0,-1,423.17,522.02)"
               style="font-variant:normal;font-weight:normal;font-size:5.92799997px;font-family:'Droid Sans';-inkscape-font-specification:'Droid Sans';writing-mode:lr-tb;fill:#000000;fill-opacity:1;fill-rule:nonzero;stroke:none"
               id="text968"><tspan
                 x="0"
                 y="0"
                 id="tspan970">:</tspan></text>
</g></g></g></g><g
       id="g972"><g
         id="g974"
         clip-path="url(#clipPath976)"><g
           id="g980"><g
             id="g982"
             clip-path="url(#clipPath984)"><text
               transform="matrix(1,0,0,-1,364.7,514.82)"
               style="font-variant:normal;font-weight:normal;font-size:5.92799997px;font-family:'Droid Sans';-inkscape-font-specification:'Droid Sans';writing-mode:lr-tb;fill:#000000;fill-opacity:1;fill-rule:nonzero;stroke:none"
               id="text988"><tspan
                 x="0 2.892864 6.005064 9.1291199 12.24132 14.99784 18.110041 19.366776 21.174816 23.243689 26.195831 29.147976 30.404713 35.17675 38.128895 42.900936 46.036846 48.105721 50.808887 51.95892 55.18375 58.965816"
                 y="0"
                 id="tspan990">Enough free memory BUT</tspan></text>
</g></g></g></g><g
       id="g992"><g
         id="g994"
         clip-path="url(#clipPath996)"><g
           id="g1000"><g
             id="g1002"
             clip-path="url(#clipPath1004)"><text
               transform="matrix(1,0,0,-1,364.7,507.6)"
               style="font-variant:normal;font-weight:normal;font-size:5.92799997px;font-family:'Droid Sans';-inkscape-font-specification:'Droid Sans';writing-mode:lr-tb;fill:#000000;fill-opacity:1;fill-rule:nonzero;stroke:none"
               id="text1008"><tspan
                 x="0 3.79392 6.929832 8.9157124 10.19616 13.148304 16.260504 19.38456 22.496759 25.241425 28.353624 29.610359 32.117905 35.241959 38.35416 40.340038 41.679768 44.442215 47.554417 50.678471 53.790672 56.084808 57.359329 59.677177 62.759735 65.599251 68.089005"
                 y="0"
                 id="tspan1010">Not enough contiguous space</tspan></text>
</g></g></g></g><g
       id="g1012"><g
         id="g1014"
         clip-path="url(#clipPath1016)"><g
           id="g1020"><g
             id="g1022"
             clip-path="url(#clipPath1024)"><text
               transform="matrix(1,0,0,-1,294.98,520.1)"
               style="font-variant:normal;font-weight:normal;font-size:5.92799997px;font-family:'Droid Sans';-inkscape-font-specification:'Droid Sans';writing-mode:lr-tb;fill:#000000;fill-opacity:1;fill-rule:nonzero;stroke:none"
               id="text1028"><tspan
                 x="0 3.829488 6.7816319 11.032008 12.33024 15.555072 16.888872 20.048496 22.55604 25.276993 26.498159 28.484039 31.649591 32.947823 35.787334 37.121136 38.466793 41.626415 44.133961 46.973473 48.959351"
                 y="0"
                 id="tspan1030">New Block to allocate</tspan></text>
</g></g></g></g><g
       id="g1032"><path
         d="m 290.88,530.04 59.71,0 0,-15.14 -59.71,0 0,15.14"
         style="fill:none;stroke:#008000;stroke-width:0.76800001;stroke-linecap:round;stroke-linejoin:round;stroke-miterlimit:10;stroke-dasharray:none;stroke-opacity:1"
         id="path1034" /><path
         d="M 386.26,527.11 335.9,550.03"
         style="fill:none;stroke:#ff6600;stroke-width:0.76800001;stroke-linecap:round;stroke-linejoin:round;stroke-miterlimit:10;stroke-dasharray:none;stroke-opacity:1"
         id="path1036" /><path
         d="m 339.6,545.52 -3.67,4.51 5.81,0.22"
         style="fill:none;stroke:#ff6600;stroke-width:0.76800001;stroke-linecap:round;stroke-linejoin:round;stroke-miterlimit:10;stroke-dasharray:none;stroke-opacity:1"
         id="path1038" /><path
         d="m 386.26,527.11 -1.95,21.63"
         style="fill:none;stroke:#ff6600;stroke-width:0.76800001;stroke-linecap:round;stroke-linejoin:round;stroke-miterlimit:10;stroke-dasharray:none;stroke-opacity:1"
         id="path1040" /><path
         d="m 382.2,543.34 2.11,5.42 3.07,-4.97"
         style="fill:none;stroke:#ff6600;stroke-width:0.76800001;stroke-linecap:round;stroke-linejoin:round;stroke-miterlimit:10;stroke-dasharray:none;stroke-opacity:1"
         id="path1042" /><path
         d="m 386.26,527.45 54.93,22.51"
         style="fill:none;stroke:#ff6600;stroke-width:0.76800001;stroke-linecap:round;stroke-linejoin:round;stroke-miterlimit:10;stroke-dasharray:none;stroke-opacity:1"
         id="path1044" /><path
         d="m 435.41,550.42 5.78,-0.46 -3.81,-4.37"
         style="fill:none;stroke:#ff6600;stroke-width:0.76800001;stroke-linecap:round;stroke-linejoin:round;stroke-miterlimit:10;stroke-dasharray:none;stroke-opacity:1"
         id="path1046" /></g><g
       id="g1108"><g
         id="g1110"
         clip-path="url(#clipPath1112)"><g
           id="g1116"><g
             id="g1118"
             clip-path="url(#clipPath1120)" /></g></g></g><g
       id="g1144"><g
         id="g1146"
         clip-path="url(#clipPath1148)"><g
           id="g1152"><g
             id="g1154"
             clip-path="url(#clipPath1156)" /></g></g></g></g></svg>
