<svg height="200" viewBox="0 0 418.76 118.66" width="1200" xml:space="preserve" xmlns="http://www.w3.org/2000/svg" xmlns:xlink="http://www.w3.org/1999/xlink">
<clipPath id="a">
<path d="m509.71 534.05h68.16v7.3h-68.16z" style="clip-rule:evenodd"/>
</clipPath>
<clipPath id="b">
<path d="m509.71 534.12h68.16v7.22h-68.16z" style="clip-rule:evenodd"/>
</clipPath>
<clipPath id="c">
<path d="m509.71 526.82h52.92v7.3h-52.92z" style="clip-rule:evenodd"/>
</clipPath>
<clipPath id="d">
<path d="m509.71 526.9h52.92v7.22h-52.92z" style="clip-rule:evenodd"/>
</clipPath>
<clipPath id="e">
<path d="m470.42 589.49h62.81v7.27h-62.81z" style="clip-rule:evenodd"/>
</clipPath>
<clipPath id="f">
<path d="m470.42 589.54h62.81v7.22h-62.81z" style="clip-rule:evenodd"/>
</clipPath>
<clipPath id="g">
<path d="m278.06 589.15h58.87v7.3h-58.87z" style="clip-rule:evenodd"/>
</clipPath>
<clipPath id="h">
<path d="m278.06 589.22h58.87v7.22h-58.87z" style="clip-rule:evenodd"/>
</clipPath>
<clipPath id="i">
<path d="m278.06 581.93h65.06v7.3h-65.06z" style="clip-rule:evenodd"/>
</clipPath>
<clipPath id="j">
<path d="m278.06 582h65.06v7.22h-65.06z" style="clip-rule:evenodd"/>
</clipPath>
<clipPath id="k">
<path d="m420.72 588.5h49.44v7.3h-49.44z" style="clip-rule:evenodd"/>
</clipPath>
<clipPath id="l">
<path d="m420.72 588.58h49.44v7.22h-49.44z" style="clip-rule:evenodd"/>
</clipPath>
<clipPath id="m">
<path d="m334.87 594.96h82.94v7.3h-82.94z" style="clip-rule:evenodd"/>
</clipPath>
<clipPath id="n">
<path d="m334.87 595.03h82.94v7.22h-82.94z" style="clip-rule:evenodd"/>
</clipPath>
<clipPath id="o">
<path d="m334.87 595.03h82.94v7.22h-82.94z" style="clip-rule:evenodd"/>
</clipPath>
<clipPath id="p">
<path d="m349.39 580.51h55.58v7.3h-55.58z" style="clip-rule:evenodd"/>
</clipPath>
<clipPath id="q">
<path d="m349.39 580.58h55.58v7.22h-55.58z" style="clip-rule:evenodd"/>
</clipPath>
<clipPath id="r">
<path d="m334.87 587.74h83.33v7.3h-83.33z" style="clip-rule:evenodd"/>
</clipPath>
<clipPath id="s">
<path d="m334.87 587.81h83.33v7.22h-83.33z" style="clip-rule:evenodd"/>
</clipPath>
<clipPath id="t">
<path d="m360.7 520.42h83.78v7.3h-83.78z" style="clip-rule:evenodd"/>
</clipPath>
<clipPath id="u">
<path d="m360.7 520.49h83.78v7.22h-83.78z" style="clip-rule:evenodd"/>
</clipPath>
<clipPath id="v">
<path d="m360.7 520.49h83.78v7.22h-83.78z" style="clip-rule:evenodd"/>
</clipPath>
<clipPath id="w">
<path d="m360.7 513.19h85.78v7.3h-85.78z" style="clip-rule:evenodd"/>
</clipPath>
<clipPath id="x">
<path d="m360.7 513.26h85.78v7.22h-85.78z" style="clip-rule:evenodd"/>
</clipPath>
<clipPath id="y">
<path d="m360.7 505.97h95.02v7.3h-95.02z" style="clip-rule:evenodd"/>
</clipPath>
<clipPath id="z">
<path d="m360.7 506.04h95.02v7.22h-95.02z" style="clip-rule:evenodd"/>
</clipPath>
<clipPath id="A">
<path d="m290.98 518.5h75.65v7.27h-75.65z" style="clip-rule:evenodd"/>
</clipPath>
<clipPath id="B">
<path d="m290.98 518.54h75.65v7.22h-75.65z" style="clip-rule:evenodd"/>
</clipPath>
<g transform="matrix(1.25 0 0 -1.25 -309.04 751.38)">
<path d="m271.61 548.81 274.29-.31" style="fill:none;stroke:#3165bb;stroke-width:.74;stroke-linecap:round;stroke-linejoin:round;stroke-miterlimit:10"/>
<path d="m540.77 551.09 5.18-2.62-5.18-2.59" style="fill:none;stroke:#3165bb;stroke-width:.74;stroke-linecap:round;stroke-linejoin:round;stroke-miterlimit:10"/>
<g style="clip-path:url(#a)">
<g style="clip-path:url(#b)">
<text style="font-weight:bold;font-size:5.93;font-family:Droid Sans;fill:#0070c0" transform="matrix(1 0 0 -1 513.72 535.68)">
<tspan x="0 5.16 8.11 12.93 16.08 18.18 21.01 22.29 25.19 28.02 30.93 32.38 33.84 36.77 39.9 41.36" y="0">Memory available</tspan>
</text>
</g>
</g>
<g style="clip-path:url(#c)">
<g style="clip-path:url(#d)">
<text style="font-weight:bold;font-size:5.93;font-family:Droid Sans;fill:#0070c0" transform="matrix(1 0 0 -1 513.72 528.46)">
<tspan x="0 2.93 6.09 7.37 10.27 11.73 13.19 16.34 18.83 21.74 23.79 26.95" y="0">To allocator</tspan>
</text>
</g>
</g>
<g style="clip-path:url(#e)">
<g style="clip-path:url(#f)">
<text style="font-size:5.93;font-family:Droid Sans" transform="matrix(1 0 0 -1 474.43 591.1)">
<tspan x="0 3.41 4.75 6.1 9.24 11.74 14.58 16.57 19.52 22.63 23.85 26.97 28.29 31.43 33.94 36.66" y="0">Allocated blocks</tspan>
</text>
</g>
</g>
<g style="clip-path:url(#g)">
<g style="clip-path:url(#h)">
<text style="font-size:5.93;font-family:Droid Sans" transform="matrix(1 0 0 -1 282.07 590.76)">
<tspan x="0 5.08 8.05 12.82 15.98 18.05 20.75 21.9 23.97 26.94 29.78 31.11 32.46" y="0">Memory really</tspan>
</text>
</g>
</g>
<g style="clip-path:url(#i)">
<g style="clip-path:url(#j)">
<text style="font-size:5.93;font-family:Droid Sans" transform="matrix(1 0 0 -1 282.07 583.54)">
<tspan x="0 3.81 6.14 9.11 12.22 13.5 16.61 19.3 20.64 23.75 25.82 28.97 31.76 33.83 36.65" y="0">Used by program</tspan>
</text>
</g>
</g>
<g style="clip-path:url(#k)">
<g style="clip-path:url(#l)">
<text style="font-size:5.93;font-family:Droid Sans" transform="matrix(1 0 0 -1 424.73 590.11)">
<tspan x="0 2.72 4.79 7.74 10.69 11.97 14.29 17.4 20.24 22.75" y="0">Free space</tspan>
</text>
</g>
</g>
<g style="fill:none;stroke-linecap:round;stroke-linejoin:round;stroke-miterlimit:10">
<g style="stroke:#008000">
<g style="stroke-width:.77">
<path d="m344.04 564.94h31.97v-15.17h-31.97z"/>
<path d="m395.66 564.96h31.97v-15.14h-31.97z"/>
<path d="m283.03 564.96h31.95v-15.14h-31.95z"/>
</g>
<path d="m455.06 564.96h59.69v-15.17h-59.69z" style="stroke-width:.74"/>
</g>
<path d="m529.51 552.67v-9.69" style="stroke:#3165bb;stroke-width:.74"/>
<g style="stroke-width:.77">
<path d="m280.73 553.9v-9.68" style="stroke:#3165bb"/>
<g style="stroke:#ed1c24">
<path d="m284.21 563.69h21.93v-12.6h-21.93z"/>
<path d="m345.24 563.62h29.69v-12.6h-29.69z"/>
<path d="m397.03 563.62h29.67v-12.6h-29.67z"/>
</g>
</g>
<path d="m456.41 563.62h47.42v-12.6h-47.42z" style="stroke:#ed1c24;stroke-width:.74"/>
</g>
<g style="clip-path:url(#m)">
<g style="clip-path:url(#n)">
<text style="font-weight:bold;font-size:5.93;font-family:Droid Sans;fill:#f00" transform="matrix(1 0 0 -1 338.88 596.57)">
<tspan x="0 1.6 4.78 6.84 9.79 11.92 15.1 17.99 19.47 20.77 22.64 24.77 27.67 30.5 35.32 38.28 41.46 43.52 46.41 48.47 49.96 53.12 56.3" y="0">Internal fragmentation </tspan>
</text>
</g>
<g style="clip-path:url(#o)">
<text style="font-size:5.93;font-family:Droid Sans" transform="matrix(1 0 0 -1 396.46 596.57)">
<tspan x="0" y="0">:</tspan>
</text>
</g>
</g>
<g style="clip-path:url(#p)">
<g style="clip-path:url(#q)">
<text style="font-size:5.93;font-family:Droid Sans" transform="matrix(1 0 0 -1 353.4 582.14)">
<tspan x="0 3.41 5.48 8.57 9.91 11.9 13.97 16.81 18.87 21.56 22.87 25.19 26.55 28.87" y="0">Arbitrary size</tspan>
</text>
</g>
</g>
<g style="clip-path:url(#r)">
<g style="clip-path:url(#s)">
<text style="font-size:5.93;font-family:Droid Sans" transform="matrix(1 0 0 -1 338.88 589.37)">
<tspan x="0 2.51 5.35 8.46 11.54 14.7 16.69 17.99 20.83 22.16 23.51 26.67 29.18 32.02 34 36.96 38.19 41.3 42.63 45.79 48.3 51.02 53.33 54.57 57.73" y="0">cannot allocate blocks of</tspan>
</text>
</g>
</g>
<g style="fill:none;stroke-linecap:round;stroke-linejoin:round;stroke-miterlimit:10;stroke-width:.77">
<path d="m343.34 587.45-31.63-22.56" style="stroke:#ed1c24"/>
<path d="m317.47 565.78-5.76-.89 2.71 5.13" style="stroke:#ed1c24"/>
<g style="stroke:#3cc">
<path d="m316.22 564.89h26.48v-14.86h-26.48z"/>
<path d="m428.93 564.82h24.53v-14.86h-24.53z"/>
<path d="m377.62 564.82h16.46v-14.86h-16.46z"/>
<path d="m444.7 588.77-9.05-23.95"/>
<path d="m439.92 568.75-4.27-3.93-.6 5.78"/>
</g>
<path d="m487.92 590.69-12.26-25.15" style="stroke:#008000"/>
<path d="m480.26 569.06-4.6-3.52-.08 5.78" style="stroke:#008000"/>
<g style="stroke:#ed1c24">
<path d="m305.57 582.94-10.63-19.35"/>
<path d="m299.71 566.88-4.77-3.29.21 5.81"/>
</g>
</g>
<g style="clip-path:url(#t)">
<g style="clip-path:url(#u)">
<text style="font-weight:bold;font-size:5.93;font-family:Droid Sans;fill:#e36c09" transform="matrix(1 0 0 -1 364.7 522.02)">
<tspan x="0 2.89 5.61 7.67 10.63 12.74 15.89 18.8 20.26 21.54 23.41 25.51 28.42 31.25 36.07 39.03 42.17 44.23 47.16 49.21 50.67 53.81" y="0">External fragmentation</tspan>
</text>
</g>
<g style="clip-path:url(#v)">
<text style="font-size:5.93;font-family:Droid Sans" transform="matrix(1 0 0 -1 423.17 522.02)">
<tspan x="0" y="0">:</tspan>
</text>
</g>
</g>
<g style="clip-path:url(#w)">
<g style="clip-path:url(#x)">
<text style="font-size:5.93;font-family:Droid Sans" transform="matrix(1 0 0 -1 364.7 514.82)">
<tspan x="0 2.89 6.01 9.13 12.24 15 18.11 19.37 21.17 23.24 26.2 29.15 30.4 35.18 38.13 42.9 46.04 48.11 50.81 51.96 55.18 58.97" y="0">Enough free memory BUT</tspan>
</text>
</g>
</g>
<g style="clip-path:url(#y)">
<g style="clip-path:url(#z)">
<text style="font-size:5.93;font-family:Droid Sans" transform="matrix(1 0 0 -1 364.7 507.6)">
<tspan x="0 3.79 6.93 8.92 10.2 13.15 16.26 19.38 22.5 25.24 28.35 29.61 32.12 35.24 38.35 40.34 41.68 44.44 47.55 50.68 53.79 56.08 57.36 59.68 62.76 65.6 68.09" y="0">Not enough contiguous space</tspan>
</text>
</g>
</g>
<g style="clip-path:url(#A)">
<g style="clip-path:url(#B)">
<text style="font-size:5.93;font-family:Droid Sans" transform="matrix(1 0 0 -1 294.98 520.1)">
<tspan x="0 3.83 6.78 11.03 12.33 15.56 16.89 20.05 22.56 25.28 26.5 28.48 31.65 32.95 35.79 37.12 38.47 41.63 44.13 46.97 48.96" y="0">New Block to allocate</tspan>
</text>
</g>
</g>
<g style="fill:none;stroke-linecap:round;stroke-linejoin:round;stroke-miterlimit:10;stroke-width:.77">
<path d="m290.88 530.04h59.71v-15.14h-59.71z" style="stroke:#008000"/>
<g style="stroke:#f60">
<path d="m386.26 527.11-50.36 22.92"/>
<path d="m339.6 545.52-3.67 4.51 5.81.22"/>
<path d="m386.26 527.11-1.95 21.63"/>
<path d="m382.2 543.34 2.11 5.42 3.07-4.97"/>
<path d="m386.26 527.45 54.93 22.51"/>
<path d="m435.41 550.42 5.78-.46-3.81-4.37"/>
</g>
</g>
</g>
</svg>