<svg height="75.84mm" viewBox="0 0 774.49 268.71" width="218.58mm" xmlns="http://www.w3.org/2000/svg"><text x=".72" y="177.27"/><g style="fill:none;stroke:#f00"><circle cx="93.77" cy="54.04" r="12.8"/><path d="m93.54 66.47v47.56h-1.38"/><path d="m93.54 73.06 42.46 11.38-5.39 20.12.98.26"/><path d="m93.38 72.83-42.46 11.38 5.39 20.12-.98.26"/><path d="m72.99 144.09-5.48 20.45 11.29 19.56.48-.28"/><path d="m112.22 143.14 5.48 20.45-11.29 19.56-.48-.28"/></g><g style="stroke:#000" transform="translate(-189.57 337.69)"><path d="m268.81-211.84s-7.59 1.95-7.59 5.64v9.33c0 3.69 6.94 6.94 6.94 6.94h27.55s8.14-4.88 8.14-8.14v-9.22c0-2.82-8.14-4.99-8.14-4.99" style="fill:#729fcf;fill-rule:evenodd"/><path d="m275.52-180.68v70.1s1.99 2.36 6.44 2.36c5.06 0 7.06-2.36 7.06-2.36v-70.1s-1.84-2.86-6.6-2.86c-5.22.11-6.9 2.86-6.9 2.86z" style="fill:#505050;fill-rule:evenodd"/><g style="fill:#babdb6"><path d="m268.93-201.95h2.76v59.22h-2.76z"/><path d="m267.65-206.29h5.31v4.29h-5.31z"/><path d="m268.9-216.28h2.76v9.97h-2.76z"/><path d="m267.63-220.6h5.31v4.29h-5.31z"/><path d="m269.31-220.74v-4.01l-4.23-4.77-29.61-2.49v-1.74l30.16 2.39 5.64 6.07.11 4.56" style="fill-rule:evenodd"/></g><g style="fill:#babdb6" transform="matrix(-1 0 0 1 564.62 .07)"><path d="m269.08-201.95h2.76v59.22h-2.76z"/><path d="m267.8-206.29h5.31v4.29h-5.31z"/><path d="m269.05-216.28h2.76v9.97h-2.76z"/><path d="m267.78-220.6h5.31v4.29h-5.31z"/><path d="m269.46-220.74v-4.01l-4.23-4.77-29.61-2.49v-1.74l30.16 2.39 5.64 6.07.11 4.56" style="fill-rule:evenodd"/></g><ellipse cx="282.15" cy="-212.28" rx="12.04" ry="11.5" style="fill:#e9b96e"/><g style="fill:none"><path d="m271.77-146.76h3.69v.87h-3.69z"/><path d="m288.98-146.82h3.69v.87h-3.69z"/><path d="m273.36-182.86s.86-3.63 9.15-3.63c7.98 0 8.64 3.34 8.64 3.34"/></g></g><path d="m0 0c-1.93 0-3.5 1.57-3.5 3.5s1.57 3.5 3.5 3.5 3.5-1.57 3.5-3.5-1.57-3.5-3.5-3.5m0 9c-3.04 0-5.5-2.46-5.5-5.5s2.46-5.5 5.5-5.5 5.5 2.46 5.5 5.5-2.46 5.5-5.5 5.5" style="fill:#99aab5" transform="matrix(6.27 0 0 -5.39 223.74 216.86)"/><path d="m0 0c-1.93 0-3.5 1.57-3.5 3.5s1.57 3.5 3.5 3.5 3.5-1.57 3.5-3.5-1.57-3.5-3.5-3.5m0 9c-3.04 0-5.5-2.46-5.5-5.5s2.46-5.5 5.5-5.5 5.5 2.46 5.5 5.5-2.46 5.5-5.5 5.5" style="fill:#99aab5" transform="matrix(6.27 0 0 -5.39 367.95 216.86)"/><path d="m0 0c-2.49 0-4.5 2.02-4.5 4.5 0 2.49 2.01 4.5 4.5 4.5s4.5-2.01 4.5-4.5c0-2.48-2.01-4.5-4.5-4.5m0 11c-3.59 0-6.5-2.91-6.5-6.5s2.91-6.5 6.5-6.5 6.5 2.91 6.5 6.5-2.91 6.5-6.5 6.5" style="fill:#292f33" transform="matrix(6.27 0 0 -5.39 223.74 221.76)"/><path d="m0 0c-2.49 0-4.5 2.02-4.5 4.5 0 2.49 2.01 4.5 4.5 4.5s4.5-2.01 4.5-4.5c0-2.48-2.01-4.5-4.5-4.5m0 11c-3.59 0-6.5-2.91-6.5-6.5s2.91-6.5 6.5-6.5 6.5 2.91 6.5 6.5-2.91 6.5-6.5 6.5" style="fill:#292f33" transform="matrix(6.27 0 0 -5.39 367.95 221.76)"/><path d="m0 0c-2-4 1-2.59 2-.59.91 1.81 3.44 2.43 4.66.38-.95 3.05-3.8 5.26-7.16 5.26-1.37 0-2.66-.38-3.76-1.02 2.83-.16 5.36-1.83 4.26-4.03" style="fill:#77b255" transform="matrix(6.27 0 0 -5.39 226.87 184.79)"/><path d="m0 0c0-.55-.45-1-1-1h-9c-.55 0-1 .45-1 1s.45 1 1 1h9c.55 0 1-.45 1-1" style="fill:#99aab5" transform="matrix(6.27 0 0 -5.39 371.08 195.3)"/><path d="m0 0c-.43-.34-1.06-.27-1.41.16l-5.6 7.05c-.34.43-.27 1.06.16 1.41.43.34 1.06.27 1.41-.16l5.6-7.05c.34-.44.27-1.07-.16-1.41" style="fill:#99aab5" transform="matrix(6.27 0 0 -5.39 370.58 202.36)"/><path d="m0 0c.47-.3.6-.92.3-1.38l-4.85-7.58c-.3-.47-.92-.6-1.38-.3-.47.3-.6.92-.3 1.38l4.85 7.58c.3.46.91.6 1.38.3" style="fill:#ccd6dd" transform="matrix(6.27 0 0 -5.39 261.1 148.78)"/><path d="m0 0c-.81-.59-4.53-1.63-1.53-3.63s5.09-4.13 5.09-6c0-2.67-.66-4 .91-4h7s-1 4 2 7 5 2 8 3c1.9.63 4 2 4 3s0 2-2 1-1-1.55-3-.55-3.16-.45-4.16-.45-7.62-1.68-8.62.05c-.55.95-1.78 1.95-3.6 1.95-1.32 0-3.12-.67-4.09-1.37" style="fill:#77b255" transform="matrix(6.27 0 0 -5.39 249 132.61)"/><path d="m0 0c0-1.1-.9-2-2-2s-2 .9-2 2c0 1.11.9 2 2 2 1.11 0 2-.9 2-2" style="fill:#66757f" transform="matrix(6.27 0 0 -5.39 314.65 195.3)"/><path d="m0 0-9.28-3.73s-1.01 1.35-1.12 2.78c2.23 1.15 8.09 3.41 9.28 3.73 1.26-.73 1.12-2.78 1.12-2.78z" style="fill:#ccd6dd" transform="matrix(7.59 0 0 -4.47 422.95 184.98)"/><path d="m.38.14-9.82-3.93-.39.96 9.82 3.93z" style="fill:#fff" transform="matrix(7.59 0 0 -4.47 420.14 180.82)"/><path d="m0 0s-8.05-3.73-9.28-3.73c-.28.28-.55.85-.55.85l9.62 3.89c.27.46.21-1.01.21-1.01z" style="fill:#66757f" transform="matrix(7.59 0 0 -4.47 422.95 184.98)"/><path d="m0 0c1.37-.39 5.65.01 6.8.1 1.16.09 1.59-.45 0-1.25-1.8-.9-5.61-3.16-6.8-3.63-1-.39-4.5 1.21-4.92 1.7-.41.48 3.75 3.41 4.92 3.08" style="fill:#292f33" transform="matrix(6.27 0 0 -5.39 302.11 136.76)"/><path d="m0 0c-1.55-.04-3 0-4 0s-1.16-1.1 1.55-1.1 2.45 1.1 2.45 1.1" style="fill:#292f33" transform="matrix(6.27 0 0 -5.39 396.16 130.62)"/><path d="m0 0c0 1.47 4.46 5.13 3.98 4.48-1.15-1.58-.49-3.48 1.48-3.48 1.98 0 2.71-6.52-.2-5.04-2.9 1.47-5.26 3.32-5.26 4.04" style="fill:#77b255" transform="matrix(6.27 0 0 -5.39 206.43 130.4)"/><path d="m0 0c.7-.61.35-1.69-1.05-3.49-1.39-1.79-3.58-2.52-2.35-.54 1.22 1.98 3.4 4.03 3.4 4.03" style="fill:#ccd6dd" transform="matrix(6.27 0 0 -5.39 236.96 95.96)"/><path d="m0 0c-.19-.48-.73-.71-1.21-.52l-.13.05c-.48.19-.71.73-.52 1.21l.8 1.99c.19.48.73.71 1.21.52l.13-.05c.48-.19.71-.73.52-1.21z" style="fill:#66757f" transform="matrix(6.27 0 0 -5.39 249 132.61)"/><path d="m0 0c.09-.26-.04-.55-.3-.64l-1.88-.68c-.26-.09-.55.04-.64.3s.04.55.3.64l1.88.68c.26.09.55-.04.64-.3" style="fill:#292f33" transform="matrix(6.27 0 0 -5.39 263.93 114.4)"/></svg>