<svg height="367.83" viewBox="0 0 772.99 367.83" width="772.99" xml:space="preserve" xmlns="http://www.w3.org/2000/svg" xmlns:xlink="http://www.w3.org/1999/xlink"><marker id="a" orient="auto" refX="0" refY="0" style="overflow:visible"><path d="m5.23 2.42-6.56-2.41 6.56-2.41c-1.05 1.42-1.04 3.37 0 4.82z" style="fill:#f0f;fill-rule:evenodd;stroke:#f0f;stroke-linejoin:round;stroke-width:.38"/></marker><marker id="b" orient="auto" refX="0" refY="0" style="overflow:visible"><path d="m5.23 2.42-6.56-2.41 6.56-2.41c-1.05 1.42-1.04 3.37 0 4.82z" style="fill:#f0f;fill-rule:evenodd;stroke:#f0f;stroke-linejoin:round;stroke-width:.38"/></marker><marker id="c" orient="auto" refX="0" refY="0" style="overflow:visible"><path d="m5.23 2.42-6.56-2.41 6.56-2.41c-1.05 1.42-1.04 3.37 0 4.82z" style="fill:#f0f;fill-rule:evenodd;stroke:#f0f;stroke-linejoin:round;stroke-width:.38"/></marker><marker id="d" orient="auto" refX="0" refY="0" style="overflow:visible"><path d="m5.23 2.42-6.56-2.41 6.56-2.41c-1.05 1.42-1.04 3.37 0 4.82z" style="fill:#f0f;fill-rule:evenodd;stroke:#f0f;stroke-linejoin:round;stroke-width:.38"/></marker><marker id="e" orient="auto" refX="0" refY="0" style="overflow:visible"><path d="m5.23 2.42-6.56-2.41 6.56-2.41c-1.05 1.42-1.04 3.37 0 4.82z" style="fill:#f0f;fill-rule:evenodd;stroke:#f0f;stroke-linejoin:round;stroke-width:.38"/></marker><marker id="f" orient="auto" refX="0" refY="0" style="overflow:visible"><path d="m5.23 2.42-6.56-2.41 6.56-2.41c-1.05 1.42-1.04 3.37 0 4.82z" style="fill:#f0f;fill-rule:evenodd;stroke:#f0f;stroke-linejoin:round;stroke-width:.38"/></marker><g transform="matrix(1.02 0 0 -1.02 214.42 66.43)"><path d="m2.6-257.08c-20.34 0-36.89 16.55-36.89 36.89s16.55 36.89 36.89 36.89 36.89-16.55 36.89-36.89-16.55-36.89-36.89-36.89m0 94.86c-32.04 0-57.97-25.93-57.97-57.97s25.93-57.97 57.97-57.97 57.97 25.93 57.97 57.97-25.93 57.97-57.97 57.97" style="fill:#99aab5"/><path d="m295.61-257.08c-20.34 0-36.89 16.55-36.89 36.89s16.55 36.89 36.89 36.89 36.89-16.55 36.89-36.89-16.55-36.89-36.89-36.89m0 94.86c-32.04 0-57.97-25.93-57.97-57.97s25.93-57.97 57.97-57.97 57.97 25.93 57.97 57.97-25.93 57.97-57.97 57.97" style="fill:#99aab5"/><path d="m2.6-266.67c-26.24 0-47.43 21.29-47.43 47.43 0 26.24 21.19 47.43 47.43 47.43s47.43-21.19 47.43-47.43c0-26.14-21.19-47.43-47.43-47.43m0 115.94c-37.84 0-68.51-30.67-68.51-68.51s30.67-68.51 68.51-68.51 68.51 30.67 68.51 68.51-30.67 68.51-68.51 68.51" style="fill:#292f33"/><path d="m295.61-266.67c-26.24 0-47.43 21.29-47.43 47.43 0 26.24 21.19 47.43 47.43 47.43s47.43-21.19 47.43-47.43c0-26.14-21.19-47.43-47.43-47.43m0 115.94c-37.84 0-68.51-30.67-68.51-68.51s30.67-68.51 68.51-68.51 68.51 30.67 68.51 68.51-30.67 68.51-68.51 68.51" style="fill:#292f33"/><path d="m10.71-197.21c-21.08-42.16 1.26-22.66 11.8-1.58 9.59 19.08 42.69 23.82 55.55 2.21-10.01 32.15-40.05 55.44-75.47 55.44-14.55 0-28.04-3.9-39.63-10.75 29.83-1.69 61.13-19.29 49.54-42.48" style="fill:#77b255"/><path d="m300.88-214.92c0-5.8-4.74-10.54-10.54-10.54h-94.86c-5.8 0-10.54 4.74-10.54 10.54s4.74 10.54 10.54 10.54h94.86c5.8 0 10.54-4.74 10.54-10.54" style="fill:#99aab5"/><path d="m300.04-228.73c-4.53-3.58-11.17-2.85-14.86 1.69l-59.02 74.31c-3.58 4.53-2.85 11.17 1.69 14.86 4.53 3.58 11.17 2.85 14.86-1.69l59.02-74.31c3.58-4.64 2.85-11.28-1.69-14.86" style="fill:#99aab5"/><path d="m-20.82-12.89c.47-.3.13-.92-.17-1.38l-4.66-7.58c-.3-.47-.63-.6-1.1-.3s-.35.92-.05 1.38l4.85 7.58c.3.47.66.6 1.13.3" style="fill:#ccd6dd" transform="matrix(11.28 0 0 11.17 300.77 22.23)"/><path d="m95.67-92.34c-8.54-6.22-27.51-18.66-16.13-48.38 13.6-35.52 16.86-40.58 25.51-61.13 10.96-25.82 21.29-34.15 37.73-34.15h73.78s-10.54 42.16 21.08 73.78 52.7 21.08 84.32 31.62c20.03 6.64 42.16 21.08 42.16 31.62s0 21.08-21.08 10.54-10.54-16.34-31.62-5.8-33.31-4.74-43.85-4.74-80.31-17.71-90.85.53c-5.8 10.01-18.76 20.55-37.94 20.55-13.91 0-32.88-7.06-43.11-14.44" style="fill:#77b255"/><path d="m206.02-214.92c0-11.59-9.49-21.08-21.08-21.08s-21.08 9.49-21.08 21.08c0 11.7 9.49 21.08 21.08 21.08 11.7 0 21.08-9.49 21.08-21.08" style="fill:#66757f"/><path d="m0 0-9.28-3.73s-1.01 1.35-1.12 2.78c2.23 1.15 8.09 3.41 9.28 3.73 1.26-.73 1.12-2.78 1.12-2.78z" style="fill:#ccd6dd" transform="matrix(12.75 0 0 8.75 388.07 -194.73)"/><path d="m.38.14-9.82-3.93-.39.96 9.82 3.93z" style="fill:#fff" transform="matrix(12.75 0 0 8.75 383.35 -186.6)"/><path d="m0 0s-8.05-3.73-9.28-3.73c-.28.28-.55.85-.55.85l9.62 3.89c.27.46.21-1.01.21-1.01z" style="fill:#66757f" transform="matrix(12.75 0 0 8.75 388.07 -194.73)"/><path d="m184.94-100.46c14.44-4.11 59.55.11 71.67 1.05 12.23.95 16.76-4.74 0-13.18-18.97-9.49-59.13-28.99-71.67-33.83-10.54-4.11-47.43 8.33-51.86 13.49-4.32 5.06 39.53 35.94 51.86 32.46" style="fill:#292f33"/><path d="m343.04-88.44c-16.34-.42-31.62 0-42.16 0s-12.23-11.59 16.34-11.59 25.82 11.59 25.82 11.59" style="fill:#292f33"/><path d="m24.1-88.02c0 15.49 47.01 54.07 41.95 47.22-12.12-16.65 5.06-44.58 22.87-55.44 16.44-10.12 6.11-81.05-8.12-49.75-10.54 23.08-66.19 9.8-56.71 57.97" style="fill:#77b255"/><path d="m75.43-20.67c7.38-6.43 3.69-17.81-11.07-36.78-14.65-18.87-37.73-26.56-24.77-5.69 12.86 20.87 35.84 42.48 35.84 42.48" style="fill:#ccd6dd"/><path d="m83.12-94.66c-3.27-4.32-9.38-5.16-13.7-2l-1.26.95c-4.32 3.27-5.16 9.38-2 13.7l13.6 18.13c3.27 4.32 9.38 5.16 13.7 2l1.26-1.05c4.32-3.16 5.16-9.28 1.9-13.6z" style="fill:#66757f"/><path d="m112.11-60.3c.95-2.74-.42-5.8-3.16-6.75l-19.82-7.17c-2.74-.95-5.8.42-6.75 3.16s.42 5.8 3.16 6.75l19.82 7.17c2.74.95 5.8-.42 6.75-3.16" style="fill:#292f33"/><circle cx="157.15" cy="212.36" r="2.69" style="stroke:#000;stroke-width:.97" transform="scale(1 -1)"/><g style="fill:none;stroke:#f00;stroke-width:2.32" transform="matrix(1.26 0 0 1.26 16.92 -15.42)"><circle cx="102.06" cy="-32.5" r="21.5" transform="scale(1 -1)"/><path d="m111.42 12.07s7.86-40.07 11.81-55.17c3.12-11.95 15.71-32.84 15.71-32.84"/><path d="m138.79-75.67-53.57-21.66 38.34-46.93-17.27-12.28"/><path d="m114.53-3.59-18.91-34.09-31.05-1.29"/></g><g transform="scale(1 -1)"><text style="font-size:9.71;font-family:Courier 10 Pitch;letter-spacing:-.24274719;word-spacing:0" x="71.75" xml:space="preserve" y="255.03"><tspan style="font-size:9.71;font-family:Droid Sans" x="71.75" y="255.03">Pointe des pieds </tspan><tspan style="font-size:9.71;font-family:Droid Sans" x="71.75" y="264.74">en appui sur les repose-pieds</tspan></text><ellipse cx="35.44" cy="97.99" rx="4.26" ry="11.28" style="fill:#edd400;stroke:#edd400;stroke-width:1.94"/><ellipse cx="24.15" cy="96.23" rx="3.26" ry="10.28" style="fill:#edd400;stroke:#edd400;stroke-width:1.94"/><g style="font-size:9.71;font-family:Courier 10 Pitch;word-spacing:0"><text style="letter-spacing:-.24274717" x="334.12" xml:space="preserve" y="141.24"><tspan style="font-size:9.71;font-family:Droid Sans" x="334.12" y="141.24">Talons legérement vers l’extérieur </tspan><tspan style="font-size:9.71;font-family:Droid Sans" x="334.12" y="150.95">(cela force à coller reserrer les genoux)</tspan></text><text style="letter-spacing:-.24274716" x="-160.04" y="124.23"><tspan style="font-size:9.71;font-family:Droid Sans" x="-160.04" y="124.23">Genoux et cuisses collées au réservoir</tspan><tspan style="font-size:9.71;font-family:Droid Sans" x="-160.04" y="133.94">(meilleur retour sur l'inclinaison de la moto)</tspan></text><text style="letter-spacing:-.24274714" x="225.63" y="66.54"><tspan style="font-size:9.71;font-family:Droid Sans" x="225.63" y="66.54">Roustons contre le réservoir</tspan><tspan style="font-size:9.71;font-family:Droid Sans" x="225.63" y="76.25">(pour le plus à l’avant et avoir plus de portée avec les bras)</tspan></text><text style="letter-spacing:-.24274714" x="191.82" y="17.68"><tspan style="font-size:9.71;font-family:Droid Sans" x="191.82" y="17.68">Dos droit et légerement incliné vers l’avant</tspan></text><text style="letter-spacing:-.24274713" x="-111.61" y="-9.25"><tspan style="font-size:9.71;font-family:Droid Sans" x="-111.61" y="-9.25">Bras détendus, avant-bras à l’horizontal</tspan><tspan style="font-size:9.71;font-family:Droid Sans" x="-111.61" y=".46">(pour que la poussée sur le guidon plus efficace)</tspan></text></g></g><g style="stroke-width:.97;fill:#f0f;fill-rule:evenodd;stroke:#f0f"><path d="m120.04-137.9-120.69 18.18" style="marker-start:url(#a)"/><path d="m105.93-63-50.07 59.86" style="marker-start:url(#b)"/><path d="m166.16-44.64 23.95 27.76" style="marker-start:url(#c)"/><path d="m180.51-107.45 43.58 37.52" style="marker-start:url(#d)"/><path d="m172.73-194.64 160.1 51.81" style="marker-start:url(#e)"/><path d="m151-215.06-9.14-36.36" style="marker-start:url(#f)"/></g></g></svg>