<svg height="78.45mm" viewBox="0 0 709.21 277.98" width="200.16mm" xmlns="http://www.w3.org/2000/svg" xmlns:xlink="http://www.w3.org/1999/xlink"><marker id="a" orient="auto" refX="0" refY="0" style="overflow:visible"><path d="m2.31 0-3.46 2v-4z" style="fill:#696969;fill-rule:evenodd;stroke:#696969;stroke-width:.4pt"/></marker><marker id="b" orient="auto" refX="0" refY="0" style="overflow:visible"><path d="m5.77 0-8.65 5v-10z" style="fill:#696969;fill-rule:evenodd;stroke:#696969;stroke-width:1pt" transform="scale(-.4)"/></marker><marker id="c" orient="auto" refX="0" refY="0" style="overflow:visible"><path d="m5.77 0-8.65 5v-10z" style="fill:#696969;fill-rule:evenodd;stroke:#696969;stroke-width:1pt" transform="scale(-.4)"/></marker><marker id="d" orient="auto" refX="0" refY="0" style="overflow:visible"><path d="m2.31 0-3.46 2v-4z" style="fill:#696969;fill-rule:evenodd;stroke:#696969;stroke-width:.4pt"/></marker><marker id="e" orient="auto" refX="0" refY="0" style="overflow:visible"><path d="m5.77 0-8.65 5v-10z" style="fill:#696969;fill-rule:evenodd;stroke:#696969;stroke-width:1pt" transform="scale(-.4)"/></marker><marker id="f" orient="auto" refX="0" refY="0" style="overflow:visible"><path d="m2.31 0-3.46 2v-4z" style="fill:#696969;fill-rule:evenodd;stroke:#696969;stroke-width:.4pt"/></marker><marker id="g" orient="auto" refX="0" refY="0" style="overflow:visible"><path d="m5.77 0-8.65 5v-10z" style="fill:#696969;fill-rule:evenodd;stroke:#696969;stroke-width:1pt" transform="scale(-.4)"/></marker><marker id="h" orient="auto" refX="0" refY="0" style="overflow:visible"><path d="m2.31 0-3.46 2v-4z" style="fill:#696969;fill-rule:evenodd;stroke:#696969;stroke-width:.4pt"/></marker><marker id="i" orient="auto" refX="0" refY="0" style="overflow:visible"><path d="m5.77 0-8.65 5v-10z" style="fill:#696969;fill-rule:evenodd;stroke:#696969;stroke-width:1pt" transform="scale(-.4)"/></marker><marker id="j" orient="auto" refX="0" refY="0" style="overflow:visible"><path d="m2.31 0-3.46 2v-4z" style="fill:#696969;fill-rule:evenodd;stroke:#696969;stroke-width:.4pt"/></marker><marker id="k" orient="auto" refX="0" refY="0" style="overflow:visible"><path d="m5.77 0-8.65 5v-10z" style="fill:#696969;fill-rule:evenodd;stroke:#696969;stroke-width:1pt" transform="scale(-.4)"/></marker><marker id="l" orient="auto" refX="0" refY="0" style="overflow:visible"><path d="m2.31 0-3.46 2v-4z" style="fill:#696969;fill-rule:evenodd;stroke:#696969;stroke-width:.4pt"/></marker><g style="fill:none"><path d="m431.14 277.77s-33.78-72.21-10.03-113.35c24.25-42 82.73-53.52 121.71-26.82 34.91 23.91 88.26 13.36 116.93-20.51 27.3-32.26-1.18-116.93-1.18-116.93" style="stroke:#3465a4"/><path d="m183.06 150.56c11.6 43.28 56.82 82.91 87.81 83.86 33.09 0 84.18-31.57 84.18-85.24 0-34.94-29.09-87.95-83.72-87.95-63.55 0-88.03 90.12-88.03 90.12-22.21 38.48-35.22 80.62-87.33 82.15-36.43 0-77.77-38.54-77.77-82.03 0-30.1 23.5-90.84 77.06-90.84 60.28 0 88 59.83 88 90.31l-.21 88.82" style="stroke:#3465a4"/><path d="m68 150.86h231.64" style="stroke:#696969;marker-start:url(#b);marker-end:url(#a)"/></g><text x="67.03" y="181.47"/><text style="font-size:10;font-family:Droid Sans Mono;letter-spacing:-.25;word-spacing:0" x="162.9" y="148.03"><tspan x="162.9" y="148.03">6m</tspan></text><g style="fill:none"><g style="stroke:#3465a4;stroke-width:2"><path d="m546.81 131.9 3.08 10.13-10.7.88"/><path d="m176.55 233.13 6.66-8.23 6.73 8.37"/><path d="m283.02 227.22-8.23 6.66 8.37 6.73"/><path d="m107.5 67.32-8.23-6.66 8.37-6.73"/></g><g style="stroke:#f00"><ellipse cx="54.78" cy="151.17" rx="7.64" ry="8.06" style="stroke-width:1.1"/><path d="m49.11 145 11.57 11.91"/><path d="m60.48 145.22-11.56 11.91"/><ellipse cx="311.84" cy="150.55" rx="7.64" ry="8.06" style="stroke-width:1.1"/><path d="m306.17 144.38 11.57 11.91"/><path d="m317.54 144.6-11.56 11.91"/><ellipse cx="404.02" cy="239.11" rx="7.64" ry="8.06" style="stroke-width:1.1"/><path d="m398.35 232.94 11.57 11.91"/><path d="m409.72 233.16-11.56 11.91"/><ellipse cx="457.16" cy="239.11" rx="7.64" ry="8.06" style="stroke-width:1.1"/><path d="m451.49 232.94 11.57 11.91"/><path d="m462.86 233.16-11.56 11.91"/><g transform="matrix(0 1 -1 0 618.18 41.86)"><ellipse cx="69.98" cy="74.81" rx="7.64" ry="8.06" style="stroke-width:1.1"/><path d="m64.31 68.64 11.57 11.91"/><path d="m75.68 68.86-11.56 11.91"/></g><g transform="matrix(0 1 -1 0 618.18 95)"><ellipse cx="69.98" cy="74.81" rx="7.64" ry="8.06" style="stroke-width:1.1"/><path d="m64.31 68.64 11.57 11.91"/><path d="m75.68 68.86-11.56 11.91"/></g><ellipse cx="630.17" cy="37.32" rx="7.64" ry="8.06" style="stroke-width:1.1"/><path d="m624.5 31.15 11.57 11.91"/><path d="m635.87 31.37-11.56 11.91"/><ellipse cx="683.31" cy="37.32" rx="7.64" ry="8.06" style="stroke-width:1.1"/><path d="m677.64 31.15 11.57 11.91"/><path d="m689.01 31.37-11.56 11.91"/></g><g style="stroke:#696969"><path d="m414.44 238.66h32.97" style="marker-start:url(#c);marker-end:url(#d)"/><path d="m467.14 238.66h73.87" style="marker-start:url(#e);marker-end:url(#f)"/><path d="m543.34 236.13v-61.34" style="marker-start:url(#g);marker-end:url(#h)"/></g></g><g style="font-size:10;font-family:Droid Sans Mono;letter-spacing:-.25;word-spacing:0"><text x="420.49" y="237"><tspan x="420.49" y="237">80cm</tspan></text><text x="498.74" y="235.62"><tspan x="498.74" y="235.62">3m</tspan></text><text x="545.3" y="202.28"><tspan x="545.3" y="202.28">3m</tspan></text></g><path d="m543.34 101.81v-61.34" style="fill:none;stroke:#696969;marker-start:url(#i);marker-end:url(#j)"/><path d="m545.81 37.52h73.87" style="fill:none;stroke:#696969;marker-start:url(#k);marker-end:url(#l)"/><g style="font-size:10;font-family:Droid Sans Mono;letter-spacing:-.25;word-spacing:0"><text x="528.55" y="74.99"><tspan x="528.55" y="74.99">3m</tspan></text><text x="581.45" y="34.76"><tspan x="581.45" y="34.76">3m</tspan></text></g></svg>