<?xml version="1.0" encoding="UTF-8" standalone="no"?>
<svg
   xmlns:dc="http://purl.org/dc/elements/1.1/"
   xmlns:cc="http://creativecommons.org/ns#"
   xmlns:rdf="http://www.w3.org/1999/02/22-rdf-syntax-ns#"
   xmlns:svg="http://www.w3.org/2000/svg"
   xmlns="http://www.w3.org/2000/svg"
   xmlns:sodipodi="http://sodipodi.sourceforge.net/DTD/sodipodi-0.dtd"
   xmlns:inkscape="http://www.inkscape.org/namespaces/inkscape"
   viewBox="0 0 772.99229 367.82609"
   xml:space="preserve"
   version="1.1"
   id="svg2"
   inkscape:version="0.91 r13725"
   sodipodi:docname="Moto_Position_Statique.svg"
   width="772.99231"
   height="367.82608"><sodipodi:namedview
     pagecolor="#ffffff"
     bordercolor="#666666"
     borderopacity="1"
     objecttolerance="10"
     gridtolerance="10"
     guidetolerance="10"
     inkscape:pageopacity="0"
     inkscape:pageshadow="2"
     inkscape:window-width="1920"
     inkscape:window-height="1019"
     id="namedview4268"
     showgrid="false"
     fit-margin-top="5"
     fit-margin-left="50"
     fit-margin-right="50"
     fit-margin-bottom="5"
     inkscape:zoom="1.6895382"
     inkscape:cx="386.49616"
     inkscape:cy="183.91303"
     inkscape:window-x="0"
     inkscape:window-y="0"
     inkscape:window-maximized="1"
     inkscape:current-layer="g5676" /><metadata
     id="metadata8"><rdf:RDF><cc:Work
         rdf:about=""><dc:format>image/svg+xml</dc:format><dc:type
           rdf:resource="http://purl.org/dc/dcmitype/StillImage" /><dc:title></dc:title></cc:Work></rdf:RDF></metadata><defs
     id="defs6"><marker
       inkscape:stockid="Arrow2Mstart"
       orient="auto"
       refY="0"
       refX="0"
       id="Arrow2Mstart"
       style="overflow:visible"
       inkscape:isstock="true"><path
         id="path5843"
         style="fill:#ff00ff;fill-opacity:1;fill-rule:evenodd;stroke:#ff00ff;stroke-width:0.625;stroke-linejoin:round;stroke-opacity:1"
         d="M 8.7185878,4.0337352 -2.2072895,0.01601326 8.7185884,-4.0017078 c -1.7454984,2.3720609 -1.7354408,5.6174519 -6e-7,8.035443 z"
         transform="scale(0.6,0.6)"
         inkscape:connector-curvature="0" /></marker><marker
       inkscape:stockid="TriangleInL"
       orient="auto"
       refY="0"
       refX="0"
       id="TriangleInL"
       style="overflow:visible"
       inkscape:isstock="true"><path
         id="path5952"
         d="m 5.77,0 -8.65,5 0,-10 8.65,5 z"
         style="fill:#0000ff;fill-opacity:1;fill-rule:evenodd;stroke:#0000ff;stroke-width:1pt;stroke-opacity:1"
         transform="scale(-0.8,-0.8)"
         inkscape:connector-curvature="0" /></marker><marker
       inkscape:stockid="DotL"
       orient="auto"
       refY="0"
       refX="0"
       id="DotL"
       style="overflow:visible"
       inkscape:isstock="true"><path
         id="path5880"
         d="m -2.5,-1 c 0,2.76 -2.24,5 -5,5 -2.76,0 -5,-2.24 -5,-5 0,-2.76 2.24,-5 5,-5 2.76,0 5,2.24 5,5 z"
         style="fill:#0000ff;fill-opacity:1;fill-rule:evenodd;stroke:#0000ff;stroke-width:1pt;stroke-opacity:1"
         transform="matrix(0.8,0,0,0.8,5.92,0.8)"
         inkscape:connector-curvature="0" /></marker><marker
       inkscape:stockid="DotM"
       orient="auto"
       refY="0"
       refX="0"
       id="DotM"
       style="overflow:visible"
       inkscape:isstock="true"><path
         id="path5883"
         d="m -2.5,-1 c 0,2.76 -2.24,5 -5,5 -2.76,0 -5,-2.24 -5,-5 0,-2.76 2.24,-5 5,-5 2.76,0 5,2.24 5,5 z"
         style="fill:#0000ff;fill-opacity:1;fill-rule:evenodd;stroke:#0000ff;stroke-width:1pt;stroke-opacity:1"
         transform="matrix(0.4,0,0,0.4,2.96,0.4)"
         inkscape:connector-curvature="0" /></marker><clipPath
       id="clipPath16"
       clipPathUnits="userSpaceOnUse"><path
         id="path18"
         d="M 0,36 36,36 36,0 0,0 0,36 Z"
         inkscape:connector-curvature="0" /></clipPath><marker
       inkscape:stockid="Arrow2Mstart"
       orient="auto"
       refY="0"
       refX="0"
       id="Arrow2Mstart-8"
       style="overflow:visible"
       inkscape:isstock="true"><path
         inkscape:connector-curvature="0"
         id="path5843-7"
         style="fill:#ff00ff;fill-opacity:1;fill-rule:evenodd;stroke:#ff00ff;stroke-width:0.625;stroke-linejoin:round;stroke-opacity:1"
         d="M 8.7185878,4.0337352 -2.2072895,0.01601326 8.7185884,-4.0017078 c -1.7454984,2.3720609 -1.7354408,5.6174519 -6e-7,8.035443 z"
         transform="scale(0.6,0.6)" /></marker><marker
       inkscape:stockid="Arrow2Mstart"
       orient="auto"
       refY="0"
       refX="0"
       id="Arrow2Mstart-8-1"
       style="overflow:visible"
       inkscape:isstock="true"><path
         inkscape:connector-curvature="0"
         id="path5843-7-7"
         style="fill:#ff00ff;fill-opacity:1;fill-rule:evenodd;stroke:#ff00ff;stroke-width:0.625;stroke-linejoin:round;stroke-opacity:1"
         d="M 8.7185878,4.0337352 -2.2072895,0.01601326 8.7185884,-4.0017078 c -1.7454984,2.3720609 -1.7354408,5.6174519 -6e-7,8.035443 z"
         transform="scale(0.6,0.6)" /></marker><marker
       inkscape:stockid="Arrow2Mstart"
       orient="auto"
       refY="0"
       refX="0"
       id="Arrow2Mstart-8-9"
       style="overflow:visible"
       inkscape:isstock="true"><path
         inkscape:connector-curvature="0"
         id="path5843-7-8"
         style="fill:#ff00ff;fill-opacity:1;fill-rule:evenodd;stroke:#ff00ff;stroke-width:0.625;stroke-linejoin:round;stroke-opacity:1"
         d="M 8.7185878,4.0337352 -2.2072895,0.01601326 8.7185884,-4.0017078 c -1.7454984,2.3720609 -1.7354408,5.6174519 -6e-7,8.035443 z"
         transform="scale(0.6,0.6)" /></marker><marker
       inkscape:stockid="Arrow2Mstart"
       orient="auto"
       refY="0"
       refX="0"
       id="Arrow2Mstart-8-9-7"
       style="overflow:visible"
       inkscape:isstock="true"><path
         inkscape:connector-curvature="0"
         id="path5843-7-8-6"
         style="fill:#ff00ff;fill-opacity:1;fill-rule:evenodd;stroke:#ff00ff;stroke-width:0.625;stroke-linejoin:round;stroke-opacity:1"
         d="M 8.7185878,4.0337352 -2.2072895,0.01601326 8.7185884,-4.0017078 c -1.7454984,2.3720609 -1.7354408,5.6174519 -6e-7,8.035443 z"
         transform="scale(0.6,0.6)" /></marker><marker
       inkscape:stockid="Arrow2Mstart"
       orient="auto"
       refY="0"
       refX="0"
       id="Arrow2Mstart-8-9-7-1"
       style="overflow:visible"
       inkscape:isstock="true"><path
         inkscape:connector-curvature="0"
         id="path5843-7-8-6-1"
         style="fill:#ff00ff;fill-opacity:1;fill-rule:evenodd;stroke:#ff00ff;stroke-width:0.625;stroke-linejoin:round;stroke-opacity:1"
         d="M 8.7185878,4.0337352 -2.2072895,0.01601326 8.7185884,-4.0017078 c -1.7454984,2.3720609 -1.7354408,5.6174519 -6e-7,8.035443 z"
         transform="scale(0.6,0.6)" /></marker></defs><g
     transform="matrix(1.25,0,0,-1.25,211.70029,67.075424)"
     id="g10"><g
       id="g12"><g
         id="g14"
         transform="matrix(0.82390242,0,0,0.82390242,0,0.01512678)"><g
           id="g4278"
           transform="translate(2.6458506,0.61058095)"><g
             id="g4193"
             transform="matrix(10.535543,0,0,10.535543,-15.322998,-288.7045)"><g
               transform="translate(1.7031619,3)"
               id="g20"><path
                 id="path22"
                 style="fill:#99aab5;fill-opacity:1;fill-rule:nonzero;stroke:none"
                 d="M 0,0 C -1.933,0 -3.5,1.567 -3.5,3.5 -3.5,5.433 -1.933,7 0,7 1.933,7 3.5,5.433 3.5,3.5 3.5,1.567 1.933,0 0,0 M 0,9 C -3.038,9 -5.5,6.537 -5.5,3.5 -5.5,0.463 -3.038,-2 0,-2 3.038,-2 5.5,0.463 5.5,3.5 5.5,6.537 3.038,9 0,9"
                 inkscape:connector-curvature="0" /></g><g
               transform="translate(29.5,3)"
               id="g24"><path
                 id="path26"
                 style="fill:#99aab5;fill-opacity:1;fill-rule:nonzero;stroke:none"
                 d="M 0,0 C -1.934,0 -3.5,1.567 -3.5,3.5 -3.5,5.433 -1.934,7 0,7 1.934,7 3.5,5.433 3.5,3.5 3.5,1.567 1.934,0 0,0 M 0,9 C -3.037,9 -5.5,6.537 -5.5,3.5 -5.5,0.463 -3.037,-2 0,-2 3.037,-2 5.5,0.463 5.5,3.5 5.5,6.537 3.037,9 0,9"
                 inkscape:connector-curvature="0" /></g><g
               transform="translate(1.7031619,2.0859)"
               id="g28"><path
                 id="path30"
                 style="fill:#292f33;fill-opacity:1;fill-rule:nonzero;stroke:none"
                 d="M 0,0 C -2.485,0 -4.5,2.015 -4.5,4.5 -4.5,6.985 -2.485,9 0,9 2.485,9 4.5,6.985 4.5,4.5 4.5,2.015 2.485,0 0,0 M 0,11 C -3.59,11 -6.5,8.09 -6.5,4.5 -6.5,0.91 -3.59,-2 0,-2 3.59,-2 6.5,0.91 6.5,4.5 6.5,8.09 3.59,11 0,11"
                 inkscape:connector-curvature="0" /></g><g
               transform="translate(29.5,2.0859)"
               id="g32"><path
                 id="path34"
                 style="fill:#292f33;fill-opacity:1;fill-rule:nonzero;stroke:none"
                 d="M 0,0 C -2.485,0 -4.5,2.015 -4.5,4.5 -4.5,6.985 -2.485,9 0,9 2.485,9 4.5,6.985 4.5,4.5 4.5,2.015 2.485,0 0,0 M 0,11 C -3.59,11 -6.5,8.09 -6.5,4.5 -6.5,0.91 -3.59,-2 0,-2 3.59,-2 6.5,0.91 6.5,4.5 6.5,8.09 3.59,11 0,11"
                 inkscape:connector-curvature="0" /></g><g
               transform="translate(2.2046619,8.9492)"
               id="g36"><path
                 id="path38"
                 style="fill:#77b255;fill-opacity:1;fill-rule:nonzero;stroke:none"
                 d="M 0.26925888,-0.26925888 C -1.7307411,-4.2692589 0.39316752,-2.4187132 1.3931675,-0.4187132 2.2981675,1.3922868 5.443,1.842 6.659,-0.212 5.707,2.838 2.861,5.051 -0.501,5.051 -1.875,5.051 -3.158,4.676 -4.265,4.031 -1.433,3.865 1.5375457,2.2 0.43754568,0"
                 inkscape:connector-curvature="0"
                 sodipodi:nodetypes="cccscc" /></g><g
               transform="translate(30,7)"
               id="g40"><path
                 id="path42"
                 style="fill:#99aab5;fill-opacity:1;fill-rule:nonzero;stroke:none"
                 d="m 0,0 c 0,-0.553 -0.447,-1 -1,-1 l -9,0 c -0.553,0 -1,0.447 -1,1 0,0.553 0.447,1 1,1 l 9,0 C -0.447,1 0,0.553 0,0"
                 inkscape:connector-curvature="0" /></g><g
               transform="translate(29.9229,5.6943)"
               id="g44"><path
                 id="path46"
                 style="fill:#99aab5;fill-opacity:1;fill-rule:nonzero;stroke:none"
                 d="m 0,0 c -0.433,-0.344 -1.062,-0.272 -1.405,0.161 l -5.601,7.045 c -0.344,0.433 -0.271,1.062 0.16,1.405 0.433,0.344 1.062,0.273 1.406,-0.161 L 0.16,1.405 C 0.504,0.973 0.432,0.344 0,0"
                 inkscape:connector-curvature="0" /></g><g
               transform="matrix(1.0700278,0,0,1.0572098,29.99068,29.500261)"
               id="g48"><path
                 id="path50"
                 style="fill:#ccd6dd;fill-opacity:1;fill-rule:nonzero;stroke:none"
                 d="m -20.822984,-12.893591 c 0.466,-0.297 0.13018,-0.915 -0.16782,-1.381 l -4.660272,-7.582 c -0.298,-0.465 -0.631908,-0.601 -1.097908,-0.303 -0.466,0.297 -0.350363,0.915 -0.05236,1.381 l 4.849,7.582 c 0.298,0.465 0.664363,0.602 1.129363,0.303"
                 inkscape:connector-curvature="0"
                 sodipodi:nodetypes="ccccccc" /></g><g
               transform="translate(10.5293,18.6323)"
               id="g52"><path
                 id="path54"
                 style="fill:#77b255;fill-opacity:1;fill-rule:nonzero;stroke:none"
                 d="M 0,0 C -0.811,-0.585 -2.6102648,-1.7690525 -1.529,-4.5913676 -0.23909107,-7.9582853 0.0691608,-8.4422626 0.89147591,-10.385789 1.9299243,-12.840142 2.908,-13.632 4.471,-13.632 l 7,0 c 0,0 -1,4 2,7 3,3 5,2 8,3 1.897,0.633 4,2 4,3 0,1 0,2 -2,1 -2,-1 -1,-1.551 -3,-0.551 -2,1 -3.16,-0.449 -4.16,-0.449 -1,0 -7.615,-1.68 -8.62,0.049 C 7.138,0.368 5.905,1.368 4.087,1.368 2.769,1.368 0.971,0.7 0,0"
                 inkscape:connector-curvature="0"
                 sodipodi:nodetypes="cssscscsssscsc" /></g><g
               transform="translate(21,7)"
               id="g56"><path
                 id="path58"
                 style="fill:#66757f;fill-opacity:1;fill-rule:nonzero;stroke:none"
                 d="m 0,0 c 0,-1.104 -0.895,-2 -2,-2 -1.104,0 -1.999,0.896 -1.999,2 0,1.105 0.895,2 1.999,2 1.105,0 2,-0.895 2,-2"
                 inkscape:connector-curvature="0" /></g><g
               id="g4270"><g
                 transform="matrix(1.2144709,0,0,0.82880376,-5.5338222,1.4731746)"
                 id="g4185"><g
                   transform="translate(36.1982,8.9746)"
                   id="g60"><path
                     id="path62"
                     style="fill:#ccd6dd;fill-opacity:1;fill-rule:nonzero;stroke:none"
                     d="m 0,0 -9.277,-3.732 c 0,0 -1.010041,1.3541658 -1.119,2.783 2.2250691,1.15187102 8.0876339,3.4133103 9.277,3.732 C 0.1430185,2.0543733 0,0 0,0 Z"
                     inkscape:connector-curvature="0"
                     sodipodi:nodetypes="ccccc" /></g><g
                   transform="translate(35.8252,9.9023)"
                   id="g64"><path
                     id="path66"
                     style="fill:#ffffff;fill-opacity:1;fill-rule:nonzero;stroke:none"
                     d="m 0.3753165,0.14445833 -9.8169398,-3.92756303 -0.3872431,0.9623976 9.81693984,3.9286012 z"
                     inkscape:connector-curvature="0"
                     sodipodi:nodetypes="ccccc" /></g><g
                   transform="translate(36.1982,8.9746)"
                   id="g68"><path
                     id="path70"
                     style="fill:#66757f;fill-opacity:1;fill-rule:nonzero;stroke:none"
                     d="m 0,0 c 0,0 -8.0502217,-3.732 -9.277,-3.732 -0.2810757,0.2810757 -0.5518664,0.850343 -0.5518664,0.850343 l 9.62345129,3.8863967 C 0.06034764,1.4650543 0,0 0,0 Z"
                     inkscape:connector-curvature="0"
                     sodipodi:nodetypes="ccccc" /></g></g></g><g
               transform="translate(19,17.8628)"
               id="g72"><path
                 id="path74"
                 style="fill:#292f33;fill-opacity:1;fill-rule:nonzero;stroke:none"
                 d="m 0,0 c 1.366,-0.385 5.645,0.007 6.802,0.098 1.157,0.09 1.594,-0.452 0,-1.25 C 5,-2.053 1.187,-3.8997444 0,-4.3637444 -0.998,-4.7547444 -4.5,-3.566 -4.917,-3.081 -5.333,-2.595 -1.172,0.33 0,0"
                 inkscape:connector-curvature="0"
                 sodipodi:nodetypes="cccccc" /></g><g
               transform="translate(34,19)"
               id="g76"><path
                 id="path78"
                 style="fill:#292f33;fill-opacity:1;fill-rule:nonzero;stroke:none"
                 d="M 0,0 C -1.549,-0.04 -3,0 -4,0 -5,0 -5.158,-1.102 -2.451,-1.102 0.256,-1.102 0,0 0,0"
                 inkscape:connector-curvature="0" /></g><g
               transform="translate(3.7363,19.0425)"
               id="g80"><path
                 id="path82"
                 style="fill:#77b255;fill-opacity:1;fill-rule:nonzero;stroke:none"
                 d="M 0,0 C 0,1.465 4.456,5.134 3.975,4.476 2.825,2.903 4.4617998,0.25163435 6.1472626,-0.78168273 7.7121051,-1.7410504 6.7263816,-8.4711777 5.376428,-5.5040257 4.3754225,-3.3062551 -0.9043752,-4.5744943 0,0"
                 inkscape:connector-curvature="0"
                 sodipodi:nodetypes="ccscc" /></g><g
               transform="translate(8.606,25.4307)"
               id="g84"><path
                 id="path86"
                 style="fill:#ccd6dd;fill-opacity:1;fill-rule:nonzero;stroke:none"
                 d="M 0,0 C 0.704,-0.61 0.345,-1.692 -1.045,-3.485 -2.436,-5.279 -4.627,-6.006 -3.404,-4.027 -2.181,-2.048 0,0 0,0"
                 inkscape:connector-curvature="0" /></g><g
               transform="translate(9.7069849,18.495247)"
               id="g88"><path
                 id="path90"
                 style="fill:#66757f;fill-opacity:1;fill-rule:nonzero;stroke:none"
                 d="m -0.3720805,-0.09037461 c -0.30672377,-0.41060508 -0.8878521,-0.49300573 -1.2984572,-0.18628196 l -0.1154578,0.0868417 c -0.4103463,0.30768969 -0.4939717,0.88811091 -0.186282,1.29845707 l 1.28515164,1.7168797 c 0.3076897,0.4103461 0.88811092,0.4939716 1.29871599,0.1872479 L 0.72775507,2.9247033 C 1.1373942,2.6182383 1.2207608,2.0368512 0.91429585,1.627212 L -0.3720805,-0.09037461 Z"
                 inkscape:connector-curvature="0" /></g><g
               transform="translate(12.088285,21.666669)"
               id="g92"><path
                 id="path94"
                 style="fill:#292f33;fill-opacity:1;fill-rule:nonzero;stroke:none"
                 d="m 0,0 c 0.094,-0.26 -0.04,-0.546 -0.3,-0.64 l -1.882,-0.679 c -0.259,-0.094 -0.545,0.04 -0.639,0.3 -0.094,0.26 0.04,0.546 0.3,0.641 L -0.64,0.301 C -0.38,0.394 -0.094,0.26 0,0"
                 inkscape:connector-curvature="0" /></g></g><circle
             style="fill:#000000;fill-opacity:1;stroke:#000000;stroke-width:0.97098887;stroke-miterlimit:4;stroke-dasharray:none;stroke-dashoffset:0;stroke-opacity:1"
             id="path4883"
             cx="157.14615"
             cy="212.35992"
             r="2.692138"
             transform="scale(1,-1)" /><g
             id="g5676"
             style="stroke-width:2.91296625;stroke-miterlimit:4;stroke-dasharray:none"
             transform="matrix(1.2569156,0,0,1.2569156,16.920534,-15.420018)"><circle
               transform="scale(1,-1)"
               r="21.49559"
               cy="-32.495358"
               cx="102.05639"
               id="path4855"
               style="fill:none;fill-opacity:1;stroke:#ff0000;stroke-width:2.31755137;stroke-miterlimit:4;stroke-dasharray:none;stroke-dashoffset:0;stroke-opacity:1" /><path
               sodipodi:nodetypes="ccc"
               inkscape:connector-curvature="0"
               id="path4875"
               d="m 111.418,12.065216 c 0,0 7.8647,-40.074512 11.80966,-55.172833 3.12299,-11.952418 15.70698,-32.841864 15.70698,-32.841864"
               style="fill:none;fill-rule:evenodd;stroke:#ff0000;stroke-width:2.31755137;stroke-linecap:butt;stroke-linejoin:miter;stroke-miterlimit:4;stroke-dasharray:none;stroke-opacity:1" /><path
               sodipodi:nodetypes="cccc"
               inkscape:connector-curvature="0"
               id="path4877"
               d="m 138.787,-75.67439 -53.565,-21.661414 38.33893,-46.932946 -17.27444,-12.27676"
               style="fill:none;fill-rule:evenodd;stroke:#ff0000;stroke-width:2.31755137;stroke-linecap:butt;stroke-linejoin:miter;stroke-miterlimit:4;stroke-dasharray:none;stroke-opacity:1" /><path
               inkscape:connector-curvature="0"
               id="path4885"
               d="m 114.53277,-3.5892957 -18.912881,-34.0858163 -31.054116,-1.288344 0,0"
               style="fill:none;fill-rule:evenodd;stroke:#ff0000;stroke-width:2.31755137;stroke-linecap:butt;stroke-linejoin:miter;stroke-miterlimit:4;stroke-dasharray:none;stroke-opacity:1"
               sodipodi:nodetypes="cccc" /></g><text
             sodipodi:linespacing="100%"
             id="text13206-2"
             y="255.03387"
             x="71.75312"
             style="font-style:normal;font-variant:normal;font-weight:normal;font-stretch:normal;font-size:9.7098875px;line-height:100%;font-family:'Courier 10 Pitch';-inkscape-font-specification:'Courier 10 Pitch, Normal';text-align:start;letter-spacing:-0.24274719px;word-spacing:0px;writing-mode:lr-tb;text-anchor:start;fill:#000000;fill-opacity:1;stroke:none;stroke-width:1px;stroke-linecap:butt;stroke-linejoin:miter;stroke-opacity:1"
             xml:space="preserve"
             transform="scale(1,-1)"><tspan
               sodipodi:role="line"
               style="font-style:normal;font-variant:normal;font-weight:normal;font-stretch:normal;font-size:9.7098875px;line-height:100%;font-family:'Droid Sans';-inkscape-font-specification:'Droid Sans, Normal';text-align:start;writing-mode:lr-tb;text-anchor:start"
               x="71.75312"
               y="255.03387"
               id="tspan5138">Pointe des pieds </tspan><tspan
               sodipodi:role="line"
               style="font-style:normal;font-variant:normal;font-weight:normal;font-stretch:normal;font-size:9.7098875px;line-height:100%;font-family:'Droid Sans';-inkscape-font-specification:'Droid Sans, Normal';text-align:start;writing-mode:lr-tb;text-anchor:start"
               x="71.75312"
               y="264.74377"
               id="tspan5703">en appui sur les repose-pieds</tspan></text>
<ellipse
             style="fill:#edd400;fill-opacity:1;stroke:#edd400;stroke-width:1.9419775;stroke-miterlimit:4;stroke-dasharray:none;stroke-dashoffset:0;stroke-opacity:1"
             id="path5682"
             cx="35.435463"
             cy="97.990051"
             transform="scale(1,-1)"
             rx="4.2625637"
             ry="11.283257" /><ellipse
             style="fill:#edd400;fill-opacity:1;stroke:#edd400;stroke-width:1.94197738;stroke-miterlimit:4;stroke-dasharray:none;stroke-dashoffset:0;stroke-opacity:1"
             id="path5682-5"
             cx="24.15221"
             cy="96.234871"
             rx="3.2596073"
             ry="10.280299"
             transform="scale(1,-1)" /><text
             sodipodi:linespacing="100%"
             id="text13206-2-6"
             y="141.23755"
             x="334.11658"
             style="font-style:normal;font-variant:normal;font-weight:normal;font-stretch:normal;font-size:9.7098875px;line-height:100%;font-family:'Courier 10 Pitch';-inkscape-font-specification:'Courier 10 Pitch, Normal';text-align:start;letter-spacing:-0.24274717px;word-spacing:0px;writing-mode:lr-tb;text-anchor:start;fill:#000000;fill-opacity:1;stroke:none;stroke-width:1px;stroke-linecap:butt;stroke-linejoin:miter;stroke-opacity:1"
             xml:space="preserve"
             transform="scale(1,-1)"><tspan
               sodipodi:role="line"
               style="font-style:normal;font-variant:normal;font-weight:normal;font-stretch:normal;font-size:9.7098875px;line-height:100%;font-family:'Droid Sans';-inkscape-font-specification:'Droid Sans, Normal';text-align:start;writing-mode:lr-tb;text-anchor:start"
               x="334.11658"
               y="141.23755"
               id="tspan5703-2">Talons legérement vers l’extérieur </tspan><tspan
               sodipodi:role="line"
               style="font-style:normal;font-variant:normal;font-weight:normal;font-stretch:normal;font-size:9.7098875px;line-height:100%;font-family:'Droid Sans';-inkscape-font-specification:'Droid Sans, Normal';text-align:start;writing-mode:lr-tb;text-anchor:start"
               x="334.11658"
               y="150.94743"
               id="tspan5728">(cela force à coller reserrer les genoux)</tspan></text>
<text
             sodipodi:linespacing="100%"
             id="text13206-2-6-9"
             y="124.22628"
             x="-160.04379"
             style="font-style:normal;font-variant:normal;font-weight:normal;font-stretch:normal;font-size:9.7098875px;line-height:100%;font-family:'Courier 10 Pitch';-inkscape-font-specification:'Courier 10 Pitch, Normal';text-align:start;letter-spacing:-0.24274716px;word-spacing:0px;writing-mode:lr-tb;text-anchor:start;fill:#000000;fill-opacity:1;stroke:none;stroke-width:1px;stroke-linecap:butt;stroke-linejoin:miter;stroke-opacity:1"
             xml:space="preserve"
             transform="scale(1,-1)"><tspan
               sodipodi:role="line"
               style="font-style:normal;font-variant:normal;font-weight:normal;font-stretch:normal;font-size:9.7098875px;line-height:100%;font-family:'Droid Sans';-inkscape-font-specification:'Droid Sans, Normal';text-align:start;writing-mode:lr-tb;text-anchor:start;fill:#000000"
               x="-160.04379"
               y="124.22628"
               id="tspan5728-7">Genoux et cuisses collées au réservoir</tspan><tspan
               sodipodi:role="line"
               style="font-style:normal;font-variant:normal;font-weight:normal;font-stretch:normal;font-size:9.7098875px;line-height:100%;font-family:'Droid Sans';-inkscape-font-specification:'Droid Sans, Normal';text-align:start;writing-mode:lr-tb;text-anchor:start;fill:#000000"
               x="-160.04379"
               y="133.93617"
               id="tspan5811">(meilleur retour sur l'inclinaison de la moto)</tspan></text>
<text
             sodipodi:linespacing="100%"
             id="text13206-2-6-9-7"
             y="66.541817"
             x="225.62894"
             style="font-style:normal;font-variant:normal;font-weight:normal;font-stretch:normal;font-size:9.7098875px;line-height:100%;font-family:'Courier 10 Pitch';-inkscape-font-specification:'Courier 10 Pitch, Normal';text-align:start;letter-spacing:-0.24274714px;word-spacing:0px;writing-mode:lr-tb;text-anchor:start;fill:#000000;fill-opacity:1;stroke:none;stroke-width:1px;stroke-linecap:butt;stroke-linejoin:miter;stroke-opacity:1"
             xml:space="preserve"
             transform="scale(1,-1)"><tspan
               sodipodi:role="line"
               style="font-style:normal;font-variant:normal;font-weight:normal;font-stretch:normal;font-size:9.7098875px;line-height:100%;font-family:'Droid Sans';-inkscape-font-specification:'Droid Sans, Normal';text-align:start;writing-mode:lr-tb;text-anchor:start"
               x="225.62894"
               y="66.541817"
               id="tspan5728-7-2">Roustons contre le réservoir</tspan><tspan
               sodipodi:role="line"
               style="font-style:normal;font-variant:normal;font-weight:normal;font-stretch:normal;font-size:9.7098875px;line-height:100%;font-family:'Droid Sans';-inkscape-font-specification:'Droid Sans, Normal';text-align:start;writing-mode:lr-tb;text-anchor:start"
               x="225.62894"
               y="76.251701"
               id="tspan5771">(pour le plus à l’avant et avoir plus de portée avec les bras)</tspan></text>
<text
             sodipodi:linespacing="100%"
             id="text13206-2-6-9-6"
             y="17.678982"
             x="191.81636"
             style="font-style:normal;font-variant:normal;font-weight:normal;font-stretch:normal;font-size:9.7098875px;line-height:100%;font-family:'Courier 10 Pitch';-inkscape-font-specification:'Courier 10 Pitch, Normal';text-align:start;letter-spacing:-0.24274714px;word-spacing:0px;writing-mode:lr-tb;text-anchor:start;fill:#000000;fill-opacity:1;stroke:none;stroke-width:1px;stroke-linecap:butt;stroke-linejoin:miter;stroke-opacity:1"
             xml:space="preserve"
             transform="scale(1,-1)"><tspan
               sodipodi:role="line"
               style="font-style:normal;font-variant:normal;font-weight:normal;font-stretch:normal;font-size:9.7098875px;line-height:100%;font-family:'Droid Sans';-inkscape-font-specification:'Droid Sans, Normal';text-align:start;writing-mode:lr-tb;text-anchor:start"
               x="191.81636"
               y="17.678982"
               id="tspan5728-7-8">Dos droit et légerement incliné vers l’avant</tspan></text>
<text
             sodipodi:linespacing="100%"
             id="text13206-2-6-9-6-4"
             y="-9.2491856"
             x="-111.605"
             style="font-style:normal;font-variant:normal;font-weight:normal;font-stretch:normal;font-size:9.7098875px;line-height:100%;font-family:'Courier 10 Pitch';-inkscape-font-specification:'Courier 10 Pitch, Normal';text-align:start;letter-spacing:-0.24274713px;word-spacing:0px;writing-mode:lr-tb;text-anchor:start;fill:#000000;fill-opacity:1;stroke:none;stroke-width:1px;stroke-linecap:butt;stroke-linejoin:miter;stroke-opacity:1"
             xml:space="preserve"
             transform="scale(1,-1)"><tspan
               sodipodi:role="line"
               style="font-style:normal;font-variant:normal;font-weight:normal;font-stretch:normal;font-size:9.7098875px;line-height:100%;font-family:'Droid Sans';-inkscape-font-specification:'Droid Sans, Normal';text-align:start;writing-mode:lr-tb;text-anchor:start"
               x="-111.605"
               y="-9.2491856"
               id="tspan5728-7-8-1">Bras détendus, avant-bras à l’horizontal</tspan><tspan
               sodipodi:role="line"
               style="font-style:normal;font-variant:normal;font-weight:normal;font-stretch:normal;font-size:9.7098875px;line-height:100%;font-family:'Droid Sans';-inkscape-font-specification:'Droid Sans, Normal';text-align:start;writing-mode:lr-tb;text-anchor:start"
               x="-111.605"
               y="0.46070194"
               id="tspan5809">(pour que la poussée sur le guidon plus efficace)</tspan></text>
<path
             style="fill:#ff00ff;fill-rule:evenodd;stroke:#ff00ff;stroke-width:0.97098875;stroke-linecap:butt;stroke-linejoin:miter;stroke-miterlimit:4;stroke-dasharray:none;stroke-opacity:1;marker-start:url(#Arrow2Mstart)"
             d="M 120.03651,-137.89869 -0.65173928,-119.72486"
             id="path5813"
             inkscape:connector-curvature="0"
             sodipodi:nodetypes="cc" /><path
             style="fill:#ff00ff;fill-rule:evenodd;stroke:#ff00ff;stroke-width:0.97098869;stroke-linecap:butt;stroke-linejoin:miter;stroke-miterlimit:4;stroke-dasharray:none;stroke-opacity:1;marker-start:url(#Arrow2Mstart-8)"
             d="M 105.92897,-63.002675 55.859434,-3.1369369"
             id="path5813-5"
             inkscape:connector-curvature="0"
             sodipodi:nodetypes="cc" /><path
             style="fill:#ff00ff;fill-rule:evenodd;stroke:#ff00ff;stroke-width:0.97098863;stroke-linecap:butt;stroke-linejoin:miter;stroke-miterlimit:4;stroke-dasharray:none;stroke-opacity:1;marker-start:url(#Arrow2Mstart-8-1)"
             d="m 166.15694,-44.639594 23.9463,27.755925"
             id="path5813-5-9"
             inkscape:connector-curvature="0"
             sodipodi:nodetypes="cc" /><path
             style="fill:#ff00ff;fill-rule:evenodd;stroke:#ff00ff;stroke-width:0.97098863;stroke-linecap:butt;stroke-linejoin:miter;stroke-miterlimit:4;stroke-dasharray:none;stroke-opacity:1;marker-start:url(#Arrow2Mstart-8-9)"
             d="m 180.5051,-107.45194 43.58404,37.524792"
             id="path5813-5-4"
             inkscape:connector-curvature="0"
             sodipodi:nodetypes="cc" /><path
             style="fill:#ff00ff;fill-rule:evenodd;stroke:#ff00ff;stroke-width:0.97098857;stroke-linecap:butt;stroke-linejoin:miter;stroke-miterlimit:4;stroke-dasharray:none;stroke-opacity:1;marker-start:url(#Arrow2Mstart-8-9-7)"
             d="m 172.72501,-194.63767 160.0982,51.81163"
             id="path5813-5-4-1"
             inkscape:connector-curvature="0"
             sodipodi:nodetypes="cc" /><path
             style="fill:#ff00ff;fill-rule:evenodd;stroke:#ff00ff;stroke-width:0.97098851;stroke-linecap:butt;stroke-linejoin:miter;stroke-miterlimit:4;stroke-dasharray:none;stroke-opacity:1;marker-start:url(#Arrow2Mstart-8-9-7-1)"
             d="m 150.99799,-215.05783 -9.13788,-36.36287"
             id="path5813-5-4-1-8"
             inkscape:connector-curvature="0"
             sodipodi:nodetypes="cc" /></g></g></g></g></svg>