<svg height="251.98mm" viewBox="0 0 1315.94 892.84" width="371.39mm" xmlns="http://www.w3.org/2000/svg" xmlns:xlink="http://www.w3.org/1999/xlink">
<marker id="a" orient="auto" refX="0" refY="0" style="overflow:visible">
<path d="m0 0 5-5-17.5 5 17.5 5z" style="fill:#f00;fill-rule:evenodd;stroke:#f00;stroke-width:1pt" transform="matrix(-.8 0 0 -.8 -10 0)"/>
</marker>
<marker id="b" orient="auto" refX="0" refY="0" style="overflow:visible">
<path d="m0 0 5-5-17.5 5 17.5 5z" style="fill:#f00;fill-rule:evenodd;stroke:#f00;stroke-width:1pt" transform="matrix(-.8 0 0 -.8 -10 0)"/>
</marker>
<g style="fill-rule:evenodd">
<path d="m3.22 80.55 320.32 220 5.63.13 320.32-220z" style="fill:#94ff48;stroke:#6ec814;stroke-width:2;stroke-dasharray:8 4"/>
<path d="m1053.02 584.38-976.88 260.13 188.59-.19z" style="fill:#ff5b5b"/>
<path d="m1052.28 585.25-788.36 259.28 217.89.07z" style="fill:#94ff48"/>
<path d="m1052.1 586.55-570.82 258.34 264.95.98z" style="fill:#ff5b5b"/>
</g>
<path d="m1270.3 500.14s4.43-121.49 1.98-164.39c-5.65-76.82-27.73-139-56.32-188.97-41.06-71.11-165.68-116.25-237.83-104.45-68.75 11.25-287.36 181.34-330.92 224.89" style="fill:none;stroke:#007d00;stroke-width:2;stroke-dasharray:12 2"/>
<text x="142.87" y="471.13"/>
<path d="m656.57 267.67-10.15-.71 3.19-10.72" style="fill:none;stroke:#007d00;stroke-width:2"/>
<text x="413.69" y="42.52">
<tspan x="413.69" y="42.52"/>
</text>
<text style="font-size:15;font-family:Droid Sans;letter-spacing:-.25;word-spacing:0" x="867.07" y="145.43">
<tspan style="font-size:15;font-family:Droid Sans" x="867.07" y="145.43">Dans un virage a gauche de plus de 90 degres</tspan>
<tspan style="font-size:15;font-family:Droid Sans" x="867.07" y="160.43">On place le regard en deux temps</tspan>
</text>
<g style="fill:none">
<g style="stroke:#505050">
<path d="m1281.11 499.74c0-131.38 26.81-358.89-183.14-466.73-198.89-102.16-333.1 68.95-451.5 187.35" style="stroke-width:3;stroke-dasharray:.3 .3"/>
<path d="m1198.13 500.55c0-59.58-3.01-381.08-164.17-409.58-210.47-37.23-336.07 199.62-377.31 249.33" style="stroke-width:5;stroke-dasharray:40 40"/>
<path d="m1112.27 499.93c0-77.06 9.72-275.51-97.12-318.44-134.91-54.21-288.45 182.4-323.47 233.06" style="stroke-width:3;stroke-dasharray:.3 .3"/>
</g>
<path d="m1264.19 495.5 6.17-8.1 7.21 8.55" style="stroke:#007d00;stroke-width:2"/>
</g>
<text x="836.59" y="320.89">
<tspan x="836.59" y="320.89"/>
</text>
<text x="1010.62" y="336.39">
<tspan x="1010.62" y="336.39"/>
</text>
<path d="m0 0c-1.93 0-3.5 1.57-3.5 3.5s1.57 3.5 3.5 3.5 3.5-1.57 3.5-3.5-1.57-3.5-3.5-3.5m0 9c-3.04 0-5.5-2.46-5.5-5.5s2.46-5.5 5.5-5.5 5.5 2.46 5.5 5.5-2.46 5.5-5.5 5.5" style="fill:#99aab5" transform="matrix(.36 2.69 2.31 -.31 1245.62 303.02)"/>
<path d="m0 0c-1.93 0-3.5 1.57-3.5 3.5s1.57 3.5 3.5 3.5 3.5-1.57 3.5-3.5-1.57-3.5-3.5-3.5m0 9c-3.04 0-5.5-2.46-5.5-5.5s2.46-5.5 5.5-5.5 5.5 2.46 5.5 5.5-2.46 5.5-5.5 5.5" style="fill:#99aab5" transform="matrix(.36 2.69 2.31 -.31 1253.9 364.9)"/>
<path d="m0 0c-2.49 0-4.5 2.02-4.5 4.5 0 2.49 2.01 4.5 4.5 4.5s4.5-2.01 4.5-4.5c0-2.48-2.01-4.5-4.5-4.5m0 11c-3.59 0-6.5-2.91-6.5-6.5s2.91-6.5 6.5-6.5 6.5 2.91 6.5 6.5-2.91 6.5-6.5 6.5" style="fill:#292f33" transform="matrix(.36 2.69 2.31 -.31 1243.52 303.31)"/>
<path d="m0 0c-2.49 0-4.5 2.02-4.5 4.5 0 2.49 2.01 4.5 4.5 4.5s4.5-2.01 4.5-4.5c0-2.48-2.01-4.5-4.5-4.5m0 11c-3.59 0-6.5-2.91-6.5-6.5s2.91-6.5 6.5-6.5 6.5 2.91 6.5 6.5-2.91 6.5-6.5 6.5" style="fill:#292f33" transform="matrix(.36 2.69 2.31 -.31 1251.8 365.18)"/>
<path d="m0 0c-2-4 1-2.59 2-.59.91 1.81 3.44 2.43 4.66.38-.95 3.05-3.8 5.26-7.16 5.26-1.37 0-2.66-.38-3.76-1.02 2.83-.16 5.36-1.83 4.26-4.03" style="fill:#77b255" transform="matrix(.36 2.69 2.31 -.31 1259.54 302.53)"/>
<path d="m0 0c0-.55-.45-1-1-1h-9c-.55 0-1 .45-1 1s.45 1 1 1h9c.55 0 1-.45 1-1" style="fill:#99aab5" transform="matrix(.36 2.69 2.31 -.31 1263.32 365)"/>
<path d="m0 0c-.43-.34-1.06-.27-1.41.16l-5.6 7.05c-.34.43-.27 1.06.16 1.41.43.34 1.06.27 1.41-.16l5.6-7.05c.34-.44.27-1.07-.16-1.41" style="fill:#99aab5" transform="matrix(.36 2.69 2.31 -.31 1260.27 365.19)"/>
<path d="m0 0c.47-.3.6-.92.3-1.38l-4.85-7.58c-.3-.47-.92-.6-1.38-.3-.47.3-.6.92-.3 1.38l4.85 7.58c.3.46.91.6 1.38.3" style="fill:#ccd6dd" transform="matrix(.36 2.69 2.31 -.31 1276.94 315.14)"/>
<path d="m0 0c-.81-.59-4.53-1.63-1.53-3.63s5.09-4.13 5.09-6c0-2.67-.66-4 .91-4h7s-1 4 2 7 5 2 8 3c1.9.63 4 2 4 3s0 2-2 1-1-1.55-3-.55-3.16-.45-4.16-.45-7.62-1.68-8.62.05c-.55.95-1.78 1.95-3.6 1.95-1.32 0-3.12-.67-4.09-1.37" style="fill:#77b255" transform="matrix(.36 2.69 2.31 -.31 1283.18 309.02)"/>
<path d="m0 0c0-1.1-.9-2-2-2s-2 .9-2 2c0 1.11.9 2 2 2 1.11 0 2-.9 2-2" style="fill:#66757f" transform="matrix(.36 2.69 2.31 -.31 1260.08 340.79)"/>
<path d="m0 0-9.28-3.73s-1.01 1.35-1.12 2.78c2.23 1.15 8.09 3.41 9.28 3.73 1.26-.73 1.12-2.78 1.12-2.78z" style="fill:#ccd6dd" transform="matrix(.44 3.25 1.92 -.26 1270.72 386.66)"/>
<path d="m.38.14-9.82-3.93-.39.96 9.82 3.93z" style="fill:#fff" transform="matrix(.44 3.25 1.92 -.26 1272.34 385.21)"/>
<path d="m0 0s-8.05-3.73-9.28-3.73c-.28.28-.55.85-.55.85l9.62 3.89c.27.46.21-1.01.21-1.01z" style="fill:#66757f" transform="matrix(.44 3.25 1.92 -.26 1270.72 386.66)"/>
<path d="m0 0c1.37-.39 5.65.01 6.8.1 1.16.09 1.59-.45 0-1.25-1.8-.9-5.61-3.16-6.8-3.63-1-.39-4.5 1.21-4.92 1.7-.41.48 3.75 3.41 4.92 3.08" style="fill:#292f33" transform="matrix(.36 2.69 2.31 -.31 1284.45 332.04)"/>
<path d="m0 0c-1.55-.04-3 0-4 0s-1.16-1.1 1.55-1.1 2.45 1.1 2.45 1.1" style="fill:#292f33" transform="matrix(.36 2.69 2.31 -.31 1292.48 372.04)"/>
<path d="m0 0c0 1.47 4.46 5.13 3.98 4.48-1.15-1.58-.49-3.48 1.48-3.48 1.98 0 2.71-6.52-.2-5.04-2.9 1.47-5.26 3.32-5.26 4.04" style="fill:#77b255" transform="matrix(.36 2.69 2.31 -.31 1281.68 290.63)"/>
<path d="m0 0c.7-.61.35-1.69-1.05-3.49-1.39-1.79-3.58-2.52-2.35-.54 1.22 1.98 3.4 4.03 3.4 4.03" style="fill:#ccd6dd" transform="matrix(.36 2.69 2.31 -.31 1298.19 301.75)"/>
<path d="m0 0c-.19-.48-.73-.71-1.21-.52l-.13.05c-.48.19-.71.73-.52 1.21l.8 1.99c.19.48.73.71 1.21.52l.13-.05c.48-.19.71-.73.52-1.21z" style="fill:#66757f" transform="matrix(.36 2.69 2.31 -.31 1283.18 309.02)"/>
<path d="m0 0c.09-.26-.04-.55-.3-.64l-1.88-.68c-.26-.09-.55.04-.64.3s.04.55.3.64l1.88.68c.26.09.55-.04.64-.3" style="fill:#292f33" transform="matrix(.36 2.69 2.31 -.31 1291.84 314.37)"/>
<path d="m0 0c-1.93 0-3.5 1.57-3.5 3.5s1.57 3.5 3.5 3.5 3.5-1.57 3.5-3.5-1.57-3.5-3.5-3.5m0 9c-3.04 0-5.5-2.46-5.5-5.5s2.46-5.5 5.5-5.5 5.5 2.46 5.5 5.5-2.46 5.5-5.5 5.5" style="fill:#99aab5" transform="matrix(2.56 .92 .79 -2.2 1054.42 67.61)"/>
<path d="m0 0c-1.93 0-3.5 1.57-3.5 3.5s1.57 3.5 3.5 3.5 3.5-1.57 3.5-3.5-1.57-3.5-3.5-3.5m0 9c-3.04 0-5.5-2.46-5.5-5.5s2.46-5.5 5.5-5.5 5.5 2.46 5.5 5.5-2.46 5.5-5.5 5.5" style="fill:#99aab5" transform="matrix(2.56 .92 .79 -2.2 1113.3 88.77)"/>
<path d="m0 0c-2.49 0-4.5 2.02-4.5 4.5 0 2.49 2.01 4.5 4.5 4.5s4.5-2.01 4.5-4.5c0-2.48-2.01-4.5-4.5-4.5m0 11c-3.59 0-6.5-2.91-6.5-6.5s2.91-6.5 6.5-6.5 6.5 2.91 6.5 6.5-2.91 6.5-6.5 6.5" style="fill:#292f33" transform="matrix(2.56 .92 .79 -2.2 1053.7 69.61)"/>
<path d="m0 0c-2.49 0-4.5 2.02-4.5 4.5 0 2.49 2.01 4.5 4.5 4.5s4.5-2.01 4.5-4.5c0-2.48-2.01-4.5-4.5-4.5m0 11c-3.59 0-6.5-2.91-6.5-6.5s2.91-6.5 6.5-6.5 6.5 2.91 6.5 6.5-2.91 6.5-6.5 6.5" style="fill:#292f33" transform="matrix(2.56 .92 .79 -2.2 1112.58 90.77)"/>
<path d="m0 0c-2-4 1-2.59 2-.59.91 1.81 3.44 2.43 4.66.38-.95 3.05-3.8 5.26-7.16 5.26-1.37 0-2.66-.38-3.76-1.02 2.83-.16 5.36-1.83 4.26-4.03" style="fill:#77b255" transform="matrix(2.56 .92 .79 -2.2 1060.4 54.98)"/>
<path d="m0 0c0-.55-.45-1-1-1h-9c-.55 0-1 .45-1 1s.45 1 1 1h9c.55 0 1-.45 1-1" style="fill:#99aab5" transform="matrix(2.56 .92 .79 -2.2 1117.74 80.43)"/>
<path d="m0 0c-.43-.34-1.06-.27-1.41.16l-5.6 7.05c-.34.43-.27 1.06.16 1.41.43.34 1.06.27 1.41-.16l5.6-7.05c.34-.44.27-1.07-.16-1.41" style="fill:#99aab5" transform="matrix(2.56 .92 .79 -2.2 1116.5 83.24)"/>
<path d="m0 0c.47-.3.6-.92.3-1.38l-4.85-7.58c-.3-.47-.92-.6-1.38-.3-.47.3-.6.92-.3 1.38l4.85 7.58c.3.46.91.6 1.38.3" style="fill:#ccd6dd" transform="matrix(2.56 .92 .79 -2.2 1079.66 45.31)"/>
<path d="m0 0c-.81-.59-4.53-1.63-1.53-3.63s5.09-4.13 5.09-6c0-2.67-.66-4 .91-4h7s-1 4 2 7 5 2 8 3c1.9.63 4 2 4 3s0 2-2 1-1-1.55-3-.55-3.16-.45-4.16-.45-7.62-1.68-8.62.05c-.55.95-1.78 1.95-3.6 1.95-1.32 0-3.12-.67-4.09-1.37" style="fill:#77b255" transform="matrix(2.56 .92 .79 -2.2 1077.08 36.93)"/>
<path d="m0 0c0-1.1-.9-2-2-2s-2 .9-2 2c0 1.11.9 2 2 2 1.11 0 2-.9 2-2" style="fill:#66757f" transform="matrix(2.56 .92 .79 -2.2 1094.7 72.15)"/>
<path d="m0 0-9.28-3.73s-1.01 1.35-1.12 2.78c2.23 1.15 8.09 3.41 9.28 3.73 1.26-.73 1.12-2.78 1.12-2.78z" style="fill:#ccd6dd" transform="matrix(3.1 1.11 .66 -1.83 1140.43 83.83)"/>
<path d="m.38.14-9.82-3.93-.39.96 9.82 3.93z" style="fill:#fff" transform="matrix(3.1 1.11 .66 -1.83 1139.89 81.72)"/>
<path d="m0 0s-8.05-3.73-9.28-3.73c-.28.28-.55.85-.55.85l9.62 3.89c.27.46.21-1.01.21-1.01z" style="fill:#66757f" transform="matrix(3.1 1.11 .66 -1.83 1140.43 83.83)"/>
<path d="m0 0c1.37-.39 5.65.01 6.8.1 1.16.09 1.59-.45 0-1.25-1.8-.9-5.61-3.16-6.8-3.63-1-.39-4.5 1.21-4.92 1.7-.41.48 3.75 3.41 4.92 3.08" style="fill:#292f33" transform="matrix(2.56 .92 .79 -2.2 1098.16 46.42)"/>
<path d="m0 0c-1.55-.04-3 0-4 0s-1.16-1.1 1.55-1.1 2.45 1.1 2.45 1.1" style="fill:#292f33" transform="matrix(2.56 .92 .79 -2.2 1137.46 57.71)"/>
<path d="m0 0c0 1.47 4.46 5.13 3.98 4.48-1.15-1.58-.49-3.48 1.48-3.48 1.98 0 2.71-6.52-.2-5.04-2.9 1.47-5.26 3.32-5.26 4.04" style="fill:#77b255" transform="matrix(2.56 .92 .79 -2.2 1060.03 29.78)"/>
<path d="m0 0c.7-.61.35-1.69-1.05-3.49-1.39-1.79-3.58-2.52-2.35-.54 1.22 1.98 3.4 4.03 3.4 4.03" style="fill:#ccd6dd" transform="matrix(2.56 .92 .79 -2.2 1077.54 20.21)"/>
<path d="m0 0c-.19-.48-.73-.71-1.21-.52l-.13.05c-.48.19-.71.73-.52 1.21l.8 1.99c.19.48.73.71 1.21.52l.13-.05c.48-.19.71-.73.52-1.21z" style="fill:#66757f" transform="matrix(2.56 .92 .79 -2.2 1077.08 36.93)"/>
<path d="m0 0c.09-.26-.04-.55-.3-.64l-1.88-.68c-.26-.09-.55.04-.64.3s.04.55.3.64l1.88.68c.26.09.55-.04.64-.3" style="fill:#292f33" transform="matrix(2.56 .92 .79 -2.2 1085.85 31.69)"/>
<path d="m1282.97 298.28-173.37-295.92" style="fill:none;stroke:#f00;stroke-width:1.5;marker-end:url(#a)"/>
<path d="m1065.13 31.74-431.43 206.25" style="fill:none;stroke:#f00;stroke-width:1.5;marker-end:url(#b)"/>
<path d="m0 0c-1.93 0-3.5 1.57-3.5 3.5s1.57 3.5 3.5 3.5 3.5-1.57 3.5-3.5-1.57-3.5-3.5-3.5m0 9c-3.04 0-5.5-2.46-5.5-5.5s2.46-5.5 5.5-5.5 5.5 2.46 5.5 5.5-2.46 5.5-5.5 5.5" style="fill:#99aab5" transform="matrix(9.01 0 0 -9.01 953.45 818.83)"/>
<path d="m0 0c-1.93 0-3.5 1.57-3.5 3.5s1.57 3.5 3.5 3.5 3.5-1.57 3.5-3.5-1.57-3.5-3.5-3.5m0 9c-3.04 0-5.5-2.46-5.5-5.5s2.46-5.5 5.5-5.5 5.5 2.46 5.5 5.5-2.46 5.5-5.5 5.5" style="fill:#99aab5" transform="matrix(9.01 0 0 -9.01 1203.95 818.83)"/>
<path d="m0 0c-2.49 0-4.5 2.02-4.5 4.5 0 2.49 2.01 4.5 4.5 4.5s4.5-2.01 4.5-4.5c0-2.48-2.01-4.5-4.5-4.5m0 11c-3.59 0-6.5-2.91-6.5-6.5s2.91-6.5 6.5-6.5 6.5 2.91 6.5 6.5-2.91 6.5-6.5 6.5" transform="matrix(9.01 0 0 -9.01 953.45 827.03)"/>
<path d="m0 0c-2.49 0-4.5 2.02-4.5 4.5 0 2.49 2.01 4.5 4.5 4.5s4.5-2.01 4.5-4.5c0-2.48-2.01-4.5-4.5-4.5m0 11c-3.59 0-6.5-2.91-6.5-6.5s2.91-6.5 6.5-6.5 6.5 2.91 6.5 6.5-2.91 6.5-6.5 6.5" transform="matrix(9.01 0 0 -9.01 1203.95 827.03)"/>
<path d="m.27-.27c-2-4 .12-2.15 1.12-.15.91 1.81 4.05 2.26 5.27.21-.95 3.05-3.8 5.26-7.16 5.26-1.38 0-2.66-.37-3.76-1.02 2.83-.16 5.8-1.83 4.7-4.03" style="fill:#77b255" transform="matrix(9.01 0 0 -9.01 957.96 765.22)"/>
<path d="m0 0c0-.55-.45-1-1-1h-9c-.55 0-1 .45-1 1s.45 1 1 1h9c.55 0 1-.45 1-1" style="fill:#99aab5" transform="matrix(9.01 0 0 -9.01 1208.45 782.79)"/>
<path d="m0 0c-.43-.34-1.06-.27-1.41.16l-5.6 7.05c-.34.43-.27 1.06.16 1.41.43.34 1.06.27 1.41-.16l5.6-7.05c.34-.44.27-1.07-.16-1.41" style="fill:#99aab5" transform="matrix(9.01 0 0 -9.01 1207.73 794.59)"/>
<path d="m-20.82-12.89c.47-.3.13-.92-.17-1.38l-4.66-7.58c-.3-.47-.63-.6-1.1-.3s-.35.92-.05 1.38l4.85 7.58c.3.47.66.6 1.13.3" style="fill:#ccd6dd" transform="matrix(9.64 0 0 -9.55 1208.36 580.05)"/>
<path d="m0 0c-.81-.59-2.61-1.77-1.53-4.59 1.29-3.37 1.6-3.85 2.42-5.8 1.04-2.45 2.02-3.24 3.58-3.24h7s-1 4 2 7 5 2 8 3c1.9.63 4 2 4 3s0 2-2 1-1-1.55-3-.55-3.16-.45-4.16-.45-7.62-1.68-8.62.05c-.55.95-1.78 1.95-3.6 1.95-1.32 0-3.12-.67-4.09-1.37" style="fill:#77b255" transform="matrix(9.01 0 0 -9.01 1033.02 677.99)"/>
<path d="m0 0c0-1.1-.9-2-2-2s-2 .9-2 2c0 1.11.9 2 2 2 1.11 0 2-.9 2-2" style="fill:#66757f" transform="matrix(9.01 0 0 -9.01 1127.36 782.79)"/>
<path d="m0 0-9.28-3.73s-1.01 1.35-1.12 2.78c2.23 1.15 8.09 3.41 9.28 3.73 1.26-.73 1.12-2.78 1.12-2.78z" style="fill:#ccd6dd" transform="matrix(10.9 0 0 -7.48 1282.99 765.53)"/>
<path d="m.38.14-9.82-3.93-.39.96 9.82 3.93z" style="fill:#fff" transform="matrix(10.9 0 0 -7.48 1278.95 758.58)"/>
<path d="m0 0s-8.05-3.73-9.28-3.73c-.28.28-.55.85-.55.85l9.62 3.89c.27.46.21-1.01.21-1.01z" style="fill:#66757f" transform="matrix(10.9 0 0 -7.48 1282.99 765.53)"/>
<path d="m0 0c1.37-.39 5.65.01 6.8.1 1.16.09 1.59-.45 0-1.25-1.8-.9-5.61-2.75-6.8-3.21-1-.39-4.5.79-4.92 1.28-.41.48 3.75 3.41 4.92 3.08" transform="matrix(9.01 0 0 -9.01 1109.34 684.93)"/>
<path d="m0 0c-1.55-.04-3 0-4 0s-1.16-1.1 1.55-1.1 2.45 1.1 2.45 1.1" transform="matrix(9.01 0 0 -9.01 1244.5 674.66)"/>
<path d="m0 0c0 1.47 4.46 5.13 3.98 4.48-1.15-1.58.48-4.23 2.17-5.26 1.56-.96.58-7.69-.77-4.72-1 2.19-6.28.93-5.38 5.5" style="fill:#77b255" transform="matrix(9.01 0 0 -9.01 971.83 674.3)"/>
<path d="m0 0c.7-.61.35-1.69-1.05-3.49-1.39-1.79-3.58-2.52-2.35-.54 1.22 1.98 3.4 4.03 3.4 4.03" style="fill:#ccd6dd" transform="matrix(9.01 0 0 -9.01 1015.71 616.72)"/>
<path d="m-.37-.09c-.31-.41-.89-.49-1.3-.19l-.12.09c-.41.31-.49.89-.19 1.3l1.29 1.72c.31.41.89.49 1.3.19l.12-.1c.41-.3.49-.88.18-1.29z" style="fill:#66757f" transform="matrix(9.01 0 0 -9.01 1025.63 679.16)"/>
<path d="m0 0c.09-.26-.04-.55-.3-.64l-1.88-.68c-.26-.09-.55.04-.64.3s.04.55.3.64l1.88.68c.26.09.55-.04.64-.3" style="fill:#292f33" transform="matrix(9.01 0 0 -9.01 1047.07 650.6)"/>
<g style="fill:none">
<g style="stroke:#00f;stroke-width:2.78" transform="matrix(1.08 0 0 -1.08 965.7 612.23)">
<circle cx="102.06" cy="-32.5" r="21.5" transform="scale(1 -1)"/>
<path d="m111.42 12.07s7.86-40.07 11.81-55.17c3.12-11.95 15.71-32.84 15.71-32.84"/>
<path d="m138.79-75.67-53.57-21.66 38.34-46.93-17.27-12.28"/>
<path d="m114.53-3.59-18.91-34.09-31.05-1.29"/>
</g>
<g style="stroke:#000;stroke-width:2;stroke-dasharray:12 2">
<path d="m1053.47 584.69-571.43 259.56"/>
<path d="m1053.14 584.47-788.47 259.58"/>
<path d="m1052.91 583.73-976.23 260.33"/>
<path d="m1053.8 585.74-306.88 259.56"/>
</g>
</g>
<text style="font-size:15;font-family:Droid Sans;letter-spacing:-.25;word-spacing:0" x="549.37" xml:space="preserve" y="859.23">
<tspan style="font-size:15;font-family:Droid Sans" x="549.37" y="859.23">Regard place trop pres :</tspan>
<tspan style="font-size:15;font-family:Droid Sans" x="549.37" y="874.23"> - sensation de vitesse elevee</tspan>
<tspan style="font-size:15;font-family:Droid Sans" x="549.37" y="889.23"> - risque de blocage a cause de la panique</tspan>
</text>
<text style="font-size:15;font-family:Droid Sans;letter-spacing:-.25;word-spacing:0" x="72.87" xml:space="preserve" y="857.97">
<tspan style="font-size:15;font-family:Droid Sans" x="72.87" y="857.97">Regard place trop loin :</tspan>
<tspan style="font-size:15;font-family:Droid Sans" x="72.87" y="872.97"> - Manque de reperes de position</tspan>
<tspan style="font-size:15;font-family:Droid Sans" x="72.87" y="887.97"> - On ne sait pas ou l'on se trouve par rapport a la chaussee</tspan>
</text>
<g style="fill-rule:evenodd">
<g style="stroke:#505050">
<path d="m295.9 483.09-10.44 9.93-5 75h15l10-75"/>
<path d="m318.35 333.55h-35v-5h10v5" style="fill:#edd400;stroke-width:2"/>
<path d="m336.37 333.54h35v-5h-10v5" style="fill:#edd400;stroke-width:2"/>
<path d="m355.12 483.17 10.44 9.93 5 75h-15l-10-75"/>
</g>
<path d="m292.22 324.03s19.02-19.93 34.57-19.93c15.33 0 34.46 20.05 34.46 20.05-14.09 5.28-8.91 20.22-8.91 20.22s19.13 2.57 19.13 25.18c0 26.52-21.11 69.03-21.11 69.03s9.55 89.75 9.55 99.99c0 10.22-24.5 35.05-34.27 35.05-10.38 0-34.83-24.52-34.83-35.12 0-10.22 10.43-99.71 10.43-99.71s-19.23-39.94-19.23-69.26c0-17.26 19.68-24.88 19.68-24.88s4.26-15.35-9.48-20.63z" style="fill:#6ec814;stroke:#007d00"/>
<g style="stroke:#000">
<path d="m342.46 324.92 20-10 5-5h10l5 5-5 5h-10l-5-5" style="fill:#babdb6"/>
<path d="m312.38 324.35-20-10-5-5h-10l-5 5 5 5h10l5-5" style="fill:#babdb6"/>
<path d="m326.64 334.49 14.44.13 46.58 12.13-1.69 3.13-44.76-10.5-14.57.13h-15.57l-44.76 10.25-1.69-3.63 46.53-11.31 15.31-.32"/>
</g>
</g>
<circle cx="327.69" cy="367.87" r="9.87" style="stroke:#505050;stroke-width:2"/>
<g style="stroke:#000">
<path d="m295.56 423.1s21.03 15 30 15c9.73 0 30-15 30-15l-10 20c0 10.22 5 25.27 5 35 0 0-14.53 20.46-24.75 20.46-9.99 0-25.25-20.46-25.25-20.46 0-9.74 5-25.26 5-35z" style="fill-rule:evenodd"/>
<path d="m295.56 528.1v15s20.04 20 30 20c9.72 0 30-20 30-20v-15s-19.76-10-30-10c-9.72 0-30 10-30 10z" style="fill-rule:evenodd"/>
<g style="fill:#505050;stroke-width:2">
<circle cx="312.75" cy="337.08" r="4.73"/>
<circle cx="341.08" cy="337.2" r="4.73"/>
<circle cx="327.13" cy="333.16" r="4.73"/>
</g>
</g>
<g style="fill-rule:evenodd">
<path d="m326.47 303.07c5.11 0 24.62 7.38 24.62 7.38s-24.74-.01-24.74 4.99c0-5-25-5.05-25-5.05s20.1-7.31 25.12-7.31z" style="fill:#babdb6;stroke:#babdb6"/>
<path d="m360.56 568.1v5h5v-5" style="stroke:#505050"/>
<path d="m315.56 568.1h20l-5 10h-10z" style="fill:#f00;stroke:#a40000"/>
<g style="stroke:#505050">
<path d="m334.28 568.56h-35v5h10v-5" style="fill:#edd400;stroke-width:2"/>
<path d="m316.9 568.56h35v5h-10v-5" style="fill:#edd400;stroke-width:2"/>
<path d="m285.58 567.6v5h5v-5"/>
</g>
<g style="stroke-width:2;stroke-dasharray:8 4">
<path d="m325.66 301.17-186.8-220 374.76-.27-186.8 220z" style="fill:#f2aa37;stroke:#ff7d00"/>
<path d="m326.05 300.77-90.56-220 181.68-.28-90.56 220z" style="fill:#ff5b5b;stroke:#f00"/>
</g>
</g>
<g style="font-size:15;font-family:Droid Sans;letter-spacing:-.25;word-spacing:0">
<text x="197.74" y="56.44">
<tspan style="font-size:15;font-family:Droid Sans" x="197.74" y="56.44">La vision peripherique diminue avec la vitesse</tspan>
<tspan style="font-size:15;font-family:Droid Sans" x="197.74" y="71.44">Il faut balayer la route du regard en consequence</tspan>
</text>
<text x="487.28" y="138.82">
<tspan style="font-size:15;font-family:Droid Sans" x="487.28" y="138.82">50 km/h</tspan>
</text>
<text x="118.59" y="139.46">
<tspan style="font-size:15;font-family:Droid Sans" x="118.59" y="139.46">50 km/h</tspan>
</text>
<text x="201.73" y="138.39">
<tspan style="font-size:15;font-family:Droid Sans" x="201.73" y="138.39">70 km/h</tspan>
</text>
<text x="406.62" y="138.39">
<tspan style="font-size:15;font-family:Droid Sans" x="406.62" y="138.39">70 km/h</tspan>
</text>
<text x="299.25" y="139.07">
<tspan style="font-size:15;font-family:Droid Sans" x="299.25" y="139.07">100 km/h</tspan>
</text>
</g>
</svg>