<svg height="54.03mm" viewBox="0 0 596.05 191.44" width="168.22mm" xmlns="http://www.w3.org/2000/svg"><text x="-95.7" y="129.63"/><g transform="matrix(.87 .5 -.5 .87 -220.49 146.58)"><g style="fill:none;stroke:#f00"><path d="m254.97-202.72-5.48 20.45 11.29 19.56.48-.28"/><path d="m294.2-203.67 5.48 20.45-11.29 19.56-.48-.28"/></g><g style="fill:none;stroke:#f00" transform="matrix(-1 0 0 1 804.92 -.18)"><circle cx="563.89" cy="-284.7" r="12.8"/><path d="m560.19-272.28-29.94 39.75h-1.38"/><path d="m554.59-265.28 32.33 18.13-15.21 4.47"/><path d="m555.09-265.32-46.14 7.08-18.54 15.82"/></g><g style="stroke:#000" transform="translate(-7.59 -9.11)"><path d="m268.81-211.84s-7.59 1.95-7.59 5.64v9.33c0 3.69 6.94 6.94 6.94 6.94h27.55s8.14-4.88 8.14-8.14v-9.22c0-2.82-8.14-4.99-8.14-4.99" style="fill:#729fcf;fill-rule:evenodd"/><path d="m275.52-180.68v70.1s1.99 2.36 6.44 2.36c5.06 0 7.06-2.36 7.06-2.36v-70.1s-1.84-2.86-6.6-2.86c-5.22.11-6.9 2.86-6.9 2.86z" style="fill:#505050;fill-rule:evenodd"/><g style="fill:#babdb6"><path d="m268.93-201.95h2.76v59.22h-2.76z"/><path d="m267.65-206.29h5.31v4.29h-5.31z"/><path d="m268.9-216.28h2.76v9.97h-2.76z"/><path d="m267.63-220.6h5.31v4.29h-5.31z"/><path d="m269.31-220.74v-4.01l-4.23-4.77-29.61-2.49v-1.74l30.16 2.39 5.64 6.07.11 4.56" style="fill-rule:evenodd"/></g><g style="fill:#babdb6" transform="matrix(-1 0 0 1 564.62 .07)"><path d="m269.08-201.95h2.76v59.22h-2.76z"/><path d="m267.8-206.29h5.31v4.29h-5.31z"/><path d="m269.05-216.28h2.76v9.97h-2.76z"/><path d="m267.78-220.6h5.31v4.29h-5.31z"/><path d="m269.46-220.74v-4.01l-4.23-4.77-29.61-2.49v-1.74l30.16 2.39 5.64 6.07.11 4.56" style="fill-rule:evenodd"/></g><ellipse cx="282.15" cy="-212.28" rx="12.04" ry="11.5" style="fill:#e9b96e"/><g style="fill:none"><path d="m271.77-146.76h3.69v.87h-3.69z"/><path d="m288.98-146.82h3.69v.87h-3.69z"/><path d="m273.36-182.86s.86-3.63 9.15-3.63c7.98 0 8.64 3.34 8.64 3.34"/></g></g></g><g transform="matrix(.87 .5 -.5 .87 -175.77 79.19)"><g style="fill:none;stroke:#f00"><circle cx="404.21" cy="-292.51" r="12.8"/><path d="m403.98-280.08v47.56h-1.38"/><path d="m403.9-271.49 44.9 21.13-7.75 8.37.98.26"/><path d="m403.89-271.45-42.23 19.75 5.1 9.48-.98.26"/><path d="m383.43-202.46-5.48 20.45 11.29 19.56.48-.28"/><path d="m422.66-203.41 5.48 20.45-11.29 19.56-.48-.28"/></g><g style="stroke:#000" transform="translate(120.87 -8.86)"><path d="m268.81-211.84s-7.59 1.95-7.59 5.64v9.33c0 3.69 6.94 6.94 6.94 6.94h27.55s8.14-4.88 8.14-8.14v-9.22c0-2.82-8.14-4.99-8.14-4.99" style="fill:#729fcf;fill-rule:evenodd"/><path d="m275.52-180.68v70.1s1.99 2.36 6.44 2.36c5.06 0 7.06-2.36 7.06-2.36v-70.1s-1.84-2.86-6.6-2.86c-5.22.11-6.9 2.86-6.9 2.86z" style="fill:#505050;fill-rule:evenodd"/><g style="fill:#babdb6"><path d="m268.93-201.95h2.76v59.22h-2.76z"/><path d="m267.65-206.29h5.31v4.29h-5.31z"/><path d="m268.9-216.28h2.76v9.97h-2.76z"/><path d="m267.63-220.6h5.31v4.29h-5.31z"/><path d="m269.31-220.74v-4.01l-4.23-4.77-29.61-2.49v-1.74l30.16 2.39 5.64 6.07.11 4.56" style="fill-rule:evenodd"/></g><g style="fill:#babdb6" transform="matrix(-1 0 0 1 564.62 .07)"><path d="m269.08-201.95h2.76v59.22h-2.76z"/><path d="m267.8-206.29h5.31v4.29h-5.31z"/><path d="m269.05-216.28h2.76v9.97h-2.76z"/><path d="m267.78-220.6h5.31v4.29h-5.31z"/><path d="m269.46-220.74v-4.01l-4.23-4.77-29.61-2.49v-1.74l30.16 2.39 5.64 6.07.11 4.56" style="fill-rule:evenodd"/></g><ellipse cx="282.15" cy="-212.28" rx="12.04" ry="11.5" style="fill:#e9b96e"/><g style="fill:none"><path d="m271.77-146.76h3.69v.87h-3.69z"/><path d="m288.98-146.82h3.69v.87h-3.69z"/><path d="m273.36-182.86s.86-3.63 9.15-3.63c7.98 0 8.64 3.34 8.64 3.34"/></g></g></g><g transform="matrix(.87 .5 -.5 .87 -118.81 13.69)"><g style="fill:none;stroke:#f00"><circle cx="563.89" cy="-284.7" r="12.8"/><path d="m560.19-272.28-29.94 39.75h-1.38"/><path d="m554.59-265.28 32.33 18.13-15.21 4.47"/><path d="m555.09-265.32-46.14 7.08-18.54 15.82"/><path d="m509.7-202.46-5.48 20.45 11.29 19.56.48-.28"/><path d="m548.93-203.41 5.48 20.45-11.29 19.56-.48-.28"/></g><g style="stroke:#000" transform="translate(247.14 -8.86)"><path d="m268.81-211.84s-7.59 1.95-7.59 5.64v9.33c0 3.69 6.94 6.94 6.94 6.94h27.55s8.14-4.88 8.14-8.14v-9.22c0-2.82-8.14-4.99-8.14-4.99" style="fill:#729fcf;fill-rule:evenodd"/><path d="m275.52-180.68v70.1s1.99 2.36 6.44 2.36c5.06 0 7.06-2.36 7.06-2.36v-70.1s-1.84-2.86-6.6-2.86c-5.22.11-6.9 2.86-6.9 2.86z" style="fill:#505050;fill-rule:evenodd"/><g style="fill:#babdb6"><path d="m268.93-201.95h2.76v59.22h-2.76z"/><path d="m267.65-206.29h5.31v4.29h-5.31z"/><path d="m268.9-216.28h2.76v9.97h-2.76z"/><path d="m267.63-220.6h5.31v4.29h-5.31z"/><path d="m269.31-220.74v-4.01l-4.23-4.77-29.61-2.49v-1.74l30.16 2.39 5.64 6.07.11 4.56" style="fill-rule:evenodd"/></g><g style="fill:#babdb6" transform="matrix(-1 0 0 1 564.62 .07)"><path d="m269.08-201.95h2.76v59.22h-2.76z"/><path d="m267.8-206.29h5.31v4.29h-5.31z"/><path d="m269.05-216.28h2.76v9.97h-2.76z"/><path d="m267.78-220.6h5.31v4.29h-5.31z"/><path d="m269.46-220.74v-4.01l-4.23-4.77-29.61-2.49v-1.74l30.16 2.39 5.64 6.07.11 4.56" style="fill-rule:evenodd"/></g><ellipse cx="282.15" cy="-212.28" rx="12.04" ry="11.5" style="fill:#e9b96e"/><g style="fill:none"><path d="m271.77-146.76h3.69v.87h-3.69z"/><path d="m288.98-146.82h3.69v.87h-3.69z"/><path d="m273.36-182.86s.86-3.63 9.15-3.63c7.98 0 8.64 3.34 8.64 3.34"/></g></g></g></svg>