<svg height="503.61" viewBox="0 0 1177.59 503.61" width="1177.59" xmlns="http://www.w3.org/2000/svg" xmlns:xlink="http://www.w3.org/1999/xlink"><marker id="a" orient="auto" refX="0" refY="0" style="overflow:visible"><path d="m2.31 0-3.46 2v-4z" style="fill:#00f;fill-rule:evenodd;stroke:#00f;stroke-width:.4pt"/></marker><marker id="b" orient="auto" refX="0" refY="0" style="overflow:visible"><path d="m2.31 0-3.46 2v-4z" style="fill:#00f;fill-rule:evenodd;stroke:#00f;stroke-width:.4pt"/></marker><marker id="c" orient="auto" refX="0" refY="0" style="overflow:visible"><path d="m2.31 0-3.46 2v-4z" style="fill:#00f;fill-rule:evenodd;stroke:#00f;stroke-width:.4pt"/></marker><marker id="d" orient="auto" refX="0" refY="0" style="overflow:visible"><path d="m2.31 0-3.46 2v-4z" style="fill:#00f;fill-rule:evenodd;stroke:#00f;stroke-width:.4pt"/></marker><marker id="e" orient="auto" refX="0" refY="0" style="overflow:visible"><path d="m2.31 0-3.46 2v-4z" style="fill:#ff8c00;fill-rule:evenodd;stroke:#ff8c00;stroke-width:.4pt"/></marker><marker id="f" orient="auto" refX="0" refY="0" style="overflow:visible"><path d="m2.31 0-3.46 2v-4z" style="fill:#ff8c00;fill-rule:evenodd;stroke:#ff8c00;stroke-width:.4pt"/></marker><marker id="g" orient="auto" refX="0" refY="0" style="overflow:visible"><path d="m2.31 0-3.46 2v-4z" style="fill:#ff8c00;fill-rule:evenodd;stroke:#ff8c00;stroke-width:.4pt"/></marker><marker id="h" orient="auto" refX="0" refY="0" style="overflow:visible"><path d="m2.31 0-3.46 2v-4z" style="fill:#008000;fill-rule:evenodd;stroke:#008000;stroke-width:.4pt"/></marker><marker id="i" orient="auto" refX="0" refY="0" style="overflow:visible"><path d="m2.31 0-3.46 2v-4z" style="fill:#008000;fill-rule:evenodd;stroke:#008000;stroke-width:.4pt"/></marker><marker id="j" orient="auto" refX="0" refY="0" style="overflow:visible"><path d="m2.31 0-3.46 2v-4z" style="fill:#00f;fill-rule:evenodd;stroke:#00f;stroke-width:.4pt"/></marker><marker id="k" orient="auto" refX="0" refY="0" style="overflow:visible"><path d="m2.31 0-3.46 2v-4z" style="fill:#f0f;fill-rule:evenodd;stroke:#f0f;stroke-width:.4pt"/></marker><marker id="l" orient="auto" refX="0" refY="0" style="overflow:visible"><path d="m2.31 0-3.46 2v-4z" style="fill:#f0f;fill-rule:evenodd;stroke:#f0f;stroke-width:.4pt"/></marker><marker id="m" orient="auto" refX="0" refY="0" style="overflow:visible"><path d="m2.31 0-3.46 2v-4z" style="fill:#f0f;fill-rule:evenodd;stroke:#f0f;stroke-width:.4pt"/></marker><marker id="n" orient="auto" refX="0" refY="0" style="overflow:visible"><path d="m2.31 0-3.46 2v-4z" style="fill:#f0f;fill-rule:evenodd;stroke:#f0f;stroke-width:.4pt"/></marker><g transform="translate(15.48 128.41)"><text style="font-family:Droid Sans;letter-spacing:-.5;word-spacing:0" x="184.09" y="359.85"><tspan style="font-size:10" x="184.09" y="359.85">Obtention bail location</tspan></text><path d="m228.45-118.41v462.39" style="fill:none;stroke:#f00;stroke-width:1.5"/><g style="font-family:Droid Sans;letter-spacing:-.5;word-spacing:0"><text x="252.83" xml:space="preserve" y="27.31"><tspan style="font-size:10" x="252.83" y="27.31">Ouvrir compte </tspan><tspan style="font-size:10" x="252.83" y="37.31">banque Suisse</tspan></text><text x="1.41" y="110.95"><tspan style="font-size:10" x="1.41" y="110.95">Contact impots</tspan><tspan style="font-size:10" x="1.41" y="120.95">changer prenom</tspan></text><text x="600.73" y="198.51"><tspan style="font-size:10" x="600.73" y="198.51">Resilier internet</tspan><tspan style="font-size:10" x="600.73" y="208.51">dans le futur</tspan></text><text x="373.93" y="162.46"><tspan style="font-size:10" x="373.93" y="162.46">Preparer documents</tspan><tspan style="font-size:10" x="373.93" y="172.46">douanes suisse/italiennes</tspan><tspan style="font-size:10" x="373.93" y="182.46">demenagement</tspan></text><text x="528.25" y="365.11"><tspan style="font-size:10" x="528.25" y="365.11">Installation en Suisse</tspan></text><text x="835.79" y="362.27"><tspan style="font-size:10" x="835.79" y="362.27">Debut du contrat de travail</tspan></text><text x="256.9" y="280.66"><tspan style="font-size:10" x="256.9" y="280.66">Demande du</tspan><tspan style="font-size:10" x="256.9" y="290.66">permis de travail B</tspan></text><text x=".41" y="309.83"><tspan style="font-size:10" x=".41" y="309.83">Remplir renseignements</tspan><tspan style="font-size:10" x=".41" y="319.83">fragomen</tspan></text><text x="2.3" y="274.13"><tspan style="font-size:10" x="2.3" y="274.13">Remplir renseignements</tspan><tspan style="font-size:10" x="2.3" y="284.13">background checks</tspan></text></g><g transform="translate(7.1 -5.33)"><path d="m587.56-98.23h63.93v37.36h-63.93z" style="fill:none;stroke:#f0f;stroke-width:1.1"/><text style="font-family:Droid Sans;letter-spacing:-.5;word-spacing:0" x="591.93" xml:space="preserve" y="-86.58"><tspan style="font-size:10" x="591.93" y="-86.58">Assurer </tspan><tspan style="font-size:10" x="591.93" y="-76.58">voiture/moto </tspan><tspan style="font-size:10" x="591.93" y="-66.58">en Suisse</tspan></text></g><g style="font-family:Droid Sans;letter-spacing:-.5;word-spacing:0"><text x="914.04" y="-90.83"><tspan style="font-size:10" x="914.04" y="-90.83">Changer permis en</tspan><tspan style="font-size:10" x="914.04" y="-80.83">conduire Suisse</tspan></text><text x="910.05" y="58.18"><tspan style="font-size:10" x="910.05" y="58.18">Resilier compte</tspan><tspan style="font-size:10" x="910.05" y="68.18">societe generale</tspan><tspan style="font-size:10" x="910.05" y="78.18">verser sur boursorama</tspan></text><text x="914.12" y="-59.07"><tspan style="font-size:10" x="914.12" y="-59.07">Passer controle</tspan><tspan style="font-size:10" x="914.12" y="-49.07">technique suisse</tspan><tspan style="font-size:10" x="914.12" y="-39.07">(1 an apres)</tspan></text><text x="1021.91" y="-56.81"><tspan style="font-size:10" x="1021.91" y="-56.81">Immatriculer</tspan><tspan style="font-size:10" x="1021.91" y="-46.81">voiture/moto en</tspan><tspan style="font-size:10" x="1021.91" y="-36.81">Suisse</tspan></text><text x="910.59" xml:space="preserve" y="-.1"><tspan style="font-size:10" x="910.59" y="-.1">Envoyer attestation</tspan><tspan style="font-size:10" x="910.59" y="9.9">residence fiscal Suisse</tspan><tspan style="font-size:10" x="910.59" y="19.9">a Boursorama et </tspan><tspan style="font-size:10" x="910.59" y="29.9">Natixis et PEE Bemore</tspan></text><text x="360.17" y="273.64"><tspan style="font-size:10" x="360.17" y="273.64">Renvoyer documents</tspan><tspan style="font-size:10" x="360.17" y="283.64">Bloomberg + declaration</tspan><tspan style="font-size:10" x="360.17" y="293.64">prelevement a la source</tspan></text></g><text x="704.99" y="283.03"><tspan x="704.99" y="283.03"/><tspan x="704.99" y="293.03"/></text><text x="367.7" y="666.99"><tspan x="367.7" y="666.99"/></text><text style="font-family:Droid Sans;letter-spacing:-.5;word-spacing:0" x="254.3" y="125.12"><tspan style="font-size:10" x="254.3" y="125.12">Appeler service</tspan><tspan style="font-size:10" x="254.3" y="135.12">encombrant pour</tspan><tspan style="font-size:10" x="254.3" y="145.12">jeter meubles</tspan></text><path d="m577.74-111.28v465.97" style="fill:none;stroke:#f00;stroke-width:1.5"/><path d="m891.88-108.9v454.04" style="fill:none;stroke:#f00;stroke-width:1.5"/><g transform="translate(.89 43.5)"><text style="font-family:Droid Sans;letter-spacing:-.5;word-spacing:0" x="5.73" y="3.8"><tspan style="font-size:10" x="5.73" y="3.8">Ouvrir assurance</tspan><tspan style="font-size:10" x="5.73" y="13.8">vie boursorama</tspan></text><path d="m.22-6.64h78.61v25.54h-78.61z" style="fill:none;stroke:#008000;stroke-width:1.1"/></g><g transform="translate(-2.66 -44.39)"><text style="font-family:Droid Sans;letter-spacing:-.5;word-spacing:0" x="2.01" y="44.24"><tspan style="font-size:10" x="2.01" y="44.24">Demander Natixis</tspan><tspan style="font-size:10" x="2.01" y="54.24">Avantages fiscaux PEE</tspan><tspan style="font-size:10" x="2.01" y="64.24">pour expatrie</tspan></text><path d="m-2.26 33.63h96.36v37.08h-96.36z" style="fill:none;stroke:#008000;stroke-width:1.1"/></g><g transform="translate(490.96 102.99)"><text style="font-family:Droid Sans;letter-spacing:-.5;word-spacing:0" x="111.53" y="2.05"><tspan style="font-size:10" x="111.53" y="2.05">Changer RIB</tspan><tspan style="font-size:10" x="111.53" y="12.05">impots 2014</tspan></text><path d="m106.94-8.98h65.29v25.54h-65.29z" style="fill:none;stroke:#00f;stroke-width:1.1"/></g><g style="fill:none;stroke-width:1.1"><g style="stroke:#008000"><path d="m247.89 13.86h72.81v28.68h-72.81z"/><path d="m907.09-14.99h101.22v50.87h-101.22z"/><path d="m906.2 45.82h101.22v38.44h-101.22z"/></g><g style="stroke:#ff8c00"><path d="m-.7 260.33h107.43v29.37h-107.43z"/><path d="m-3.36 297.17h107.43v29.37h-107.43z"/><path d="m252.33 267.87h82.58v29.37h-82.58z"/><path d="m354.43 261.66h110.1v39.14h-110.1z"/></g></g><g transform="translate(10.65 2.66)"><text style="font-family:Droid Sans;letter-spacing:-.5;word-spacing:0" x="479.12" y="275.81"><tspan style="font-size:10" x="479.12" y="275.81">Souscrire a</tspan><tspan style="font-size:10" x="479.12" y="285.81">assurance maladie</tspan></text><path d="m475.17 262.54h83.46v29.37h-83.46z" style="fill:none;stroke:#ff8c00;stroke-width:1.1"/></g><g transform="translate(7.1 -11.54)"><text style="font-family:Droid Sans;letter-spacing:-.5;word-spacing:0" x="593.47" y="275.91"><tspan style="font-size:10" x="593.47" y="275.91">Declaration residence</tspan><tspan style="font-size:10" x="593.47" y="285.91">commune domicile</tspan></text><path d="m589.7 261.66h99.44v29.37h-99.44z" style="fill:none;stroke:#ff8c00;stroke-width:1.1"/></g><path d="m-2.47 98.74h74.59v27.6h-74.59z" style="fill:none;stroke:#00f;stroke-width:1.1"/><g transform="translate(-2.83 -.35)"><text style="font-family:Droid Sans;letter-spacing:-.5;word-spacing:0" x="111.32" y="107.42"><tspan style="font-size:10" x="111.32" y="107.42">Contact impots</tspan><tspan style="font-size:10" x="111.32" y="117.42">Payer impots revenu 2014</tspan><tspan style="font-size:10" x="111.32" y="127.42">Comptes bancaires</tspan></text><path d="m107.17 96.52h113.65v36.48h-113.65z" style="fill:none;stroke:#00f;stroke-width:1.1"/></g><g transform="translate(118.06 36.31)"><text style="font-family:Droid Sans;letter-spacing:-.5;word-spacing:0" x=".35" y="145.86"><tspan style="font-size:10" x=".35" y="145.86">Changer prenom</tspan><tspan style="font-size:10" x=".35" y="155.86">CPAM, URSAFF, CARSAT,</tspan><tspan style="font-size:10" x=".35" y="165.86">AGIRC/ARRCO</tspan></text><path d="m-4.69 134.7h104.77v36.48h-104.77z" style="fill:none;stroke:#00f;stroke-width:1.1"/></g><g transform="translate(-.71)"><text style="font-family:Droid Sans;letter-spacing:-.5;word-spacing:0" x="-.22" y="187.69"><tspan style="font-size:10" x="-.22" y="187.69">Redirection courrier</tspan><tspan style="font-size:10" x="-.22" y="197.69">chez Eduard</tspan></text><path d="m-2.92 176.43h88.79v26.71h-88.79z" style="fill:none;stroke:#00f;stroke-width:1.1"/></g><g transform="translate(0 -71.06)"><text style="font-family:Droid Sans;letter-spacing:-.5;word-spacing:0" x="-.09" y="221.49"><tspan style="font-size:10" x="-.09" y="221.49">Resilier assurance</tspan><tspan style="font-size:10" x="-.09" y="231.49">habitation</tspan></text><path d="m-3.8 210.16h82.58v27.6h-82.58z" style="fill:none;stroke:#00f;stroke-width:1.1"/></g><path d="m249.22 114.28h82.58v35.59h-82.58z" style="fill:none;stroke:#00f;stroke-width:1.1"/><g transform="translate(-2.82 3.14)"><text style="font-family:Droid Sans;letter-spacing:-.5;word-spacing:0" x="256.12" y="165.64"><tspan style="font-size:10" x="256.12" y="165.64">Louer camion</tspan><tspan style="font-size:10" x="256.12" y="175.64">demenagement avec</tspan><tspan style="font-size:10" x="256.12" y="185.64">hayon (1500km)</tspan></text><path d="m251.89 154.23h95v36.48h-95z" style="fill:none;stroke:#00f;stroke-width:1.1"/></g><path d="m369.08 149.79h113.65v36.48h-113.65z" style="fill:none;stroke:#00f;stroke-width:1.1"/><g transform="translate(-122 12)"><text style="font-family:Droid Sans;letter-spacing:-.5;word-spacing:0" x="374.65" xml:space="preserve" y="205.22"><tspan style="font-size:10" x="374.65" y="205.22">Ouvrir compte </tspan><tspan style="font-size:10" x="374.65" y="215.22">elect/eau</tspan><tspan style="font-size:10" x="374.65" y="225.22">telephone et internet</tspan></text><path d="m369.96 193.3h95.89v36.48h-95.89z" style="fill:none;stroke:#00f;stroke-width:1.1"/></g><g transform="translate(127.92 1.57)"><text style="font-family:Droid Sans;letter-spacing:-.5;word-spacing:0" x="257.89" y="215.48"><tspan style="font-size:10" x="257.89" y="215.48">Envoyer</tspan><tspan style="font-size:10" x="257.89" y="225.48">equipements bbox</tspan></text><path d="m253.66 203.06h87.01v26.71h-87.01z" style="fill:none;stroke:#00f;stroke-width:1.1"/></g><path d="m597.24 186.19h93.23v29.37h-93.23z" style="fill:none;stroke:#00f;stroke-width:1.1"/><g transform="translate(4.44 -.89)"><text style="font-family:Droid Sans;letter-spacing:-.5;word-spacing:0" x="685.44" y="-86.69"><tspan style="font-size:10" x="685.44" y="-86.69">Resilier assurance</tspan><tspan style="font-size:10" x="685.44" y="-76.69">voiture/moto</tspan></text><path d="m680.7-99.24h79.91v28.48h-79.91z" style="fill:none;stroke:#f0f;stroke-width:1.1"/></g><g transform="translate(9.77 .89)"><text style="font-family:Droid Sans;letter-spacing:-.5;word-spacing:0" x="783.68" y="-93.22"><tspan style="font-size:10" x="783.68" y="-93.22">Changer prenom</tspan><tspan style="font-size:10" x="783.68" y="-83.22">permis conduire et</tspan><tspan style="font-size:10" x="783.68" y="-73.22">cartes grises Francais</tspan></text><path d="m781.02-105.45h91.45v37.36h-91.45z" style="fill:none;stroke:#f0f;stroke-width:1.1"/></g><g style="fill:none"><g style="stroke:#f0f;stroke-width:1.1"><path d="m911.53-103.68h83.46v27.6h-83.46z"/><path d="m911.53-69.94h73.7v37.36h-73.7z"/><path d="m1018.06-69.94h76.36v37.36h-76.36z"/></g><g style="stroke:#00f"><path d="m72.03 113.04 30.02.26" style="marker-end:url(#a)"/><path d="m84.74 188.84 25.67.26" style="marker-end:url(#b)"/><path d="m343.87 167.04 23.13.26" style="marker-end:url(#c)"/><path d="m468.29 208.62 126.06.26" style="marker-end:url(#d)"/></g><g style="stroke:#ff8c00"><path d="m104.49 309.47 145.59-24.6" style="marker-end:url(#e)"/><path d="m334.53 280.63 17.52-.43" style="marker-end:url(#f)"/><path d="m431.43 301.28 20.59 12.46 38.29.17 14.26-17.46" style="marker-end:url(#g)"/></g><g style="stroke:#008000"><path d="m80.41 49.7 823.69.26" style="marker-end:url(#h)"/><path d="m80.13 57.68 514.74 46.43" style="marker-end:url(#i)"/></g></g><text style="font-family:Droid Sans;letter-spacing:-.5;word-spacing:0" x="445.74" y="322.79"><tspan style="font-size:10" x="445.74" y="322.79">AVS Number</tspan></text><g style="fill:none"><path d="m85.4 180.66 23.61-24.9 103.78-1.17 35.25-53.93 540.2-171.44" style="stroke:#00f;marker-end:url(#j)"/><g style="stroke:#f0f"><path d="m658.87-86.13 24.1.26" style="marker-end:url(#k)"/><path d="m881.54-90.84 27.34.26" style="marker-end:url(#l)"/><path d="m984.6-52.83 30.53.26" style="marker-end:url(#m)"/><path d="m882.1-75.92 27.65 18.46" style="marker-end:url(#n)"/></g></g><text style="font-family:Droid Sans;letter-spacing:-.5;word-spacing:0" x="602.35" xml:space="preserve" y="299.44"><tspan style="font-size:10" x="602.35" y="299.44">Declaration au registre </tspan><tspan style="font-size:10" x="602.35" y="309.44">des francais a l'étranger</tspan><tspan style="font-size:10" x="602.35" y="319.44">au consulat</tspan></text><path d="m597.24 287.4h103.88v37.81h-103.88z" style="fill:none;stroke:#ff8c00;stroke-width:1.1"/><g transform="translate(120.18 -5.85)"><text style="font-family:Droid Sans;letter-spacing:-.5;word-spacing:0" x="909.46" y="120.73"><tspan style="font-size:10" x="909.46" y="120.73">Teledeclaration</tspan><tspan style="font-size:10" x="909.46" y="130.73">Revenu percu en france 2015</tspan><tspan x="909.46" y="140.73"/></text><path d="m905.31 109.84h126.06v27.1h-126.06z" style="fill:none;stroke:#00f;stroke-width:1.1"/></g><text style="font-family:Droid Sans;letter-spacing:-.5;word-spacing:0" x="374.15" y="115.8"><tspan style="font-size:10" x="374.15" y="115.8">Acheter boites et</tspan><tspan style="font-size:10" x="374.15" y="125.8">sangles pour</tspan><tspan style="font-size:10" x="374.15" y="135.8">charer camion</tspan></text><path d="m369.08 104.96h82.58v35.59h-82.58z" style="fill:none;stroke:#00f;stroke-width:1.1"/><text style="font-family:Droid Sans;letter-spacing:-.5;word-spacing:0" x="910.46" y="216.42"><tspan style="font-size:10" x="910.46" y="216.42">Resilier mobile</tspan></text><path d="m906.82 203.96h73.72v19.77h-73.72z" style="fill:none;stroke:#00f;stroke-width:1.1"/><g transform="translate(-.9 -5.85)"><path d="m908.77 150.54h93.23v29.37h-93.23z" style="fill:none;stroke:#00f;stroke-width:1.1"/><text style="font-family:Droid Sans;letter-spacing:-.5;word-spacing:0" x="912.34" y="163.08"><tspan style="font-size:10" x="912.34" y="163.08">Consultation Deloitte</tspan><tspan style="font-size:10" x="912.34" y="173.08">pour impots France</tspan></text></g><g transform="translate(17.55 -40.51)"><path d="m1008.7 180.25h93.23v35.67h-93.23z" style="fill:none;stroke:#00f;stroke-width:1.1"/><text style="font-family:Droid Sans;letter-spacing:-.5;word-spacing:0" x="1012.72" xml:space="preserve" y="191.88"><tspan style="font-size:10" x="1012.72" y="191.88">Consultation Deloitte</tspan><tspan style="font-size:10" x="1012.72" y="201.88">declaration impots</tspan><tspan style="font-size:10" x="1012.72" y="211.88">2015 Suisse </tspan></text></g><g transform="translate(-86.42 -115.23)"><path d="m994.29 222.11h93.23v29.37h-93.23z" style="fill:none;stroke:#00f;stroke-width:1.1"/><text style="font-family:Droid Sans;letter-spacing:-.5;word-spacing:0" x="997.86" y="234.65"><tspan style="font-size:10" x="997.86" y="234.65">Changement adresse</tspan><tspan style="font-size:10" x="997.86" y="244.65">impots + tresorerie</tspan></text></g><path d="m691.03 208.63 212.43.26" style="fill:none;stroke:#00f;marker-end:url(#d)"/><text style="font-family:Droid Sans;letter-spacing:-.5;word-spacing:0" x="913.08" xml:space="preserve" y="282.36"><tspan style="font-size:10" x="913.08" y="282.36">Renvoyer documents </tspan><tspan style="font-size:10" x="913.08" y="292.36">souscription assurance</tspan><tspan style="font-size:10" x="913.08" y="302.36">et retraite a Bloomberg</tspan></text><path d="m907.98 270.33h103.88v37.81h-103.88z" style="fill:none;stroke:#ff8c00;stroke-width:1.1"/></g></svg>