<svg height="650" viewBox="0 0 902.21 414.82" width="1400" xmlns="http://www.w3.org/2000/svg" xmlns:xlink="http://www.w3.org/1999/xlink">
<marker id="a" orient="auto" refX="0" refY="0" style="overflow:visible">
<path d="m2.31 0-3.46 2v-4z" style="fill:#696969;fill-rule:evenodd;stroke:#696969;stroke-width:.4pt"/>
</marker>
<marker id="b" orient="auto" refX="0" refY="0" style="overflow:visible">
<path d="m5.77 0-8.65 5v-10z" style="fill:#696969;fill-rule:evenodd;stroke:#696969;stroke-width:1pt" transform="scale(-.4)"/>
</marker>
<marker id="c" orient="auto" refX="0" refY="0" style="overflow:visible">
<path d="m5.77 0-8.65 5v-10z" style="fill:#696969;fill-rule:evenodd;stroke:#696969;stroke-width:1pt" transform="scale(-.4)"/>
</marker>
<marker id="d" orient="auto" refX="0" refY="0" style="overflow:visible">
<path d="m2.31 0-3.46 2v-4z" style="fill:#696969;fill-rule:evenodd;stroke:#696969;stroke-width:.4pt"/>
</marker>
<marker id="e" orient="auto" refX="0" refY="0" style="overflow:visible">
<path d="m2.31 0-3.46 2v-4z" style="fill:#696969;fill-rule:evenodd;stroke:#696969;stroke-width:.4pt"/>
</marker>
<marker id="f" orient="auto" refX="0" refY="0" style="overflow:visible">
<path d="m2.31 0-3.46 2v-4z" style="fill:#696969;fill-rule:evenodd;stroke:#696969;stroke-width:.4pt"/>
</marker>
<marker id="g" orient="auto" refX="0" refY="0" style="overflow:visible">
<path d="m5.77 0-8.65 5v-10z" style="fill:#696969;fill-rule:evenodd;stroke:#696969;stroke-width:1pt" transform="scale(-.4)"/>
</marker>
<marker id="h" orient="auto" refX="0" refY="0" style="overflow:visible">
<path d="m5.77 0-8.65 5v-10z" style="fill:#696969;fill-rule:evenodd;stroke:#696969;stroke-width:1pt" transform="scale(-.4)"/>
</marker>
<marker id="i" orient="auto" refX="0" refY="0" style="overflow:visible">
<path d="m2.31 0-3.46 2v-4z" style="fill:#696969;fill-rule:evenodd;stroke:#696969;stroke-width:.4pt"/>
</marker>
<marker id="j" orient="auto" refX="0" refY="0" style="overflow:visible">
<path d="m5.77 0-8.65 5v-10z" style="fill:#696969;fill-rule:evenodd;stroke:#696969;stroke-width:1pt" transform="scale(-.4)"/>
</marker>
<marker id="k" orient="auto" refX="0" refY="0" style="overflow:visible">
<path d="m2.31 0-3.46 2v-4z" style="fill:#696969;fill-rule:evenodd;stroke:#696969;stroke-width:.4pt"/>
</marker>
<marker id="l" orient="auto" refX="0" refY="0" style="overflow:visible">
<path d="m2.31 0-3.46 2v-4z" style="fill:#696969;fill-rule:evenodd;stroke:#696969;stroke-width:.4pt"/>
</marker>
<marker id="m" orient="auto" refX="0" refY="0" style="overflow:visible">
<path d="m2.31 0-3.46 2v-4z" style="fill:#696969;fill-rule:evenodd;stroke:#696969;stroke-width:.4pt"/>
</marker>
<marker id="n" orient="auto" refX="0" refY="0" style="overflow:visible">
<path d="m2.31 0-3.46 2v-4z" style="fill:#696969;fill-rule:evenodd;stroke:#696969;stroke-width:.4pt"/>
</marker>
<marker id="o" orient="auto" refX="0" refY="0" style="overflow:visible">
<path d="m5.77 0-8.65 5v-10z" style="fill:#696969;fill-rule:evenodd;stroke:#696969;stroke-width:1pt" transform="scale(-.4)"/>
</marker>
<marker id="p" orient="auto" refX="0" refY="0" style="overflow:visible">
<path d="m5.77 0-8.65 5v-10z" style="fill:#696969;fill-rule:evenodd;stroke:#696969;stroke-width:1pt" transform="scale(-.4)"/>
</marker>
<marker id="q" orient="auto" refX="0" refY="0" style="overflow:visible">
<path d="m5.77 0-8.65 5v-10z" style="fill:#696969;fill-rule:evenodd;stroke:#696969;stroke-width:1pt" transform="scale(-.4)"/>
</marker>
<marker id="r" orient="auto" refX="0" refY="0" style="overflow:visible">
<path d="m5.77 0-8.65 5v-10z" style="fill:#696969;fill-rule:evenodd;stroke:#696969;stroke-width:1pt" transform="scale(-.4)"/>
</marker>
<marker id="s" orient="auto" refX="0" refY="0" style="overflow:visible">
<path d="m2.31 0-3.46 2v-4z" style="fill:#696969;fill-rule:evenodd;stroke:#696969;stroke-width:.4pt"/>
</marker>
<marker id="t" orient="auto" refX="0" refY="0" style="overflow:visible">
<path d="m5.77 0-8.65 5v-10z" style="fill:#696969;fill-rule:evenodd;stroke:#696969;stroke-width:1pt" transform="scale(-.4)"/>
</marker>
<marker id="u" orient="auto" refX="0" refY="0" style="overflow:visible">
<path d="m2.31 0-3.46 2v-4z" style="fill:#696969;fill-rule:evenodd;stroke:#696969;stroke-width:.4pt"/>
</marker>
<marker id="v" orient="auto" refX="0" refY="0" style="overflow:visible" transform="translate(-522.07 61.39)">
<path d="m2.31 0-3.46 2v-4z" style="fill:#696969;fill-rule:evenodd;stroke:#696969;stroke-width:.4pt"/>
</marker>
<marker id="w" orient="auto" refX="0" refY="0" style="overflow:visible" transform="translate(-522.07 61.39)">
<path d="m5.77 0-8.65 5v-10z" style="fill:#696969;fill-rule:evenodd;stroke:#696969;stroke-width:1pt" transform="scale(-.4)"/>
</marker>
<marker id="x" orient="auto" refX="0" refY="0" style="overflow:visible" transform="translate(-522.07 61.39)">
<path d="m5.77 0-8.65 5v-10z" style="fill:#696969;fill-rule:evenodd;stroke:#696969;stroke-width:1pt" transform="scale(-.4)"/>
</marker>
<g style="fill:none">
<path d="m64.73 45.96h95v27.76h-95z" style="stroke:#00f;stroke-width:1.1"/>
<path d="m238.52 338.59.27 26.09-41.57 13.17-41.84-12.92-.27-26.09 41.57-13.17z" style="stroke:#f00;stroke-width:1.1;stroke-miterlimit:10"/>
<path d="m110.28 108.66h183.55" style="stroke:#696969;marker-start:url(#w)"/>
<path d="m291.26 91.87h-182.07" style="stroke:#696969;marker-start:url(#x)"/>
<path d="m278.47 116.41s35.42 5.25 35.42-11.94c0-13.78-67.99-4.15-67.99-4.15" style="stroke:#f00;marker-end:url(#v)"/>
<path d="m108.74 376.49v-302.83" style="stroke:#00f;stroke-width:1.13"/>
</g>
<text style="stroke-width:.94" x="-141.16" y="45.2">
<tspan style="stroke-width:.94" x="-141.16" y="54.06"/>
</text>
<text style="font-size:10;font-family:Droid Sans;letter-spacing:0;word-spacing:0;stroke-width:.94" x="678.24" y="163.94">
<tspan x="678.24" y="163.94">Does NOT mention any RRSIG or DNSKEY records</tspan> <tspan x="678.24" y="176.44">=&gt; google dns is not hiding them from us</tspan>
</text>
<path d="m242.63 45.25h95v27.75h-95z" style="fill:none;stroke:#00f;stroke-width:1.1"/>
<g style="stroke-width:.94;font-size:10;font-family:Droid Sans;letter-spacing:0;word-spacing:0;font-weight:bold">
<text x="78.47" y="62.45">
<tspan x="78.47" y="62.45">resolver client</tspan>
</text>
<text x="262.31" y="62.02">
<tspan x="262.31" y="62.02">google dns</tspan>
</text>
<text style="fill:#00f" x="135.66" y="31.01">
<tspan x="135.66" y="31.01">case 1 : fully authenticated</tspan>
</text>
</g>
<path d="m294.17 376.14v-302.83" style="fill:none;stroke:#00f;stroke-width:1.13"/>
<g style="stroke-width:.94;font-size:10;font-family:Droid Sans;letter-spacing:0;word-spacing:0">
<text x="165.83" y="87.78">
<tspan x="165.83" y="87.78">kong.com AAAA ?</tspan>
</text>
<text x="164.79" y="105.35">
<tspan x="164.79" y="105.35">AAAA: dead::beef</tspan>
</text>
<text x="129.13" y="119.83">
<tspan x="129.13" y="119.83">RRSIG: tag=123 owner=kong.com</tspan>
</text>
</g>
<g style="fill:none">
<path d="m110.83 169.63h183.55" style="stroke:#696969;marker-start:url(#c)"/>
<path d="m291.29 151.81h-182.07" style="stroke:#696969;marker-start:url(#b)"/>
<path d="m124.37 176.86s-36.87 5.77-36.87-11.43c0-13.78 53.52-6.73 53.52-6.73" style="stroke:#f00;marker-end:url(#a)"/>
</g>
<g style="stroke-width:.94;font-size:10;font-family:Droid Sans;letter-spacing:0;word-spacing:0">
<text x="152.93" y="147.72">
<tspan x="152.93" y="147.72">kong.com DNSKEY ?</tspan>
</text>
<text x="142.59" y="166.33">
<tspan x="142.59" y="166.33">K1: tag=123, K2: tag=456</tspan>
</text>
<text x="126.57" y="179.77">
<tspan x="126.57" y="179.77">RRSIG: tag=456 owner=kong.com</tspan>
</text>
</g>
<g style="fill:none">
<path d="m254.99 162.18s60.37-9.9 60.37 7.29c0 13.78-37.5 7.77-37.5 7.77" style="stroke:#008000;marker-end:url(#d)"/>
<path d="m142.63 166.48s-39.46 2.67-39.46-14.53c0-13.78 23.53-33.1 23.53-33.1" style="stroke:#008000;marker-end:url(#e)"/>
<path d="m110 242h183.55" style="stroke:#696969;marker-start:url(#h)"/>
<path d="m290.46 224.18h-182.07" style="stroke:#696969;marker-start:url(#g)"/>
<path d="m125.1 250.27s-29.64 5.77-29.64-11.43c0-13.78 29.74-7.77 29.74-7.77" style="stroke:#f00;marker-end:url(#f)"/>
</g>
<g style="stroke-width:.94;font-size:10;font-family:Droid Sans;letter-spacing:0;word-spacing:0">
<text x="152.1" y="220.09">
<tspan x="152.1" y="220.09">kong.com DS ?</tspan>
</text>
<text x="128.32" y="238.18">
<tspan x="128.32" y="238.18">DS: tag=456 <tspan style="fill:#f00">hash(K2|kong.com)</tspan>
</tspan>
</text>
<text x="125.74" y="252.14">
<tspan style="stroke-width:.94" x="125.74" y="252.14">RRSIG: tag=456 owner=kong.com</tspan>
</text>
</g>
<path d="m3.54 198.83 343.37-.42" style="fill:none;stroke:#00f;stroke-width:1.13;stroke-dasharray:4.5 2.25"/>
<path d="m273.74 235.58s35.42-22.15 35.42-42.96c0-20.5-56.1-25.34-56.1-25.34" style="fill:none;stroke:#f00;marker-end:url(#i)"/>
<text style="font-size:10;font-family:Droid Sans;letter-spacing:0;word-spacing:0;stroke-width:.94" x="26.25" y="208.22">
<tspan x="26.25" y="208.22">zone .com</tspan>
</text>
<text style="font-size:10;font-family:Droid Sans;letter-spacing:0;word-spacing:0;stroke-width:.94" x="15.51" y="193.27">
<tspan x="15.51" y="193.27">zone kong.com</tspan>
</text>
<path d="m290.74 282.62h-182.08" style="fill:none;stroke:#696969;marker-start:url(#j)"/>
<text style="font-size:10;font-family:Droid Sans;letter-spacing:0;word-spacing:0;stroke-width:.94" x="162.59" y="279.02">
<tspan x="162.59" y="279.02">.com DNSKEY ?</tspan>
</text>
<path d="m3.59 314.37 343.37-.42" style="fill:none;stroke:#00f;stroke-width:1.13;stroke-dasharray:4.5 2.25"/>
<text style="font-size:10;font-family:Droid Sans;letter-spacing:0;word-spacing:0;stroke-width:.94" x="12.92" y="324.57">
<tspan x="12.92" y="324.57">TLD zone</tspan>
</text>
<text style="font-size:10;font-family:Droid Sans;letter-spacing:0;word-spacing:0;stroke-width:.94" x="163.83" y="348.69">
<tspan x="163.83" y="348.69">DNSKEY for TLP</tspan> <tspan x="163.83" y="361.19">Root of trust</tspan>
</text>
<path d="m238.52 338.59s35.42-22.15 35.42-42.96c0-20.5-41.63-19.65-41.63-19.65" style="fill:none;stroke:#f00;stroke-dasharray:6 2;marker-end:url(#k)"/>
<text style="font-weight:bold;font-size:10;font-family:Droid Sans;letter-spacing:0;word-spacing:0;writing-mode:lr;fill:#00f;stroke-width:.94" x="458.22" y="30.4">
<tspan>case 2 : resolved but NOT authenticated</tspan>
</text>
<g style="fill:none">
<path d="m426.68 44.66h95v27.75h-95z" style="stroke:#00f;stroke-width:1.1"/>
<path d="m472.23 107.35h183.55" style="stroke:#696969;marker-start:url(#r)"/>
<path d="m653.21 90.56h-182.07" style="stroke:#696969;marker-start:url(#q)"/>
<g style="stroke:#00f">
<path d="m470.69 375.18v-302.83" style="stroke-width:1.13"/>
<path d="m604.58 43.94h95v27.75h-95z" style="stroke-width:1.1"/>
</g>
</g>
<text style="font-weight:bold;font-size:10;font-family:Droid Sans;letter-spacing:0;word-spacing:0;stroke-width:.94" x="440.41" y="61.14">
<tspan style="stroke-width:.94" x="440.41" y="61.14">resolver client</tspan>
</text>
<text style="font-weight:bold;font-size:10;font-family:Droid Sans;letter-spacing:0;word-spacing:0;stroke-width:.94" x="624.26" y="60.71">
<tspan style="stroke-width:.94" x="624.26" y="60.71">google dns</tspan>
</text>
<path d="m656.12 374.83v-302.83" style="fill:none;stroke:#00f;stroke-width:1.13"/>
<g style="stroke-width:.94;font-size:10;font-family:Droid Sans;letter-spacing:0;word-spacing:0">
<text x="527.78" y="86.47">
<tspan style="stroke-width:.94" x="527.78" y="86.47">kong.com AAAA ?</tspan>
</text>
<text x="526.74" y="104.05">
<tspan style="stroke-width:.94" x="526.74" y="104.05">AAAA: dead::beef</tspan>
</text>
<text x="536.05" y="117.49">
<tspan x="536.05" y="117.49">NO RRSIG !</tspan>
</text>
</g>
<g style="fill:none">
<path d="m472.77 219.5h183.56" style="stroke:#696969;marker-start:url(#p)"/>
<path d="m653.24 201.68h-182.08" style="stroke:#696969;marker-start:url(#o)"/>
<path d="m497.7 227.76s-45.66 11.97-45.66-5.22c0-13.78 24.05-10.35 24.05-10.35" style="stroke:#f00;marker-end:url(#n)"/>
</g>
<g style="stroke-width:.94;font-size:10;font-family:Droid Sans;letter-spacing:0;word-spacing:0">
<text x="514.88" y="197.58">
<tspan x="514.88" y="197.58">kong.com NSEC3 ?</tspan>
</text>
<text x="478.69" y="216.19">
<tspan x="478.69" y="216.19">NSEC3: domain=kong.com RR=(A, AAAA) next=krool.com</tspan>
</text>
<text x="499.89" y="229.63">
<tspan x="499.89" y="229.63">RRSIG: tag=789 owner=.com</tspan>
</text>
</g>
<g style="fill:none">
<path d="m164.95 291.31s-34.29-.95-34.29-18.15c0-13.78-.24-18.1-.24-18.1" style="stroke:#008000;marker-end:url(#m)"/>
<path d="m658.43 207.91s17.33-18.53 17.33-39.34c0-20.5-86.08-54.81-86.08-54.81" style="stroke:#f00;marker-end:url(#l)"/>
<path d="m391.36 411.29v-407.77" style="stroke:#000;stroke-width:1.41;stroke-dasharray:2.81 5.63"/>
<path d="m407.32 128.84 343.37-.42" style="stroke:#00f;stroke-width:1.13;stroke-dasharray:4.5 2.25"/>
</g>
<text style="font-size:10;font-family:Droid Sans;letter-spacing:0;word-spacing:0;stroke-width:.94" x="689.53" y="138.23">
<tspan style="stroke-width:.94" x="689.53" y="138.23">zone .com</tspan>
</text>
<text style="font-size:10;font-family:Droid Sans;letter-spacing:0;word-spacing:0;stroke-width:.94" x="677.75" y="123.27">
<tspan style="stroke-width:.94" x="677.75" y="123.27">zone kong.com</tspan>
</text>
<path d="m600.38 314.2.27 26.09-41.57 13.17-41.84-12.92-.27-26.09 41.57-13.17z" style="fill:none;stroke:#f00;stroke-width:1.1;stroke-miterlimit:10"/>
<path d="m652.6 258.24h-182.08" style="fill:none;stroke:#696969;marker-start:url(#t)"/>
<text style="font-size:10;font-family:Droid Sans;letter-spacing:0;word-spacing:0;stroke-width:.94" x="524.44" y="254.63">
<tspan style="stroke-width:.94" x="524.44" y="254.63">.com DNSKEY ?</tspan>
</text>
<text style="font-size:10;font-family:Droid Sans;letter-spacing:0;word-spacing:0;stroke-width:.94" x="525.69" y="324.31">
<tspan style="stroke-width:.94" x="525.69" y="324.31">DNSKEY for TLP</tspan> <tspan style="stroke-width:.94" x="525.69" y="336.81">Root of trust</tspan>
</text>
<path d="m600.38 314.2s35.42-22.15 35.42-42.96c0-20.5-41.63-19.65-41.63-19.65" style="fill:none;stroke:#f00;stroke-dasharray:6 2;marker-end:url(#s)"/>
<path d="m409.39 289.55 343.37-.42" style="fill:none;stroke:#00f;stroke-width:1.13;stroke-dasharray:4.5 2.25"/>
<text style="font-size:10;font-family:Droid Sans;letter-spacing:0;word-spacing:0;stroke-width:.94" x="698.35" y="299.58">
<tspan style="stroke-width:.94" x="698.35" y="299.58">TLD zone</tspan>
</text>
<path d="m527.67 263.15s-24.47 5.25-24.47-11.94c0-13.78-.24-18.1-.24-18.1" style="fill:none;stroke:#008000;marker-end:url(#u)"/>
</svg>