<svg height="630" viewBox="0 0 629.22 443.98" width="1000" xmlns="http://www.w3.org/2000/svg" xmlns:xlink="http://www.w3.org/1999/xlink">
<marker id="a" orient="auto" refX="0.0" refY="0.0" style="overflow:visible">
<path d="m1.15 0-1.73 1v-2z" style="fill-rule:evenodd;stroke:#00f;fill:#00f;stroke-width:.2pt"/>
</marker>
<marker id="b" orient="auto" refX="0.0" refY="0.0" style="overflow:visible">
<path d="m5.77 0-8.65 5v-10z" style="fill-rule:evenodd;stroke:#00f;stroke-width:1pt;fill:#00f" transform="scale(-.2)"/>
</marker>
<marker id="c" orient="auto" refX="0" refY="0" style="overflow:visible">
<path d="m1.15 0-1.73 1v-2z" style="fill:#0f0;fill-rule:evenodd;stroke:#0f0;stroke-width:.2pt"/>
</marker>
<marker id="d" orient="auto" refX="0" refY="0" style="overflow:visible">
<path d="m5.77 0-8.65 5v-10z" style="fill:#0f0;fill-rule:evenodd;stroke:#0f0;stroke-width:1pt" transform="scale(-.2)"/>
</marker>
<marker id="e" orient="auto" refX="0" refY="0" style="overflow:visible">
<path d="m5.77 0-8.65 5v-10z" style="fill:#00f;fill-rule:evenodd;stroke:#00f;stroke-width:1pt" transform="scale(-.4)"/>
</marker>
<marker id="f" orient="auto" refX="0" refY="0" style="overflow:visible">
<path d="m2.31 0-3.46 2v-4z" style="fill:#00f;fill-rule:evenodd;stroke:#00f;stroke-width:.4pt"/>
</marker>
<marker id="g" orient="auto" refX="0" refY="0" style="overflow:visible">
<path d="m5.77 0-8.65 5v-10z" style="fill:#00f;fill-rule:evenodd;stroke:#00f;stroke-width:1pt" transform="scale(-.4)"/>
</marker>
<marker id="h" orient="auto" refX="0" refY="0" style="overflow:visible">
<path d="m2.31 0-3.46 2v-4z" style="fill:#00f;fill-rule:evenodd;stroke:#00f;stroke-width:.4pt"/>
</marker>
<marker id="i" orient="auto" refX="0" refY="0" style="overflow:visible">
<path d="m5.77 0-8.65 5v-10z" style="fill:#008000;fill-rule:evenodd;stroke:#008000;stroke-width:1pt" transform="scale(-.4)"/>
</marker>
<marker id="j" orient="auto" refX="0" refY="0" style="overflow:visible">
<path d="m2.31 0-3.46 2v-4z" style="fill:#008000;fill-rule:evenodd;stroke:#008000;stroke-width:.4pt"/>
</marker>
<marker id="k" orient="auto" refX="0" refY="0" style="overflow:visible">
<path d="m5.77 0-8.65 5v-10z" style="fill:#008000;fill-rule:evenodd;stroke:#008000;stroke-width:1pt" transform="scale(-.4)"/>
</marker>
<marker id="l" orient="auto" refX="0" refY="0" style="overflow:visible">
<path d="m2.31 0-3.46 2v-4z" style="fill:#008000;fill-rule:evenodd;stroke:#008000;stroke-width:.4pt"/>
</marker>
<marker id="m" orient="auto" refX="0" refY="0" style="overflow:visible">
<path d="m5.77 0-8.65 5v-10z" style="fill:#00f;fill-rule:evenodd;stroke:#00f;stroke-width:1pt" transform="scale(-.4)"/>
</marker>
<marker id="n" orient="auto" refX="0" refY="0" style="overflow:visible">
<path d="m5.77 0-8.65 5v-10z" style="fill:#008000;fill-rule:evenodd;stroke:#008000;stroke-width:1pt" transform="scale(-.2)"/>
</marker>
<marker id="o" orient="auto" refX="0" refY="0" style="overflow:visible">
<path d="m5.77 0-8.65 5v-10z" style="fill:#008000;fill-rule:evenodd;stroke:#008000;stroke-width:1pt" transform="scale(-.4)"/>
</marker>
<marker id="p" orient="auto" refX="0" refY="0" style="overflow:visible">
<path d="m5.77 0-8.65 5v-10z" style="fill:#00f;fill-rule:evenodd;stroke:#00f;stroke-width:1pt" transform="scale(-.2)"/>
</marker>
<g style="fill:none">
<ellipse cx="119.85" cy="73.43" rx="52.8" ry="26.17" style="stroke:#00f;stroke-width:1.1"/>
<path d="m5.73 61.09h37.03v25.59h-37.03z" style="stroke:#000;stroke-width:1.1"/>
<path d="m361.39 74.46h-181.73" style="stroke:#0f0;stroke-width:5.63;marker-start:url(#d);marker-end:url(#c)"/>
</g>
<path d="m173 193.25v-140.03" style="fill:#f00;stroke:#f00;stroke-width:1.88;stroke-dasharray:7.5 1.88"/>
<text style="stroke-width:.94" x="24.94" y="-363.22">
<tspan style="stroke-width:.94" x="24.94" y="-354.36"/>
</text>
<text style="font-size:10;font-family:Droid Sans;letter-spacing:0;word-spacing:0;stroke-width:.94" x="90.18" y="76.73">
<tspan x="90.18" y="76.73">IPv6 network</tspan>
</text>
<ellipse cx="269.83" cy="71.26" rx="65.77" ry="35.58" style="fill:none;stroke:#008000;stroke-width:1.1"/>
<text style="font-size:10;font-family:Droid Sans;letter-spacing:0;word-spacing:0;stroke-width:.94" x="240.98" y="53.9">
<tspan x="240.98" y="53.9">IPv4 internet</tspan>
</text>
<ellipse cx="421.13" cy="75.07" rx="52.8" ry="26.17" style="fill:none;stroke:#00f;stroke-width:1.1"/>
<text style="font-size:10;font-family:Droid Sans;letter-spacing:0;word-spacing:0;stroke-width:.94" x="391.46" y="78.37">
<tspan style="stroke-width:.94" x="391.46" y="78.37">IPv6 network</tspan>
</text>
<text style="font-size:10;font-family:Droid Sans;letter-spacing:0;word-spacing:0;stroke-width:.94" x="11.86" y="77.24">
<tspan x="11.86" y="77.24">peer1</tspan>
</text>
<path d="m497.64 62.76h43.13v25.59h-43.13z" style="fill:none;stroke:#000;stroke-width:1.1"/>
<text style="font-size:10;font-family:Droid Sans;letter-spacing:0;word-spacing:0;stroke-width:.94" x="505.81" y="77.89">
<tspan x="505.81" y="77.89">peer2</tspan>
</text>
<g style="fill:none;stroke:#00f">
<path d="m365.92 74.46h-194.08" style="stroke-width:1.88"/>
<g style="stroke-width:1.41">
<path d="m63.63 74.56h-17.89" style="marker-start:url(#e);marker-end:url(#f)"/>
<path d="m494.66 75.58h-17.89" style="marker-start:url(#g);marker-end:url(#h)"/>
</g>
</g>
<text style="font-size:10;font-family:Droid Sans;letter-spacing:0;word-spacing:0;stroke-width:.94" x="229.02" y="11.13">
<tspan style="font-weight:bold" x="229.02" y="11.13">Solution: tunneling</tspan> <tspan x="229.02" y="23.63">IPv6/IPv4 or IPv4/IPv6</tspan>
</text>
<g style="fill:none">
<ellipse cx="119.48" cy="159.16" rx="52.8" ry="26.17" style="stroke:#008000;stroke-width:1.1"/>
<path d="m5.36 146.81h37.03v25.59h-37.03z" style="stroke:#000;stroke-width:1.1"/>
<path d="m361.02 160.19h-181.73" style="stroke:#00f;stroke-width:5.63;marker-start:url(#b);marker-end:url(#a)"/>
</g>
<text style="font-size:10;font-family:Droid Sans;letter-spacing:0;word-spacing:0;stroke-width:.94" x="89.81" y="162.46">
<tspan x="89.81" y="162.46">IPv4 network</tspan>
</text>
<ellipse cx="269.46" cy="156.98" rx="65.77" ry="35.58" style="fill:none;stroke:#00f;stroke-width:1.1"/>
<text style="font-size:10;font-family:Droid Sans;letter-spacing:0;word-spacing:0;stroke-width:.94" x="240.61" y="139.63">
<tspan x="240.61" y="139.63">IPv6 internet</tspan>
</text>
<ellipse cx="420.76" cy="160.8" rx="52.8" ry="26.17" style="fill:none;stroke:#008000;stroke-width:1.1"/>
<text style="font-size:10;font-family:Droid Sans;letter-spacing:0;word-spacing:0;stroke-width:.94" x="391.09" y="164.1">
<tspan x="391.09" y="164.1">IPv4 network</tspan>
</text>
<text style="font-size:10;font-family:Droid Sans;letter-spacing:0;word-spacing:0;stroke-width:.94" x="12" y="162.46">
<tspan x="12" y="162.46">peer1</tspan>
</text>
<path d="m497.27 148.48h43.13v25.59h-43.13z" style="fill:none;stroke:#000;stroke-width:1.1"/>
<text style="font-size:10;font-family:Droid Sans;letter-spacing:0;word-spacing:0;stroke-width:.94" x="505.44" y="163.62">
<tspan style="stroke-width:.94" x="505.44" y="163.62">peer2</tspan>
</text>
<g style="fill:none">
<path d="m365.55 160.19h-194.08" style="stroke:#0f0;stroke-width:1.88"/>
<path d="m63.26 160.29h-17.89" style="stroke:#008000;stroke-width:1.41;marker-start:url(#k);marker-end:url(#l)"/>
<path d="m494.29 161.31h-17.89" style="stroke:#008000;stroke-width:1.41;marker-start:url(#i);marker-end:url(#j)"/>
<ellipse cx="118.21" cy="308.65" rx="52.8" ry="26.17" style="stroke:#00f;stroke-width:1.1"/>
<path d="m4.09 296.3h37.03v25.59h-37.03z" style="stroke:#000;stroke-width:1.1"/>
<path d="m350.9 308.15h-179.49" style="stroke:#008000;stroke-width:3.75;marker-start:url(#n)"/>
</g>
<text style="font-size:10;font-family:Droid Sans;letter-spacing:0;word-spacing:0;stroke-width:.94" x="88.54" y="311.95">
<tspan style="stroke-width:.94" x="88.54" y="311.95">IPv6 network</tspan>
</text>
<ellipse cx="267.68" cy="307.49" rx="65.77" ry="35.58" style="fill:none;stroke:#008000;stroke-width:1.1"/>
<text style="font-size:10;font-family:Droid Sans;letter-spacing:0;word-spacing:0;stroke-width:.94" x="238.83" y="290.13">
<tspan style="stroke-width:.94" x="238.83" y="290.13">IPv4 internet</tspan>
</text>
<text style="font-size:10;font-family:Droid Sans;letter-spacing:0;word-spacing:0;stroke-width:.94" x="10.22" y="312.46">
<tspan x="10.22" y="312.46">client</tspan>
</text>
<path d="m356.14 294.41h43.13v25.59h-43.13z" style="fill:none;stroke:#000;stroke-width:1.1"/>
<text style="font-size:10;font-family:Droid Sans;letter-spacing:0;word-spacing:0;stroke-width:.94" x="364.31" y="309.55">
<tspan x="364.31" y="309.55">server</tspan>
</text>
<path d="m61.43 309.78h-20.38" style="fill:none;stroke:#00f;stroke-width:1.41;marker-start:url(#m)"/>
<text style="font-size:10;font-family:Droid Sans;letter-spacing:0;word-spacing:0;stroke-width:.94" x="143.08" y="203.88">
<tspan x="143.08" y="203.88">encapsulator</tspan>
</text>
<text style="font-size:10;font-family:Droid Sans;letter-spacing:0;word-spacing:0;stroke-width:.94" x="337.81" y="203.79">
<tspan x="337.81" y="203.79">decapsulator</tspan>
</text>
<path d="m367.22 194.42v-140.03" style="fill:#f00;stroke:#f00;stroke-width:1.88;stroke-dasharray:7.5 1.88"/>
<g style="fill:none">
<ellipse cx="118.47" cy="396.63" rx="52.8" ry="26.17" style="stroke:#008000;stroke-width:1.1"/>
<path d="m4.35 384.29h37.02v25.59h-37.02z" style="stroke:#000;stroke-width:1.1"/>
<path d="m351.15 396.13h-179.49" style="stroke:#00f;stroke-width:3.75;marker-start:url(#p)"/>
</g>
<text style="font-size:10;font-family:Droid Sans;letter-spacing:0;word-spacing:0;stroke-width:.94" x="88.8" y="399.93">
<tspan x="88.8" y="399.93">IPv4 network</tspan>
</text>
<ellipse cx="267.93" cy="395.47" rx="65.77" ry="35.58" style="fill:none;stroke:#00f;stroke-width:1.1"/>
<text style="font-size:10;font-family:Droid Sans;letter-spacing:0;word-spacing:0;stroke-width:.94" x="239.09" y="378.11">
<tspan x="239.09" y="378.11">IPv6 internet</tspan>
</text>
<text style="font-size:10;font-family:Droid Sans;letter-spacing:0;word-spacing:0;stroke-width:.94" x="10.48" y="400.44">
<tspan style="stroke-width:.94" x="10.48" y="400.44">client</tspan>
</text>
<path d="m356.4 382.39h43.13v25.59h-43.13z" style="fill:none;stroke:#000;stroke-width:1.1"/>
<text style="font-size:10;font-family:Droid Sans;letter-spacing:0;word-spacing:0;stroke-width:.94" x="364.56" y="397.53">
<tspan style="stroke-width:.94" x="364.56" y="397.53">server</tspan>
</text>
<path d="m61.69 397.76h-20.39" style="fill:none;stroke:#008000;stroke-width:1.41;marker-start:url(#o)"/>
<path d="m170.91 429.38v-140.03" style="fill:#f00;stroke:#f00;stroke-width:1.88;stroke-dasharray:7.5 1.88"/>
<g style="stroke-width:.94;font-size:10;font-family:Droid Sans;letter-spacing:0;word-spacing:0">
<text x="130.87" y="440.36">
<tspan x="130.87" y="440.36">address translator</tspan>
</text>
<text x="203.1" y="248.17">
<tspan style="font-weight:bold" x="203.1" y="248.17">Solution : address translation</tspan> <tspan x="203.1" y="260.67">IPv4 &lt;-&gt; IPv6</tspan>
</text>
<text style="fill:#f00" x="413.05" y="334.63">
<tspan style="font-weight:bold" x="413.05" y="334.63">Translation is asymmetrical !</tspan> <tspan x="413.05" y="347.13">A client can start a conversation with the server</tspan> <tspan x="413.05" y="359.63">(setting the NAT state in the process)</tspan> <tspan x="413.05" y="372.13">But the server cannot initiate communication</tspan>
</text>
</g>
</svg>