<svg height="808" viewBox="0 0 507.78 574.21" width="714" xmlns="http://www.w3.org/2000/svg" xmlns:xlink="http://www.w3.org/1999/xlink">
<marker id="a" orient="auto" refX="0" refY="0" style="overflow:visible" transform="translate(-2.99 -3.46)">
<path d="m2.31 0-3.46 2v-4z" style="fill-rule:evenodd;stroke:#000;stroke-width:.4pt"/>
</marker>
<marker id="b" orient="auto" refX="0" refY="0" style="overflow:visible" transform="translate(-2.99 -3.46)">
<path d="m5.77 0-8.65 5v-10z" style="fill-rule:evenodd;stroke:#000;stroke-width:1pt" transform="scale(-.4)"/>
</marker>
<marker id="c" orient="auto" refX="0" refY="0" style="overflow:visible" transform="translate(-2.99 -3.46)">
<path d="m5.77 0-8.65 5v-10z" style="fill-rule:evenodd;stroke:#000;stroke-width:1pt" transform="scale(-.4)"/>
</marker>
<marker id="d" orient="auto" refX="0" refY="0" style="overflow:visible" transform="translate(-2.99 -3.46)">
<path d="m2.31 0-3.46 2v-4z" style="fill-rule:evenodd;stroke:#000;stroke-width:.4pt"/>
</marker>
<marker id="e" orient="auto" refX="0" refY="0" style="overflow:visible" transform="translate(-2.99 -3.46)">
<path d="m5.77 0-8.65 5v-10z" style="fill-rule:evenodd;stroke:#000;stroke-width:1pt" transform="scale(-.4)"/>
</marker>
<marker id="f" orient="auto" refX="0" refY="0" style="overflow:visible" transform="translate(-2.99 -3.46)">
<path d="m2.31 0-3.46 2v-4z" style="fill-rule:evenodd;stroke:#000;stroke-width:.4pt"/>
</marker>
<marker id="g" orient="auto" refX="0" refY="0" style="overflow:visible" transform="translate(-2.99 -3.46)">
<path d="m5.77 0-8.65 5v-10z" style="fill-rule:evenodd;stroke:#000;stroke-width:1pt" transform="scale(-.4)"/>
</marker>
<marker id="h" orient="auto" refX="0" refY="0" style="overflow:visible" transform="translate(-2.99 -3.46)">
<path d="m2.31 0-3.46 2v-4z" style="fill-rule:evenodd;stroke:#000;stroke-width:.4pt"/>
</marker>
<marker id="i" orient="auto" refX="0" refY="0" style="overflow:visible" transform="translate(-2.99 -3.46)">
<path d="m5.77 0-8.65 5v-10z" style="fill-rule:evenodd;stroke:#000;stroke-width:1pt" transform="scale(-.4)"/>
</marker>
<marker id="j" orient="auto" refX="0" refY="0" style="overflow:visible" transform="translate(-2.99 -3.46)">
<path d="m2.31 0-3.46 2v-4z" style="fill-rule:evenodd;stroke:#000;stroke-width:.4pt"/>
</marker>
<marker id="k" orient="auto" refX="0" refY="0" style="overflow:visible" transform="translate(-2.99 -3.46)">
<path d="m5.77 0-8.65 5v-10z" style="fill-rule:evenodd;stroke:#000;stroke-width:1pt" transform="scale(-.4)"/>
</marker>
<marker id="l" orient="auto" refX="0" refY="0" style="overflow:visible" transform="translate(-2.99 -3.46)">
<path d="m2.31 0-3.46 2v-4z" style="fill-rule:evenodd;stroke:#000;stroke-width:.4pt"/>
</marker>
<marker id="m" orient="auto" refX="0" refY="0" style="overflow:visible" transform="translate(-2.99 -3.46)">
<path d="m5.77 0-8.65 5v-10z" style="fill-rule:evenodd;stroke:#000;stroke-width:1pt" transform="scale(-.4)"/>
</marker>
<marker id="n" orient="auto" refX="0" refY="0" style="overflow:visible" transform="translate(-2.99 -3.46)">
<path d="m2.31 0-3.46 2v-4z" style="fill-rule:evenodd;stroke:#000;stroke-width:.4pt"/>
</marker>
<marker id="o" orient="auto" refX="0" refY="0" style="overflow:visible" transform="translate(-2.99 -3.46)">
<path d="m5.77 0-8.65 5v-10z" style="fill-rule:evenodd;stroke:#000;stroke-width:1pt" transform="scale(-.4)"/>
</marker>
<marker id="p" orient="auto" refX="0" refY="0" style="overflow:visible" transform="translate(-2.99 -3.46)">
<path d="m2.31 0-3.46 2v-4z" style="fill-rule:evenodd;stroke:#000;stroke-width:.4pt"/>
</marker>
<marker id="q" orient="auto" refX="0" refY="0" style="overflow:visible" transform="translate(-2.99 -3.46)">
<path d="m5.77 0-8.65 5v-10z" style="fill-rule:evenodd;stroke:#000;stroke-width:1pt" transform="scale(-.4)"/>
</marker>
<marker id="r" orient="auto" refX="0" refY="0" style="overflow:visible" transform="translate(-2.99 -3.46)">
<path d="m2.31 0-3.46 2v-4z" style="fill-rule:evenodd;stroke:#000;stroke-width:.4pt"/>
</marker>
<marker id="s" orient="auto" refX="0" refY="0" style="overflow:visible" transform="translate(-2.99 -3.46)">
<path d="m5.77 0-8.65 5v-10z" style="fill-rule:evenodd;stroke:#000;stroke-width:1pt" transform="scale(-.4)"/>
</marker>
<marker id="t" orient="auto" refX="0" refY="0" style="overflow:visible" transform="translate(-2.99 -3.46)">
<path d="m2.31 0-3.46 2v-4z" style="fill-rule:evenodd;stroke:#000;stroke-width:.4pt"/>
</marker>
<marker id="u" orient="auto" refX="0" refY="0" style="overflow:visible" transform="translate(-2.99 -3.46)">
<path d="m5.77 0-8.65 5v-10z" style="fill-rule:evenodd;stroke:#000;stroke-width:1pt" transform="scale(-.4)"/>
</marker>
<marker id="v" orient="auto" refX="0" refY="0" style="overflow:visible" transform="translate(-2.99 -3.46)">
<path d="m2.31 0-3.46 2v-4z" style="fill-rule:evenodd;stroke:#000;stroke-width:.4pt"/>
</marker>
<marker id="w" orient="auto" refX="0" refY="0" style="overflow:visible" transform="translate(-2.99 -3.46)">
<path d="m5.77 0-8.65 5v-10z" style="fill-rule:evenodd;stroke:#000;stroke-width:1pt" transform="scale(-.4)"/>
</marker>
<marker id="x" orient="auto" refX="0" refY="0" style="overflow:visible" transform="translate(-2.99 -3.46)">
<path d="m2.31 0-3.46 2v-4z" style="fill-rule:evenodd;stroke:#000;stroke-width:.4pt"/>
</marker>
<path d="m48.87 568.33v-529.23" style="stroke:#000"/>
<path d="m42.99 49.54h374.15v88.18h-374.15z" style="fill:none;stroke:#9c3;stroke-width:.94;stroke-dasharray:5.63 1.88"/>
<text style="stroke-width:.94" x="375.83" y="-18.97">
<tspan style="stroke-width:.94" x="375.83" y="-10.11"/>
</text>
<g style="stroke-width:1.88" transform="translate(-2.99 -3.46)">
<path d="m7.49 7.76h95.3v34.98h-95.3z" style="fill:none;stroke:#00f"/>
<text style="font-size:10;font-family:Droid Sans;letter-spacing:0;word-spacing:0" x="30.4" y="28.63">
<tspan style="font-weight:bold;stroke-width:1.88" x="30.4" y="28.63">SSH client</tspan>
</text>
<path d="m365.67 7.47h95.3v34.98h-95.3z" style="fill:none;stroke:#00f"/>
<text style="font-size:10;font-family:Droid Sans;letter-spacing:0;word-spacing:0" x="387.08" y="27.93">
<tspan style="font-weight:bold;stroke-width:1.88" x="387.08" y="27.93">SSH server</tspan>
</text>
</g>
<path d="m410.85 571.15v-532.36" style="stroke:#000"/>
<text style="font-size:10;font-family:Droid Sans Mono;letter-spacing:0;word-spacing:0;stroke-width:.94" x="183.56" y="74.28">
<tspan x="183.56" y="74.28">SSH_MSG_KEXINIT</tspan>
</text>
<path d="m408.66 64.61h-356.64" style="stroke:#000;marker-start:url(#b);marker-end:url(#a)"/>
<g style="font-size:10;letter-spacing:0;word-spacing:0;stroke-width:.94" transform="translate(-2.99 -3.46)">
<text style="font-family:Droid Sans" x="125.77" y="64.77">
<tspan x="125.77" y="64.77">algorithm negotiation</tspan>
</text>
<text style="font-family:Droid Sans" x="124.96" y="77.2">
<tspan x="124.96" y="77.2">msg number:</tspan>
</text>
<text style="font-family:Droid Sans Mono" x="186.27" y="107.51">
<tspan x="186.27" y="107.51">SSH_MSG_KEXDH_INIT</tspan>
</text>
</g>
<path d="m408.38 94.38h-356.65" style="stroke:#000;marker-start:url(#c);marker-end:url(#d)"/>
<g style="font-size:10;letter-spacing:0;word-spacing:0;stroke-width:.94" transform="translate(-2.99 -3.46)">
<g style="font-family:Droid Sans">
<text x="125.48" y="94.53">
<tspan x="125.48" y="94.53">key exchange + server authentication</tspan>
</text>
<text x="124.68" y="106.97">
<tspan x="124.68" y="106.97">msg number:</tspan>
</text>
<text style="fill:#9c3" x="424.4" y="138.89">
<tspan x="424.4" y="138.89">transport layer</tspan>
</text>
</g>
<text style="font-family:Droid Sans Mono" x="185.74" y="136.51">
<tspan x="185.74" y="136.51">SSH_MSG_SERVICE_REQUEST</tspan>
</text>
</g>
<path d="m407.85 123.38h-356.64" style="stroke:#000;marker-start:url(#e);marker-end:url(#f)"/>
<g style="font-size:10;letter-spacing:0;word-spacing:0;stroke-width:.94" transform="translate(-2.99 -3.46)">
<text style="font-family:Droid Sans" x="124.96" y="123.53">
<tspan x="124.96" y="123.53">start service</tspan>
</text>
<text style="font-family:Droid Sans" x="124.16" y="135.97">
<tspan x="124.16" y="135.97">msg number:</tspan>
</text>
<text style="font-family:Droid Sans Mono" x="185.48" y="177">
<tspan x="185.48" y="177">SSH_MSG_USERAUTH_REQUEST</tspan>
</text>
</g>
<path d="m407.59 163.87h-356.64" style="stroke:#000;marker-start:url(#g);marker-end:url(#h)"/>
<g style="stroke-width:.94">
<g style="font-size:10;font-family:Droid Sans;letter-spacing:0;word-spacing:0" transform="translate(-2.99 -3.46)">
<text x="124.7" y="164.03">
<tspan x="124.7" y="164.03">user authentication</tspan>
</text>
<text x="123.9" y="176.46">
<tspan x="123.9" y="176.46">msg number:</tspan>
</text>
<text x="123.89" y="188.01">
<tspan x="123.89" y="188.01">service to start after auth: ssh-connection</tspan> <tspan x="123.89" y="200.51">user name</tspan> <tspan x="123.89" y="213.01">method name : publickey</tspan>
</text>
</g>
<path d="m43.5 148.31h374.15v68.85h-374.15z" style="fill:none;stroke:#36c;stroke-dasharray:5.63 1.88"/>
<g style="font-size:10;letter-spacing:0;word-spacing:0" transform="translate(-2.99 -3.46)">
<text style="font-family:Droid Sans;fill:#36c" x="424.39" y="218.32">
<tspan x="424.39" y="218.32">auth protocol</tspan>
</text>
<text style="font-family:Droid Sans Mono" x="186.79" y="254.86">
<tspan x="186.79" y="254.86">SSH_MSG_CHANNEL_OPEN</tspan>
</text>
</g>
</g>
<path d="m408.9 241.73h-356.64" style="stroke:#000;marker-start:url(#i);marker-end:url(#j)"/>
<g style="font-size:10;letter-spacing:0;word-spacing:0;stroke-width:.94" transform="translate(-2.99 -3.46)">
<text style="font-family:Droid Sans" x="126.01" y="241.89">
<tspan x="126.01" y="241.89">interactive session channel</tspan>
</text>
<text style="font-family:Droid Sans" x="125.2" y="254.32">
<tspan x="125.2" y="254.32">msg number:</tspan> <tspan x="125.2" y="266.82">channel type : session</tspan>
</text>
<text style="font-family:Droid Sans Mono" x="186.27" y="295.16">
<tspan x="186.27" y="295.16">SSH_MSG_CHANNEL_REQUEST</tspan>
</text>
</g>
<path d="m408.38 282.03h-356.65" style="stroke:#000;marker-start:url(#k);marker-end:url(#l)"/>
<g style="font-size:10;letter-spacing:0;word-spacing:0;stroke-width:.94" transform="translate(-2.99 -3.46)">
<text style="font-family:Droid Sans" x="125.48" y="282.19">
<tspan x="125.48" y="282.19">request pseudo-terminal</tspan>
</text>
<text style="font-family:Droid Sans" x="124.68" y="294.62">
<tspan x="124.68" y="294.62">msg number:</tspan> <tspan x="124.68" y="307.12">request type: pty-req</tspan>
</text>
<text style="font-family:Droid Sans Mono" x="185.48" y="335.61">
<tspan x="185.48" y="335.61">SSH_MSG_CHANNEL_DATA</tspan>
</text>
</g>
<path d="m408.12 322.48h-356.65" style="stroke:#000;marker-start:url(#m);marker-end:url(#n)"/>
<g style="font-size:10" transform="translate(-2.99 -3.46)">
<g style="letter-spacing:0;word-spacing:0;stroke-width:.94">
<text style="font-family:Droid Sans" x="124.44" y="322.64">
<tspan x="124.44" y="322.64">transmit stdout and stderr</tspan>
</text>
<text style="font-family:Droid Sans" x="123.9" y="335.07">
<tspan x="123.9" y="335.07">msg number:</tspan>
</text>
<text style="font-family:Droid Sans Mono" x="185.31" y="345.78">
<tspan style="stroke-width:.94" x="185.31" y="345.78">SSH_MSG_CHANNEL_EXTENDED_DATA</tspan>
</text>
</g>
<text style="font-family:Droid Sans;stroke-width:1.88" x="361.33" y="344.78">
<tspan style="stroke-width:1.88" x="361.33" y="344.78">(stderr)</tspan>
</text>
</g>
<path d="m43.76 228h374.15v118.22h-374.15z" style="fill:none;stroke:#f60;stroke-width:.94;stroke-dasharray:5.63 1.88"/>
<text style="stroke:#f60;stroke-width:1.88" x="302.95" y="372.94">
<tspan style="stroke-width:1.88" x="302.95" y="381.8"/>
</text>
<text style="font-size:10;font-family:Droid Sans;letter-spacing:0;word-spacing:0;fill:#f60;stroke-width:.94" x="422.13" y="332.69">
<tspan x="422.13" y="332.69">cnx protocol</tspan> <tspan x="422.13" y="345.19">interactive session</tspan>
</text>
<text style="font-size:10;font-family:Droid Sans Mono;letter-spacing:0;word-spacing:0;stroke-width:.94" x="183.01" y="381.27">
<tspan style="stroke-width:.94" x="183.01" y="381.27">SSH_MSG_GLOBAL_REQUEST</tspan>
</text>
<path d="m408.12 371.6h-356.65" style="stroke:#000;marker-start:url(#o);marker-end:url(#p)"/>
<g style="font-size:10;letter-spacing:0;word-spacing:0;stroke-width:.94" transform="translate(-2.99 -3.46)">
<text style="font-family:Droid Sans" x="125.22" y="371.75">
<tspan x="125.22" y="371.75">start listening socket on remote end</tspan>
</text>
<text style="font-family:Droid Sans" x="124.42" y="384.19">
<tspan x="124.42" y="384.19">msg number:</tspan> <tspan x="124.42" y="396.69">request type: tcpip-forward</tspan> <tspan x="124.42" y="409.19">bind to host:port</tspan>
</text>
<text style="font-family:Droid Sans Mono" x="186.27" y="436.98">
<tspan style="stroke-width:.94" x="186.27" y="436.98">SSH_MSG_CHANNEL_OPEN</tspan>
</text>
</g>
<path d="m408.38 423.85h-356.65" style="stroke:#000;marker-start:url(#q);marker-end:url(#r)"/>
<g style="font-size:10;letter-spacing:0;word-spacing:0;stroke-width:.94" transform="translate(-2.99 -3.46)">
<text style="font-family:Droid Sans" x="125.48" y="424">
<tspan x="125.48" y="424">start tunnel <tspan style="fill:#c00">remote -&gt; local</tspan>
</tspan>
</text>
<text style="font-family:Droid Sans" x="124.68" y="436.44">
<tspan x="124.68" y="436.44">msg number:</tspan> <tspan x="124.68" y="448.94">request type: <tspan style="fill:#c00">forwarded-tcpip</tspan>
</tspan>
</text>
<text style="font-family:Droid Sans Mono" x="185.74" y="476.69">
<tspan style="stroke-width:.94" x="185.74" y="476.69">SSH_MSG_CHANNEL_DATA</tspan>
</text>
</g>
<path d="m408.38 463.56h-356.65" style="stroke:#000;marker-start:url(#s);marker-end:url(#t)"/>
<g style="font-size:10;letter-spacing:0;word-spacing:0;stroke-width:.94" transform="translate(-2.99 -3.46)">
<text style="font-family:Droid Sans" x="124.7" y="463.71">
<tspan x="124.7" y="463.71">tunnel data</tspan>
</text>
<text style="font-family:Droid Sans" x="124.16" y="476.15">
<tspan style="stroke-width:.94" x="124.16" y="476.15">msg number:</tspan>
</text>
<text style="font-family:Droid Sans Mono" x="186.27" y="514.55">
<tspan style="stroke-width:.94" x="186.27" y="514.55">SSH_MSG_CHANNEL_OPEN</tspan>
</text>
</g>
<path d="m408.38 501.43h-356.65" style="stroke:#000;marker-start:url(#w);marker-end:url(#x)"/>
<g style="font-size:10;letter-spacing:0;word-spacing:0;stroke-width:.94" transform="translate(-2.99 -3.46)">
<text style="font-family:Droid Sans" x="125.48" y="501.58">
<tspan style="stroke-width:.94" x="125.48" y="501.58">start tunnel <tspan style="fill:#c00">remote -&gt; local</tspan>
</tspan>
</text>
<text style="font-family:Droid Sans" x="124.68" y="514.01">
<tspan x="124.68" y="514.01">msg number:</tspan> <tspan x="124.68" y="526.51">request type: <tspan style="fill:#c00">direct-tcpip</tspan>
</tspan>
</text>
<text style="font-family:Droid Sans Mono" x="185.74" y="554.26">
<tspan style="stroke-width:.94" x="185.74" y="554.26">SSH_MSG_CHANNEL_DATA</tspan>
</text>
</g>
<path d="m408.38 541.13h-356.65" style="stroke:#000;marker-start:url(#u);marker-end:url(#v)"/>
<g style="stroke-width:.94" transform="translate(-2.99 -3.46)">
<text style="font-size:10;font-family:Droid Sans;letter-spacing:0;word-spacing:0" x="124.7" y="541.29">
<tspan style="stroke-width:.94" x="124.7" y="541.29">tunnel data</tspan>
</text>
<text style="font-size:10;font-family:Droid Sans;letter-spacing:0;word-spacing:0" x="124.16" y="553.72">
<tspan style="stroke-width:.94" x="124.16" y="553.72">msg number:</tspan>
</text>
<path d="m46.49 361.44h374.15v119.53h-374.15z" style="fill:none;stroke:#f60;stroke-dasharray:5.63 1.88"/>
<path d="m46.23 491.81h374.15v67.28h-374.15z" style="fill:none;stroke:#f60;stroke-dasharray:5.63 1.88"/>
<g style="letter-spacing:0;word-spacing:0;fill:#f60;font-size:10;font-family:Droid Sans">
<text x="424.51" y="467.43">
<tspan x="424.51" y="467.43">cnx protocol</tspan> <tspan x="424.51" y="479.93">reverse tunnelling</tspan>
</text>
<text x="424.25" y="545.55">
<tspan x="424.25" y="545.55">cnx protocol</tspan> <tspan x="424.25" y="558.05">tunnelling</tspan>
</text>
</g>
</g>
</svg>
