<svg height="400" viewBox="0 0 585.75 264.86" width="900" xmlns="http://www.w3.org/2000/svg" xmlns:xlink="http://www.w3.org/1999/xlink">
<marker id="a" orient="auto" refX="0.0" refY="0.0" style="overflow:visible">
<path d="m5.77 0-8.65 5v-10z" style="fill-rule:evenodd;stroke:#f60;stroke-width:1pt;fill:#f60" transform="scale(-.8)"/>
</marker>
<marker id="b" orient="auto" refX="0.0" refY="0.0" style="overflow:visible">
<path d="m5.77 0-8.65 5v-10z" style="fill-rule:evenodd;stroke:#800080;stroke-width:1pt;fill:#800080" transform="scale(-.8)"/>
</marker>
<marker id="c" orient="auto" refX="0.0" refY="0.0" style="overflow:visible">
<path d="m5.77 0-8.65 5v-10z" style="fill-rule:evenodd;stroke:#800080;stroke-width:1pt;fill:#800080" transform="scale(-.8)"/>
</marker>
<marker id="d" orient="auto" refX="0.0" refY="0.0" style="overflow:visible">
<path d="m5.77 0-8.65 5v-10z" style="fill-rule:evenodd;stroke:#800080;stroke-width:1pt;fill:#800080" transform="scale(-.8)"/>
</marker>
<marker id="e" orient="auto" refX="0.0" refY="0.0" style="overflow:visible">
<path d="m5.77 0-8.65 5v-10z" style="fill-rule:evenodd;stroke:#f60;stroke-width:1pt;fill:#f60" transform="scale(-.8)"/>
</marker>
<marker id="f" orient="auto" refX="0.0" refY="0.0" style="overflow:visible">
<path d="m5.77 0-8.65 5v-10z" style="fill-rule:evenodd;stroke:#f60;stroke-width:1pt;fill:#f60" transform="scale(-.8)"/>
</marker>
<marker id="g" orient="auto" refX="0.0" refY="0.0" style="overflow:visible">
<path d="m5.77 0-8.65 5v-10z" style="fill-rule:evenodd;stroke:#008000;stroke-width:1pt;fill:#008000" transform="scale(-.8)"/>
</marker>
<marker id="h" orient="auto" refX="0.0" refY="0.0" style="overflow:visible">
<path d="m5.77 0-8.65 5v-10z" style="fill-rule:evenodd;stroke:#008000;stroke-width:1pt;fill:#008000" transform="scale(-.8)"/>
</marker>
<marker id="i" orient="auto" refX="0.0" refY="0.0" style="overflow:visible">
<path d="m5.77 0-8.65 5v-10z" style="fill-rule:evenodd;stroke:#008000;stroke-width:1pt;fill:#008000" transform="scale(-.8)"/>
</marker>
<marker id="j" orient="auto" refX="0.0" refY="0.0" style="overflow:visible">
<path d="m5.77 0-8.65 5v-10z" style="fill-rule:evenodd;stroke:#00f;stroke-width:1pt;fill:#00f" transform="scale(-.8)"/>
</marker>
<marker id="k" orient="auto" refX="0.0" refY="0.0" style="overflow:visible">
<path d="m5.77 0-8.65 5v-10z" style="fill-rule:evenodd;stroke:#00f;stroke-width:1pt;fill:#00f" transform="scale(-.8)"/>
</marker>
<ellipse cx="49.98" cy="43.22" rx="42.2" ry="39.14" style="fill:none;stroke:#000;stroke-width:1.1"/>
<path d="m176.28 86.63s-9.41-22.2-29.18-33.75c-18.24-11.4-54.77-7.24-54.77-7.24" style="fill:none;stroke:#00f;stroke-width:1.13;marker-start:url(#k)"/>
<g style="stroke-width:.94">
<text x="354.83" y="-110.39">
<tspan style="stroke-width:.94" x="354.83" y="-101.53"/>
</text>
<g style="font-size:10;font-family:Droid Sans;letter-spacing:0;word-spacing:0">
<text x="85.53" y="16.03">
<tspan x="85.53" y="16.03">11.22.44.0/24</tspan>
</text>
<text x="39.98" y="44.94">
<tspan style="font-weight:bold;font-size:10;font-family:Droid Sans;stroke-width:.94" x="39.98" y="44.94">AS_1</tspan>
</text>
<text x="94.77" y="42.35">
<tspan style="stroke-width:.94" x="94.77" y="42.35">11.22.33.0/24</tspan>
</text>
</g>
</g>
<ellipse cx="46.3" cy="221.64" rx="42.2" ry="39.14" style="fill:none;stroke:#000;stroke-width:1.1"/>
<text style="font-size:10;font-family:Droid Sans;letter-spacing:0;word-spacing:0;stroke-width:.94" x="36.3" y="223.36">
<tspan style="font-weight:bold;font-size:10;font-family:Droid Sans;stroke-width:.94" x="36.3" y="223.36">AS_4</tspan>
</text>
<ellipse cx="193.11" cy="129.62" rx="42.2" ry="39.14" style="fill:none;stroke:#000;stroke-width:1.1"/>
<text style="font-size:10;font-family:Droid Sans;letter-spacing:0;word-spacing:0;stroke-width:.94" x="183.11" y="131.34">
<tspan style="font-weight:bold;font-size:10;font-family:Droid Sans;stroke-width:.94" x="183.11" y="131.34">AS_3</tspan>
</text>
<ellipse cx="361.63" cy="127.04" rx="42.2" ry="39.14" style="fill:none;stroke:#f00;stroke-width:1.1"/>
<text style="font-size:10;font-family:Droid Sans;letter-spacing:0;word-spacing:0;stroke-width:.94" x="351.63" y="128.76">
<tspan style="font-weight:bold;font-size:10;font-family:Droid Sans;stroke-width:.94" x="351.63" y="128.76">AS_6</tspan>
</text>
<ellipse cx="539.45" cy="128.07" rx="42.2" ry="39.14" style="fill:none;stroke:#000;stroke-width:1.1"/>
<text style="font-size:10;font-family:Droid Sans;letter-spacing:0;word-spacing:0;stroke-width:.94" x="529.45" y="129.79">
<tspan style="font-weight:bold;font-size:10;font-family:Droid Sans;stroke-width:.94" x="529.45" y="129.79">AS_2</tspan>
</text>
<g style="fill:none">
<path d="m326.75 96.46s-32.27-19.76-53.54-20.01c-21.49-.9-59.43 18.61-59.43 18.61" style="stroke:#00f;marker-start:url(#j)"/>
<g style="stroke-width:1.13">
<path d="m336.8 88.49s-65.15-52.77-100.3-62.18c-34.62-10.39-153.51-5.69-153.51-5.69" style="stroke:#008000;marker-start:url(#i)"/>
<path d="m496.14 109.15s-22.89-19.38-45.72-21.19c-21.39-2.34-52.71 20.16-52.71 20.16" style="stroke:#008000;marker-start:url(#h)"/>
<g style="stroke:#800080">
<path d="m403.83 148.76s23.48 19.68 46.31 21.49c21.39 2.34 52.71-20.16 52.71-20.16" style="marker-start:url(#b)"/>
<path d="m229.52 158.22s82.05 47.66 141.65 47.27c54.12 0 131.68-55.39 131.68-55.39" style="marker-start:url(#d)"/>
<path d="m323.52 154.52s-17.45 8.15-41.15 8.57c-22.94 1.82-52.19-14.47-52.19-14.47" style="marker-start:url(#c)"/>
</g>
</g>
<g style="stroke-width:1.69">
<path d="m278.9 146.22-13.79-15.51" style="stroke:#f60"/>
<path d="m265.3 146.16 13.79-15.51" style="stroke:#f60"/>
<g style="stroke:#800080">
<path d="m299.67 170.49-13.79-15.51"/>
<path d="m286.07 170.43 13.79-15.51"/>
</g>
</g>
<path d="m407.62 117.57s17.28 9.42 41.65 9.16c24.49.25 48.57-8.27 48.57-8.27" style="stroke:#008000;stroke-width:1.13;marker-start:url(#g)"/>
<g style="stroke:#008000;stroke-width:1.69">
<path d="m459.92 135.33-13.79-15.51"/>
<path d="m446.32 135.27 13.79-15.51"/>
</g>
<g style="stroke-width:1.13;stroke:#f60">
<path d="m171.85 170.08s-10.29 24.56-30.06 36.11c-18.24 11.4-54.77 7.24-54.77 7.24" style="marker-start:url(#f)"/>
<path d="m316.39 110.58s-17.83-7.72-40.18-7.54c-21.5.81-43.92 12.92-43.92 12.92" style="marker-start:url(#e)"/>
<path d="m313.95 132.73s-16.96 7.12-37.53 6.94c-19.78-.81-40.41-12.92-40.41-12.92" style="marker-start:url(#a)"/>
</g>
</g>
<g style="stroke-width:.94;font-size:10;font-family:Droid Sans;letter-spacing:0;word-spacing:0">
<text x="469.04" y="179.86">
<tspan style="stroke-width:.94" x="469.04" y="179.86">44.33.11.0/24</tspan>
</text>
<text x="93.22" y="224.32">
<tspan style="stroke-width:.94" x="93.22" y="224.32">22.33.44.0/24</tspan>
</text>
</g>
</svg>