<svg height="500" viewBox="0 0 839.26 616.58" width="900" xmlns="http://www.w3.org/2000/svg" xmlns:xlink="http://www.w3.org/1999/xlink">
<marker id="a" orient="auto" refX="0" refY="0" style="overflow:visible">
<path d="m5.77 0-8.65 5v-10z" style="fill:#696969;fill-rule:evenodd;stroke:#696969;stroke-width:1pt" transform="scale(-.4)"/>
</marker>
<marker id="b" orient="auto" refX="0" refY="0" style="overflow:visible">
<path d="m5.77 0-8.65 5v-10z" style="fill:#696969;fill-rule:evenodd;stroke:#696969;stroke-width:1pt" transform="scale(-.4)"/>
</marker>
<marker id="c" orient="auto" refX="0" refY="0" style="overflow:visible">
<path d="m5.77 0-8.65 5v-10z" style="fill:#696969;fill-rule:evenodd;stroke:#696969;stroke-width:1pt" transform="scale(-.4)"/>
</marker>
<marker id="d" orient="auto" refX="0" refY="0" style="overflow:visible">
<path d="m5.77 0-8.65 5v-10z" style="fill:#696969;fill-rule:evenodd;stroke:#696969;stroke-width:1pt" transform="scale(-.4)"/>
</marker>
<marker id="e" orient="auto" refX="0" refY="0" style="overflow:visible">
<path d="m2.31 0-3.46 2v-4z" style="fill:#696969;fill-rule:evenodd;stroke:#696969;stroke-width:.4pt"/>
</marker>
<marker id="f" orient="auto" refX="0" refY="0" style="overflow:visible">
<path d="m2.31 0-3.46 2v-4z" style="fill:#696969;fill-rule:evenodd;stroke:#696969;stroke-width:.4pt"/>
</marker>
<marker id="g" orient="auto" refX="0" refY="0" style="overflow:visible">
<path d="m2.31 0-3.46 2v-4z" style="fill:#696969;fill-rule:evenodd;stroke:#696969;stroke-width:.4pt"/>
</marker>
<marker id="h" orient="auto" refX="0" refY="0" style="overflow:visible">
<path d="m2.31 0-3.46 2v-4z" style="fill:#696969;fill-rule:evenodd;stroke:#696969;stroke-width:.4pt"/>
</marker>
<marker id="i" orient="auto" refX="0" refY="0" style="overflow:visible">
<path d="m2.31 0-3.46 2v-4z" style="fill:#696969;fill-rule:evenodd;stroke:#696969;stroke-width:.4pt"/>
</marker>
<marker id="j" orient="auto" refX="0" refY="0" style="overflow:visible">
<path d="m2.31 0-3.46 2v-4z" style="fill:#696969;fill-rule:evenodd;stroke:#696969;stroke-width:.4pt"/>
</marker>
<marker id="k" orient="auto" refX="0" refY="0" style="overflow:visible">
<path d="m2.31 0-3.46 2v-4z" style="fill:#696969;fill-rule:evenodd;stroke:#696969;stroke-width:.4pt"/>
</marker>
<marker id="l" orient="auto" refX="0" refY="0" style="overflow:visible">
<path d="m2.31 0-3.46 2v-4z" style="fill:#696969;fill-rule:evenodd;stroke:#696969;stroke-width:.4pt"/>
</marker>
<marker id="m" orient="auto" refX="0" refY="0" style="overflow:visible">
<path d="m2.31 0-3.46 2v-4z" style="fill:#696969;fill-rule:evenodd;stroke:#696969;stroke-width:.4pt"/>
</marker>
<marker id="n" orient="auto" refX="0" refY="0" style="overflow:visible">
<path d="m2.31 0-3.46 2v-4z" style="fill:#696969;fill-rule:evenodd;stroke:#696969;stroke-width:.4pt"/>
</marker>
<marker id="o" orient="auto" refX="0" refY="0" style="overflow:visible">
<path d="m2.31 0-3.46 2v-4z" style="fill:#696969;fill-rule:evenodd;stroke:#696969;stroke-width:.4pt"/>
</marker>
<marker id="p" orient="auto" refX="0" refY="0" style="overflow:visible">
<path d="m2.31 0-3.46 2v-4z" style="fill:#696969;fill-rule:evenodd;stroke:#696969;stroke-width:.4pt"/>
</marker>
<marker id="q" orient="auto" refX="0" refY="0" style="overflow:visible">
<path d="m2.31 0-3.46 2v-4z" style="fill:#696969;fill-rule:evenodd;stroke:#696969;stroke-width:.4pt"/>
</marker>
<marker id="r" orient="auto" refX="0" refY="0" style="overflow:visible">
<path d="m2.31 0-3.46 2v-4z" style="fill:#696969;fill-rule:evenodd;stroke:#696969;stroke-width:.4pt"/>
</marker>
<marker id="s" orient="auto" refX="0" refY="0" style="overflow:visible">
<path d="m2.31 0-3.46 2v-4z" style="fill:#696969;fill-rule:evenodd;stroke:#696969;stroke-width:.4pt"/>
</marker>
<marker id="t" orient="auto" refX="0" refY="0" style="overflow:visible">
<path d="m2.31 0-3.46 2v-4z" style="fill:#696969;fill-rule:evenodd;stroke:#696969;stroke-width:.4pt"/>
</marker>
<marker id="u" orient="auto" refX="0" refY="0" style="overflow:visible" transform="translate(-22.74 -273.92)">
<path d="m2.31 0-3.46 2v-4z" style="fill:#696969;fill-rule:evenodd;stroke:#696969;stroke-width:.4pt"/>
</marker>
<marker id="v" orient="auto" refX="0" refY="0" style="overflow:visible" transform="translate(-22.74 -273.92)">
<path d="m5.77 0-8.65 5v-10z" style="fill:#696969;fill-rule:evenodd;stroke:#696969;stroke-width:1pt" transform="scale(-.4)"/>
</marker>
<path d="m474.6 112.42-44.04 28.81-42.69-29.73 44.04-28.81z" style="fill:none;stroke:#800000;stroke-width:1.1;stroke-miterlimit:10"/>
<path d="m161.99 87.22-54.39 15.19" style="fill:#00f;stroke:#00f;marker-start:url(#v)"/>
<path d="m429.54 227.84v28.55" style="fill:#f00;stroke:#f00;marker-end:url(#u)"/>
<path d="m498.18 410.25-28.75 17.12" style="fill:#4d4d4d;stroke:#4d4d4d"/>
<path d="m15.67 51.9h245.36v250.87h-245.36z" style="fill:none;stroke:#000080;stroke-width:1.1;stroke-dasharray:6.6 2.2"/>
<text style="stroke-width:.94" x="358.17" y="-290.11">
<tspan style="stroke-width:.94" x="358.17" y="-281.25"/>
</text>
<text style="font-size:10;font-family:Droid Sans;letter-spacing:0;word-spacing:0;stroke-width:.94" x="505.41" y="546.91">
<tspan x="505.41" y="546.91">after cleaning a page of handwritten notes</tspan> <tspan x="505.41" y="559.41">occupies just ~100kb</tspan>
</text>
<g transform="translate(-22.74 -273.92)">
<ellipse cx="90.05" cy="378.79" rx="39.51" ry="26.17" style="fill:none;stroke:#00f;stroke-width:1.1"/>
<text style="font-size:10;font-family:Droid Sans;letter-spacing:0;word-spacing:0;stroke-width:.94" x="66.09" y="374.68">
<tspan style="stroke-width:.94" x="66.09" y="374.68">pixelbook</tspan> <tspan style="stroke-width:.94" x="66.09" y="387.18">job account</tspan>
</text>
</g>
<path d="m165.21 69.94h73.27v37.02h-73.27z" style="fill:none;stroke:#00f;stroke-width:1.1"/>
<g transform="translate(-22.74 -273.92)">
<text style="font-size:10;font-family:Droid Sans;letter-spacing:0;word-spacing:0;stroke-width:.94" x="59.81" y="453.65">
<tspan style="stroke-width:.94" x="59.81" y="453.65">pixelbook</tspan> <tspan style="stroke-width:.94" x="59.81" y="466.15">perso account</tspan>
</text>
<ellipse cx="91.41" cy="456.76" rx="41.95" ry="26.17" style="fill:none;stroke:#00f;stroke-width:1.1"/>
</g>
<g style="stroke-width:.94;font-size:10;font-family:Droid Sans;letter-spacing:0;word-spacing:0">
<text x="177.88" y="201.66">
<tspan style="stroke-width:.94" x="177.88" y="201.66">jamboard</tspan> <tspan style="stroke-width:.94" x="177.88" y="214.16">(app)</tspan>
</text>
<text x="178.96" y="85.57">
<tspan style="stroke-width:.94" x="178.96" y="85.57">jamboard</tspan> <tspan style="stroke-width:.94" x="178.96" y="98.07">(chrome)</tspan>
</text>
<text x="178.96" y="141.99">
<tspan style="stroke-width:.94" x="178.96" y="141.99">keep</tspan> <tspan style="stroke-width:.94" x="178.96" y="154.49">(chrome)</tspan>
</text>
<text x="175.17" y="259.71">
<tspan style="stroke-width:.94" x="175.17" y="259.71">third party</tspan> <tspan style="stroke-width:.94" x="175.17" y="272.21">(apps)</tspan>
</text>
</g>
<g style="stroke:#00f">
<g style="fill:none;stroke-width:1.1">
<path d="m163.58 126.9h73.27v37.02h-73.27z"/>
<path d="m163.04 186.57h73.27v37.02h-73.27z"/>
<path d="m161.95 244.61h73.27v37.02h-73.27z"/>
</g>
<g style="fill:#00f">
<path d="m161.55 145.08-53.95-42.67" style="marker-start:url(#a)"/>
<path d="m161.55 145.08-51.14 35.8" style="marker-start:url(#b)"/>
<path d="m160.47 203.12-50.05-22.24" style="marker-start:url(#c)"/>
<path d="m160.47 260.62-50.05-79.74" style="marker-start:url(#d)"/>
</g>
</g>
<g style="stroke-width:.94;font-size:10;font-family:Droid Sans;letter-spacing:0;word-spacing:0">
<text style="fill:#00f" x="355.27" y="161.52">
<tspan style="fill:#00f;stroke-width:.94" x="355.27" y="161.52">best quality png</tspan>
</text>
<text x="280.95" y="92.08">
<tspan style="stroke-width:.94" x="280.95" y="92.08">crops image !</tspan>
</text>
<text x="413.85" y="194.61">
<tspan style="stroke-width:.94" x="413.85" y="194.61">pdf</tspan> <tspan style="stroke-width:.94" x="413.85" y="207.11">(vector)</tspan>
</text>
<text x="416.56" y="108.9">
<tspan style="stroke-width:.94" x="416.56" y="108.9">pdf</tspan> <tspan style="stroke-width:.94" x="416.56" y="121.4">(raster)</tspan>
</text>
</g>
<path d="m473.58 199.03-44.04 28.81-42.69-29.73 44.04-28.81z" style="fill:none;stroke:#f00;stroke-width:1.1;stroke-miterlimit:10"/>
<g style="fill:#00f;stroke:#00f">
<path d="m238.18 88.91 149.69 22.59" style="marker-end:url(#e)"/>
<path d="m235.77 145.77 219.43 7.86" style="marker-end:url(#f)"/>
<path d="m236.31 203.27 151.56-91.77" style="marker-end:url(#g)"/>
<path d="m234.69 260.23 152.16-62.12" style="marker-end:url(#h)"/>
</g>
<text style="font-size:10;font-family:Droid Sans;letter-spacing:0;word-spacing:0;stroke-width:.94" x="263.83" y="255.55">
<tspan x="263.83" y="255.55">some apps (squid)</tspan> <tspan x="263.83" y="268.05">output uncompressible !</tspan>
</text>
<path d="m541.93 154.55-44.04 28.81-42.69-29.73 44.04-28.81z" style="fill:none;stroke:#800000;stroke-width:1.1;stroke-miterlimit:10"/>
<text style="font-size:10;font-family:Droid Sans;letter-spacing:0;word-spacing:0;stroke-width:.94" x="484.51" y="149.79">
<tspan style="stroke-width:.94" x="484.51" y="149.79">png</tspan> <tspan style="stroke-width:.94" x="484.51" y="162.29">(raster)</tspan>
</text>
<path d="m578.23 51.44h245.36v250.86h-245.36z" style="fill:none;stroke:#008000;stroke-width:1.1;stroke-dasharray:6.6 2.2"/>
<ellipse cx="773.06" cy="166.56" rx="39.51" ry="26.17" style="fill:none;stroke:#55d400;stroke-width:1.1"/>
<g style="stroke-width:.94;font-size:10;font-family:Droid Sans;letter-spacing:0;word-spacing:0">
<text x="742.04" y="162.06">
<tspan x="742.04" y="162.06">surface</tspan> <tspan x="742.04" y="174.56">perso account</tspan>
</text>
<text x="411.68" y="426.79">
<tspan x="411.68" y="426.79">inkscape</tspan> <tspan x="411.68" y="439.29">simplify</tspan>
</text>
<text x="416.56" y="38.92">
<tspan x="416.56" y="38.92">one</tspan> <tspan x="416.56" y="51.42">(vector)</tspan>
</text>
<text x="617.82" y="144.7">
<tspan x="617.82" y="144.7">one note</tspan> <tspan x="617.82" y="157.2">2016</tspan>
</text>
<text x="617.28" y="93.17">
<tspan x="617.28" y="93.17">one note</tspan>
</text>
</g>
<path d="m480.04 354.8-48.97 31.98-47.47-33 48.97-31.98z" style="fill:none;stroke:#f00;stroke-width:1.1;stroke-miterlimit:10"/>
<text style="font-size:10;font-family:Droid Sans;letter-spacing:0;word-spacing:0;stroke-width:.94" x="406.2" y="350.5">
<tspan style="stroke-width:.94" x="406.2" y="350.5">bloated svg</tspan> <tspan style="stroke-width:.94" x="406.2" y="363">(vector)</tspan>
</text>
<g style="fill:none;stroke-width:1.1">
<path d="m601.35 240.82h73.27v37.02h-73.27z" style="stroke:#55d400"/>
<path d="m601.35 71.57h73.26v37.02h-73.26z" style="stroke:#55d400"/>
<path d="m475.75 45.51-44.04 28.81-42.69-29.73 44.04-28.81z" style="stroke:#800000;stroke-miterlimit:10"/>
<path d="m601.89 129.07h73.27v37.02h-73.27z" style="stroke:#55d400"/>
</g>
<text style="font-size:10;font-family:Droid Sans;letter-spacing:0;word-spacing:0;stroke-width:.94" x="618.9" y="205.46">
<tspan style="stroke-width:.94" x="618.9" y="205.46">inkodo</tspan>
</text>
<text style="font-size:10;font-family:Droid Sans;letter-spacing:0;word-spacing:0;stroke-width:.94" x="615.4" y="256.57">
<tspan style="stroke-width:.94" x="615.4" y="256.57">isf_parser</tspan> <tspan style="stroke-width:.94" x="615.4" y="269.07">??</tspan>
</text>
<path d="m601.35 184.4h73.27v37.02h-73.27z" style="fill:none;stroke:#55d400;stroke-width:1.1"/>
<path d="m394.67 258.72h73.27v37.02h-73.27z" style="fill:none;stroke:#800080;stroke-width:1.1"/>
<g style="fill:#4a0;stroke:#4a0">
<path d="m732.37 166.48-56.96-77.27" style="marker-end:url(#i)"/>
<path d="m732.37 166.48-55.5-20.2" style="marker-end:url(#j)"/>
<path d="m732.37 166.48-55.79 31.89" style="marker-end:url(#k)"/>
<path d="m732.37 166.48-56.62 84.42" style="marker-end:url(#l)"/>
<path d="m601.24 90.22-125.49-44.71" style="marker-end:url(#m)"/>
<path d="m601.08 148.92-127.5 50.11" style="marker-end:url(#n)"/>
<path d="m600 203.71-119.96 151.09" style="marker-end:url(#o)"/>
<path d="m600.54 260.13-120.5 94.67" style="marker-end:url(#p)"/>
</g>
<text style="font-size:10;font-family:Droid Sans;letter-spacing:0;word-spacing:0;fill:#f00;stroke-width:.94" x="510.95" y="55.74">
<tspan style="fill:#f00;stroke-width:.94" x="510.95" y="55.74">useless!!</tspan>
</text>
<text style="font-size:10;font-family:Droid Sans;letter-spacing:0;word-spacing:0;stroke-width:.94" x="412.77" y="274.9">
<tspan x="412.77" y="274.9">poppler</tspan> <tspan x="412.77" y="287.4">+cairo</tspan>
</text>
<path d="m395.75 413.86h73.27v31.05h-73.27z" style="fill:none;stroke:#800080;stroke-width:1.1"/>
<path d="m432.57 295.97v26.08" style="fill:#f00;stroke:#f00;marker-end:url(#q)"/>
<path d="m477.69 568.28-48.97 31.98-47.47-33 48.97-31.98z" style="fill:none;stroke:#f00;stroke-width:2;stroke-miterlimit:10"/>
<text style="font-weight:bold;font-size:10;font-family:Droid Sans;letter-spacing:0;word-spacing:0;stroke-width:.94" x="412.56" y="563.26">
<tspan x="412.56" y="563.26">perfect</tspan> <tspan x="412.56" y="575.76">svg</tspan>
</text>
<text style="font-size:10;font-family:Droid Sans;letter-spacing:0;word-spacing:0;stroke-width:.94" x="407.34" y="489.17">
<tspan x="407.34" y="489.17">svgcleaner</tspan> <tspan x="407.34" y="501.67">multipass</tspan>
</text>
<path d="m395.21 476.52h73.27v31.05h-73.27z" style="fill:none;stroke:#800080;stroke-width:1.1"/>
<g style="fill:#f00;stroke:#f00">
<path d="m431.07 386.78v24.6" style="marker-end:url(#r)"/>
<path d="m430.76 444.88v28.55" style="marker-end:url(#s)"/>
<path d="m430.22 506.73v28.55" style="marker-end:url(#t)"/>
</g>
<text style="font-size:10;font-family:Droid Sans;letter-spacing:0;word-spacing:0;stroke-width:.94" x="499.02" y="406.17">
<tspan x="499.02" y="406.17">will require a lot of work</tspan> <tspan x="499.02" y="418.67">to make it scriptable ...</tspan>
</text>
<path d="m506.44 551.16-28.75 17.12" style="fill:#4d4d4d;stroke:#4d4d4d"/>
<g style="fill:#00f">
<text style="font-size:10;font-family:Droid Sans;letter-spacing:0;word-spacing:0;writing-mode:lr;stroke-width:.94" x="73.74" y="37.17">
<tspan>Only option at work !!</tspan>
</text>
<path d="m122.33 39.31-41.85 40.26" style="stroke:#00f"/>
</g>
</svg>