<svg height="204.37" viewBox="0 0 422.21 204.37" width="422.21" xml:space="preserve" xmlns="http://www.w3.org/2000/svg" xmlns:xlink="http://www.w3.org/1999/xlink"><clipPath id="a"><path d="m337.03 776.14h64.85v7.9h-64.85z" style="clip-rule:evenodd"/></clipPath><clipPath id="b"><path d="m337.03 776.21h64.85v7.82h-64.85z" style="clip-rule:evenodd"/></clipPath><clipPath id="c"><path d="m342.29 755.16h68.04v7.9h-68.04z" style="clip-rule:evenodd"/></clipPath><clipPath id="d"><path d="m342.29 755.23h68.04v7.82h-68.04z" style="clip-rule:evenodd"/></clipPath><clipPath id="e"><path d="m342.29 747.31h79.03v7.92h-79.03z" style="clip-rule:evenodd"/></clipPath><clipPath id="f"><path d="m342.29 747.38h79.03v7.85h-79.03z" style="clip-rule:evenodd"/></clipPath><clipPath id="g"><path d="m347.52 718.44h60.1v7.9h-60.1z" style="clip-rule:evenodd"/></clipPath><clipPath id="h"><path d="m347.52 718.51h60.1v7.82h-60.1z" style="clip-rule:evenodd"/></clipPath><clipPath id="i"><path d="m347.52 710.62h56.11v7.9h-56.11z" style="clip-rule:evenodd"/></clipPath><clipPath id="j"><path d="m347.52 710.66h56.11v7.85h-56.11z" style="clip-rule:evenodd"/></clipPath><clipPath id="k"><path d="m456.29 765.29h79.61v7.92h-79.61z" style="clip-rule:evenodd"/></clipPath><clipPath id="l"><path d="m456.29 765.36h79.61v7.85h-79.61z" style="clip-rule:evenodd"/></clipPath><clipPath id="m"><path d="m462.6 752.71h60.91v7.9h-60.91z" style="clip-rule:evenodd"/></clipPath><clipPath id="n"><path d="m462.6 752.78h60.91v7.82h-60.91z" style="clip-rule:evenodd"/></clipPath><clipPath id="o"><path d="m462.6 744.86h46.37v7.92h-46.37z" style="clip-rule:evenodd"/></clipPath><clipPath id="p"><path d="m462.6 744.94h46.37v7.85h-46.37z" style="clip-rule:evenodd"/></clipPath><clipPath id="q"><path d="m462.94 686.26h66.46v7.9h-66.46z" style="clip-rule:evenodd"/></clipPath><clipPath id="r"><path d="m462.94 686.33h66.46v7.82h-66.46z" style="clip-rule:evenodd"/></clipPath><clipPath id="s"><path d="m462.94 678.43h56.11v7.9h-56.11z" style="clip-rule:evenodd"/></clipPath><clipPath id="t"><path d="m462.94 678.5h56.11v7.82h-56.11z" style="clip-rule:evenodd"/></clipPath><clipPath id="u"><path d="m462.6 705.14h56.71v7.9h-56.71z" style="clip-rule:evenodd"/></clipPath><clipPath id="v"><path d="m462.6 705.22h56.71v7.82h-56.71z" style="clip-rule:evenodd"/></clipPath><clipPath id="w"><path d="m408.02 743.62h50.02v7.9h-50.02z" style="clip-rule:evenodd"/></clipPath><clipPath id="x"><path d="m408.02 743.69h50.02v7.82h-50.02z" style="clip-rule:evenodd"/></clipPath><clipPath id="y"><path d="m459.43 730.68h70.1v7.9h-70.1z" style="clip-rule:evenodd"/></clipPath><clipPath id="z"><path d="m459.43 730.75h70.1v7.82h-70.1z" style="clip-rule:evenodd"/></clipPath><clipPath id="A"><path d="m459.43 722.86h79.06v7.9h-79.06z" style="clip-rule:evenodd"/></clipPath><clipPath id="B"><path d="m459.43 722.9h79.06v7.85h-79.06z" style="clip-rule:evenodd"/></clipPath><clipPath id="C"><path d="m545.83 730.94h49.73v7.9h-49.73z" style="clip-rule:evenodd"/></clipPath><clipPath id="D"><path d="m545.83 731.02h49.73v7.82h-49.73z" style="clip-rule:evenodd"/></clipPath><clipPath id="E"><path d="m545.83 723.12h49.73v7.9h-49.73z" style="clip-rule:evenodd"/></clipPath><clipPath id="F"><path d="m545.83 723.19h49.73v7.82h-49.73z" style="clip-rule:evenodd"/></clipPath><clipPath id="G"><path d="m409.44 725.42h48.67v7.9h-48.67z" style="clip-rule:evenodd"/></clipPath><clipPath id="H"><path d="m409.44 725.5h48.67v7.82h-48.67z" style="clip-rule:evenodd"/></clipPath><clipPath id="I"><path d="m334.22 646.32h114.94v7.9h-114.94z" style="clip-rule:evenodd"/></clipPath><clipPath id="J"><path d="m334.22 646.37h114.94v7.85h-114.94z" style="clip-rule:evenodd"/></clipPath><clipPath id="K"><path d="m334.22 638.47h73.46v7.92h-73.46z" style="clip-rule:evenodd"/></clipPath><clipPath id="L"><path d="m334.22 638.54h73.46v7.85h-73.46z" style="clip-rule:evenodd"/></clipPath><clipPath id="M"><path d="m431.81 627.07h114.94v7.9h-114.94z" style="clip-rule:evenodd"/></clipPath><clipPath id="N"><path d="m431.81 627.14h114.94v7.82h-114.94z" style="clip-rule:evenodd"/></clipPath><clipPath id="O"><path d="m431.81 619.25h92.33v7.9h-92.33z" style="clip-rule:evenodd"/></clipPath><clipPath id="P"><path d="m431.81 619.32h92.33v7.82h-92.33z" style="clip-rule:evenodd"/></clipPath><g transform="matrix(1.25 0 0 -1.25 -369.56 980.63)"><path d="m336.07 784.08h196.9v-117.14h-196.9z" style="fill:none;stroke:#4f81bd;stroke-width:.84;stroke-linecap:round;stroke-linejoin:round;stroke-miterlimit:10"/><g style="clip-path:url(#a)"><g style="clip-path:url(#b)"><text style="font-size:6.43;font-family:Droid Sans" transform="matrix(1 0 0 -1 341.38 777.96)"><tspan x="0 2.93 4.41 7.39 10.77 13.97 17.33 18.78 21.5 24.9 28.28 30.44 33.64 37.02" y="0">Signed content</tspan></text></g></g><path d="m344.47 772.9h59.79v-29.48h-59.79z" style="fill:none;stroke:#008000;stroke-width:.82;stroke-linecap:round;stroke-linejoin:round;stroke-miterlimit:10"/><g style="clip-path:url(#c)"><g style="clip-path:url(#d)"><text style="font-size:6.43;font-family:Droid Sans" transform="matrix(1 0 0 -1 346.61 756.96)"><tspan x="0 3.35 6.43 9.37 10.85 14.26 17.34 20.69 22.04 24.76 28.2 31.57 33.73 36.95 40.33" y="0">Payload content</tspan></text></g></g><g style="clip-path:url(#e)"><g style="clip-path:url(#f)"><text style="font-size:6.43;font-family:Droid Sans" transform="matrix(1 0 0 -1 346.61 749.14)"><tspan x="0 1.95 5.33 7.51 12.68 14.16 15.54 18.92 21.97 25 28.2 29.81 31.21 34.42 39.61 42.69 44.14 45.62 47 51.48" y="0">(html page, email …)</tspan></text></g></g><path d="m345.17 732.74h58.39v-25.87h-58.39z" style="fill:none;stroke:#f60;stroke-width:.82;stroke-linecap:round;stroke-linejoin:round;stroke-miterlimit:10"/><g style="clip-path:url(#g)"><g style="clip-path:url(#h)"><text style="font-size:6.43;font-family:Droid Sans" transform="matrix(1 0 0 -1 351.86 720.24)"><tspan x="0 3.35 6.43 9.35 10.83 14.24 17.32 20.67 21.99 25.37 28.42 30.94" y="0">Payload hash</tspan></text></g></g><g style="clip-path:url(#i)"><g style="clip-path:url(#j)"><text style="font-size:6.43;font-family:Droid Sans" transform="matrix(1 0 0 -1 351.86 712.42)"><tspan x="0 1.95 5.15 8.53 11.25 13.46 16.38 19.75 21.91 25.11 28.49" y="0">(encrypted)</tspan></text></g></g><path d="m455.33 773.26h69.96v-100.01h-69.96z" style="fill:none;stroke:#9436b8;stroke-width:.84;stroke-linecap:round;stroke-linejoin:round;stroke-miterlimit:10"/><g style="clip-path:url(#k)"><g style="clip-path:url(#l)"><text style="font-size:6.43;font-family:Droid Sans" transform="matrix(1 0 0 -1 460.63 767.11)"><tspan x="0 3.35 6.73 10.07 11.55 13 15.72 17.1 20.03 23.23 26.17 27.55 30.28 33.48 35.72 37.88 39.36 41.28 42.76 45.45 48.54 50.69" y="0">Public key certificate</tspan></text></g></g><path d="m461.28 763.01h57v-20.98h-57z" style="fill:none;stroke:#ed1c24;stroke-width:.84;stroke-linecap:round;stroke-linejoin:round;stroke-miterlimit:10"/><g style="clip-path:url(#m)"><g style="clip-path:url(#n)"><text style="font-size:6.43;font-family:Droid Sans" transform="matrix(1 0 0 -1 466.92 754.51)"><tspan x="0 3.35 6.73 10.07 11.55 13 15.72 17.15 20.1 23.3 26.26 27.68 29.64 33.07" y="0">Public key for</tspan></text></g></g><g style="clip-path:url(#o)"><g style="clip-path:url(#p)"><text style="font-size:6.43;font-family:Droid Sans" transform="matrix(1 0 0 -1 466.92 746.69)"><tspan x="0 3.38 6.43 9.38 10.86 14.27 17.35" y="0">payload</tspan></text></g></g><path d="m462 697.27h57.34v-20.64h-57.34z" style="fill:none;stroke:#f60;stroke-width:.84;stroke-linecap:round;stroke-linejoin:round;stroke-miterlimit:10"/><g style="clip-path:url(#q)"><g style="clip-path:url(#r)"><text style="font-size:6.43;font-family:Droid Sans" transform="matrix(1 0 0 -1 467.28 688.08)"><tspan x="0 3.43 6.63 8.88 11.03 12.51 14.45 15.93 18.65 21.73 23.88 27.09 28.42 31.79 34.85 37.36" y="0">Certificate hash</tspan></text></g></g><g style="clip-path:url(#s)"><g style="clip-path:url(#t)"><text style="font-size:6.43;font-family:Droid Sans" transform="matrix(1 0 0 -1 467.28 680.26)"><tspan x="0 1.95 5.15 8.53 11.25 13.49 16.41 19.78 21.94 25.14 28.52" y="0">(encrypted)</tspan></text></g></g><g style="fill:none;stroke-linecap:round;stroke-linejoin:round;stroke-miterlimit:10"><path d="m461.98 752.62-58.42-25.2" style="stroke:#f00;stroke-width:.82"/><path d="m409.87 727.08-6.31.36 4.08 4.82" style="stroke:#f00;stroke-width:.82"/><path d="m592.99 730.73-.19-3.87-.58-3.81-.98-3.72-1.32-3.51-1.63-3.24-2.02-3.02-2.23-2.64-2.52-2.28-2.74-1.9-2.9-1.44-3-.96-3.07-.48h-3.12l-3.1.48-3 .96-2.88 1.44-2.73 1.9-2.55 2.28-2.25 2.64-1.97 3.02-1.66 3.24-1.32 3.51-.96 3.72-.6 3.81-.21 3.87.21 3.91.6 3.79.96 3.7 1.32 3.5 1.66 3.29 1.97 3.02 2.25 2.64 2.55 2.28 2.73 1.9 2.88 1.44 3 .96 3.1.48h3.12l3.07-.48 3-.96 2.9-1.44 2.74-1.9 2.52-2.28 2.23-2.64 2.02-3.02 1.63-3.29 1.32-3.5.98-3.7.58-3.79z" style="stroke:#9436b8;stroke-width:.84"/></g><g style="clip-path:url(#u)"><g style="clip-path:url(#v)"><text style="font-size:6.43;font-family:Droid Sans" transform="matrix(1 0 0 -1 466.92 706.97)"><tspan x="0 1.62 4.14 6.65 10.01 13.21 15.48 16.89 20.32 24.04 25.5 27.12" y="0">Issuer CA ID</tspan></text></g></g><g style="fill:none;stroke-linecap:round;stroke-linejoin:round;stroke-miterlimit:10"><path d="m462.34 717.55h57.69v-17.11h-57.69z" style="stroke:#9436b8;stroke-width:.84"/><g style="stroke:#008000"><path d="m461.45 738.38h57.72v-17.16h-57.72z" style="stroke-width:.84"/><g style="stroke-width:.82"><path d="m461.78 723.84-57.52 22.39"/><path d="m408.5 741.55-4.22 4.68 6.26.58"/></g></g></g><g style="clip-path:url(#w)"><g style="clip-path:url(#x)"><text style="font-size:6.43;font-family:Droid Sans" transform="matrix(1 0 0 -1 412.37 745.44)"><tspan x="0 1.62 4.97 8.17 11.55 13.7 15.18 17.11 18.59 21.79" y="0">Identifies</tspan></text></g></g><g style="clip-path:url(#y)"><g style="clip-path:url(#z)"><text style="font-size:6.43;font-family:Droid Sans" transform="matrix(1 0 0 -1 463.78 732.48)"><tspan x="0 3.35 6.73 10.07 11.55 13 15.72 17.13 20.07 23.28 26.24 27.63 31.05 35.65 39.03 42.23" y="0">Public key owner</tspan></text></g></g><g style="clip-path:url(#A)"><g style="clip-path:url(#B)"><text style="font-size:6.43;font-family:Droid Sans" transform="matrix(1 0 0 -1 463.78 724.66)"><tspan x="0 1.95 5.33 8.53 10.77 13.29 16.72 20.1 21.71 23.03 25.75 29.19 34.37 37.75 40.8 44.18 47.11 51.59" y="0">(person, company…)</tspan></text></g></g><g style="clip-path:url(#C)"><g style="clip-path:url(#D)"><text style="font-size:6.43;font-family:Droid Sans" transform="matrix(1 0 0 -1 550.18 732.77)"><tspan x="0 3.97 7.06 9.21 12.29 15.64 18.72 21.23 24.44 25.77 29.16 31.12" y="0">Database of </tspan></text></g></g><g style="clip-path:url(#E)"><g style="clip-path:url(#F)"><text style="font-size:6.43;font-family:Droid Sans" transform="matrix(1 0 0 -1 550.18 724.92)"><tspan x="0 2.15 4.4 7.75 10.27 12.42 15.64 19.02 20.4 23.8 27.5 28.89 31.82 35.02 37.96" y="0">trusted CA keys</tspan></text></g></g><path d="m553.25 708.48-33.91-20.93" style="fill:none;stroke:#f00;stroke-width:.84;stroke-linecap:round;stroke-linejoin:round;stroke-miterlimit:10"/><path d="m525.65 688.1-6.31-.55 3.33 5.38" style="fill:none;stroke:#f00;stroke-width:.84;stroke-linecap:round;stroke-linejoin:round;stroke-miterlimit:10"/><g style="clip-path:url(#G)"><g style="clip-path:url(#H)"><text style="font-size:6.43;font-family:Droid Sans" transform="matrix(1 0 0 -1 413.76 727.25)"><tspan x="0 3.97 7.18 9.92 12.16 15.1 18.47 20.63" y="0">Decrypts</tspan></text></g></g><g style="fill:none;stroke-linecap:round;stroke-linejoin:round;stroke-miterlimit:10;stroke-width:.82"><path d="m403.9 721.15h10.51v-65.76" style="stroke:#f60"/><path d="m417.24 661.03-2.81-5.64-2.83 5.64" style="stroke:#f60"/><g style="stroke:#ed1c24"><path d="m370.32 706.18v-51.82"/><path d="m373.18 659.98-2.81-5.64-2.83 5.64"/></g></g><g style="clip-path:url(#I)"><g style="clip-path:url(#J)"><text style="font-size:6.43;font-family:Droid Sans" transform="matrix(1 0 0 -1 338.57 648.12)"><tspan x="0 3.97 7.18 9.92 12.16 15.08 18.45 20.61 23.81 27.19 28.49 32.48 35.56 38.07 41.43 42.82 46.02 47.49 50.92 54 55.46 58.18 61.56 63.04 66.1 68.25 71.45 74.83 76.23 80.21 83.29 85.8" y="0">Decrypted Hash = Calculated Hash</tspan></text></g></g><g style="clip-path:url(#K)"><g style="clip-path:url(#L)"><text style="font-size:6.43;font-family:Droid Sans" transform="matrix(1 0 0 -1 340.03 640.3)"><tspan x="0 3.2 6.43 7.81 9.44 12.78 14.94 18.14 21.17 23.39 24.87 27.02 29.93 31.26 33.98 37.36 40.56 43.3" y="0">=&gt; Integrity check</tspan></text></g></g><g style="fill:none;stroke-linecap:round;stroke-linejoin:round;stroke-miterlimit:10"><path d="m461.98 681.19h-10.49v-43.97" style="stroke:#f00;stroke-width:.82"/><path d="m454.32 642.84-2.83-5.62-2.83 5.62" style="stroke:#f00;stroke-width:.82"/><g style="stroke:#f60;stroke-width:.84"><path d="m509.21 672.79.36-36.98"/><path d="m512.28 641.47-2.76-5.66-2.83 5.61"/></g></g><g style="clip-path:url(#M)"><g style="clip-path:url(#N)"><text style="font-size:6.43;font-family:Droid Sans" transform="matrix(1 0 0 -1 436.15 628.9)"><tspan x="0 3.97 7.18 9.92 12.16 15.08 18.45 20.61 23.81 27.19 28.49 32.48 35.56 38.07 41.43 42.82 46.02 47.49 50.92 54 55.46 58.18 61.56 63.04 66.1 68.25 71.45 74.83 76.23 80.21 83.29 85.8" y="0">Decrypted Hash = Calculated Hash</tspan></text></g></g><g style="clip-path:url(#O)"><g style="clip-path:url(#P)"><text style="font-size:6.43;font-family:Droid Sans" transform="matrix(1 0 0 -1 437.62 621.07)"><tspan x="0 3.2 6.43 7.81 12.07 16.69 20.07 23.27 25.52 26.82 29.9 33.25 35.41 38.78 41.99 45.36 47.52 48.97 51.69 54.77 56.93 58.41 61.83" y="0">=&gt; Owner authentication</tspan></text></g></g><g style="fill:none;stroke-width:.84;stroke-linecap:round;stroke-linejoin:round;stroke-miterlimit:10;stroke:#008000"><path d="m520.06 708.98 23.4 21.77"/><path d="m537.43 729 6.03 1.75-2.19-5.93"/></g></g></svg>