<svg height="153.02" viewBox="0 0 449 153.02" width="449" xmlns="http://www.w3.org/2000/svg" xmlns:xlink="http://www.w3.org/1999/xlink">
<clipPath id="a">
<path d="m283.13 725.66h44.52v6.46h-44.52z" style="clip-rule:evenodd"/>
</clipPath>
<clipPath id="b">
<path d="m283.13 725.71h44.52v6.41h-44.52z" style="clip-rule:evenodd"/>
</clipPath>
<clipPath id="c">
<path d="m283.13 719.26h64.42v6.46h-64.42z" style="clip-rule:evenodd"/>
</clipPath>
<clipPath id="d">
<path d="m283.13 719.33h64.42v6.38h-64.42z" style="clip-rule:evenodd"/>
</clipPath>
<clipPath id="e">
<path d="m355.44 725.66h35.04v6.46h-35.04z" style="clip-rule:evenodd"/>
</clipPath>
<clipPath id="f">
<path d="m355.44 725.71h35.04v6.41h-35.04z" style="clip-rule:evenodd"/>
</clipPath>
<clipPath id="g">
<path d="m355.44 719.26h37.9v6.46h-37.9z" style="clip-rule:evenodd"/>
</clipPath>
<clipPath id="h">
<path d="m355.44 719.33h37.82v6.38h-37.82z" style="clip-rule:evenodd"/>
</clipPath>
<clipPath id="i">
<path d="m348 764.81h47.38v6.46h-47.38z" style="clip-rule:evenodd"/>
</clipPath>
<clipPath id="j">
<path d="m348 764.86h47.38v6.41h-47.38z" style="clip-rule:evenodd"/>
</clipPath>
<clipPath id="k">
<path d="m398.02 738.24h41.38v6.46h-41.38z" style="clip-rule:evenodd"/>
</clipPath>
<clipPath id="l">
<path d="m398.02 738.29h41.38v6.41h-41.38z" style="clip-rule:evenodd"/>
</clipPath>
<clipPath id="m">
<path d="m398.02 731.83h55.27v6.46h-55.27z" style="clip-rule:evenodd"/>
</clipPath>
<clipPath id="n">
<path d="m398.02 731.88h55.27v6.41h-55.27z" style="clip-rule:evenodd"/>
</clipPath>
<clipPath id="o">
<path d="m398.02 725.45h57.1v6.46h-57.1z" style="clip-rule:evenodd"/>
</clipPath>
<clipPath id="p">
<path d="m398.02 725.5h57.1v6.41h-57.1z" style="clip-rule:evenodd"/>
</clipPath>
<clipPath id="q">
<path d="m398.02 719.04h60.98v6.46h-60.98z" style="clip-rule:evenodd"/>
</clipPath>
<clipPath id="r">
<path d="m398.02 719.11h60.98v6.38h-60.98z" style="clip-rule:evenodd"/>
</clipPath>
<clipPath id="s">
<path d="m403.44 695.64h53.62v6.46h-53.62z" style="clip-rule:evenodd"/>
</clipPath>
<clipPath id="t">
<path d="m403.44 695.71h53.62v6.38h-53.62z" style="clip-rule:evenodd"/>
</clipPath>
<clipPath id="u">
<path d="m403.44 689.26h50.83v6.46h-50.83z" style="clip-rule:evenodd"/>
</clipPath>
<clipPath id="v">
<path d="m403.44 689.3h50.83v6.41h-50.83z" style="clip-rule:evenodd"/>
</clipPath>
<clipPath id="w">
<path d="m403.44 682.85h40.54v6.48h-40.54z" style="clip-rule:evenodd"/>
</clipPath>
<clipPath id="x">
<path d="m403.44 682.92h40.54v6.41h-40.54z" style="clip-rule:evenodd"/>
</clipPath>
<clipPath id="y">
<path d="m415.44 784.8h57.24v6.48h-57.24z" style="clip-rule:evenodd"/>
</clipPath>
<clipPath id="z">
<path d="m415.44 784.87h57.24v6.41h-57.24z" style="clip-rule:evenodd"/>
</clipPath>
<clipPath id="A">
<path d="m415.44 778.42h77.76v6.46h-77.76z" style="clip-rule:evenodd"/>
</clipPath>
<clipPath id="B">
<path d="m415.44 778.46h77.76v6.41h-77.76z" style="clip-rule:evenodd"/>
</clipPath>
<clipPath id="C">
<path d="m415.44 772.01h77.81v6.48h-77.81z" style="clip-rule:evenodd"/>
</clipPath>
<clipPath id="D">
<path d="m415.44 772.08h77.81v6.41h-77.81z" style="clip-rule:evenodd"/>
</clipPath>
<clipPath id="E">
<path d="m415.44 765.62h40.54v6.46h-40.54z" style="clip-rule:evenodd"/>
</clipPath>
<clipPath id="F">
<path d="m415.44 765.67h40.54v6.41h-40.54z" style="clip-rule:evenodd"/>
</clipPath>
<clipPath id="G">
<path d="m464.62 724.8h32.28v6.46h-32.28z" style="clip-rule:evenodd"/>
</clipPath>
<clipPath id="H">
<path d="m464.62 724.85h32.28v6.41h-32.28z" style="clip-rule:evenodd"/>
</clipPath>
<clipPath id="I">
<path d="m464.62 718.39h39.77v6.48h-39.77z" style="clip-rule:evenodd"/>
</clipPath>
<clipPath id="J">
<path d="m464.62 718.46h39.77v6.41h-39.77z" style="clip-rule:evenodd"/>
</clipPath>
<clipPath id="K">
<path d="m506.04 725.09h42.65v6.46h-42.65z" style="clip-rule:evenodd"/>
</clipPath>
<clipPath id="L">
<path d="m506.04 725.14h42.65v6.41h-42.65z" style="clip-rule:evenodd"/>
</clipPath>
<clipPath id="M">
<path d="m506.04 718.68h72.55v6.46h-72.55z" style="clip-rule:evenodd"/>
</clipPath>
<clipPath id="N">
<path d="m506.04 718.75h72.55v6.38h-72.55z" style="clip-rule:evenodd"/>
</clipPath>
<clipPath id="O">
<path d="m485.18 781.94h64.66v6.46h-64.66z" style="clip-rule:evenodd"/>
</clipPath>
<clipPath id="P">
<path d="m485.18 782.02h64.66v6.38h-64.66z" style="clip-rule:evenodd"/>
</clipPath>
<clipPath id="Q">
<path d="m485.18 775.56h66.77v6.46h-66.77z" style="clip-rule:evenodd"/>
</clipPath>
<clipPath id="R">
<path d="m485.18 775.61h66.77v6.41h-66.77z" style="clip-rule:evenodd"/>
</clipPath>
<clipPath id="S">
<path d="m485.18 769.15h50.54v6.46h-50.54z" style="clip-rule:evenodd"/>
</clipPath>
<clipPath id="T">
<path d="m485.18 769.22h50.54v6.38h-50.54z" style="clip-rule:evenodd"/>
</clipPath>
<clipPath id="U">
<path d="m551.5 683.35h42.12v6.46h-42.12z" style="clip-rule:evenodd"/>
</clipPath>
<clipPath id="V">
<path d="m551.5 683.42h42.12v6.38h-42.12z" style="clip-rule:evenodd"/>
</clipPath>
<clipPath id="W">
<path d="m498.62 686.5h41.66v6.46h-41.66z" style="clip-rule:evenodd"/>
</clipPath>
<clipPath id="X">
<path d="m498.62 686.57h41.66v6.38h-41.66z" style="clip-rule:evenodd"/>
</clipPath>
<clipPath id="Y">
<path d="m498.62 680.11h51.84v6.46h-51.84z" style="clip-rule:evenodd"/>
</clipPath>
<clipPath id="Z">
<path d="m498.62 680.16h51.84v6.41h-51.84z" style="clip-rule:evenodd"/>
</clipPath>
<clipPath id="aa">
<path d="m339.43 790.54h60.98v6.46h-60.98z" style="clip-rule:evenodd"/>
</clipPath>
<clipPath id="ab">
<path d="m339.43 790.58h60.98v6.41h-60.98z" style="clip-rule:evenodd"/>
</clipPath>
<clipPath id="ac">
<path d="m450.89 687.65h37.9v6.46h-37.9z" style="clip-rule:evenodd"/>
</clipPath>
<clipPath id="ad">
<path d="m450.89 687.7h37.9v6.41h-37.9z" style="clip-rule:evenodd"/>
</clipPath>
<g transform="matrix(1.25 0 0 -1.25 -323.19 999.94)">
<g style="fill:none;stroke-linecap:round;stroke-linejoin:round;stroke-miterlimit:10">
<g style="stroke-width:.67">
<path d="m433.8 762.74-11.18-56.9" style="stroke:#548dd4"/>
<path d="m282.89 737.02h48.57v-20.86h-48.57z" style="stroke:#3165bb"/>
<path d="m355.2 738.46h25.73v-25.73h-25.73z" style="stroke:#f60"/>
<path d="m345.77 776.45h38.88v-16.63h-38.88z" style="stroke:#f60"/>
<path d="m398.35 747.02h48.03v-29.13h-48.03z" style="stroke:#008000"/>
<path d="m403.03 705.84h39.17v-24.58h-39.17z" style="stroke:#ed1c24"/>
</g>
<path d="m485.54 794.18h51.44v-31.44h-51.44z" style="stroke:#008000;stroke-width:.7"/>
<path d="m415.51 793.9h62.59v-31.13h-62.59z" style="stroke:#00f;stroke-width:.67"/>
<g style="stroke-width:.7">
<path d="m505.85 737.04h57.72v-22.61h-57.72z" style="stroke:#f60"/>
<g style="stroke:#f00">
<path d="m497.83 694.99h42.87v-17.11h-42.87z"/>
<path d="m550.51 695.23h42.89v-17.11h-42.89z"/>
</g>
</g>
</g>
<g style="clip-path:url(#a)">
<g style="clip-path:url(#b)">
<text style="font-size:5.26;font-family:Droid Sans;font-weight:bold" transform="matrix(1 0 0 -1 286.66 727.15)">
<tspan x="0 3.43 5.53 8.17 10.08 11.51 14.33 16.2 19.03 20.87" y="0">User.proto</tspan>
</text>
</g>
</g>
<g style="clip-path:url(#c)">
<g style="clip-path:url(#d)">
<text style="font-size:5.26;font-family:Droid Sans" transform="matrix(1 0 0 -1 286.66 720.74)">
<tspan x="0 1.59 5.85 8.48 10.54 12.6 15.12 17.6 20.23 21.33 24.09 26.73 28.33 29.54 32.3 33.51 35.27 36.48 39.27 42.03" y="0">(message definition)</tspan>
</text>
</g>
</g>
<g style="clip-path:url(#e)">
<g style="clip-path:url(#f)">
<text style="font-size:5.26;font-family:Droid Sans" transform="matrix(1 0 0 -1 358.97 727.15)">
<tspan x="0 2.75 4.59 7.38 9.14 11.96" y="0">Protoc</tspan>
</text>
</g>
</g>
<g style="clip-path:url(#g)">
<g style="clip-path:url(#h)">
<text style="font-size:5.26;font-family:Droid Sans" transform="matrix(1 0 0 -1 358.97 720.74)">
<tspan x="0 2.22 5.04 9.26 12.02 13.22 14.42 17.05" y="0">compiler</tspan>
</text>
</g>
</g>
<g style="clip-path:url(#i)">
<g style="clip-path:url(#j)">
<text style="font-size:5.26;font-family:Droid Sans" transform="matrix(1 0 0 -1 351.55 766.3)">
<tspan x="0 2.23 3.44 6.17 8.9 10.74 13.51 15.27 18.04 20.27 21.57 23.63" y="0">Libprotoc.so</tspan>
</text>
</g>
</g>
<g style="clip-path:url(#k)">
<g style="clip-path:url(#l)">
<text style="font-size:5.26;font-family:Droid Sans;font-weight:bold" transform="matrix(1 0 0 -1 401.57 739.73)">
<tspan x="0 3.43 5.53 8.17 10.04 11.44 12.81 15.38 17.87" y="0">User.java</tspan>
</text>
</g>
</g>
<g style="clip-path:url(#m)">
<g style="clip-path:url(#n)">
<text style="font-size:5.26;font-family:Droid Sans" transform="matrix(1 0 0 -1 401.57 733.32)">
<tspan x="0 1.59 3.62 6.39 9.15 10.96 13.19 15.8 16.89 18.47 19.68 20.88 23.49 24.68 28.46 29.66 31.41" y="0">(source file with</tspan>
</text>
</g>
</g>
<g style="clip-path:url(#o)">
<g style="clip-path:url(#p)">
<text style="font-size:5.26;font-family:Droid Sans" transform="matrix(1 0 0 -1 401.57 726.94)">
<tspan x="0 4.5 7.12 9.16 11.22 13.7 16.15 18.76 19.84 22.58 25.2 26.78 27.97 30.48 33.21" y="0">Message def and</tspan>
</text>
</g>
</g>
<g style="clip-path:url(#q)">
<g style="clip-path:url(#r)">
<text style="font-size:5.26;font-family:Droid Sans" transform="matrix(1 0 0 -1 401.57 720.53)">
<tspan x="0 4.68 6.51 7.71 9.47 12.08 14.11 16.85 19.35 21.18 23.21 25.83 26.83 28.41 31.15 33.89 36.11 38.17" y="0">Write/parse funcs)</tspan>
</text>
</g>
</g>
<g style="clip-path:url(#s)">
<g style="clip-path:url(#t)">
<text style="font-size:5.26;font-family:Droid Sans" transform="matrix(1 0 0 -1 406.99 697.13)">
<tspan x="0 2.86 4.07 6.86 9.6 10.75 13.49 16.1 18.16 20.39 22.23 23.42 26.15 27.36 30.09" y="0">Blob describing</tspan>
</text>
</g>
</g>
<g style="clip-path:url(#u)">
<g style="clip-path:url(#v)">
<text style="font-size:5.26;font-family:Droid Sans" transform="matrix(1 0 0 -1 406.99 690.74)">
<tspan x="0 3.37 5.43 8.05 9.87 11.02 15.52 18.14 20.19 22.26 24.78 27.23" y="0">User Message</tspan>
</text>
</g>
</g>
<g style="clip-path:url(#w)">
<g style="clip-path:url(#x)">
<text style="font-size:5.28;font-family:Droid Sans" transform="matrix(1 0 0 -1 406.99 684.34)">
<tspan x="0 2.06 3.83 5.68 8.4 10.63 12.4 15.14 16.96" y="0">structure</tspan>
</text>
</g>
</g>
<g style="clip-path:url(#y)">
<g style="clip-path:url(#z)">
<text style="font-size:5.28;font-family:Droid Sans;font-weight:bold" transform="matrix(1 0 0 -1 418.99 786.29)">
<tspan x="0 3.33 5.95 8.06 10.29 12.18 13.5 16.3 18.14 20.94 22.83 24.26 27.07 28.96 31.77 33.6" y="0">Descriptor.proto</tspan>
</text>
</g>
</g>
<g style="clip-path:url(#A)">
<g style="clip-path:url(#B)">
<text style="font-size:5.26;font-family:Droid Sans" transform="matrix(1 0 0 -1 418.99 779.9)">
<tspan x="0 3.26 5.89 7.5 8.7 11.44 14.07 16.13 17.21 18.97 21.73 24.35 25.56 29.78 32.41 34.47 36.53 39.05 41.5 44.13 45.16 46.93 49.34 52.08 54.71" y="0">Defines the message types</tspan>
</text>
</g>
</g>
<g style="clip-path:url(#C)">
<g style="clip-path:url(#D)">
<text style="font-size:5.28;font-family:Droid Sans" transform="matrix(1 0 0 -1 418.99 773.5)">
<tspan x="0 3.39 5.45 8.08 10.82 11.98 13.74 16.55 17.7 20.44 23.07 25.13 27.37 29.21 30.4 33.13 35.76 36.92 39.66 41.72 44.35 46.19 47.34 49.11 51.5 54.25" y="0">Used to describe user type</tspan>
</text>
</g>
</g>
<g style="clip-path:url(#E)">
<g style="clip-path:url(#F)">
<text style="font-size:5.26;font-family:Droid Sans" transform="matrix(1 0 0 -1 418.99 767.11)">
<tspan x="0 2.06 3.84 5.67 8.4 10.62 12.4 15.14 16.98" y="0">structure</tspan>
</text>
</g>
</g>
<g style="clip-path:url(#G)">
<g style="clip-path:url(#H)">
<text style="font-size:5.26;font-family:Droid Sans" transform="matrix(1 0 0 -1 468.14 726.29)">
<tspan x="0 1.66 4.17 6.57 9.09" y="0">Javac</tspan>
</text>
</g>
</g>
<g style="clip-path:url(#I)">
<g style="clip-path:url(#J)">
<text style="font-size:5.28;font-family:Droid Sans" transform="matrix(1 0 0 -1 468.14 719.88)">
<tspan x="0 2.23 5.04 9.28 12.05 13.24 14.46 17.09" y="0">compiler</tspan>
</text>
</g>
</g>
<path d="m464.5 737.54h25.72v-25.7h-25.72z" style="fill:none;stroke:#f60;stroke-width:.67;stroke-linecap:round;stroke-linejoin:round;stroke-miterlimit:10"/>
<g style="clip-path:url(#K)">
<g style="clip-path:url(#L)">
<text style="font-size:5.26;font-family:Droid Sans;font-weight:bold" transform="matrix(1 0 0 -1 509.59 726.58)">
<tspan x="0 3.43 5.53 8.17 10.08 11.51 13.74 15.05 17.62 19.72" y="0">User.class</tspan>
</text>
</g>
</g>
<g style="clip-path:url(#M)">
<g style="clip-path:url(#N)">
<text style="font-size:5.26;font-family:Droid Sans" transform="matrix(1 0 0 -1 509.59 720.17)">
<tspan x="0 2.23 3.44 6.17 8.56 11.2 13.94 15.09 18.85 20.06 21.83 24.57 25.72 28.17 30.97 33.77 36.22 37.43 40.05 41.14 43.36 46.17 48.91" y="0">Linked with google code</tspan>
</text>
</g>
</g>
<g style="clip-path:url(#O)">
<g style="clip-path:url(#P)">
<text style="font-size:5.26;font-family:Droid Sans;font-weight:bold" transform="matrix(1 0 0 -1 488.74 783.43)">
<tspan x="0 3.35 6.14 8.93 11.44 12.76 15.37 16.5 18.21 20.78 23.29 25.86 27.05 29.17 31.95 34.74 36.6 38.84 41.45" y="0">Google Java sources</tspan>
</text>
</g>
</g>
<g style="clip-path:url(#Q)">
<g style="clip-path:url(#R)">
<text style="font-size:5.26;font-family:Droid Sans" transform="matrix(1 0 0 -1 488.74 777.05)">
<tspan x="0 3.26 5.88 7.46 8.67 11.4 14.01 16.05 17.13 19.87 22.39 24.44 27.06 28.25 30.47 31.68 34.2 36.25 38.27 39.4 40.99 43.76" y="0">Defines base class for</tspan>
</text>
</g>
</g>
<g style="clip-path:url(#S)">
<g style="clip-path:url(#T)">
<text style="font-size:5.26;font-family:Droid Sans" transform="matrix(1 0 0 -1 488.74 770.64)">
<tspan x="0 3.37 5.4 8.02 9.85 10.96 15.18 17.8 19.84 21.9 24.41 26.85" y="0">User message</tspan>
</text>
</g>
</g>
<g style="clip-path:url(#U)">
<g style="clip-path:url(#V)">
<text style="font-size:5.26;font-family:Droid Sans;font-weight:bold" transform="matrix(1 0 0 -1 555.05 684.84)">
<tspan x="0 3.41 5.5 8.15 10.01 11.42 14.21 15.5 18.29" y="0">User.blob</tspan>
</text>
</g>
</g>
<g style="clip-path:url(#W)">
<g style="clip-path:url(#X)">
<text style="font-size:5.26;font-family:Droid Sans" transform="matrix(1 0 0 -1 502.15 687.98)">
<tspan x="0 3.37 5.45 8.08 9.91 11.24 14 15.21 18.01" y="0">User.blob</tspan>
</text>
</g>
</g>
<g style="clip-path:url(#Y)">
<g style="clip-path:url(#Z)">
<text style="font-size:5.26;font-family:Droid Sans" transform="matrix(1 0 0 -1 502.15 681.6)">
<tspan x="0 2.41 5.03 6.24 7.84 9 11.76 14.39 16.45 18.68 20.51 21.72 24.48 25.69 28.45" y="0">Self describing</tspan>
</text>
</g>
</g>
<path d="m341.18 799.32h207.53v-45.17h-157.8" style="fill:none;stroke:#a5a5a5;stroke-width:.7;stroke-linecap:round;stroke-linejoin:round;stroke-miterlimit:10"/>
<path d="m392.06 755.04v-49.46h-51.14v94.03" style="fill:none;stroke:#a5a5a5;stroke-width:.67;stroke-linecap:round;stroke-linejoin:round;stroke-miterlimit:10"/>
<g style="clip-path:url(#aa)">
<g style="clip-path:url(#ab)">
<text style="font-size:5.26;font-family:Droid Sans" transform="matrix(1 0 0 -1 342.96 792.02)">
<tspan x="0 2.75 4.59 7.41 9.17 11.98 14.21 15.25 18.01 19.22 21.27 23.04 24.88 26.09 28.84 31.6 33.38 34.59 37.39" y="0">Protoc distribution</tspan>
</text>
</g>
</g>
<g style="fill:none;stroke-linecap:round;stroke-linejoin:round;stroke-miterlimit:10">
<path d="m331.46 726.6 23.74-1.01" style="stroke:#3165bb;stroke-width:.67"/>
<path d="m350.69 728.09 4.51-2.5-4.7-2.11" style="stroke:#3165bb;stroke-width:.67"/>
<g style="stroke:#f60">
<g style="stroke-width:.67">
<path d="m380.64 725.88 17.14 10.58"/>
<path d="m392.66 735.98 5.12.46-2.72-4.37"/>
<path d="m365.21 759.82-.58-21.36"/>
<path d="m367.06 742.99-2.43-4.53-2.18 4.65"/>
<path d="m380.64 723.02 22.39-24.26"/>
<path d="m401.62 703.68 1.41-4.92-4.8 1.8"/>
<path d="m490.1 762.74-12.76-25.2"/>
<path d="m481.46 740.62-4.12-3.08.04 5.16"/>
<path d="m446.38 732.46 17.13-8.57"/>
<path d="m460.42 727.99 3.09-4.1h-5.13"/>
</g>
<g style="stroke-width:.7">
<path d="m490.2 724.68 15.65 1.03"/>
<path d="m501.07 727.7 4.78-1.99-4.44-2.59"/>
<path d="m527.83 714.43-8.54-19.44"/>
<path d="m523.25 698.3-3.96-3.31-.29 5.16"/>
<path d="m552.41 714.74 12.86-19.51"/>
<path d="m564.67 700.34.6-5.11-4.46 2.59"/>
</g>
</g>
<path d="m442.2 688.73 55.06-3.15" style="stroke:#ed1c24;stroke-width:.7"/>
</g>
<g style="clip-path:url(#ac)">
<g style="clip-path:url(#ad)">
<text style="font-size:5.26;font-family:Droid Sans" transform="matrix(1 0 0 -1 454.44 689.14)">
<tspan x="0 2.56 6.79 9.52 12.14 14.87" y="0">Embeds</tspan>
</text>
</g>
</g>
</g>
</svg>