<svg height="344.95" viewBox="0 0 695.74 344.95" width="695.74" xml:space="preserve" xmlns="http://www.w3.org/2000/svg" xmlns:xlink="http://www.w3.org/1999/xlink"><clipPath id="a"><path d="m36.53 720.53h90.6v8.64h-90.6z" style="clip-rule:evenodd"/></clipPath><clipPath id="b"><path d="m36.53 720.6h90.6v8.57h-90.6z" style="clip-rule:evenodd"/></clipPath><clipPath id="c"><path d="m36.53 711.98h72.5v8.64h-72.5z" style="clip-rule:evenodd"/></clipPath><clipPath id="d"><path d="m36.53 712.06h72.5v8.57h-72.5z" style="clip-rule:evenodd"/></clipPath><clipPath id="e"><path d="m36.53 712.06h72.5v8.57h-72.5z" style="clip-rule:evenodd"/></clipPath><clipPath id="f"><path d="m86.95 762.55h81.12v8.64h-81.12z" style="clip-rule:evenodd"/></clipPath><clipPath id="g"><path d="m86.95 762.62h81.12v8.57h-81.12z" style="clip-rule:evenodd"/></clipPath><clipPath id="h"><path d="m86.95 754.01h80.21v8.62h-80.21z" style="clip-rule:evenodd"/></clipPath><clipPath id="i"><path d="m86.95 754.08h80.21v8.54h-80.21z" style="clip-rule:evenodd"/></clipPath><clipPath id="j"><path d="m86.95 754.08h80.21v8.54h-80.21z" style="clip-rule:evenodd"/></clipPath><clipPath id="k"><path d="m52.56 640.32h62.11v8.64h-62.11z" style="clip-rule:evenodd"/></clipPath><clipPath id="l"><path d="m52.56 640.39h62.11v8.57h-62.11z" style="clip-rule:evenodd"/></clipPath><clipPath id="m"><path d="m52.56 631.78h60.82v8.64h-60.82z" style="clip-rule:evenodd"/></clipPath><clipPath id="n"><path d="m52.56 631.85h60.82v8.57h-60.82z" style="clip-rule:evenodd"/></clipPath><clipPath id="o"><path d="m52.56 631.85h60.82v8.57h-60.82z" style="clip-rule:evenodd"/></clipPath><clipPath id="p"><path d="m52.56 623.23h89.54v8.62h-89.54z" style="clip-rule:evenodd"/></clipPath><clipPath id="q"><path d="m52.56 623.3h89.54v8.54h-89.54z" style="clip-rule:evenodd"/></clipPath><clipPath id="r"><path d="m52.56 623.3h89.54v8.54h-89.54z" style="clip-rule:evenodd"/></clipPath><clipPath id="s"><path d="m58.3 661.32h78.62v8.64h-78.62z" style="clip-rule:evenodd"/></clipPath><clipPath id="t"><path d="m58.3 661.42h78.62v8.54h-78.62z" style="clip-rule:evenodd"/></clipPath><clipPath id="u"><path d="m144.24 636.5h49.37v8.64h-49.37z" style="clip-rule:evenodd"/></clipPath><clipPath id="v"><path d="m144.24 636.58h49.37v8.57h-49.37z" style="clip-rule:evenodd"/></clipPath><clipPath id="w"><path d="m144.24 627.96h42.34v8.62h-42.34z" style="clip-rule:evenodd"/></clipPath><clipPath id="x"><path d="m144.24 628.03h42.34v8.54h-42.34z" style="clip-rule:evenodd"/></clipPath><clipPath id="y"><path d="m144.24 628.03h42.34v8.54h-42.34z" style="clip-rule:evenodd"/></clipPath><clipPath id="z"><path d="m302.02 608.23h63.55v8.64h-63.55z" style="clip-rule:evenodd"/></clipPath><clipPath id="A"><path d="m302.02 608.33h63.55v8.54h-63.55z" style="clip-rule:evenodd"/></clipPath><clipPath id="B"><path d="m302.02 599.69h75.1v8.64h-75.1z" style="clip-rule:evenodd"/></clipPath><clipPath id="C"><path d="m302.02 599.76h75.1v8.57h-75.1z" style="clip-rule:evenodd"/></clipPath><clipPath id="D"><path d="m302.02 599.76h75.1v8.57h-75.1z" style="clip-rule:evenodd"/></clipPath><clipPath id="E"><path d="m132.79 590.66h60.43v8.64h-60.43z" style="clip-rule:evenodd"/></clipPath><clipPath id="F"><path d="m132.79 590.74h60.43v8.57h-60.43z" style="clip-rule:evenodd"/></clipPath><clipPath id="G"><path d="m132.79 582.12h101.06v8.64h-101.06z" style="clip-rule:evenodd"/></clipPath><clipPath id="H"><path d="m132.79 582.19h101.06v8.57h-101.06z" style="clip-rule:evenodd"/></clipPath><clipPath id="I"><path d="m132.79 582.19h101.06v8.57h-101.06z" style="clip-rule:evenodd"/></clipPath><clipPath id="J"><path d="m132.79 573.58h102.98v8.64h-102.98z" style="clip-rule:evenodd"/></clipPath><clipPath id="K"><path d="m132.79 573.65h102.98v8.57h-102.98z" style="clip-rule:evenodd"/></clipPath><clipPath id="L"><path d="m132.79 573.65h102.98v8.57h-102.98z" style="clip-rule:evenodd"/></clipPath><clipPath id="M"><path d="m165 769.2h57.38v8.64h-57.38z" style="clip-rule:evenodd"/></clipPath><clipPath id="N"><path d="m165 769.27h57.38v8.57h-57.38z" style="clip-rule:evenodd"/></clipPath><clipPath id="O"><path d="m165 760.66h58.37v8.64h-58.37z" style="clip-rule:evenodd"/></clipPath><clipPath id="P"><path d="m165 760.73h58.37v8.57h-58.37z" style="clip-rule:evenodd"/></clipPath><clipPath id="Q"><path d="m165 760.73h58.37v8.57h-58.37z" style="clip-rule:evenodd"/></clipPath><clipPath id="R"><path d="m229.56 713.06h46.92v8.62h-46.92z" style="clip-rule:evenodd"/></clipPath><clipPath id="S"><path d="m229.56 713.14h46.92v8.54h-46.92z" style="clip-rule:evenodd"/></clipPath><clipPath id="T"><path d="m229.56 704.52h58.37v8.62h-58.37z" style="clip-rule:evenodd"/></clipPath><clipPath id="U"><path d="m229.56 704.59h58.37v8.54h-58.37z" style="clip-rule:evenodd"/></clipPath><clipPath id="V"><path d="m229.56 704.59h58.37v8.54h-58.37z" style="clip-rule:evenodd"/></clipPath><clipPath id="W"><path d="m227.52 647.57h90.98v8.64h-90.98z" style="clip-rule:evenodd"/></clipPath><clipPath id="X"><path d="m227.52 647.66h90.98v8.54h-90.98z" style="clip-rule:evenodd"/></clipPath><clipPath id="Y"><path d="m228.29 633.07h48.12v8.62h-48.12z" style="clip-rule:evenodd"/></clipPath><clipPath id="Z"><path d="m228.29 633.14h48.12v8.54h-48.12z" style="clip-rule:evenodd"/></clipPath><clipPath id="aa"><path d="m228.29 624.53h44.69v8.62h-44.69z" style="clip-rule:evenodd"/></clipPath><clipPath id="ab"><path d="m228.29 624.6h44.69v8.54h-44.69z" style="clip-rule:evenodd"/></clipPath><clipPath id="ac"><path d="m228.29 624.6h44.69v8.54h-44.69z" style="clip-rule:evenodd"/></clipPath><clipPath id="ad"><path d="m228.29 615.96h67.54v8.64h-67.54z" style="clip-rule:evenodd"/></clipPath><clipPath id="ae"><path d="m228.29 616.06h67.54v8.54h-67.54z" style="clip-rule:evenodd"/></clipPath><clipPath id="af"><path d="m228.29 616.06h67.54v8.54h-67.54z" style="clip-rule:evenodd"/></clipPath><clipPath id="ag"><path d="m191.23 690.36h85.63v8.64h-85.63z" style="clip-rule:evenodd"/></clipPath><clipPath id="ah"><path d="m191.23 690.43h85.63v8.57h-85.63z" style="clip-rule:evenodd"/></clipPath><clipPath id="ai"><path d="m162.96 746.5h98.64v8.64h-98.64z" style="clip-rule:evenodd"/></clipPath><clipPath id="aj"><path d="m162.96 746.59h98.64v8.54h-98.64z" style="clip-rule:evenodd"/></clipPath><clipPath id="ak"><path d="m128.21 652.15h93.12v8.64h-93.12z" style="clip-rule:evenodd"/></clipPath><clipPath id="al"><path d="m128.21 652.25h93.12v8.54h-93.12z" style="clip-rule:evenodd"/></clipPath><clipPath id="am"><path d="m300.1 628.1h86.95v8.64h-86.95z" style="clip-rule:evenodd"/></clipPath><clipPath id="an"><path d="m300.1 628.18h86.95v8.57h-86.95z" style="clip-rule:evenodd"/></clipPath><clipPath id="ao"><path d="m125.14 696.86h64.73v8.62h-64.73z" style="clip-rule:evenodd"/></clipPath><clipPath id="ap"><path d="m125.14 696.94h64.73v8.54h-64.73z" style="clip-rule:evenodd"/></clipPath><clipPath id="aq"><path d="m125.14 688.3h79.85v8.64h-79.85z" style="clip-rule:evenodd"/></clipPath><clipPath id="ar"><path d="m125.14 688.39h79.85v8.54h-79.85z" style="clip-rule:evenodd"/></clipPath><clipPath id="as"><path d="m309.65 677.76h46.15v8.62h-46.15z" style="clip-rule:evenodd"/></clipPath><clipPath id="at"><path d="m309.65 677.83h46.15v8.54h-46.15z" style="clip-rule:evenodd"/></clipPath><clipPath id="au"><path d="m309.65 669.22h82.2v8.62h-82.2z" style="clip-rule:evenodd"/></clipPath><clipPath id="av"><path d="m309.65 669.29h82.2v8.54h-82.2z" style="clip-rule:evenodd"/></clipPath><clipPath id="aw"><path d="m309.65 669.29h82.2v8.54h-82.2z" style="clip-rule:evenodd"/></clipPath><clipPath id="ax"><path d="m309.65 660.65h111.48v8.64h-111.48z" style="clip-rule:evenodd"/></clipPath><clipPath id="ay"><path d="m309.65 660.74h111.48v8.54h-111.48z" style="clip-rule:evenodd"/></clipPath><clipPath id="az"><path d="m309.65 660.74h111.48v8.54h-111.48z" style="clip-rule:evenodd"/></clipPath><clipPath id="aA"><path d="m309.65 652.1h99.7v8.64h-99.7z" style="clip-rule:evenodd"/></clipPath><clipPath id="aB"><path d="m309.65 652.2h99.7v8.54h-99.7z" style="clip-rule:evenodd"/></clipPath><clipPath id="aC"><path d="m309.65 652.2h99.7v8.54h-99.7z" style="clip-rule:evenodd"/></clipPath><clipPath id="aD"><path d="m527.02 761.02h68.59v8.64h-68.59z" style="clip-rule:evenodd"/></clipPath><clipPath id="aE"><path d="m527.02 761.09h68.59v8.57h-68.59z" style="clip-rule:evenodd"/></clipPath><clipPath id="aF"><path d="m377.38 610.44h43.32v8.64h-43.32z" style="clip-rule:evenodd"/></clipPath><clipPath id="aG"><path d="m377.38 610.51h43.32v8.57h-43.32z" style="clip-rule:evenodd"/></clipPath><clipPath id="aH"><path d="m377.38 601.9h90.46v8.62h-90.46z" style="clip-rule:evenodd"/></clipPath><clipPath id="aI"><path d="m377.38 601.97h90.46v8.54h-90.46z" style="clip-rule:evenodd"/></clipPath><clipPath id="aJ"><path d="m377.38 601.97h90.46v8.54h-90.46z" style="clip-rule:evenodd"/></clipPath><clipPath id="aK"><path d="m243.19 676.22h88.99v8.64h-88.99z" style="clip-rule:evenodd"/></clipPath><clipPath id="aL"><path d="m243.19 676.3h88.99v8.57h-88.99z" style="clip-rule:evenodd"/></clipPath><clipPath id="aM"><path d="m375.36 625.8h67.3v8.64h-67.3z" style="clip-rule:evenodd"/></clipPath><clipPath id="aN"><path d="m375.36 625.9h67.3v8.54h-67.3z" style="clip-rule:evenodd"/></clipPath><clipPath id="aO"><path d="m453.67 785.47h49.42v8.62h-49.42z" style="clip-rule:evenodd"/></clipPath><clipPath id="aP"><path d="m453.67 785.54h49.42v8.54h-49.42z" style="clip-rule:evenodd"/></clipPath><clipPath id="aQ"><path d="m453.67 776.93h69.53v8.62h-69.53z" style="clip-rule:evenodd"/></clipPath><clipPath id="aR"><path d="m453.67 777h69.53v8.54h-69.53z" style="clip-rule:evenodd"/></clipPath><clipPath id="aS"><path d="m453.67 768.36h72.43v8.64h-72.43z" style="clip-rule:evenodd"/></clipPath><clipPath id="aT"><path d="m453.67 768.46h72.43v8.54h-72.43z" style="clip-rule:evenodd"/></clipPath><clipPath id="aU"><path d="m462.07 700.68h77.47v8.62h-77.47z" style="clip-rule:evenodd"/></clipPath><clipPath id="aV"><path d="m462.07 700.75h77.47v8.54h-77.47z" style="clip-rule:evenodd"/></clipPath><clipPath id="aW"><path d="m462.07 692.11h43.78v8.64h-43.78z" style="clip-rule:evenodd"/></clipPath><clipPath id="aX"><path d="m462.07 692.21h43.78v8.54h-43.78z" style="clip-rule:evenodd"/></clipPath><clipPath id="aY"><path d="m462.07 692.21h43.78v8.54h-43.78z" style="clip-rule:evenodd"/></clipPath><clipPath id="aZ"><path d="m411.26 688.06h74.5v8.64h-74.5z" style="clip-rule:evenodd"/></clipPath><clipPath id="a0"><path d="m411.26 688.15h74.5v8.54h-74.5z" style="clip-rule:evenodd"/></clipPath><clipPath id="a1"><path d="m321.43 759.1h49.03v8.64h-49.03z" style="clip-rule:evenodd"/></clipPath><clipPath id="a2"><path d="m321.43 759.17h49.03v8.57h-49.03z" style="clip-rule:evenodd"/></clipPath><clipPath id="a3"><path d="m321.43 750.55h107.33v8.64h-107.33z" style="clip-rule:evenodd"/></clipPath><clipPath id="a4"><path d="m321.43 750.62h107.33v8.57h-107.33z" style="clip-rule:evenodd"/></clipPath><clipPath id="a5"><path d="m321.43 750.62h107.33v8.57h-107.33z" style="clip-rule:evenodd"/></clipPath><clipPath id="a6"><path d="m321.43 742.01h118.8v8.64h-118.8z" style="clip-rule:evenodd"/></clipPath><clipPath id="a7"><path d="m321.43 742.08h118.8v8.57h-118.8z" style="clip-rule:evenodd"/></clipPath><clipPath id="a8"><path d="m321.43 742.08h118.8v8.57h-118.8z" style="clip-rule:evenodd"/></clipPath><clipPath id="a9"><path d="m321.43 733.46h73.18v8.62h-73.18z" style="clip-rule:evenodd"/></clipPath><clipPath id="ba"><path d="m321.43 733.54h73.18v8.54h-73.18z" style="clip-rule:evenodd"/></clipPath><clipPath id="bb"><path d="m321.43 733.54h73.18v8.54h-73.18z" style="clip-rule:evenodd"/></clipPath><clipPath id="bc"><path d="m428.06 740.4h56.86v8.62h-56.86z" style="clip-rule:evenodd"/></clipPath><clipPath id="bd"><path d="m428.06 740.47h56.86v8.54h-56.86z" style="clip-rule:evenodd"/></clipPath><clipPath id="be"><path d="m235.92 751.08h108.96v8.64h-108.96z" style="clip-rule:evenodd"/></clipPath><clipPath id="bf"><path d="m235.92 751.18h108.96v8.54h-108.96z" style="clip-rule:evenodd"/></clipPath><clipPath id="bg"><path d="m235.92 742.54h88.25v8.64h-88.25z" style="clip-rule:evenodd"/></clipPath><clipPath id="bh"><path d="m235.92 742.61h88.25v8.57h-88.25z" style="clip-rule:evenodd"/></clipPath><clipPath id="bi"><path d="m324.55 704.5h75.94v8.62h-75.94z" style="clip-rule:evenodd"/></clipPath><clipPath id="bj"><path d="m324.55 704.57h75.94v8.54h-75.94z" style="clip-rule:evenodd"/></clipPath><clipPath id="bk"><path d="m436.46 714.43h100.18v8.62h-100.18z" style="clip-rule:evenodd"/></clipPath><clipPath id="bl"><path d="m436.49 714.5h100.15v8.54h-100.15z" style="clip-rule:evenodd"/></clipPath><clipPath id="bm"><path d="m304.68 790.82h69.07v8.62h-69.07z" style="clip-rule:evenodd"/></clipPath><clipPath id="bn"><path d="m304.68 790.9h69.07v8.54h-69.07z" style="clip-rule:evenodd"/></clipPath><clipPath id="bo"><path d="m530.83 733.51h55.32v8.64h-55.32z" style="clip-rule:evenodd"/></clipPath><clipPath id="bp"><path d="m530.83 733.61h55.32v8.54h-55.32z" style="clip-rule:evenodd"/></clipPath><clipPath id="bq"><path d="m530.83 724.97h55.39v8.64h-55.39z" style="clip-rule:evenodd"/></clipPath><clipPath id="br"><path d="m530.83 725.04h55.39v8.57h-55.39z" style="clip-rule:evenodd"/></clipPath><clipPath id="bs"><path d="m530.83 725.04h55.39v8.57h-55.39z" style="clip-rule:evenodd"/></clipPath><clipPath id="bt"><path d="m530.83 716.42h64.78v8.64h-64.78z" style="clip-rule:evenodd"/></clipPath><clipPath id="bu"><path d="m530.83 716.5h64.78v8.57h-64.78z" style="clip-rule:evenodd"/></clipPath><clipPath id="bv"><path d="m530.83 716.5h64.78v8.57h-64.78z" style="clip-rule:evenodd"/></clipPath><clipPath id="bw"><path d="m528.67 677.52h66.94v8.64h-66.94z" style="clip-rule:evenodd"/></clipPath><clipPath id="bx"><path d="m528.67 677.62h66.94v8.54h-66.94z" style="clip-rule:evenodd"/></clipPath><clipPath id="by"><path d="m528.67 668.98h40.03v8.64h-40.03z" style="clip-rule:evenodd"/></clipPath><clipPath id="bz"><path d="m528.67 669.05h40.03v8.57h-40.03z" style="clip-rule:evenodd"/></clipPath><clipPath id="bA"><path d="m528.67 669.05h40.03v8.57h-40.03z" style="clip-rule:evenodd"/></clipPath><clipPath id="bB"><path d="m528.67 660.43h43.78v8.64h-43.78z" style="clip-rule:evenodd"/></clipPath><clipPath id="bC"><path d="m528.67 660.5h43.78v8.57h-43.78z" style="clip-rule:evenodd"/></clipPath><clipPath id="bD"><path d="m528.67 660.5h43.78v8.57h-43.78z" style="clip-rule:evenodd"/></clipPath><clipPath id="bE"><path d="m275.86 564h44.16v8.64h-44.16z" style="clip-rule:evenodd"/></clipPath><clipPath id="bF"><path d="m275.86 564.07h44.16v8.57h-44.16z" style="clip-rule:evenodd"/></clipPath><clipPath id="bG"><path d="m275.86 555.46h55.54v8.64h-55.54z" style="clip-rule:evenodd"/></clipPath><clipPath id="bH"><path d="m275.86 555.53h55.54v8.57h-55.54z" style="clip-rule:evenodd"/></clipPath><clipPath id="bI"><path d="m275.86 555.53h55.54v8.57h-55.54z" style="clip-rule:evenodd"/></clipPath><clipPath id="bJ"><path d="m275.86 546.91h82.9v8.62h-82.9z" style="clip-rule:evenodd"/></clipPath><clipPath id="bK"><path d="m275.86 546.98h82.9v8.54h-82.9z" style="clip-rule:evenodd"/></clipPath><clipPath id="bL"><path d="m275.86 546.98h82.9v8.54h-82.9z" style="clip-rule:evenodd"/></clipPath><clipPath id="bM"><path d="m402.36 564.34h41.81v8.64h-41.81z" style="clip-rule:evenodd"/></clipPath><clipPath id="bN"><path d="m402.36 564.41h41.78v8.57h-41.78z" style="clip-rule:evenodd"/></clipPath><clipPath id="bO"><path d="m402.36 555.79h49.82v8.62h-49.82z" style="clip-rule:evenodd"/></clipPath><clipPath id="bP"><path d="m402.36 555.86h49.82v8.54h-49.82z" style="clip-rule:evenodd"/></clipPath><clipPath id="bQ"><path d="m402.36 555.86h49.82v8.54h-49.82z" style="clip-rule:evenodd"/></clipPath><clipPath id="bR"><path d="m402.36 547.25h80.52v8.62h-80.52z" style="clip-rule:evenodd"/></clipPath><clipPath id="bS"><path d="m402.36 547.32h80.52v8.54h-80.52z" style="clip-rule:evenodd"/></clipPath><clipPath id="bT"><path d="m402.36 547.32h80.52v8.54h-80.52z" style="clip-rule:evenodd"/></clipPath><clipPath id="bU"><path d="m402.36 538.68h53.5v8.64h-53.5z" style="clip-rule:evenodd"/></clipPath><clipPath id="bV"><path d="m402.36 538.78h53.5v8.54h-53.5z" style="clip-rule:evenodd"/></clipPath><clipPath id="bW"><path d="m402.36 538.78h53.5v8.54h-53.5z" style="clip-rule:evenodd"/></clipPath><clipPath id="bX"><path d="m339.46 559.34h58.58v8.64h-58.58z" style="clip-rule:evenodd"/></clipPath><clipPath id="bY"><path d="m339.46 559.42h58.58v8.57h-58.58z" style="clip-rule:evenodd"/></clipPath><clipPath id="bZ"><path d="m339.46 550.8h84.1v8.64h-84.1z" style="clip-rule:evenodd"/></clipPath><clipPath id="b0"><path d="m339.46 550.87h84.1v8.57h-84.1z" style="clip-rule:evenodd"/></clipPath><clipPath id="b1"><path d="m384.91 521.93h80.45v8.62h-80.45z" style="clip-rule:evenodd"/></clipPath><clipPath id="b2"><path d="m384.91 522h80.45v8.54h-80.45z" style="clip-rule:evenodd"/></clipPath><clipPath id="b3"><path d="m225.98 591.05h71.59v8.64h-71.59z" style="clip-rule:evenodd"/></clipPath><clipPath id="b4"><path d="m225.98 591.12h71.59v8.57h-71.59z" style="clip-rule:evenodd"/></clipPath><clipPath id="b5"><path d="m267.62 578.83h70.37v8.64h-70.37z" style="clip-rule:evenodd"/></clipPath><clipPath id="b6"><path d="m267.62 578.9h70.37v8.57h-70.37z" style="clip-rule:evenodd"/></clipPath><clipPath id="b7"><path d="m446.02 578.06h63.5v8.64h-63.5z" style="clip-rule:evenodd"/></clipPath><clipPath id="b8"><path d="m446.02 578.14h63.5v8.57h-63.5z" style="clip-rule:evenodd"/></clipPath><g transform="matrix(1.25 0 0 -1.25 -45.74 997.71)"><g style="clip-path:url(#a)"><g style="clip-path:url(#b)"><text style="font-size:7.03;font-family:Droid Sans" transform="matrix(1 0 0 -1 41.26 722.52)"><tspan x="0 3.75 7.48 13.14 18.79 22.16 25.82 29.51 30.93 32.71 36.36 38.71 42.23 44.68 48.35 50.8 54.3 56.66 60.16" y="0">Command Interpreter</tspan></text></g></g><g style="clip-path:url(#c)"><g style="clip-path:url(#d)"><text style="font-size:7.03;font-family:Droid Sans" transform="matrix(1 0 0 -1 42.86 713.98)"><tspan x="0" y="0">-</tspan></text></g><g style="clip-path:url(#e)"><text style="font-size:7.03;font-family:Droid Sans" transform="matrix(1 0 0 -1 46.61 713.98)"><tspan x="0 3.29 6.98 10.63 12.4 15.91 18.95 22.45 25.43 29.09 31.45 34.96 37.09" y="0">gdb.execute()</tspan></text></g></g><g style="clip-path:url(#f)"><g style="clip-path:url(#g)"><text style="font-size:7.03;font-family:Droid Sans" transform="matrix(1 0 0 -1 91.68 764.54)"><tspan x="0 4.44 8.78 12.6 14.13 17.88 21.61 25.3 27.42 29.04 32.31 36 38.43 41.8 44.15 45.77 49.51" y="0">GDB Configuration</tspan></text></g></g><g style="clip-path:url(#h)"><g style="clip-path:url(#i)"><text style="font-size:7.01;font-family:Droid Sans" transform="matrix(1 0 0 -1 93.29 755.98)"><tspan x="0" y="0">-</tspan></text></g><g style="clip-path:url(#j)"><text style="font-size:7.01;font-family:Droid Sans" transform="matrix(1 0 0 -1 97.03 755.98)"><tspan x="0 3.3 6.98 10.63 12.4 16.06 19.41 21.86 25.21 30.88 34.37 36.75 40.24 42.69 44.83" y="0">gdb.parameter()</tspan></text></g></g><g style="clip-path:url(#k)"><g style="clip-path:url(#l)"><text style="font-size:7.03;font-family:Droid Sans" transform="matrix(1 0 0 -1 57.31 642.31)"><tspan x="0 3.83 6.24 9.74 13.11 16.31 19.94 23.65 25.27 28.89 31.25" y="0">Breakpoints</tspan></text></g><path d="m57.31 641.09h34.13v.46h-34.13z" style="fill-rule:evenodd"/></g><g style="clip-path:url(#m)"><g style="clip-path:url(#n)"><text style="font-size:7.03;font-family:Droid Sans" transform="matrix(1 0 0 -1 58.9 633.77)"><tspan x="0" y="0">-</tspan></text></g><g style="clip-path:url(#o)"><text style="font-size:7.03;font-family:Droid Sans" transform="matrix(1 0 0 -1 62.64 633.77)"><tspan x="0 3.5 7 8.59 12.24 13.82 16.18 19.68 23.18 25.32" y="0">__init__()</tspan></text></g></g><g style="clip-path:url(#p)"><g style="clip-path:url(#q)"><text style="font-size:7.01;font-family:Droid Sans" transform="matrix(1 0 0 -1 58.9 625.22)"><tspan x="0" y="0">-</tspan></text></g><g style="clip-path:url(#r)"><text style="font-size:7.01;font-family:Droid Sans" transform="matrix(1 0 0 -1 62.64 625.22)"><tspan x="0 1.58 5.3 8.26 11.62 13.97 15.58 19.27 22.95 24.7 26.06 29.55 33.22 36.58 40.22 41.8 45.29 48.97 50.56 52.29 54.06" y="0">location, enabled ...</tspan></text></g></g><g style="clip-path:url(#s)"><g style="clip-path:url(#t)"><text style="font-size:7.03;font-family:Droid Sans" transform="matrix(1 0 0 -1 63.02 663.31)"><tspan x="0 3.29 6.98 10.63 12.4 16.05 18.51 22.01 25.38 28.6 32.29 36 37.61 41.31 43.66 46.41 48.56" y="0">gdb.breakpoints()</tspan></text></g></g><g style="clip-path:url(#u)"><g style="clip-path:url(#v)"><text style="font-size:7.03;font-family:Droid Sans" transform="matrix(1 0 0 -1 148.99 638.5)"><tspan x="0 1.77 5.4 7.55 11.05 13.47 15.05 18.75" y="0">Inferior</tspan></text></g><path d="m148.99 637.27h21.31v.46h-21.31z" style="fill-rule:evenodd"/></g><g style="clip-path:url(#w)"><g style="clip-path:url(#x)"><text style="font-size:7.01;font-family:Droid Sans" transform="matrix(1 0 0 -1 150.58 629.95)"><tspan x="0" y="0">-</tspan></text></g><g style="clip-path:url(#y)"><text style="font-size:7.01;font-family:Droid Sans" transform="matrix(1 0 0 -1 154.32 629.95)"><tspan x="0 3.65 5.23" y="0">pid</tspan></text></g></g><g style="clip-path:url(#z)"><g style="clip-path:url(#A)"><text style="font-size:7.03;font-family:Droid Sans" transform="matrix(1 0 0 -1 306.74 610.22)"><tspan x="0 4.07 6.5 9.48 13.17 14.76 17.12 20.66 23.63 26 29.7 32.12" y="0">Architecture</tspan></text></g><path d="m306.74 609h35.62v.46h-35.62z" style="fill-rule:evenodd"/></g><g style="clip-path:url(#B)"><g style="clip-path:url(#C)"><text style="font-size:7.03;font-family:Droid Sans" transform="matrix(1 0 0 -1 308.35 601.68)"><tspan x="0" y="0">-</tspan></text></g><g style="clip-path:url(#D)"><text style="font-size:7.03;font-family:Droid Sans;fill:#f00" transform="matrix(1 0 0 -1 312.1 601.68)"><tspan x="0 3.69 5.28 8.03 11.4 14.15 16.91 20.43 26.09 29.78 31.37 34.89 37.02" y="0">disassemble()</tspan></text></g></g><g style="clip-path:url(#E)"><g style="clip-path:url(#F)"><text style="font-size:7.03;font-family:Droid Sans" transform="matrix(1 0 0 -1 137.52 592.66)"><tspan x="0 6.01 9.51 15.18 18.92 21.37 24.57 25.94 27.71" y="0">Memory IO</tspan></text></g></g><g style="clip-path:url(#G)"><g style="clip-path:url(#H)"><text style="font-size:7.03;font-family:Droid Sans" transform="matrix(1 0 0 -1 139.13 584.11)"><tspan x="0" y="0">-</tspan></text></g><g style="clip-path:url(#I)"><text style="font-size:7.03;font-family:Droid Sans" transform="matrix(1 0 0 -1 142.87 584.11)"><tspan x="0 1.77 5.42 7.57 11.07 13.52 15.12 18.85 21.31 23.05 25.51 29.01 32.38 36.03 39.53 45.19 48.7 54.27 57.94 60.39 63.59 65.72" y="0">Inferior.read_memory()</tspan></text></g></g><g style="clip-path:url(#J)"><g style="clip-path:url(#K)"><text style="font-size:7.03;font-family:Droid Sans" transform="matrix(1 0 0 -1 139.13 575.57)"><tspan x="0" y="0">-</tspan></text></g><g style="clip-path:url(#L)"><text style="font-size:7.03;font-family:Droid Sans" transform="matrix(1 0 0 -1 142.87 575.57)"><tspan x="0 1.77 5.42 7.57 11.07 13.52 15.12 18.85 21.31 23.05 28.08 30.53 32.15 34.51 38.01 41.51 47.1 50.6 56.17 59.91 62.36 65.5 67.63" y="0">Inferior.write_memory()</tspan></text></g></g><g style="clip-path:url(#M)"><g style="clip-path:url(#N)"><text style="font-size:7.03;font-family:Droid Sans" transform="matrix(1 0 0 -1 169.75 771.19)"><tspan x="0 3.64 6.09 9.8 13.11 15.86 19.49 22.85 25.83" y="0">Progspace</tspan></text></g><path d="m169.75 769.97h29.4v.46h-29.4z" style="fill-rule:evenodd"/></g><g style="clip-path:url(#O)"><g style="clip-path:url(#P)"><text style="font-size:7.03;font-family:Droid Sans" transform="matrix(1 0 0 -1 171.34 762.65)"><tspan x="0" y="0">-</tspan></text></g><g style="clip-path:url(#Q)"><text style="font-size:7.03;font-family:Droid Sans" transform="matrix(1 0 0 -1 175.08 762.65)"><tspan x="0 2.14 3.72 5.3 8.8 12.45 15.82 21.44" y="0">filename</tspan></text></g></g><g style="clip-path:url(#R)"><g style="clip-path:url(#S)"><text style="font-size:7.01;font-family:Droid Sans" transform="matrix(1 0 0 -1 234.31 715.06)"><tspan x="0 4.64 8.32 9.99 12.13 13.7 15.28" y="0">Objfile</tspan></text></g><path d="m234.31 713.83h18.86v.46h-18.86z" style="fill-rule:evenodd"/></g><g style="clip-path:url(#T)"><g style="clip-path:url(#U)"><text style="font-size:7.03;font-family:Droid Sans" transform="matrix(1 0 0 -1 235.9 706.49)"><tspan x="0" y="0">-</tspan></text></g><g style="clip-path:url(#V)"><text style="font-size:7.03;font-family:Droid Sans" transform="matrix(1 0 0 -1 239.64 706.49)"><tspan x="0 2.14 3.72 5.3 8.8 12.45 15.82 21.44" y="0">filename</tspan></text></g></g><g style="clip-path:url(#W)"><g style="clip-path:url(#X)"><text style="font-size:7.03;font-family:Droid Sans" transform="matrix(1 0 0 -1 232.25 649.56)"><tspan x="0 3.29 6.98 10.63 12.4 15.15 18.69 20.31 23.81 26.82 29.18 32.72 36.41 39.91 42.29 45.98 48.41 51.93 55.3 58.96 61.12" y="0">gdb.selected_thread()</tspan></text></g></g><g style="clip-path:url(#Y)"><g style="clip-path:url(#Z)"><text style="font-size:7.01;font-family:Droid Sans" transform="matrix(1 0 0 -1 233.02 635.06)"><tspan x="0 3.41 7.09 9.54 13.07 16.43" y="0">Thread</tspan></text></g><path d="m233.02 633.84h20.09v.46h-20.09z" style="fill-rule:evenodd"/></g><g style="clip-path:url(#aa)"><g style="clip-path:url(#ab)"><text style="font-size:7.03;font-family:Droid Sans" transform="matrix(1 0 0 -1 234.62 626.5)"><tspan x="0" y="0">-</tspan></text></g><g style="clip-path:url(#ac)"><text style="font-size:7.03;font-family:Droid Sans" transform="matrix(1 0 0 -1 238.37 626.5)"><tspan x="0 3.69 6.05 7.66" y="0">ptid</tspan></text></g></g><g style="clip-path:url(#ad)"><g style="clip-path:url(#ae)"><text style="font-size:7.03;font-family:Droid Sans" transform="matrix(1 0 0 -1 234.62 617.95)"><tspan x="0" y="0">-</tspan></text></g><g style="clip-path:url(#af)"><text style="font-size:7.03;font-family:Droid Sans" transform="matrix(1 0 0 -1 238.37 617.95)"><tspan x="0 1.62 4.37 7.89 10.34 14.01 17.7 21.35 22.97 26.63 29.92 32.05" y="0">is_running()</tspan></text></g></g><g style="clip-path:url(#ag)"><g style="clip-path:url(#ah)"><text style="font-size:7.03;font-family:Droid Sans" transform="matrix(1 0 0 -1 195.96 692.35)"><tspan x="0 3.29 6.98 10.63 12.4 13.99 17.73 21.46 24.66 28.35 32.02 35.55 39.28 42.97 44.65 46.77 48.39 50 53.51 55.64" y="0">gdb.lookup_objfile()</tspan></text></g></g><g style="clip-path:url(#ai)"><g style="clip-path:url(#aj)"><text style="font-size:7.03;font-family:Droid Sans" transform="matrix(1 0 0 -1 167.69 748.49)"><tspan x="0 3.29 6.98 10.63 12.4 15.4 19.09 21.52 23.97 27.47 31.17 33.52 37.07 40.76 43.18 46.92 50.21 52.96 56.65 60.02 63.02 66.54 68.7" y="0">gdb.current_progspace()</tspan></text></g></g><g style="clip-path:url(#ak)"><g style="clip-path:url(#al)"><text style="font-size:7.03;font-family:Droid Sans" transform="matrix(1 0 0 -1 132.94 654.14)"><tspan x="0 3.29 6.98 10.63 12.4 15.15 18.66 20.27 23.78 26.75 29.11 32.61 36.3 39.8 41.42 45.08 47.22 50.72 53.18 54.77 58.51 60.96 63.09" y="0">gdb.selected_inferior()</tspan></text></g></g><g style="clip-path:url(#am)"><g style="clip-path:url(#an)"><text style="font-size:7.03;font-family:Droid Sans" transform="matrix(1 0 0 -1 304.85 630.1)"><tspan x="0 3.19 5.62 8.99 14.61 18.11 19.88 23.25 25.66 28.63 32.28 33.87 36.22 39.72 42.7 45.05 48.7 51.12 54.62 56.76" y="0">Frame.architecture()</tspan></text></g></g><g style="clip-path:url(#ao)"><g style="clip-path:url(#ap)"><text style="font-weight:bold;font-size:7.03;font-family:Droid Sans" transform="matrix(1 0 0 -1 129.89 698.83)"><tspan x="0 4.51 8.94 12.88 14.32 20.04 23.78 27.52 31.26 33.01" y="0">GDB module</tspan></text></g></g><g style="clip-path:url(#aq)"><g style="clip-path:url(#ar)"><text style="font-size:7.03;font-family:Droid Sans" transform="matrix(1 0 0 -1 129.89 690.29)"><tspan x="0 2.13 7.77 11.14 12.76 16.38 17.9 21.4 25.05 27.4 29.86 33.04 34.48 38.13 41.86 43.48 47.11 49.47" y="0">(main entry point)</tspan></text></g></g><g style="clip-path:url(#as)"><g style="clip-path:url(#at)"><text style="font-size:7.01;font-family:Droid Sans" transform="matrix(1 0 0 -1 314.38 679.75)"><tspan x="0 3.22 5.66 9.04 14.7" y="0">Frame</tspan></text></g><path d="m314.38 678.53h18.19v.46h-18.19z" style="fill-rule:evenodd"/></g><g style="clip-path:url(#au)"><g style="clip-path:url(#av)"><text style="font-size:7.03;font-family:Droid Sans" transform="matrix(1 0 0 -1 315.98 671.18)"><tspan x="0" y="0">-</tspan></text></g><g style="clip-path:url(#aw)"><text style="font-size:7.03;font-family:Droid Sans" transform="matrix(1 0 0 -1 319.73 671.18)"><tspan x="0 3.69 6.67 8.83 10.98 12.51 14.42 15.96 17.57 21.24 23.99 26.36 27.9 31.59 35.29 36.91 40.6 42.96 46.49" y="0">pc() : inst pointer</tspan></text></g></g><g style="clip-path:url(#ax)"><g style="clip-path:url(#ay)"><text style="font-size:7.03;font-family:Droid Sans" transform="matrix(1 0 0 -1 315.98 662.64)"><tspan x="0" y="0">-</tspan></text></g><g style="clip-path:url(#az)"><text style="font-size:7.03;font-family:Droid Sans" transform="matrix(1 0 0 -1 319.73 662.64)"><tspan x="0 2.45 5.96 9.35 13.04 16.55 19 22.52 25.81 27.43 30.18 32.55 36.07 38.53 40.67 42.82 44.22 46.97 48.5 50.95 54.46 57.85 61.54 65.05 68.26 71.63 74.08 76.25" y="0">read_register() / read_var()</tspan></text></g></g><g style="clip-path:url(#aA)"><g style="clip-path:url(#aB)"><text style="font-size:7.03;font-family:Droid Sans" transform="matrix(1 0 0 -1 315.98 654.1)"><tspan x="0" y="0">-</tspan></text></g><g style="clip-path:url(#aC)"><text style="font-size:7.03;font-family:Droid Sans" transform="matrix(1 0 0 -1 319.73 654.1)"><tspan x="0 2.36 5.58 9.28 12.78 14.94 17.09 18.55 20.46 22 23.61 27.28 28.89 30.51 34.17 37.69 39.45 41.07 43.42 46.82 48.44 50.05 53.03 56.41 58.03 59.65 61.16 62.94 64.71" y="0">type() : inline, tailcall ...</tspan></text></g></g><g style="clip-path:url(#aD)"><g style="clip-path:url(#aE)"><text style="font-size:7.03;font-family:Droid Sans" transform="matrix(1 0 0 -1 531.74 763.01)"><tspan x="0 3.23 6.41 12.09 14.44 17.81 21.5 23.25 24.87 26.48 30.14 33.64 36.01 39.38 43.04 44.66 48.16 50.29" y="0">Symtab.linetable()</tspan></text></g></g><g style="clip-path:url(#aF)"><g style="clip-path:url(#aG)"><text style="font-size:7.03;font-family:Droid Sans" transform="matrix(1 0 0 -1 382.1 612.43)"><tspan x="0 3.83 5.44 9.15 12.12" y="0">Block</tspan></text></g></g><g style="clip-path:url(#aH)"><g style="clip-path:url(#aI)"><text style="font-size:7.01;font-family:Droid Sans" transform="matrix(1 0 0 -1 383.71 603.89)"><tspan x="0" y="0">-</tspan></text></g><g style="clip-path:url(#aJ)"><text style="font-size:7.01;font-family:Droid Sans" transform="matrix(1 0 0 -1 387.46 603.89)"><tspan x="0 2.74 5.13 8.49 10.93 13.31 14.77 17.53 19.06 22.58 26.26 29.94 31.52 33.44 34.98 38.33 42.01 45.69 48.14 51.65 54.39" y="0">start / end : address</tspan></text></g></g><g style="clip-path:url(#aK)"><g style="clip-path:url(#aL)"><text style="font-size:7.03;font-family:Droid Sans;fill:#f00" transform="matrix(1 0 0 -1 247.92 678.22)"><tspan x="0 3.29 6.98 10.63 12.4 15.15 18.66 20.27 23.78 26.75 29.11 32.61 36.3 39.8 41.95 44.38 47.75 53.39 56.9 59.03" y="0">gdb.selected_frame()</tspan></text></g></g><g style="clip-path:url(#aM)"><g style="clip-path:url(#aN)"><text style="font-size:7.03;font-family:Droid Sans" transform="matrix(1 0 0 -1 380.09 627.79)"><tspan x="0 3.23 5.68 9.02 14.68 18.2 19.97 23.62 25.24 28.96 31.94 35.14 37.28" y="0">Frame.block()</tspan></text></g></g><g style="clip-path:url(#aO)"><g style="clip-path:url(#aP)"><text style="font-size:7.01;font-family:Droid Sans" transform="matrix(1 0 0 -1 458.4 787.46)"><tspan x="0 3.22 6.43 12.08 14.45 17.81" y="0">Symtab</tspan></text></g><path d="m458.4 786.24h21.48v.46h-21.48z" style="fill-rule:evenodd"/></g><g style="clip-path:url(#aQ)"><g style="clip-path:url(#aR)"><text style="font-size:7.03;font-family:Droid Sans" transform="matrix(1 0 0 -1 458.4 778.9)"><tspan x="0 2.13 4.88 8.11 13.76 17.45 21.16 22.78 24.25 26.6 29.97 33.66 35.28 38.78" y="0">(symbol table </tspan></text></g></g><g style="clip-path:url(#aS)"><g style="clip-path:url(#aT)"><text style="font-size:7.03;font-family:Droid Sans" transform="matrix(1 0 0 -1 458.4 770.35)"><tspan x="0 3.69 7.19 9.63 11.16 14.89 18.59 20.27 23.77 26.74 29.1 30.64 32.78 34.4 35.99 39.49 41.62" y="0">per object file) </tspan></text></g></g><g style="clip-path:url(#aU)"><g style="clip-path:url(#aV)"><text style="font-size:7.01;font-family:Droid Sans" transform="matrix(1 0 0 -1 466.8 702.65)"><tspan x="0 3.22 6.43 12.08 14.45 17.81 21.49 25 28.36 32.04 35.72 39.23 40.84 42.45 46.13" y="0">Symtab_and_line</tspan></text></g><path d="m466.8 701.45h49.58v.46h-49.58z" style="fill-rule:evenodd"/></g><g style="clip-path:url(#aW)"><g style="clip-path:url(#aX)"><text style="font-size:7.03;font-family:Droid Sans" transform="matrix(1 0 0 -1 468.41 694.1)"><tspan x="0" y="0">-</tspan></text></g><g style="clip-path:url(#aY)"><text style="font-size:7.03;font-family:Droid Sans" transform="matrix(1 0 0 -1 472.15 694.1)"><tspan x="0 1.62 3.23 6.89" y="0">line</tspan></text></g></g><g style="clip-path:url(#aZ)"><g style="clip-path:url(#a0)"><text style="font-size:7.03;font-family:Droid Sans" transform="matrix(1 0 0 -1 415.99 690.05)"><tspan x="0 3.23 5.68 9.02 14.68 18.2 19.97 22.12 23.73 27.39 31.08 34.58 37.33 40.7 42.32 44.45" y="0">Frame.find_sal()</tspan></text></g></g><g style="clip-path:url(#a1)"><g style="clip-path:url(#a2)"><text style="font-size:7.03;font-family:Droid Sans" transform="matrix(1 0 0 -1 326.16 761.09)"><tspan x="0 3.23 6.41 12.09 15.78 19.49" y="0">Symbol</tspan></text></g><path d="m326.16 759.86h21.1v.46h-21.1z" style="fill-rule:evenodd"/></g><g style="clip-path:url(#a3)"><g style="clip-path:url(#a4)"><text style="font-size:7.03;font-family:Droid Sans" transform="matrix(1 0 0 -1 327.77 752.54)"><tspan x="0" y="0">-</tspan></text></g><g style="clip-path:url(#a5)"><text style="font-size:7.03;font-family:Droid Sans" transform="matrix(1 0 0 -1 331.51 752.54)"><tspan x="0 2.36 5.58 9.28 12.78 14.23 16.14 17.67 19.82 23.48 27.17 30.15 32.5 34.12 37.85 41.54 43.27 44.8 48.01 51.38 53.83 55.43 58.79 62.46 64.08 67.58 69.1" y="0">type : function, variable …</tspan></text></g></g><g style="clip-path:url(#a6)"><g style="clip-path:url(#a7)"><text style="font-size:7.03;font-family:Droid Sans" transform="matrix(1 0 0 -1 327.77 744)"><tspan x="0" y="0">-</tspan></text></g><g style="clip-path:url(#a8)"><text style="font-size:7.03;font-family:Droid Sans" transform="matrix(1 0 0 -1 331.51 744)"><tspan x="0 3.37 7.03 10.72 13.15 16.65 19.63 21.24 24.61 27.36 30.11 31.58 33.49 35.08 37.85 40.21 43.58 45.96 47.58 50.55 52.31 53.76 57.45 61.1 63.56 67.06 69.81 73.55 75.17 78.36 81.87" y="0">addr_class : static, unresolved</tspan></text></g></g><g style="clip-path:url(#a9)"><g style="clip-path:url(#ba)"><text style="font-size:7.01;font-family:Droid Sans" transform="matrix(1 0 0 -1 327.77 735.46)"><tspan x="0" y="0">-</tspan></text></g><g style="clip-path:url(#bb)"><text style="font-size:7.01;font-family:Droid Sans" transform="matrix(1 0 0 -1 331.51 735.46)"><tspan x="0 1.61 3.22 6.9 10.09 13.45 16.75 20.24 23.75 27.43 30.79 36.44" y="0">linkage_name</tspan></text></g></g><g style="clip-path:url(#bc)"><g style="clip-path:url(#bd)"><text style="font-size:7.01;font-family:Droid Sans" transform="matrix(1 0 0 -1 432.82 742.39)"><tspan x="0 3.19 6.36 12.01 15.66 19.4 20.98 22.75 25.49 28.66 34.3 36.64 40" y="0">Symbol.symtab</tspan></text></g></g><g style="clip-path:url(#be)"><g style="clip-path:url(#bf)"><text style="font-size:7.03;font-family:Droid Sans;fill:#f00" transform="matrix(1 0 0 -1 240.67 753.07)"><tspan x="0 3.26 6.91 10.56 12.33 13.9 17.6 21.33 24.53 28.17 31.82 35.32 38.58 40.17 43.87 47.54 50.9 52.48 55.98 58.73 61.92 67.54 71.2 74.85 76.43 78.56" y="0">gdb.lookup_global_symbol()</tspan></text></g></g><g style="clip-path:url(#bg)"><g style="clip-path:url(#bh)"><text style="font-size:7.03;font-family:Droid Sans;fill:#f00" transform="matrix(1 0 0 -1 240.67 744.53)"><tspan x="0 3.26 6.91 10.56 12.33 13.9 17.6 21.33 24.53 28.17 31.82 35.32 38.07 41.26 46.88 50.54 54.24 55.86 57.99" y="0">gdb.lookup_symbol()</tspan></text></g></g><g style="clip-path:url(#bi)"><g style="clip-path:url(#bj)"><text style="font-size:7.01;font-family:Droid Sans" transform="matrix(1 0 0 -1 329.28 706.49)"><tspan x="0 3.22 5.66 9.02 14.68 18.2 19.97 22.1 25.76 29.44 32.4 34.78 36.39 40.13 43.81 45.93" y="0">Frame.function()</tspan></text></g></g><g style="clip-path:url(#bk)"><g style="clip-path:url(#bl)"><text style="font-size:7.03;font-family:Droid Sans" transform="matrix(1 0 0 -1 441.22 716.4)"><tspan x="0 3.23 6.41 12.07 14.42 17.79 21.45 24.95 28.32 31.98 35.67 39.18 40.76 42.38 46.05 49.55 51.32 54.04 57.25 62.88 65.16 68.53" y="0">Symtab_and_line.symtab</tspan></text></g></g><g style="clip-path:url(#bm)"><g style="clip-path:url(#bn)"><text style="font-size:7.03;font-family:Droid Sans" transform="matrix(1 0 0 -1 309.43 792.79)"><tspan x="0 3.19 6.38 12.02 14.37 17.74 21.38 23.15 26.86 30.5 32.18 34.32 35.9 37.48" y="0">Symtab.objfile</tspan></text></g></g><g style="clip-path:url(#bo)"><g style="clip-path:url(#bp)"><text style="font-size:7.03;font-family:Droid Sans" transform="matrix(1 0 0 -1 535.56 735.5)"><tspan x="0 2.97 4.58 8.25 11.77 15.2 18.56 22.26 23.85" y="0">LineTable</tspan></text></g><path d="m535.56 734.28h27.36v.46h-27.36z" style="fill-rule:evenodd"/></g><g style="clip-path:url(#bq)"><g style="clip-path:url(#br)"><text style="font-size:7.03;font-family:Droid Sans" transform="matrix(1 0 0 -1 537.17 726.96)"><tspan x="0" y="0">-</tspan></text></g><g style="clip-path:url(#bs)"><text style="font-size:7.03;font-family:Droid Sans" transform="matrix(1 0 0 -1 540.91 726.96)"><tspan x="0 1.62 3.97 7.5 9.96 13.33 16.98 18.6" y="0">iterable</tspan></text></g></g><g style="clip-path:url(#bt)"><g style="clip-path:url(#bu)"><text style="font-size:7.03;font-family:Droid Sans" transform="matrix(1 0 0 -1 537.17 718.42)"><tspan x="0" y="0">-</tspan></text></g><g style="clip-path:url(#bv)"><text style="font-size:7.03;font-family:Droid Sans" transform="matrix(1 0 0 -1 540.91 718.42)"><tspan x="0 2.75 6.5 10.19 12.62 15.59 19.11 22.64 24.25 25.87 29.53 33.05 35.8 37.93" y="0">source_lines()</tspan></text></g></g><g style="clip-path:url(#bw)"><g style="clip-path:url(#bx)"><text style="font-size:7.03;font-family:Droid Sans" transform="matrix(1 0 0 -1 533.42 679.51)"><tspan x="0 2.97 4.58 8.22 11.72 15.15 18.52 22.16 23.78 27.28 30.72 34.36 36.71 39.17" y="0">LineTableEntry</tspan></text></g><path d="m533.42 678.29h42.48v.46h-42.48z" style="fill-rule:evenodd"/></g><g style="clip-path:url(#by)"><g style="clip-path:url(#bz)"><text style="font-size:7.03;font-family:Droid Sans" transform="matrix(1 0 0 -1 535.03 670.97)"><tspan x="0" y="0">-</tspan></text></g><g style="clip-path:url(#bA)"><text style="font-size:7.03;font-family:Droid Sans" transform="matrix(1 0 0 -1 538.78 670.97)"><tspan x="0 3.65" y="0">pc</tspan></text></g></g><g style="clip-path:url(#bB)"><g style="clip-path:url(#bC)"><text style="font-size:7.03;font-family:Droid Sans" transform="matrix(1 0 0 -1 535.03 662.42)"><tspan x="0" y="0">-</tspan></text></g><g style="clip-path:url(#bD)"><text style="font-size:7.03;font-family:Droid Sans" transform="matrix(1 0 0 -1 538.78 662.42)"><tspan x="0 1.62 3.23 6.86" y="0">line</tspan></text></g></g><g style="clip-path:url(#bE)"><g style="clip-path:url(#bF)"><text style="font-size:7.03;font-family:Droid Sans" transform="matrix(1 0 0 -1 280.58 565.99)"><tspan x="0 3.99 7.36 8.97 12.66" y="0">Value</tspan></text></g><path d="m280.58 564.77h16.13v.46h-16.13z" style="fill-rule:evenodd"/></g><g style="clip-path:url(#bG)"><g style="clip-path:url(#bH)"><text style="font-size:7.03;font-family:Droid Sans" transform="matrix(1 0 0 -1 282.19 557.45)"><tspan x="0" y="0">-</tspan></text></g><g style="clip-path:url(#bI)"><text style="font-size:7.03;font-family:Droid Sans" transform="matrix(1 0 0 -1 285.94 557.45)"><tspan x="0 3.37 7.06 10.73 13.19 16.69 19.46" y="0">address</tspan></text></g></g><g style="clip-path:url(#bJ)"><g style="clip-path:url(#bK)"><text style="font-size:7.01;font-family:Droid Sans" transform="matrix(1 0 0 -1 282.19 548.9)"><tspan x="0" y="0">-</tspan></text></g><g style="clip-path:url(#bL)"><text style="font-size:7.01;font-family:Droid Sans" transform="matrix(1 0 0 -1 285.94 548.9)"><tspan x="0 1.61 4.35 7.89 11.63 15.31 17.67 19.28 24.93 26.55 29.31 32.83 36.5 40.02 43.69 47.37" y="0">is_optimized_out</tspan></text></g></g><g style="clip-path:url(#bM)"><g style="clip-path:url(#bN)"><text style="font-size:7.03;font-family:Droid Sans" transform="matrix(1 0 0 -1 407.11 566.33)"><tspan x="0 3.42 6.61 10.27" y="0">Type</tspan></text></g></g><g style="clip-path:url(#bO)"><g style="clip-path:url(#bP)"><text style="font-size:7.01;font-family:Droid Sans" transform="matrix(1 0 0 -1 408.7 557.78)"><tspan x="0" y="0">-</tspan></text></g><g style="clip-path:url(#bQ)"><text style="font-size:7.01;font-family:Droid Sans" transform="matrix(1 0 0 -1 412.44 557.78)"><tspan x="0 2.74 4.32 7.05 10.54 14.29" y="0">sizeof</tspan></text></g></g><g style="clip-path:url(#bR)"><g style="clip-path:url(#bS)"><text style="font-size:7.03;font-family:Droid Sans" transform="matrix(1 0 0 -1 408.7 549.22)"><tspan x="0" y="0">-</tspan></text></g><g style="clip-path:url(#bT)"><text style="font-size:7.03;font-family:Droid Sans" transform="matrix(1 0 0 -1 412.44 549.22)"><tspan x="0 2.97 6.72 10.37 13.87 15.31 17.44 21.1 24.83 26.41 30.06 32.42 35.92 38.34 40.1 41.53 44.28 46.64 49.04 52.69 55.67 58.02 62.87" y="0">code (pointer, struct…)</tspan></text></g></g><g style="clip-path:url(#bU)"><g style="clip-path:url(#bV)"><text style="font-size:7.03;font-family:Droid Sans" transform="matrix(1 0 0 -1 408.7 540.67)"><tspan x="0" y="0">-</tspan></text></g><g style="clip-path:url(#bW)"><text style="font-weight:bold;font-size:7.03;font-family:Droid Sans" transform="matrix(1 0 0 -1 412.44 540.67)"><tspan x="0 2.22 3.95 7.46 9.2 12.95 15.75 17.95" y="0">fields()</tspan></text></g></g><g style="clip-path:url(#bX)"><g style="clip-path:url(#bY)"><text style="font-size:7.03;font-family:Droid Sans" transform="matrix(1 0 0 -1 344.18 561.34)"><tspan x="0 3.96 7.33 8.94 12.6 16.1 17.88 20.23 23.44 27.14" y="0">Value.type</tspan></text></g></g><g style="clip-path:url(#bZ)"><g style="clip-path:url(#b0)"><text style="font-size:7.03;font-family:Droid Sans" transform="matrix(1 0 0 -1 344.18 552.79)"><tspan x="0 3.21 6.57 8.19 11.85 15.35 17.12 20.78 24.28 26.74 30.24 32.38 35.88 38.34 41.84 45.5 48.47 51.97 54.1" y="0">value.dereference()</tspan></text></g></g><g style="clip-path:url(#b1)"><g style="clip-path:url(#b2)"><text style="font-size:7.03;font-family:Droid Sans" transform="matrix(1 0 0 -1 389.64 523.9)"><tspan x="0 3.29 6.98 10.63 12.4 13.99 17.73 21.46 24.66 28.35 32.02 35.53 37.9 41.1 44.79 48.3 50.43" y="0">gdb.lookup_type()</tspan></text></g></g><g style="clip-path:url(#b3)"><g style="clip-path:url(#b4)"><text style="font-size:7.03;font-family:Droid Sans;fill:#f00" transform="matrix(1 0 0 -1 230.74 593.04)"><tspan x="0 3.29 6.94 10.59 12.36 15.99 19.36 21.81 24.53 28.04 31.54 34.91 38.55 42.2 45.7 49.2 52.38 55.75 57.37 59.5" y="0">gdb.parse_and_eval()</tspan></text></g></g><g style="clip-path:url(#b5)"><g style="clip-path:url(#b6)"><text style="font-size:7.03;font-family:Droid Sans" transform="matrix(1 0 0 -1 272.38 580.82)"><tspan x="0 3.19 6.38 12.02 15.67 19.4 20.98 22.76 25.93 29.3 30.87 34.52 38.02 40.15" y="0">Symbol.value()</tspan></text></g></g><g style="clip-path:url(#b7)"><g style="clip-path:url(#b8)"><text style="font-size:7.03;font-family:Droid Sans" transform="matrix(1 0 0 -1 450.77 580.06)"><tspan x="0 3.19 6.38 12.02 15.67 19.4 21.02 22.76 25.12 28.3 31.95" y="0">Symbol.type</tspan></text></g></g><g style="fill:none;stroke-linecap:round;stroke-linejoin:round;stroke-miterlimit:10"><g style="stroke-width:.91"><g style="stroke:#177d36"><path d="m164.16 781.54h50.76v-26.38h-50.76z"/><path d="m452.26 797.52h64.7v-33.6h-64.7z"/><path d="m421.18 750.17h41.76v14.21"/></g><g style="stroke:#3165bb"><path d="m37.06 732.22h69.91v-24.46h-69.91z"/><path d="m106.97 715.49 17.9-11.47"/><path d="m87.12 775.37h66.46v-25.97h-66.46z"/><path d="m124.46 748.7 13.4-37.44"/><path d="m173.76 711.26 31.7 43.95"/><path d="m186.74 711.26 134.09 48.51"/></g><path d="m452.23 791.14h-213.91v-66.12" style="stroke:#177d36"/></g><path d="m322.3 770.02h98.88v-39.72h-98.88z" style="stroke:#177d36;stroke-width:1.8"/><g style="stroke-width:.91"><path d="m228.72 725.35h50.76v-26.35h-50.76z" style="stroke:#177d36"/><path d="m322.75 734.18h-29.06v-157.36" style="stroke:#177d36"/><path d="m345.67 690.19 4.2 40.18" style="stroke:#f60"/><g style="stroke:#177d36"><path d="m421.18 730.3 53.59-155.02"/><path d="m462.17 711.96h59.95v-21.77h-59.95z"/><path d="m490.06 711.65-2.67 51.96"/><path d="m516.96 768.17 52.56-22.92"/><path d="m530.95 745.56h61.78v-32.04h-61.78z"/></g></g><path d="m124.87 711.26h61.87v-34.36h-61.87z" style="stroke:#3165bb;stroke-width:1.8"/><path d="m187.13 693.7 41.64 13" style="stroke:#3165bb;stroke-width:.91"/><path d="m310.2 690.19h91.66v-42.02h-91.66z" style="stroke:#f60;stroke-width:1.8"/><g style="stroke-width:.91"><path d="m401.86 679.2 61.08 22.92" style="stroke:#f60"/><g style="stroke:#3165bb"><path d="m107.28 653.23 17.59 27.51"/><path d="m52.85 653.52h69.91v-34.37h-69.91z"/><path d="m154.27 677.28 6.12-27.89"/><path d="m180.62 676.9 94.37-123.36"/><path d="m143.35 649.7h48.91v-30.16h-48.91z"/><path d="m186.36 680.33 68.38-35.52"/><path d="m186.74 685.32 123-14.93"/></g><path d="m528.65 689.95h59.13v-33.98h-59.13z" style="stroke:#177d36"/><path d="m561.82 713.47-12.92-23.95" style="stroke:#177d36"/><path d="m167.83 619.54 3.63-17.5" style="stroke:#3165bb"/><g style="stroke:#f60"><path d="m227.62 645.19h57.31v-34.37h-57.31z"/><path d="m326.54 648.19-6.09-27.84"/><path d="m383.45 648.19 19.49-25.32"/><path d="m134.02 602.02h86.28v-33.6h-86.28z"/></g><path d="m301.51 620.3h58.08v-25.6h-58.08z" style="stroke:#3165bb"/><path d="m378.7 622.87h71.42v-27.5h-71.42z" style="stroke:#f60"/><path d="m263.42 568.66v-36.15h151.37" style="stroke:#3165bb"/><path d="m275.26 576.43h63.76v-34.37h-63.76z" style="stroke:#f60"/><path d="m339.05 559.25h63.14" style="stroke:#f60"/><path d="m401.78 575.88h79.73v-38.16h-79.73z" style="stroke:#177d36"/><path d="m415.18 532.66 9.6 6.26" style="stroke:#3165bb"/></g></g></g></svg>