<svg height="512.21" viewBox="0 0 805.49 512.21" width="805.49" xml:space="preserve" xmlns="http://www.w3.org/2000/svg" xmlns:xlink="http://www.w3.org/1999/xlink"><clipPath id="a"><path d="m167.09 710.69h67.61v12.62h-67.61z" style="clip-rule:evenodd"/></clipPath><clipPath id="b"><path d="m167.09 698.09h98.83v12.62h-98.83z" style="clip-rule:evenodd"/></clipPath><clipPath id="c"><path d="m167.09 698.09h98.83v12.62h-98.83z" style="clip-rule:evenodd"/></clipPath><clipPath id="d"><path d="m167.09 685.49h131.5v12.62h-131.5z" style="clip-rule:evenodd"/></clipPath><clipPath id="e"><path d="m167.09 685.49h131.5v12.62h-131.5z" style="clip-rule:evenodd"/></clipPath><clipPath id="f"><path d="m57.24 708.43h77.06v12.62h-77.06z" style="clip-rule:evenodd"/></clipPath><clipPath id="g"><path d="m57.24 695.83h111.22v12.62h-111.22z" style="clip-rule:evenodd"/></clipPath><clipPath id="h"><path d="m57.24 695.83h111.22v12.62h-111.22z" style="clip-rule:evenodd"/></clipPath><clipPath id="i"><path d="m137.81 623.95h61.06v12.62h-61.06z" style="clip-rule:evenodd"/></clipPath><clipPath id="j"><path d="m137.81 611.35h170.47v12.6h-170.47z" style="clip-rule:evenodd"/></clipPath><clipPath id="k"><path d="m137.81 611.35h170.47v12.6h-170.47z" style="clip-rule:evenodd"/></clipPath><clipPath id="l"><path d="m137.81 598.73h175.44v12.62h-175.44z" style="clip-rule:evenodd"/></clipPath><clipPath id="m"><path d="m137.81 598.73h175.44v12.62h-175.44z" style="clip-rule:evenodd"/></clipPath><clipPath id="n"><path d="m94.42 522.55h58.25v12.62h-58.25z" style="clip-rule:evenodd"/></clipPath><clipPath id="o"><path d="m94.42 509.95h149.06v12.6h-149.06z" style="clip-rule:evenodd"/></clipPath><clipPath id="p"><path d="m94.42 509.95h149.06v12.6h-149.06z" style="clip-rule:evenodd"/></clipPath><clipPath id="q"><path d="m94.42 497.33h146.93v12.62h-146.93z" style="clip-rule:evenodd"/></clipPath><clipPath id="r"><path d="m94.42 497.33h146.93v12.62h-146.93z" style="clip-rule:evenodd"/></clipPath><clipPath id="s"><path d="m94.42 484.61h105.02v12.74h-105.02z" style="clip-rule:evenodd"/></clipPath><clipPath id="t"><path d="m94.42 484.73h105.02v12.62h-105.02z" style="clip-rule:evenodd"/></clipPath><clipPath id="u"><path d="m94.42 437.95h68.52v12.72h-68.52z" style="clip-rule:evenodd"/></clipPath><clipPath id="v"><path d="m94.42 438.05h68.52v12.62h-68.52z" style="clip-rule:evenodd"/></clipPath><clipPath id="w"><path d="m94.42 425.33h130.37v12.74h-130.37z" style="clip-rule:evenodd"/></clipPath><clipPath id="x"><path d="m94.42 425.45h130.37v12.62h-130.37z" style="clip-rule:evenodd"/></clipPath><clipPath id="y"><path d="m94.42 425.45h130.37v12.62h-130.37z" style="clip-rule:evenodd"/></clipPath><clipPath id="z"><path d="m94.42 412.73h144.91v12.74h-144.91z" style="clip-rule:evenodd"/></clipPath><clipPath id="A"><path d="m94.42 412.85h144.91v12.62h-144.91z" style="clip-rule:evenodd"/></clipPath><clipPath id="B"><path d="m94.42 412.85h144.91v12.62h-144.91z" style="clip-rule:evenodd"/></clipPath><clipPath id="C"><path d="m246.53 522.55h64.34v12.62h-64.34z" style="clip-rule:evenodd"/></clipPath><clipPath id="D"><path d="m246.53 509.95h133.18v12.6h-133.18z" style="clip-rule:evenodd"/></clipPath><clipPath id="E"><path d="m246.53 509.95h133.18v12.6h-133.18z" style="clip-rule:evenodd"/></clipPath><clipPath id="F"><path d="m246.53 497.33h132.96v12.62h-132.96z" style="clip-rule:evenodd"/></clipPath><clipPath id="G"><path d="m246.53 484.61h175.9v12.74h-175.9z" style="clip-rule:evenodd"/></clipPath><clipPath id="H"><path d="m246.53 484.73h175.9v12.62h-175.9z" style="clip-rule:evenodd"/></clipPath><clipPath id="I"><path d="m246.53 484.73h175.9v12.62h-175.9z" style="clip-rule:evenodd"/></clipPath><clipPath id="J"><path d="m246.53 472.01h129.58v12.74h-129.58z" style="clip-rule:evenodd"/></clipPath><clipPath id="K"><path d="m246.53 472.13h129.58v12.62h-129.58z" style="clip-rule:evenodd"/></clipPath><clipPath id="L"><path d="m246.53 459.41h199.22v12.72h-199.22z" style="clip-rule:evenodd"/></clipPath><clipPath id="M"><path d="m246.53 459.53h199.22v12.6h-199.22z" style="clip-rule:evenodd"/></clipPath><clipPath id="N"><path d="m246.53 459.53h199.22v12.6h-199.22z" style="clip-rule:evenodd"/></clipPath><clipPath id="O"><path d="m327.1 618.89h77.98v12.6h-77.98z" style="clip-rule:evenodd"/></clipPath><clipPath id="P"><path d="m327.1 606.26h114.36v12.62h-114.36z" style="clip-rule:evenodd"/></clipPath><clipPath id="Q"><path d="m327.1 606.26h114.36v12.62h-114.36z" style="clip-rule:evenodd"/></clipPath><clipPath id="R"><path d="m327.1 593.66h151.66v12.62h-151.66z" style="clip-rule:evenodd"/></clipPath><clipPath id="S"><path d="m327.1 593.66h151.66v12.62h-151.66z" style="clip-rule:evenodd"/></clipPath><clipPath id="T"><path d="m456.12 520.87h67.15v12.6h-67.15z" style="clip-rule:evenodd"/></clipPath><clipPath id="U"><path d="m456.12 508.15h139.49v12.72h-139.49z" style="clip-rule:evenodd"/></clipPath><clipPath id="V"><path d="m456.12 508.25h139.49v12.62h-139.49z" style="clip-rule:evenodd"/></clipPath><clipPath id="W"><path d="m456.12 508.25h139.49v12.62h-139.49z" style="clip-rule:evenodd"/></clipPath><clipPath id="X"><path d="m456.12 495.53h118.51v12.74h-118.51z" style="clip-rule:evenodd"/></clipPath><clipPath id="Y"><path d="m456.12 495.65h118.51v12.62h-118.51z" style="clip-rule:evenodd"/></clipPath><clipPath id="Z"><path d="m456.12 482.93h139.49v12.74h-139.49z" style="clip-rule:evenodd"/></clipPath><clipPath id="aa"><path d="m456.12 483.05h139.49v12.62h-139.49z" style="clip-rule:evenodd"/></clipPath><clipPath id="ab"><path d="m456.12 483.05h139.49v12.62h-139.49z" style="clip-rule:evenodd"/></clipPath><clipPath id="ac"><path d="m237.1 399.65h71.78v12.72h-71.78z" style="clip-rule:evenodd"/></clipPath><clipPath id="ad"><path d="m237.1 399.74h71.78v12.62h-71.78z" style="clip-rule:evenodd"/></clipPath><clipPath id="ae"><path d="m237.1 387.02h100.63v12.74h-100.63z" style="clip-rule:evenodd"/></clipPath><clipPath id="af"><path d="m237.1 387.14h100.63v12.62h-100.63z" style="clip-rule:evenodd"/></clipPath><clipPath id="ag"><path d="m237.1 387.14h100.63v12.62h-100.63z" style="clip-rule:evenodd"/></clipPath><clipPath id="ah"><path d="m314.14 742.25h132.05v12.6h-132.05z" style="clip-rule:evenodd"/></clipPath><clipPath id="ai"><path d="m314.14 729.62h155.62v12.62h-155.62z" style="clip-rule:evenodd"/></clipPath><clipPath id="aj"><path d="m314.14 729.62h155.62v12.62h-155.62z" style="clip-rule:evenodd"/></clipPath><clipPath id="ak"><path d="m314.14 717.02h132.29v12.62h-132.29z" style="clip-rule:evenodd"/></clipPath><g style="fill:none;stroke-linecap:round;stroke-linejoin:round;stroke-miterlimit:10"><path d="m256.49 81.14h140.1v70.08h-140.1z" style="stroke:#3165bb;stroke-width:1.68"/><path d="m220.7 187.62h199.95v75.33h-199.95z" style="stroke:#3165bb;stroke-width:1.68"/><path d="m519.86 104.44h100.68v63.39h-100.68z" style="stroke:#7f7f7f;stroke-width:1.65"/></g><g style="clip-path:url(#a)" transform="matrix(1.25 0 0 -1.25 45.29 990.29)"><text style="font-size:10.37;font-family:Droid Sans" transform="matrix(1 0 0 -1 174.07 713.4)"><tspan x="0 4.76 7.14 11.98 17.42 21.04" y="0">Figure</tspan></text></g><path d="m262.88 100.64h32.7v-.84h-32.7z" style="fill-rule:evenodd"/><g style="clip-path:url(#b)" transform="matrix(1.25 0 0 -1.25 45.29 990.29)"><text style="font-size:10.37;font-family:Droid Sans" transform="matrix(1 0 0 -1 176.45 700.8)"><tspan x="0" y="0">-</tspan></text></g><g style="clip-path:url(#c)" transform="matrix(1.25 0 0 -1.25 45.29 990.29)"><text style="font-size:10.37;font-family:Droid Sans" transform="matrix(1 0 0 -1 181.97 700.8)"><tspan x="0 6.42 11.58 14.74 17.13 22.57 27.73 31.79 33.97 38.02 40.4 44.46" y="0">Defines size</tspan></text></g><g style="clip-path:url(#d)" transform="matrix(1.25 0 0 -1.25 45.29 990.29)"><text style="font-size:10.37;font-family:Droid Sans" transform="matrix(1 0 0 -1 176.45 688.18)"><tspan x="0" y="0">-</tspan></text></g><g style="clip-path:url(#e)" transform="matrix(1.25 0 0 -1.25 45.29 990.29)"><text style="font-size:10.37;font-family:Droid Sans" transform="matrix(1 0 0 -1 181.97 688.18)"><tspan x="0 6.42 11.58 14.74 17.13 22.57 27.73 31.79 33.97 39.97 44.46 49.62 53.68 55.95 58.33 63.3 68.03 73.54 78.98" y="0">Defines Axes layout</tspan></text></g><g style="clip-path:url(#f)" transform="matrix(1.25 0 0 -1.25 446.69 1012.18)"><text style="font-size:10.37;font-family:Droid Sans" transform="matrix(1 0 0 -1 64.22 711.14)"><tspan x="0 5.64 10.61 14.99 19.71 24.9 30.31" y="0">Backend</tspan></text></g><path d="m526.97 125.35h44.64v-.84h-44.64z" style="fill-rule:evenodd"/><g style="clip-path:url(#g)" transform="matrix(1.25 0 0 -1.25 446.69 1012.18)"><text style="font-size:10.37;font-family:Droid Sans" transform="matrix(1 0 0 -1 66.6 698.54)"><tspan x="0" y="0">-</tspan></text></g><g style="clip-path:url(#h)" transform="matrix(1.25 0 0 -1.25 446.69 1012.18)"><text style="font-size:10.37;font-family:Droid Sans" transform="matrix(1 0 0 -1 72.12 698.54)"><tspan x="0 6.86 12.27 15.74 21.18 26.57 30.05 34.12 36.38 38.77 47.07 52.04 56.89" y="0">Outputs image</tspan></text></g><g style="clip-path:url(#i)" transform="matrix(1.25 0 0 -1.25 45.29 990.29)"><text style="font-size:10.37;font-family:Droid Sans" transform="matrix(1 0 0 -1 144.79 626.64)"><tspan x="0 6 10.49 15.66" y="0">Axes</tspan></text></g><path d="m226.28 209.09h24.63v-.84h-24.63z" style="fill-rule:evenodd"/><g style="clip-path:url(#j)" transform="matrix(1.25 0 0 -1.25 45.29 990.29)"><text style="font-size:10.37;font-family:Droid Sans" transform="matrix(1 0 0 -1 147.14 614.04)"><tspan x="0" y="0">-</tspan></text></g><g style="clip-path:url(#k)" transform="matrix(1.25 0 0 -1.25 45.29 990.29)"><text style="font-size:10.37;font-family:Droid Sans" transform="matrix(1 0 0 -1 152.66 614.04)"><tspan x="0 5.53 11.03 16.43 19.91 24.87 27.21 32.61 36.66 38.8 43.76 46.1 48.45 50.79 55.76 59.35 62.82 65.2 68.68 72.73 74.97 78.13 83.63 87.25 89.49 94.45 96.68 101.53 105.15 110.08 115.48" y="0">Contains all artits for a graph</tspan></text></g><g style="clip-path:url(#l)" transform="matrix(1.25 0 0 -1.25 45.29 990.29)"><text style="font-size:10.37;font-family:Droid Sans" transform="matrix(1 0 0 -1 147.14 601.44)"><tspan x="0" y="0">-</tspan></text></g><g style="clip-path:url(#m)" transform="matrix(1.25 0 0 -1.25 45.29 990.29)"><text style="font-size:10.37;font-family:Droid Sans" transform="matrix(1 0 0 -1 152.66 601.44)"><tspan x="0 5.39 7.74 13.25 16.72 20.2 22.58 27.96 32.81 34.95 38.11 43.49 48.9 53.28 56.75 59.14 64.63 70.04 72.3 77.7 82.86 86.02 88.41 93.78 98.94 104.39 106.61 112.02 117.18 120.8" y="0">Plotting function defined here</tspan></text></g><g style="fill:none;stroke-linecap:round;stroke:#3165bb;stroke-width:1.68;stroke-linejoin:round;stroke-miterlimit:10"><path d="m423.98 193.88h2.04v75.34h-199.95v-2.25"/><path d="m429.62 200.22h2.05v75.33h-199.95v-2.25"/><path d="m139.38 314.31h151.41v75.34h-151.41z"/></g><g style="clip-path:url(#n)" transform="matrix(1.25 0 0 -1.25 21.84 989.68)"><text style="font-size:10.37;font-family:Droid Sans" transform="matrix(1 0 0 -1 101.4 525.26)"><tspan x="0 6 10.49 12.88" y="0">Axis</tspan></text></g><path d="m148.59 335.23h21.15v-.84h-21.15z" style="fill-rule:evenodd"/><g style="clip-path:url(#o)" transform="matrix(1.25 0 0 -1.25 21.84 989.68)"><text style="font-size:10.34;font-family:Droid Sans" transform="matrix(1 0 0 -1 103.78 512.64)"><tspan x="0" y="0">-</tspan></text></g><g style="clip-path:url(#p)" transform="matrix(1.25 0 0 -1.25 21.84 989.68)"><text style="font-size:10.34;font-family:Droid Sans" transform="matrix(1 0 0 -1 109.3 512.64)"><tspan x="0 6.42 11.6 14.75 17.13 22.56 27.73 31.78 33.95 37.99 42.37 47.35 49.73 54.89 57.49 59.75 64.62 68.23 70.61 76.04 78.62 80.87 84.37 86.74 91.12 95.85" y="0">Defines scale, grid, ticks</tspan></text></g><g style="clip-path:url(#q)" transform="matrix(1.25 0 0 -1.25 21.84 989.68)"><text style="font-size:10.37;font-family:Droid Sans" transform="matrix(1 0 0 -1 103.78 500.04)"><tspan x="0" y="0">-</tspan></text></g><g style="clip-path:url(#r)" transform="matrix(1.25 0 0 -1.25 21.84 989.68)"><text style="font-size:10.37;font-family:Droid Sans" transform="matrix(1 0 0 -1 109.3 500.04)"><tspan x="0 6.86 12.31 17.47 19.75 22.91 28.43 32.05 34.31 39.72 41.98 46.95 52.39 57.79 60.16 65.12 70.56 76.06 79.53 84.98 90.16 93.78" y="0">One for X and another </tspan></text></g><g style="clip-path:url(#s)" transform="matrix(1.25 0 0 -1.25 21.84 989.68)"><g style="clip-path:url(#t)"><text style="font-size:10.37;font-family:Droid Sans" transform="matrix(1 0 0 -1 101.4 487.44)"><tspan x="0 3.16 8.68 12.3 14.56 19.64 21.9 27.34 29.73 33.34 38.51 42.89 46.39 48.77 54.28 59.72" y="0">for Y directions</tspan></text></g></g><path d="m141.48 419.23h151.41v64.78h-151.41z" style="fill:none;stroke:#3165bb;stroke-width:1.68;stroke-linecap:round;stroke-linejoin:round;stroke-miterlimit:10"/><g style="clip-path:url(#u)" transform="matrix(1.25 0 0 -1.25 21.84 989.68)"><g style="clip-path:url(#v)"><text style="font-size:10.37;font-family:Droid Sans" transform="matrix(1 0 0 -1 101.4 440.76)"><tspan x="0 4.76 10.15 12.53 17.98 23.14" y="0">Spines</tspan></text></g><path d="m101.4 439.08h27.17v.67h-27.17z" style="fill-rule:evenodd"/></g><g style="clip-path:url(#w)" transform="matrix(1.25 0 0 -1.25 21.84 989.68)"><g style="clip-path:url(#x)"><text style="font-size:10.37;font-family:Droid Sans" transform="matrix(1 0 0 -1 103.78 428.16)"><tspan x="0" y="0">-</tspan></text></g><g style="clip-path:url(#y)"><text style="font-size:10.37;font-family:Droid Sans" transform="matrix(1 0 0 -1 109.3 428.16)"><tspan x="0 5.08 12.49 18.03 20.19 25.63 30.79 34.41 36.67 41.64 46.13 48.51 52.57 54.84 60.34 65.78 68.26 73.43 77.81" y="0">Two per axis object</tspan></text></g></g><g style="clip-path:url(#z)" transform="matrix(1.25 0 0 -1.25 21.84 989.68)"><g style="clip-path:url(#A)"><text style="font-size:10.37;font-family:Droid Sans" transform="matrix(1 0 0 -1 103.78 415.54)"><tspan x="0" y="0">-</tspan></text></g><g style="clip-path:url(#B)"><text style="font-size:10.37;font-family:Droid Sans" transform="matrix(1 0 0 -1 109.3 415.54)"><tspan x="0 8.9 14.4 18.46 21.95 23.99 28.38 33.89 39.34 42.5 44.74 50.18 55.68 61.12 66.28 68.54 70.93 76.37 78.71 84.72 89.21 91.59" y="0">Most conf done in Axis</tspan></text></g></g><path d="m354.38 313.52h211.95v115.48h-211.95z" style="fill:none;stroke:#008000;stroke-width:1.68;stroke-linecap:round;stroke-linejoin:round;stroke-miterlimit:10"/><g style="clip-path:url(#C)" transform="matrix(1.25 0 0 -1.25 45.29 990.29)"><text style="font-size:10.37;font-family:Droid Sans" transform="matrix(1 0 0 -1 253.51 525.26)"><tspan x="0 6 9.58 13.05 15.44 19.49" y="0">Artist</tspan></text></g><path d="m362.18 335.84h28.74v-.84h-28.74z" style="fill-rule:evenodd"/><g style="clip-path:url(#D)" transform="matrix(1.25 0 0 -1.25 45.29 990.29)"><text style="font-size:10.34;font-family:Droid Sans" transform="matrix(1 0 0 -1 255.89 512.64)"><tspan x="0" y="0">-</tspan></text></g><g style="clip-path:url(#E)" transform="matrix(1.25 0 0 -1.25 45.29 990.29)"><text style="font-size:10.34;font-family:Droid Sans" transform="matrix(1 0 0 -1 261.41 512.64)"><tspan x="0 6.53 10.14 15.09 20.52 25.95 28.33 32.71 37.69 40.07 42.33 47.74 51.35 53.73 62.05 64.43 67.92 70.3 75.01 80.19" y="0">Graphical Primitives</tspan></text></g><g style="clip-path:url(#F)" transform="matrix(1.25 0 0 -1.25 45.29 990.29)"><text style="font-size:10.37;font-family:Droid Sans" transform="matrix(1 0 0 -1 253.51 500.04)"><tspan x="0 3.14 8.35 12.84 15.68 17.81 21.87 27.03 31.91 40.24 45.4 50.84 54.34 56.93 59.07 63.45 65.84 69.46 73.84 76.23 81.39 88.6" y="0">(ex: segment, circle…)</tspan></text></g><g style="clip-path:url(#G)" transform="matrix(1.25 0 0 -1.25 45.29 990.29)"><g style="clip-path:url(#H)"><text style="font-size:10.37;font-family:Droid Sans" transform="matrix(1 0 0 -1 255.89 487.44)"><tspan x="0" y="0">-</tspan></text></g><g style="clip-path:url(#I)"><text style="font-size:10.37;font-family:Droid Sans" transform="matrix(1 0 0 -1 261.41 487.44)"><tspan x="0 6.42 10.04 15 22.42 27.86 29.98 38.33 43.3 48.74 54.14 59.11 61.49 63.88 68.57 70.84 76.35 79.97 82.21 86.59 90.21 95.38 100.34 103.85 109.01 114.45 116.59 122.03" y="0">Drawn manually or created by</tspan></text></g></g><g style="clip-path:url(#J)" transform="matrix(1.25 0 0 -1.25 45.29 990.29)"><g style="clip-path:url(#K)"><text style="font-size:10.37;font-family:Droid Sans" transform="matrix(1 0 0 -1 253.51 474.84)"><tspan x="0 5.08 10.52 15.69 17.95 23.39 25.77 31.24 34.76 38.24 40.62 46.07 50.92 53.18 56.34 61.78 67.2 71.58 75.09 77.47 82.98" y="0">The plotting function</tspan></text></g></g><g style="clip-path:url(#L)" transform="matrix(1.25 0 0 -1.25 45.29 990.29)"><g style="clip-path:url(#M)"><text style="font-size:10.34;font-family:Droid Sans" transform="matrix(1 0 0 -1 255.89 462.22)"><tspan x="0" y="0">-</tspan></text></g><g style="clip-path:url(#N)"><text style="font-size:10.34;font-family:Droid Sans" transform="matrix(1 0 0 -1 261.41 462.22)"><tspan x="0 5.51 11.03 16.46 19.61 21.99 26.86 32.29 35.86 40.82 46.25 48.63 53.8 56.05 60.43 65.95 68.33 73.84 77.45 80.03 82.16 87.59 93.1 96.71 102.14 107.29 110.9 113.48 115.64 123.06 125.44 130.87 136.3 139.77 142.16 144.76 147.37" y="0">Configurable color, border, widht ...</tspan></text></g></g><g style="fill:none;stroke-linecap:round;stroke-linejoin:round;stroke-miterlimit:10"><g style="stroke:#7092be"><path d="m326.54 151.19-5.88 36.39" style="stroke-width:1.65"/><g style="stroke-width:1.68"><path d="m288.17 262.92-33.8 51.99"/><path d="m359.27 262.92 61.3 51.99"/><path d="m235.82 389.65-9.84 30.3"/></g><path d="m396.9 117.25 123.21 22.2" style="stroke-width:1.65"/></g><path d="m456.77 194.52h150.7v63.35h-150.7z" style="stroke:#3cc;stroke-width:1.68"/></g><g style="clip-path:url(#O)" transform="matrix(1.25 0 0 -1.25 45.29 990.29)"><text style="font-size:10.37;font-family:Droid Sans" transform="matrix(1 0 0 -1 334.08 621.58)"><tspan x="0 5.53 11.03 13.42 18.92 22.54 28.18 33.15" y="0">ColorBar</tspan></text></g><path d="m462.89 215.42h45.9v-.84h-45.9z" style="fill-rule:evenodd"/><g style="clip-path:url(#P)" transform="matrix(1.25 0 0 -1.25 45.29 990.29)"><text style="font-size:10.37;font-family:Droid Sans" transform="matrix(1 0 0 -1 336.46 608.98)"><tspan x="0" y="0">-</tspan></text></g><g style="clip-path:url(#Q)" transform="matrix(1.25 0 0 -1.25 45.29 990.29)"><text style="font-size:10.37;font-family:Droid Sans" transform="matrix(1 0 0 -1 341.98 608.98)"><tspan x="0 5.05 9.78 15.18 20.34 22.5 28 31.17 33.41 37.46 42.86 48.26 53.66 56.05 61.55" y="0">Type of subplot</tspan></text></g><g style="clip-path:url(#R)" transform="matrix(1.25 0 0 -1.25 45.29 990.29)"><text style="font-size:10.37;font-family:Droid Sans" transform="matrix(1 0 0 -1 336.46 596.38)"><tspan x="0" y="0">-</tspan></text></g><g style="clip-path:url(#S)" transform="matrix(1.25 0 0 -1.25 45.29 990.29)"><text style="font-size:10.37;font-family:Droid Sans" transform="matrix(1 0 0 -1 341.98 596.38)"><tspan x="0 5.53 10.49 15.88 18.14 26.46 31.62 35.68 39.73 41.89 47.29 52.69 55.05 60.02 64.51 69.7 73.76 76.02 78.4 83.37 88.07 93.6 99" y="0">Can mess up axes layout</tspan></text></g><path d="m615.65 317.03h169.01v83.14h-169.01z" style="fill:none;stroke:#9c0;stroke-width:1.65;stroke-linecap:round;stroke-linejoin:round;stroke-miterlimit:10"/><g style="clip-path:url(#T)" transform="matrix(1.25 0 0 -1.25 45.29 990.29)"><text style="font-size:10.34;font-family:Droid Sans" transform="matrix(1 0 0 -1 463.1 523.56)"><tspan x="0 2.61 10.91 15.87 20.68" y="0">Image</tspan></text></g><path d="m624.17 337.94h32.37v-.84h-32.37z" style="fill-rule:evenodd"/><g style="clip-path:url(#U)" transform="matrix(1.25 0 0 -1.25 45.29 990.29)"><g style="clip-path:url(#V)"><text style="font-size:10.37;font-family:Droid Sans" transform="matrix(1 0 0 -1 465.46 510.96)"><tspan x="0" y="0">-</tspan></text></g><g style="clip-path:url(#W)"><text style="font-size:10.37;font-family:Droid Sans" transform="matrix(1 0 0 -1 470.98 510.96)"><tspan x="0 8.86 13.83 19.22 23.28 25.51 33.82 38.79 42.26 45.85 48.2 52.69 54.83 60.23 65.19 68.67 73.59 75.82 79.29 84.81 87.04 92.44 94.79 99.28 104.45" y="0">Maps matrix data to pixel</tspan></text></g></g><g style="clip-path:url(#X)" transform="matrix(1.25 0 0 -1.25 45.29 990.29)"><g style="clip-path:url(#Y)"><text style="font-size:10.37;font-family:Droid Sans" transform="matrix(1 0 0 -1 463.1 498.36)"><tspan x="0 5.53 11.03 13.39 18.89 22.51 26.56 28.68 31.03 36.43 38.78 43.74 49.13 51.48 53.86 62.15 67.11 71.93" y="0">Colors in an image</tspan></text></g></g><g style="clip-path:url(#Z)" transform="matrix(1.25 0 0 -1.25 45.29 990.29)"><g style="clip-path:url(#aa)"><text style="font-size:10.37;font-family:Droid Sans" transform="matrix(1 0 0 -1 465.46 485.74)"><tspan x="0" y="0">-</tspan></text></g><g style="clip-path:url(#ab)"><text style="font-size:10.37;font-family:Droid Sans" transform="matrix(1 0 0 -1 470.98 485.74)"><tspan x="0 5.53 11.03 16.43 19.6 21.93 26.75 32.15 35.77 40.69 46.1 48.45 53.61 55.86 61.39 66.89 69.25 74.75 78.37 86.66 91.62 97.02" y="0">Configurable Colormap </tspan></text></g></g><g style="fill:none;stroke-linecap:round;stroke-width:1.68;stroke-linejoin:round;stroke-miterlimit:10"><path d="m396.62 132.51 107.76 62.01" style="stroke:#7092be"/><path d="m407.9 262.13 207.75 54.9" style="stroke:#7092be"/><path d="m306.07 467.9h102.13v42.24h-102.13z" style="stroke:#3165bb"/></g><g style="clip-path:url(#ac)" transform="matrix(1.25 0 0 -1.25 9.49 989.06)"><g style="clip-path:url(#ad)"><text style="font-size:10.37;font-family:Droid Sans" transform="matrix(1 0 0 -1 244.08 402.46)"><tspan x="0 4.39 9.55 14.43 19.6 25.04" y="0">Legend</tspan></text></g><path d="m244.08 400.78h30.43v.67h-30.43z" style="fill-rule:evenodd"/></g><g style="clip-path:url(#ae)" transform="matrix(1.25 0 0 -1.25 9.49 989.06)"><g style="clip-path:url(#af)"><text style="font-size:10.37;font-family:Droid Sans" transform="matrix(1 0 0 -1 246.46 389.86)"><tspan x="0" y="0">-</tspan></text></g><g style="clip-path:url(#ag)"><text style="font-size:10.37;font-family:Droid Sans" transform="matrix(1 0 0 -1 251.98 389.86)"><tspan x="0 5.41 7.8 13.3 16.78 20.85 23.01 25.39 30.55 35.44 40.6 46.04" y="0">Plots legend</tspan></text></g></g><path d="m323.39 262.82 27.45 205.6" style="fill:none;stroke:#7092be;stroke-width:1.68;stroke-linecap:round;stroke-linejoin:round;stroke-miterlimit:10"/><g style="clip-path:url(#ah)" transform="matrix(1.25 0 0 -1.25 45.29 961.27)"><text style="font-size:10.34;font-family:Droid Sans" transform="matrix(1 0 0 -1 321.12 744.94)"><tspan x="0 8.34 13.77 16.12 21.29 24.78 30.3 35.81 38.19 42.9 45.28 48.78 52.83 55.43 63.67 69.1 71.45 76.96 80.34 85.64" y="0">mpl_toolkits.mplot3d</tspan></text></g><path d="m446.69 32.2h113.82v-.84h-113.82z" style="fill-rule:evenodd"/><g style="clip-path:url(#ai)" transform="matrix(1.25 0 0 -1.25 45.29 961.27)"><text style="font-size:10.37;font-family:Droid Sans" transform="matrix(1 0 0 -1 323.5 732.34)"><tspan x="0" y="0">-</tspan></text></g><g style="clip-path:url(#aj)" transform="matrix(1.25 0 0 -1.25 45.29 961.27)"><text style="font-size:10.37;font-family:Droid Sans" transform="matrix(1 0 0 -1 329.02 732.34)"><tspan x="0 6.42 11.58 14.74 17.13 22.57 27.73 31.79 33.92 37.98 43.38 48.54 52.93 55.31 60.28 62.66 64.93 70.94 75.43 80.59 84.64 87.24 89.51 95.51 100 102.38" y="0">Defines special Axes, Axis</tspan></text></g><g style="clip-path:url(#ak)" transform="matrix(1.25 0 0 -1.25 45.29 961.27)"><text style="font-size:10.37;font-family:Droid Sans" transform="matrix(1 0 0 -1 321.12 719.74)"><tspan x="0 6.86 12.31 14.78 19.95 24.33 27.83 31.88 34.02 37.18 42.7 46.31 48.55 53.85 60.27 62.53 67.38 71 75.97 81.35 86.75" y="0">Objects for 3D graphs</tspan></text></g><g style="fill:none;stroke-width:1.68;stroke-linecap:round;stroke-linejoin:round;stroke-miterlimit:10"><path d="m438.53 12.01h157.74v63.36h-157.74z" style="stroke:#f60"/><path d="m438.53 62.16-41.91 40.11" style="stroke:#7092be"/><path d="m59.17.85h151.64v69.33h-151.64v-69.33" style="stroke:#f60"/><path d="m20.85 94.14h168.1v84.99h-168.1z" style="stroke:#3165bb"/></g><text style="font-size:12.96;font-family:Droid Sans;letter-spacing:-.5;word-spacing:0" x="65.24" xml:space="preserve" y="15.21"><tspan style="letter-spacing:-.5" x="65.24" y="15.21">mathplotlib.pyplot</tspan><tspan style="letter-spacing:-.5" x="65.24" y="31.41"> - Main entry point</tspan><tspan style="letter-spacing:-.5" x="65.24" y="47.61"> - Plotting commands can</tspan><tspan style="letter-spacing:-.5" x="65.24" y="63.81">be called directly</tspan></text><path d="m65 17.42h111.46v-.84h-111.46z" style="fill-rule:evenodd"/><text style="font-size:12.96;font-family:Droid Sans;letter-spacing:-.5;word-spacing:0" x="28.25" xml:space="preserve" y="108.29"><tspan style="letter-spacing:-.5" x="28.25" y="108.29">Style</tspan><tspan style="letter-spacing:-.5" x="28.25" y="124.49"> - Set of properties to modify</tspan><tspan style="letter-spacing:-.5" x="28.25" y="140.69">appearance</tspan><tspan style="letter-spacing:-.5" x="28.25" y="156.89"> - Can be loaded from</tspan><tspan style="letter-spacing:-.5" x="28.25" y="173.09">properties file</tspan></text><path d="m28.2 110.5h28.74v-.84h-28.74z" style="fill-rule:evenodd"/><g style="fill:none;stroke-linecap:round;stroke-width:1.65;stroke-linejoin:round;stroke-miterlimit:10"><path d="m189.89 69.81 66.32 34.6" style="stroke:#7092be"/><path d="m114.12 70.41-18.4 23.86" style="stroke:#7092be"/><path d="m8.92 215.73h146.97v63.39h-146.97v-63.39" style="stroke:#7f7f7f"/></g><text style="font-size:12.5;font-family:Droid Sans;letter-spacing:-.5;word-spacing:0" x="14.81" xml:space="preserve" y="231.37"><tspan style="font-size:12.5;font-family:Droid Sans" x="14.81" y="231.37">Rc  params</tspan><tspan style="font-size:12.5;font-family:Droid Sans" x="14.81" y="245.12"> - Configure many figure,</tspan><tspan dy="0 0 0 0 0 0 0 0 0" style="font-size:12.5;font-family:Droid Sans" x="14.81" y="258.87">axes and artisit properties</tspan></text><path d="m16.08 233.64h56.73v-.84h-56.73z" style="fill-rule:evenodd"/><ellipse cx="71.29" cy="340.31" rx="52.77" ry="26.23" style="fill:none;stroke:#696969;stroke-width:1.6"/><text style="font-size:10;font-family:Droid Sans;letter-spacing:-.5;word-spacing:0" x="32.71" y="336.91"><tspan style="font-size:12.5;font-family:Droid Sans" x="32.71" y="336.91">./matplotlibrc</tspan><tspan style="font-size:12.5;font-family:Droid Sans" x="32.71" y="349.41">~/matplotlibrc</tspan></text><path d="m70.6 278.82.15 35.94" style="fill:none;stroke:#696969;stroke-width:1.68;stroke-linecap:round;stroke-linejoin:round;stroke-miterlimit:10"/><path d="m443.35 456.53h143.48v42.24h-143.48z" style="fill:none;stroke:#008000;stroke-width:1.68;stroke-linecap:round;stroke-linejoin:round;stroke-miterlimit:10"/><text style="font-size:10;font-family:Droid Sans;letter-spacing:-.5;word-spacing:0" x="448.73" y="473.32"><tspan style="font-size:12.5;font-family:Droid Sans" x="448.73" y="473.32">Patches</tspan><tspan style="font-size:12.5;font-family:Droid Sans" x="448.73" y="488.32">(circle, arrows, rectangles)</tspan></text><text style="font-size:10;font-family:Droid Sans;letter-spacing:-.5;word-spacing:0" x="616.75" y="472.77"><tspan style="font-size:12.5;font-family:Droid Sans" x="616.75" y="472.77">Lines</tspan><tspan style="font-size:12.5;font-family:Droid Sans" x="616.75" y="487.77">2D lines</tspan></text><path d="m606.6 456.53h63.86v42.24h-63.86z" style="fill:none;stroke:#008000;stroke-width:1.68;stroke-linecap:round;stroke-linejoin:round;stroke-miterlimit:10"/><path d="m448.14 475.59h41.91v-.84h-41.91z" style="fill-rule:evenodd"/><path d="m617.27 474.98h28.33v-.84h-28.33z" style="fill-rule:evenodd"/><g style="fill:none;stroke-linecap:round;stroke-miterlimit:10;stroke:#008000;stroke-width:1.6"><path d="m520.32 428.55-34.54 27.21"/><path d="m517.86 428.85 102.47 27.21"/></g></svg>