<svg height="143.21" viewBox="0 0 430.51 143.21" width="430.51" xml:space="preserve" xmlns="http://www.w3.org/2000/svg" xmlns:xlink="http://www.w3.org/1999/xlink"><clipPath id="a"><path d="m36.29 656.35h61.56v7.63h-61.56z" style="clip-rule:evenodd"/></clipPath><clipPath id="b"><path d="m36.29 656.42h61.56v7.56h-61.56z" style="clip-rule:evenodd"/></clipPath><clipPath id="c"><path d="m36.29 638.88h127.56v7.61h-127.56z" style="clip-rule:evenodd"/></clipPath><clipPath id="d"><path d="m36.29 638.95h127.56v7.54h-127.56z" style="clip-rule:evenodd"/></clipPath><clipPath id="e"><path d="m163.08 638.88h138.02v7.61h-138.02z" style="clip-rule:evenodd"/></clipPath><clipPath id="f"><path d="m163.08 638.95h138.02v7.54h-138.02z" style="clip-rule:evenodd"/></clipPath><clipPath id="g"><path d="m36.29 628.54h123.24v7.61h-123.24z" style="clip-rule:evenodd"/></clipPath><clipPath id="h"><path d="m36.29 628.61h123.24v7.54h-123.24z" style="clip-rule:evenodd"/></clipPath><clipPath id="i"><path d="m36.29 628.61h123.24v7.54h-123.24z" style="clip-rule:evenodd"/></clipPath><clipPath id="j"><path d="m163.08 620.98h138.02v15.17h-138.02z" style="clip-rule:evenodd"/></clipPath><clipPath id="k"><path d="m163.08 628.61h138.02v7.54h-138.02z" style="clip-rule:evenodd"/></clipPath><clipPath id="l"><path d="m163.08 628.61h138.02v7.54h-138.02z" style="clip-rule:evenodd"/></clipPath><clipPath id="m"><path d="m163.08 628.61h138.02v7.54h-138.02z" style="clip-rule:evenodd"/></clipPath><clipPath id="n"><path d="m163.08 621.05h138.02v7.56h-138.02z" style="clip-rule:evenodd"/></clipPath><clipPath id="o"><path d="m36.29 603.1h127.63v15.17h-127.63z" style="clip-rule:evenodd"/></clipPath><clipPath id="p"><path d="m36.29 610.73h127.63v7.54h-127.63z" style="clip-rule:evenodd"/></clipPath><clipPath id="q"><path d="m36.29 603.17h127.63v7.56h-127.63z" style="clip-rule:evenodd"/></clipPath><clipPath id="r"><path d="m163.08 610.66h138.02v7.61h-138.02z" style="clip-rule:evenodd"/></clipPath><clipPath id="s"><path d="m163.08 610.73h138.02v7.54h-138.02z" style="clip-rule:evenodd"/></clipPath><clipPath id="t"><path d="m36.29 585.22h127.63v15.17h-127.63z" style="clip-rule:evenodd"/></clipPath><clipPath id="u"><path d="m36.29 592.82h127.63v7.56h-127.63z" style="clip-rule:evenodd"/></clipPath><clipPath id="v"><path d="m36.29 585.29h127.63v7.54h-127.63z" style="clip-rule:evenodd"/></clipPath><clipPath id="w"><path d="m163.08 585.22h142.27v15.17h-142.27z" style="clip-rule:evenodd"/></clipPath><clipPath id="x"><path d="m163.08 592.82h142.22v7.56h-142.22z" style="clip-rule:evenodd"/></clipPath><clipPath id="y"><path d="m163.08 585.29h142.22v7.54h-142.22z" style="clip-rule:evenodd"/></clipPath><clipPath id="z"><path d="m36.29 559.78h131.4v22.73h-131.4z" style="clip-rule:evenodd"/></clipPath><clipPath id="A"><path d="m36.29 574.94h131.4v7.56h-131.4z" style="clip-rule:evenodd"/></clipPath><clipPath id="B"><path d="m36.29 567.38h131.4v7.56h-131.4z" style="clip-rule:evenodd"/></clipPath><clipPath id="C"><path d="m36.29 559.85h131.4v7.54h-131.4z" style="clip-rule:evenodd"/></clipPath><clipPath id="D"><path d="m163.08 559.78h142.27v22.73h-142.27z" style="clip-rule:evenodd"/></clipPath><clipPath id="E"><path d="m163.08 574.94h142.22v7.56h-142.22z" style="clip-rule:evenodd"/></clipPath><clipPath id="F"><path d="m163.08 567.38h142.22v7.56h-142.22z" style="clip-rule:evenodd"/></clipPath><clipPath id="G"><path d="m163.08 559.85h142.22v7.54h-142.22z" style="clip-rule:evenodd"/></clipPath><g transform="matrix(1.25 0 0 -1.25 2.23 828.16)"><g style="clip-path:url(#a)"><g style="clip-path:url(#b)"><text style="font-weight:bold;font-size:6.22;font-family:Droid Sans" transform="matrix(1 0 0 -1 40.46 658.03)"><tspan x="0 2.88 6.5 10.46 11.87 14.83 17.31 18.59 21.88 24.9 28.19 31.13 34.16" y="0">SVG vs Canvas</tspan></text></g></g><g style="clip-path:url(#c)"><g style="clip-path:url(#d)"><text style="font-weight:bold;font-size:6.19;font-family:Droid Sans" transform="matrix(1 0 0 -1 70.46 640.56)"><tspan x="0 2.88 5.49 8.51 10.03 13.07 16.35 17.88 20.99 22.33 25.95 29.05 31.65 33.8 37.1 39.3 40.66 44.6 46.82 49.84 53.13 56.42 57.94 60.56" y="0">Scalable Vector Graphics</tspan></text></g></g><g style="clip-path:url(#e)"><g style="clip-path:url(#f)"><text style="font-weight:bold;font-size:6.19;font-family:Droid Sans" transform="matrix(1 0 0 -1 225.12 640.56)"><tspan x="0 3.28 6.31 9.6 12.54 15.57" y="0">Canvas</tspan></text></g></g><g style="clip-path:url(#g)"><g style="clip-path:url(#h)"><text style="font-size:6.19;font-family:Droid Sans" transform="matrix(1 0 0 -1 40.46 630.22)"><tspan x="0 3.02 5.99 8.61 11.83" y="0">Each </tspan></text></g><g style="clip-path:url(#i)"><text style="font-size:6.19;font-family:Droid Sans" transform="matrix(1 0 0 -1 53.66 630.22)"><tspan x="0 2.88 5.04 8.01 11.23 14.48 15.89 18.51 21.47 22.87 24.27 27.52 29.68 31.11 36.09 37.52 39.59 41.02 43.84 46.92 48.2 49.63 52.05 53.45 56.42 57.76 61.59 65.69 71.02 72.29 75.54 78.8 82.05" y="0">graphical primitive is a DOM node</tspan></text></g><path d="m53.66 629.21h85.3v.41h-85.3z" style="fill-rule:evenodd"/></g><g style="clip-path:url(#j)"><g style="clip-path:url(#k)"><text style="font-size:6.19;font-family:Droid Sans" transform="matrix(1 0 0 -1 167.28 630.22)"><tspan x="0 3.02 6.24 9.33" y="0">The </tspan></text></g><g style="clip-path:url(#l)"><text style="font-size:6.19;font-family:Droid Sans" transform="matrix(1 0 0 -1 177.98 630.22)"><tspan x="0 3.21 5.37 8.66 13.08 15.5 18.61 20.77 22.04 24.46 27.55 30.65 33.07 34.42 37.39 38.79 41.41 44.37 47.57 50.4 53.36 55.78 57.05 60.01 62.43 63.83 66.8 68.14 71.35 72.77 74.85 79.84 82.81" y="0">browser sees a canvas as a bitmap</tspan></text></g><g style="clip-path:url(#m)"><text style="font-size:6.19;font-family:Droid Sans" transform="matrix(1 0 0 -1 264.29 630.22)"><tspan x="0 1.55 2.88 4.95 8.19 11.27 13.43 16.53 17.88 19.3 21.72 23.12 26.35 29.63" y="0">, there is no </tspan></text></g><path d="m177.98 629.21h86.3v.41h-86.3z" style="fill-rule:evenodd"/><g style="clip-path:url(#n)"><text style="font-size:6.19;font-family:Droid Sans" transform="matrix(1 0 0 -1 167.28 622.68)"><tspan x="0 2.82 6.05 9.33 13.76 15.18 18.27 21.52 24.38 27.46 28.74 32.03 33.91 35.24 37.31 40.55 43.63 44.98 47.6 50.88 55.86 59.08 62.36 64.78 66.2 69.42 72.3 73.57 76.78 78.94 80.37 85.34 86.77 88.84 90.27 93.09 96.17" y="0">knowledge of the composing primitives</tspan></text></g></g><g style="clip-path:url(#o)"><g style="clip-path:url(#p)"><text style="font-size:6.19;font-family:Droid Sans;fill:#00b050" transform="matrix(1 0 0 -1 40.46 612.34)"><tspan x="0 2.83 5.44 8.4 9.81 12.77 16.01 17.42 20.51 21.86 24.27 25.68 28.93 31.55 34.64 35.99 39.08 42.03 44.64 47.88 49.3 52.54 54.69 56.1 61.1 62.52 64.6 66.01 68.84 71.93 73.13 74.54 76.95 78.38 81.21 84.3 87.54 89.62 90.97 92.38 95.62 97.04 102.02 105.11 110.1 113.39 115.54 118.37" y="0">Scalable since each primitive is kept in memory </tspan></text></g><g style="clip-path:url(#q)"><text style="font-size:6.19;font-family:Droid Sans;fill:#00b050" transform="matrix(1 0 0 -1 40.46 604.78)"><tspan x="0 2.97 6.19 9.44 10.84 13.46 16.43 19.65 21 24.25 27.33 28.73 31.16 33.78 36.75 38.15 41.23" y="0">and can be scaled</tspan></text></g></g><g style="clip-path:url(#r)"><g style="clip-path:url(#s)"><text style="font-size:6.19;font-family:Droid Sans;fill:#f00" transform="matrix(1 0 0 -1 167.28 612.34)"><tspan x="0 3.96 7.24 9.32 10.68 13.1 15.72 18.68 20.08 23.05 26.25 27.67 30.76 32.11 34.53 35.95 39.16 41.78 44.87 46.22 49.51 52.72 54.14 56.96 58.3 60.38 63.61 66.69 68.05 71.26 72.69 74.76 79.75 82.72 85.92 87.26 91.69 93.12 94.54 95.96 97.29 100.51 103.59 105.02 107.44 110.06 113.02 114.42 117.51" y="0">Not scalable since only the bitmap will be scaled</tspan></text></g></g><g style="clip-path:url(#t)"><g style="clip-path:url(#u)"><text style="font-size:6.22;font-family:Droid Sans;fill:#00b050" transform="matrix(1 0 0 -1 40.46 594.46)"><tspan x="0 3.84 5.27 8.14 11.38 12.78 14.21 17.31 20.13 23.22 24.65 25.98 29.56 32.79 34.32 35.67 37.54 40.81 42.98 44.33 47.43 50.26 53.35 56.59 58.67 61.1 62.38 65.33 68.57 71.81 73.21 75.64 77.72 80.56 81.99 83.39 86.63 89.51 90.85 93.95 95.29 97.37 100.64 103.73 106.55 107.89 110.06 113.16 114.56 117.38" y="0">High level API for events and styling = they rely </tspan></text></g><g style="clip-path:url(#v)"><text style="font-size:6.22;font-family:Droid Sans;fill:#00b050" transform="matrix(1 0 0 -1 40.46 586.9)"><tspan x="0 1.43 4.66 6.06 9.91 14.02 19.34 20.61 23.71 26.54 29.63 32.87 34.95 37.38 38.66 41.61 44.85 48.09 49.49 52.8 55.62 58.46 59.86 61.29 62.72 65.55 68.64 69.97 73.25 75.33 78.6 81.69 83.86 85.19 88.43 91.7 94.97 98.06" y="0">in DOM events and CSS like other nodes</tspan></text></g></g><g style="clip-path:url(#w)"><g style="clip-path:url(#x)"><text style="font-size:6.22;font-family:Droid Sans;fill:#f00" transform="matrix(1 0 0 -1 167.28 594.46)"><tspan x="0 2.61 5.89 10.33 11.62 13.05 16.14 18.95 22.05 23.48 24.82 28.39 31.61 33.14 34.7 36.02 39.12 41.95 45.04 48.25 50.34 51.62 54.83 57.78 61 64.21 65.64 67.05 70.26 73.14 74.54 77.52 79.6 81.01 84.23 86.4 87.8 92.79 94.22 96.3 97.71 100.54 103.63 104.91 106.34 109.43 112.24 115.34 116.77 118.04 121.25 124.2 126.63 128.04 130.12 133.41" y="0">Low level API, event handling at primitive level has to </tspan></text></g><g style="clip-path:url(#y)"><text style="font-size:6.22;font-family:Droid Sans;fill:#f00" transform="matrix(1 0 0 -1 167.28 586.9)"><tspan x="0 3.21 6.31 7.65 10.28 13.56 16.77 19.87" y="0">be coded</tspan></text></g></g><g style="clip-path:url(#z)"><g style="clip-path:url(#A)"><text style="font-size:6.22;font-family:Droid Sans;fill:#f00" transform="matrix(1 0 0 -1 40.46 576.55)"><tspan x="0 3.82 6.92 9.55 10.98 13.92 16.09 19.03 21.11 22.54 25.35 28.44 29.66 32.61 35.85 39.09 40.49 43.33 46.42 48.59 51.82 55.1 57.53 60.62 61.91 65 66.34 68.43 71.7 75 76.28 81.26 84.21 87.45 90.27 91.63 94.87 98.14 101.41 104.5 106.93 108.26 109.69 114.65 117.92 119.32 122.14" y="0">Declarative and verbose = too many nodes imply </tspan></text></g><g style="clip-path:url(#B)"><text style="font-size:6.22;font-family:Droid Sans;fill:#f00" transform="matrix(1 0 0 -1 40.46 569.02)"><tspan x="0 2.95 4.36 5.79 9.06 11.15 12.43 15.71 17.6 18.93 22.17 24.25 29.25 30.68 32.01 34.64 37.91 41.15 44.25 45.59 48.02 51.29 52.64 54.07 57.35 60.59 63.47 66.56 68.73 70.07 73.31 76.58 81.03 84.29 85.69 88.96 91.94 95.17 96.6 99.82 102.7 104.04 106.13 107.56 112.52 115.62 118.05 119.33 122.42" y="0">a lot of html code so longer downloading times + </tspan></text></g><g style="clip-path:url(#C)"><text style="font-size:6.22;font-family:Droid Sans;fill:#f00" transform="matrix(1 0 0 -1 40.46 561.46)"><tspan x="0 4.99 8.26 10.43 13.53 14.8 19.79 22.88 27.87 31.14 33.31 36.14 37.26 40.36 41.77 43.19 46.47 49.73 52.6 55.7 57.86 59.2 61.28 62.71 67.68 70.78 72.06 74.14 77.42 78.78 82.02 83.45 85.86 89.1 90.53 93.47" y="0">more memory + longer time to display</tspan></text></g></g><g style="clip-path:url(#D)"><g style="clip-path:url(#E)"><text style="font-size:6.22;font-family:Droid Sans;fill:#00b050" transform="matrix(1 0 0 -1 167.28 576.55)"><tspan x="0 1.54 6.52 9.73 12.83 15 17.94 20.02 21.45 24.26 27.36 28.57 30.45 33.27 36.54 39.78 41.12 43.2 46.3 47.73 49.14 50.48 53.69 56.97 61.41 62.76 64.85 68.12 69.48 72.7 74.87 77.81 82.25 83.59 86.81 90.08 92.16 93.53 97.97 101.18 104.14 106.22 107.57 109.65 112.93 114.29 117.5 119.67 122.61 127.06 128.94 130.27 133.36" y="0">Imperative (you tell how to draw not what to draw) = </tspan></text></g><g style="clip-path:url(#F)"><text style="font-size:6.22;font-family:Droid Sans;fill:#00b050" transform="matrix(1 0 0 -1 167.28 569.02)"><tspan x="0 4.99 8.26 10.43 13.53 14.8 17.43 20.71 25.69 28.9 31.86 34.49 36.57 37.76 39.19 41.05 42.46 47.45 50.41 53.62 56.44 57.8 61.01 63.18 64.58 69.57 71 73.08 74.49 77.32 80.42 82.85 84.04 87.14 88.54 91.77 93.2 95.61 98.82 100.25 103.19 106.01 107.37 109.45 110.88 115.85 118.94" y="0">more compact if many primitives + display time </tspan></text></g><g style="clip-path:url(#G)"><text style="font-size:6.22;font-family:Droid Sans;fill:#00b050" transform="matrix(1 0 0 -1 167.28 561.46)"><tspan x="0 3.21 6.31 9.52 12.62 15.83 19.05 21.48 22.81 26.09 29.31 30.72 32.8 36.03 39.13 40.47 41.94 44.37 45.71 48.34 51.61 54.83 57.92 59.26 62.48 65.75 67.84 69.2 71.28 74.5 77.59 78.94 82.15 85.36 90.35 93.56 96.66 98.83 100.16 103.44 105.34 106.67 109.88 112.05 113.45 118.44 119.87 121.95 123.36 126.19 129.29" y="0">depends on the js code not the number of primitives</tspan></text></g></g><g style="fill:none;stroke:#c6c6c6;stroke-width:.36;stroke-miterlimit:10"><path d="m38.4 548.14h264.05v99.84h-264.05z"/><path d="m38.35 637.66h264.05"/><path d="m38.35 619.78h264.05"/><path d="m38.35 601.78h264.05"/><path d="m38.35 583.9h264.05"/><path d="m38.35 558.58h264.05"/><path d="m165.14 647.93v-99.72"/></g></g></svg>