<svg height="650" viewBox="0 0 1280 630.31" width="1500" xml:space="preserve" xmlns="http://www.w3.org/2000/svg" xmlns:xlink="http://www.w3.org/1999/xlink">
<clipPath id="a">
<path d="m37.25 718.92h38.93v7.54h-38.93z" style="clip-rule:evenodd"/>
</clipPath>
<clipPath id="b">
<path d="m37.25 718.97h38.93v7.49h-38.93z" style="clip-rule:evenodd"/>
</clipPath>
<clipPath id="c">
<path d="m37.25 711.43h45.22v7.56h-45.22z" style="clip-rule:evenodd"/>
</clipPath>
<clipPath id="d">
<path d="m37.25 711.5h45.22v7.49h-45.22z" style="clip-rule:evenodd"/>
</clipPath>
<clipPath id="e">
<path d="m112.7 672.84h77.3v7.56h-77.3z" style="clip-rule:evenodd"/>
</clipPath>
<clipPath id="f">
<path d="m112.7 672.91h77.3v7.49h-77.3z" style="clip-rule:evenodd"/>
</clipPath>
<clipPath id="g">
<path d="m112.7 665.38h83.9v7.54h-83.9z" style="clip-rule:evenodd"/>
</clipPath>
<clipPath id="h">
<path d="m112.7 665.45h83.9v7.46h-83.9z" style="clip-rule:evenodd"/>
</clipPath>
<clipPath id="i">
<path d="m112.7 657.91h77.71v7.54h-77.71z" style="clip-rule:evenodd"/>
</clipPath>
<clipPath id="j">
<path d="m112.7 657.98h77.71v7.46h-77.71z" style="clip-rule:evenodd"/>
</clipPath>
<clipPath id="k">
<path d="m112.7 650.45h78.58v7.54h-78.58z" style="clip-rule:evenodd"/>
</clipPath>
<clipPath id="l">
<path d="m112.7 650.5h78.58v7.49h-78.58z" style="clip-rule:evenodd"/>
</clipPath>
<clipPath id="m">
<path d="m33.58 670.85h35.06v7.54h-35.06z" style="clip-rule:evenodd"/>
</clipPath>
<clipPath id="n">
<path d="m33.58 670.92h35.06v7.46h-35.06z" style="clip-rule:evenodd"/>
</clipPath>
<clipPath id="o">
<path d="m33.58 663.38h84v7.54h-84z" style="clip-rule:evenodd"/>
</clipPath>
<clipPath id="p">
<path d="m33.58 663.43h84v7.49h-84z" style="clip-rule:evenodd"/>
</clipPath>
<clipPath id="q">
<path d="m33.58 663.43h84v7.49h-84z" style="clip-rule:evenodd"/>
</clipPath>
<clipPath id="r">
<path d="m33.58 663.43h84v7.49h-84z" style="clip-rule:evenodd"/>
</clipPath>
<clipPath id="s">
<path d="m33.58 655.9h73.7v7.56h-73.7z" style="clip-rule:evenodd"/>
</clipPath>
<clipPath id="t">
<path d="m33.58 655.97h73.7v7.49h-73.7z" style="clip-rule:evenodd"/>
</clipPath>
<clipPath id="u">
<path d="m146.9 728.86h59.42v7.54h-59.42z" style="clip-rule:evenodd"/>
</clipPath>
<clipPath id="v">
<path d="m146.9 728.93h59.42v7.46h-59.42z" style="clip-rule:evenodd"/>
</clipPath>
<clipPath id="w">
<path d="m146.9 721.39h49.54v7.54h-49.54z" style="clip-rule:evenodd"/>
</clipPath>
<clipPath id="x">
<path d="m146.9 721.44h49.54v7.49h-49.54z" style="clip-rule:evenodd"/>
</clipPath>
<clipPath id="y">
<path d="m225.53 751.94h59.62v7.56h-59.62z" style="clip-rule:evenodd"/>
</clipPath>
<clipPath id="z">
<path d="m225.53 752.02h59.62v7.49h-59.62z" style="clip-rule:evenodd"/>
</clipPath>
<clipPath id="A">
<path d="m225.53 737.02h63.77v7.54h-63.77z" style="clip-rule:evenodd"/>
</clipPath>
<clipPath id="B">
<path d="m225.53 737.09h63.77v7.46h-63.77z" style="clip-rule:evenodd"/>
</clipPath>
<clipPath id="C">
<path d="m225.53 729.55h90.53v7.54h-90.53z" style="clip-rule:evenodd"/>
</clipPath>
<clipPath id="D">
<path d="m225.53 729.6h90.53v7.49h-90.53z" style="clip-rule:evenodd"/>
</clipPath>
<clipPath id="E">
<path d="m225.53 729.6h90.53v7.49h-90.53z" style="clip-rule:evenodd"/>
</clipPath>
<clipPath id="F">
<path d="m225.53 722.06h94.39v7.56h-94.39z" style="clip-rule:evenodd"/>
</clipPath>
<clipPath id="G">
<path d="m225.53 722.14h94.39v7.49h-94.39z" style="clip-rule:evenodd"/>
</clipPath>
<clipPath id="H">
<path d="m225.53 722.14h94.39v7.49h-94.39z" style="clip-rule:evenodd"/>
</clipPath>
<clipPath id="I">
<path d="m225.53 714.6h87.34v7.54h-87.34z" style="clip-rule:evenodd"/>
</clipPath>
<clipPath id="J">
<path d="m225.53 714.67h87.34v7.46h-87.34z" style="clip-rule:evenodd"/>
</clipPath>
<clipPath id="K">
<path d="m225.53 707.14h94.39v7.54h-94.39z" style="clip-rule:evenodd"/>
</clipPath>
<clipPath id="L">
<path d="m225.53 707.21h94.39v7.46h-94.39z" style="clip-rule:evenodd"/>
</clipPath>
<clipPath id="M">
<path d="m225.53 707.21h94.39v7.46h-94.39z" style="clip-rule:evenodd"/>
</clipPath>
<clipPath id="N">
<path d="m225.53 699.67h94.39v7.54h-94.39z" style="clip-rule:evenodd"/>
</clipPath>
<clipPath id="O">
<path d="m225.53 699.72h94.39v7.49h-94.39z" style="clip-rule:evenodd"/>
</clipPath>
<clipPath id="P">
<path d="m339.7 733.92h53.54v7.56h-53.54z" style="clip-rule:evenodd"/>
</clipPath>
<clipPath id="Q">
<path d="m339.7 733.99h53.54v7.49h-53.54z" style="clip-rule:evenodd"/>
</clipPath>
<clipPath id="R">
<path d="m339.7 726.46h73.85v7.54h-73.85z" style="clip-rule:evenodd"/>
</clipPath>
<clipPath id="S">
<path d="m339.7 726.53h73.85v7.46h-73.85z" style="clip-rule:evenodd"/>
</clipPath>
<clipPath id="T">
<path d="m428.83 761.09h75.24v7.54h-75.24z" style="clip-rule:evenodd"/>
</clipPath>
<clipPath id="U">
<path d="m428.83 761.16h75.24v7.46h-75.24z" style="clip-rule:evenodd"/>
</clipPath>
<clipPath id="V">
<path d="m438.84 746.74h46.8v7.54h-46.8z" style="clip-rule:evenodd"/>
</clipPath>
<clipPath id="W">
<path d="m438.84 746.81h46.8v7.46h-46.8z" style="clip-rule:evenodd"/>
</clipPath>
<clipPath id="X">
<path d="m440.16 724.44h46.82v7.54h-46.82z" style="clip-rule:evenodd"/>
</clipPath>
<clipPath id="Y">
<path d="m440.18 724.51h46.8v7.46h-46.8z" style="clip-rule:evenodd"/>
</clipPath>
<clipPath id="Z">
<path d="m428.04 687.67h75.24v7.54h-75.24z" style="clip-rule:evenodd"/>
</clipPath>
<clipPath id="aa">
<path d="m428.04 687.72h75.24v7.49h-75.24z" style="clip-rule:evenodd"/>
</clipPath>
<clipPath id="ab">
<path d="m438.07 673.32h46.8v7.54h-46.8z" style="clip-rule:evenodd"/>
</clipPath>
<clipPath id="ac">
<path d="m438.07 673.37h46.8v7.49h-46.8z" style="clip-rule:evenodd"/>
</clipPath>
<clipPath id="ad">
<path d="m236.54 787.01h52.68v7.54h-52.68z" style="clip-rule:evenodd"/>
</clipPath>
<clipPath id="ae">
<path d="m236.54 787.06h52.68v7.49h-52.68z" style="clip-rule:evenodd"/>
</clipPath>
<clipPath id="af">
<path d="m372.55 590.76h68.83v7.54h-68.83z" style="clip-rule:evenodd"/>
</clipPath>
<clipPath id="ag">
<path d="m372.55 590.83h68.83v7.46h-68.83z" style="clip-rule:evenodd"/>
</clipPath>
<clipPath id="ah">
<path d="m380.57 574.73h43.32v7.56h-43.32z" style="clip-rule:evenodd"/>
</clipPath>
<clipPath id="ai">
<path d="m380.57 574.8h43.32v7.49h-43.32z" style="clip-rule:evenodd"/>
</clipPath>
<clipPath id="aj">
<path d="m423.62 575.4h43.34v7.54h-43.34z" style="clip-rule:evenodd"/>
</clipPath>
<clipPath id="ak">
<path d="m423.62 575.47h43.34v7.46h-43.34z" style="clip-rule:evenodd"/>
</clipPath>
<clipPath id="al">
<path d="m462.7 575.74h43.32v7.54h-43.32z" style="clip-rule:evenodd"/>
</clipPath>
<clipPath id="am">
<path d="m462.7 575.81h43.32v7.46h-43.32z" style="clip-rule:evenodd"/>
</clipPath>
<clipPath id="an">
<path d="m373.9 532.68h57.74v7.54h-57.74z" style="clip-rule:evenodd"/>
</clipPath>
<clipPath id="ao">
<path d="m373.9 532.75h57.74v7.46h-57.74z" style="clip-rule:evenodd"/>
</clipPath>
<clipPath id="ap">
<path d="m371.4 618.77h97.75v7.56h-97.75z" style="clip-rule:evenodd"/>
</clipPath>
<clipPath id="aq">
<path d="m371.4 618.84h97.75v7.49h-97.75z" style="clip-rule:evenodd"/>
</clipPath>
<clipPath id="ar">
<path d="m371.4 611.3h89.4v7.54h-89.4z" style="clip-rule:evenodd"/>
</clipPath>
<clipPath id="as">
<path d="m371.4 611.38h89.4v7.46h-89.4z" style="clip-rule:evenodd"/>
</clipPath>
<clipPath id="at">
<path d="m516.62 757.97h43.58v7.54h-43.58z" style="clip-rule:evenodd"/>
</clipPath>
<clipPath id="au">
<path d="m516.62 758.02h43.58v7.49h-43.58z" style="clip-rule:evenodd"/>
</clipPath>
<clipPath id="av">
<path d="m516.62 750.48h70.63v7.56h-70.63z" style="clip-rule:evenodd"/>
</clipPath>
<clipPath id="aw">
<path d="m516.62 750.55h70.63v7.49h-70.63z" style="clip-rule:evenodd"/>
</clipPath>
<clipPath id="ax">
<path d="m516.62 735.55h70.63v15h-70.63z" style="clip-rule:evenodd"/>
</clipPath>
<clipPath id="ay">
<path d="m516.62 743.09h70.63v7.46h-70.63z" style="clip-rule:evenodd"/>
</clipPath>
<clipPath id="az">
<path d="m516.62 743.09h70.63v7.46h-70.63z" style="clip-rule:evenodd"/>
</clipPath>
<clipPath id="aA">
<path d="m516.62 735.6h70.63v7.49h-70.63z" style="clip-rule:evenodd"/>
</clipPath>
<clipPath id="aB">
<path d="m516.62 728.09h70.63v7.54h-70.63z" style="clip-rule:evenodd"/>
</clipPath>
<clipPath id="aC">
<path d="m516.62 728.16h70.63v7.46h-70.63z" style="clip-rule:evenodd"/>
</clipPath>
<clipPath id="aD">
<path d="m516.62 728.16h70.63v7.46h-70.63z" style="clip-rule:evenodd"/>
</clipPath>
<clipPath id="aE">
<path d="m516.62 720.6h70.63v7.56h-70.63z" style="clip-rule:evenodd"/>
</clipPath>
<clipPath id="aF">
<path d="m516.62 720.67h70.63v7.49h-70.63z" style="clip-rule:evenodd"/>
</clipPath>
<clipPath id="aG">
<path d="m516.62 720.67h70.63v7.49h-70.63z" style="clip-rule:evenodd"/>
</clipPath>
<clipPath id="aH">
<path d="m516.62 713.14h70.63v7.56h-70.63z" style="clip-rule:evenodd"/>
</clipPath>
<clipPath id="aI">
<path d="m516.62 713.21h70.63v7.49h-70.63z" style="clip-rule:evenodd"/>
</clipPath>
<clipPath id="aJ">
<path d="m246.22 637.8h111.24v7.54h-111.24z" style="clip-rule:evenodd"/>
</clipPath>
<clipPath id="aK">
<path d="m246.22 637.87h111.24v7.46h-111.24z" style="clip-rule:evenodd"/>
</clipPath>
<clipPath id="aL">
<path d="m246.22 637.87h111.24v7.46h-111.24z" style="clip-rule:evenodd"/>
</clipPath>
<clipPath id="aM">
<path d="m246.22 630.34h117.84v7.54h-117.84z" style="clip-rule:evenodd"/>
</clipPath>
<clipPath id="aN">
<path d="m246.22 630.41h117.84v7.46h-117.84z" style="clip-rule:evenodd"/>
</clipPath>
<clipPath id="aO">
<path d="m246.22 630.41h117.84v7.46h-117.84z" style="clip-rule:evenodd"/>
</clipPath>
<clipPath id="aP">
<path d="m246.22 622.87h58.75v7.54h-58.75z" style="clip-rule:evenodd"/>
</clipPath>
<clipPath id="aQ">
<path d="m246.22 622.92h58.75v7.49h-58.75z" style="clip-rule:evenodd"/>
</clipPath>
<clipPath id="aR">
<path d="m246.22 615.38h97.82v7.56h-97.82z" style="clip-rule:evenodd"/>
</clipPath>
<clipPath id="aS">
<path d="m246.22 615.46h97.82v7.49h-97.82z" style="clip-rule:evenodd"/>
</clipPath>
<clipPath id="aT">
<path d="m246.22 607.92h110.83v7.54h-110.83z" style="clip-rule:evenodd"/>
</clipPath>
<clipPath id="aU">
<path d="m246.22 607.99h110.83v7.46h-110.83z" style="clip-rule:evenodd"/>
</clipPath>
<clipPath id="aV">
<path d="m246.22 600.46h72.12v7.54h-72.12z" style="clip-rule:evenodd"/>
</clipPath>
<clipPath id="aW">
<path d="m246.22 600.53h72.12v7.46h-72.12z" style="clip-rule:evenodd"/>
</clipPath>
<clipPath id="aX">
<path d="m257.9 537.34h71.38v7.54h-71.38z" style="clip-rule:evenodd"/>
</clipPath>
<clipPath id="aY">
<path d="m257.9 537.41h71.38v7.46h-71.38z" style="clip-rule:evenodd"/>
</clipPath>
<clipPath id="aZ">
<path d="m379.08 553.03h75.84v7.54h-75.84z" style="clip-rule:evenodd"/>
</clipPath>
<clipPath id="a0">
<path d="m379.08 553.08h75.84v7.49h-75.84z" style="clip-rule:evenodd"/>
</clipPath>
<clipPath id="a1">
<path d="m379.08 545.54h57.62v7.56h-57.62z" style="clip-rule:evenodd"/>
</clipPath>
<clipPath id="a2">
<path d="m379.08 545.62h57.62v7.49h-57.62z" style="clip-rule:evenodd"/>
</clipPath>
<clipPath id="a3">
<path d="m326.35 537.67h57.67v7.54h-57.67z" style="clip-rule:evenodd"/>
</clipPath>
<clipPath id="a4">
<path d="m326.35 537.74h57.67v7.46h-57.67z" style="clip-rule:evenodd"/>
</clipPath>
<clipPath id="a5">
<path d="m326.35 530.21h51.12v7.54h-51.12z" style="clip-rule:evenodd"/>
</clipPath>
<clipPath id="a6">
<path d="m326.35 530.26h51.12v7.49h-51.12z" style="clip-rule:evenodd"/>
</clipPath>
<clipPath id="a7">
<path d="m479.9 642.82h73.49v7.54h-73.49z" style="clip-rule:evenodd"/>
</clipPath>
<clipPath id="a8">
<path d="m479.9 642.86h73.49v7.49h-73.49z" style="clip-rule:evenodd"/>
</clipPath>
<clipPath id="a9">
<path d="m479.9 635.33h60.34v7.56h-60.34z" style="clip-rule:evenodd"/>
</clipPath>
<clipPath id="ba">
<path d="m479.9 635.4h60.34v7.49h-60.34z" style="clip-rule:evenodd"/>
</clipPath>
<g transform="matrix(2.29 0 0 -2.29 -77.69 1823.35)">
<g style="fill:none;stroke-width:.79;stroke-linecap:round;stroke-linejoin:round;stroke-miterlimit:10">
<path d="m435.91 656.74.34-70.08" style="stroke:#0f0"/>
<path d="m438.89 592.03-2.64-5.37-2.74 5.35" style="stroke:#0f0"/>
<path d="m36.1 739.87h28.03v-40.05h-28.03z" style="stroke:#595959"/>
<path d="m114.12 683.11h63.74v-38.04h-63.74z" style="stroke:#f0f"/>
<path d="m34.32 682.1h66.43v-30.02h-66.43z" style="stroke:#c9f"/>
<path d="m146.9 738.91h51.05v-20.85h-51.05z" style="stroke:#00f"/>
<path d="m226.2 763.22h91.78v-79.75h-91.78z" style="stroke:#4bacc6"/>
<path d="m340.78 745.2h60.4v-39.55h-60.4z" style="stroke:#f00"/>
<path d="m374.33 542.95h158.88v-21.72h-158.88z" style="stroke:#177d36"/>
<path d="m373.3 600.02h126.14v-37.72h-126.14z" style="stroke:#0f0"/>
<path d="m237.29 795.6h314.13v-10.03h-314.13z" style="stroke:#0ff"/>
<path d="m516.22 767.81h76.1v-61.42h-76.1z" style="stroke:#808000"/>
<path d="m437.93 758.14h34.05v-15.36h-34.05z" style="stroke:#f00"/>
</g>
<g style="clip-path:url(#a)">
<g style="clip-path:url(#b)">
<text style="font-size:6.14;font-family:Droid Sans" transform="matrix(1 0 0 -1 41.4 720.65)">
<tspan x="0 3.27 4.66 6.05 9.11 12.32" y="0">Client</tspan>
</text>
</g>
</g>
<g style="clip-path:url(#c)">
<g style="clip-path:url(#d)">
<text style="font-size:6.14;font-family:Droid Sans" transform="matrix(1 0 0 -1 41.4 713.18)">
<tspan x="0 3.34 5.49 8.72 13.12 15.52 18.59" y="0">Browser</tspan>
</text>
</g>
</g>
<g style="clip-path:url(#e)">
<g style="clip-path:url(#f)">
<text style="font-size:6.14;font-family:Droid Sans" transform="matrix(1 0 0 -1 116.83 674.59)">
<tspan x="0 3 6.22 9.09 12.15 13.51 16.11 19.07 21.67 24.9 27.97 30.36 33.64 36.88 40.1 42.16 45.24 48.46 50.52" y="0">Edge cache/Content </tspan>
</text>
</g>
<path d="m116.83 673.51h50.47v.41h-50.47z" style="fill-rule:evenodd"/>
</g>
<g style="clip-path:url(#g)">
<g style="clip-path:url(#h)">
<text style="font-size:6.14;font-family:Droid Sans" transform="matrix(1 0 0 -1 116.83 667.1)">
<tspan x="0 3.81 6.87 8.28 9.7 12.52 15.58 17.72 20.53 21.73 25.66 28.72 30.78 35.21 38.47 40.61 43.41 44.69 46.55 49.82 53.63 57.57" y="0">Delivery Network (CDN)</tspan>
</text>
</g>
<path d="m116.83 666.05h59.42v.41h-59.42z" style="fill-rule:evenodd"/>
</g>
<g style="clip-path:url(#i)">
<g style="clip-path:url(#j)">
<text style="font-size:6.14;font-family:Droid Sans" transform="matrix(1 0 0 -1 116.83 659.64)">
<tspan x="0 1.86 4.26 7.34 9.48 12.28 15.34 17.74 19.02 21.42 23.48 26.43 28.48 29.91 32.51 33.8 36.4 39.67 42.9 44.96 48.02 51.24" y="0">(serves static content</tspan>
</text>
</g>
</g>
<g style="clip-path:url(#k)">
<g style="clip-path:url(#l)">
<text style="font-size:6.14;font-family:Droid Sans" transform="matrix(1 0 0 -1 116.83 652.18)">
<tspan x="0 2.61 5.87 8.47 11.43 13.49 16.55 17.84 20.43 21.86 25.12 27.52 30.58 31.86 33.92 37.18 38.53 41.13 42.55 43.97 47.03 50.25 52.31" y="0">Locate close to client)</tspan>
</text>
</g>
</g>
<g style="clip-path:url(#m)">
<g style="clip-path:url(#n)">
<text style="font-size:6.14;font-family:Droid Sans" transform="matrix(1 0 0 -1 37.73 672.58)">
<tspan x="0 3.78 7.73" y="0">DNS</tspan>
</text>
</g>
<path d="m37.73 671.52h10.54v.38h-10.54z" style="fill-rule:evenodd"/>
</g>
<g style="clip-path:url(#o)">
<g style="clip-path:url(#p)">
<text style="font-size:6.14;font-family:Droid Sans" transform="matrix(1 0 0 -1 37.73 665.11)">
<tspan x="0 1.86 5.2 8.47 11.66 14.86" y="0">(Round</tspan>
</text>
</g>
<g style="clip-path:url(#q)">
<text style="font-size:6.14;font-family:Droid Sans" transform="matrix(1 0 0 -1 55.82 665.11)">
<tspan x="0" y="0">-</tspan>
</text>
</g>
<g style="clip-path:url(#r)">
<text style="font-size:6.14;font-family:Droid Sans" transform="matrix(1 0 0 -1 57.7 665.11)">
<tspan x="0 2.14 5.38 8.61 9.98 13.18 14.5 17.69 20.95 23.35 25.41 28.61 31.55 36.47" y="0">robin hostname</tspan>
</text>
</g>
</g>
<g style="clip-path:url(#s)">
<g style="clip-path:url(#t)">
<text style="font-size:6.14;font-family:Droid Sans" transform="matrix(1 0 0 -1 37.73 657.65)">
<tspan x="0 2.99 6.26 7.58 8.98 12.23 15.18 18.35 19.67 22.87 25.81 27.19 30.13 33.31 35.91 38.97 41.11 42.42 43.97 47.15" y="0">To load balancer IP)</tspan>
</text>
</g>
</g>
<g style="fill:none;stroke-width:.79;stroke-linecap:round;stroke-linejoin:round;stroke-miterlimit:10">
<path d="m48.34 699.82-.32-17.72" style="stroke:#c9f"/>
<path d="m50.81 687.46-2.78-5.33-2.59 5.42" style="stroke:#c9f"/>
<g style="stroke:#f0f">
<path d="m64.13 704.16h67.68v-21.05"/>
<path d="m134.5 688.51-2.69-5.4-2.71 5.4"/>
<path d="m69.5 701.47-5.4 2.69 5.4 2.69"/>
</g>
</g>
<g style="clip-path:url(#u)">
<g style="clip-path:url(#v)">
<text style="font-size:6.14;font-family:Droid Sans" transform="matrix(1 0 0 -1 151.06 730.58)">
<tspan x="0 2.58 5.85 8.79 11.97 13.29 16.63 19.56 20.95 23.89 27.07 29.67 32.73" y="0">Load Balancer</tspan>
</text>
</g>
<path d="m151.06 729.53h34.97v.38h-34.97z" style="fill-rule:evenodd"/>
</g>
<g style="clip-path:url(#w)">
<g style="clip-path:url(#x)">
<text style="font-size:6.14;font-family:Droid Sans" transform="matrix(1 0 0 -1 151.06 723.12)">
<tspan x="0 1.86 5.66 9.19 12.37 14.51 17.77 20.43 23.24" y="0">(HAProxy)</tspan>
</text>
</g>
</g>
<g style="fill:none;stroke-width:.79;stroke-linecap:round;stroke-linejoin:round;stroke-miterlimit:10">
<g style="stroke:#00f">
<path d="m199.7 735.53h1.52v-20.88h-51.05v1.46"/>
<path d="m202.7 732.5h1.52v-20.85h-51.05v1.44"/>
<path d="m64.13 726.53h82.68"/>
<path d="m141.43 729.19 5.4-2.69-5.4-2.68"/>
<path d="m69.5 723.84-5.4 2.69 5.4 2.69"/>
</g>
<path d="m320.23 760.1h1.11v-79.75h-92.12v1.47" style="stroke:#4bacc6"/>
</g>
<g style="clip-path:url(#y)">
<g style="clip-path:url(#z)">
<text style="font-size:6.14;font-family:Droid Sans" transform="matrix(1 0 0 -1 229.66 753.7)">
<tspan x="0 3.35 6.41 9.23 12.29 14.43 16.85 19.91 21.2 24.4 26.55 29.82 32.51" y="0">Reverse Proxy</tspan>
</text>
</g>
<path d="m229.66 752.62h35.26v.41h-35.26z" style="fill-rule:evenodd"/>
</g>
<g style="clip-path:url(#A)">
<g style="clip-path:url(#B)">
<text style="font-size:6.14;font-family:Droid Sans" transform="matrix(1 0 0 -1 229.66 738.74)">
<tspan x="0 1.86 5.35 8.29 10.43 13.66 15.07 17.49 20.72 22.25 23.59 26.41 29.61 32.83 34.25 37.47" y="0">(Varnish, Squid)</tspan>
</text>
</g>
</g>
<g style="clip-path:url(#C)">
<g style="clip-path:url(#D)">
<text style="font-size:6.14;font-family:Droid Sans" transform="matrix(1 0 0 -1 231.07 731.28)">
<tspan x="0" y="0">-</tspan>
</text>
</g>
<g style="clip-path:url(#E)">
<text style="font-size:6.14;font-family:Droid Sans" transform="matrix(1 0 0 -1 234.34 731.28)">
<tspan x="0 3.27 6.24 8.84 12.06 15.13 16.48 19.08 22.38 27.32 32.26 35.47 38.69 39.91 42.06 45.12 48.34 51.57 54.63 57.04 59.12" y="0">Cache common requests</tspan>
</text>
</g>
</g>
<g style="clip-path:url(#F)">
<g style="clip-path:url(#G)">
<text style="font-size:6.14;font-family:Droid Sans" transform="matrix(1 0 0 -1 231.07 723.82)">
<tspan x="0" y="0">-</tspan>
</text>
</g>
<g style="clip-path:url(#H)">
<text style="font-size:6.14;font-family:Droid Sans" transform="matrix(1 0 0 -1 234.34 723.82)">
<tspan x="0 3.27 6.57 7.98 9.39 12.34 15.56 17.98 21.04 22.33 24.2 27.48 29.63 34.02 36.98 39.12 42.35 43.76 46.96 49.86 51.19 53.05 56.01 58.9 61.77 63.91 66.97 69.86 72.81 74.89 77.95" y="0">Collapse forwarding (aggregates</tspan>
</text>
</g>
</g>
<g style="clip-path:url(#I)">
<g style="clip-path:url(#J)">
<text style="font-size:6.12;font-family:Droid Sans" transform="matrix(1 0 0 -1 229.66 716.35)">
<tspan x="0 1.54 4.76 7.82 11.03 13.12 14.52 17.14 20.09 21.49 22.85 24.98 28.19 29.61 32.22 33.62 36.92 39.33 42.4 43.67 45.08 48.29 49.71 51.79 53.2 58.15 61.21" y="0">Identical rq close in time)</tspan>
</text>
</g>
</g>
<g style="clip-path:url(#K)">
<g style="clip-path:url(#L)">
<text style="font-size:6.14;font-family:Droid Sans" transform="matrix(1 0 0 -1 231.07 708.86)">
<tspan x="0" y="0">-</tspan>
</text>
</g>
<g style="clip-path:url(#M)">
<text style="font-size:6.14;font-family:Droid Sans" transform="matrix(1 0 0 -1 234.34 708.86)">
<tspan x="0 2.82 6.02 8.96 11.05 12.47 15.41 16.82 18.18 21.12 24.02 26.89 29.04 32.1 34.99 37.93 40.02 41.43 44.72 47.94 49.27 51.14 53.75 57.03 61.97 65.2 66.61 69.84 72.9" y="0">Spatial aggregation (combines</tspan>
</text>
</g>
</g>
<g style="clip-path:url(#N)">
<g style="clip-path:url(#O)">
<text style="font-size:6.14;font-family:Droid Sans" transform="matrix(1 0 0 -1 229.66 701.4)">
<tspan x="0 3.35 6.58 7.97 10.93 13.53 16.16 19.44 21.58 24.81 26.22 29.42 32.32 33.65 35.73 39.01 40.29 41.7 44.99 47.59 50.55 51.96 53.37 55.46 58.26 59.54 60.95 64.17 65.57 69.38 72.73" y="0">Rq according to locality in DB)</tspan>
</text>
</g>
</g>
<path d="m323.5 757.08h1.12v-79.73h-92.08v1.47" style="fill:none;stroke:#4bacc6;stroke-width:.79;stroke-linecap:round;stroke-linejoin:round;stroke-miterlimit:10"/>
<g style="clip-path:url(#P)">
<g style="clip-path:url(#Q)">
<text style="font-size:6.14;font-family:Droid Sans" transform="matrix(1 0 0 -1 343.82 735.67)">
<tspan x="0 5.47 8.53 11.75 13.11 15.93 18.98 21.13 23.92 26.98" y="0">Web Server</tspan>
</text>
</g>
<path d="m343.82 734.59h29.11v.41h-29.11z" style="fill-rule:evenodd"/>
</g>
<g style="clip-path:url(#R)">
<g style="clip-path:url(#S)">
<text style="font-size:6.12;font-family:Droid Sans" transform="matrix(1 0 0 -1 343.82 728.18)">
<tspan x="0 4.08 6.21 8.82 12.03 15.1 17.49 19.58 21.71 24.66 26.74 28.15 31.44 34.65 35.92 38.53 41.48 44.28 47.34" y="0">Orchestration Layer</tspan>
</text>
</g>
</g>
<g style="fill:none;stroke-width:.79;stroke-linecap:round;stroke-linejoin:round;stroke-miterlimit:10">
<path d="m405.84 738.89h1.58v-39.58h-60.4v1.51" style="stroke:#f00"/>
<path d="m402.41 742.2h1.58v-39.53h-60.41v1.49" style="stroke:#f00"/>
<path d="m430.56 770.69h58.1v-58.42h-58.1z" style="stroke:#f60"/>
</g>
<g style="clip-path:url(#T)">
<g style="clip-path:url(#U)">
<text style="font-size:6.14;font-family:Droid Sans" transform="matrix(1 0 0 -1 432.96 762.82)">
<tspan x="0 3.53 6.75 9.96 11.35 12.75 15.35 18.29 20.35 21.76 25 28.23 29.57 32.91 35.84 38.44 41.26 44.32 47.54" y="0">Application Backend</tspan>
</text>
</g>
<path d="m432.96 761.76h50.74v.38h-50.74z" style="fill-rule:evenodd"/>
</g>
<g style="clip-path:url(#V)">
<g style="clip-path:url(#W)">
<text style="font-size:6.14;font-family:Droid Sans" transform="matrix(1 0 0 -1 442.97 748.46)">
<tspan x="0 2.82 5.88 8.02 10.82 12.23 14.84 17.9 19.19" y="0">Service 1</tspan>
</text>
</g>
</g>
<path d="m439.25 735.84h34.05v-15.36h-34.05z" style="fill:none;stroke:#f00;stroke-width:.79;stroke-linecap:round;stroke-linejoin:round;stroke-miterlimit:10"/>
<g style="clip-path:url(#X)">
<g style="clip-path:url(#Y)">
<text style="font-size:6.14;font-family:Droid Sans" transform="matrix(1 0 0 -1 444.31 726.17)">
<tspan x="0 2.82 5.88 8.02 10.82 12.21 14.81 17.87 19.15" y="0">Service 2</tspan>
</text>
</g>
</g>
<g style="fill:none;stroke-width:.79;stroke-linecap:round;stroke-linejoin:round;stroke-miterlimit:10">
<g style="stroke:#f00">
<path d="m474.62 733.25h1.37v-15.36h-34.05v1.49"/>
<path d="m473.3 755.54h1.35v-15.36h-34.06v1.49"/>
<path d="m437.14 684.72h34.05v-15.36h-34.05z"/>
</g>
<path d="m429.79 697.27h58.08v-40.73h-58.08z" style="stroke:#f60"/>
</g>
<g style="clip-path:url(#Z)">
<g style="clip-path:url(#aa)">
<text style="font-size:6.14;font-family:Droid Sans" transform="matrix(1 0 0 -1 432.19 689.4)">
<tspan x="0 3.53 6.72 9.92 11.31 12.71 15.3 18.22 20.28 21.69 24.93 28.13 29.45 32.8 35.72 38.32 41.12 44.18 47.4" y="0">Application Backend</tspan>
</text>
</g>
<path d="m432.19 688.34h50.74v.38h-50.74z" style="fill-rule:evenodd"/>
</g>
<g style="clip-path:url(#ab)">
<g style="clip-path:url(#ac)">
<text style="font-size:6.14;font-family:Droid Sans" transform="matrix(1 0 0 -1 442.2 675.05)">
<tspan x="0 2.82 5.88 8.02 10.82 12.21 14.81 17.9 19.17" y="0">Service 3</tspan>
</text>
</g>
</g>
<path d="m472.51 682.13h1.37v-15.36h-34.08v1.49" style="fill:none;stroke:#f00;stroke-width:.79;stroke-linecap:round;stroke-linejoin:round;stroke-miterlimit:10"/>
<path d="m475.2 679.2h1.34v-15.36h-34.05v1.46" style="fill:none;stroke:#f00;stroke-width:.79;stroke-linecap:round;stroke-linejoin:round;stroke-miterlimit:10"/>
<g style="clip-path:url(#ad)">
<g style="clip-path:url(#ae)">
<text style="font-size:6.14;font-family:Droid Sans" transform="matrix(1 0 0 -1 240.67 788.74)">
<tspan x="0 2.82 5.88 8.02 10.82 12.23 14.84 17.9 19.19 22.53 25.76" y="0">Service Bus</tspan>
</text>
</g>
<path d="m240.67 787.66h28.13v.41h-28.13z" style="fill-rule:evenodd"/>
</g>
<g style="clip-path:url(#af)">
<g style="clip-path:url(#ag)">
<text style="font-size:6.14;font-family:Droid Sans" transform="matrix(1 0 0 -1 376.7 592.49)">
<tspan x="0 3.78 5.19 7.59 9.65 11.8 13.18 16.37 19.57 21.63 24.69 27.91 29.15 32.42 35.34 37.94 41.12" y="0">Distributed Cache</tspan>
</text>
</g>
<path d="m376.7 591.43h44.33v.38h-44.33z" style="fill-rule:evenodd"/>
</g>
<g style="fill:none;stroke-width:.79;stroke-linecap:round;stroke-linejoin:round;stroke-miterlimit:10;stroke:#0f0">
<path d="m462.77 586.99h30.05v-18.36h-30.05z"/>
<path d="m423.77 586.61h30.05v-18.03h-30.05z"/>
<path d="m380.5 586.61h30.04v-18.03h-30.04z"/>
</g>
<g style="clip-path:url(#ah)">
<g style="clip-path:url(#ai)">
<text style="font-size:6.14;font-family:Droid Sans" transform="matrix(1 0 0 -1 384.7 576.48)">
<tspan x="0 2.82 6.02 8.96 11.11 14.33 15.73" y="0">Shard 1</tspan>
</text>
</g>
</g>
<g style="clip-path:url(#aj)">
<g style="clip-path:url(#ak)">
<text style="font-size:6.14;font-family:Droid Sans" transform="matrix(1 0 0 -1 427.78 577.13)">
<tspan x="0 2.82 6 8.95 11.07 14.26 15.65" y="0">Shard 2</tspan>
</text>
</g>
</g>
<g style="clip-path:url(#al)">
<g style="clip-path:url(#am)">
<text style="font-size:6.14;font-family:Droid Sans" transform="matrix(1 0 0 -1 466.82 577.46)">
<tspan x="0 2.82 6.02 8.96 11.08 14.31 15.7" y="0">Shard 3</tspan>
</text>
</g>
</g>
<g style="clip-path:url(#an)">
<g style="clip-path:url(#ao)">
<text style="font-size:6.14;font-family:Droid Sans" transform="matrix(1 0 0 -1 378.02 534.41)">
<tspan x="0 5.27 8.21 9.63 12.85 14.2 17.02 19.08 22.35 24.5 27.44 30.33" y="0">Main Storage</tspan>
</text>
</g>
<path d="m378.02 533.35h33.31v.38h-33.31z" style="fill-rule:evenodd"/>
</g>
<path d="m372.22 628.8h79.08v-19.42h-79.08z" style="fill:none;stroke:#0f0;stroke-width:.79;stroke-linecap:round;stroke-linejoin:round;stroke-miterlimit:10"/>
<g style="clip-path:url(#ap)">
<g style="clip-path:url(#aq)">
<text style="font-size:6.14;font-family:Droid Sans" transform="matrix(1 0 0 -1 375.55 620.52)">
<tspan x="0 3.53 6.72 9.92 11.31 12.71 15.3 18.22 20.28 21.69 24.93 28.13 29.45 34.39 37.34 40.51 43.46 46.3 49.35 52.56 53.88 55.43 58.61 61.81 64.87 67.53 70.61" y="0">Application managed Indexes</tspan>
</text>
</g>
<path d="m375.55 619.44h73.22v.41h-73.22z" style="fill-rule:evenodd"/>
</g>
<g style="clip-path:url(#ar)">
<g style="clip-path:url(#as)">
<text style="font-size:6.14;font-family:Droid Sans" transform="matrix(1 0 0 -1 375.55 613.03)">
<tspan x="0 1.86 3.41 6.6 7.99 10.59 13.51 16.11 19.29 22.35 23.69 26.94 29.09 30.39 35.33 38.28 39.65 42.85 44.17 46.57 48.63 51.89 54.04 56.95 59.81 62.87" y="0">(In cache or main storage)</tspan>
</text>
</g>
</g>
<g style="clip-path:url(#at)">
<g style="clip-path:url(#au)">
<text style="font-size:6.14;font-family:Droid Sans" transform="matrix(1 0 0 -1 520.75 759.7)">
<tspan x="0 4.13 7.36 10.43 13.66 16.72" y="0">Queues</tspan>
</text>
</g>
<path d="m520.75 758.64h19.1v.38h-19.1z" style="fill-rule:evenodd"/>
</g>
<g style="clip-path:url(#av)">
<g style="clip-path:url(#aw)">
<text style="font-size:6.14;font-family:Droid Sans" transform="matrix(1 0 0 -1 520.75 752.23)">
<tspan x="0 1.86 5.2 8.15 11.38 14.59 16 18.06 23.34 27.48 29.01 30.3 33.86 36.46 38.52 39.94 42.74 45.8 51.09 55.22" y="0">(RabbitMQ, ActiveMQ)</tspan>
</text>
</g>
</g>
<g style="clip-path:url(#ax)">
<g style="clip-path:url(#ay)">
<text style="font-size:6.12;font-family:Droid Sans" transform="matrix(1 0 0 -1 522.17 744.77)">
<tspan x="0" y="0">-</tspan>
</text>
</g>
<g style="clip-path:url(#az)">
<text style="font-size:6.12;font-family:Droid Sans" transform="matrix(1 0 0 -1 525.43 744.77)">
<tspan x="0 3.32 6.4 9.61 12.83 15.44 18.51 19.78 21.19 24.14 26.19 29.27 32.48 35.1 37.9 39.25 42.46 45.26" y="0">Reduce latency by </tspan>
</text>
</g>
<g style="clip-path:url(#aA)">
<text style="font-size:6.12;font-family:Droid Sans" transform="matrix(1 0 0 -1 520.75 737.28)">
<tspan x="0 1.41 4.62 6.69 8.83 12.08 15.29 18.51 21.12 22.53 25.74 28.62 29.98 32.92 35.31 38.12 41.33 43.95 47.16 49.3 52.56 55.77" y="0">introducing asynchrony</tspan>
</text>
</g>
</g>
<g style="clip-path:url(#aB)">
<g style="clip-path:url(#aC)">
<text style="font-size:6.14;font-family:Droid Sans" transform="matrix(1 0 0 -1 522.17 729.82)">
<tspan x="0" y="0">-</tspan>
</text>
</g>
<g style="clip-path:url(#aD)">
<text style="font-size:6.14;font-family:Droid Sans" transform="matrix(1 0 0 -1 525.43 729.82)">
<tspan x="0 3.88 7.08 10.02 12.17 15.11 18.33 20.39 23.45 26.54 29.76 31.02 34.25 37.31 38.72 40.13 42.94 46 48.14" y="0">Guaranteed delivery</tspan>
</text>
</g>
</g>
<g style="clip-path:url(#aE)">
<g style="clip-path:url(#aF)">
<text style="font-size:6.14;font-family:Droid Sans" transform="matrix(1 0 0 -1 522.17 722.35)">
<tspan x="0" y="0">-</tspan>
</text>
</g>
<g style="clip-path:url(#aG)">
<text style="font-size:6.14;font-family:Droid Sans" transform="matrix(1 0 0 -1 525.43 722.35)">
<tspan x="0 3.21 5.35 8.59 10.67 13.73 16.35 18.41 19.61 22.55 25.45 28.39 29.8 33.03 35.43 37.49 38.84 40.98 43.92 47.15 48.56" y="0">Protect against rapid</tspan>
</text>
</g>
</g>
<g style="clip-path:url(#aH)">
<g style="clip-path:url(#aI)">
<text style="font-size:6.14;font-family:Droid Sans" transform="matrix(1 0 0 -1 520.75 714.89)">
<tspan x="0 3.34 6.56 7.95 10.77 14.03 15.44 18.67 23.6 26.66 27.87 29.28 32.51 35.11 37.25 40.31 43.27 45.67" y="0">Rq volume increase</tspan>
</text>
</g>
</g>
<g style="clip-path:url(#aJ)">
<g style="clip-path:url(#aK)">
<text style="font-weight:bold;font-size:6.14;font-family:Droid Sans;fill:#953734" transform="matrix(1 0 0 -1 251.76 639.53)">
<tspan x="0" y="0">-</tspan>
</text>
</g>
<g style="clip-path:url(#aL)">
<text style="font-weight:bold;font-size:6.14;font-family:Droid Sans;fill:#953734" transform="matrix(1 0 0 -1 255.05 639.53)">
<tspan x="0 3.88 7.13 10.04 13.13 14.44 19.44 22.44 23.97 27.23 29.36 32.45 35.7 38.7 41.96 44.55 47.62 50.28 52.41 55.5 57.96 60.09 61.63 64.89 67.81 69.02 71.61 74.87 77.33 79.47" y="0">Huge maintenance/testing costs</tspan>
</text>
</g>
</g>
<g style="clip-path:url(#aM)">
<g style="clip-path:url(#aN)">
<text style="font-weight:bold;font-size:6.14;font-family:Droid Sans;fill:#953734" transform="matrix(1 0 0 -1 251.76 632.06)">
<tspan x="0" y="0">-</tspan>
</text>
</g>
<g style="clip-path:url(#aO)">
<text style="font-weight:bold;font-size:6.14;font-family:Droid Sans;fill:#953734" transform="matrix(1 0 0 -1 255.05 632.06)">
<tspan x="0 1.64 4.92 7.51 9.71 12.78 15.78 18.24 21.31 23.78 24.98 27.11 28.64 33.64 36.71 38.03 40.23 43.3 46.57 49.83 51.36 53.56 56.63 59.89 61.21 63.34 66.61 68 71.27 74.34 77.27 80.34 81.87 85.13" y="0">Increases time required to develop</tspan>
</text>
</g>
</g>
<g style="clip-path:url(#aP)">
<g style="clip-path:url(#aQ)">
<text style="font-weight:bold;font-size:6.14;font-family:Droid Sans;fill:#953734" transform="matrix(1 0 0 -1 250.37 624.6)">
<tspan x="0 4.07 7.15 11.75 13.07 14.99 18.06 21.06 23.19 26.46 28.66 31.73" y="0">New features</tspan>
</text>
</g>
</g>
<g style="clip-path:url(#aR)">
<g style="clip-path:url(#aS)">
<text style="font-weight:bold;font-size:6.14;font-family:Droid Sans;fill:#953734" transform="matrix(1 0 0 -1 251.76 617.14)">
<tspan x="0 3.06 6.14 7.46 11.19 14.12 17.38 18.91 22.17 23.45 26.71 29.97 31.5 34.57 37.04 39.5 40.82 44.08 47.16 49.35 51.27 52.66 55.93 59 62.07 65.34 68.41" y="0">=&gt; Avoid unless perf needed</tspan>
</text>
</g>
</g>
<g style="clip-path:url(#aT)">
<g style="clip-path:url(#aU)">
<text style="font-weight:bold;font-size:6.14;font-family:Droid Sans;fill:#953734" transform="matrix(1 0 0 -1 251.76 609.65)">
<tspan x="0 3.06 6.14 7.46 10.73 12.93 16 17.92 20.99 23.19 24.51 27.51 28.9 32.16 35.16 37.29 40.3 41.69 44.16 46.29 49.56 51.76 54.83 57.49 60.08 63.07 65.66 68.92 72 73.27 77.87 79.4 81.53" y="0">=&gt; Prefer a data store/cache with</tspan>
</text>
</g>
</g>
<g style="clip-path:url(#aV)">
<g style="clip-path:url(#aW)">
<text style="font-weight:bold;font-size:6.14;font-family:Droid Sans;fill:#953734" transform="matrix(1 0 0 -1 250.37 602.18)">
<tspan x="0 1.64 4.92 8.18 11.26 14.08 17.14 19.6 20.99 22.52 25.79 27.92 31.01 33.92 36.13 39.12 41.26 44.35" y="0">Indexes integrated</tspan>
</text>
</g>
</g>
<path d="m320.42 540.77-.28-1.97-.77-1.9-1.32-1.87-1.78-1.75-2.21-1.63-2.68-1.51-3.05-1.32-3.43-1.16-3.68-.93-3.88-.72-4.06-.48-4.15-.24h-4.2l-4.15.24-4.06.48-3.89.72-3.67.93-3.41 1.16-3.07 1.32-2.66 1.51-2.21 1.63-1.78 1.75-1.32 1.87-.79 1.9-.29 1.97.29 1.94.79 1.9 1.32 1.87 1.78 1.75 2.21 1.63 2.66 1.52 3.07 1.32 3.41 1.15 3.67.96 3.89.69 4.06.51 4.15.24h4.2l4.15-.24 4.06-.51 3.88-.69 3.68-.96 3.43-1.15 3.05-1.32 2.68-1.52 2.21-1.63 1.78-1.75 1.32-1.87.77-1.9z" style="fill:none;stroke:#177d36;stroke-width:.79;stroke-linecap:round;stroke-linejoin:round;stroke-miterlimit:10"/>
<g style="clip-path:url(#aX)">
<g style="clip-path:url(#aY)">
<text style="font-size:6.14;font-family:Droid Sans" transform="matrix(1 0 0 -1 262.06 539.06)">
<tspan x="0 4.07 6.13 9.31 12.37 14.52 15.85 19.04 21.98 24.04 26.96 28.28 30.88 33.94 37.13 39.19 42.25 44.4" y="0">Other data centers</tspan>
</text>
</g>
<path d="m262.06 538.01h46.92v.38h-46.92z" style="fill-rule:evenodd"/>
</g>
<g style="fill:none;stroke-width:.79;stroke-linecap:round;stroke-linejoin:round;stroke-miterlimit:10">
<g style="stroke:#00f">
<path d="m204.91 729.84 21.29 16.37"/>
<path d="m220.3 745.06 5.9 1.15-2.62-5.43"/>
<path d="m210.82 730.99-5.91-1.15 2.62 5.42"/>
<path d="m204.58 719.5 21.69-12.68"/>
<path d="m222.98 711.86 3.32-5.06-6.03.41"/>
<path d="m207.86 714.48-3.28 5.02 6-.39"/>
</g>
<g style="stroke:#ed1c24">
<path d="m368.81 745.51 17.01 40.08"/>
<path d="m381.24 781.68 4.58 3.91.36-6.02"/>
<path d="m393.53 785.26 43.63-100.54"/>
<path d="m437.47 690.74-.31-6.02-4.63 3.86"/>
<path d="m398.86 785.59 39.07-35.11"/>
<path d="m435.72 756.05 2.21-5.62-5.81 1.61"/>
</g>
<g style="stroke:#0cf">
<path d="m289.01 763.22 15.05 22.37"/>
<path d="m298.82 782.62 5.24 2.97-.8-5.97"/>
<path d="m311.4 785.59 29.38-40.39"/>
<path d="m339.79 751.13.99-5.93-5.36 2.76"/>
</g>
<g style="stroke:#0f0">
<path d="m436.15 604.01 26.62-16.99"/>
<path d="m459.7 592.18 3.07-5.16-6 .62"/>
<path d="m437.26 568.63-.03-25.68"/>
<path d="m439.94 548.33-2.68-5.38-2.72 5.38"/>
<path d="m434.57 563.26 2.69 5.35 2.68-5.35"/>
</g>
</g>
<g style="clip-path:url(#aZ)">
<g style="clip-path:url(#a0)">
<text style="font-size:6.14;font-family:Droid Sans" transform="matrix(1 0 0 -1 383.23 554.76)">
<tspan x="0 3.53 6.72 8.78 12.04 16.95 19.89 21.95 23.35 25.95 27.19 29.79 32.7 35.3 38.49 41.55 42.81 47.71 49.13 51.53" y="0">Automatic cache miss</tspan>
</text>
</g>
</g>
<g style="clip-path:url(#a1)">
<g style="clip-path:url(#a2)">
<text style="font-size:6.14;font-family:Droid Sans" transform="matrix(1 0 0 -1 383.23 547.3)">
<tspan x="0 4.91 7.85 11.04 13.98 16.82 19.88 24.81 27.87 31.08" y="0">management</tspan>
</text>
</g>
</g>
<g style="fill:none;stroke-width:.79;stroke-linecap:round;stroke-linejoin:round;stroke-miterlimit:10;stroke:#177d36">
<path d="m320.42 540.77 53.88-8.67"/>
<path d="m369.43 535.61 4.87-3.51-5.73-1.82"/>
<path d="m325.32 537.24-4.9 3.53 5.74 1.8"/>
</g>
<g style="clip-path:url(#a3)">
<g style="clip-path:url(#a4)">
<text style="font-size:6.14;font-family:Droid Sans" transform="matrix(1 0 0 -1 330.48 539.4)">
<tspan x="0 3.21 4.55 7.78 10.7 12.75 15.7 17.09 19.69 22.75 25.97 28.03 31.09" y="0">X data center</tspan>
</text>
</g>
</g>
<g style="clip-path:url(#a5)">
<g style="clip-path:url(#a6)">
<text style="font-size:6.14;font-family:Droid Sans" transform="matrix(1 0 0 -1 330.48 531.94)">
<tspan x="0 2.14 5.2 8.43 9.82 11.21 13.81 16.73 18.79 20.2 23.44" y="0">replication</tspan>
</text>
</g>
</g>
<g style="fill:none;stroke-width:.79;stroke-linecap:round;stroke-linejoin:round;stroke-miterlimit:10;stroke:#e36c09">
<path d="m488.02 661.75h24.67v-118.8"/>
<path d="m515.38 548.33-2.69-5.38-2.71 5.38"/>
<path d="m512.38 577.63-19.56.17"/>
<path d="m498.19 575.09-5.37 2.71 5.4 2.69"/>
</g>
<g style="clip-path:url(#a7)">
<g style="clip-path:url(#a8)">
<text style="font-size:6.14;font-family:Droid Sans" transform="matrix(1 0 0 -1 484.03 644.54)">
<tspan x="0 3.56 6.78 9.98 11.4 12.81 15.43 18.37 20.43 21.84 25.12 28.34 29.68 32.9 35.84 39.07 42.28 43.69 46.75" y="0">Application handles</tspan>
</text>
</g>
</g>
<g style="clip-path:url(#a9)">
<g style="clip-path:url(#ba)">
<text style="font-size:6.14;font-family:Droid Sans" transform="matrix(1 0 0 -1 484.03 637.08)">
<tspan x="0 3.81 6.75 8.81 11.77 13.12 14.53 17.76 19.16 21.76 24.72 27.32 30.54 33.61" y="0">Data in caches</tspan>
</text>
</g>
</g>
<g style="fill:none;stroke-width:.79;stroke-linecap:round;stroke-linejoin:round;stroke-miterlimit:10">
<path d="m372.22 621.72-36.8 7.32" style="stroke:#800000"/>
<path d="m513 632.02-174.89 9.69" style="stroke:#800000"/>
<g style="stroke:#808000">
<path d="m474.62 746.88 26.07 38.69"/>
<path d="m500.69 785.57 15.53-17.76"/>
<path d="m514.68 773.66 1.51-5.85-5.54 2.28"/>
<path d="m516.22 746.88-21.56 39.02"/>
<path d="m494.66 785.9-19.36-53.73"/>
<path d="m479.66 736.32-4.36-4.15-.72 6"/>
</g>
</g>
</g>
</svg>
