<svg height="161.98" viewBox="0 0 379.2 161.98" width="379.2" xml:space="preserve" xmlns="http://www.w3.org/2000/svg" xmlns:xlink="http://www.w3.org/1999/xlink"><clipPath id="a"><path d="m316.44 752.45h45.65v7.61h-45.65z" style="clip-rule:evenodd"/></clipPath><clipPath id="b"><path d="m316.44 752.52h45.65v7.54h-45.65z" style="clip-rule:evenodd"/></clipPath><clipPath id="c"><path d="m397.68 755.81h39.53v7.61h-39.53z" style="clip-rule:evenodd"/></clipPath><clipPath id="d"><path d="m397.68 755.88h39.53v7.54h-39.53z" style="clip-rule:evenodd"/></clipPath><clipPath id="e"><path d="m397.68 748.25h45.98v7.63h-45.98z" style="clip-rule:evenodd"/></clipPath><clipPath id="f"><path d="m397.68 748.32h45.98v7.56h-45.98z" style="clip-rule:evenodd"/></clipPath><clipPath id="g"><path d="m397.68 748.32h45.98v7.56h-45.98z" style="clip-rule:evenodd"/></clipPath><clipPath id="h"><path d="m451.63 756.14h39.1v7.61h-39.1z" style="clip-rule:evenodd"/></clipPath><clipPath id="i"><path d="m451.63 756.22h39.1v7.54h-39.1z" style="clip-rule:evenodd"/></clipPath><clipPath id="j"><path d="m451.63 748.58h45.72v7.63h-45.72z" style="clip-rule:evenodd"/></clipPath><clipPath id="k"><path d="m451.63 748.66h45.72v7.56h-45.72z" style="clip-rule:evenodd"/></clipPath><clipPath id="l"><path d="m451.63 748.66h45.72v7.56h-45.72z" style="clip-rule:evenodd"/></clipPath><clipPath id="m"><path d="m497.14 756.48h52.46v7.61h-52.46z" style="clip-rule:evenodd"/></clipPath><clipPath id="n"><path d="m497.14 756.55h52.46v7.54h-52.46z" style="clip-rule:evenodd"/></clipPath><clipPath id="o"><path d="m497.14 748.92h45.53v7.63h-45.53z" style="clip-rule:evenodd"/></clipPath><clipPath id="p"><path d="m497.14 748.99h45.53v7.56h-45.53z" style="clip-rule:evenodd"/></clipPath><clipPath id="q"><path d="m497.14 748.99h45.53v7.56h-45.53z" style="clip-rule:evenodd"/></clipPath><clipPath id="r"><path d="m349.82 727.15h42.6v7.61h-42.6z" style="clip-rule:evenodd"/></clipPath><clipPath id="s"><path d="m349.82 727.22h42.6v7.54h-42.6z" style="clip-rule:evenodd"/></clipPath><clipPath id="t"><path d="m349.82 719.59h71.06v7.63h-71.06z" style="clip-rule:evenodd"/></clipPath><clipPath id="u"><path d="m349.82 719.66h71.06v7.56h-71.06z" style="clip-rule:evenodd"/></clipPath><clipPath id="v"><path d="m349.82 712.06h49.27v7.63h-49.27z" style="clip-rule:evenodd"/></clipPath><clipPath id="w"><path d="m349.82 712.13h49.27v7.56h-49.27z" style="clip-rule:evenodd"/></clipPath><clipPath id="x"><path d="m339.7 686.69h56.78v7.63h-56.78z" style="clip-rule:evenodd"/></clipPath><clipPath id="y"><path d="m339.7 686.76h56.78v7.56h-56.78z" style="clip-rule:evenodd"/></clipPath><clipPath id="z"><path d="m466.06 678.94h48.1v7.63h-48.1z" style="clip-rule:evenodd"/></clipPath><clipPath id="A"><path d="m466.06 679.01h48.1v7.56h-48.1z" style="clip-rule:evenodd"/></clipPath><clipPath id="B"><path d="m347.45 660.41h64.01v7.61h-64.01z" style="clip-rule:evenodd"/></clipPath><clipPath id="C"><path d="m347.45 660.48h64.01v7.54h-64.01z" style="clip-rule:evenodd"/></clipPath><clipPath id="D"><path d="m347.45 660.48h64.01v7.54h-64.01z" style="clip-rule:evenodd"/></clipPath><clipPath id="E"><path d="m347.45 660.48h64.01v7.54h-64.01z" style="clip-rule:evenodd"/></clipPath><clipPath id="F"><path d="m347.45 660.48h64.01v7.54h-64.01z" style="clip-rule:evenodd"/></clipPath><clipPath id="G"><path d="m347.45 652.85h64.06v7.63h-64.06z" style="clip-rule:evenodd"/></clipPath><clipPath id="H"><path d="m347.45 652.92h64.06v7.56h-64.06z" style="clip-rule:evenodd"/></clipPath><clipPath id="I"><path d="m347.45 652.92h64.06v7.56h-64.06z" style="clip-rule:evenodd"/></clipPath><clipPath id="J"><path d="m347.45 652.92h64.06v7.56h-64.06z" style="clip-rule:evenodd"/></clipPath><clipPath id="K"><path d="m347.45 645.31h54.02v7.63h-54.02z" style="clip-rule:evenodd"/></clipPath><clipPath id="L"><path d="m347.45 645.38h54.02v7.56h-54.02z" style="clip-rule:evenodd"/></clipPath><clipPath id="M"><path d="m355.2 741.79h46.87v7.61h-46.87z" style="clip-rule:evenodd"/></clipPath><clipPath id="N"><path d="m355.2 741.86h46.87v7.54h-46.87z" style="clip-rule:evenodd"/></clipPath><clipPath id="O"><path d="m410.83 701.33h49.15v7.63h-49.15z" style="clip-rule:evenodd"/></clipPath><clipPath id="P"><path d="m410.83 701.4h49.15v7.56h-49.15z" style="clip-rule:evenodd"/></clipPath><clipPath id="Q"><path d="m411.84 674.23h45.31v7.61h-45.31z" style="clip-rule:evenodd"/></clipPath><clipPath id="R"><path d="m411.84 674.3h45.31v7.54h-45.31z" style="clip-rule:evenodd"/></clipPath><clipPath id="S"><path d="m349.82 636.12h50.57v7.63h-50.57z" style="clip-rule:evenodd"/></clipPath><clipPath id="T"><path d="m349.82 636.19h50.57v7.56h-50.57z" style="clip-rule:evenodd"/></clipPath><clipPath id="U"><path d="m465.79 690.41h46.92v7.61h-46.92z" style="clip-rule:evenodd"/></clipPath><clipPath id="V"><path d="m465.79 690.48h46.92v7.54h-46.92z" style="clip-rule:evenodd"/></clipPath><g transform="matrix(1.25 0 0 -1.25 -341.24 957.39)"><g style="fill:none;stroke-linecap:round;stroke-linejoin:round;stroke-miterlimit:10"><g style="stroke:#3165bb"><g style="stroke-width:.79"><path d="m313.39 765.17h39.77v-17.33h-39.77z"/><path d="m391.3 764.86h39.79v-17.31h-39.79z"/><path d="m444.22 765.19h39.79v-17.3h-39.79z"/></g><path d="m496.15 765.5h39.79v-17.28h-39.79z" style="stroke-width:.82"/><path d="m332.45 747.84-.77-108.74" style="stroke-width:.79"/></g><path d="m342.48 712.22h48.26l12.08 22.95h-48.27z" style="stroke:#008000;stroke-width:.79"/></g><g style="clip-path:url(#a)"><g style="clip-path:url(#b)"><text style="font-size:6.19;font-family:Droid Sans" transform="matrix(1 0 0 -1 320.62 754.13)"><tspan x="0 3.37 5.53 8.85 13.31 15.73 18.81" y="0">Browser</tspan></text></g></g><g style="clip-path:url(#c)"><g style="clip-path:url(#d)"><text style="font-size:6.19;font-family:Droid Sans" transform="matrix(1 0 0 -1 401.88 757.49)"><tspan x="0 3.86 6.87 12.19" y="0">HTML</tspan></text></g></g><g style="clip-path:url(#e)"><g style="clip-path:url(#f)"><text style="font-size:6.22;font-family:Droid Sans" transform="matrix(1 0 0 -1 401.88 749.95)"><tspan x="0 2.83 5.93 8.07 10.9 13.99 16.13" y="0">Server </tspan></text></g><g style="clip-path:url(#g)"><text style="font-weight:bold;font-size:6.22;font-family:Droid Sans" transform="matrix(1 0 0 -1 419.33 749.95)"><tspan x="0" y="0">A</tspan></text></g></g><g style="clip-path:url(#h)"><g style="clip-path:url(#i)"><text style="font-size:6.19;font-family:Droid Sans" transform="matrix(1 0 0 -1 455.81 757.82)"><tspan x="0 2.84 5.46 7.62 9.05 12.3" y="0">Script</tspan></text></g></g><g style="clip-path:url(#j)"><g style="clip-path:url(#k)"><text style="font-size:6.22;font-family:Droid Sans" transform="matrix(1 0 0 -1 455.81 750.29)"><tspan x="0 2.83 5.93 8.1 10.91 14 16.17" y="0">Server </tspan></text></g><g style="clip-path:url(#l)"><text style="font-weight:bold;font-size:6.22;font-family:Droid Sans" transform="matrix(1 0 0 -1 473.28 750.29)"><tspan x="0" y="0">B</tspan></text></g></g><g style="clip-path:url(#m)"><g style="clip-path:url(#n)"><text style="font-size:6.19;font-family:Droid Sans" transform="matrix(1 0 0 -1 501.34 758.16)"><tspan x="0 3.02 6.24 7.63 9.77 12.98 14.38 17.59 20.56 22.68 24.76" y="0">Third party</tspan></text></g></g><g style="clip-path:url(#o)"><g style="clip-path:url(#p)"><text style="font-size:6.22;font-family:Droid Sans" transform="matrix(1 0 0 -1 501.34 750.62)"><tspan x="0 2.81 5.91 8.04 10.85 13.95 16.08" y="0">Server </tspan></text></g><g style="clip-path:url(#q)"><text style="font-weight:bold;font-size:6.22;font-family:Droid Sans" transform="matrix(1 0 0 -1 518.78 750.62)"><tspan x="0" y="0">C</tspan></text></g></g><g style="clip-path:url(#r)"><g style="clip-path:url(#s)"><text style="font-size:6.19;font-family:Droid Sans" transform="matrix(1 0 0 -1 354 728.83)"><tspan x="0 3.08 6.33 8.41 13.41 14.84" y="0">&lt;html&gt;</tspan></text></g></g><g style="clip-path:url(#t)"><g style="clip-path:url(#u)"><text style="font-size:6.22;font-family:Droid Sans" transform="matrix(1 0 0 -1 354 721.3)"><tspan x="0 3.1 5.53 8.14 10.31 11.71 14.95 17.03 18.38 20.81 22.98 25.58 28.67 31.17 34.39 37.64 40.87 43.36" y="0">&lt;script src="XXX"&gt;</tspan></text></g></g><g style="clip-path:url(#v)"><g style="clip-path:url(#w)"><text style="font-size:6.22;font-family:Droid Sans" transform="matrix(1 0 0 -1 354 713.74)"><tspan x="0 3.23 6.18 9 10.43 13.71 16.68 19.91 21.45 22.98" y="0">Payload...</tspan></text></g></g><path d="m334.85 684.5h48.29l12.07 12.48h-48.29z" style="fill:none;stroke:#008000;stroke-width:.79;stroke-linecap:round;stroke-linejoin:round;stroke-miterlimit:10"/><g style="clip-path:url(#x)"><g style="clip-path:url(#y)"><text style="font-size:6.22;font-family:Droid Sans" transform="matrix(1 0 0 -1 343.87 688.39)"><tspan x="0 4.31 5.68 8.91 12.78 16.16 17.54 20.16 23.14 24.57 26 27.41 28.97 30.52" y="0">… XHR call ...</tspan></text></g></g><g style="clip-path:url(#z)"><g style="clip-path:url(#A)"><text style="font-size:6.22;font-family:Droid Sans" transform="matrix(1 0 0 -1 470.26 680.64)"><tspan x="0 4.11 6.27 7.7 10.56 11.99 15.19 16.6 18.28 19.62" y="0">Origin : A</tspan></text></g></g><g style="clip-path:url(#B)"><g style="clip-path:url(#C)"><text style="font-size:6.19;font-family:Droid Sans" transform="matrix(1 0 0 -1 351.65 662.09)"><tspan x="0 3.55 6.17 8.79 11.88 14.3" y="0">Access</tspan></text></g><g style="clip-path:url(#D)"><text style="font-size:6.19;font-family:Droid Sans" transform="matrix(1 0 0 -1 368.42 662.09)"><tspan x="0" y="0">-</tspan></text></g><g style="clip-path:url(#E)"><text style="font-size:6.19;font-family:Droid Sans" transform="matrix(1 0 0 -1 370.32 662.09)"><tspan x="0 3.3 6.56 9.79 11.86 14.02 17.29" y="0">Control</tspan></text></g><g style="clip-path:url(#F)"><text style="font-size:6.19;font-family:Droid Sans" transform="matrix(1 0 0 -1 389.14 662.09)"><tspan x="0" y="0">-</tspan></text></g></g><g style="clip-path:url(#G)"><g style="clip-path:url(#H)"><text style="font-size:6.22;font-family:Droid Sans" transform="matrix(1 0 0 -1 351.65 654.55)"><tspan x="0 3.55 4.94 6.33 9.61" y="0">Allow</tspan></text></g><g style="clip-path:url(#I)"><text style="font-size:6.22;font-family:Droid Sans" transform="matrix(1 0 0 -1 365.78 654.55)"><tspan x="0" y="0">-</tspan></text></g><g style="clip-path:url(#J)"><text style="font-size:6.22;font-family:Droid Sans" transform="matrix(1 0 0 -1 367.68 654.55)"><tspan x="0 4.11 6.24 7.63 10.51 11.9 15.12 16.46 18.13 19.48" y="0">Origin : A</tspan></text></g></g><g style="clip-path:url(#K)"><g style="clip-path:url(#L)"><text style="font-size:6.22;font-family:Droid Sans" transform="matrix(1 0 0 -1 351.65 646.99)"><tspan x="0 1.54 3.07 4.61 7.82 10.77 13.59 14.97 18.25 21.23 24.43 25.96 27.5" y="0">...Payload...</tspan></text></g></g><g style="fill:none;stroke-linecap:round;stroke-linejoin:round;stroke-miterlimit:10"><path d="m454.78 676.61h48.24l12.09 12.48h-48.29z" style="stroke:#f90;stroke-width:.82"/><path d="m339.58 645.07h48.28l12.05 22.92h-48.26z" style="stroke:#008000;stroke-width:.79"/><g style="stroke:#3165bb"><path d="m412.42 747.24-.77-108.77" style="stroke-width:.79"/><path d="m463.99 747.55-.77-108.74" style="stroke-width:.79"/><path d="m516.41 748.22-.79-108.76" style="stroke-width:.82"/><g style="stroke-width:.79"><path d="m332.71 741.22 80.93-.34"/><path d="m408.19 743.69 5.45-2.74-5.45-2.69"/><path d="m338.11 738.55-5.4 2.71 5.45 2.72"/><path d="m332.35 701.11 131.5-.33"/><path d="m458.42 703.51 5.43-2.71-5.43-2.74"/><path d="m337.8 698.38-5.45 2.73 5.45 2.69"/></g><path d="m332.38 673.13 185.11.33" style="stroke-width:.82"/><path d="m512.04 676.22 5.45-2.71-5.45-2.73" style="stroke-width:.82"/><path d="m337.82 670.46-5.42 2.69 5.42 2.74" style="stroke-width:.79"/></g></g><g style="clip-path:url(#M)"><g style="clip-path:url(#N)"><text style="font-size:6.19;font-family:Droid Sans" transform="matrix(1 0 0 -1 359.4 743.47)"><tspan x="0 3.91 6.99 9.09 10.43 13.65 15.72 20.7" y="0">Get html</tspan></text></g></g><g style="clip-path:url(#O)"><g style="clip-path:url(#P)"><text style="font-size:6.22;font-family:Droid Sans" transform="matrix(1 0 0 -1 415.01 703.01)"><tspan x="0 3.92 7.02 9.11 10.48 12.91 15.56 17.73 19.14 22.38" y="0">Get script</tspan></text></g></g><g style="clip-path:url(#Q)"><g style="clip-path:url(#R)"><text style="font-size:6.19;font-family:Droid Sans" transform="matrix(1 0 0 -1 416.04 675.91)"><tspan x="0 3.55 5.03 7.97 10.65 12 14.62 17.59 18.96" y="0">Ajax call</tspan></text></g></g><g style="clip-path:url(#S)"><g style="clip-path:url(#T)"><text style="font-weight:bold;font-size:6.22;font-family:Droid Sans;fill:#76923c" transform="matrix(1 0 0 -1 354 637.82)"><tspan x="0 2.23 5.32 7.8 11.11 14.4 17.68 20.16 23.29" y="0">responses</tspan></text></g></g><g style="clip-path:url(#U)"><g style="clip-path:url(#V)"><text style="font-weight:bold;font-size:6.19;font-family:Droid Sans;fill:#f79646" transform="matrix(1 0 0 -1 469.97 692.09)"><tspan x="0 2.22 5.32 8.64 11.94 15.04 17.53 19.68" y="0">requests</tspan></text></g></g></g></svg>