<svg height="168.25" viewBox="0 0 424.69 168.25" width="424.69" xml:space="preserve" xmlns="http://www.w3.org/2000/svg" xmlns:xlink="http://www.w3.org/1999/xlink"><clipPath id="a"><path d="m390.67 510.82h72.7v7.63h-72.7z" style="clip-rule:evenodd"/></clipPath><clipPath id="b"><path d="m390.67 510.89h72.7v7.56h-72.7z" style="clip-rule:evenodd"/></clipPath><clipPath id="c"><path d="m337.06 483.86h37.85v7.61h-37.85z" style="clip-rule:evenodd"/></clipPath><clipPath id="d"><path d="m337.06 483.94h37.82v7.54h-37.82z" style="clip-rule:evenodd"/></clipPath><clipPath id="e"><path d="m337.06 476.3h40.87v7.63h-40.87z" style="clip-rule:evenodd"/></clipPath><clipPath id="f"><path d="m337.06 476.38h40.87v7.56h-40.87z" style="clip-rule:evenodd"/></clipPath><clipPath id="g"><path d="m396.41 488.57h38.57v7.63h-38.57z" style="clip-rule:evenodd"/></clipPath><clipPath id="h"><path d="m396.41 488.64h38.57v7.56h-38.57z" style="clip-rule:evenodd"/></clipPath><clipPath id="i"><path d="m433.49 479.81h49.42v7.63h-49.42z" style="clip-rule:evenodd"/></clipPath><clipPath id="j"><path d="m433.49 479.88h49.42v7.56h-49.42z" style="clip-rule:evenodd"/></clipPath><clipPath id="k"><path d="m433.49 479.88h49.42v7.56h-49.42z" style="clip-rule:evenodd"/></clipPath><clipPath id="l"><path d="m433.49 479.88h49.42v7.56h-49.42z" style="clip-rule:evenodd"/></clipPath><clipPath id="m"><path d="m433.49 464.74h41.93v7.61h-41.93z" style="clip-rule:evenodd"/></clipPath><clipPath id="n"><path d="m433.49 464.78h41.93v7.56h-41.93z" style="clip-rule:evenodd"/></clipPath><clipPath id="o"><path d="m454.39 503.76h52.46v7.61h-52.46z" style="clip-rule:evenodd"/></clipPath><clipPath id="p"><path d="m454.39 503.81h52.46v7.56h-52.46z" style="clip-rule:evenodd"/></clipPath><clipPath id="q"><path d="m433.49 443.4h79.7v7.63h-79.7z" style="clip-rule:evenodd"/></clipPath><clipPath id="r"><path d="m433.49 443.47h79.7v7.56h-79.7z" style="clip-rule:evenodd"/></clipPath><clipPath id="s"><path d="m538.01 409.37h57.58v7.61h-57.58z" style="clip-rule:evenodd"/></clipPath><clipPath id="t"><path d="m538.01 409.44h57.58v7.54h-57.58z" style="clip-rule:evenodd"/></clipPath><clipPath id="u"><path d="m538.01 401.81h57.58v7.63h-57.58z" style="clip-rule:evenodd"/></clipPath><clipPath id="v"><path d="m538.01 401.88h57.58v7.56h-57.58z" style="clip-rule:evenodd"/></clipPath><clipPath id="w"><path d="m538.01 394.27h45.84v7.61h-45.84z" style="clip-rule:evenodd"/></clipPath><clipPath id="x"><path d="m538.01 394.34h45.84v7.54h-45.84z" style="clip-rule:evenodd"/></clipPath><clipPath id="y"><path d="m442.25 401.62h48.29v7.61h-48.29z" style="clip-rule:evenodd"/></clipPath><clipPath id="z"><path d="m442.25 401.69h48.29v7.54h-48.29z" style="clip-rule:evenodd"/></clipPath><clipPath id="A"><path d="m498.22 478.46h68.11v7.63h-68.11z" style="clip-rule:evenodd"/></clipPath><clipPath id="B"><path d="m498.22 478.54h68.11v7.56h-68.11z" style="clip-rule:evenodd"/></clipPath><clipPath id="C"><path d="m498.22 470.93h88.87v7.61h-88.87z" style="clip-rule:evenodd"/></clipPath><clipPath id="D"><path d="m498.22 471h88.87v7.54h-88.87z" style="clip-rule:evenodd"/></clipPath><g transform="matrix(1.25 0 0 -1.25 -367.12 652.84)"><g style="fill:none;stroke-linecap:round;stroke-linejoin:round;stroke-miterlimit:10"><g style="stroke:#f90"><path d="m471.38 419.74 26.6 48.86" style="stroke-width:.82"/><path d="m492.98 465.12 5 3.48-.22-6.1" style="stroke-width:.82"/><path d="m476.38 423.22-5-3.48.22 6.09" style="stroke-width:.79"/></g><path d="m334.1 513.79h30.34v-61.01h-30.34z" style="stroke:#a5a5a5;stroke-width:.79"/><path d="m391.1 521.86h130.35v-85.11h-130.35z" style="stroke:#f00;stroke-width:.82"/><path d="m396.14 504.7h23.93v-63.05h-23.93z" style="stroke:#f90;stroke-width:.79"/><path d="m497.98 488.83h70.77v-20.23h-70.77z" style="stroke:#008000;stroke-width:.82"/><path d="m496.63 405.22-.29-1.9-.84-1.87-1.39-1.83-1.89-1.7-2.36-1.58-2.83-1.52-3.21-1.29-3.63-1.11-3.91-.93-4.13-.72-4.29-.43-4.4-.24h-4.46l-4.42.24-4.29.43-4.11.72-3.88.93-3.65 1.11-3.24 1.29-2.86 1.52-2.33 1.58-1.89 1.7-1.42 1.83-.79 1.87-.31 1.9.31 1.92.79 1.84 1.42 1.83 1.89 1.73 2.33 1.6 2.86 1.47 3.24 1.29 3.65 1.11 3.88.93 4.11.7 4.29.48 4.42.24h4.46l4.4-.24 4.29-.48 4.13-.7 3.91-.93 3.63-1.11 3.21-1.29 2.83-1.47 2.36-1.6 1.89-1.73 1.39-1.83.84-1.84z" style="stroke:#a5a5a5;stroke-width:.82"/><g style="stroke:#f90"><path d="m433.01 455.04h83.59v-15.41h-83.59z" style="stroke-width:.82"/><path d="m433.49 492.14h41.11v-32.37h-41.11z" style="stroke-width:.79"/><path d="m452.45 515.88h58.99v-16.9h-58.99z" style="stroke-width:.82"/></g></g><g style="clip-path:url(#a)"><g style="clip-path:url(#b)"><text style="font-weight:bold;font-size:6.22;font-family:Droid Sans" transform="matrix(1 0 0 -1 394.85 512.52)"><tspan x="0 3.92 5.51 8.53 11.85 14.82 18.13 19.47 21.44 23.67 26.69 31.75 34.85 39.5 42.82 45.04" y="0">Django framework</tspan></text></g></g><g style="clip-path:url(#c)"><g style="clip-path:url(#d)"><text style="font-size:6.19;font-family:Droid Sans" transform="matrix(1 0 0 -1 341.26 485.54)"><tspan x="0 3.86 6.87 9.89" y="0">HTTP</tspan></text></g></g><g style="clip-path:url(#e)"><g style="clip-path:url(#f)"><text style="font-size:6.22;font-family:Droid Sans" transform="matrix(1 0 0 -1 341.26 478.01)"><tspan x="0 2.83 5.93 8.07 10.9 13.99" y="0">Server</tspan></text></g></g><g style="clip-path:url(#g)"><g style="clip-path:url(#h)"><text style="font-size:6.22;font-family:Droid Sans" transform="matrix(1 0 0 -1 400.58 490.27)"><tspan x="0 5.52 8.36 12.27" y="0">WSGI</tspan></text></g></g><g style="clip-path:url(#i)"><g style="clip-path:url(#j)"><text style="font-size:6.22;font-family:Droid Sans" transform="matrix(1 0 0 -1 437.66 481.51)"><tspan x="0 3.99 7.37 10" y="0">URL </tspan></text></g><g style="clip-path:url(#k)"><text style="font-size:6.22;font-family:Droid Sans" transform="matrix(1 0 0 -1 448.99 481.51)"><tspan x="0" y="0">-</tspan></text></g><g style="clip-path:url(#l)"><text style="font-size:6.22;font-family:Droid Sans" transform="matrix(1 0 0 -1 452.3 481.51)"><tspan x="0 3.58 6.82" y="0">App</tspan></text></g></g><g style="clip-path:url(#m)"><g style="clip-path:url(#n)"><text style="font-size:6.19;font-family:Droid Sans" transform="matrix(1 0 0 -1 437.66 466.42)"><tspan x="0 3.38 6.69 9.94 12.01 15.1" y="0">Router</tspan></text></g></g><g style="clip-path:url(#o)"><g style="clip-path:url(#p)"><text style="font-size:6.19;font-family:Droid Sans" transform="matrix(1 0 0 -1 458.57 505.44)"><tspan x="0 2.84 5.93 8 10.1 11.52 14.76 17.67 20.09 21.65 24.89" y="0">Settings.py</tspan></text></g></g><g style="clip-path:url(#q)"><g style="clip-path:url(#r)"><text style="font-size:6.22;font-family:Droid Sans" transform="matrix(1 0 0 -1 437.66 445.1)"><tspan x="0 4.11 7.38 8.86 11.96 14.59 16.67 18.03 20.2 23.29 24.7 27.67 29.76 31.19 34.48 37.72 39.01 44 47.3 50.54 53.64" y="0">Object relation model</tspan></text></g></g><path d="m593.04 405.38-.29-2.16-.77-2.16-1.32-2.06-1.77-1.94-2.21-1.85-2.69-1.71-3.05-1.46-3.43-1.3-3.65-1.08-3.91-.76-4.03-.56-4.15-.26h-4.2l-4.15.26-4.04.56-3.91.76-3.69 1.08-3.41 1.3-3.03 1.46-2.71 1.71-2.18 1.85-1.8 1.94-1.3 2.06-.81 2.16-.24 2.16.24 2.19.81 2.13 1.3 2.12 1.8 1.94 2.18 1.82 2.71 1.71 3.03 1.49 3.41 1.27 3.69 1.05 3.91.82 4.04.55 4.15.27h4.2l4.15-.27 4.03-.55 3.91-.82 3.65-1.05 3.43-1.27 3.05-1.49 2.69-1.71 2.21-1.82 1.77-1.94 1.32-2.12.77-2.13z" style="fill:none;stroke:#a5a5a5;stroke-width:.82;stroke-linecap:round;stroke-linejoin:round;stroke-miterlimit:10"/><g style="clip-path:url(#s)"><g style="clip-path:url(#t)"><text style="font-size:6.19;font-family:Droid Sans" transform="matrix(1 0 0 -1 542.18 411.05)"><tspan x="0 2.84 4.92 7.88 9.96 11.38 14 15.34 17.96 21.23 24.48 26.56 29.64 32.89" y="0">Static content</tspan></text></g></g><g style="clip-path:url(#u)"><g style="clip-path:url(#v)"><text style="font-size:6.22;font-family:Droid Sans" transform="matrix(1 0 0 -1 542.18 403.51)"><tspan x="0 3.84 5.92 10.92 12.34 13.68 15.76 18.85 23.84 27.08 28.51 31.45 33.54 36.63 39.06" y="0">Html templates,</tspan></text></g></g><g style="clip-path:url(#w)"><g style="clip-path:url(#x)"><text style="font-size:6.19;font-family:Droid Sans" transform="matrix(1 0 0 -1 542.18 395.95)"><tspan x="0 3.3 5.72 8.14 9.69 11.02 12.5 14.92 16.33 17.87 19.41" y="0">Css, js ...</tspan></text></g></g><g style="clip-path:url(#y)"><g style="clip-path:url(#z)"><text style="font-size:6.19;font-family:Droid Sans" transform="matrix(1 0 0 -1 446.42 403.3)"><tspan x="0 3.83 6.8 8.89 11.86 15.11 18.07 20.5" y="0">Database</tspan></text></g></g><g style="fill:none;stroke-linecap:round;stroke-linejoin:round;stroke-miterlimit:10"><path d="m559.66 422.76-20.24 45.84" style="stroke:#a5a5a5;stroke-width:.82"/><path d="m539.14 462.55.31 6.05 4.68-3.86" style="stroke:#a5a5a5;stroke-width:.82"/><g style="stroke:#f90;stroke-width:.79"><path d="m433.46 475.94-69.02.08"/><path d="m369.89 473.3-5.45 2.72 5.45 2.73"/><path d="m428.04 478.68 5.45-2.74-5.45-2.68"/></g></g><g style="clip-path:url(#A)"><g style="clip-path:url(#B)"><text style="font-size:6.22;font-family:Droid Sans" transform="matrix(1 0 0 -1 502.39 480.14)"><tspan x="0 3.99 6.42 9.52 11.66 13 15.98 19.22 22.46 23.89 25.29 27.92 30.9 32.98 34.41 37.72 40.96" y="0">User applications</tspan></text></g></g><g style="clip-path:url(#C)"><g style="clip-path:url(#D)"><text style="font-size:6.19;font-family:Droid Sans" transform="matrix(1 0 0 -1 502.39 472.61)"><tspan x="0 1.89 4.31 5.73 10.71 13.96 15.37 18.45 19.76 22.39 25.36 26.78 28.2 31.46 34.42 37.04 39.88 41.23 43.11 46.37 49.62 52.24 54.32 55.75 59.05 62.3" y="0">(simple callback function)</tspan></text></g></g><g style="fill:none;stroke-linecap:round;stroke-linejoin:round;stroke-miterlimit:10;stroke-width:.82"><g style="stroke:#f90"><path d="m474.36 477.02 23.62 7.76"/><path d="m474.7 477.02 23.28 1.01"/><path d="m474.7 477.02 23.28-5.04"/></g><g style="stroke:#008000"><path d="m575.16 483.7h.07v-20.24h-70.8v.44"/><path d="m571.8 486.43h.05v-20.25h-70.78v.4"/></g></g></g></svg>