<svg height="63.34mm" viewBox="0 0 572.26 224.43" width="161.5mm" xmlns="http://www.w3.org/2000/svg" xmlns:xlink="http://www.w3.org/1999/xlink"><marker id="a" orient="auto" refX="0" refY="0" style="overflow:visible"><path d="m5.77 0-8.65 5v-10z" style="fill:#00f;fill-rule:evenodd;stroke:#00f;stroke-width:1pt" transform="scale(-.4)"/></marker><marker id="b" orient="auto" refX="0" refY="0" style="overflow:visible"><path d="m5.77 0-8.65 5v-10z" style="fill:#f00;fill-rule:evenodd;stroke:#f00;stroke-width:1pt" transform="scale(-.4)"/></marker><marker id="c" orient="auto" refX="0" refY="0" style="overflow:visible"><path d="m5.77 0-8.65 5v-10z" style="fill:#00f;fill-rule:evenodd;stroke:#00f;stroke-width:1pt" transform="scale(-.4)"/></marker><marker id="d" orient="auto" refX="0" refY="0" style="overflow:visible"><path d="m5.77 0-8.65 5v-10z" style="fill:#f00;fill-rule:evenodd;stroke:#f00;stroke-width:1pt" transform="scale(-.4)"/></marker><marker id="e" orient="auto" refX="0" refY="0" style="overflow:visible"><path d="m5.77 0-8.65 5v-10z" style="fill:#00f;fill-rule:evenodd;stroke:#00f;stroke-width:1pt" transform="scale(-.4)"/></marker><marker id="f" orient="auto" refX="0" refY="0" style="overflow:visible"><path d="m5.77 0-8.65 5v-10z" style="fill:#f00;fill-rule:evenodd;stroke:#f00;stroke-width:1pt" transform="scale(-.4)"/></marker><marker id="g" orient="auto" refX="0" refY="0" style="overflow:visible"><path d="m5.77 0-8.65 5v-10z" style="fill:#f00;fill-rule:evenodd;stroke:#f00;stroke-width:1pt" transform="scale(-.4)"/></marker><marker id="h" orient="auto" refX="0" refY="0" style="overflow:visible"><path d="m5.77 0-8.65 5v-10z" style="fill:#00f;fill-rule:evenodd;stroke:#00f;stroke-width:1pt" transform="scale(-.4)"/></marker><g transform="translate(52.09 -221.14)"><path d="m37.28 240.56h84.62v27.55h-84.62z" style="fill:none;stroke:#00f;stroke-width:1.1"/><text style="font-size:10;font-family:Droid Sans;letter-spacing:-.25;word-spacing:0" x="59.38" y="253.45"><tspan x="59.38" y="253.45">Resource</tspan><tspan x="59.38" y="263.45">Monitor</tspan></text><path d="m77.63 445.02v-176.91" style="fill:#00f;fill-rule:evenodd;stroke:#00f"/><text x="264.93" y="340.05"><tspan x="264.93" y="340.05"/></text><text x="366.22" y="285.14"><tspan x="366.22" y="285.14"/></text><text x="352.5" y="251.37"><tspan x="352.5" y="251.37"/></text><text style="font-size:10;font-family:Droid Sans;letter-spacing:-.25;word-spacing:0" x="35.59" y="228.74"><tspan style="font-weight:bold" x="35.59" y="228.74">Monitoring and Failover protocol [6]</tspan></text><path d="m253.05 240.56h84.62v27.55h-84.62z" style="fill:none;stroke:#f00;stroke-width:1.1"/><text style="font-size:10;font-family:Droid Sans;letter-spacing:-.25;word-spacing:0" x="272.92" y="252.34"><tspan x="272.92" y="252.34">Application</tspan><tspan x="272.92" y="262.34">Resource</tspan></text><path d="m295.35 445.58v-177.28" style="fill:#00f;fill-rule:evenodd;stroke:#f00"/><path d="m292.67 284.77h-215.62" style="fill:#00f;fill-rule:evenodd;stroke:#00f;marker-start:url(#a)"/><text style="font-size:10;font-family:Droid Sans;letter-spacing:-.25;word-spacing:0" x="171.52" y="280.92"><tspan x="171.52" y="280.92">LookAlive ?</tspan></text><g transform="translate(0 -1.86)"><path d="m79.86 300.72h215.62" style="fill:#f00;fill-rule:evenodd;stroke:#f00;marker-start:url(#b)"/><text style="font-size:10;font-family:Droid Sans;letter-spacing:-.25;word-spacing:0" x="178.66" y="298.51"><tspan x="178.66" y="298.51">fail</tspan></text></g><g transform="translate(0 39.02)"><path d="m292.67 284.77h-215.62" style="fill:#00f;fill-rule:evenodd;stroke:#00f;marker-start:url(#c)"/><text style="font-size:10;font-family:Droid Sans;letter-spacing:-.25;word-spacing:0" x="171.52" y="280.92"><tspan x="171.52" y="280.92">IsAlive ?</tspan></text></g><g transform="translate(0 37.11)"><path d="m79.86 300.72h215.62" style="fill:#f00;fill-rule:evenodd;stroke:#f00;marker-start:url(#d)"/><text style="font-size:10;font-family:Droid Sans;letter-spacing:-.25;word-spacing:0" x="178.66" y="298.51"><tspan x="178.66" y="298.51">fail</tspan></text></g><path d="m293.04 362.77h-215.62" style="fill:#00f;fill-rule:evenodd;stroke:#00f;marker-start:url(#e)"/><g style="font-size:10;font-family:Droid Sans;letter-spacing:-.25;word-spacing:0" transform="translate(.37 78)"><text x="118.83" y="280.92"><tspan x="118.83" y="280.92">RestartAction at the same node</tspan></text><text x="299.6" y="286.82"><tspan x="299.6" y="286.82">Retry "RestartThreahold" times</tspan></text><text x="298.82" y="324.02"><tspan x="298.82" y="324.02">Wait for "RetryPeriodFailure"</tspan><tspan x="298.82" y="334.02">before retrying</tspan></text><text x="298.45" y="210.11"><tspan x="298.45" y="210.11">"IsAlivePollingInterval"</tspan><tspan x="298.45" y="220.11">"LooksAlivePollingInterval"</tspan></text><text x="79.52" y="360.58"><tspan x="79.52" y="360.58">[Permanent failure]</tspan></text></g><g transform="translate(.37 76.09)"><path d="m79.86 300.72h215.62" style="fill:#f00;fill-rule:evenodd;stroke:#f00;marker-start:url(#f)"/><text style="font-size:10;font-family:Droid Sans;letter-spacing:-.25;word-spacing:0" x="178.66" y="298.51"><tspan x="178.66" y="298.51">fail</tspan></text></g><g transform="translate(.19 115.81)"><path d="m292.67 284.77h-215.62" style="fill:#00f;fill-rule:evenodd;stroke:#00f;marker-start:url(#h)"/><text style="font-size:10;font-family:Droid Sans;letter-spacing:-.25;word-spacing:0" x="88.78" y="280.92"><tspan x="88.78" y="280.92">Failover to another node (all group resources)</tspan></text></g><g transform="translate(.19 113.95)"><path d="m79.86 300.72h215.62" style="fill:#f00;fill-rule:evenodd;stroke:#f00;marker-start:url(#g)"/><text style="font-size:10;font-family:Droid Sans;letter-spacing:-.25;word-spacing:0" x="178.66" y="298.51"><tspan x="178.66" y="298.51">fail</tspan></text></g></g></svg>